solid OpenSCAD_Model
  facet normal 0 -1 -0
    outer loop
      vertex 2.55238 -23.4157 0.125
      vertex 2.55238 -23.4157 50.75
      vertex -2.55238 -23.4157 50.75
    endloop
  endfacet
  facet normal -0 -1 0
    outer loop
      vertex -2.55238 -23.4157 0.125
      vertex 2.55238 -23.4157 0.125
      vertex -2.55238 -23.4157 50.75
    endloop
  endfacet
  facet normal 5.32666e-16 -0.923879 0.382684
    outer loop
      vertex -2.55238 -23.4157 50.75
      vertex 2.55238 -23.4157 50.75
      vertex 2.55238 -22.6715 52.5465
    endloop
  endfacet
  facet normal 0 -0.923879 0.382684
    outer loop
      vertex -2.55238 -22.6715 52.5465
      vertex -2.55238 -23.4157 50.75
      vertex 2.55238 -22.6715 52.5465
    endloop
  endfacet
  facet normal 0.678598 -0.678599 0.281085
    outer loop
      vertex 2.55238 -22.6715 52.5465
      vertex 2.55238 -23.4157 50.75
      vertex 4.04067 -21.6191 51.4941
    endloop
  endfacet
  facet normal 0.678599 -0.678599 0.281084
    outer loop
      vertex 4.04067 -21.6191 51.4941
      vertex 2.55238 -23.4157 50.75
      vertex 4.04067 -21.9274 50.75
    endloop
  endfacet
  facet normal 0.707107 -0.707107 -1.5386e-16
    outer loop
      vertex 4.04067 -21.9274 50.75
      vertex 2.55238 -23.4157 50.75
      vertex 2.55238 -23.4157 0.125
    endloop
  endfacet
  facet normal 0.707107 -0.707107 -1.61274e-16
    outer loop
      vertex 4.04067 -21.9274 0.125
      vertex 4.04067 -21.9274 50.75
      vertex 2.55238 -23.4157 0.125
    endloop
  endfacet
  facet normal -2.2305e-16 4.78701e-32 -1
    outer loop
      vertex -3.82322 -20.875 0.125
      vertex -20 -23.375 0.125
      vertex -20 23.375 0.125
    endloop
  endfacet
  facet normal -2.23953e-16 5.00252e-32 -1
    outer loop
      vertex 1.5 20.875 0.125
      vertex 4.04067 21.9274 0.125
      vertex 1.5 -20.875 0.125
    endloop
  endfacet
  facet normal -2.19296e-16 -7.62076e-18 -1
    outer loop
      vertex -1.375 -20.875 0.125
      vertex 4.04067 -21.9274 0.125
      vertex -2.55238 -23.4157 0.125
    endloop
  endfacet
  facet normal -2.20206e-16 -3.58519e-18 -1
    outer loop
      vertex 4.04067 -21.9274 0.125
      vertex 2.55238 -23.4157 0.125
      vertex -2.55238 -23.4157 0.125
    endloop
  endfacet
  facet normal -2.1239e-16 2.79133e-17 -1
    outer loop
      vertex 1.5 -20.875 0.125
      vertex 4.04067 -21.9274 0.125
      vertex -1.375 -20.875 0.125
    endloop
  endfacet
  facet normal -2.23905e-16 -1.13758e-19 -1
    outer loop
      vertex 1.5 20.875 0.125
      vertex 2.55238 23.4157 0.125
      vertex 4.04067 21.9274 0.125
    endloop
  endfacet
  facet normal -2.23953e-16 4.98921e-32 -1
    outer loop
      vertex 4.04067 21.9274 0.125
      vertex 4.04067 -21.9274 0.125
      vertex 1.5 -20.875 0.125
    endloop
  endfacet
  facet normal -2.20206e-16 -1.64591e-18 -1
    outer loop
      vertex -2.55238 23.4157 0.125
      vertex 2.55238 23.4157 0.125
      vertex 1.5 20.875 0.125
    endloop
  endfacet
  facet normal -1.57009e-16 9.91539e-17 -1
    outer loop
      vertex -2.55238 23.4157 0.125
      vertex 1.5 20.875 0.125
      vertex 1.32322 20.875 0.125
    endloop
  endfacet
  facet normal -2.15046e-16 -1.6789e-18 -1
    outer loop
      vertex -3.82322 20.875 0.125
      vertex -2.55238 23.4157 0.125
      vertex -1.5 20.875 0.125
    endloop
  endfacet
  facet normal 2.18578e-16 -2.18578e-16 -1
    outer loop
      vertex -3.82322 20.875 0.125
      vertex -2.59305 23.375 0.125
      vertex -2.55238 23.4157 0.125
    endloop
  endfacet
  facet normal -2.22045e-16 -4.57772e-18 -1
    outer loop
      vertex -2.55238 23.4157 0.125
      vertex -1.375 20.875 0.125
      vertex -1.5 20.875 0.125
    endloop
  endfacet
  facet normal -2.23232e-16 -1.17675e-18 -1
    outer loop
      vertex -20 23.375 0.125
      vertex -2.59305 23.375 0.125
      vertex -3.82322 20.875 0.125
    endloop
  endfacet
  facet normal -2.23232e-16 1.17675e-18 -1
    outer loop
      vertex -2.59305 -23.375 0.125
      vertex -20 -23.375 0.125
      vertex -3.82322 -20.875 0.125
    endloop
  endfacet
  facet normal -7.46509e-17 -7.46509e-17 -1
    outer loop
      vertex -1.375 -20.875 0.125
      vertex -2.55238 -23.4157 0.125
      vertex -2.59305 -23.375 0.125
    endloop
  endfacet
  facet normal -2.26741e-16 -5.49942e-19 -1
    outer loop
      vertex -1.375 -20.875 0.125
      vertex -2.59305 -23.375 0.125
      vertex -3.82322 -20.875 0.125
    endloop
  endfacet
  facet normal -2.2305e-16 -0 -1
    outer loop
      vertex -3.82322 -20.875 0.125
      vertex -20 23.375 0.125
      vertex -3.82322 20.875 0.125
    endloop
  endfacet
  facet normal -2.26305e-16 -6.55226e-18 -1
    outer loop
      vertex -1.375 20.875 0.125
      vertex -2.55238 23.4157 0.125
      vertex 1.32322 20.875 0.125
    endloop
  endfacet
  facet normal -0.707107 -0.707107 1.19626e-16
    outer loop
      vertex -2.59305 -23.375 0.125
      vertex -2.55238 -23.4157 0.125
      vertex -2.59305 -23.375 2.75
    endloop
  endfacet
  facet normal -0.707107 -0.707107 1.37537e-16
    outer loop
      vertex -2.55238 -23.4157 50.75
      vertex -4.04067 -21.9274 50.75
      vertex -2.59305 -23.375 2.75
    endloop
  endfacet
  facet normal -0.707107 -0.707107 1.55071e-16
    outer loop
      vertex -2.55238 -23.4157 50.75
      vertex -2.59305 -23.375 2.75
      vertex -2.55238 -23.4157 0.125
    endloop
  endfacet
  facet normal -0.707107 -0.707107 1.57606e-16
    outer loop
      vertex -2.59305 -23.375 2.75
      vertex -4.04067 -21.9274 50.75
      vertex -4.04067 -21.9274 2.75
    endloop
  endfacet
  facet normal -0.678598 -0.678598 0.281085
    outer loop
      vertex -4.04067 -21.9274 50.75
      vertex -2.55238 -23.4157 50.75
      vertex -2.55238 -22.6715 52.5465
    endloop
  endfacet
  facet normal -0.678598 -0.678599 0.281084
    outer loop
      vertex -4.04067 -21.9274 50.75
      vertex -2.55238 -22.6715 52.5465
      vertex -4.04067 -21.6191 51.4941
    endloop
  endfacet
  facet normal -0.678598 -0.281085 0.678599
    outer loop
      vertex -4.04067 -21.6191 51.4941
      vertex -2.55238 -22.6715 52.5465
      vertex -2.55238 -20.875 53.2907
    endloop
  endfacet
  facet normal 0 -0.382684 0.923879
    outer loop
      vertex -2.55238 -22.6715 52.5465
      vertex 2.55238 -22.6715 52.5465
      vertex 2.55238 -20.875 53.2907
    endloop
  endfacet
  facet normal -2.66333e-16 -0.382684 0.923879
    outer loop
      vertex -2.55238 -20.875 53.2907
      vertex -2.55238 -22.6715 52.5465
      vertex 2.55238 -20.875 53.2907
    endloop
  endfacet
  facet normal 0.678598 -0.281085 0.678598
    outer loop
      vertex 2.55238 -20.875 53.2907
      vertex 2.55238 -22.6715 52.5465
      vertex 4.04067 -20.875 51.8024
    endloop
  endfacet
  facet normal 0.678598 -0.281084 0.678599
    outer loop
      vertex 4.04067 -20.875 51.8024
      vertex 2.55238 -22.6715 52.5465
      vertex 4.04067 -21.6191 51.4941
    endloop
  endfacet
  facet normal 1 5.50625e-16 -2.28075e-16
    outer loop
      vertex 4.04067 -21.6191 51.4941
      vertex 4.04067 -21.9274 50.75
      vertex 4.04067 -21.9274 0.125
    endloop
  endfacet
  facet normal 1 -2.28254e-16 -2.28075e-16
    outer loop
      vertex 4.04067 21.9274 50.75
      vertex 4.04067 -21.6191 51.4941
      vertex 4.04067 21.9274 0.125
    endloop
  endfacet
  facet normal 1 -2.2278e-16 -2.23435e-16
    outer loop
      vertex 4.04067 21.9274 0.125
      vertex 4.04067 -21.6191 51.4941
      vertex 4.04067 -21.9274 0.125
    endloop
  endfacet
  facet normal 1 -2.25956e-16 -9.35939e-17
    outer loop
      vertex 4.04067 21.6191 51.4941
      vertex 4.04067 -21.6191 51.4941
      vertex 4.04067 21.9274 50.75
    endloop
  endfacet
  facet normal 1 -2.25956e-16 -5.45508e-16
    outer loop
      vertex 4.04067 20.875 51.8024
      vertex 4.04067 -21.6191 51.4941
      vertex 4.04067 21.6191 51.4941
    endloop
  endfacet
  facet normal 1 -2.34011e-16 5.64954e-16
    outer loop
      vertex 4.04067 -20.875 51.8024
      vertex 4.04067 -21.6191 51.4941
      vertex 4.04067 20.875 51.8024
    endloop
  endfacet
  facet normal 0.707107 0.707107 -1.61683e-16
    outer loop
      vertex 2.55238 23.4157 50.75
      vertex 4.04067 21.9274 50.75
      vertex 4.04067 21.9274 0.125
    endloop
  endfacet
  facet normal 0.707107 0.707107 -1.61274e-16
    outer loop
      vertex 2.55238 23.4157 0.125
      vertex 2.55238 23.4157 50.75
      vertex 4.04067 21.9274 0.125
    endloop
  endfacet
  facet normal -0 1 0
    outer loop
      vertex 2.55238 23.4157 50.75
      vertex 2.55238 23.4157 0.125
      vertex -2.55238 23.4157 50.75
    endloop
  endfacet
  facet normal 0 1 -0
    outer loop
      vertex -2.55238 23.4157 50.75
      vertex 2.55238 23.4157 0.125
      vertex -2.55238 23.4157 0.125
    endloop
  endfacet
  facet normal -0.707107 0.707107 1.57009e-16
    outer loop
      vertex -4.04067 21.9274 50.75
      vertex -2.55238 23.4157 50.75
      vertex -4.04067 21.9274 2.75
    endloop
  endfacet
  facet normal -0.707107 0.707107 1.6128e-16
    outer loop
      vertex -2.59305 23.375 2.75
      vertex -2.55238 23.4157 50.75
      vertex -2.55238 23.4157 0.125
    endloop
  endfacet
  facet normal -0.707107 0.707107 1.88111e-16
    outer loop
      vertex -4.04067 21.9274 2.75
      vertex -2.55238 23.4157 50.75
      vertex -2.59305 23.375 2.75
    endloop
  endfacet
  facet normal -0.707107 0.707107 2.39252e-16
    outer loop
      vertex -2.59305 23.375 2.75
      vertex -2.55238 23.4157 0.125
      vertex -2.59305 23.375 0.125
    endloop
  endfacet
  facet normal 2.04097e-16 1 -6.90571e-32
    outer loop
      vertex -2.59305 23.375 2.75
      vertex -2.59305 23.375 0.125
      vertex -20 23.375 2.75
    endloop
  endfacet
  facet normal 2.04097e-16 1 -0
    outer loop
      vertex -20 23.375 2.75
      vertex -2.59305 23.375 0.125
      vertex -20 23.375 0.125
    endloop
  endfacet
  facet normal -1 2.27982e-16 0
    outer loop
      vertex -20 -23.375 2.75
      vertex -20 23.375 2.75
      vertex -20 -23.375 0.125
    endloop
  endfacet
  facet normal -1 2.27982e-16 0
    outer loop
      vertex -20 -23.375 0.125
      vertex -20 23.375 2.75
      vertex -20 23.375 0.125
    endloop
  endfacet
  facet normal -2.04097e-16 -1 3.45286e-32
    outer loop
      vertex -2.59305 -23.375 0.125
      vertex -2.59305 -23.375 2.75
      vertex -20 -23.375 2.75
    endloop
  endfacet
  facet normal -2.04097e-16 -1 -0
    outer loop
      vertex -20 -23.375 0.125
      vertex -2.59305 -23.375 0.125
      vertex -20 -23.375 2.75
    endloop
  endfacet
  facet normal 1.23573e-15 1 -3.13584e-31
    outer loop
      vertex -1.375 -20.875 0.125
      vertex -1.375 -20.875 2.75
      vertex 1.5 -20.875 0.125
    endloop
  endfacet
  facet normal 0 1 -0
    outer loop
      vertex -1.5 -20.875 50.75
      vertex -1.375 -20.875 2.75
      vertex -1.5 -20.875 2.44822
    endloop
  endfacet
  facet normal 1.23867e-15 1 3.22571e-18
    outer loop
      vertex 1.5 -20.875 0.125
      vertex -1.375 -20.875 2.75
      vertex -1.5 -20.875 50.75
    endloop
  endfacet
  facet normal 1.18424e-15 1 -2.64901e-31
    outer loop
      vertex 1.5 -20.875 0.125
      vertex -1.5 -20.875 50.75
      vertex 1.5 -20.875 50.75
    endloop
  endfacet
  facet normal 0 1 0
    outer loop
      vertex -1.375 -20.875 2.75
      vertex -1.375 -20.875 0.125
      vertex -2.18046 -20.875 0.805456
    endloop
  endfacet
  facet normal 0 1 -0
    outer loop
      vertex -2.18046 -20.875 0.805456
      vertex -1.375 -20.875 0.125
      vertex -3.82322 -20.875 0.125
    endloop
  endfacet
  facet normal 0.382683 0 -0.92388
    outer loop
      vertex -3.82322 -20.875 0.125
      vertex -3.82322 20.875 0.125
      vertex -2.18046 -20.875 0.805456
    endloop
  endfacet
  facet normal 0.382683 0 -0.92388
    outer loop
      vertex -2.18046 -20.875 0.805456
      vertex -3.82322 20.875 0.125
      vertex -2.18046 20.875 0.805456
    endloop
  endfacet
  facet normal 0 -1 -0
    outer loop
      vertex -1.5 20.875 0.125
      vertex -1.5 20.875 2.44822
      vertex -2.18046 20.875 0.805456
    endloop
  endfacet
  facet normal -0 -1 0
    outer loop
      vertex -3.82322 20.875 0.125
      vertex -1.5 20.875 0.125
      vertex -2.18046 20.875 0.805456
    endloop
  endfacet
  facet normal 0 -1.29188e-18 0
    outer loop
      vertex -1.5 20.875 50.75
      vertex -1.5 20.875 2.44822
      vertex -1.5 20.875 0.125
    endloop
  endfacet
  facet normal 1 -2.23374e-16 -2.20657e-16
    outer loop
      vertex -1.5 -20.875 2.44822
      vertex -1.5 20.875 2.44822
      vertex -1.5 20.875 50.75
    endloop
  endfacet
  facet normal 1 -2.18056e-16 -2.25254e-16
    outer loop
      vertex -1.5 -20.875 50.75
      vertex -1.5 -20.875 2.44822
      vertex -1.5 20.875 50.75
    endloop
  endfacet
  facet normal 0 -1 0
    outer loop
      vertex -1.5 20.875 50.75
      vertex -1.5 20.875 0.125
      vertex -1.375 20.875 0.125
    endloop
  endfacet
  facet normal -1.82899e-15 -1 -4.76299e-18
    outer loop
      vertex 0.569544 20.875 1.94454
      vertex -1.5 20.875 50.75
      vertex -1.375 20.875 2.75
    endloop
  endfacet
  facet normal 0 -1 0
    outer loop
      vertex -1.375 20.875 2.75
      vertex -1.5 20.875 50.75
      vertex -1.375 20.875 0.125
    endloop
  endfacet
  facet normal 1.95781e-16 -1 8.10953e-17
    outer loop
      vertex 1.32322 20.875 0.125
      vertex -1.5 20.875 50.75
      vertex 0.569544 20.875 1.94454
    endloop
  endfacet
  facet normal 1.10184e-32 -1 7.01771e-17
    outer loop
      vertex 1.5 20.875 0.125
      vertex -1.5 20.875 50.75
      vertex 1.32322 20.875 0.125
    endloop
  endfacet
  facet normal -1.18424e-15 -1 2.64901e-31
    outer loop
      vertex 1.5 20.875 50.75
      vertex -1.5 20.875 50.75
      vertex 1.5 20.875 0.125
    endloop
  endfacet
  facet normal -0 -1 0
    outer loop
      vertex -1.375 20.875 0.125
      vertex 1.32322 20.875 0.125
      vertex 0.569544 20.875 1.94454
    endloop
  endfacet
  facet normal 0 -1 0
    outer loop
      vertex -1.375 20.875 2.75
      vertex -1.375 20.875 0.125
      vertex 0.569544 20.875 1.94454
    endloop
  endfacet
  facet normal -1 2.23374e-16 2.23689e-16
    outer loop
      vertex 1.5 20.875 0.125
      vertex 1.5 -20.875 0.125
      vertex 1.5 20.875 50.75
    endloop
  endfacet
  facet normal -1 2.23374e-16 2.23689e-16
    outer loop
      vertex 1.5 20.875 50.75
      vertex 1.5 -20.875 0.125
      vertex 1.5 -20.875 50.75
    endloop
  endfacet
  facet normal 2.2261e-16 -4.23815e-32 1
    outer loop
      vertex -4.04067 21.9274 2.75
      vertex -20 23.375 2.75
      vertex -20 -23.375 2.75
    endloop
  endfacet
  facet normal 2.2961e-16 -7.71622e-17 1
    outer loop
      vertex -20 -23.375 2.75
      vertex -2.59305 -23.375 2.75
      vertex -4.04067 -21.9274 2.75
    endloop
  endfacet
  facet normal 2.2261e-16 -4.95932e-32 1
    outer loop
      vertex -4.04067 21.9274 2.75
      vertex -20 -23.375 2.75
      vertex -4.04067 -21.9274 2.75
    endloop
  endfacet
  facet normal 2.2961e-16 7.71622e-17 1
    outer loop
      vertex -2.59305 23.375 2.75
      vertex -20 23.375 2.75
      vertex -4.04067 21.9274 2.75
    endloop
  endfacet
  facet normal -1 -5.36065e-16 2.22045e-16
    outer loop
      vertex -4.04067 -21.9274 50.75
      vertex -4.04067 -21.6191 51.4941
      vertex -4.04067 -21.9274 2.75
    endloop
  endfacet
  facet normal -1 -9.08074e-17 2.19229e-16
    outer loop
      vertex -4.04067 -21.9274 2.75
      vertex -4.04067 -21.6191 51.4941
      vertex -4.04067 -20.875 51.8024
    endloop
  endfacet
  facet normal -1 2.34011e-16 2.1226e-16
    outer loop
      vertex -4.04067 -21.9274 2.75
      vertex -4.04067 -20.875 51.8024
      vertex -4.04067 20.875 51.8024
    endloop
  endfacet
  facet normal -1 1.26705e-16 3.05894e-16
    outer loop
      vertex -4.04067 -21.9274 2.75
      vertex -4.04067 20.875 51.8024
      vertex -4.04067 21.6191 51.4941
    endloop
  endfacet
  facet normal -1 3.20506e-16 1.32758e-16
    outer loop
      vertex -4.04067 -21.9274 2.75
      vertex -4.04067 21.6191 51.4941
      vertex -4.04067 21.9274 50.75
    endloop
  endfacet
  facet normal -1 2.2278e-16 2.22045e-16
    outer loop
      vertex -4.04067 -21.9274 2.75
      vertex -4.04067 21.9274 50.75
      vertex -4.04067 21.9274 2.75
    endloop
  endfacet
  facet normal -0.678599 -0.281084 0.678599
    outer loop
      vertex -4.04067 -20.875 51.8024
      vertex -4.04067 -21.6191 51.4941
      vertex -2.55238 -20.875 53.2907
    endloop
  endfacet
  facet normal 0 0 1
    outer loop
      vertex -2.55238 -20.875 53.2907
      vertex 2.55238 -20.875 53.2907
      vertex 2.55238 20.875 53.2907
    endloop
  endfacet
  facet normal 0 -0 1
    outer loop
      vertex -2.55238 20.875 53.2907
      vertex -2.55238 -20.875 53.2907
      vertex 2.55238 20.875 53.2907
    endloop
  endfacet
  facet normal -0.707107 1.59146e-16 0.707107
    outer loop
      vertex -4.04067 -20.875 51.8024
      vertex -2.55238 -20.875 53.2907
      vertex -2.55238 20.875 53.2907
    endloop
  endfacet
  facet normal -0.707107 1.65471e-16 0.707107
    outer loop
      vertex -4.04067 20.875 51.8024
      vertex -4.04067 -20.875 51.8024
      vertex -2.55238 20.875 53.2907
    endloop
  endfacet
  facet normal 0.707107 -1.57949e-16 0.707107
    outer loop
      vertex 2.55238 20.875 53.2907
      vertex 2.55238 -20.875 53.2907
      vertex 4.04067 -20.875 51.8024
    endloop
  endfacet
  facet normal 0.707107 -1.65471e-16 0.707107
    outer loop
      vertex 4.04067 20.875 51.8024
      vertex 2.55238 20.875 53.2907
      vertex 4.04067 -20.875 51.8024
    endloop
  endfacet
  facet normal 0.678599 0.281084 0.678599
    outer loop
      vertex 4.04067 21.6191 51.4941
      vertex 2.55238 20.875 53.2907
      vertex 4.04067 20.875 51.8024
    endloop
  endfacet
  facet normal 0.678598 0.678599 0.281084
    outer loop
      vertex 2.55238 22.6715 52.5465
      vertex 4.04067 21.6191 51.4941
      vertex 4.04067 21.9274 50.75
    endloop
  endfacet
  facet normal 0.678598 0.281085 0.678599
    outer loop
      vertex 2.55238 22.6715 52.5465
      vertex 2.55238 20.875 53.2907
      vertex 4.04067 21.6191 51.4941
    endloop
  endfacet
  facet normal 0.678598 0.678598 0.281085
    outer loop
      vertex 2.55238 22.6715 52.5465
      vertex 4.04067 21.9274 50.75
      vertex 2.55238 23.4157 50.75
    endloop
  endfacet
  facet normal -0 0.923879 0.382684
    outer loop
      vertex 2.55238 22.6715 52.5465
      vertex 2.55238 23.4157 50.75
      vertex -2.55238 22.6715 52.5465
    endloop
  endfacet
  facet normal 5.28258e-16 0.923879 0.382684
    outer loop
      vertex -2.55238 22.6715 52.5465
      vertex 2.55238 23.4157 50.75
      vertex -2.55238 23.4157 50.75
    endloop
  endfacet
  facet normal -0.678599 0.678599 0.281084
    outer loop
      vertex -4.04067 21.9274 50.75
      vertex -4.04067 21.6191 51.4941
      vertex -2.55238 23.4157 50.75
    endloop
  endfacet
  facet normal -0.678598 0.678599 0.281085
    outer loop
      vertex -2.55238 23.4157 50.75
      vertex -4.04067 21.6191 51.4941
      vertex -2.55238 22.6715 52.5465
    endloop
  endfacet
  facet normal -2.36848e-15 5.1646e-31 -1
    outer loop
      vertex -1.5 20.875 50.75
      vertex 1.5 20.875 50.75
      vertex -1.5 -20.875 50.75
    endloop
  endfacet
  facet normal -2.36848e-15 4.93166e-31 -1
    outer loop
      vertex -1.5 -20.875 50.75
      vertex 1.5 20.875 50.75
      vertex 1.5 -20.875 50.75
    endloop
  endfacet
  facet normal 0.92388 0 -0.382683
    outer loop
      vertex -1.5 -20.875 2.44822
      vertex -2.18046 -20.875 0.805456
      vertex -2.18046 20.875 0.805456
    endloop
  endfacet
  facet normal 0 9.71445e-17 0
    outer loop
      vertex -1.375 -20.875 2.75
      vertex -2.18046 -20.875 0.805456
      vertex -1.5 -20.875 2.44822
    endloop
  endfacet
  facet normal 0.92388 -2.84335e-18 -0.382683
    outer loop
      vertex -1.5 20.875 2.44822
      vertex -1.5 -20.875 2.44822
      vertex -2.18046 20.875 0.805456
    endloop
  endfacet
  facet normal -0.678598 0.281084 0.678599
    outer loop
      vertex -4.04067 21.6191 51.4941
      vertex -4.04067 20.875 51.8024
      vertex -2.55238 22.6715 52.5465
    endloop
  endfacet
  facet normal -0.678598 0.281085 0.678598
    outer loop
      vertex -4.04067 20.875 51.8024
      vertex -2.55238 20.875 53.2907
      vertex -2.55238 22.6715 52.5465
    endloop
  endfacet
  facet normal 2.66333e-16 0.382684 0.923879
    outer loop
      vertex -2.55238 20.875 53.2907
      vertex 2.55238 20.875 53.2907
      vertex 2.55238 22.6715 52.5465
    endloop
  endfacet
  facet normal 0 0.382684 0.923879
    outer loop
      vertex -2.55238 22.6715 52.5465
      vertex -2.55238 20.875 53.2907
      vertex 2.55238 22.6715 52.5465
    endloop
  endfacet
endsolid OpenSCAD_Model
