<?xml version="1.0" encoding="UTF-8" standalone="no"?>
<!-- Created with Inkscape (http://www.inkscape.org/) -->

<svg
   xmlns:dc="http://purl.org/dc/elements/1.1/"
   xmlns:cc="http://creativecommons.org/ns#"
   xmlns:rdf="http://www.w3.org/1999/02/22-rdf-syntax-ns#"
   xmlns:svg="http://www.w3.org/2000/svg"
   xmlns="http://www.w3.org/2000/svg"
   xmlns:sodipodi="http://sodipodi.sourceforge.net/DTD/sodipodi-0.dtd"
   xmlns:inkscape="http://www.inkscape.org/namespaces/inkscape"
   width="100"
   height="100"
   id="svg2"
   version="1.1"
   inkscape:version="0.48.3.1 r9886"
   sodipodi:docname="bat.svg">
  <defs
     id="defs4" />
  <sodipodi:namedview
     id="base"
     pagecolor="#ffffff"
     bordercolor="#666666"
     borderopacity="1.0"
     inkscape:pageopacity="0.0"
     inkscape:pageshadow="2"
     inkscape:zoom="11.2"
     inkscape:cx="40.249477"
     inkscape:cy="35.461562"
     inkscape:document-units="mm"
     inkscape:current-layer="layer1"
     showgrid="false"
     inkscape:window-width="1871"
     inkscape:window-height="1176"
     inkscape:window-x="49"
     inkscape:window-y="24"
     inkscape:window-maximized="1" />
  <metadata
     id="metadata7">
    <rdf:RDF>
      <cc:Work
         rdf:about="">
        <dc:format>image/svg+xml</dc:format>
        <dc:type
           rdf:resource="http://purl.org/dc/dcmitype/StillImage" />
        <dc:title></dc:title>
      </cc:Work>
    </rdf:RDF>
  </metadata>
  <g
     inkscape:label="Ebene 1"
     inkscape:groupmode="layer"
     id="layer1"
     transform="translate(0,-952.36218)">
    <path
       style="fill:none"
       d="m 45.967639,1029.9586 c -0.116205,-0.061 -0.16058,-0.2353 -0.10725,-0.4212 0.02886,-0.1007 0.0223,-0.1531 -0.03249,-0.2594 -0.03777,-0.073 -0.108252,-0.2168 -0.156635,-0.3188 -0.111303,-0.2346 -0.265741,-0.4679 -0.38431,-0.5803 -0.05065,-0.048 -0.09239,-0.1017 -0.09274,-0.1192 -8.86e-4,-0.044 -0.211104,-0.3116 -0.369963,-0.4713 -0.07231,-0.073 -0.164853,-0.1889 -0.205658,-0.2583 -0.0408,-0.069 -0.132616,-0.1654 -0.204025,-0.2135 -0.07141,-0.048 -0.32361,-0.2704 -0.560445,-0.4942 -0.236836,-0.2238 -0.456565,-0.4272 -0.488287,-0.4519 -0.03172,-0.025 -0.08838,-0.097 -0.1259,-0.1603 -0.03752,-0.063 -0.255984,-0.278 -0.48547,-0.4769 -0.229485,-0.1989 -0.417246,-0.3766 -0.417246,-0.3948 0,-0.018 -0.01782,-0.033 -0.03959,-0.033 -0.02177,0 -0.102622,-0.053 -0.179662,-0.1176 -0.156874,-0.1317 -0.574442,-0.3827 -0.914747,-0.5498 -0.123838,-0.061 -0.293756,-0.174 -0.377595,-0.2514 -0.08384,-0.077 -0.274645,-0.2051 -0.424011,-0.2837 -0.149367,-0.079 -0.29343,-0.1603 -0.32014,-0.1814 -0.02671,-0.021 -0.08754,-0.043 -0.135169,-0.048 -0.04763,-0.01 -0.177625,-0.052 -0.288874,-0.1049 -0.111249,-0.053 -0.226159,-0.096 -0.255355,-0.096 -0.0292,0 -0.08601,-0.022 -0.126255,-0.049 -0.04024,-0.027 -0.131596,-0.072 -0.203005,-0.099 -0.115059,-0.045 -0.256162,-0.1048 -0.649172,-0.2769 -0.161352,-0.071 -0.223824,-0.087 -0.585033,-0.1495 -0.178951,-0.031 -0.387613,-0.068 -0.463694,-0.082 -0.207565,-0.039 -1.85403,-0.022 -2.027571,0.02 -0.08306,0.02 -0.242821,0.054 -0.355035,0.074 -0.112214,0.021 -0.295837,0.055 -0.408051,0.078 -0.112214,0.022 -0.336545,0.057 -0.498513,0.078 -0.303906,0.039 -0.924003,0.2309 -1.282071,0.3969 -0.271804,0.126 -0.543064,0.3333 -0.630887,0.4822 -0.03928,0.067 -0.08966,0.121 -0.111947,0.121 -0.06148,0 -0.332935,0.2287 -0.332935,0.2804 0,0.057 -0.142738,0.095 -0.250922,0.067 -0.154175,-0.04 -0.183515,-0.4116 -0.03697,-0.4678 0.09636,-0.037 0.172497,-0.6456 0.176282,-1.4092 1.86e-4,-0.036 0.0027,-0.1025 0.0057,-0.1484 0.01855,-0.2891 0.0094,-1.3865 -0.01324,-1.5953 -0.01497,-0.1378 -0.07774,-0.3937 -0.139496,-0.5686 -0.06176,-0.175 -0.112286,-0.3471 -0.112286,-0.3824 0,-0.035 -0.03339,-0.1334 -0.07419,-0.2179 -0.0408,-0.084 -0.07419,-0.17 -0.07419,-0.1901 0,-0.02 -0.05041,-0.1285 -0.112019,-0.2407 -0.06161,-0.1123 -0.109713,-0.2177 -0.106894,-0.2342 0.0028,-0.016 0.0019,-0.038 -0.0021,-0.048 -0.004,-0.01 -0.01253,-0.044 -0.01901,-0.074 -0.03415,-0.1614 -0.240292,-0.7198 -0.318205,-0.862 -0.01941,-0.035 -0.0353,-0.1062 -0.0353,-0.1572 0,-0.051 -0.02894,-0.1266 -0.0643,-0.1679 -0.06127,-0.072 -0.175499,-0.3577 -0.222147,-0.5564 -0.01197,-0.051 -0.04259,-0.1261 -0.06804,-0.1669 -0.02545,-0.041 -0.05819,-0.1327 -0.07275,-0.2041 -0.01456,-0.071 -0.03938,-0.1465 -0.05515,-0.1669 -0.06717,-0.087 -0.333711,-0.6167 -0.333711,-0.6633 0,-0.028 -0.02767,-0.074 -0.06148,-0.1019 -0.03382,-0.028 -0.154458,-0.2429 -0.268093,-0.4775 -0.263693,-0.5445 -0.410851,-0.778 -0.710101,-1.1272 -0.07196,-0.084 -0.213066,-0.251 -0.313566,-0.3713 -0.246439,-0.2951 -0.507057,-0.5507 -0.989135,-0.9702 -0.04806,-0.042 -0.154989,-0.1503 -0.237627,-0.2411 -0.21674,-0.2382 -0.459518,-0.454 -0.619481,-0.5507 -0.126462,-0.077 -0.156274,-0.1178 -0.143501,-0.1987 0.0024,-0.015 -0.01379,-0.028 -0.03602,-0.028 -0.02223,0 -0.126557,-0.093 -0.231847,-0.2077 -0.169883,-0.1844 -0.526736,-0.46 -0.595603,-0.46 -0.01404,0 -0.0571,-0.029 -0.09567,-0.065 -0.03858,-0.036 -0.133863,-0.098 -0.211748,-0.138 -0.07789,-0.04 -0.191689,-0.1136 -0.252897,-0.1632 -0.06121,-0.05 -0.213524,-0.1361 -0.338481,-0.1923 -0.124957,-0.056 -0.250155,-0.1344 -0.278217,-0.174 -0.02806,-0.04 -0.151179,-0.1089 -0.273594,-0.1538 -0.122415,-0.045 -0.339424,-0.1397 -0.482242,-0.2104 -0.279528,-0.1384 -1.111443,-0.3227 -1.502367,-0.3328 -0.112214,0 -0.229065,-0.015 -0.259669,-0.027 -0.386414,-0.1488 -0.414955,-0.1527 -1.145527,-0.1546 -0.888244,0 -1.289657,0.051 -2.007192,0.2686 -0.178879,0.054 -0.351868,0.1323 -0.400463,0.1809 -0.09912,0.099 -0.25878,0.1112 -0.413282,0.031 -0.152158,-0.079 -0.168378,-0.2221 -0.0484,-0.428 0.05349,-0.092 0.142339,-0.2921 0.197435,-0.4452 0.05509,-0.153 0.135294,-0.3697 0.178219,-0.4817 0.04293,-0.1119 0.07805,-0.2399 0.07805,-0.2844 0,-0.044 0.03067,-0.1532 0.06816,-0.2416 0.03749,-0.088 0.09681,-0.311 0.131827,-0.4946 0.03501,-0.1836 0.08928,-0.4507 0.120584,-0.5935 0.0313,-0.1429 0.07176,-0.435 0.0899,-0.6492 0.01814,-0.2142 0.05212,-0.5147 0.07551,-0.6677 0.02339,-0.1531 0.04767,-0.3816 0.05397,-0.5078 0.0063,-0.1263 0.03215,-0.2682 0.05746,-0.3153 0.02531,-0.047 0.05161,-0.1359 0.05845,-0.1971 0.05048,-0.4518 0.05779,-0.7721 0.03558,-1.558 -0.0087,-0.3061 -0.0046,-0.6696 0.009,-0.8078 0.01423,-0.1446 0.0094,-0.2786 -0.01133,-0.3153 -0.04564,-0.081 -0.0551,-0.1519 -0.06191,-0.4652 -0.003,-0.139 -0.02029,-0.3143 -0.03837,-0.3895 -0.01808,-0.075 -0.04957,-0.2627 -0.06997,-0.4168 -0.0204,-0.154 -0.07038,-0.3453 -0.111058,-0.4251 -0.04068,-0.08 -0.07396,-0.1998 -0.07396,-0.2666 0,-0.1667 -0.131603,-0.73043 -0.18884,-0.80873 -0.0149,-0.02 -0.03911,-0.1039 -0.0538,-0.1855 -0.01469,-0.082 -0.03912,-0.1651 -0.0543,-0.1855 -0.01518,-0.02 -0.03715,-0.087 -0.04882,-0.1484 -0.10031,-0.526 -0.353234,-1.226 -0.468825,-1.2974 -0.02124,-0.013 -0.03861,-0.054 -0.03861,-0.09 0,-0.037 -0.04362,-0.1482 -0.09693,-0.2482 -0.05331,-0.1 -0.1386,-0.2612 -0.18953,-0.3582 -0.05093,-0.097 -0.107594,-0.1858 -0.125918,-0.1972 -0.04124,-0.025 -0.181151,-0.3108 -0.181151,-0.3695 0,-0.024 -0.03135,-0.071 -0.06967,-0.1059 -0.03832,-0.035 -0.131389,-0.1834 -0.206828,-0.3304 -0.07544,-0.147 -0.165113,-0.3109 -0.199276,-0.3642 -0.03416,-0.053 -0.111163,-0.1786 -0.171111,-0.2783 -0.05995,-0.1 -0.139239,-0.221 -0.176203,-0.2696 -0.03697,-0.049 -0.06721,-0.1135 -0.06721,-0.1441 0,-0.031 -0.03183,-0.083 -0.07073,-0.1169 -0.0389,-0.034 -0.125375,-0.1692 -0.192168,-0.3011 -0.06679,-0.1319 -0.165234,-0.2815 -0.218757,-0.3325 -0.101032,-0.096 -0.371545,-0.4871 -0.371545,-0.5368 0,-0.034 -0.178762,-0.2556 -0.330361,-0.4091 -0.129875,-0.1316 -0.530611,-0.6492 -0.502565,-0.6492 0.01067,0 -0.0396,-0.052 -0.111719,-0.1151 -0.07212,-0.063 -0.131125,-0.1385 -0.131125,-0.167 0,-0.029 -0.01387,-0.052 -0.03083,-0.052 -0.01695,0 -0.05367,-0.046 -0.08158,-0.102 -0.02792,-0.056 -0.09001,-0.1563 -0.13799,-0.2226 -0.08374,-0.1157 -0.09739,-0.1205 -0.340474,-0.1205 -0.298855,0 -0.360966,-0.044 -0.296505,-0.2088 0.03401,-0.0871 0.06159,-0.20608 0.08057,-0.34765 0.0014,-0.0102 -0.01151,-0.0509 -0.02862,-0.0905 -0.02035,-0.0471 -0.01589,-0.077 0.01289,-0.0866 0.0242,-0.008 0.03487,-0.0294 0.02371,-0.0475 -0.03463,-0.056 0.156547,-0.0809 0.248226,-0.0323 0.04781,0.0254 0.120305,0.0835 0.16111,0.12919 0.04081,0.0457 0.157656,0.11672 0.259669,0.15779 0.229652,0.0925 0.823111,0.22969 0.993373,0.22969 0.06959,0 0.225099,0.033 0.34558,0.0733 0.120482,0.04 0.245706,0.074 0.278276,0.074 0.03257,5e-4 0.107688,0.024 0.166929,0.053 0.05924,0.029 0.282989,0.08 0.497215,0.1142 0.214227,0.034 0.523047,0.087 0.686267,0.1171 0.215,0.04 0.669813,0.06 1.65075,0.072 0.744692,0.01 1.445797,0.033 1.558011,0.052 0.117875,0.021 0.540793,0.026 1.001578,0.013 1.089212,-0.032 1.132527,-0.032 1.743489,0 0.298475,0.013 0.645206,0.01 0.779005,-0.013 0.132617,-0.02 0.449783,-0.068 0.704815,-0.1072 0.770437,-0.1175 1.306596,-0.1827 1.503848,-0.183 0.102826,-2e-4 0.278103,-0.023 0.389502,-0.05 0.1114,-0.028 0.266362,-0.053 0.34436,-0.057 0.32494,-0.016 1.341193,-0.33357 1.601304,-0.50042 0.04101,-0.0263 0.166372,-0.0791 0.278586,-0.11731 0.112214,-0.0382 0.229065,-0.0869 0.259669,-0.10826 0.115136,-0.0802 0.223414,-0.13152 0.277713,-0.13152 0.03088,0 0.05629,-0.0209 0.05646,-0.0464 1.86e-4,-0.0255 0.137295,-0.11314 0.30472,-0.19475 0.167424,-0.0816 0.396812,-0.20451 0.509751,-0.27311 0.112939,-0.0686 0.386309,-0.2166 0.60749,-0.3289 0.372652,-0.18919 0.417025,-0.20294 0.605006,-0.18735 0.288999,0.024 0.348846,0.0953 0.367606,0.43816 0.0082,0.14929 0.03191,0.32312 0.05275,0.38628 0.02085,0.0632 0.04566,0.23134 0.05515,0.37374 0.01603,0.24065 0.03704,0.34656 0.135988,0.68554 0.02085,0.071 0.0519,0.2133 0.069,0.3153 0.02994,0.1785 0.109837,0.4717 0.192067,0.7048 0.02159,0.061 0.05208,0.1864 0.06775,0.2782 0.01567,0.092 0.06233,0.2587 0.103691,0.371 0.04136,0.1122 0.08715,0.2874 0.101749,0.3895 0.0146,0.102 0.03844,0.2021 0.05299,0.2225 0.01454,0.02 0.04814,0.1623 0.07465,0.3153 0.02651,0.1531 0.07947,0.3338 0.117687,0.4017 0.03822,0.068 0.06047,0.138 0.04945,0.1558 -0.01102,0.018 0.01383,0.096 0.05521,0.1728 0.04139,0.077 0.07525,0.1604 0.07525,0.1849 0,0.025 0.01962,0.091 0.04359,0.1489 0.02397,0.057 0.04819,0.1443 0.05381,0.193 0.0056,0.049 0.03817,0.1474 0.07233,0.2194 0.03416,0.072 0.06212,0.1701 0.06212,0.2182 0,0.048 0.01461,0.096 0.03246,0.1073 0.01785,0.011 0.03246,0.047 0.03246,0.079 0,0.033 0.04396,0.1489 0.09769,0.2587 0.05373,0.1099 0.08756,0.2099 0.07517,0.2222 -0.01239,0.012 3.7e-5,0.066 0.02762,0.1194 0.08769,0.1693 0.127442,0.2787 0.149701,0.4121 0.01191,0.071 0.06963,0.2244 0.128259,0.3399 0.05863,0.1156 0.128603,0.296 0.155502,0.401 0.0269,0.1049 0.100812,0.2524 0.16425,0.3278 0.141229,0.1676 0.401434,0.5985 0.586717,0.9716 0.144521,0.2909 0.174928,0.3364 0.506958,0.7581 0.112214,0.14261 0.229065,0.29561 0.259669,0.34021 0.05792,0.084 0.445854,0.5715 0.557981,0.7008 0.192064,0.2214 0.438203,0.4446 0.614918,0.5576 0.109799,0.07 0.199634,0.1496 0.199634,0.1764 0,0.027 0.116576,0.1396 0.259058,0.2508 0.142481,0.1112 0.267154,0.2231 0.277052,0.2486 0.0099,0.026 0.04235,0.046 0.07211,0.046 0.02976,0 0.08454,0.038 0.121724,0.084 0.06463,0.08 0.504819,0.3612 0.565868,0.3612 0.01609,0 0.0912,0.058 0.166913,0.1299 0.07572,0.071 0.152588,0.1298 0.170828,0.1298 0.01824,0 0.09059,0.05 0.16078,0.112 0.07019,0.062 0.275258,0.1799 0.45571,0.2627 0.506797,0.2328 0.632016,0.3007 0.831201,0.4507 0.101566,0.077 0.197547,0.1391 0.213291,0.1391 0.03389,0 0.833473,0.3016 1.013484,0.3822 0.06869,0.031 0.196568,0.066 0.284169,0.079 0.0876,0.013 0.18776,0.037 0.222573,0.054 0.07913,0.04 0.560045,0.1531 0.647552,0.1526 0.06931,-3e-4 0.09186,-0.1276 0.02944,-0.1662 -0.01951,-0.012 -0.02583,-0.047 -0.01405,-0.078 0.01178,-0.031 -0.0042,-0.084 -0.03541,-0.1193 -0.03126,-0.035 -0.100548,-0.1596 -0.153968,-0.2769 -0.05342,-0.1173 -0.113331,-0.2133 -0.133136,-0.2133 -0.0198,0 -0.03601,-0.031 -0.03601,-0.068 0,-0.038 -0.02455,-0.1177 -0.05454,-0.1778 -0.0628,-0.1259 -0.166817,-0.5687 -0.203554,-0.8666 -0.01384,-0.1122 -0.05134,-0.2641 -0.08334,-0.3375 -0.07767,-0.1783 -0.250717,-0.8767 -0.251871,-1.0165 -0.002,-0.2405 -0.06675,-1.0454 -0.09347,-1.1616 -0.01608,-0.07 -0.01107,-0.18201 0.0116,-0.25971 0.06779,-0.2323 0.135839,-0.5382 0.170702,-0.7673 0.04536,-0.2981 0.0767,-0.4168 0.136317,-0.5165 0.155928,-0.2606 0.30199,-0.6494 0.34948,-0.9302 0.02602,-0.1539 0.177167,-0.5149 0.256252,-0.6121 0.02491,-0.031 0.07675,-0.1307 0.115222,-0.2226 0.0694,-0.1656 0.435427,-0.6366 0.755781,-0.9724 0.09177,-0.096 0.180828,-0.1999 0.197918,-0.2305 0.04633,-0.083 -0.0047,-0.2357 -0.105048,-0.3146 -0.04871,-0.038 -0.08857,-0.081 -0.08857,-0.094 0,-0.013 -0.06677,-0.1125 -0.148382,-0.2206 -0.08161,-0.1081 -0.148382,-0.2145 -0.148382,-0.2365 0,-0.022 -0.01252,-0.046 -0.02782,-0.052 -0.0153,-0.01 -0.07634,-0.087 -0.135638,-0.1793 -0.0593,-0.092 -0.13859,-0.2121 -0.176204,-0.2674 -0.03761,-0.055 -0.06839,-0.1271 -0.06839,-0.1596 0,-0.032 -0.05843,-0.1719 -0.129835,-0.3099 -0.07141,-0.138 -0.129834,-0.2793 -0.129834,-0.3139 0,-0.035 -0.01533,-0.092 -0.03407,-0.1274 -0.02906,-0.055 -0.09824,-0.4422 -0.183838,-1.0289 -0.05967,-0.4091 0.04012,-1.76568 0.18009,-2.44834 0.0251,-0.12242 0.05044,-0.29535 0.05631,-0.38431 0.01218,-0.18458 0.115747,-0.34599 0.290293,-0.45242 0.181663,-0.11077 0.619262,-0.0994 0.983324,0.0255 0.329609,0.11309 0.785236,0.33386 0.785236,0.38048 0,0.0176 0.04818,0.0416 0.107055,0.0534 0.05888,0.0118 0.161855,0.0715 0.228832,0.13264 0.06698,0.0612 0.194249,0.14961 0.282828,0.19652 0.08858,0.0469 0.169844,0.11292 0.18059,0.14667 0.02991,0.0939 0.681467,0.71844 0.889579,0.85264 0.194483,0.12541 1.093279,1.02212 1.093279,1.09082 0,0.022 0.04887,0.087 0.108589,0.1441 0.05973,0.057 0.128525,0.1522 0.152886,0.211 0.02436,0.059 0.05588,0.1069 0.07005,0.1069 0.03178,0 0.187807,0.2731 0.187807,0.3287 0,0.022 0.05008,0.1498 0.111286,0.2834 0.06121,0.1336 0.111287,0.2592 0.111287,0.2791 0,0.068 0.183767,0.03 0.537884,-0.1128 0.266009,-0.1069 0.736127,-0.2224 0.90884,-0.2233 0.112214,-5e-4 0.320876,-0.016 0.463694,-0.035 0.142818,-0.019 0.526756,-0.044 0.853196,-0.056 0.326441,-0.013 0.647614,-0.04 0.713722,-0.061 0.146401,-0.046 0.595857,0.015 0.903242,0.1228 0.114031,0.04 0.264268,0.067 0.333859,0.061 0.116358,-0.011 0.139131,-0.036 0.283369,-0.305 0.08626,-0.1612 0.180555,-0.3197 0.209534,-0.3524 0.02898,-0.033 0.09003,-0.1263 0.135658,-0.2079 0.04563,-0.082 0.115638,-0.2068 0.155571,-0.2782 0.182395,-0.32615 0.251934,-0.42048 0.497302,-0.67461 0.458898,-0.47528 1.144018,-1.12868 1.25769,-1.19945 0.06044,-0.0376 0.151628,-0.10415 0.202634,-0.14783 0.05101,-0.0437 0.217936,-0.15261 0.370955,-0.24206 0.153019,-0.0895 0.329564,-0.20068 0.392318,-0.24717 0.06276,-0.0465 0.229688,-0.12478 0.370955,-0.17399 0.141271,-0.0492 0.398744,-0.14385 0.572165,-0.21031 0.29718,-0.1139 0.340912,-0.12055 0.760458,-0.11564 0.550327,0.006 0.61846,0.0208 0.714066,0.15007 0.06831,0.0924 0.07915,0.17909 0.102988,0.82368 0.01466,0.39623 0.03906,0.75381 0.05423,0.79461 0.01518,0.0408 0.0196,0.16803 0.0098,0.28271 -0.01159,0.13602 -0.0028,0.21778 0.02533,0.23515 0.03259,0.0201 0.03266,0.0392 3.71e-4,0.0782 -0.02398,0.0289 -0.04869,0.21929 -0.05616,0.43254 -0.0073,0.2096 -0.02379,0.4712 -0.03656,0.5815 -0.03184,0.2749 -0.190578,0.7543 -0.336994,1.0177 -0.03932,0.071 -0.04628,0.1177 -0.02119,0.1427 0.02509,0.025 0.01575,0.082 -0.02845,0.1729 -0.0362,0.075 -0.117957,0.2422 -0.181676,0.3726 -0.06372,0.1303 -0.115856,0.2531 -0.115856,0.2728 0,0.02 -0.05008,0.11 -0.111287,0.2007 -0.06121,0.091 -0.111286,0.1832 -0.111286,0.2055 0,0.022 -0.05843,0.112 -0.129835,0.1992 -0.07141,0.087 -0.129834,0.1734 -0.129834,0.1917 0,0.05 -0.373837,0.4344 -0.491515,0.506 -0.127523,0.078 -0.129441,0.149 -0.0063,0.2348 0.204956,0.1427 0.435579,0.4004 0.518417,0.5792 0.0477,0.1029 0.0782,0.201 0.06776,0.2179 -0.01044,0.017 0.01549,0.075 0.05762,0.1281 0.04213,0.054 0.0766,0.1143 0.0766,0.135 0,0.021 0.03992,0.1228 0.08872,0.2269 0.09066,0.1933 0.18764,0.4647 0.243513,0.6815 0.01721,0.067 0.05536,0.1586 0.08478,0.204 0.04858,0.075 0.108315,0.2486 0.117863,0.3423 0.0021,0.02 0.04012,0.1309 0.08453,0.2456 0.07839,0.2024 0.192481,0.9364 0.203995,1.3125 0.0031,0.102 0.02013,0.2046 0.03779,0.2281 0.07482,0.10001 -0.0379,2.08911 -0.12358,2.18121 -0.01804,0.019 -0.0328,0.066 -0.0328,0.1035 0,0.037 -0.03586,0.1385 -0.07969,0.2244 -0.04383,0.086 -0.08219,0.1812 -0.08525,0.2118 -0.0095,0.095 -0.166036,0.5672 -0.239756,0.7234 -0.03852,0.082 -0.140785,0.2955 -0.227247,0.4753 -0.105166,0.2187 -0.144888,0.3393 -0.119989,0.3642 0.0249,0.025 0.109472,0.024 0.255465,0 0.120034,-0.022 0.27667,-0.049 0.348079,-0.061 0.287779,-0.047 1.77151,-0.9016 2.41692,-1.3915 0.149877,-0.1137 0.389354,-0.2873 0.532172,-0.3857 0.142818,-0.098 0.314503,-0.2266 0.38152,-0.2847 0.06702,-0.058 0.134597,-0.1058 0.150173,-0.1058 0.01558,0 0.446211,-0.4131 0.95696,-0.9181 0.876493,-0.8666 1.247463,-1.27621 1.530705,-1.69031 0.06723,-0.098 0.144602,-0.1873 0.171946,-0.1978 0.02734,-0.011 0.121747,-0.1385 0.209789,-0.2845 0.08804,-0.1459 0.248396,-0.3644 0.356347,-0.4856 0.107948,-0.1211 0.188905,-0.2394 0.179902,-0.2628 -0.009,-0.024 0.01348,-0.061 0.04995,-0.084 0.06018,-0.038 0.297239,-0.3581 0.297239,-0.4019 0,-0.01 0.06542,-0.119 0.145377,-0.242 0.142859,-0.2199 0.23717,-0.4258 0.431239,-0.9416 0.05373,-0.1428 0.119225,-0.3097 0.145537,-0.371 0.02631,-0.061 0.09262,-0.2281 0.147358,-0.3709 0.05473,-0.1428 0.148564,-0.3619 0.208503,-0.4867 0.05994,-0.1249 0.119696,-0.2835 0.132787,-0.3525 0.01309,-0.069 0.04138,-0.1587 0.06285,-0.1995 0.02148,-0.041 0.03474,-0.1184 0.02946,-0.1725 -0.0053,-0.054 0.0082,-0.1093 0.02991,-0.1228 0.02173,-0.013 0.03951,-0.081 0.03951,-0.1498 0,-0.069 0.01644,-0.1356 0.03653,-0.1481 0.02009,-0.012 0.03603,-0.059 0.03542,-0.1042 -5.93e-4,-0.045 0.01677,-0.1734 0.03862,-0.2856 0.05252,-0.2698 0.07027,-0.6263 0.03999,-0.8032 -0.01802,-0.1053 -0.0061,-0.1762 0.0456,-0.2702 0.04549,-0.083 0.06431,-0.1738 0.05373,-0.2597 -0.009,-0.073 0.0053,-0.2053 0.03165,-0.2946 0.02637,-0.089 0.05881,-0.4649 0.07209,-0.83466 0.01327,-0.36972 0.04014,-0.73064 0.0597,-0.80205 0.01956,-0.0714 0.04447,-0.22165 0.05536,-0.33386 0.01089,-0.11222 0.02109,-0.21237 0.02267,-0.22257 0.0016,-0.0102 -0.01693,-0.0667 -0.04115,-0.12546 -0.06979,-0.16946 0.04326,-0.43098 0.186308,-0.43098 0.04605,0 0.207594,0.11855 0.391766,0.28749 0.172375,0.15812 0.382948,0.32552 0.467945,0.37201 0.085,0.0465 0.173072,0.10908 0.195723,0.1391 0.02265,0.03 0.05685,0.0546 0.07599,0.0546 0.01914,0 0.102035,0.0626 0.184205,0.13911 0.189866,0.17679 0.239455,0.21557 0.533266,0.41713 0.132617,0.091 0.299546,0.21227 0.370955,0.26956 0.07141,0.0573 0.147811,0.11824 0.169779,0.13543 0.02197,0.0172 0.0804,0.0437 0.129834,0.0588 0.164289,0.0504 0.530232,0.20903 0.943086,0.40885 0.224428,0.1087 0.548476,0.2331 0.720109,0.2764 0.299665,0.076 0.431547,0.1259 0.837902,0.3186 0.102013,0.048 0.327368,0.1312 0.50079,0.184 0.173421,0.053 0.448855,0.1439 0.612075,0.2025 0.708424,0.254 0.818824,0.2851 1.65075,0.4652 0.132617,0.029 0.416397,0.071 0.630624,0.093 0.214226,0.023 0.48966,0.055 0.612075,0.073 0.301427,0.043 0.801241,0.029 1.094318,-0.03 0.132616,-0.027 0.483169,-0.1217 0.779005,-0.2105 0.295837,-0.089 0.646389,-0.1813 0.779006,-0.2056 0.236105,-0.043 0.649831,-0.1702 0.723362,-0.222 0.0204,-0.014 0.1456,-0.063 0.278216,-0.1079 0.132617,-0.045 0.307893,-0.1199 0.389503,-0.1667 0.08161,-0.047 0.260529,-0.1293 0.397597,-0.1836 0.137071,-0.054 0.395813,-0.1973 0.57498,-0.318 0.179171,-0.1207 0.476002,-0.29777 0.659625,-0.3935 0.183623,-0.0957 0.360212,-0.19699 0.392422,-0.225 0.03221,-0.028 0.07812,-0.0509 0.102013,-0.0509 0.0239,0 0.04345,-0.014 0.04345,-0.0311 0,-0.0171 0.03756,-0.0485 0.08347,-0.0698 0.0459,-0.0212 0.186649,-0.11991 0.312763,-0.21926 0.126117,-0.0994 0.320063,-0.23565 0.430998,-0.30289 0.110934,-0.0672 0.240186,-0.16322 0.28723,-0.21329 0.04704,-0.0501 0.105106,-0.091 0.129033,-0.091 0.02393,0 0.0828,-0.0341 0.130825,-0.0757 0.04802,-0.0417 0.171604,-0.12451 0.274618,-0.18412 0.10301,-0.0596 0.24572,-0.15909 0.317129,-0.22105 0.240935,-0.20907 0.494973,-0.24056 0.588717,-0.073 0.0813,0.14533 0.02882,0.26736 -0.235516,0.54756 -0.211752,0.22447 -0.68706,0.89082 -0.68706,0.96321 0,0.0151 -0.0405,0.087 -0.09001,0.15991 -0.0495,0.0728 -0.151702,0.24783 -0.227098,0.38883 -0.0754,0.141 -0.158706,0.2814 -0.185122,0.312 -0.02642,0.031 -0.08698,0.1246 -0.134582,0.2089 -0.0476,0.084 -0.12989,0.2178 -0.182866,0.2968 -0.05297,0.079 -0.117615,0.2084 -0.143649,0.2876 -0.02603,0.079 -0.08702,0.2027 -0.135528,0.2742 -0.04851,0.072 -0.0882,0.1501 -0.0882,0.1747 0,0.025 -0.03263,0.074 -0.07252,0.1103 -0.03988,0.036 -0.116718,0.1502 -0.17074,0.2535 -0.141972,0.2715 -0.178073,0.3329 -0.22728,0.3867 -0.02417,0.026 -0.05557,0.085 -0.06978,0.1313 -0.01421,0.046 -0.06013,0.1319 -0.102028,0.1913 -0.161228,0.2288 -0.6182,1.2906 -0.61869,1.4376 0,0.034 -0.01273,0.067 -0.02803,0.074 -0.0153,0.01 -0.07558,0.1208 -0.133948,0.2534 -0.105863,0.2406 -0.128662,0.2907 -0.370937,0.8161 -0.07056,0.1531 -0.140191,0.32 -0.154736,0.371 -0.01455,0.051 -0.04402,0.1147 -0.06551,0.1415 -0.02148,0.027 -0.06787,0.1269 -0.103085,0.2225 -0.03521,0.096 -0.117017,0.3158 -0.181782,0.4892 -0.18694,0.5006 -0.263787,0.7192 -0.273832,0.779 -0.0051,0.031 -0.02724,0.097 -0.0491,0.1484 -0.02187,0.051 -0.05659,0.1595 -0.07716,0.2411 -0.04998,0.1983 -0.223074,0.76031 -0.262781,0.85321 -0.04261,0.1 -0.109602,0.2944 -0.178667,0.5193 -0.03133,0.102 -0.09708,0.2857 -0.146126,0.4081 -0.04904,0.1224 -0.08913,0.2378 -0.08907,0.2565 0,0.019 -0.04772,0.1606 -0.106186,0.3153 -0.170384,0.451 -0.317056,0.9412 -0.30938,1.0339 0.0039,0.047 -0.01883,0.1476 -0.05052,0.2231 -0.10008,0.2384 -0.234321,0.9496 -0.31303,1.6582 -0.05752,0.5178 -0.208232,1.4495 -0.243777,1.507 -0.01257,0.02 -0.02972,0.09 -0.0381,0.1553 -0.0084,0.065 -0.03953,0.2602 -0.06922,0.4336 -0.16989,0.9923 -0.187815,1.2939 -0.09812,1.6507 0.149669,0.5955 0.195523,0.7456 0.284519,0.9311 0.109702,0.2287 0.114762,0.3526 0.01799,0.4401 -0.07812,0.071 -0.2654,0.066 -0.891742,-0.021 -0.476841,-0.066 -0.880288,0 -1.65075,0.2601 -0.615463,0.2099 -1.077328,0.3748 -1.261247,0.4504 -0.35582,0.1461 -0.660838,0.2844 -0.816101,0.3699 -0.102013,0.056 -0.25225,0.1228 -0.33386,0.1481 -0.240879,0.075 -0.887454,0.3571 -1.100738,0.4808 -0.241525,0.14 -0.952579,0.6199 -1.180635,0.7967 -0.09181,0.071 -0.301783,0.2592 -0.466602,0.4178 -0.164823,0.1586 -0.43191,0.405 -0.593528,0.5475 -0.375792,0.3314 -0.486077,0.4476 -0.801804,0.8445 -0.142013,0.1785 -0.273617,0.3245 -0.292454,0.3245 -0.01884,0 -0.03425,0.023 -0.03425,0.051 0,0.028 -0.02725,0.074 -0.06056,0.1014 -0.03331,0.028 -0.09591,0.103 -0.139109,0.1675 -0.074,0.1104 -0.686311,0.8355 -0.956589,1.1328 -0.220766,0.2428 -0.942144,1.1426 -1.042491,1.3003 -0.03524,0.055 -0.06407,0.1237 -0.06407,0.1518 0,0.028 -0.03343,0.091 -0.07428,0.1404 -0.218169,0.2624 -0.284734,0.3626 -0.330431,0.4974 -0.05033,0.1484 -0.456375,1.0265 -0.523207,1.1314 -0.0195,0.031 -0.06119,0.1057 -0.09264,0.1669 -0.03146,0.061 -0.08154,0.153 -0.111294,0.204 -0.02976,0.051 -0.05435,0.1215 -0.05465,0.1567 -5.19e-4,0.062 -0.02669,0.1264 -0.244633,0.6038 -0.05589,0.1224 -0.104431,0.2476 -0.107885,0.2782 -0.0062,0.055 -0.07657,0.2824 -0.13196,0.4266 -0.01568,0.041 -0.05747,0.1493 -0.09287,0.2411 -0.0354,0.092 -0.06798,0.192 -0.07239,0.2226 -0.0044,0.031 -0.02495,0.097 -0.04562,0.1484 -0.08791,0.2169 -0.220804,1.293 -0.235916,1.9104 -0.002,0.082 -0.02074,0.229 -0.04166,0.3276 -0.02732,0.1287 -0.02634,0.1909 0.0035,0.2207 0.05213,0.052 0.05398,0.2679 0.0031,0.363 -0.05593,0.1045 -0.314058,0.097 -0.481599,-0.014 -0.07104,-0.047 -0.204289,-0.1075 -0.2961,-0.1343 -0.09181,-0.027 -0.266157,-0.08 -0.387433,-0.1185 -0.121276,-0.038 -0.246474,-0.07 -0.278216,-0.07 -0.03174,0 -0.105526,-0.025 -0.163966,-0.056 -0.05844,-0.031 -0.146305,-0.055 -0.195256,-0.055 -0.04895,0 -0.117986,-0.015 -0.153416,-0.034 -0.03543,-0.019 -0.231342,-0.07 -0.435368,-0.1146 -0.204025,-0.044 -0.40963,-0.096 -0.456901,-0.1145 -0.217165,-0.087 -0.787256,-0.1468 -1.06315,-0.1125 -0.173303,0.021 -0.336026,0.021 -0.434466,0 -0.102773,-0.023 -0.183571,-0.022 -0.232848,0 -0.0415,0.02 -0.175618,0.064 -0.298033,0.096 -0.240257,0.063 -0.353031,0.097 -0.612076,0.1796 -0.09181,0.029 -0.292127,0.083 -0.445146,0.1189 -0.153019,0.036 -0.370027,0.1 -0.482241,0.1418 -0.112214,0.042 -0.215217,0.073 -0.228898,0.07 -0.04373,-0.012 -0.436392,0.1337 -0.521563,0.1934 -0.04518,0.032 -0.135165,0.058 -0.199963,0.058 -0.108812,0 -0.352719,0.1096 -0.627378,0.2819 -0.06189,0.039 -0.168306,0.1039 -0.236476,0.1447 -0.369171,0.221 -0.671158,0.4314 -0.819503,0.5711 -0.09181,0.086 -0.258741,0.2204 -0.370955,0.2978 -0.18432,0.127 -0.610659,0.5296 -1.085065,1.0246 -0.09693,0.1011 -0.193164,0.2006 -0.213863,0.221 -0.09047,0.089 -0.333274,0.4221 -0.333274,0.457 0,0.021 -0.04173,0.071 -0.09274,0.1113 -0.05101,0.04 -0.09274,0.091 -0.09274,0.114 0,0.023 -0.01669,0.041 -0.0371,0.041 -0.0204,0 -0.0371,0.016 -0.0371,0.036 0,0.02 -0.09426,0.174 -0.209456,0.3431 -0.274221,0.4026 -0.458263,0.7464 -0.458263,0.8562 0,0.048 -0.01252,0.1006 -0.02782,0.1159 -0.03054,0.031 -0.03984,0.1159 -0.04822,0.4427 -0.0063,0.244 -0.08218,0.358 -0.238546,0.358 -0.120743,0 -0.36768,-0.3221 -0.377788,-0.4927 -0.02032,-0.343 -0.04075,-0.4107 -0.14698,-0.4868 -0.05862,-0.042 -0.169189,-0.1337 -0.245713,-0.2036 -0.07653,-0.07 -0.189766,-0.158 -0.251641,-0.1957 -0.06188,-0.038 -0.122245,-0.094 -0.134149,-0.1248 -0.01191,-0.031 -0.09899,-0.101 -0.193509,-0.1554 -0.09452,-0.054 -0.223544,-0.1375 -0.286718,-0.1845 -0.06317,-0.047 -0.188371,-0.1007 -0.278216,-0.1191 -0.08985,-0.019 -0.263512,-0.062 -0.385927,-0.096 -0.332172,-0.093 -1.164769,-0.067 -1.372534,0.043 -0.164915,0.087 -0.495469,0.2513 -0.893371,0.4441 -0.173158,0.084 -0.358761,0.2186 -0.544354,0.3949 -0.331611,0.3151 -0.735644,0.7809 -0.821669,0.9473 -0.03498,0.068 -0.114624,0.1401 -0.187332,0.1705 -0.06957,0.029 -0.151531,0.1013 -0.182145,0.1605 -0.08711,0.1684 -0.138161,0.1963 -0.250972,0.1371 z"
       id="path3130" />
  </g>
</svg>
