999
DXF created by Inkscape
  0
SECTION
  2
HEADER
  9
$ACADVER
  1
AC1014
  9
$HANDSEED
  5
FFFF
  9
$MEASUREMENT
 70
     1
  0
ENDSEC
  0
SECTION
  2
TABLES
  0
TABLE
  2
VPORT
  5
8
330
0
100
AcDbSymbolTable
 70
     4
  0
VPORT
  5
2E
330
8
100
AcDbSymbolTableRecord
100
AcDbViewportTableRecord
  2
*ACTIVE
 70
     0
 10
0.0
 20
0.0
 11
1.0
 21
1.0
 12
210.0
 22
148.5
 13
0.0
 23
0.0
 14
10.0
 24
10.0
 15
10.0
 25
10.0
 16
0.0
 26
0.0
 36
1.0
 17
0.0
 27
0.0
 37
0.0
 40
341.0
 41
1.24
 42
50.0
 43
0.0
 44
0.0
 50
0.0
 51
0.0
 71
     0
 72
   100
 73
     1
 74
     3
 75
     0
 76
     0
 77
     0
 78
     0
  0
ENDTAB
  0
TABLE
  2
LTYPE
  5
5
330
0
100
AcDbSymbolTable
 70
     1
  0
LTYPE
  5
14
330
5
100
AcDbSymbolTableRecord
100
AcDbLinetypeTableRecord
  2
BYBLOCK
 70
     0
  3

 72
    65
 73
     0
 40
0.0
  0
LTYPE
  5
15
330
5
100
AcDbSymbolTableRecord
100
AcDbLinetypeTableRecord
  2
BYLAYER
 70
     0
  3

 72
    65
 73
     0
 40
0.0
  0
LTYPE
  5
16
330
5
100
AcDbSymbolTableRecord
100
AcDbLinetypeTableRecord
  2
CONTINUOUS
 70
     0
  3
Solid line
 72
    65
 73
     0
 40
0.0
  0
ENDTAB
  0
TABLE
  2
LAYER
  5
2
330
0
100
AcDbSymbolTable
 70
1
  0
LAYER
  5
10
330
2
100
AcDbSymbolTableRecord
100
AcDbLayerTableRecord
  2
0
 70
     0
 62
     7
  6
CONTINUOUS
  0
ENDTAB
  0
TABLE
  2
STYLE
  5
3
330
0
100
AcDbSymbolTable
 70
     1
  0
STYLE
  5
11
330
3
100
AcDbSymbolTableRecord
100
AcDbTextStyleTableRecord
  2
STANDARD
 70
     0
 40
0.0
 41
1.0
 50
0.0
 71
     0
 42
2.5
  3
txt
  4

  0
ENDTAB
  0
TABLE
  2
VIEW
  5
6
330
0
100
AcDbSymbolTable
 70
     0
  0
ENDTAB
  0
TABLE
  2
UCS
  5
7
330
0
100
AcDbSymbolTable
 70
     0
  0
ENDTAB
  0
TABLE
  2
APPID
  5
9
330
0
100
AcDbSymbolTable
 70
     2
  0
APPID
  5
12
330
9
100
AcDbSymbolTableRecord
100
AcDbRegAppTableRecord
  2
ACAD
 70
     0
  0
ENDTAB
  0
TABLE
  2
DIMSTYLE
  5
A
330
0
100
AcDbSymbolTable
 70
     1
  0
DIMSTYLE
105
27
330
A
100
AcDbSymbolTableRecord
100
AcDbDimStyleTableRecord
  2
ISO-25
 70
     0
  3

  4

  5

  6

  7

 40
1.0
 41
2.5
 42
0.625
 43
3.75
 44
1.25
 45
0.0
 46
0.0
 47
0.0
 48
0.0
140
2.5
141
2.5
142
0.0
143
0.03937007874016
144
1.0
145
0.0
146
1.0
147
0.625
 71
     0
 72
     0
 73
     0
 74
     0
 75
     0
 76
     0
 77
     1
 78
     8
170
     0
171
     3
172
     1
173
     0
174
     0
175
     0
176
     0
177
     0
178
     0
270
     2
271
     2
272
     2
273
     2
274
     3
340
11
275
     0
280
     0
281
     0
282
     0
283
     0
284
     8
285
     0
286
     0
287
     3
288
     0
  0
ENDTAB
  0
TABLE
  2
BLOCK_RECORD
  5
1
330
0
100
AcDbSymbolTable
 70
     1
  0
BLOCK_RECORD
  5
1F
330
1
100
AcDbSymbolTableRecord
100
AcDbBlockTableRecord
  2
*MODEL_SPACE
  0
BLOCK_RECORD
  5
1B
330
1
100
AcDbSymbolTableRecord
100
AcDbBlockTableRecord
  2
*PAPER_SPACE
  0
ENDTAB
  0
ENDSEC
  0
SECTION
  2
BLOCKS
  0
BLOCK
  5
20
330
1F
100
AcDbEntity
  8
0
100
AcDbBlockBegin
  2
*MODEL_SPACE
 70
     0
 10
0.0
 20
0.0
 30
0.0
  3
*MODEL_SPACE
  1

  0
ENDBLK
  5
21
330
1F
100
AcDbEntity
  8
0
100
AcDbBlockEnd
  0
BLOCK
  5
1C
330
1B
100
AcDbEntity
 67
     1
  8
0
100
AcDbBlockBegin
  2
*PAPER_SPACE
  1

  0
ENDBLK
  5
1D
330
1B
100
AcDbEntity
 67
     1
  8
0
100
AcDbBlockEnd
  0
ENDSEC
  0
SECTION
  2
ENTITIES
  0
SPLINE
  5
100
100
AcDbEntity
  8
0
 62
7
100
AcDbSpline
 70
8
 71
3
 72
8
 73
4
 74
0
 40
0
 40
0
 40
0
 40
0
 40
1
 40
1
 40
1
 40
1
 10
85.857306
 20
140.490138
 30
0.0
 10
87.478636
 20
140.461388
 30
0.0
 10
89.077752
 20
140.060302
 30
0.0
 10
90.549250
 20
139.370068
 30
0.0
  0
SPLINE
  5
101
100
AcDbEntity
  8
0
 62
7
100
AcDbSpline
 70
8
 71
3
 72
8
 73
4
 74
0
 40
0
 40
0
 40
0
 40
0
 40
1
 40
1
 40
1
 40
1
 10
90.558056
 20
139.370068
 30
0.0
 10
92.517189
 20
138.449634
 30
0.0
 10
94.252982
 20
137.014272
 30
0.0
 10
95.505764
 20
135.277846
 30
0.0
  0
LWPOLYLINE
  5
102
100
AcDbEntity
  8
0
 62
7
100
AcDbPolyline
 90
2
 70
0
 10
90.549250
 20
139.370068
 30
0.0
 10
90.558056
 20
139.370068
 30
0.0
  0
SPLINE
  5
103
100
AcDbEntity
  8
0
 62
7
100
AcDbSpline
 70
8
 71
3
 72
8
 73
4
 74
0
 40
0
 40
0
 40
0
 40
0
 40
1
 40
1
 40
1
 40
1
 10
95.690972
 20
135.242568
 30
0.0
 10
97.949828
 20
136.639492
 30
0.0
 10
100.698766
 20
137.436267
 30
0.0
 10
103.399167
 20
137.420971
 30
0.0
  0
SPLINE
  5
104
100
AcDbEntity
  8
0
 62
7
100
AcDbSpline
 70
8
 71
3
 72
8
 73
4
 74
0
 40
0
 40
0
 40
0
 40
0
 40
1
 40
1
 40
1
 40
1
 10
103.399167
 20
137.420971
 30
0.0
 10
106.099568
 20
137.405674
 30
0.0
 10
108.751683
 20
136.574155
 30
0.0
 10
110.825139
 20
134.713401
 30
0.0
  0
LWPOLYLINE
  5
105
100
AcDbEntity
  8
0
 62
7
100
AcDbPolyline
 90
3
 70
0
 10
95.505764
 20
135.277846
 30
0.0
 10
95.576319
 20
135.172013
 30
0.0
 10
95.690972
 20
135.242568
 30
0.0
  0
SPLINE
  5
106
100
AcDbEntity
  8
0
 62
7
100
AcDbSpline
 70
8
 71
3
 72
8
 73
4
 74
0
 40
0
 40
0
 40
0
 40
0
 40
1
 40
1
 40
1
 40
1
 10
110.833944
 20
134.704596
 30
0.0
 10
112.227244
 20
133.750911
 30
0.0
 10
113.432658
 20
132.570209
 30
0.0
 10
114.397000
 20
131.220916
 30
0.0
  0
SPLINE
  5
107
100
AcDbEntity
  8
0
 62
7
100
AcDbSpline
 70
8
 71
3
 72
8
 73
4
 74
0
 40
0
 40
0
 40
0
 40
0
 40
1
 40
1
 40
1
 40
1
 10
114.397000
 20
131.220916
 30
0.0
 10
115.361339
 20
129.871622
 30
0.0
 10
116.086501
 20
128.356685
 30
0.0
 10
116.522486
 20
126.722999
 30
0.0
  0
LWPOLYLINE
  5
108
100
AcDbEntity
  8
0
 62
7
100
AcDbPolyline
 90
3
 70
0
 10
110.825139
 20
134.713401
 30
0.0
 10
110.833944
 20
134.713401
 30
0.0
 10
110.833944
 20
134.704596
 30
0.0
  0
SPLINE
  5
109
100
AcDbEntity
  8
0
 62
7
100
AcDbSpline
 70
8
 71
3
 72
8
 73
4
 74
0
 40
0
 40
0
 40
0
 40
0
 40
1
 40
1
 40
1
 40
1
 10
116.637125
 20
126.617180
 30
0.0
 10
118.119460
 20
126.410285
 30
0.0
 10
119.715029
 20
126.178344
 30
0.0
 10
121.187958
 20
125.682319
 30
0.0
  0
SPLINE
  5
10a
100
AcDbEntity
  8
0
 62
7
100
AcDbSpline
 70
8
 71
3
 72
8
 73
4
 74
0
 40
0
 40
0
 40
0
 40
0
 40
1
 40
1
 40
1
 40
1
 10
121.187958
 20
125.682319
 30
0.0
 10
122.660884
 20
125.186296
 30
0.0
 10
124.012788
 20
124.425199
 30
0.0
 10
125.042055
 20
123.159957
 30
0.0
  0
LWPOLYLINE
  5
10b
100
AcDbEntity
  8
0
 62
7
100
AcDbPolyline
 90
3
 70
0
 10
116.522486
 20
126.722999
 30
0.0
 10
116.548930
 20
126.625985
 30
0.0
 10
116.637125
 20
126.617180
 30
0.0
  0
SPLINE
  5
10c
100
AcDbEntity
  8
0
 62
7
100
AcDbSpline
 70
8
 71
3
 72
8
 73
4
 74
0
 40
0
 40
0
 40
0
 40
0
 40
1
 40
1
 40
1
 40
1
 10
125.050860
 20
123.159957
 30
0.0
 10
126.826521
 20
121.221664
 30
0.0
 10
128.329809
 20
119.012363
 30
0.0
 10
129.442944
 20
116.633569
 30
0.0
  0
SPLINE
  5
10d
100
AcDbEntity
  8
0
 62
7
100
AcDbSpline
 70
8
 71
3
 72
8
 73
4
 74
0
 40
0
 40
0
 40
0
 40
0
 40
1
 40
1
 40
1
 40
1
 10
129.442944
 20
116.633569
 30
0.0
 10
130.556082
 20
114.254774
 30
0.0
 10
131.273437
 20
111.703739
 30
0.0
 10
131.471416
 20
109.066485
 30
0.0
  0
LWPOLYLINE
  5
10e
100
AcDbEntity
  8
0
 62
7
100
AcDbPolyline
 90
2
 70
0
 10
125.042055
 20
123.159957
 30
0.0
 10
125.050860
 20
123.159957
 30
0.0
  0
SPLINE
  5
10f
100
AcDbEntity
  8
0
 62
7
100
AcDbSpline
 70
8
 71
3
 72
8
 73
4
 74
0
 40
0
 40
0
 40
0
 40
0
 40
1
 40
1
 40
1
 40
1
 10
131.630166
 20
108.934194
 30
0.0
 10
132.237336
 20
109.017627
 30
0.0
 10
132.709807
 20
108.879287
 30
0.0
 10
133.129472
 20
108.599055
 30
0.0
  0
SPLINE
  5
110
100
AcDbEntity
  8
0
 62
7
100
AcDbSpline
 70
8
 71
3
 72
8
 73
4
 74
0
 40
0
 40
0
 40
0
 40
0
 40
1
 40
1
 40
1
 40
1
 10
133.129472
 20
108.599055
 30
0.0
 10
133.549136
 20
108.318822
 30
0.0
 10
133.917501
 20
107.892571
 30
0.0
 10
134.267180
 20
107.408430
 30
0.0
  0
SPLINE
  5
111
100
AcDbEntity
  8
0
 62
7
100
AcDbSpline
 70
8
 71
3
 72
8
 73
4
 74
0
 40
0
 40
0
 40
0
 40
0
 40
1
 40
1
 40
1
 40
1
 10
134.267180
 20
107.408430
 30
0.0
 10
134.956993
 20
106.453361
 30
0.0
 10
135.586645
 20
105.288224
 30
0.0
 10
136.595513
 20
104.639124
 30
0.0
  0
SPLINE
  5
112
100
AcDbEntity
  8
0
 62
7
100
AcDbSpline
 70
8
 71
3
 72
8
 73
4
 74
0
 40
0
 40
0
 40
0
 40
0
 40
1
 40
1
 40
1
 40
1
 10
136.595513
 20
104.639124
 30
0.0
 10
136.599013
 20
104.636866
 30
0.0
 10
136.600819
 20
104.632548
 30
0.0
 10
136.604319
 20
104.630319
 30
0.0
  0
SPLINE
  5
113
100
AcDbEntity
  8
0
 62
7
100
AcDbSpline
 70
8
 71
3
 72
8
 73
4
 74
0
 40
0
 40
0
 40
0
 40
0
 40
1
 40
1
 40
1
 40
1
 10
136.604319
 20
104.630319
 30
0.0
 10
138.249750
 20
102.282594
 30
0.0
 10
139.175795
 20
99.555419
 30
0.0
 10
139.444180
 20
96.745735
 30
0.0
  0
SPLINE
  5
114
100
AcDbEntity
  8
0
 62
7
100
AcDbSpline
 70
8
 71
3
 72
8
 73
4
 74
0
 40
0
 40
0
 40
0
 40
0
 40
1
 40
1
 40
1
 40
1
 10
139.444180
 20
96.745735
 30
0.0
 10
139.712948
 20
93.932056
 30
0.0
 10
139.321190
 20
91.034672
 30
0.0
 10
138.332930
 20
88.358444
 30
0.0
  0
LWPOLYLINE
  5
115
100
AcDbEntity
  8
0
 62
7
100
AcDbPolyline
 90
3
 70
0
 10
131.471416
 20
109.066485
 30
0.0
 10
131.489055
 20
108.916555
 30
0.0
 10
131.630166
 20
108.934194
 30
0.0
  0
SPLINE
  5
116
100
AcDbEntity
  8
0
 62
7
100
AcDbSpline
 70
8
 71
3
 72
8
 73
4
 74
0
 40
0
 40
0
 40
0
 40
0
 40
1
 40
1
 40
1
 40
1
 10
138.324124
 20
88.314361
 30
0.0
 10
138.256185
 20
87.106162
 30
0.0
 10
138.798859
 20
85.979175
 30
0.0
 10
139.364819
 20
84.848319
 30
0.0
  0
SPLINE
  5
117
100
AcDbEntity
  8
0
 62
7
100
AcDbSpline
 70
8
 71
3
 72
8
 73
4
 74
0
 40
0
 40
0
 40
0
 40
0
 40
1
 40
1
 40
1
 40
1
 10
139.364819
 20
84.848319
 30
0.0
 10
139.930779
 20
83.717469
 30
0.0
 10
140.518411
 20
82.582992
 30
0.0
 10
140.590722
 20
81.373458
 30
0.0
  0
LWPOLYLINE
  5
118
100
AcDbEntity
  8
0
 62
7
100
AcDbPolyline
 90
3
 70
0
 10
138.332930
 20
88.358444
 30
0.0
 10
138.324124
 20
88.340805
 30
0.0
 10
138.324124
 20
88.314361
 30
0.0
  0
SPLINE
  5
119
100
AcDbEntity
  8
0
 62
7
100
AcDbSpline
 70
8
 71
3
 72
8
 73
4
 74
0
 40
0
 40
0
 40
0
 40
0
 40
1
 40
1
 40
1
 40
1
 10
140.599527
 20
81.347014
 30
0.0
 10
141.323102
 20
78.426973
 30
0.0
 10
141.408006
 20
75.354894
 30
0.0
 10
140.811194
 20
72.439375
 30
0.0
  0
SPLINE
  5
11a
100
AcDbEntity
  8
0
 62
7
100
AcDbSpline
 70
8
 71
3
 72
8
 73
4
 74
0
 40
0
 40
0
 40
0
 40
0
 40
1
 40
1
 40
1
 40
1
 10
140.811194
 20
72.439375
 30
0.0
 10
140.215199
 20
69.527838
 30
0.0
 10
138.935361
 20
66.778336
 30
0.0
 10
136.921819
 20
64.484236
 30
0.0
  0
SPLINE
  5
11b
100
AcDbEntity
  8
0
 62
7
100
AcDbSpline
 70
8
 71
3
 72
8
 73
4
 74
0
 40
0
 40
0
 40
0
 40
0
 40
1
 40
1
 40
1
 40
1
 10
136.921819
 20
64.484236
 30
0.0
 10
136.918996
 20
64.481103
 30
0.0
 10
136.915751
 20
64.478563
 30
0.0
 10
136.913013
 20
64.475431
 30
0.0
  0
SPLINE
  5
11c
100
AcDbEntity
  8
0
 62
7
100
AcDbSpline
 70
8
 71
3
 72
8
 73
4
 74
0
 40
0
 40
0
 40
0
 40
0
 40
1
 40
1
 40
1
 40
1
 10
136.913013
 20
64.475431
 30
0.0
 10
135.668289
 20
63.322539
 30
0.0
 10
135.560438
 20
61.868634
 30
0.0
 10
135.660652
 20
60.392028
 30
0.0
  0
SPLINE
  5
11d
100
AcDbEntity
  8
0
 62
7
100
AcDbSpline
 70
8
 71
3
 72
8
 73
4
 74
0
 40
0
 40
0
 40
0
 40
0
 40
1
 40
1
 40
1
 40
1
 10
135.660652
 20
60.392028
 30
0.0
 10
135.761129
 20
58.911530
 30
0.0
 10
136.060409
 20
57.387058
 30
0.0
 10
135.669457
 20
56.008764
 30
0.0
  0
LWPOLYLINE
  5
11e
100
AcDbEntity
  8
0
 62
7
100
AcDbPolyline
 90
3
 70
0
 10
140.590722
 20
81.373458
 30
0.0
 10
140.590722
 20
81.364653
 30
0.0
 10
140.599527
 20
81.347014
 30
0.0
  0
SPLINE
  5
11f
100
AcDbEntity
  8
0
 62
7
100
AcDbSpline
 70
8
 71
3
 72
8
 73
4
 74
0
 40
0
 40
0
 40
0
 40
0
 40
1
 40
1
 40
1
 40
1
 10
135.660652
 20
55.973486
 30
0.0
 10
135.476782
 20
53.363757
 30
0.0
 10
134.756895
 20
50.866791
 30
0.0
 10
133.640999
 20
48.547514
 30
0.0
  0
SPLINE
  5
120
100
AcDbEntity
  8
0
 62
7
100
AcDbSpline
 70
8
 71
3
 72
8
 73
4
 74
0
 40
0
 40
0
 40
0
 40
0
 40
1
 40
1
 40
1
 40
1
 10
133.640999
 20
48.547514
 30
0.0
 10
132.525101
 20
46.228237
 30
0.0
 10
131.012551
 20
44.086137
 30
0.0
 10
129.257735
 20
42.188694
 30
0.0
  0
LWPOLYLINE
  5
121
100
AcDbEntity
  8
0
 62
7
100
AcDbPolyline
 90
3
 70
0
 10
135.669457
 20
56.008764
 30
0.0
 10
135.660652
 20
55.991125
 30
0.0
 10
135.660652
 20
55.973486
 30
0.0
  0
SPLINE
  5
122
100
AcDbEntity
  8
0
 62
7
100
AcDbSpline
 70
8
 71
3
 72
8
 73
4
 74
0
 40
0
 40
0
 40
0
 40
0
 40
1
 40
1
 40
1
 40
1
 10
129.284194
 20
41.977028
 30
0.0
 10
129.920701
 20
41.571206
 30
0.0
 10
131.043451
 20
41.500089
 30
0.0
 10
132.265166
 20
41.403764
 30
0.0
  0
SPLINE
  5
123
100
AcDbEntity
  8
0
 62
7
100
AcDbSpline
 70
8
 71
3
 72
8
 73
4
 74
0
 40
0
 40
0
 40
0
 40
0
 40
1
 40
1
 40
1
 40
1
 10
132.265166
 20
41.403764
 30
0.0
 10
133.483756
 20
41.307684
 30
0.0
 10
134.793877
 20
41.201312
 30
0.0
 10
135.740027
 20
40.830500
 30
0.0
  0
SPLINE
  5
124
100
AcDbEntity
  8
0
 62
7
100
AcDbSpline
 70
8
 71
3
 72
8
 73
4
 74
0
 40
0
 40
0
 40
0
 40
0
 40
1
 40
1
 40
1
 40
1
 10
135.740027
 20
40.830500
 30
0.0
 10
135.742567
 20
40.829653
 30
0.0
 10
135.746434
 20
40.831347
 30
0.0
 10
135.748832
 20
40.830500
 30
0.0
  0
SPLINE
  5
125
100
AcDbEntity
  8
0
 62
7
100
AcDbSpline
 70
8
 71
3
 72
8
 73
4
 74
0
 40
0
 40
0
 40
0
 40
0
 40
1
 40
1
 40
1
 40
1
 10
135.748832
 20
40.830500
 30
0.0
 10
137.300451
 20
40.064862
 30
0.0
 10
138.977466
 20
39.194057
 30
0.0
 10
140.405499
 20
38.096472
 30
0.0
  0
SPLINE
  5
126
100
AcDbEntity
  8
0
 62
7
100
AcDbSpline
 70
8
 71
3
 72
8
 73
4
 74
0
 40
0
 40
0
 40
0
 40
0
 40
1
 40
1
 40
1
 40
1
 10
140.405499
 20
38.096472
 30
0.0
 10
141.835615
 20
36.997284
 30
0.0
 10
143.008548
 20
35.673180
 30
0.0
 10
143.562860
 20
33.986611
 30
0.0
  0
LWPOLYLINE
  5
127
100
AcDbEntity
  8
0
 62
7
100
AcDbPolyline
 90
3
 70
0
 10
129.257735
 20
42.188694
 30
0.0
 10
129.143083
 20
42.065222
 30
0.0
 10
129.284194
 20
41.977028
 30
0.0
  0
SPLINE
  5
128
100
AcDbEntity
  8
0
 62
7
100
AcDbSpline
 70
8
 71
3
 72
8
 73
4
 74
0
 40
0
 40
0
 40
0
 40
0
 40
1
 40
1
 40
1
 40
1
 10
143.809805
 20
33.942514
 30
0.0
 10
144.568661
 20
34.890891
 30
0.0
 10
145.353193
 20
35.825808
 30
0.0
 10
146.173416
 20
36.729458
 30
0.0
  0
SPLINE
  5
129
100
AcDbEntity
  8
0
 62
7
100
AcDbSpline
 70
8
 71
3
 72
8
 73
4
 74
0
 40
0
 40
0
 40
0
 40
0
 40
1
 40
1
 40
1
 40
1
 10
146.173416
 20
36.729458
 30
0.0
 10
146.993638
 20
37.633111
 30
0.0
 10
147.853897
 20
38.500671
 30
0.0
 10
148.748694
 20
39.331194
 30
0.0
  0
LWPOLYLINE
  5
12a
100
AcDbEntity
  8
0
 62
7
100
AcDbPolyline
 90
3
 70
0
 10
143.562860
 20
33.986611
 30
0.0
 10
143.651055
 20
33.739667
 30
0.0
 10
143.809805
 20
33.942514
 30
0.0
  0
SPLINE
  5
12b
100
AcDbEntity
  8
0
 62
7
100
AcDbSpline
 70
8
 71
3
 72
8
 73
4
 74
0
 40
0
 40
0
 40
0
 40
0
 40
1
 40
1
 40
1
 40
1
 10
148.775152
 20
39.498764
 30
0.0
 10
148.176886
 20
40.804155
 30
0.0
 10
147.509292
 20
42.112122
 30
0.0
 10
146.799596
 20
43.388139
 30
0.0
  0
SPLINE
  5
12c
100
AcDbEntity
  8
0
 62
7
100
AcDbSpline
 70
8
 71
3
 72
8
 73
4
 74
0
 40
0
 40
0
 40
0
 40
0
 40
1
 40
1
 40
1
 40
1
 10
146.799596
 20
43.388139
 30
0.0
 10
146.089903
 20
44.664156
 30
0.0
 10
145.343053
 20
45.909890
 30
0.0
 10
144.577096
 20
47.083486
 30
0.0
  0
LWPOLYLINE
  5
12d
100
AcDbEntity
  8
0
 62
7
100
AcDbPolyline
 90
3
 70
0
 10
148.748694
 20
39.331194
 30
0.0
 10
148.819249
 20
39.401750
 30
0.0
 10
148.775152
 20
39.498764
 30
0.0
  0
SPLINE
  5
12e
100
AcDbEntity
  8
0
 62
7
100
AcDbSpline
 70
8
 71
3
 72
8
 73
4
 74
0
 40
0
 40
0
 40
0
 40
0
 40
1
 40
1
 40
1
 40
1
 10
144.506555
 20
47.136403
 30
0.0
 10
142.400361
 20
47.923873
 30
0.0
 10
141.223913
 20
49.822187
 30
0.0
 10
140.961138
 20
51.916542
 30
0.0
  0
SPLINE
  5
12f
100
AcDbEntity
  8
0
 62
7
100
AcDbSpline
 70
8
 71
3
 72
8
 73
4
 74
0
 40
0
 40
0
 40
0
 40
0
 40
1
 40
1
 40
1
 40
1
 10
140.961138
 20
51.916542
 30
0.0
 10
140.698364
 20
54.010893
 30
0.0
 10
141.356715
 20
56.284949
 30
0.0
 10
142.910235
 20
57.781472
 30
0.0
  0
LWPOLYLINE
  5
130
100
AcDbEntity
  8
0
 62
7
100
AcDbPolyline
 90
3
 70
0
 10
144.577096
 20
47.083486
 30
0.0
 10
144.550652
 20
47.118764
 30
0.0
 10
144.506555
 20
47.136403
 30
0.0
  0
SPLINE
  5
131
100
AcDbEntity
  8
0
 62
7
100
AcDbSpline
 70
8
 71
3
 72
8
 73
4
 74
0
 40
0
 40
0
 40
0
 40
0
 40
1
 40
1
 40
1
 40
1
 10
142.936680
 20
57.807916
 30
0.0
 10
144.151361
 20
59.718361
 30
0.0
 10
146.642068
 20
60.585875
 30
0.0
 10
148.880985
 20
60.321458
 30
0.0
  0
SPLINE
  5
132
100
AcDbEntity
  8
0
 62
7
100
AcDbSpline
 70
8
 71
3
 72
8
 73
4
 74
0
 40
0
 40
0
 40
0
 40
0
 40
1
 40
1
 40
1
 40
1
 10
148.880985
 20
60.321458
 30
0.0
 10
150.000442
 20
60.189248
 30
0.0
 10
151.050292
 20
59.773366
 30
0.0
 10
151.844319
 20
59.077916
 30
0.0
  0
SPLINE
  5
133
100
AcDbEntity
  8
0
 62
7
100
AcDbSpline
 70
8
 71
3
 72
8
 73
4
 74
0
 40
0
 40
0
 40
0
 40
0
 40
1
 40
1
 40
1
 40
1
 10
151.844319
 20
59.077916
 30
0.0
 10
152.638345
 20
58.382467
 30
0.0
 10
153.177206
 20
57.414566
 30
0.0
 10
153.281888
 20
56.132222
 30
0.0
  0
LWPOLYLINE
  5
134
100
AcDbEntity
  8
0
 62
7
100
AcDbPolyline
 90
3
 70
0
 10
142.910235
 20
57.781472
 30
0.0
 10
142.927874
 20
57.799111
 30
0.0
 10
142.936680
 20
57.807916
 30
0.0
  0
SPLINE
  5
135
100
AcDbEntity
  8
0
 62
7
100
AcDbSpline
 70
8
 71
3
 72
8
 73
4
 74
0
 40
0
 40
0
 40
0
 40
0
 40
1
 40
1
 40
1
 40
1
 10
153.290693
 20
56.114611
 30
0.0
 10
153.517354
 20
54.861598
 30
0.0
 10
152.985176
 20
53.537793
 30
0.0
 10
152.682152
 20
52.234056
 30
0.0
  0
SPLINE
  5
136
100
AcDbEntity
  8
0
 62
7
100
AcDbSpline
 70
8
 71
3
 72
8
 73
4
 74
0
 40
0
 40
0
 40
0
 40
0
 40
1
 40
1
 40
1
 40
1
 10
152.682152
 20
52.234056
 30
0.0
 10
152.530641
 20
51.582190
 30
0.0
 10
152.438684
 20
50.936198
 30
0.0
 10
152.541041
 20
50.302597
 30
0.0
  0
SPLINE
  5
137
100
AcDbEntity
  8
0
 62
7
100
AcDbSpline
 70
8
 71
3
 72
8
 73
4
 74
0
 40
0
 40
0
 40
0
 40
0
 40
1
 40
1
 40
1
 40
1
 10
152.541041
 20
50.302597
 30
0.0
 10
152.642522
 20
49.674399
 30
0.0
 10
152.954691
 20
49.069639
 30
0.0
 10
153.564096
 20
48.512250
 30
0.0
  0
LWPOLYLINE
  5
138
100
AcDbEntity
  8
0
 62
7
100
AcDbPolyline
 90
3
 70
0
 10
153.281888
 20
56.132222
 30
0.0
 10
153.281888
 20
56.123417
 30
0.0
 10
153.290693
 20
56.114611
 30
0.0
  0
SPLINE
  5
139
100
AcDbEntity
  8
0
 62
7
100
AcDbSpline
 70
8
 71
3
 72
8
 73
4
 74
0
 40
0
 40
0
 40
0
 40
0
 40
1
 40
1
 40
1
 40
1
 10
153.555291
 20
48.503445
 30
0.0
 10
154.156932
 20
47.815633
 30
0.0
 10
154.695031
 20
46.823506
 30
0.0
 10
155.310360
 20
45.954625
 30
0.0
  0
SPLINE
  5
13a
100
AcDbEntity
  8
0
 62
7
100
AcDbSpline
 70
8
 71
3
 72
8
 73
4
 74
0
 40
0
 40
0
 40
0
 40
0
 40
1
 40
1
 40
1
 40
1
 10
155.310360
 20
45.954625
 30
0.0
 10
155.925689
 20
45.085745
 30
0.0
 10
156.629808
 20
44.326700
 30
0.0
 10
157.585777
 20
44.129000
 30
0.0
  0
LWPOLYLINE
  5
13b
100
AcDbEntity
  8
0
 62
7
100
AcDbPolyline
 90
2
 70
0
 10
153.564096
 20
48.512250
 30
0.0
 10
153.555291
 20
48.503445
 30
0.0
  0
SPLINE
  5
13c
100
AcDbEntity
  8
0
 62
7
100
AcDbSpline
 70
8
 71
3
 72
8
 73
4
 74
0
 40
0
 40
0
 40
0
 40
0
 40
1
 40
1
 40
1
 40
1
 10
157.656332
 20
44.129000
 30
0.0
 10
158.707861
 20
44.437901
 30
0.0
 10
159.785733
 20
44.433490
 30
0.0
 10
160.848971
 20
44.243653
 30
0.0
  0
SPLINE
  5
13d
100
AcDbEntity
  8
0
 62
7
100
AcDbSpline
 70
8
 71
3
 72
8
 73
4
 74
0
 40
0
 40
0
 40
0
 40
0
 40
1
 40
1
 40
1
 40
1
 10
160.848971
 20
44.243653
 30
0.0
 10
161.912207
 20
44.053819
 30
0.0
 10
162.952484
 20
43.684108
 30
0.0
 10
163.926957
 20
43.255875
 30
0.0
  0
LWPOLYLINE
  5
13e
100
AcDbEntity
  8
0
 62
7
100
AcDbPolyline
 90
3
 70
0
 10
157.585777
 20
44.129000
 30
0.0
 10
157.621055
 20
44.120195
 30
0.0
 10
157.656332
 20
44.129000
 30
0.0
  0
SPLINE
  5
13f
100
AcDbEntity
  8
0
 62
7
100
AcDbSpline
 70
8
 71
3
 72
8
 73
4
 74
0
 40
0
 40
0
 40
0
 40
0
 40
1
 40
1
 40
1
 40
1
 10
164.112222
 20
43.317499
 30
0.0
 10
164.913962
 20
44.801310
 30
0.0
 10
165.680506
 20
46.309274
 30
0.0
 10
166.396458
 20
47.841874
 30
0.0
  0
SPLINE
  5
140
100
AcDbEntity
  8
0
 62
7
100
AcDbSpline
 70
8
 71
3
 72
8
 73
4
 74
0
 40
0
 40
0
 40
0
 40
0
 40
1
 40
1
 40
1
 40
1
 10
166.396458
 20
47.841874
 30
0.0
 10
167.112408
 20
49.374473
 30
0.0
 10
167.777868
 20
50.931640
 30
0.0
 10
168.363194
 20
52.516179
 30
0.0
  0
LWPOLYLINE
  5
141
100
AcDbEntity
  8
0
 62
7
100
AcDbPolyline
 90
3
 70
0
 10
163.926957
 20
43.255875
 30
0.0
 10
164.050430
 20
43.202959
 30
0.0
 10
164.112222
 20
43.317499
 30
0.0
  0
SPLINE
  5
142
100
AcDbEntity
  8
0
 62
7
100
AcDbSpline
 70
8
 71
3
 72
8
 73
4
 74
0
 40
0
 40
0
 40
0
 40
0
 40
1
 40
1
 40
1
 40
1
 10
168.336722
 20
52.657290
 30
0.0
 10
166.554187
 20
54.547197
 30
0.0
 10
166.737693
 20
57.079701
 30
0.0
 10
167.975125
 20
59.051388
 30
0.0
  0
SPLINE
  5
143
100
AcDbEntity
  8
0
 62
7
100
AcDbSpline
 70
8
 71
3
 72
8
 73
4
 74
0
 40
0
 40
0
 40
0
 40
0
 40
1
 40
1
 40
1
 40
1
 10
167.975125
 20
59.051388
 30
0.0
 10
169.212559
 20
61.023071
 30
0.0
 10
171.499132
 20
62.396807
 30
0.0
 10
173.884153
 20
61.961804
 30
0.0
  0
LWPOLYLINE
  5
144
100
AcDbEntity
  8
0
 62
7
100
AcDbPolyline
 90
3
 70
0
 10
168.363194
 20
52.516179
 30
0.0
 10
168.389639
 20
52.595554
 30
0.0
 10
168.336722
 20
52.657290
 30
0.0
  0
SPLINE
  5
145
100
AcDbEntity
  8
0
 62
7
100
AcDbSpline
 70
8
 71
3
 72
8
 73
4
 74
0
 40
0
 40
0
 40
0
 40
0
 40
1
 40
1
 40
1
 40
1
 10
173.928236
 20
61.961804
 30
0.0
 10
175.169909
 20
62.122818
 30
0.0
 10
176.176869
 20
61.848859
 30
0.0
 10
176.997402
 20
61.291526
 30
0.0
  0
SPLINE
  5
146
100
AcDbEntity
  8
0
 62
7
100
AcDbSpline
 70
8
 71
3
 72
8
 73
4
 74
0
 40
0
 40
0
 40
0
 40
0
 40
1
 40
1
 40
1
 40
1
 10
176.997402
 20
61.291526
 30
0.0
 10
177.817935
 20
60.734194
 30
0.0
 10
178.448524
 20
59.888230
 30
0.0
 10
178.902402
 20
58.892638
 30
0.0
  0
SPLINE
  5
147
100
AcDbEntity
  8
0
 62
7
100
AcDbSpline
 70
8
 71
3
 72
8
 73
4
 74
0
 40
0
 40
0
 40
0
 40
0
 40
1
 40
1
 40
1
 40
1
 10
178.902402
 20
58.892638
 30
0.0
 10
179.810159
 20
56.901455
 30
0.0
 10
180.000746
 20
54.323248
 30
0.0
 10
179.616777
 20
52.401526
 30
0.0
  0
LWPOLYLINE
  5
148
100
AcDbEntity
  8
0
 62
7
100
AcDbPolyline
 90
3
 70
0
 10
173.884153
 20
61.961804
 30
0.0
 10
173.901791
 20
61.961804
 30
0.0
 10
173.928236
 20
61.961804
 30
0.0
  0
SPLINE
  5
149
100
AcDbEntity
  8
0
 62
7
100
AcDbSpline
 70
8
 71
3
 72
8
 73
4
 74
0
 40
0
 40
0
 40
0
 40
0
 40
1
 40
1
 40
1
 40
1
 10
179.616777
 20
52.392721
 30
0.0
 10
179.482592
 20
50.821618
 30
0.0
 10
178.522605
 20
49.853734
 30
0.0
 10
177.456013
 20
48.891402
 30
0.0
  0
SPLINE
  5
14a
100
AcDbEntity
  8
0
 62
7
100
AcDbSpline
 70
8
 71
3
 72
8
 73
4
 74
0
 40
0
 40
0
 40
0
 40
0
 40
1
 40
1
 40
1
 40
1
 10
177.456013
 20
48.891402
 30
0.0
 10
176.395840
 20
47.934863
 30
0.0
 10
175.227155
 20
46.989856
 30
0.0
 10
174.748444
 20
45.469457
 30
0.0
  0
SPLINE
  5
14b
100
AcDbEntity
  8
0
 62
7
100
AcDbSpline
 70
8
 71
3
 72
8
 73
4
 74
0
 40
0
 40
0
 40
0
 40
0
 40
1
 40
1
 40
1
 40
1
 10
174.748444
 20
45.469457
 30
0.0
 10
174.745537
 20
45.460257
 30
0.0
 10
174.742461
 20
45.452242
 30
0.0
 10
174.739639
 20
45.443013
 30
0.0
  0
SPLINE
  5
14c
100
AcDbEntity
  8
0
 62
7
100
AcDbSpline
 70
8
 71
3
 72
8
 73
4
 74
0
 40
0
 40
0
 40
0
 40
0
 40
1
 40
1
 40
1
 40
1
 10
174.739639
 20
45.443013
 30
0.0
 10
174.129979
 20
44.281612
 30
0.0
 10
173.547004
 20
43.041621
 30
0.0
 10
173.072764
 20
41.774124
 30
0.0
  0
SPLINE
  5
14d
100
AcDbEntity
  8
0
 62
7
100
AcDbSpline
 70
8
 71
3
 72
8
 73
4
 74
0
 40
0
 40
0
 40
0
 40
0
 40
1
 40
1
 40
1
 40
1
 10
173.072764
 20
41.774124
 30
0.0
 10
172.595249
 20
40.497879
 30
0.0
 10
172.227404
 20
39.194918
 30
0.0
 10
172.058528
 20
37.902388
 30
0.0
  0
LWPOLYLINE
  5
14e
100
AcDbEntity
  8
0
 62
7
100
AcDbPolyline
 90
2
 70
0
 10
179.616777
 20
52.401526
 30
0.0
 10
179.616777
 20
52.392721
 30
0.0
  0
SPLINE
  5
14f
100
AcDbEntity
  8
0
 62
7
100
AcDbSpline
 70
8
 71
3
 72
8
 73
4
 74
0
 40
0
 40
0
 40
0
 40
0
 40
1
 40
1
 40
1
 40
1
 10
172.076166
 20
37.814194
 30
0.0
 10
173.507344
 20
35.463503
 30
0.0
 10
174.358376
 20
32.746572
 30
0.0
 10
174.651444
 20
29.964888
 30
0.0
  0
SPLINE
  5
150
100
AcDbEntity
  8
0
 62
7
100
AcDbSpline
 70
8
 71
3
 72
8
 73
4
 74
0
 40
0
 40
0
 40
0
 40
0
 40
1
 40
1
 40
1
 40
1
 10
174.651444
 20
29.964888
 30
0.0
 10
174.944210
 20
27.186088
 30
0.0
 10
174.678876
 20
24.342426
 30
0.0
 10
173.875333
 20
21.718707
 30
0.0
  0
SPLINE
  5
151
100
AcDbEntity
  8
0
 62
7
100
AcDbSpline
 70
8
 71
3
 72
8
 73
4
 74
0
 40
0
 40
0
 40
0
 40
0
 40
1
 40
1
 40
1
 40
1
 10
173.875333
 20
21.718707
 30
0.0
 10
173.874486
 20
21.715885
 30
0.0
 10
173.876180
 20
21.712611
 30
0.0
 10
173.875333
 20
21.709902
 30
0.0
  0
SPLINE
  5
152
100
AcDbEntity
  8
0
 62
7
100
AcDbSpline
 70
8
 71
3
 72
8
 73
4
 74
0
 40
0
 40
0
 40
0
 40
0
 40
1
 40
1
 40
1
 40
1
 10
173.875333
 20
21.709902
 30
0.0
 10
173.155277
 20
19.933217
 30
0.0
 10
172.190624
 20
18.282804
 30
0.0
 10
171.061930
 20
16.744555
 30
0.0
  0
SPLINE
  5
153
100
AcDbEntity
  8
0
 62
7
100
AcDbSpline
 70
8
 71
3
 72
8
 73
4
 74
0
 40
0
 40
0
 40
0
 40
0
 40
1
 40
1
 40
1
 40
1
 10
171.061930
 20
16.744555
 30
0.0
 10
169.931670
 20
15.204175
 30
0.0
 10
168.639273
 20
13.782068
 30
0.0
 10
167.278389
 20
12.467110
 30
0.0
  0
LWPOLYLINE
  5
154
100
AcDbEntity
  8
0
 62
7
100
AcDbPolyline
 90
3
 70
0
 10
172.058528
 20
37.902388
 30
0.0
 10
172.049722
 20
37.849471
 30
0.0
 10
172.076166
 20
37.814194
 30
0.0
  0
SPLINE
  5
155
100
AcDbEntity
  8
0
 62
7
100
AcDbSpline
 70
8
 71
3
 72
8
 73
4
 74
0
 40
0
 40
0
 40
0
 40
0
 40
1
 40
1
 40
1
 40
1
 10
167.243111
 20
12.317166
 30
0.0
 10
168.153526
 20
9.602724
 30
0.0
 10
166.897377
 20
6.867652
 30
0.0
 10
164.800125
 20
5.217527
 30
0.0
  0
SPLINE
  5
156
100
AcDbEntity
  8
0
 62
7
100
AcDbSpline
 70
8
 71
3
 72
8
 73
4
 74
0
 40
0
 40
0
 40
0
 40
0
 40
1
 40
1
 40
1
 40
1
 10
164.800125
 20
5.217527
 30
0.0
 10
162.705841
 20
3.569716
 30
0.0
 10
159.796045
 20
3.015657
 30
0.0
 10
157.374153
 20
4.644305
 30
0.0
  0
SPLINE
  5
157
100
AcDbEntity
  8
0
 62
7
100
AcDbSpline
 70
8
 71
3
 72
8
 73
4
 74
0
 40
0
 40
0
 40
0
 40
0
 40
1
 40
1
 40
1
 40
1
 10
157.374153
 20
4.644305
 30
0.0
 10
157.370963
 20
4.647128
 30
0.0
 10
157.368508
 20
4.650232
 30
0.0
 10
157.365347
 20
4.653054
 30
0.0
  0
SPLINE
  5
158
100
AcDbEntity
  8
0
 62
7
100
AcDbSpline
 70
8
 71
3
 72
8
 73
4
 74
0
 40
0
 40
0
 40
0
 40
0
 40
1
 40
1
 40
1
 40
1
 10
157.365347
 20
4.653054
 30
0.0
 10
156.587396
 20
5.330670
 30
0.0
 10
156.269134
 20
6.360245
 30
0.0
 10
156.077708
 20
7.431193
 30
0.0
  0
SPLINE
  5
159
100
AcDbEntity
  8
0
 62
7
100
AcDbSpline
 70
8
 71
3
 72
8
 73
4
 74
0
 40
0
 40
0
 40
0
 40
0
 40
1
 40
1
 40
1
 40
1
 10
156.077708
 20
7.431193
 30
0.0
 10
155.885495
 20
8.506432
 30
0.0
 10
155.825438
 20
9.607381
 30
0.0
 10
155.539722
 20
10.412137
 30
0.0
  0
LWPOLYLINE
  5
15a
100
AcDbEntity
  8
0
 62
7
100
AcDbPolyline
 90
3
 70
0
 10
167.278389
 20
12.467110
 30
0.0
 10
167.207833
 20
12.396555
 30
0.0
 10
167.243111
 20
12.317166
 30
0.0
  0
SPLINE
  5
15b
100
AcDbEntity
  8
0
 62
7
100
AcDbSpline
 70
8
 71
3
 72
8
 73
4
 74
0
 40
0
 40
0
 40
0
 40
0
 40
1
 40
1
 40
1
 40
1
 10
155.389792
 20
10.509306
 30
0.0
 10
154.309445
 20
10.335599
 30
0.0
 10
153.196050
 20
10.252654
 30
0.0
 10
152.338264
 20
9.839029
 30
0.0
  0
SPLINE
  5
15c
100
AcDbEntity
  8
0
 62
7
100
AcDbSpline
 70
8
 71
3
 72
8
 73
4
 74
0
 40
0
 40
0
 40
0
 40
0
 40
1
 40
1
 40
1
 40
1
 10
152.338264
 20
9.839029
 30
0.0
 10
151.491990
 20
9.430964
 30
0.0
 10
150.917608
 20
8.661626
 30
0.0
 10
150.935972
 20
7.228473
 30
0.0
  0
SPLINE
  5
15d
100
AcDbEntity
  8
0
 62
7
100
AcDbSpline
 70
8
 71
3
 72
8
 73
4
 74
0
 40
0
 40
0
 40
0
 40
0
 40
1
 40
1
 40
1
 40
1
 10
150.935972
 20
7.228473
 30
0.0
 10
150.175146
 20
6.026404
 30
0.0
 10
149.301858
 20
4.898813
 30
0.0
 10
148.237222
 20
4.141668
 30
0.0
  0
SPLINE
  5
15e
100
AcDbEntity
  8
0
 62
7
100
AcDbSpline
 70
8
 71
3
 72
8
 73
4
 74
0
 40
0
 40
0
 40
0
 40
0
 40
1
 40
1
 40
1
 40
1
 10
148.237222
 20
4.141668
 30
0.0
 10
147.168509
 20
3.381615
 30
0.0
 10
145.922365
 20
2.994406
 30
0.0
 10
144.383125
 20
3.250890
 30
0.0
  0
SPLINE
  5
15f
100
AcDbEntity
  8
0
 62
7
100
AcDbSpline
 70
8
 71
3
 72
8
 73
4
 74
0
 40
0
 40
0
 40
0
 40
0
 40
1
 40
1
 40
1
 40
1
 10
144.383125
 20
3.250890
 30
0.0
 10
144.380585
 20
3.250890
 30
0.0
 10
144.376860
 20
3.250890
 30
0.0
 10
144.374320
 20
3.250890
 30
0.0
  0
SPLINE
  5
160
100
AcDbEntity
  8
0
 62
7
100
AcDbSpline
 70
8
 71
3
 72
8
 73
4
 74
0
 40
0
 40
0
 40
0
 40
0
 40
1
 40
1
 40
1
 40
1
 10
144.374320
 20
3.250890
 30
0.0
 10
142.977472
 20
3.763405
 30
0.0
 10
141.897851
 20
4.705943
 30
0.0
 10
141.084667
 20
5.870279
 30
0.0
  0
SPLINE
  5
161
100
AcDbEntity
  8
0
 62
7
100
AcDbSpline
 70
8
 71
3
 72
8
 73
4
 74
0
 40
0
 40
0
 40
0
 40
0
 40
1
 40
1
 40
1
 40
1
 10
141.084667
 20
5.870279
 30
0.0
 10
140.266349
 20
7.041952
 30
0.0
 10
139.717498
 20
8.441746
 30
0.0
 10
139.382514
 20
9.847834
 30
0.0
  0
LWPOLYLINE
  5
162
100
AcDbEntity
  8
0
 62
7
100
AcDbPolyline
 90
3
 70
0
 10
155.539722
 20
10.412137
 30
0.0
 10
155.504444
 20
10.526804
 30
0.0
 10
155.389792
 20
10.509306
 30
0.0
  0
SPLINE
  5
163
100
AcDbEntity
  8
0
 62
7
100
AcDbSpline
 70
8
 71
3
 72
8
 73
4
 74
0
 40
0
 40
0
 40
0
 40
0
 40
1
 40
1
 40
1
 40
1
 10
139.223778
 20
9.953554
 30
0.0
 10
138.114758
 20
9.810806
 30
0.0
 10
136.968526
 20
9.724898
 30
0.0
 10
135.810653
 20
9.653722
 30
0.0
  0
SPLINE
  5
164
100
AcDbEntity
  8
0
 62
7
100
AcDbSpline
 70
8
 71
3
 72
8
 73
4
 74
0
 40
0
 40
0
 40
0
 40
0
 40
1
 40
1
 40
1
 40
1
 10
135.810653
 20
9.653722
 30
0.0
 10
134.652777
 20
9.582517
 30
0.0
 10
133.486621
 20
9.520936
 30
0.0
 10
132.335792
 20
9.433221
 30
0.0
  0
LWPOLYLINE
  5
165
100
AcDbEntity
  8
0
 62
7
100
AcDbPolyline
 90
3
 70
0
 10
139.382514
 20
9.847834
 30
0.0
 10
139.356070
 20
9.971334
 30
0.0
 10
139.223778
 20
9.953554
 30
0.0
  0
SPLINE
  5
166
100
AcDbEntity
  8
0
 62
7
100
AcDbSpline
 70
8
 71
3
 72
8
 73
4
 74
0
 40
0
 40
0
 40
0
 40
0
 40
1
 40
1
 40
1
 40
1
 10
132.212334
 20
9.345112
 30
0.0
 10
131.680255
 20
7.818854
 30
0.0
 10
130.762347
 20
6.176970
 30
0.0
 10
129.531223
 20
5.005945
 30
0.0
  0
SPLINE
  5
167
100
AcDbEntity
  8
0
 62
7
100
AcDbSpline
 70
8
 71
3
 72
8
 73
4
 74
0
 40
0
 40
0
 40
0
 40
0
 40
1
 40
1
 40
1
 40
1
 10
129.531223
 20
5.005945
 30
0.0
 10
128.300099
 20
3.834920
 30
0.0
 10
126.767020
 20
3.131933
 30
0.0
 10
124.971570
 20
3.418445
 30
0.0
  0
SPLINE
  5
168
100
AcDbEntity
  8
0
 62
7
100
AcDbSpline
 70
8
 71
3
 72
8
 73
4
 74
0
 40
0
 40
0
 40
0
 40
0
 40
1
 40
1
 40
1
 40
1
 10
124.971570
 20
3.418445
 30
0.0
 10
123.028273
 20
3.685512
 30
0.0
 10
121.835110
 20
4.863959
 30
0.0
 10
120.932265
 20
6.372973
 30
0.0
  0
SPLINE
  5
169
100
AcDbEntity
  8
0
 62
7
100
AcDbSpline
 70
8
 71
3
 72
8
 73
4
 74
0
 40
0
 40
0
 40
0
 40
0
 40
1
 40
1
 40
1
 40
1
 10
120.932265
 20
6.372973
 30
0.0
 10
120.029416
 20
7.881959
 30
0.0
 10
119.437246
 20
9.715331
 30
0.0
 10
118.709765
 20
11.232473
 30
0.0
  0
LWPOLYLINE
  5
16a
100
AcDbEntity
  8
0
 62
7
100
AcDbPolyline
 90
3
 70
0
 10
132.335792
 20
9.433221
 30
0.0
 10
132.238778
 20
9.424472
 30
0.0
 10
132.212334
 20
9.345112
 30
0.0
  0
SPLINE
  5
16b
100
AcDbEntity
  8
0
 62
7
100
AcDbSpline
 70
8
 71
3
 72
8
 73
4
 74
0
 40
0
 40
0
 40
0
 40
0
 40
1
 40
1
 40
1
 40
1
 10
118.595112
 20
11.311777
 30
0.0
 10
117.295456
 20
11.453594
 30
0.0
 10
115.997561
 20
11.644771
 30
0.0
 10
114.705737
 20
11.858554
 30
0.0
  0
SPLINE
  5
16c
100
AcDbEntity
  8
0
 62
7
100
AcDbSpline
 70
8
 71
3
 72
8
 73
4
 74
0
 40
0
 40
0
 40
0
 40
0
 40
1
 40
1
 40
1
 40
1
 10
114.705737
 20
11.858554
 30
0.0
 10
113.413913
 20
12.072394
 30
0.0
 10
112.125585
 20
12.302292
 30
0.0
 10
110.842820
 20
12.537666
 30
0.0
  0
LWPOLYLINE
  5
16d
100
AcDbEntity
  8
0
 62
7
100
AcDbPolyline
 90
3
 70
0
 10
118.709765
 20
11.232473
 30
0.0
 10
118.674487
 20
11.303028
 30
0.0
 10
118.595112
 20
11.311777
 30
0.0
  0
SPLINE
  5
16e
100
AcDbEntity
  8
0
 62
7
100
AcDbSpline
 70
8
 71
3
 72
8
 73
4
 74
0
 40
0
 40
0
 40
0
 40
0
 40
1
 40
1
 40
1
 40
1
 10
110.684070
 20
12.449556
 30
0.0
 10
110.043925
 20
10.474762
 30
0.0
 10
108.669071
 20
8.630158
 30
0.0
 10
106.935806
 20
7.528306
 30
0.0
  0
SPLINE
  5
16f
100
AcDbEntity
  8
0
 62
7
100
AcDbSpline
 70
8
 71
3
 72
8
 73
4
 74
0
 40
0
 40
0
 40
0
 40
0
 40
1
 40
1
 40
1
 40
1
 10
106.935806
 20
7.528306
 30
0.0
 10
105.202538
 20
6.426454
 30
0.0
 10
103.122634
 20
6.056997
 30
0.0
 10
101.017959
 20
6.999139
 30
0.0
  0
SPLINE
  5
170
100
AcDbEntity
  8
0
 62
7
100
AcDbSpline
 70
8
 71
3
 72
8
 73
4
 74
0
 40
0
 40
0
 40
0
 40
0
 40
1
 40
1
 40
1
 40
1
 10
101.017959
 20
6.999139
 30
0.0
 10
98.842020
 20
7.991574
 30
0.0
 10
97.352358
 20
9.940149
 30
0.0
 10
96.643515
 20
12.176139
 30
0.0
  0
SPLINE
  5
171
100
AcDbEntity
  8
0
 62
7
100
AcDbSpline
 70
8
 71
3
 72
8
 73
4
 74
0
 40
0
 40
0
 40
0
 40
0
 40
1
 40
1
 40
1
 40
1
 10
96.643515
 20
12.176139
 30
0.0
 10
95.934671
 20
14.412186
 30
0.0
 10
96.014670
 20
16.932986
 30
0.0
 10
96.969834
 20
19.037667
 30
0.0
  0
LWPOLYLINE
  5
172
100
AcDbEntity
  8
0
 62
7
100
AcDbPolyline
 90
3
 70
0
 10
110.842820
 20
12.537666
 30
0.0
 10
110.728167
 20
12.564195
 30
0.0
 10
110.684070
 20
12.449556
 30
0.0
  0
SPLINE
  5
173
100
AcDbEntity
  8
0
 62
7
100
AcDbSpline
 70
8
 71
3
 72
8
 73
4
 74
0
 40
0
 40
0
 40
0
 40
0
 40
1
 40
1
 40
1
 40
1
 10
96.961000
 20
19.161139
 30
0.0
 10
96.483684
 20
20.015668
 30
0.0
 10
95.699241
 20
20.791751
 30
0.0
 10
95.038362
 20
21.639403
 30
0.0
  0
SPLINE
  5
174
100
AcDbEntity
  8
0
 62
7
100
AcDbSpline
 70
8
 71
3
 72
8
 73
4
 74
0
 40
0
 40
0
 40
0
 40
0
 40
1
 40
1
 40
1
 40
1
 10
95.038362
 20
21.639403
 30
0.0
 10
94.377482
 20
22.487052
 30
0.0
 10
93.848953
 20
23.400504
 30
0.0
 10
93.830098
 20
24.505722
 30
0.0
  0
LWPOLYLINE
  5
175
100
AcDbEntity
  8
0
 62
7
100
AcDbPolyline
 90
3
 70
0
 10
96.969834
 20
19.037667
 30
0.0
 10
96.996278
 20
19.099403
 30
0.0
 10
96.961000
 20
19.161139
 30
0.0
  0
SPLINE
  5
176
100
AcDbEntity
  8
0
 62
7
100
AcDbSpline
 70
8
 71
3
 72
8
 73
4
 74
0
 40
0
 40
0
 40
0
 40
0
 40
1
 40
1
 40
1
 40
1
 10
93.715459
 20
24.638014
 30
0.0
 10
92.535268
 20
24.871547
 30
0.0
 10
91.079444
 20
25.111346
 30
0.0
 10
89.967195
 20
25.678709
 30
0.0
  0
SPLINE
  5
177
100
AcDbEntity
  8
0
 62
7
100
AcDbSpline
 70
8
 71
3
 72
8
 73
4
 74
0
 40
0
 40
0
 40
0
 40
0
 40
1
 40
1
 40
1
 40
1
 10
89.967195
 20
25.678709
 30
0.0
 10
88.854943
 20
26.246068
 30
0.0
 10
88.086040
 20
27.101444
 30
0.0
 10
88.203306
 20
28.659681
 30
0.0
  0
LWPOLYLINE
  5
178
100
AcDbEntity
  8
0
 62
7
100
AcDbPolyline
 90
3
 70
0
 10
93.830098
 20
24.505722
 30
0.0
 10
93.821292
 20
24.620375
 30
0.0
 10
93.715459
 20
24.638014
 30
0.0
  0
SPLINE
  5
179
100
AcDbEntity
  8
0
 62
7
100
AcDbSpline
 70
8
 71
3
 72
8
 73
4
 74
0
 40
0
 40
0
 40
0
 40
0
 40
1
 40
1
 40
1
 40
1
 10
88.194501
 20
28.712569
 30
0.0
 10
87.551170
 20
31.200894
 30
0.0
 10
88.179148
 20
33.756563
 30
0.0
 10
89.552695
 20
35.856319
 30
0.0
  0
SPLINE
  5
17a
100
AcDbEntity
  8
0
 62
7
100
AcDbSpline
 70
8
 71
3
 72
8
 73
4
 74
0
 40
0
 40
0
 40
0
 40
0
 40
1
 40
1
 40
1
 40
1
 10
89.552695
 20
35.856319
 30
0.0
 10
90.926220
 20
37.956072
 30
0.0
 10
93.050055
 20
39.589281
 30
0.0
 10
95.382348
 20
40.221944
 30
0.0
  0
LWPOLYLINE
  5
17b
100
AcDbEntity
  8
0
 62
7
100
AcDbPolyline
 90
3
 70
0
 10
88.203306
 20
28.659681
 30
0.0
 10
88.203306
 20
28.686125
 30
0.0
 10
88.194501
 20
28.712569
 30
0.0
  0
SPLINE
  5
17c
100
AcDbEntity
  8
0
 62
7
100
AcDbSpline
 70
8
 71
3
 72
8
 73
4
 74
0
 40
0
 40
0
 40
0
 40
0
 40
1
 40
1
 40
1
 40
1
 10
95.470528
 20
40.292500
 30
0.0
 10
97.734433
 20
44.552032
 30
0.0
 10
99.832516
 20
48.953028
 30
0.0
 10
101.423653
 20
53.512847
 30
0.0
  0
SPLINE
  5
17d
100
AcDbEntity
  8
0
 62
7
100
AcDbSpline
 70
8
 71
3
 72
8
 73
4
 74
0
 40
0
 40
0
 40
0
 40
0
 40
1
 40
1
 40
1
 40
1
 10
101.423653
 20
53.512847
 30
0.0
 10
103.014791
 20
58.072669
 30
0.0
 10
104.101003
 20
62.791704
 30
0.0
 10
104.325251
 20
67.694514
 30
0.0
  0
LWPOLYLINE
  5
17e
100
AcDbEntity
  8
0
 62
7
100
AcDbPolyline
 90
3
 70
0
 10
95.382348
 20
40.221944
 30
0.0
 10
95.444084
 20
40.239583
 30
0.0
 10
95.470528
 20
40.292500
 30
0.0
  0
SPLINE
  5
17f
100
AcDbEntity
  8
0
 62
7
100
AcDbSpline
 70
8
 71
3
 72
8
 73
4
 74
0
 40
0
 40
0
 40
0
 40
0
 40
1
 40
1
 40
1
 40
1
 10
104.316445
 20
67.694514
 30
0.0
 10
104.788840
 20
71.364362
 30
0.0
 10
104.539737
 20
75.067242
 30
0.0
 10
103.787279
 20
78.683541
 30
0.0
  0
SPLINE
  5
180
100
AcDbEntity
  8
0
 62
7
100
AcDbSpline
 70
8
 71
3
 72
8
 73
4
 74
0
 40
0
 40
0
 40
0
 40
0
 40
1
 40
1
 40
1
 40
1
 10
103.787279
 20
78.683541
 30
0.0
 10
103.034225
 20
82.302714
 30
0.0
 10
101.780368
 20
85.831835
 30
0.0
 10
100.241862
 20
89.134583
 30
0.0
  0
LWPOLYLINE
  5
181
100
AcDbEntity
  8
0
 62
7
100
AcDbPolyline
 90
2
 70
0
 10
104.325251
 20
67.694514
 30
0.0
 10
104.316445
 20
67.694514
 30
0.0
  0
SPLINE
  5
182
100
AcDbEntity
  8
0
 62
7
100
AcDbSpline
 70
8
 71
3
 72
8
 73
4
 74
0
 40
0
 40
0
 40
0
 40
0
 40
1
 40
1
 40
1
 40
1
 10
100.224251
 20
89.161027
 30
0.0
 10
97.366049
 20
92.937945
 30
0.0
 10
92.669061
 20
94.449079
 30
0.0
 10
88.097515
 20
94.029361
 30
0.0
  0
SPLINE
  5
183
100
AcDbEntity
  8
0
 62
7
100
AcDbSpline
 70
8
 71
3
 72
8
 73
4
 74
0
 40
0
 40
0
 40
0
 40
0
 40
1
 40
1
 40
1
 40
1
 10
88.097515
 20
94.029361
 30
0.0
 10
83.532441
 20
93.610241
 30
0.0
 10
79.081043
 20
91.265381
 30
0.0
 10
76.702793
 20
87.317763
 30
0.0
  0
SPLINE
  5
184
100
AcDbEntity
  8
0
 62
7
100
AcDbSpline
 70
8
 71
3
 72
8
 73
4
 74
0
 40
0
 40
0
 40
0
 40
0
 40
1
 40
1
 40
1
 40
1
 10
76.702793
 20
87.317763
 30
0.0
 10
76.699406
 20
87.312175
 30
0.0
 10
76.697346
 20
87.305741
 30
0.0
 10
76.693988
 20
87.300125
 30
0.0
  0
SPLINE
  5
185
100
AcDbEntity
  8
0
 62
7
100
AcDbSpline
 70
8
 71
3
 72
8
 73
4
 74
0
 40
0
 40
0
 40
0
 40
0
 40
1
 40
1
 40
1
 40
1
 10
76.693988
 20
87.300125
 30
0.0
 10
74.201711
 20
84.031929
 30
0.0
 10
71.888398
 20
80.461759
 30
0.0
 10
70.246974
 20
76.646236
 30
0.0
  0
SPLINE
  5
186
100
AcDbEntity
  8
0
 62
7
100
AcDbSpline
 70
8
 71
3
 72
8
 73
4
 74
0
 40
0
 40
0
 40
0
 40
0
 40
1
 40
1
 40
1
 40
1
 10
70.246974
 20
76.646236
 30
0.0
 10
68.602981
 20
72.824741
 30
0.0
 10
67.633881
 20
68.760425
 30
0.0
 10
67.812807
 20
64.501861
 30
0.0
  0
SPLINE
  5
187
100
AcDbEntity
  8
0
 62
7
100
AcDbSpline
 70
8
 71
3
 72
8
 73
4
 74
0
 40
0
 40
0
 40
0
 40
0
 40
1
 40
1
 40
1
 40
1
 10
67.812807
 20
64.501861
 30
0.0
 10
67.771642
 20
61.668700
 30
0.0
 10
68.240329
 20
58.899185
 30
0.0
 10
68.853502
 20
56.149847
 30
0.0
  0
SPLINE
  5
188
100
AcDbEntity
  8
0
 62
7
100
AcDbSpline
 70
8
 71
3
 72
8
 73
4
 74
0
 40
0
 40
0
 40
0
 40
0
 40
1
 40
1
 40
1
 40
1
 10
68.853502
 20
56.149847
 30
0.0
 10
69.466674
 20
53.400506
 30
0.0
 10
70.220535
 20
50.671355
 30
0.0
 10
70.732043
 20
47.938944
 30
0.0
  0
LWPOLYLINE
  5
189
100
AcDbEntity
  8
0
 62
7
100
AcDbPolyline
 90
3
 70
0
 10
100.241862
 20
89.134583
 30
0.0
 10
100.233057
 20
89.152222
 30
0.0
 10
100.224251
 20
89.161027
 30
0.0
  0
SPLINE
  5
18a
100
AcDbEntity
  8
0
 62
7
100
AcDbSpline
 70
8
 71
3
 72
8
 73
4
 74
0
 40
0
 40
0
 40
0
 40
0
 40
1
 40
1
 40
1
 40
1
 10
70.740849
 20
47.921333
 30
0.0
 10
71.101819
 20
46.871362
 30
0.0
 10
72.214887
 20
46.396890
 30
0.0
 10
73.175015
 20
45.839944
 30
0.0
  0
SPLINE
  5
18b
100
AcDbEntity
  8
0
 62
7
100
AcDbSpline
 70
8
 71
3
 72
8
 73
4
 74
0
 40
0
 40
0
 40
0
 40
0
 40
1
 40
1
 40
1
 40
1
 10
73.175015
 20
45.839944
 30
0.0
 10
73.655081
 20
45.561473
 30
0.0
 10
74.097766
 20
45.262044
 30
0.0
 10
74.409737
 20
44.878625
 30
0.0
  0
SPLINE
  5
18c
100
AcDbEntity
  8
0
 62
7
100
AcDbSpline
 70
8
 71
3
 72
8
 73
4
 74
0
 40
0
 40
0
 40
0
 40
0
 40
1
 40
1
 40
1
 40
1
 10
74.409737
 20
44.878625
 30
0.0
 10
74.721709
 20
44.495206
 30
0.0
 10
74.908258
 20
44.031721
 30
0.0
 10
74.877168
 20
43.379319
 30
0.0
  0
LWPOLYLINE
  5
18d
100
AcDbEntity
  8
0
 62
7
100
AcDbPolyline
 90
3
 70
0
 10
70.732043
 20
47.938944
 30
0.0
 10
70.732043
 20
47.930139
 30
0.0
 10
70.740849
 20
47.921333
 30
0.0
  0
SPLINE
  5
18e
100
AcDbEntity
  8
0
 62
7
100
AcDbSpline
 70
8
 71
3
 72
8
 73
4
 74
0
 40
0
 40
0
 40
0
 40
0
 40
1
 40
1
 40
1
 40
1
 10
74.885973
 20
43.335236
 30
0.0
 10
75.425441
 20
41.468082
 30
0.0
 10
75.415902
 20
39.291565
 30
0.0
 10
74.797779
 20
37.382111
 30
0.0
  0
SPLINE
  5
18f
100
AcDbEntity
  8
0
 62
7
100
AcDbSpline
 70
8
 71
3
 72
8
 73
4
 74
0
 40
0
 40
0
 40
0
 40
0
 40
1
 40
1
 40
1
 40
1
 10
74.797779
 20
37.382111
 30
0.0
 10
74.179656
 20
35.472658
 30
0.0
 10
72.963038
 20
33.836057
 30
0.0
 10
71.067154
 20
33.025306
 30
0.0
  0
SPLINE
  5
190
100
AcDbEntity
  8
0
 62
7
100
AcDbSpline
 70
8
 71
3
 72
8
 73
4
 74
0
 40
0
 40
0
 40
0
 40
0
 40
1
 40
1
 40
1
 40
1
 10
71.067154
 20
33.025306
 30
0.0
 10
69.349696
 20
32.846958
 30
0.0
 10
68.399443
 20
31.697312
 30
0.0
 10
67.618751
 20
30.388292
 30
0.0
  0
SPLINE
  5
191
100
AcDbEntity
  8
0
 62
7
100
AcDbSpline
 70
8
 71
3
 72
8
 73
4
 74
0
 40
0
 40
0
 40
0
 40
0
 40
1
 40
1
 40
1
 40
1
 10
67.618751
 20
30.388292
 30
0.0
 10
66.832110
 20
29.069298
 30
0.0
 10
66.190580
 20
27.585450
 30
0.0
 10
65.078751
 20
26.666486
 30
0.0
  0
LWPOLYLINE
  5
192
100
AcDbEntity
  8
0
 62
7
100
AcDbPolyline
 90
3
 70
0
 10
74.877168
 20
43.379319
 30
0.0
 10
74.877168
 20
43.361681
 30
0.0
 10
74.885973
 20
43.335236
 30
0.0
  0
SPLINE
  5
193
100
AcDbEntity
  8
0
 62
7
100
AcDbSpline
 70
8
 71
3
 72
8
 73
4
 74
0
 40
0
 40
0
 40
0
 40
0
 40
1
 40
1
 40
1
 40
1
 10
65.052307
 20
26.640042
 30
0.0
 10
64.297695
 20
25.665472
 30
0.0
 10
63.457046
 20
24.733233
 30
0.0
 10
62.521126
 20
23.914834
 30
0.0
  0
SPLINE
  5
194
100
AcDbEntity
  8
0
 62
7
100
AcDbSpline
 70
8
 71
3
 72
8
 73
4
 74
0
 40
0
 40
0
 40
0
 40
0
 40
1
 40
1
 40
1
 40
1
 10
62.521126
 20
23.914834
 30
0.0
 10
61.585204
 20
23.096434
 30
0.0
 10
60.558652
 20
22.392550
 30
0.0
 10
59.434321
 20
21.877542
 30
0.0
  0
LWPOLYLINE
  5
195
100
AcDbEntity
  8
0
 62
7
100
AcDbPolyline
 90
3
 70
0
 10
65.078751
 20
26.666486
 30
0.0
 10
65.061112
 20
26.657681
 30
0.0
 10
65.052307
 20
26.640042
 30
0.0
  0
SPLINE
  5
196
100
AcDbEntity
  8
0
 62
7
100
AcDbSpline
 70
8
 71
3
 72
8
 73
4
 74
0
 40
0
 40
0
 40
0
 40
0
 40
1
 40
1
 40
1
 40
1
 10
59.354932
 20
21.718792
 30
0.0
 10
59.846055
 20
19.656163
 30
0.0
 10
59.399729
 20
17.242502
 30
0.0
 10
58.226043
 20
15.456987
 30
0.0
  0
SPLINE
  5
197
100
AcDbEntity
  8
0
 62
7
100
AcDbSpline
 70
8
 71
3
 72
8
 73
4
 74
0
 40
0
 40
0
 40
0
 40
0
 40
1
 40
1
 40
1
 40
1
 10
58.226043
 20
15.456987
 30
0.0
 10
57.052354
 20
13.671494
 30
0.0
 10
55.169062
 20
12.510572
 30
0.0
 10
52.757987
 20
12.890528
 30
0.0
  0
LWPOLYLINE
  5
198
100
AcDbEntity
  8
0
 62
7
100
AcDbPolyline
 90
3
 70
0
 10
59.434321
 20
21.877542
 30
0.0
 10
59.328487
 20
21.833445
 30
0.0
 10
59.354932
 20
21.718792
 30
0.0
  0
SPLINE
  5
199
100
AcDbEntity
  8
0
 62
7
100
AcDbSpline
 70
8
 71
3
 72
8
 73
4
 74
0
 40
0
 40
0
 40
0
 40
0
 40
1
 40
1
 40
1
 40
1
 10
52.740377
 20
12.890528
 30
0.0
 10
51.603698
 20
12.901817
 30
0.0
 10
50.547905
 20
13.367060
 30
0.0
 10
49.715307
 20
14.089973
 30
0.0
  0
SPLINE
  5
19a
100
AcDbEntity
  8
0
 62
7
100
AcDbSpline
 70
8
 71
3
 72
8
 73
4
 74
0
 40
0
 40
0
 40
0
 40
0
 40
1
 40
1
 40
1
 40
1
 10
49.715307
 20
14.089973
 30
0.0
 10
48.882718
 20
14.812905
 30
0.0
 10
48.278308
 20
15.801447
 30
0.0
 10
48.030793
 20
16.859278
 30
0.0
  0
LWPOLYLINE
  5
19b
100
AcDbEntity
  8
0
 62
7
100
AcDbPolyline
 90
3
 70
0
 10
52.757987
 20
12.890528
 30
0.0
 10
52.749182
 20
12.890528
 30
0.0
 10
52.740377
 20
12.890528
 30
0.0
  0
SPLINE
  5
19c
100
AcDbEntity
  8
0
 62
7
100
AcDbSpline
 70
8
 71
3
 72
8
 73
4
 74
0
 40
0
 40
0
 40
0
 40
0
 40
1
 40
1
 40
1
 40
1
 10
47.889696
 20
16.965112
 30
0.0
 10
46.408250
 20
16.935600
 30
0.0
 10
44.863108
 20
16.752539
 30
0.0
 10
43.347682
 20
16.612334
 30
0.0
  0
SPLINE
  5
19d
100
AcDbEntity
  8
0
 62
7
100
AcDbSpline
 70
8
 71
3
 72
8
 73
4
 74
0
 40
0
 40
0
 40
0
 40
0
 40
1
 40
1
 40
1
 40
1
 10
43.347682
 20
16.612334
 30
0.0
 10
41.832256
 20
16.472129
 30
0.0
 10
40.342648
 20
16.372959
 30
0.0
 10
38.982057
 20
16.506500
 30
0.0
  0
LWPOLYLINE
  5
19e
100
AcDbEntity
  8
0
 62
7
100
AcDbPolyline
 90
3
 70
0
 10
48.030793
 20
16.859278
 30
0.0
 10
48.004349
 20
16.965112
 30
0.0
 10
47.889696
 20
16.965112
 30
0.0
  0
SPLINE
  5
19f
100
AcDbEntity
  8
0
 62
7
100
AcDbSpline
 70
8
 71
3
 72
8
 73
4
 74
0
 40
0
 40
0
 40
0
 40
0
 40
1
 40
1
 40
1
 40
1
 10
38.832127
 20
16.383028
 30
0.0
 10
38.448923
 20
13.401717
 30
0.0
 10
36.011423
 20
11.349059
 30
0.0
 10
33.240599
 20
10.668028
 30
0.0
  0
SPLINE
  5
1a0
100
AcDbEntity
  8
0
 62
7
100
AcDbSpline
 70
8
 71
3
 72
8
 73
4
 74
0
 40
0
 40
0
 40
0
 40
0
 40
1
 40
1
 40
1
 40
1
 10
33.240599
 20
10.668028
 30
0.0
 10
30.469778
 20
9.986970
 30
0.0
 10
27.393176
 20
10.687784
 30
0.0
 10
25.735252
 20
13.199195
 30
0.0
  0
LWPOLYLINE
  5
1a1
100
AcDbEntity
  8
0
 62
7
100
AcDbPolyline
 90
3
 70
0
 10
38.982057
 20
16.506500
 30
0.0
 10
38.849766
 20
16.524139
 30
0.0
 10
38.832127
 20
16.383028
 30
0.0
  0
SPLINE
  5
1a2
100
AcDbEntity
  8
0
 62
7
100
AcDbSpline
 70
8
 71
3
 72
8
 73
4
 74
0
 40
0
 40
0
 40
0
 40
0
 40
1
 40
1
 40
1
 40
1
 10
25.708793
 20
13.225724
 30
0.0
 10
24.907955
 20
13.899275
 30
0.0
 10
24.735783
 20
15.217493
 30
0.0
 10
24.403516
 20
16.356626
 30
0.0
  0
SPLINE
  5
1a3
100
AcDbEntity
  8
0
 62
7
100
AcDbSpline
 70
8
 71
3
 72
8
 73
4
 74
0
 40
0
 40
0
 40
0
 40
0
 40
1
 40
1
 40
1
 40
1
 10
24.403516
 20
16.356626
 30
0.0
 10
24.237382
 20
16.926196
 30
0.0
 10
24.028557
 20
17.451900
 30
0.0
 10
23.645043
 20
17.820654
 30
0.0
  0
SPLINE
  5
1a4
100
AcDbEntity
  8
0
 62
7
100
AcDbSpline
 70
8
 71
3
 72
8
 73
4
 74
0
 40
0
 40
0
 40
0
 40
0
 40
1
 40
1
 40
1
 40
1
 10
23.645043
 20
17.820654
 30
0.0
 10
23.264856
 20
18.186211
 30
0.0
 10
22.709326
 20
18.373900
 30
0.0
 10
21.934071
 20
18.279265
 30
0.0
  0
SPLINE
  5
1a5
100
AcDbEntity
  8
0
 62
7
100
AcDbSpline
 70
8
 71
3
 72
8
 73
4
 74
0
 40
0
 40
0
 40
0
 40
0
 40
1
 40
1
 40
1
 40
1
 10
21.934071
 20
18.279265
 30
0.0
 10
21.928116
 20
18.279291
 30
0.0
 10
21.922382
 20
18.279217
 30
0.0
 10
21.916432
 20
18.279265
 30
0.0
  0
SPLINE
  5
1a6
100
AcDbEntity
  8
0
 62
7
100
AcDbSpline
 70
8
 71
3
 72
8
 73
4
 74
0
 40
0
 40
0
 40
0
 40
0
 40
1
 40
1
 40
1
 40
1
 10
21.916432
 20
18.279265
 30
0.0
 10
20.524743
 20
18.290667
 30
0.0
 10
19.291416
 20
18.940568
 30
0.0
 10
18.044696
 20
19.611001
 30
0.0
  0
SPLINE
  5
1a7
100
AcDbEntity
  8
0
 62
7
100
AcDbSpline
 70
8
 71
3
 72
8
 73
4
 74
0
 40
0
 40
0
 40
0
 40
0
 40
1
 40
1
 40
1
 40
1
 10
18.044696
 20
19.611001
 30
0.0
 10
16.792647
 20
20.284299
 30
0.0
 10
15.527125
 20
20.978182
 30
0.0
 10
14.084766
 20
21.004474
 30
0.0
  0
LWPOLYLINE
  5
1a8
100
AcDbEntity
  8
0
 62
7
100
AcDbPolyline
 90
3
 70
0
 10
25.735252
 20
13.199195
 30
0.0
 10
25.726432
 20
13.216975
 30
0.0
 10
25.708793
 20
13.225724
 30
0.0
  0
SPLINE
  5
1a9
100
AcDbEntity
  8
0
 62
7
100
AcDbSpline
 70
8
 71
3
 72
8
 73
4
 74
0
 40
0
 40
0
 40
0
 40
0
 40
1
 40
1
 40
1
 40
1
 10
13.996571
 20
20.978029
 30
0.0
 10
12.888916
 20
20.162681
 30
0.0
 10
11.729955
 20
19.921344
 30
0.0
 10
10.609905
 20
20.087265
 30
0.0
  0
SPLINE
  5
1aa
100
AcDbEntity
  8
0
 62
7
100
AcDbSpline
 70
8
 71
3
 72
8
 73
4
 74
0
 40
0
 40
0
 40
0
 40
0
 40
1
 40
1
 40
1
 40
1
 10
10.609905
 20
20.087265
 30
0.0
 10
9.489742
 20
20.253003
 30
0.0
 10
8.415968
 20
20.829880
 30
0.0
 10
7.514167
 20
21.656943
 30
0.0
  0
SPLINE
  5
1ab
100
AcDbEntity
  8
0
 62
7
100
AcDbSpline
 70
8
 71
3
 72
8
 73
4
 74
0
 40
0
 40
0
 40
0
 40
0
 40
1
 40
1
 40
1
 40
1
 10
7.514167
 20
21.656943
 30
0.0
 10
5.710564
 20
23.311067
 30
0.0
 10
4.616953
 20
25.964292
 30
0.0
 10
5.221111
 20
28.262707
 30
0.0
  0
LWPOLYLINE
  5
1ac
100
AcDbEntity
  8
0
 62
7
100
AcDbPolyline
 90
3
 70
0
 10
14.084766
 20
21.004474
 30
0.0
 10
14.040668
 20
21.004474
 30
0.0
 10
13.996571
 20
20.978029
 30
0.0
  0
SPLINE
  5
1ad
100
AcDbEntity
  8
0
 62
7
100
AcDbSpline
 70
8
 71
3
 72
8
 73
4
 74
0
 40
0
 40
0
 40
0
 40
0
 40
1
 40
1
 40
1
 40
1
 10
5.221111
 20
28.271512
 30
0.0
 10
5.469952
 20
29.714579
 30
0.0
 10
6.368759
 20
31.094000
 30
0.0
 10
7.020278
 20
32.513665
 30
0.0
  0
SPLINE
  5
1ae
100
AcDbEntity
  8
0
 62
7
100
AcDbSpline
 70
8
 71
3
 72
8
 73
4
 74
0
 40
0
 40
0
 40
0
 40
0
 40
1
 40
1
 40
1
 40
1
 10
7.020278
 20
32.513665
 30
0.0
 10
7.667079
 20
33.923052
 30
0.0
 10
8.058724
 20
35.398044
 30
0.0
 10
7.276042
 20
37.002762
 30
0.0
  0
SPLINE
  5
1af
100
AcDbEntity
  8
0
 62
7
100
AcDbSpline
 70
8
 71
3
 72
8
 73
4
 74
0
 40
0
 40
0
 40
0
 40
0
 40
1
 40
1
 40
1
 40
1
 10
7.276042
 20
37.002762
 30
0.0
 10
7.275505
 20
37.005754
 30
0.0
 10
7.276578
 20
37.008604
 30
0.0
 10
7.276042
 20
37.011568
 30
0.0
  0
SPLINE
  5
1b0
100
AcDbEntity
  8
0
 62
7
100
AcDbSpline
 70
8
 71
3
 72
8
 73
4
 74
0
 40
0
 40
0
 40
0
 40
0
 40
1
 40
1
 40
1
 40
1
 10
7.276042
 20
37.011568
 30
0.0
 10
6.656623
 20
40.484944
 30
0.0
 10
7.551145
 20
43.719075
 30
0.0
 10
9.278056
 20
46.554207
 30
0.0
  0
SPLINE
  5
1b1
100
AcDbEntity
  8
0
 62
7
100
AcDbSpline
 70
8
 71
3
 72
8
 73
4
 74
0
 40
0
 40
0
 40
0
 40
0
 40
1
 40
1
 40
1
 40
1
 10
9.278056
 20
46.554207
 30
0.0
 10
11.006447
 20
49.391768
 30
0.0
 10
13.565728
 20
51.820078
 30
0.0
 10
16.280694
 20
53.671498
 30
0.0
  0
LWPOLYLINE
  5
1b2
100
AcDbEntity
  8
0
 62
7
100
AcDbPolyline
 90
2
 70
0
 10
5.221111
 20
28.262707
 30
0.0
 10
5.221111
 20
28.271512
 30
0.0
  0
SPLINE
  5
1b3
100
AcDbEntity
  8
0
 62
7
100
AcDbSpline
 70
8
 71
3
 72
8
 73
4
 74
0
 40
0
 40
0
 40
0
 40
0
 40
1
 40
1
 40
1
 40
1
 10
16.289514
 20
53.680304
 30
0.0
 10
18.392264
 20
55.256041
 30
0.0
 10
20.783180
 20
56.355319
 30
0.0
 10
23.292153
 20
57.155165
 30
0.0
  0
LWPOLYLINE
  5
1b4
100
AcDbEntity
  8
0
 62
7
100
AcDbPolyline
 90
2
 70
0
 10
16.280694
 20
53.671498
 30
0.0
 10
16.289514
 20
53.680304
 30
0.0
  0
SPLINE
  5
1b5
100
AcDbEntity
  8
0
 62
7
100
AcDbSpline
 70
8
 71
3
 72
8
 73
4
 74
0
 40
0
 40
0
 40
0
 40
0
 40
1
 40
1
 40
1
 40
1
 10
23.300972
 20
57.163970
 30
0.0
 10
25.813864
 20
57.964090
 30
0.0
 10
28.444994
 20
58.461221
 30
0.0
 10
31.017986
 20
58.822026
 30
0.0
  0
LWPOLYLINE
  5
1b6
100
AcDbEntity
  8
0
 62
7
100
AcDbPolyline
 90
2
 70
0
 10
23.292153
 20
57.155165
 30
0.0
 10
23.300972
 20
57.163970
 30
0.0
  0
SPLINE
  5
1b7
100
AcDbEntity
  8
0
 62
7
100
AcDbSpline
 70
8
 71
3
 72
8
 73
4
 74
0
 40
0
 40
0
 40
0
 40
0
 40
1
 40
1
 40
1
 40
1
 10
31.053264
 20
58.830831
 30
0.0
 10
31.321561
 20
58.945089
 30
0.0
 10
31.781860
 20
58.882548
 30
0.0
 10
32.296806
 20
58.733817
 30
0.0
  0
SPLINE
  5
1b8
100
AcDbEntity
  8
0
 62
7
100
AcDbSpline
 70
8
 71
3
 72
8
 73
4
 74
0
 40
0
 40
0
 40
0
 40
0
 40
1
 40
1
 40
1
 40
1
 10
32.296806
 20
58.733817
 30
0.0
 10
32.811751
 20
58.585086
 30
0.0
 10
33.383855
 20
58.362554
 30
0.0
 10
33.884306
 20
58.187011
 30
0.0
  0
SPLINE
  5
1b9
100
AcDbEntity
  8
0
 62
7
100
AcDbSpline
 70
8
 71
3
 72
8
 73
4
 74
0
 40
0
 40
0
 40
0
 40
0
 40
1
 40
1
 40
1
 40
1
 10
33.884306
 20
58.187011
 30
0.0
 10
34.134532
 20
58.099240
 30
0.0
 10
34.363465
 20
58.019301
 30
0.0
 10
34.572222
 20
57.975345
 30
0.0
  0
SPLINE
  5
1ba
100
AcDbEntity
  8
0
 62
7
100
AcDbSpline
 70
8
 71
3
 72
8
 73
4
 74
0
 40
0
 40
0
 40
0
 40
0
 40
1
 40
1
 40
1
 40
1
 10
34.572222
 20
57.975345
 30
0.0
 10
34.780979
 20
57.931389
 30
0.0
 10
34.965366
 20
57.915943
 30
0.0
 10
35.127847
 20
57.966539
 30
0.0
  0
SPLINE
  5
1bb
100
AcDbEntity
  8
0
 62
7
100
AcDbSpline
 70
8
 71
3
 72
8
 73
4
 74
0
 40
0
 40
0
 40
0
 40
0
 40
1
 40
1
 40
1
 40
1
 10
35.127847
 20
57.966539
 30
0.0
 10
35.290328
 20
58.017122
 30
0.0
 10
35.418928
 20
58.172367
 30
0.0
 10
35.436528
 20
58.363414
 30
0.0
  0
SPLINE
  5
1bc
100
AcDbEntity
  8
0
 62
7
100
AcDbSpline
 70
8
 71
3
 72
8
 73
4
 74
0
 40
0
 40
0
 40
0
 40
0
 40
1
 40
1
 40
1
 40
1
 10
35.436528
 20
58.363414
 30
0.0
 10
35.453913
 20
58.552249
 30
0.0
 10
35.390599
 20
58.775964
 30
0.0
 10
35.268958
 20
59.077789
 30
0.0
  0
LWPOLYLINE
  5
1bd
100
AcDbEntity
  8
0
 62
7
100
AcDbPolyline
 90
3
 70
0
 10
31.017986
 20
58.822026
 30
0.0
 10
31.035625
 20
58.822026
 30
0.0
 10
31.053264
 20
58.830831
 30
0.0
  0
SPLINE
  5
1be
100
AcDbEntity
  8
0
 62
7
100
AcDbSpline
 70
8
 71
3
 72
8
 73
4
 74
0
 40
0
 40
0
 40
0
 40
0
 40
1
 40
1
 40
1
 40
1
 10
35.277764
 20
59.077789
 30
0.0
 10
34.428549
 20
61.822465
 30
0.0
 10
33.670477
 20
64.735651
 30
0.0
 10
33.513875
 20
67.615012
 30
0.0
  0
SPLINE
  5
1bf
100
AcDbEntity
  8
0
 62
7
100
AcDbSpline
 70
8
 71
3
 72
8
 73
4
 74
0
 40
0
 40
0
 40
0
 40
0
 40
1
 40
1
 40
1
 40
1
 10
33.513875
 20
67.615012
 30
0.0
 10
33.357272
 20
70.494370
 30
0.0
 10
33.803421
 20
73.337307
 30
0.0
 10
35.339500
 20
75.949387
 30
0.0
  0
LWPOLYLINE
  5
1c0
100
AcDbEntity
  8
0
 62
7
100
AcDbPolyline
 90
2
 70
0
 10
35.268958
 20
59.077789
 30
0.0
 10
35.277764
 20
59.077789
 30
0.0
  0
SPLINE
  5
1c1
100
AcDbEntity
  8
0
 62
7
100
AcDbSpline
 70
8
 71
3
 72
8
 73
4
 74
0
 40
0
 40
0
 40
0
 40
0
 40
1
 40
1
 40
1
 40
1
 10
35.348305
 20
75.966997
 30
0.0
 10
36.161068
 20
78.026980
 30
0.0
 10
37.362474
 20
79.875332
 30
0.0
 10
38.831986
 20
81.487970
 30
0.0
  0
SPLINE
  5
1c2
100
AcDbEntity
  8
0
 62
7
100
AcDbSpline
 70
8
 71
3
 72
8
 73
4
 74
0
 40
0
 40
0
 40
0
 40
0
 40
1
 40
1
 40
1
 40
1
 10
38.831986
 20
81.487970
 30
0.0
 10
40.301494
 20
83.100607
 30
0.0
 10
42.034883
 20
84.477860
 30
0.0
 10
43.911986
 20
85.615470
 30
0.0
  0
LWPOLYLINE
  5
1c3
100
AcDbEntity
  8
0
 62
7
100
AcDbPolyline
 90
3
 70
0
 10
35.339500
 20
75.949387
 30
0.0
 10
35.339500
 20
75.958192
 30
0.0
 10
35.348305
 20
75.966997
 30
0.0
  0
SPLINE
  5
1c4
100
AcDbEntity
  8
0
 62
7
100
AcDbSpline
 70
8
 71
3
 72
8
 73
4
 74
0
 40
0
 40
0
 40
0
 40
0
 40
1
 40
1
 40
1
 40
1
 10
43.964931
 20
85.809582
 30
0.0
 10
41.895872
 20
89.391879
 30
0.0
 10
40.746259
 20
93.662353
 30
0.0
 10
40.842847
 20
97.830485
 30
0.0
  0
SPLINE
  5
1c5
100
AcDbEntity
  8
0
 62
7
100
AcDbSpline
 70
8
 71
3
 72
8
 73
4
 74
0
 40
0
 40
0
 40
0
 40
0
 40
1
 40
1
 40
1
 40
1
 10
40.842847
 20
97.830485
 30
0.0
 10
40.939432
 20
101.998616
 30
0.0
 10
42.272873
 20
106.058377
 30
0.0
 10
45.164375
 20
109.251665
 30
0.0
  0
LWPOLYLINE
  5
1c6
100
AcDbEntity
  8
0
 62
7
100
AcDbPolyline
 90
3
 70
0
 10
43.911986
 20
85.615470
 30
0.0
 10
44.026667
 20
85.686110
 30
0.0
 10
43.964931
 20
85.809582
 30
0.0
  0
SPLINE
  5
1c7
100
AcDbEntity
  8
0
 62
7
100
AcDbSpline
 70
8
 71
3
 72
8
 73
4
 74
0
 40
0
 40
0
 40
0
 40
0
 40
1
 40
1
 40
1
 40
1
 10
45.190819
 20
109.278110
 30
0.0
 10
45.877003
 20
110.500894
 30
0.0
 10
47.204633
 20
111.274476
 30
0.0
 10
48.339361
 20
112.162068
 30
0.0
  0
SPLINE
  5
1c8
100
AcDbEntity
  8
0
 62
7
100
AcDbSpline
 70
8
 71
3
 72
8
 73
4
 74
0
 40
0
 40
0
 40
0
 40
0
 40
1
 40
1
 40
1
 40
1
 10
48.339361
 20
112.162068
 30
0.0
 10
48.906726
 20
112.605865
 30
0.0
 10
49.422391
 20
113.083690
 30
0.0
 10
49.776930
 20
113.670193
 30
0.0
  0
SPLINE
  5
1c9
100
AcDbEntity
  8
0
 62
7
100
AcDbSpline
 70
8
 71
3
 72
8
 73
4
 74
0
 40
0
 40
0
 40
0
 40
0
 40
1
 40
1
 40
1
 40
1
 10
49.776930
 20
113.670193
 30
0.0
 10
50.131469
 20
114.256696
 30
0.0
 10
50.318422
 20
114.951462
 30
0.0
 10
50.217903
 20
115.813318
 30
0.0
  0
SPLINE
  5
1ca
100
AcDbEntity
  8
0
 62
7
100
AcDbSpline
 70
8
 71
3
 72
8
 73
4
 74
0
 40
0
 40
0
 40
0
 40
0
 40
1
 40
1
 40
1
 40
1
 10
50.217903
 20
115.813318
 30
0.0
 10
50.786098
 20
119.071161
 30
0.0
 10
51.943471
 20
122.482816
 30
0.0
 10
53.789778
 20
125.347137
 30
0.0
  0
SPLINE
  5
1cb
100
AcDbEntity
  8
0
 62
7
100
AcDbSpline
 70
8
 71
3
 72
8
 73
4
 74
0
 40
0
 40
0
 40
0
 40
0
 40
1
 40
1
 40
1
 40
1
 10
53.789778
 20
125.347137
 30
0.0
 10
55.640667
 20
128.218573
 30
0.0
 10
58.186151
 20
130.531791
 30
0.0
 10
61.542069
 20
131.600123
 30
0.0
  0
SPLINE
  5
1cc
100
AcDbEntity
  8
0
 62
7
100
AcDbSpline
 70
8
 71
3
 72
8
 73
4
 74
0
 40
0
 40
0
 40
0
 40
0
 40
1
 40
1
 40
1
 40
1
 10
61.542069
 20
131.600123
 30
0.0
 10
63.219147
 20
132.016003
 30
0.0
 10
65.031228
 20
132.482878
 30
0.0
 10
66.816097
 20
132.614360
 30
0.0
  0
SPLINE
  5
1cd
100
AcDbEntity
  8
0
 62
7
100
AcDbSpline
 70
8
 71
3
 72
8
 73
4
 74
0
 40
0
 40
0
 40
0
 40
0
 40
1
 40
1
 40
1
 40
1
 10
66.816097
 20
132.614360
 30
0.0
 10
68.600969
 20
132.745844
 30
0.0
 10
70.355293
 20
132.546841
 30
0.0
 10
71.922555
 20
131.635401
 30
0.0
  0
LWPOLYLINE
  5
1ce
100
AcDbEntity
  8
0
 62
7
100
AcDbPolyline
 90
3
 70
0
 10
45.164375
 20
109.251665
 30
0.0
 10
45.182014
 20
109.269304
 30
0.0
 10
45.190819
 20
109.278110
 30
0.0
  0
SPLINE
  5
1cf
100
AcDbEntity
  8
0
 62
7
100
AcDbSpline
 70
8
 71
3
 72
8
 73
4
 74
0
 40
0
 40
0
 40
0
 40
0
 40
1
 40
1
 40
1
 40
1
 10
72.098944
 20
131.670679
 30
0.0
 10
73.673013
 20
133.635028
 30
0.0
 10
75.513986
 20
135.458468
 30
0.0
 10
77.558180
 20
136.971165
 30
0.0
  0
SPLINE
  5
1d0
100
AcDbEntity
  8
0
 62
7
100
AcDbSpline
 70
8
 71
3
 72
8
 73
4
 74
0
 40
0
 40
0
 40
0
 40
0
 40
1
 40
1
 40
1
 40
1
 10
77.558180
 20
136.971165
 30
0.0
 10
79.602372
 20
138.483865
 30
0.0
 10
81.846104
 20
139.684094
 30
0.0
 10
84.252139
 20
140.393110
 30
0.0
  0
SPLINE
  5
1d1
100
AcDbEntity
  8
0
 62
7
100
AcDbSpline
 70
8
 71
3
 72
8
 73
4
 74
0
 40
0
 40
0
 40
0
 40
0
 40
1
 40
1
 40
1
 40
1
 10
84.252139
 20
140.393110
 30
0.0
 10
84.787844
 20
140.467780
 30
0.0
 10
85.322687
 20
140.499603
 30
0.0
 10
85.857278
 20
140.490123
 30
0.0
  0
LWPOLYLINE
  5
1d2
100
AcDbEntity
  8
0
 62
7
100
AcDbPolyline
 90
3
 70
0
 10
71.922555
 20
131.635401
 30
0.0
 10
72.019569
 20
131.573665
 30
0.0
 10
72.098944
 20
131.670679
 30
0.0
  0
SPLINE
  5
1d3
100
AcDbEntity
  8
0
 62
7
100
AcDbSpline
 70
8
 71
3
 72
8
 73
4
 74
0
 40
0
 40
0
 40
0
 40
0
 40
1
 40
1
 40
1
 40
1
 10
131.277431
 20
108.281526
 30
0.0
 10
131.181579
 20
108.284744
 30
0.0
 10
131.103647
 20
108.278535
 30
0.0
 10
131.039306
 20
108.263888
 30
0.0
  0
SPLINE
  5
1d4
100
AcDbEntity
  8
0
 62
7
100
AcDbSpline
 70
8
 71
3
 72
8
 73
4
 74
0
 40
0
 40
0
 40
0
 40
0
 40
1
 40
1
 40
1
 40
1
 10
131.039306
 20
108.263888
 30
0.0
 10
131.007135
 20
108.256550
 30
0.0
 10
130.983485
 20
108.248450
 30
0.0
 10
130.951111
 20
108.228610
 30
0.0
  0
SPLINE
  5
1d5
100
AcDbEntity
  8
0
 62
7
100
AcDbSpline
 70
8
 71
3
 72
8
 73
4
 74
0
 40
0
 40
0
 40
0
 40
0
 40
1
 40
1
 40
1
 40
1
 10
130.951111
 20
108.228610
 30
0.0
 10
130.918737
 20
108.208770
 30
0.0
 10
130.870627
 20
108.164218
 30
0.0
 10
130.862917
 20
108.096318
 30
0.0
  0
SPLINE
  5
1d6
100
AcDbEntity
  8
0
 62
7
100
AcDbSpline
 70
8
 71
3
 72
8
 73
4
 74
0
 40
0
 40
0
 40
0
 40
0
 40
1
 40
1
 40
1
 40
1
 10
130.862917
 20
108.096318
 30
0.0
 10
130.855212
 20
108.028415
 30
0.0
 10
130.895762
 20
107.972629
 30
0.0
 10
130.924653
 20
107.946388
 30
0.0
  0
SPLINE
  5
1d7
100
AcDbEntity
  8
0
 62
7
100
AcDbSpline
 70
8
 71
3
 72
8
 73
4
 74
0
 40
0
 40
0
 40
0
 40
0
 40
1
 40
1
 40
1
 40
1
 10
130.924653
 20
107.946388
 30
0.0
 10
130.953544
 20
107.920141
 30
0.0
 10
130.973621
 20
107.914965
 30
0.0
 10
131.004028
 20
107.902290
 30
0.0
  0
SPLINE
  5
1d8
100
AcDbEntity
  8
0
 62
7
100
AcDbSpline
 70
8
 71
3
 72
8
 73
4
 74
0
 40
0
 40
0
 40
0
 40
0
 40
1
 40
1
 40
1
 40
1
 10
131.004028
 20
107.902290
 30
0.0
 10
131.064838
 20
107.876947
 30
0.0
 10
131.138473
 20
107.853136
 30
0.0
 10
131.233333
 20
107.840554
 30
0.0
  0
SPLINE
  5
1d9
100
AcDbEntity
  8
0
 62
7
100
AcDbSpline
 70
8
 71
3
 72
8
 73
4
 74
0
 40
0
 40
0
 40
0
 40
0
 40
1
 40
1
 40
1
 40
1
 10
131.233333
 20
107.840554
 30
0.0
 10
131.410950
 20
107.816989
 30
0.0
 10
131.678014
 20
107.825399
 30
0.0
 10
132.009444
 20
107.858193
 30
0.0
  0
SPLINE
  5
1da
100
AcDbEntity
  8
0
 62
7
100
AcDbSpline
 70
8
 71
3
 72
8
 73
4
 74
0
 40
0
 40
0
 40
0
 40
0
 40
1
 40
1
 40
1
 40
1
 10
132.009444
 20
107.858193
 30
0.0
 10
132.032022
 20
107.860451
 30
0.0
 10
132.039024
 20
107.855653
 30
0.0
 10
132.062361
 20
107.858193
 30
0.0
  0
LWPOLYLINE
  5
1db
100
AcDbEntity
  8
0
 62
7
100
AcDbPolyline
 90
2
 70
0
 10
85.857278
 20
140.490123
 30
0.0
 10
85.857306
 20
140.490138
 30
0.0
  0
SPLINE
  5
1dc
100
AcDbEntity
  8
0
 62
7
100
AcDbSpline
 70
8
 71
3
 72
8
 73
4
 74
0
 40
0
 40
0
 40
0
 40
0
 40
1
 40
1
 40
1
 40
1
 10
132.088805
 20
108.131596
 30
0.0
 10
131.738661
 20
108.231539
 30
0.0
 10
131.469119
 20
108.275089
 30
0.0
 10
131.277416
 20
108.281526
 30
0.0
  0
LWPOLYLINE
  5
1dd
100
AcDbEntity
  8
0
 62
7
100
AcDbPolyline
 90
2
 70
0
 10
132.062361
 20
107.858193
 30
0.0
 10
132.088805
 20
108.131596
 30
0.0
  0
LWPOLYLINE
  5
1de
100
AcDbEntity
  8
0
 62
7
100
AcDbPolyline
 90
2
 70
0
 10
131.277416
 20
108.281526
 30
0.0
 10
131.277431
 20
108.281526
 30
0.0
  0
LWPOLYLINE
  5
1df
100
AcDbEntity
  8
0
 62
7
100
AcDbPolyline
 90
407
 70
0
 10
46.493295
 20
73.923051
 30
0.0
 10
46.063687
 20
73.912863
 30
0.0
 10
45.633358
 20
73.868455
 30
0.0
 10
45.631100
 20
73.868455
 30
0.0
 10
45.628842
 20
73.868455
 30
0.0
 10
45.624298
 20
73.868455
 30
0.0
 10
45.619726
 20
73.868455
 30
0.0
 10
43.797468
 20
73.130980
 30
0.0
 10
42.120831
 20
72.080337
 30
0.0
 10
40.629789
 20
70.807464
 30
0.0
 10
39.318077
 20
69.364027
 30
0.0
 10
38.021525
 20
69.810949
 30
0.0
 10
36.656371
 20
69.859974
 30
0.0
 10
35.254384
 20
69.652792
 30
0.0
 10
33.908218
 20
69.336731
 30
0.0
 10
33.908218
 20
69.334473
 30
0.0
 10
33.908218
 20
69.332215
 30
0.0
 10
33.905960
 20
69.332215
 30
0.0
 10
33.903703
 20
69.332215
 30
0.0
 10
31.562164
 20
68.040623
 30
0.0
 10
29.822419
 20
66.042619
 30
0.0
 10
28.636626
 20
63.621195
 30
0.0
 10
27.956951
 20
61.051353
 30
0.0
 10
27.956951
 20
61.046781
 30
0.0
 10
27.956951
 20
61.042237
 30
0.0
 10
27.956951
 20
61.035407
 30
0.0
 10
27.956951
 20
61.028605
 30
0.0
 10
27.935855
 20
60.469740
 30
0.0
 10
27.752203
 20
60.013974
 30
0.0
 10
27.441784
 20
59.625196
 30
0.0
 10
27.042415
 20
59.276886
 30
0.0
 10
26.146241
 20
58.602920
 30
0.0
 10
25.390792
 20
57.761759
 30
0.0
 10
25.386240
 20
57.754957
 30
0.0
 10
25.381688
 20
57.748128
 30
0.0
 10
23.703535
 20
54.946098
 30
0.0
 10
23.120375
 20
51.769529
 30
0.0
 10
23.504754
 20
48.550215
 30
0.0
 10
24.721948
 20
45.554333
 30
0.0
 10
23.344301
 20
44.584425
 30
0.0
 10
22.119391
 20
43.434068
 30
0.0
 10
21.081892
 20
42.082472
 30
0.0
 10
20.299421
 20
40.553965
 30
0.0
 10
20.297135
 20
40.549421
 30
0.0
 10
20.294877
 20
40.544849
 30
0.0
 10
19.484466
 20
38.408785
 30
0.0
 10
19.339393
 20
36.176921
 30
0.0
 10
19.662551
 20
33.924706
 30
0.0
 10
20.253928
 20
31.736194
 30
0.0
 10
20.256186
 20
31.733936
 30
0.0
 10
20.258444
 20
31.731678
 30
0.0
 10
20.258444
 20
31.729420
 30
0.0
 10
20.258444
 20
31.727163
 30
0.0
 10
20.319285
 20
31.540467
 30
0.0
 10
20.331242
 20
31.422320
 30
0.0
 10
20.316976
 20
31.367166
 30
0.0
 10
20.276643
 20
31.344983
 30
0.0
 10
20.190930
 20
31.337250
 30
0.0
 10
20.062796
 20
31.354099
 30
0.0
 10
19.903415
 20
31.395128
 30
0.0
 10
19.721552
 20
31.454194
 30
0.0
 10
19.318633
 20
31.600840
 30
0.0
 10
18.898016
 20
31.740839
 30
0.0
 10
18.512644
 20
31.821577
 30
0.0
 10
18.179128
 20
31.786342
 30
0.0
 10
18.170029
 20
31.784084
 30
0.0
 10
18.160930
 20
31.781826
 30
0.0
 10
16.158913
 20
31.439612
 30
0.0
 10
14.175196
 20
30.926442
 30
0.0
 10
12.266914
 20
30.170160
 30
0.0
 10
10.512506
 20
29.106472
 30
0.0
 10
10.512506
 20
29.108730
 30
0.0
 10
10.512506
 20
29.110988
 30
0.0
 10
8.492681
 20
27.445981
 30
0.0
 10
6.854367
 20
25.389149
 30
0.0
 10
5.868407
 20
23.005028
 30
0.0
 10
5.807884
 20
20.361484
 30
0.0
 10
5.807884
 20
20.356940
 30
0.0
 10
5.807884
 20
20.352368
 30
0.0
 10
5.810170
 20
20.347796
 30
0.0
 10
5.812456
 20
20.343252
 30
0.0
 10
6.019216
 20
19.212176
 30
0.0
 10
5.685058
 20
18.131985
 30
0.0
 10
5.144211
 20
17.049335
 30
0.0
 10
4.747774
 20
15.916162
 30
0.0
 10
4.747774
 20
15.914187
 30
0.0
 10
4.747774
 20
15.911647
 30
0.0
 10
4.875356
 20
13.999323
 30
0.0
 10
5.971704
 20
12.362688
 30
0.0
 10
6.760236
 20
11.809758
 30
0.0
 10
7.646076
 20
11.520932
 30
0.0
 10
8.564802
 20
11.561713
 30
0.0
 10
9.475146
 20
11.989562
 30
0.0
 10
10.474732
 20
11.762373
 30
0.0
 10
11.436163
 20
11.288917
 30
0.0
 10
12.428592
 20
10.807136
 30
0.0
 10
13.510929
 20
10.583644
 30
0.0
 10
13.513215
 20
10.583644
 30
0.0
 10
13.515501
 20
10.583644
 30
0.0
 10
13.517787
 20
10.583644
 30
0.0
 10
13.520073
 20
10.583644
 30
0.0
 10
13.985338
 20
10.563888
 30
0.0
 10
14.293560
 20
10.388092
 30
0.0
 10
14.499886
 20
10.089275
 30
0.0
 10
14.643905
 20
9.696506
 30
0.0
 10
14.888269
 20
8.803442
 30
0.0
 10
15.353693
 20
8.031254
 30
0.0
 10
15.351407
 20
8.028432
 30
0.0
 10
15.349121
 20
8.025610
 30
0.0
 10
17.144123
 20
6.699165
 30
0.0
 10
19.375804
 20
6.660586
 30
0.0
 10
21.326597
 20
7.709323
 30
0.0
 10
22.360555
 20
9.668115
 30
0.0
 10
23.443693
 20
9.646102
 30
0.0
 10
24.571818
 20
9.722753
 30
0.0
 10
25.724294
 20
9.831522
 30
0.0
 10
26.855881
 20
9.900214
 30
0.0
 10
27.192069
 20
9.113379
 30
0.0
 10
27.747666
 20
8.457890
 30
0.0
 10
28.511175
 20
7.985280
 30
0.0
 10
29.403836
 20
7.802711
 30
0.0
 10
29.403836
 20
7.805533
 30
0.0
 10
29.403836
 20
7.808355
 30
0.0
 10
31.128329
 20
8.070257
 30
0.0
 10
32.352189
 20
9.196098
 30
0.0
 10
32.980681
 20
10.780917
 30
0.0
 10
32.961885
 20
12.481137
 30
0.0
 10
33.790306
 20
12.948976
 30
0.0
 10
34.545259
 20
13.527617
 30
0.0
 10
35.238727
 20
14.205910
 30
0.0
 10
35.860188
 20
14.942653
 30
0.0
 10
35.864732
 20
14.949511
 30
0.0
 10
35.869276
 20
14.956398
 30
0.0
 10
36.613561
 20
15.870642
 30
0.0
 10
37.202404
 20
16.903787
 30
0.0
 10
37.880674
 20
17.770788
 30
0.0
 10
38.890423
 20
18.195959
 30
0.0
 10
38.897224
 20
18.198217
 30
0.0
 10
38.904026
 20
18.200474
 30
0.0
 10
38.908598
 20
18.200474
 30
0.0
 10
38.913170
 20
18.200474
 30
0.0
 10
40.178804
 20
19.152898
 30
0.0
 10
40.924237
 20
20.539134
 30
0.0
 10
41.177808
 20
22.126631
 30
0.0
 10
40.969734
 20
23.696783
 30
0.0
 10
40.967477
 20
23.696783
 30
0.0
 10
40.965219
 20
23.696783
 30
0.0
 10
40.901202
 20
24.174628
 30
0.0
 10
40.696772
 20
24.547618
 30
0.0
 10
40.385029
 20
24.839549
 30
0.0
 10
40.018832
 20
25.075411
 30
0.0
 10
39.293219
 20
25.509158
 30
0.0
 10
38.826750
 20
26.071844
 30
0.0
 10
38.824493
 20
26.071844
 30
0.0
 10
38.822235
 20
26.071844
 30
0.0
 10
38.360562
 20
28.186769
 30
0.0
 10
37.862197
 20
30.298723
 30
0.0
 10
37.467650
 20
32.425854
 30
0.0
 10
37.325308
 20
34.575654
 30
0.0
 10
37.325308
 20
34.577912
 30
0.0
 10
37.325308
 20
34.580170
 30
0.0
 10
37.598855
 20
37.763715
 30
0.0
 10
38.571986
 20
40.786267
 30
0.0
 10
40.060220
 20
43.623611
 30
0.0
 10
41.879782
 20
46.255277
 30
0.0
 10
41.882040
 20
46.257535
 30
0.0
 10
41.884298
 20
46.259792
 30
0.0
 10
41.884298
 20
46.262050
 30
0.0
 10
41.884298
 20
46.264308
 30
0.0
 10
44.351044
 20
48.631896
 30
0.0
 10
47.658150
 20
49.663102
 30
0.0
 10
51.045499
 20
49.231525
 30
0.0
 10
53.777800
 20
47.219791
 30
0.0
 10
54.839286
 20
44.601627
 30
0.0
 10
55.597772
 20
41.864531
 30
0.0
 10
55.969707
 20
39.058633
 30
0.0
 10
55.870766
 20
36.236272
 30
0.0
 10
55.870766
 20
36.234014
 30
0.0
 10
55.870766
 20
36.231757
 30
0.0
 10
55.870766
 20
36.229499
 30
0.0
 10
55.870766
 20
36.227241
 30
0.0
 10
55.390260
 20
32.525826
 30
0.0
 10
54.382941
 20
28.951911
 30
0.0
 10
52.988659
 20
25.511517
 30
0.0
 10
51.334492
 20
22.181622
 30
0.0
 10
49.612262
 20
21.313628
 30
0.0
 10
48.272392
 20
19.874811
 30
0.0
 10
47.511366
 20
18.056767
 30
0.0
 10
47.553502
 20
16.075620
 30
0.0
 10
47.802450
 20
15.046266
 30
0.0
 10
48.540839
 20
14.419467
 30
0.0
 10
49.500403
 20
14.079728
 30
0.0
 10
50.465457
 20
13.878052
 30
0.0
 10
50.672963
 20
13.068893
 30
0.0
 10
51.111545
 20
12.376545
 30
0.0
 10
51.635310
 20
11.743182
 30
0.0
 10
52.076127
 20
11.134429
 30
0.0
 10
51.673131
 20
9.358799
 30
0.0
 10
51.916883
 20
7.539962
 30
0.0
 10
52.788018
 20
5.913430
 30
0.0
 10
54.250994
 20
4.778135
 30
0.0
 10
55.924941
 20
4.508359
 30
0.0
 10
57.445041
 20
5.060273
 30
0.0
 10
58.637712
 20
6.169914
 30
0.0
 10
59.410608
 20
7.617347
 30
0.0
 10
60.377445
 20
7.440478
 30
0.0
 10
61.348877
 20
7.271540
 30
0.0
 10
62.331820
 20
7.119620
 30
0.0
 10
63.318991
 20
6.994003
 30
0.0
 10
63.849117
 20
5.763119
 30
0.0
 10
64.461026
 20
4.514286
 30
0.0
 10
65.337552
 20
3.470515
 30
0.0
 10
66.644991
 20
2.917275
 30
0.0
 10
68.001950
 20
3.054181
 30
0.0
 10
69.120148
 20
3.777178
 30
0.0
 10
69.954400
 20
4.833987
 30
0.0
 10
70.516973
 20
6.024852
 30
0.0
 10
71.390270
 20
6.082228
 30
0.0
 10
72.268698
 20
6.134044
 30
0.0
 10
73.131299
 20
6.196302
 30
0.0
 10
73.979467
 20
6.284214
 30
0.0
 10
74.328316
 20
5.220744
 30
0.0
 10
74.862151
 20
4.241292
 30
0.0
 10
75.630456
 20
3.407382
 30
0.0
 10
76.641173
 20
2.835374
 30
0.0
 10
76.645716
 20
2.832552
 30
0.0
 10
76.650260
 20
2.829729
 30
0.0
 10
76.657090
 20
2.829729
 30
0.0
 10
76.663920
 20
2.829729
 30
0.0
 10
77.805272
 20
2.869353
 30
0.0
 10
78.756885
 20
3.316563
 30
0.0
 10
79.542524
 20
4.054658
 30
0.0
 10
80.194661
 20
4.959096
 30
0.0
 10
80.201491
 20
4.968127
 30
0.0
 10
80.208292
 20
4.977158
 30
0.0
 10
80.208292
 20
4.988447
 30
0.0
 10
80.208292
 20
5.000018
 30
0.0
 10
80.371261
 20
5.820862
 30
0.0
 10
80.849834
 20
6.246707
 30
0.0
 10
81.524275
 20
6.444516
 30
0.0
 10
82.314909
 20
6.565223
 30
0.0
 10
82.451516
 20
5.896808
 30
0.0
 10
82.569705
 20
5.104638
 30
0.0
 10
82.800235
 20
4.276372
 30
0.0
 10
83.288595
 20
3.585041
 30
0.0
 10
83.290853
 20
3.582218
 30
0.0
 10
83.293111
 20
3.579396
 30
0.0
 10
83.295369
 20
3.579396
 30
0.0
 10
83.297626
 20
3.579396
 30
0.0
 10
85.371898
 20
3.065074
 30
0.0
 10
87.306108
 20
3.875137
 30
0.0
 10
88.553468
 20
5.546513
 30
0.0
 10
88.621037
 20
7.651552
 30
0.0
 10
89.633323
 20
8.706668
 30
0.0
 10
90.559306
 20
9.849189
 30
0.0
 10
91.375950
 20
11.100110
 30
0.0
 10
92.033482
 20
12.447214
 30
0.0
 10
92.033482
 20
12.450036
 30
0.0
 10
92.033482
 20
12.452858
 30
0.0
 10
92.453779
 20
14.581688
 30
0.0
 10
92.442970
 20
16.770686
 30
0.0
 10
91.996686
 20
18.890161
 30
0.0
 10
91.109842
 20
20.847417
 30
0.0
 10
91.306258
 20
21.824072
 30
0.0
 10
91.619434
 20
22.799334
 30
0.0
 10
92.022631
 20
23.762868
 30
0.0
 10
92.479368
 20
24.687553
 30
0.0
 10
92.479368
 20
24.689810
 30
0.0
 10
92.479368
 20
24.692068
 30
0.0
 10
92.481626
 20
24.696640
 30
0.0
 10
92.483884
 20
24.701184
 30
0.0
 10
93.042142
 20
25.650201
 30
0.0
 10
93.844310
 20
26.416508
 30
0.0
 10
94.600381
 20
27.225492
 30
0.0
 10
94.999988
 20
28.304727
 30
0.0
 10
94.999988
 20
28.309271
 30
0.0
 10
94.999988
 20
28.313843
 30
0.0
 10
95.068356
 20
30.015434
 30
0.0
 10
94.622346
 20
31.744488
 30
0.0
 10
94.184301
 20
32.477230
 30
0.0
 10
93.589512
 20
33.041215
 30
0.0
 10
92.837595
 20
33.369340
 30
0.0
 10
91.924240
 20
33.409760
 30
0.0
 10
91.912866
 20
33.409972
 30
0.0
 10
91.901493
 20
33.409760
 30
0.0
 10
90.079469
 20
33.103995
 30
0.0
 10
88.730193
 20
31.840035
 30
0.0
 10
88.218710
 20
30.110935
 30
0.0
 10
88.898541
 20
28.400290
 30
0.0
 10
88.426998
 20
27.210345
 30
0.0
 10
87.906660
 20
26.038881
 30
0.0
 10
87.349429
 20
24.895071
 30
0.0
 10
86.760078
 20
23.768471
 30
0.0
 10
86.000982
 20
24.062159
 30
0.0
 10
85.204001
 20
24.268958
 30
0.0
 10
84.359250
 20
24.336832
 30
0.0
 10
83.511430
 20
24.209812
 30
0.0
 10
82.929307
 20
24.522972
 30
0.0
 10
82.437647
 20
25.092496
 30
0.0
 10
81.986662
 20
25.778621
 30
0.0
 10
81.523115
 20
26.416525
 30
0.0
 10
81.523115
 20
26.418783
 30
0.0
 10
81.523115
 20
26.421040
 30
0.0
 10
81.520857
 20
26.421040
 30
0.0
 10
81.518599
 20
26.421040
 30
0.0
 10
81.183472
 20
26.836345
 30
0.0
 10
81.036307
 20
27.271878
 30
0.0
 10
81.026062
 20
27.731156
 30
0.0
 10
81.109095
 20
28.213713
 30
0.0
 10
81.366874
 20
29.222867
 30
0.0
 10
81.418492
 20
30.265728
 30
0.0
 10
81.418492
 20
30.270300
 30
0.0
 10
81.418492
 20
30.274844
 30
0.0
 10
81.163377
 20
31.199401
 30
0.0
 10
80.626805
 20
31.890067
 30
0.0
 10
79.886034
 20
32.343285
 30
0.0
 10
79.020681
 20
32.563458
 30
0.0
 10
77.222020
 20
32.328863
 30
0.0
 10
75.822085
 20
31.212130
 30
0.0
 10
75.817484
 20
31.205300
 30
0.0
 10
75.812969
 20
31.198498
 30
0.0
 10
74.927796
 20
29.746925
 30
0.0
 10
74.771033
 20
28.063599
 30
0.0
 10
75.349811
 20
26.526927
 30
0.0
 10
76.663801
 20
25.497443
 30
0.0
 10
77.243282
 20
24.572872
 30
0.0
 10
77.801281
 20
23.609221
 30
0.0
 10
78.317790
 20
22.638588
 30
0.0
 10
78.793165
 20
21.657302
 30
0.0
 10
78.133177
 20
21.012858
 30
0.0
 10
77.500988
 20
20.342377
 30
0.0
 10
76.914646
 20
19.674225
 30
0.0
 10
76.349857
 20
18.991066
 30
0.0
 10
75.687829
 20
20.142110
 30
0.0
 10
74.720983
 20
21.070364
 30
0.0
 10
73.522984
 20
21.850629
 30
0.0
 10
72.286774
 20
22.494491
 30
0.0
 10
72.284517
 20
22.494491
 30
0.0
 10
72.282259
 20
22.494491
 30
0.0
 10
71.403710
 20
22.707704
 30
0.0
 10
70.444089
 20
22.803886
 30
0.0
 10
69.638520
 20
22.890635
 30
0.0
 10
69.056363
 20
23.049580
 30
0.0
 10
70.282791
 20
24.588216
 30
0.0
 10
71.272177
 20
26.284578
 30
0.0
 10
71.982389
 20
28.166853
 30
0.0
 10
72.327759
 20
30.165664
 30
0.0
 10
72.424976
 20
31.316696
 30
0.0
 10
72.327759
 20
32.463379
 30
0.0
 10
72.384186
 20
33.532301
 30
0.0
 10
72.932900
 20
34.456243
 30
0.0
 10
72.935157
 20
34.458501
 30
0.0
 10
72.937415
 20
34.460759
 30
0.0
 10
74.238900
 20
36.430842
 30
0.0
 10
74.980332
 20
38.642140
 30
0.0
 10
75.183359
 20
40.964598
 30
0.0
 10
74.871134
 20
43.287611
 30
0.0
 10
74.871134
 20
43.294441
 30
0.0
 10
74.871134
 20
43.301243
 30
0.0
 10
74.640347
 20
44.250968
 30
0.0
 10
74.225046
 20
45.139415
 30
0.0
 10
73.843001
 20
45.997805
 30
0.0
 10
73.701800
 20
46.850184
 30
0.0
 10
73.701800
 20
46.852442
 30
0.0
 10
73.701800
 20
46.854700
 30
0.0
 10
74.232781
 20
49.011738
 30
0.0
 10
74.275095
 20
51.222628
 30
0.0
 10
73.801168
 20
53.382675
 30
0.0
 10
72.782718
 20
55.363056
 30
0.0
 10
72.778174
 20
55.369858
 30
0.0
 10
72.773630
 20
55.376688
 30
0.0
 10
72.766801
 20
55.381231
 30
0.0
 10
72.759971
 20
55.385803
 30
0.0
 10
72.126811
 20
56.012901
 30
0.0
 10
71.581541
 20
56.796280
 30
0.0
 10
71.290942
 20
57.157120
 30
0.0
 10
70.958202
 20
57.446918
 30
0.0
 10
70.591226
 20
57.607779
 30
0.0
 10
70.157416
 20
57.638016
 30
0.0
 10
69.805048
 20
59.635847
 30
0.0
 10
69.106384
 20
61.532750
 30
0.0
 10
68.088964
 20
63.318935
 30
0.0
 10
66.813221
 20
64.931544
 30
0.0
 10
66.815479
 20
64.931544
 30
0.0
 10
66.817737
 20
64.931544
 30
0.0
 10
65.873616
 20
65.759228
 30
0.0
 10
64.761166
 20
66.273770
 30
0.0
 10
63.592862
 20
66.574083
 30
0.0
 10
62.431605
 20
66.760615
 30
0.0
 10
61.980967
 20
67.975020
 30
0.0
 10
61.330527
 20
69.081077
 30
0.0
 10
60.481656
 20
70.070915
 30
0.0
 10
59.465058
 20
70.905599
 30
0.0
 10
59.460627
 20
70.907856
 30
0.0
 10
59.455942
 20
70.910114
 30
0.0
 10
57.617490
 20
71.989671
 30
0.0
 10
55.538457
 20
72.338794
 30
0.0
 10
53.457853
 20
72.052087
 30
0.0
 10
51.543625
 20
71.224061
 30
0.0
 10
50.393484
 20
72.430900
 30
0.0
 10
48.977465
 20
73.326125
 30
0.0
 10
48.975208
 20
73.328383
 30
0.0
 10
48.972950
 20
73.330641
 30
0.0
 10
47.764006
 20
73.757223
 30
0.0
 10
46.493241
 20
73.922128
 30
0.0
 10
46.493272
 20
73.922410
 30
0.0
 10
46.493295
 20
73.923051
 30
0.0
  0
ENDSEC
  0
SECTION
  2
OBJECTS
  0
DICTIONARY
  5
C
330
0
100
AcDbDictionary
  3
ACAD_GROUP
350
D
  3
ACAD_MLINESTYLE
350
17
  0
DICTIONARY
  5
D
330
C
100
AcDbDictionary
  0
DICTIONARY
  5
1A
330
C
100
AcDbDictionary
  0
DICTIONARY
  5
17
330
C
100
AcDbDictionary
  3
STANDARD
350
18
  0
DICTIONARY
  5
19
330
C
100
AcDbDictionary
  0
ENDSEC
  0
EOF
