<?xml version="1.0" encoding="UTF-8" standalone="no"?>
<!-- Created with Inkscape (http://www.inkscape.org/) -->

<svg
   xmlns:dc="http://purl.org/dc/elements/1.1/"
   xmlns:cc="http://creativecommons.org/ns#"
   xmlns:rdf="http://www.w3.org/1999/02/22-rdf-syntax-ns#"
   xmlns:svg="http://www.w3.org/2000/svg"
   xmlns="http://www.w3.org/2000/svg"
   xmlns:sodipodi="http://sodipodi.sourceforge.net/DTD/sodipodi-0.dtd"
   xmlns:inkscape="http://www.inkscape.org/namespaces/inkscape"
   width="210mm"
   height="297mm"
   id="svg2"
   version="1.1"
   inkscape:version="0.48.0 r9654"
   sodipodi:docname="caterpillar.svg">
  <defs
     id="defs4" />
  <sodipodi:namedview
     id="base"
     pagecolor="#ffffff"
     bordercolor="#666666"
     borderopacity="1.0"
     inkscape:pageopacity="0.0"
     inkscape:pageshadow="2"
     inkscape:zoom="0.98994949"
     inkscape:cx="150"
     inkscape:cy="229.38364"
     inkscape:document-units="px"
     inkscape:current-layer="layer1"
     showgrid="false"
     inkscape:window-width="1280"
     inkscape:window-height="752"
     inkscape:window-x="0"
     inkscape:window-y="0"
     inkscape:window-maximized="1" />
  <metadata
     id="metadata7">
    <rdf:RDF>
      <cc:Work
         rdf:about="">
        <dc:format>image/svg+xml</dc:format>
        <dc:type
           rdf:resource="http://purl.org/dc/dcmitype/StillImage" />
        <dc:title></dc:title>
      </cc:Work>
    </rdf:RDF>
  </metadata>
  <g
     inkscape:label="Ebene 1"
     inkscape:groupmode="layer"
     id="layer1">
    <path
       style="font-size:medium;font-style:normal;font-variant:normal;font-weight:normal;font-stretch:normal;text-indent:0;text-align:start;text-decoration:none;line-height:normal;letter-spacing:normal;word-spacing:normal;text-transform:none;direction:ltr;block-progression:tb;writing-mode:lr-tb;text-anchor:start;baseline-shift:baseline;color:#000000;fill-opacity:1;fill-rule:nonzero;stroke:#000000;stroke-width:1;marker:none;visibility:visible;display:inline;overflow:visible;enable-background:accumulate;font-family:Sans;-inkscape-font-specification:Sans;fill:none;stroke-opacity:1"
       d="m 304.25,553.5625 c -1.96571,-0.0348 -3.93389,0.0965 -5.90625,0.375 l -0.0312,0 -0.0625,0 c -8.65602,2.55078 -16.70875,6.86261 -24.03125,12.28125 -7.20938,5.33492 -13.68289,11.75936 -19.25,18.65625 -5.68146,-3.179 -11.97157,-3.87106 -18.28125,-3.40625 -6.44724,0.47494 -12.93894,2.12174 -18.875,3.59375 l 0,0.0312 -0.0312,0 c -12.17031,3.86206 -21.37195,12.26263 -28.03125,22.59375 -6.6593,10.33111 -10.78804,22.591 -12.8125,34.28125 l 0,0.0625 0,0.0937 c 0.33307,2.8558 -0.25067,5.0571 -1.40625,6.96875 -1.15558,1.91165 -2.90484,3.52143 -4.875,5.0625 -3.91197,3.05997 -8.72049,5.81521 -11.34375,10.40625 -0.019,0.0333 -0.0437,0.0603 -0.0625,0.0937 -10.37355,11.50146 -15.18526,26.13112 -15.53125,41.0625 -0.34337,14.81801 3.71672,29.91557 11,42.6875 -6.57736,4.03051 -12.69636,8.87946 -17.875,14.5625 -5.26385,5.77654 -9.5716,12.38461 -12.5,19.78125 -0.009,0.0218 -0.0226,0.0407 -0.0312,0.0625 -5.53181,9.4398 -7.12363,19.68286 -6.5625,30 0.56235,10.3397 3.26262,20.74373 6.28125,30.5 l 0.0312,0.0312 0,0.0312 c 0.41198,1.01503 0.53567,1.70648 0.5,2.09375 -0.0357,0.38727 -0.10059,0.44582 -0.375,0.53125 -0.27441,0.0854 -0.80586,0.0771 -1.46875,-0.0625 -0.66289,-0.13958 -1.47498,-0.38276 -2.34375,-0.6875 -1.73755,-0.60947 -3.75663,-1.42009 -5.65625,-1.96875 -1.84818,-0.53381 -3.5642,-0.84073 -4.9375,-0.3125 -0.0419,0.006 -0.0831,0.0254 -0.125,0.0312 -9.10882,1.28142 -18.433765,3.02806 -27.375,5.875 -8.982419,2.86005 -17.582966,6.82481 -25.15625,12.5 l 0,-0.0312 c -9.714491,6.62461 -18.904253,15.34969 -25.125,25.5625 -6.220747,10.21282 -9.441588,21.94267 -7.1875,34.53125 l 0,0.0625 0.03125,0.0625 c 2.689039,5.40026 1.389493,10.25314 -0.875,15.1875 -2.260333,4.92528 -5.499625,9.83065 -6.4375,15.21875 -0.0017,0.01 0.0017,0.0213 0,0.0312 -2.245807,8.60163 1.780424,18.29831 8.40625,24.375 3.316749,3.04187 7.29214,5.15791 11.5,5.78125 4.147526,0.6144 8.491735,-0.28829 12.5625,-3.21875 4.760494,0.11631 9.057658,2.44041 13.46875,4.8125 4.440298,2.3878 8.98635,4.8213 14.25,4.84375 l 0.03125,0 0.03125,0 c 2.579726,-0.32967 4.170911,0.2461 5.3125,1.34375 1.141589,1.09765 1.835244,2.79238 2.40625,4.75 1.127774,3.86642 1.722843,8.6775 4.875,11.4375 l -0.03125,0.031 c 6.140681,9.302 17.51662,11.8673 27.65625,9.375 10.00011,-2.4578 18.89596,-9.8648 20.5,-20.6562 4.80974,0.4206 9.96579,0.1081 15.1875,-0.375 5.28112,-0.4886 10.59767,-1.09718 15.6875,-1.21875 0.98707,3.80441 3.12867,7.30455 6.125,9.90625 3.10749,2.6981 7.0848,4.4577 11.375,4.5 l 0,-0.031 c 8.88984,1.3622 15.94478,-2.9818 20.25,-9.5312 4.25191,-6.46838 5.86331,-15.03712 4.1875,-22.5625 3.95685,-1.85685 7.59095,-4.31582 10.875,-7.1875 3.34748,-2.92714 6.34317,-6.25642 9.03125,-9.71875 0.0227,-0.0293 0.0398,-0.0644 0.0625,-0.0937 4.14352,-3.47197 6.4362,-8.81418 9.15625,-13.375 2.73873,-4.59214 5.81944,-8.32924 11.59375,-8.875 l 0.0937,-0.0312 0.0625,0 c 7.02192,-3.00284 11.55444,-9.08712 13.8125,-16.0625 2.25804,-6.97538 2.28196,-14.87096 0.3125,-21.6875 l -0.0312,0 c 0.0777,-2.44497 -0.63565,-4.35897 -1.84375,-5.84375 -1.237,-1.52029 -2.92058,-2.61819 -4.65625,-3.625 -3.47135,-2.01363 -7.08929,-3.64934 -8.1875,-6.84375 l -0.0312,0 c -1.82232,-9.70473 -4.43541,-19.35371 -6.59375,-29.03125 -2.16548,-9.70953 -3.8316,-19.45786 -3.6875,-29.375 l 0,-0.0312 c -0.62647,-14.9103 2.78239,-29.18901 8.5625,-42.625 5.78011,-13.43599 13.90444,-26.01004 22.71875,-37.5625 l 0.0312,-0.0312 0,-0.0312 c 8.2235,-13.69965 23.73703,-21.88221 39.65625,-23.34375 15.89017,-1.45889 32.13974,3.76959 42.03125,16.78125 5.4243,11.64445 9.85048,24.04767 12.5,36.78125 2.64953,12.73358 3.53758,25.77191 1.875,38.65625 l 0,0.0312 0,0.0312 c -0.78922,17.25482 -4.60516,33.88152 -10.21875,49.96875 -5.59065,16.02146 -12.96693,31.49047 -20.9375,46.5 -8.45911,2.35148 -16.07365,8.26489 -21.03125,15.84375 -4.99484,7.63574 -7.29778,16.96451 -4.9375,26.09375 -0.37111,5.78328 2.67021,9.27795 6.78125,11.375 4.05544,2.0687 9.11306,2.91436 13.21875,3.71875 0.19663,4.0362 2.1247,7.3461 4.4375,10.3125 2.35759,3.02386 5.027,5.73327 6.625,8.53125 -3.37276,7.64833 -3.64373,16.64365 -1.09375,24.68755 2.58323,8.1485 8.02819,15.3186 16.03125,18.9688 7.77295,3.4795 15.57342,2.1081 21.9375,-1.9376 6.24013,-3.9669 11.10402,-10.5023 13.5,-17.5625 4.42172,0.8115 8.84871,1.6362 13.3125,2.375 4.48623,0.7424 9.00628,1.4049 13.53125,1.9063 2.48587,5.2424 4.6089,11.6246 7.84375,17.0312 3.28178,5.4852 7.77204,9.9755 15,10.9688 6.70457,1.0698 12.48191,-1.6087 17,-5.9062 4.43245,-4.2161 7.64922,-9.9936 9.59375,-15.4376 3.9698,-0.2976 8.01444,-0.503 12.03125,-0.75 3.97374,-0.2443 7.90844,-0.5509 11.75,-1.0312 1.21791,4.9389 3.15051,9.8618 6.0625,14.0312 2.99273,4.2852 7.00603,7.7694 12.21875,9.6563 l 0.0625,0.031 0.0937,0 c 5.6792,0.9295 10.43337,-0.5406 14.375,-3.3438 3.96405,-2.8191 7.13355,-6.9388 9.875,-11.2812 l 0.0937,-0.125 0,-0.1563 c -0.11831,-4.9538 1.63432,-7.2259 4.40625,-8.5625 2.65806,-1.2817 6.34036,-1.6117 10.0625,-2.1875 0.83651,2.6025 1.08213,6.2951 1.75,10.0313 0.69572,3.8921 1.88067,7.7989 4.9375,10.4374 l 0.0312,0.031 0.0312,0 c 8.98427,6.0681 19.82963,4.0285 27.53125,-2.0313 7.62278,-5.9976 12.21258,-15.9681 9.03125,-25.9374 4.77896,-4.6353 9.32389,-9.65796 13.3125,-15.09385 4.04571,-5.51373 7.53637,-11.44917 10.125,-17.84375 l 0,-0.0312 c 2.8954,-9.43931 3.86502,-19.66622 2.8125,-29.65625 -1.0436,-9.90546 -4.07811,-19.58006 -9.15625,-28 0.59109,-4.45046 1.83963,-8.9686 3.5,-13.40625 1.67228,-4.46948 3.74365,-8.85508 5.90625,-12.96875 l 0,-0.0312 0.0312,-0.0625 c 1.57256,-5.10731 5.53757,-8.34712 9.34375,-11.78125 3.79224,-3.42156 7.40963,-7.07233 7.9375,-12.96875 0.002,-0.0217 -0.002,-0.0408 0,-0.0625 1.39086,-7.03024 0.72589,-16.28078 -2.59375,-23.5625 -1.66438,-3.65086 -3.99402,-6.80082 -7.09375,-8.90625 -3.0636,-2.08089 -6.89549,-3.08509 -11.4375,-2.53125 -0.0522,-0.01 -0.10411,0.009 -0.15625,0 -8.86973,-1.54027 -17.24081,3.54668 -21.78125,10.78125 -4.51293,7.19076 -5.24045,16.60326 1.15625,23.625 -2.03659,5.48544 -4.32907,10.90257 -6.8125,16.21875 -2.46766,5.28239 -5.1132,10.46899 -7.875,15.59375 -3.3777,-1.46072 -6.96289,-2.77249 -10.6875,-3.4375 -3.82807,-0.68349 -7.76882,-0.69503 -11.625,0.40625 -2.94372,-0.6392 -5.25971,-3.07559 -7.375,-6.0625 -2.13186,-3.01031 -4.03435,-6.52502 -6.28125,-9.09375 l 0,-0.0312 -0.0312,0 c -2.0512,-1.85688 -2.98261,-3.80163 -3.3125,-5.84375 -0.32989,-2.04212 -0.0242,-4.21344 0.5,-6.46875 1.04389,-4.49123 2.96902,-9.2939 2.125,-14.09375 -0.002,-0.0213 0.002,-0.0412 0,-0.0625 -0.40348,-4.75273 -2.45655,-8.48289 -5.4375,-11.09375 -2.99428,-2.62254 -6.8961,-4.13663 -11.03125,-4.625 -8.23333,-0.97236 -17.38682,2.17533 -21.96875,9.28125 -0.0206,0.0319 -0.0421,0.0617 -0.0625,0.0937 -5.70729,5.55485 -8.11949,13.85408 -7.15625,21.53125 0.9577,7.63302 5.30951,14.63661 13,17.625 2.68819,4.12178 5.32099,8.48904 7.8125,12.96875 2.45059,4.40611 4.73865,8.90258 6.8125,13.40625 -3.0884,2.88364 -6.0412,5.9092 -8.875,9.03125 -2.73857,3.01712 -5.3651,6.12654 -7.90625,9.28125 -2.14559,-5.83494 -6.25052,-10.48669 -11.1875,-14.28125 -5.16599,-3.97057 -11.20285,-7.05985 -16.71875,-9.78125 l -0.0312,0 c -3.58479,-1.41292 -8.29781,-1.78383 -12.625,-2.125 -4.01466,-0.31653 -7.56254,-0.70984 -9.53125,-1.6875 6.06753,-6.65462 11.32198,-14.11973 15.21875,-22.21875 4.00238,-8.31855 6.58871,-17.2705 7.25,-26.65625 1.43272,-5.16509 0.34784,-10.65599 0,-15.78125 -0.34998,-5.1568 -0.003,-9.85841 4.15625,-13.6875 l 0.0312,-0.0312 c 7.27505,-8.27592 11.88499,-18.23388 14.03125,-28.71875 2.14018,-10.4551 1.82834,-21.44601 -0.75,-31.90625 -0.002,-0.0312 0.002,-0.0626 0,-0.0937 -0.29692,-4.53075 -2.45085,-8.65544 -4.4375,-12.625 -1.99509,-3.98642 -3.80418,-7.81862 -3.59375,-11.75 5.5e-4,-0.0103 -5.8e-4,-0.0209 0,-0.0312 3.51281,-9.58047 4.89974,-19.92647 3.9375,-30 -0.96723,-10.12578 -4.29622,-19.95701 -10.25,-28.4375 l -0.0625,-0.0937 -0.0937,-0.0625 c -3.33931,-2.07782 -5.55934,-6.17853 -8.09375,-9.6875 -1.2672,-1.75448 -2.62811,-3.36486 -4.28125,-4.46875 -1.52707,-1.01971 -3.36092,-1.48898 -5.5,-1.3125 -0.75739,-9.31989 -3.29009,-18.35438 -7.21875,-26.75 -3.9906,-8.528 -9.39371,-16.40528 -15.75,-23.34375 l 0.0312,0 c -3.79465,-4.66464 -8.78885,-7.42175 -14.125,-9.21875 -5.24412,-1.76602 -10.82041,-2.61971 -16,-3.34375 -1.58566,-5.77101 -4.14711,-11.15871 -7.5625,-15.9375 -3.47248,-4.85866 -7.80402,-9.09345 -12.8125,-12.53125 -0.0174,-0.0156 -0.0451,-0.0157 -0.0625,-0.0312 -7.54413,-6.7443 -17.15897,-9.75726 -26.90625,-9.8125 -9.61479,-0.0545 -19.34634,2.75355 -27.4375,7.65625 -4.51548,-6.12171 -10.67469,-11.16943 -17.625,-14.4375 l -0.0312,-0.0312 c -5.33103,-2.50062 -11.13411,-3.95818 -17.03125,-4.0625 z"
       id="path3015" />
    <path
       style="font-size:medium;font-style:normal;font-variant:normal;font-weight:normal;font-stretch:normal;text-indent:0;text-align:start;text-decoration:none;line-height:normal;letter-spacing:normal;word-spacing:normal;text-transform:none;direction:ltr;block-progression:tb;writing-mode:lr-tb;text-anchor:start;baseline-shift:baseline;color:#000000;fill-opacity:1;fill-rule:nonzero;stroke:none;stroke-width:1;marker:none;visibility:visible;display:inline;overflow:visible;enable-background:accumulate;font-family:Sans;-inkscape-font-specification:Sans;fill:none"
       d="m 304.2188,554.5625 c 5.74487,0.10187 11.41103,1.52304 16.625,3.96875 l 0.0312,0 c 6.94181,3.26138 13.09226,8.34731 17.53125,14.5 l 0.25,0.375 0.40625,-0.25 c 8.00382,-4.94973 17.74415,-7.77295 27.3125,-7.71875 9.56835,0.0542 18.96561,3.00053 26.3125,9.59375 l 0.0312,0 0,0.0312 c 4.93689,3.3792 9.20804,7.56279 12.625,12.34375 3.41695,4.78096 5.98642,10.14885 7.53125,15.9375 l 0.0937,0.34375 0.3125,0.0312 c 5.25237,0.73309 10.90596,1.55493 16.125,3.3125 5.21903,1.75756 10.00924,4.45436 13.65625,8.9375 l 0.0312,0 c 6.29171,6.86797 11.61832,14.6962 15.5625,23.125 3.94419,8.4288 6.486,17.4679 7.1875,26.8125 l 0.0625,0.53125 0.5,-0.0625 c 2.15139,-0.29563 3.8255,0.19455 5.3125,1.1875 1.487,0.99295 2.79223,2.50329 4.03125,4.21875 2.44422,3.3841 4.67527,7.51254 8.25,9.8125 0.0124,0.008 0.0188,0.0233 0.0312,0.0312 5.83027,8.31871 9.11153,17.98193 10.0625,27.9375 0.95233,9.96973 -0.43579,20.23605 -3.9375,29.71875 l -0.0312,0.0625 0,0.0937 c -0.24073,4.28102 1.68213,8.27428 3.6875,12.28125 2.00537,4.00695 4.08753,8.02675 4.34375,12.3125 l 0,0.0312 0.0312,0.0625 c 2.56385,10.3466 2.86469,21.23192 0.75,31.5625 -2.11179,10.31647 -6.64665,20.0588 -13.78125,28.1875 -0.01,0.0111 -0.0215,0.0201 -0.0312,0.0312 -4.41044,4.08505 -4.79259,9.23668 -4.4375,14.46875 0.35602,5.24586 1.41646,10.64753 0.0312,15.53125 l -0.0312,0.0625 0,0.0625 c -0.65151,9.24707 -3.20229,18.09459 -7.15625,26.3125 -3.95397,8.21791 -9.3134,15.80803 -15.53125,22.53125 l -0.40625,0.4375 0.5,0.3125 c 2.25534,1.43795 6.23359,1.68994 10.5625,2.03125 4.31784,0.34044 8.96,0.71735 12.3125,2.03125 0.009,0.003 0.0227,-0.003 0.0312,0 5.49786,2.71289 11.44004,5.79842 16.5,9.6875 5.06734,3.89476 9.2234,8.58647 11.1875,14.5625 l 0.3125,0.875 0.5625,-0.71875 c 2.68886,-3.36039 5.4687,-6.67309 8.375,-9.875 2.9063,-3.20192 5.95446,-6.27595 9.125,-9.21875 l 0.25,-0.25 -0.15625,-0.34375 c -2.11984,-4.6254 -4.48533,-9.25993 -7,-13.78125 -2.51466,-4.52132 -5.16098,-8.93534 -7.875,-13.09375 l -0.0937,-0.125 -0.15625,-0.0625 c -7.46289,-2.79025 -11.63141,-9.51656 -12.5625,-16.9375 -0.93109,-7.42093 1.40165,-15.47861 6.90625,-20.78125 l 0.0625,-0.0625 0.0312,-0.0312 c 4.30399,-6.76929 13.12933,-9.84316 21.0625,-8.90625 3.96658,0.46846 7.68652,1.94206 10.5,4.40625 2.81348,2.46419 4.72283,5.89376 5.09375,10.4375 l 0,0.0312 0.0312,0.0312 c 0.80313,4.43981 -1.08254,9.13046 -2.15625,13.75 -0.53685,2.30976 -0.86268,4.59871 -0.5,6.84375 0.35958,2.2259 1.46569,4.36875 3.625,6.34375 l -0.0312,0.0312 c 2.1318,2.43713 4.03845,5.95254 6.21875,9.03125 2.1803,3.07871 4.67521,5.76824 8.0625,6.46875 l 0.125,0.0312 0.125,-0.0312 c 3.72589,-1.09453 7.54512,-1.0789 11.3125,-0.40625 3.76737,0.67264 7.45339,1.98264 10.90625,3.5 l 0.4375,0.1875 L 581.5,898.875 c 2.84081,-5.2576 5.55691,-10.60078 8.09375,-16.03125 2.53683,-5.43047 4.89476,-10.94799 6.96875,-16.5625 L 596.6562,866 l -0.1875,-0.21875 c -6.31607,-6.69652 -5.66585,-15.66996 -1.28125,-22.65625 4.38461,-6.98628 12.48664,-11.85385 20.9375,-10.3125 l 0.0625,0 0.0937,0 c 4.39963,-0.57052 7.9676,0.4002 10.875,2.375 2.9074,1.9748 5.14177,4.97231 6.75,8.5 3.21646,7.05537 3.89177,16.19075 2.53125,23 l 0,0.0312 c -0.47546,5.5669 -3.87699,8.99641 -7.65625,12.40625 -3.75652,3.38931 -7.89753,6.73776 -9.59375,12.125 -0.0103,0.0326 -0.0212,0.061 -0.0312,0.0937 -2.16021,4.1152 -4.22587,8.50887 -5.90625,13 -1.69198,4.52213 -2.99537,9.13892 -3.59375,13.71875 l -0.0312,0.1875 0.0937,0.125 c 5.0711,8.32922 8.08657,17.95614 9.125,27.8125 1.03736,9.84614 0.0972,19.92211 -2.75,29.21875 -0.003,0.01 0.003,0.0216 0,0.0312 -2.55138,6.29534 -5.96944,12.14326 -9.96875,17.59375 -4.00486,5.45804 -8.58422,10.497 -13.40625,15.1563 l -0.25,0.25 0.125,0.2813 c 3.22588,9.6181 -1.22504,19.3093 -8.65625,25.1562 -7.42069,5.8387 -17.73099,7.8019 -26.3125,2.0311 -0.0113,-0.01 -0.02,-0.021 -0.0312,-0.031 -2.75652,-2.401 -3.88422,-6.0491 -4.5625,-9.8438 -0.68107,-3.8099 -0.89387,-7.7109 -1.90625,-10.5624 l -0.125,-0.4063 -0.40625,0.062 c -3.828,0.6155 -7.7731,0.9094 -10.8125,2.375 -2.99861,1.4459 -5.03382,4.1719 -4.96875,9.25 -2.69584,4.2593 -5.79017,8.2547 -9.5625,10.9375 -3.78678,2.6931 -8.20225,4.0651 -13.65625,3.1563 -0.009,0 -0.0222,0 -0.0312,0 -4.94946,-1.816 -8.77489,-5.1557 -11.65625,-9.2813 -2.89955,-4.1516 -4.8443,-9.1115 -6.03125,-14.0937 l -0.0937,-0.4376 -0.46875,0.063 c -3.9296,0.5058 -7.99105,0.8102 -12.09375,1.0624 -4.10271,0.2523 -8.23476,0.4705 -12.3125,0.7813 l -0.34375,0.031 -0.0937,0.2812 c -1.88532,5.408 -5.13775,11.2257 -9.5,15.375 -4.36225,4.1493 -9.79442,6.6402 -16.15625,5.625 -6.8857,-0.9463 -11.11344,-5.1219 -14.3125,-10.4688 -3.19907,-5.3468 -5.29731,-11.843 -7.875,-17.2187 l -0.125,-0.25 -0.28125,-0.031 c -4.60508,-0.5025 -9.20392,-1.1799 -13.78125,-1.9374 -4.57733,-0.7577 -9.14227,-1.5723 -13.6875,-2.4063 l -0.40625,-0.094 -0.15625,0.4062 c -2.26823,6.9973 -7.13976,13.5333 -13.28125,17.4375 -6.1415,3.9042 -13.51124,5.2133 -20.96875,1.875 -7.71002,-3.5165 -12.98835,-10.4209 -15.5,-18.3437 -2.51165,-7.923 -2.22819,-16.85497 1.15625,-24.3125 l 0.0937,-0.21875 -0.125,-0.21875 c -1.69128,-3.02786 -4.4708,-5.77776 -6.8125,-8.78125 -2.3417,-3.00348 -4.21444,-6.24012 -4.28125,-10.15625 l -0.0312,-0.40625 -0.375,-0.0625 c -4.18178,-0.82748 -9.34021,-1.67716 -13.28125,-3.6875 -3.94105,-2.01033 -6.66551,-5.04119 -6.25,-10.5625 l 0,-0.0937 -0.0312,-0.0937 c -2.27952,-8.8169 -0.0544,-17.87242 4.8125,-25.3125 4.86682,-7.44007 12.39222,-13.22703 20.65625,-15.46875 l 0.21875,-0.0625 0.0937,-0.1875 c 8.02171,-15.09283 15.45586,-30.68691 21.09375,-46.84375 5.63789,-16.15685 9.48667,-32.87784 10.28125,-50.25 l -0.0312,0 c 1.67384,-13.0034 0.79119,-26.12384 -1.875,-38.9375 -2.6683,-12.82384 -7.1111,-25.3286 -12.5625,-37.03125 l -0.0312,-0.0625 -0.0312,-0.0312 c -10.12749,-13.38278 -26.77036,-18.73719 -42.96875,-17.25 -16.17546,1.48507 -31.94813,9.79363 -40.375,23.78125 -0.012,0.0198 -0.0193,0.0426 -0.0312,0.0625 -8.8309,11.58022 -17.02768,24.23043 -22.84375,37.75 -5.82517,13.54073 -9.25899,27.94185 -8.625,43.03125 -0.14586,10.03876 1.51484,19.852 3.6875,29.59375 2.17266,9.74176 4.84382,19.41198 6.65625,29.09375 l 0,0.0312 0.0312,0.0312 c 1.27903,3.72037 5.22297,5.40157 8.625,7.375 1.70102,0.98671 3.26959,2.04768 4.375,3.40625 1.10541,1.35857 1.76641,3.00084 1.65625,5.3125 l 0,0.0625 0.0312,0.0937 c 1.9115,6.6159 1.8777,14.32797 -0.3125,21.09375 -2.1902,6.76578 -6.50105,12.56476 -13.21875,15.4375 -6.08548,0.63194 -9.45252,4.70549 -12.21875,9.34375 -2.78731,4.6736 -5.06045,9.93133 -9,13.1875 l -0.0625,0.0312 -0.0312,0.0625 c -2.67382,3.4532 -5.6525,6.75641 -8.96875,9.65625 -3.31626,2.89984 -6.95365,5.39392 -10.9375,7.21875 l -0.375,0.15625 0.0937,0.40625 c 1.7402,7.30853 0.15873,15.86087 -4,22.1875 -4.15874,6.32655 -10.83182,10.44005 -19.375,9.09375 l -0.0312,0 -0.0312,0 c -4.0276,-0.04 -7.7686,-1.6885 -10.71875,-4.25 -2.95012,-2.56157 -5.09173,-6.06428 -5.96875,-9.8125 l -0.0937,-0.375 -0.40625,0 c -5.24922,0.10457 -10.72413,0.75321 -16.09375,1.25 -5.36962,0.49679 -10.64776,0.84818 -15.46875,0.375 l -0.46875,-0.0625 -0.0625,0.5 c -1.35781,10.5637 -9.99462,17.8369 -19.8125,20.25 -9.81787,2.4132 -20.719215,-0.07 -26.59375,-8.9687 l -0.03125,-0.063 -0.0625,-0.031 c -2.837618,-2.3866 -3.447674,-7.05745 -4.625,-11.09375 -0.588663,-2.01816 -1.328595,-3.88089 -2.6875,-5.1875 -1.34712,-1.29528 -3.315536,-1.96032 -6.0625,-1.625 -0.0211,-9e-5 -0.04142,1.7e-4 -0.0625,0 -4.931182,-0.0404 -9.301238,-2.3432 -13.71875,-4.71875 -4.436395,-2.3857 -8.920529,-4.84434 -14.03125,-4.9375 l -0.15625,0 -0.15625,0.0937 c -3.924762,2.88903 -8.031319,3.74416 -12,3.15625 C 33.625069,980.59959 29.820359,978.55554 26.625,975.625 20.234282,969.76393 16.359282,960.36274 18.5,952.21875 l 0,-0.0312 c 0.881721,-5.11323 4.066468,-10.00094 6.375,-15.03125 2.291815,-4.99389 3.679533,-10.22024 0.90625,-15.90625 -0.0019,-0.0106 0.0019,-0.0207 0,-0.0312 -2.194789,-12.30724 0.974777,-23.76676 7.09375,-33.8125 6.124223,-10.05435 15.192539,-18.6586 24.8125,-25.21875 l 0.03125,-0.0312 c 7.450691,-5.58332 15.922438,-9.4784 24.8125,-12.3125 l 0.03125,-0.0312 c 8.903948,-2.83507 18.22685,-4.59656 27.34375,-5.875 l 0.0625,0 0.0625,-0.0312 c 0.95066,-0.40485 2.58164,-0.18325 4.40625,0.34375 1.82461,0.527 3.85175,1.3155 5.625,1.9375 0.88663,0.311 1.69781,0.59425 2.4375,0.75 0.73969,0.15575 1.39303,0.21048 1.96875,0.0312 0.57572,-0.17923 1.03139,-0.72931 1.09375,-1.40625 0.0616,-0.6691 -0.16274,-1.46179 -0.59375,-2.53125 l 0.0312,0 c -3.00903,-9.72523 -5.69511,-20.04754 -6.25,-30.25 -0.55489,-10.20245 1.02595,-20.27585 6.46875,-29.53125 l 0,-0.0312 0.0312,-0.0312 c 2.87987,-7.29915 7.13682,-13.84843 12.34375,-19.5625 5.20692,-5.71407 11.34885,-10.5941 18,-14.625 L 156,748.75 l -0.21875,-0.4375 c -7.33131,-12.69318 -11.40474,-27.82478 -11.0625,-42.59375 0.34223,-14.76897 5.06702,-29.15395 15.3125,-40.46875 l 0.0625,-0.0625 0.0312,-0.0312 c 2.43136,-4.3327 7.13556,-7.07374 11.15625,-10.21875 2.01035,-1.57251 3.83751,-3.26559 5.09375,-5.34375 1.25624,-2.07816 1.91867,-4.53993 1.5625,-7.59375 2.01329,-11.54354 6.11422,-23.63208 12.65625,-33.78125 6.55827,-10.17438 15.5777,-18.37082 27.46875,-22.15625 5.9424,-1.47359 12.36316,-3.12787 18.6875,-3.59375 6.32435,-0.46589 12.54046,0.23924 18.09375,3.46875 l 0.34375,0.21875 0.28125,-0.34375 c 5.57741,-6.96029 12.10054,-13.4213 19.34375,-18.78125 7.2432,-5.35996 15.19343,-9.61274 23.71875,-12.125 1.89817,-0.26458 3.79328,-0.37734 5.6875,-0.34375 z"
       id="path3013" />
    <path
       style="font-size:medium;font-style:normal;font-variant:normal;font-weight:normal;font-stretch:normal;text-indent:0;text-align:start;text-decoration:none;line-height:normal;letter-spacing:normal;word-spacing:normal;text-transform:none;direction:ltr;block-progression:tb;writing-mode:lr-tb;text-anchor:start;baseline-shift:baseline;color:#000000;fill-opacity:1;fill-rule:nonzero;stroke:none;stroke-width:1;marker:none;visibility:visible;display:inline;overflow:visible;enable-background:accumulate;font-family:Sans;-inkscape-font-specification:Sans"
       d="m 465.15625,668.6875 c -0.33963,-0.0114 -0.61577,0.0106 -0.84375,0.0625 -0.11399,0.026 -0.19779,0.0547 -0.3125,0.125 -0.11471,0.0703 -0.28518,0.22816 -0.3125,0.46875 -0.0273,0.2406 0.11638,0.43827 0.21875,0.53125 0.10237,0.093 0.17351,0.11134 0.28125,0.15625 0.21547,0.0898 0.47638,0.17417 0.8125,0.21875 0.62935,0.0835 1.57564,0.0537 2.75,-0.0625 0.08,-0.008 0.10481,0.009 0.1875,0 l 0.0937,-0.96875 c -1.24067,-0.35413 -2.19574,-0.50844 -2.875,-0.53125 z"
       id="path3128" />
  </g>
</svg>
