<?xml version="1.0" encoding="UTF-8" standalone="no"?>
<!-- Created with Inkscape (http://www.inkscape.org/) -->

<svg
   xmlns:dc="http://purl.org/dc/elements/1.1/"
   xmlns:cc="http://creativecommons.org/ns#"
   xmlns:rdf="http://www.w3.org/1999/02/22-rdf-syntax-ns#"
   xmlns:svg="http://www.w3.org/2000/svg"
   xmlns="http://www.w3.org/2000/svg"
   xmlns:sodipodi="http://sodipodi.sourceforge.net/DTD/sodipodi-0.dtd"
   xmlns:inkscape="http://www.inkscape.org/namespaces/inkscape"
   width="210mm"
   height="297mm"
   id="svg2"
   version="1.1"
   inkscape:version="0.48.0 r9654"
   sodipodi:docname="caterpillar.svg">
  <defs
     id="defs4" />
  <sodipodi:namedview
     id="base"
     pagecolor="#ffffff"
     bordercolor="#666666"
     borderopacity="1.0"
     inkscape:pageopacity="0.0"
     inkscape:pageshadow="2"
     inkscape:zoom="0.7"
     inkscape:cx="150"
     inkscape:cy="229.38364"
     inkscape:document-units="px"
     inkscape:current-layer="layer1"
     showgrid="false"
     inkscape:window-width="1280"
     inkscape:window-height="752"
     inkscape:window-x="0"
     inkscape:window-y="0"
     inkscape:window-maximized="0" />
  <metadata
     id="metadata7">
    <rdf:RDF>
      <cc:Work
         rdf:about="">
        <dc:format>image/svg+xml</dc:format>
        <dc:type
           rdf:resource="http://purl.org/dc/dcmitype/StillImage" />
        <dc:title />
      </cc:Work>
    </rdf:RDF>
  </metadata>
  <g
     inkscape:label="Ebene 1"
     inkscape:groupmode="layer"
     id="layer1">
    <path
       style="fill:#000000"
       d="m 511.47069,1041.3489 c -5.10397,-1.8475 -9.02654,-5.2703 -11.97268,-9.4887 -2.94614,-4.2183 -4.91584,-9.2322 -6.11406,-14.2617 -3.94794,0.5082 -8.02461,0.8103 -12.13146,1.0628 -4.10685,0.2525 -8.24387,0.4555 -12.31249,0.7656 -1.90756,5.4718 -5.19131,11.3237 -9.63148,15.5471 -4.44017,4.2234 -10.03676,6.8183 -16.56996,5.7758 -7.05683,-0.9698 -11.42256,-5.2959 -14.66298,-10.7119 -3.24043,-5.416 -5.35554,-11.922 -7.91114,-17.2516 -4.61742,-0.5039 -9.21882,-1.18 -13.80211,-1.9385 -4.5833,-0.7586 -9.14849,-1.5997 -13.69348,-2.4337 -2.30465,7.1097 -7.22979,13.7144 -13.48258,17.6894 -6.25279,3.975 -13.83323,5.3204 -21.44846,1.9115 -7.85654,-3.5833 -13.22862,-10.6187 -15.77606,-18.6544 -2.54744,-8.0358 -2.27023,-17.0718 1.1718,-24.65622 -1.63967,-2.93547 -4.39971,-5.68762 -6.7672,-8.72418 -2.36749,-3.03655 -4.34243,-6.35751 -4.41192,-10.43056 -4.16791,-0.82473 -9.3634,-1.66902 -13.40961,-3.73301 -4.04622,-2.06398 -6.94315,-5.34766 -6.51393,-11.05117 -2.3199,-8.97307 -0.069,-18.18461 4.86185,-25.72252 4.93081,-7.5379 12.5415,-13.40216 20.94109,-15.68065 8.01491,-15.08004 15.4464,-30.64371 21.07214,-46.76574 5.62574,-16.12204 9.44573,-32.80244 10.23763,-50.11593 1.67091,-12.94892 0.78919,-26.04647 -1.86973,-38.82518 -2.65891,-12.77871 -7.09502,-25.23857 -12.53287,-36.91212 -10.00686,-13.22337 -26.4872,-18.52026 -42.546,-17.04589 -16.05881,1.47436 -31.69608,9.71997 -40.01682,23.58161 -8.83054,11.57373 -16.99838,24.20557 -22.80102,37.69393 -5.80264,13.48836 -9.2401,27.83324 -8.60987,42.83309 -0.14498,9.97795 1.53344,19.7707 3.70251,29.49634 2.16907,9.72565 4.8288,19.38418 6.64643,29.09372 1.18862,3.45739 4.98016,5.10466 8.41685,7.09819 3.43669,1.99352 6.51854,4.33329 6.28778,9.17569 1.94048,6.71622 1.91893,14.53141 -0.30519,21.40199 -2.22413,6.87058 -6.65083,12.79655 -13.52064,15.73434 -5.97401,0.56463 -9.21335,4.49794 -11.97637,9.13081 -2.76302,4.63287 -5.04971,9.96531 -9.11841,13.32823 -2.68959,3.47357 -5.69913,6.8057 -9.04515,9.73157 -3.34603,2.92587 -7.02855,5.44548 -11.06409,7.29399 1.77617,7.45961 0.1653,16.11851 -4.07433,22.56821 -4.23964,6.44966 -11.10804,10.69016 -19.84692,9.31306 -4.1589,-0.041 -8.00176,-1.7173 -11.03058,-4.3471 -3.02881,-2.6299 -5.24358,-6.2139 -6.14628,-10.07189 -5.21508,0.10389 -10.67699,0.74716 -16.05505,1.24473 -5.37806,0.49757 -10.67228,0.84943 -15.55195,0.37049 -1.38827,10.80067 -10.21219,18.22867 -20.19095,20.68127 -9.97875,2.4527 -21.112348,-0.07 -27.119956,-9.1704 -3.048364,-2.5639 -3.628933,-7.35205 -4.788603,-11.32782 -1.159669,-3.97578 -2.898439,-7.1392 -8.263203,-6.45363 -5.110331,-0.0218 -9.587646,-2.39149 -14.025994,-4.77824 -4.438349,-2.38675 -8.83773,-4.79062 -13.792193,-4.88093 -8.045944,5.92265 -17.119999,3.52504 -23.632107,-2.44737 -6.512108,-5.9724 -10.46227,-15.51961 -8.260426,-23.89614 0.906422,-5.25648 4.112579,-10.16114 6.399091,-15.14347 2.286513,-4.98234 3.65338,-10.04236 0.881225,-15.60954 -2.229976,-12.45392 0.968209,-24.05289 7.140694,-34.18648 6.172485,-10.13358 15.31927,-18.80178 24.986496,-25.39416 7.517307,-5.63324 16.056615,-9.56895 24.999798,-12.41651 8.943183,-2.84756 18.290238,-4.60699 27.423048,-5.88766 2.34054,-0.99674 6.86333,1.03722 10.37413,2.26869 3.5108,1.23147 6.00961,1.66046 4.30221,-2.54622 -3.01383,-9.74075 -5.70141,-20.10798 -6.26003,-30.37906 -0.55862,-10.27107 1.01172,-20.44599 6.51374,-29.8021 2.90433,-7.36114 7.20162,-13.94198 12.44478,-19.69581 5.24315,-5.75383 11.43218,-10.68065 18.11999,-14.73377 -7.37731,-12.77282 -11.46104,-27.98073 -11.1165,-42.84907 0.34453,-14.86834 5.11734,-29.39711 15.45311,-40.81162 2.5207,-4.4919 7.3037,-7.25105 11.2842,-10.36462 3.98051,-3.11358 7.15852,-6.58159 6.46928,-12.49121 2.01501,-11.63568 6.12108,-23.84783 12.73355,-34.10628 6.61247,-10.25846 15.73133,-18.56322 27.77192,-22.38412 5.93923,-1.4728 12.39346,-3.13511 18.77925,-3.60552 6.3858,-0.47042 12.70315,0.25105 18.36865,3.54582 5.60145,-6.99029 12.13701,-13.49428 19.41987,-18.88357 7.28285,-5.3893 15.31301,-9.66391 23.90368,-12.19543 7.78241,-1.09868 15.63405,0.36632 22.66405,3.66387 7.03,3.29755 13.23836,8.42765 17.73422,14.65917 8.08527,-5.0001 17.91333,-7.86667 27.58242,-7.8119 9.66908,0.0548 19.17921,3.03086 26.62863,9.7161 4.98468,3.41191 9.29198,7.63199 12.74324,12.46095 3.45125,4.82896 6.04647,10.26681 7.607,16.11428 5.25404,0.73332 10.91494,1.55046 16.19254,3.32775 5.27759,1.77728 10.17188,4.51471 13.89271,9.0886 6.324,6.90322 11.69578,14.75478 15.66317,23.23318 3.9674,8.4784 6.53041,17.58365 7.23687,26.99426 4.5282,-0.62223 7.29128,2.14759 9.7975,5.61753 2.50622,3.46995 4.75558,7.64002 8.25635,9.81831 5.8998,8.4036 9.21639,18.16417 10.17617,28.21192 0.95978,10.04776 -0.43726,20.38271 -3.96471,29.9351 -0.2312,4.11162 1.64768,8.03477 3.65053,12.0367 2.00285,4.00192 4.12965,8.08264 4.3943,12.50941 2.58124,10.41677 2.89939,21.37728 0.76891,31.78501 -2.13047,10.40772 -6.70958,20.26266 -13.92284,28.46829 -4.30155,3.95965 -4.66658,8.89134 -4.31358,14.09267 0.353,5.20132 1.42404,10.67229 -0.005,15.71052 -0.6564,9.31641 -3.23663,18.22475 -7.2148,26.49298 -3.97818,8.26823 -9.3543,15.89636 -15.60246,22.65235 2.03904,1.30004 6.00944,1.62441 10.33749,1.96565 4.32805,0.34124 9.01375,0.69935 12.48337,2.06688 5.51022,2.7186 11.50315,5.80564 16.61981,9.7383 5.11667,3.93267 9.35708,8.71095 11.36229,14.81205 2.69416,-3.36701 5.48665,-6.68131 8.40121,-9.89232 2.91456,-3.21102 5.9512,-6.31876 9.13367,-9.27263 -2.11387,-4.61237 -4.47428,-9.23916 -6.98311,-13.74998 -2.50882,-4.51082 -5.16607,-8.90566 -7.87359,-13.05411 -7.6536,-2.86155 -11.92532,-9.78711 -12.87478,-17.35447 -0.94946,-7.56735 1.42334,-15.77651 7.05882,-21.20523 4.43255,-6.97149 13.45208,-10.08932 21.55382,-9.1325 8.10173,0.95683 15.28568,5.9883 16.04708,15.31544 0.83756,4.63016 -1.07612,9.39136 -2.13717,13.95644 -1.06104,4.56507 -1.26944,8.93402 2.97868,12.77968 2.18935,2.50293 4.09726,6.00866 6.25334,9.05317 2.15608,3.04451 4.56034,5.6278 7.74241,6.28587 3.81608,-1.12103 7.7251,-1.10033 11.5488,-0.41762 3.82369,0.6827 7.56207,2.02741 11.03687,3.55441 2.83714,-5.2508 5.56117,-10.58344 8.09303,-16.00326 2.53185,-5.41982 4.87153,-10.92682 6.93998,-16.52632 -6.4817,-6.87212 -5.79855,-16.11804 -1.32269,-23.24974 4.47587,-7.13169 12.74445,-12.14915 21.43365,-10.56433 9.01269,-1.16872 14.8843,3.98682 18.15691,11.16537 3.27261,7.17855 3.94621,16.3801 2.5629,23.3034 -0.49116,5.75077 -4.00054,9.29144 -7.79326,12.71343 -3.79272,3.42198 -7.86878,6.72528 -9.49329,12.0013 -2.16949,4.12677 -4.246,8.52164 -5.92813,13.01744 -1.68213,4.49581 -2.96987,9.09255 -3.56181,13.62309 5.11402,8.39972 8.1567,18.07985 9.20217,28.00304 1.04548,9.92319 0.0937,20.08945 -2.78105,29.46142 -2.57055,6.34993 -6.02893,12.2546 -10.05421,17.74049 -4.02529,5.48588 -8.61748,10.55293 -13.45565,15.22773 3.30199,9.8451 -1.2423,19.7434 -8.80872,25.6967 -7.56642,5.9534 -18.15497,7.9619 -26.94148,2.0274 -2.91895,-2.5195 -4.09473,-6.3177 -4.78312,-10.1688 -0.6884,-3.851 -0.88941,-7.7549 -1.85881,-10.4854 -3.85642,0.6201 -7.75654,0.9056 -10.66221,2.3067 -2.90567,1.4011 -4.81689,3.9179 -4.6955,9.0009 -2.72405,4.3149 -5.88534,8.3877 -9.76454,11.1465 -3.87919,2.7588 -8.4763,4.2035 -14.07199,3.2623 z m -61.4506,-4.638 c 4.12622,-2.1602 7.86907,-5.2432 10.54249,-9.0027 2.67342,-3.7595 4.27743,-8.1955 4.12596,-13.0614 3.40367,-1.1283 7.4306,-0.7137 11.58835,-0.3451 4.15776,0.3686 8.44635,0.6914 12.37334,-0.6207 4.66254,-2.2801 7.09878,-1.0853 8.59534,1.5055 1.49656,2.5906 2.05345,6.5772 2.95729,9.8808 1.42772,5.7301 6.15601,9.9285 11.48096,11.4412 5.32494,1.5126 11.24654,0.3394 15.06088,-4.6738 3.97508,-2.0379 4.91967,-5.7938 5.40978,-9.4077 0.4901,-3.6139 0.52572,-7.0857 2.68287,-8.5552 3.52408,0.1042 7.07085,-0.6761 10.57223,-1.399 3.50138,-0.7229 6.95736,-1.3885 10.29987,-1.0548 -3.1e-4,4.3968 -0.33041,10.4669 0.95468,15.4034 1.28509,4.9365 4.18537,8.7394 10.64581,8.6018 6.98821,1.3763 14.20501,-2.4556 18.63502,-8.212 4.43001,-5.7565 6.07323,-13.4374 1.91428,-19.7592 8.9855,-7.2239 16.91261,-16.51051 22.10297,-26.98465 5.19036,-10.47415 7.64398,-22.13585 5.6825,-34.10999 -0.60789,-4.98444 -1.71617,-9.99325 -3.31539,-14.77578 -1.59921,-4.78253 -3.68936,-9.33877 -6.261,-13.41806 1.82015,-7.45204 4.27023,-15.10089 7.53798,-22.33036 3.26775,-7.22947 7.35317,-14.03955 12.44399,-19.81406 5.49722,-2.86576 7.68226,-8.39523 8.00506,-14.425 0.3228,-6.02977 -1.21663,-12.55983 -3.16836,-17.42676 -3.55084,-8.25882 -12.64625,-10.38598 -20.81102,-8.24738 -8.16476,2.1386 -15.39888,8.54298 -15.22715,17.34723 0.66836,3.74414 2.5367,7.41027 3.47627,11.08614 0.93958,3.67586 0.95039,7.36146 -2.09633,11.14455 -2.7466,4.51456 -4.52732,9.86245 -6.64457,14.92498 -2.11726,5.06254 -4.57106,9.83973 -8.66382,13.21292 -3.46058,-2.35671 -7.5061,-4.16481 -11.65782,-4.87229 -4.15172,-0.70749 -8.40963,-0.31436 -12.29499,1.7314 -4.60062,-3.23024 -8.1731,-7.69548 -11.39053,-12.51215 -3.21743,-4.81667 -6.0798,-9.98478 -9.26022,-14.62074 2.24552,-5.00752 4.2524,-11.92936 3.9474,-18.08783 -0.30499,-6.15847 -2.92186,-11.55357 -9.92385,-13.50758 -9.70882,-2.7722 -18.55604,2.24506 -23.58516,9.92977 -5.02912,7.68472 -6.24013,18.03688 -0.67654,25.9345 2.58436,2.54416 5.6911,4.18141 8.38573,6.21659 2.69464,2.03519 4.97716,4.46831 5.91308,8.60422 1.35135,3.70759 4.10152,7.52062 6.35148,11.3054 2.24995,3.78478 3.99968,7.5413 3.35013,11.13587 -3.99679,3.20456 -7.78745,6.65323 -11.06463,10.50871 -3.27718,3.85548 -6.04089,8.11778 -7.98378,12.94962 -3.96514,0.59091 -5.12753,-3.0492 -6.40577,-7.09761 -1.27824,-4.0484 -2.67231,-8.50508 -7.10082,-9.54731 -5.35024,-5.57411 -11.91129,-9.21895 -19.00961,-11.42472 -7.09832,-2.20577 -14.73391,-2.97247 -22.23326,-2.79027 -5.82021,0.0731 -5.2446,-2.17309 -2.89545,-5.02293 2.34915,-2.84984 6.47184,-6.30331 7.74578,-8.64474 7.41129,-7.98732 11.91073,-17.74044 14.30128,-28.1011 2.39054,-10.36067 2.67219,-21.32889 1.64786,-31.74642 -0.87539,-3.51448 1.13854,-6.53867 3.68421,-9.5257 2.54566,-2.98704 5.62306,-5.93692 6.87461,-9.30279 6.96164,-10.50737 10.09262,-23.05131 9.85937,-35.59023 -0.23324,-12.53893 -3.83072,-25.07284 -10.32599,-35.56015 0.0825,-5.1775 1.82706,-10.31503 3.25135,-15.54161 1.42429,-5.22658 2.52827,-10.54221 1.32948,-16.07589 0.15443,-7.69546 -1.61916,-15.68804 -5.12015,-22.71693 -3.50099,-7.0289 -8.72939,-13.09409 -15.48458,-16.93476 -5.75076,1.24811 -7.88184,-0.66479 -8.65202,-3.84516 -0.77019,-3.18038 -0.17949,-7.62822 -0.48671,-11.45 -1.45002,-8.16818 -4.43858,-16.20067 -8.61161,-23.57564 -4.17303,-7.37498 -9.53052,-14.09244 -15.71839,-19.63055 -3.36751,-2.79492 -7.6,-4.83614 -12.01199,-5.75979 -4.41198,-0.92365 -9.00346,-0.72973 -13.08895,0.94565 -2.31493,-4.57459 -3.86013,-9.81283 -5.95609,-14.75824 -2.09595,-4.94542 -4.74266,-9.59801 -9.2606,-13.00129 -5.20941,-5.30028 -11.5578,-9.59955 -18.46221,-12.00322 -6.9044,-2.40368 -14.36484,-2.91175 -21.79836,-0.62962 -4.19261,-0.0655 -7.97762,1.43198 -11.54499,3.44618 -3.56736,2.0142 -6.91708,4.54512 -10.23909,6.54652 -0.47581,-6.16393 -4.1221,-11.15435 -9.04639,-14.84865 -4.92428,-3.6943 -11.12657,-6.09248 -16.71437,-7.0719 -10.17565,-1.09884 -19.35661,2.39783 -27.61859,7.86762 -8.26198,5.46979 -15.60496,12.9127 -22.10468,19.70632 -1.33191,6.49931 -3.73559,5.88248 -6.85133,3.97042 -3.11574,-1.91206 -6.94354,-5.11935 -11.12368,-3.80098 -8.26006,0.0787 -16.70721,1.26831 -24.41623,4.14205 -7.70902,2.87374 -14.6799,7.43161 -19.98743,14.24686 -5.42399,7.05672 -10.00271,15.09163 -13.01565,23.62871 -3.01293,8.53708 -4.46009,17.57634 -3.62095,26.64177 -7.68139,2.22482 -13.98265,7.35167 -19.03084,13.71062 -5.04818,6.35895 -8.84327,13.94999 -11.51233,21.1032 -3.12468,9.77816 -3.65407,19.95483 -2.13734,29.87102 1.51673,9.91618 5.07958,19.57189 10.13938,28.30815 1.63406,4.14793 -1.44095,6.38927 -5.36497,8.46572 -3.92402,2.07646 -8.69706,3.98803 -10.45906,7.47643 -7.66064,8.36174 -14.16314,18.53637 -17.8621,29.46476 -3.69895,10.92839 -4.59436,22.61055 -1.04082,33.98738 0.29963,5.02651 2.11816,9.77315 4.04476,14.41891 1.92661,4.64575 3.96129,9.19062 4.69324,13.81359 -4.23619,-1.11504 -8.76541,-3.6508 -13.49982,-5.46536 -4.7344,-1.81455 -9.674,-2.90789 -14.73096,-1.13806 -14.620327,1.85271 -29.101186,6.78223 -41.669744,14.57234 -12.568559,7.7901 -23.224817,18.44079 -30.195946,31.73586 -2.451783,6.16529 -3.670358,12.57209 -3.798261,19.00927 -0.127903,6.43717 0.834866,12.90473 2.745771,19.19155 -4.861836,5.76881 -8.718453,13.73985 -9.582661,21.58501 -0.864208,7.84516 1.263994,15.56444 8.371796,20.82975 3.721689,3.23393 7.778686,3.98554 11.792066,3.34322 4.013379,-0.64233 7.983142,-2.67859 11.530361,-5.0204 4.872971,3.93046 10.390671,6.93878 16.246535,9.00835 5.855864,2.06957 12.049891,3.20038 18.275516,3.37582 0.994223,5.40572 2.435928,11.4057 5.15683,16.3993 2.720902,4.9936 6.721003,8.9808 12.832017,10.361 6.50223,1.0313 13.63905,-0.445 19.1479,-4.0128 5.50886,-3.5678 9.38975,-9.22717 9.38012,-16.56204 3.92479,-1.79783 8.27108,-1.53179 12.70767,-1.10667 4.43659,0.42511 8.96349,1.00929 13.24949,-0.15225 4.81151,-3.03537 8.16251,-2.99519 10.80002,-1.1364 2.63751,1.85879 4.56153,5.53619 6.51907,9.77527 4.9123,5.16719 12.14087,5.95569 18.2269,3.66349 6.08603,-2.2922 11.02951,-7.66505 11.37162,-14.8206 0.36704,-3.9464 -0.2638,-8.15485 0.2944,-11.60714 0.55821,-3.45229 2.30546,-6.14841 7.42867,-7.07014 6.16748,-4.7713 11.73124,-10.39322 16.46879,-16.63903 4.73755,-6.2458 8.64888,-13.1155 11.51148,-20.38236 7.54657,2.36838 13.33257,-1.51402 16.96215,-7.50958 3.62958,-5.99557 5.10275,-14.10429 4.02363,-20.18854 0.0405,-4.25422 -1.77818,-7.8081 -4.59669,-10.41814 -2.81852,-2.61005 -6.63692,-4.27625 -10.59603,-4.7551 -2.82732,-14.90096 -6.99209,-30.09621 -9.36133,-45.3517 -2.36923,-15.2555 -2.94294,-30.57125 1.41185,-45.7132 3.08184,-13.12065 8.53895,-25.37761 15.43985,-36.82877 6.9009,-11.45117 15.24559,-22.09654 24.10256,-31.994 10.89727,-9.4194 26.23948,-13.81429 40.938,-12.71663 14.69853,1.09766 28.75339,7.68786 37.07595,20.23863 5.82452,12.81895 10.39648,26.48913 12.88415,40.47128 2.48767,13.98216 2.89105,28.27629 0.37841,42.34318 -1.23974,16.98298 -5.43052,33.39317 -11.30585,49.25573 -5.87534,15.86256 -13.43522,31.17749 -21.41316,45.96996 -8.8287,1.20829 -15.79791,6.76206 -19.94498,14.07723 -4.14707,7.31517 -5.47199,16.39173 -3.01211,24.64562 1.26814,5.32668 6.59096,5.89693 11.55994,6.7241 4.96898,0.82717 9.58411,1.91127 9.43687,8.26568 0.60599,4.36078 4.66463,7.48071 7.62044,10.72081 2.95582,3.24009 4.80883,6.60035 1.00355,11.44181 -3.19217,8.05615 -1.33166,17.8091 3.64719,25.0295 4.97885,7.2205 13.07604,11.9085 22.35721,9.8348 5.20392,-1.2237 9.22063,-4.4848 12.26872,-8.6244 3.04809,-4.1396 5.12758,-9.1577 6.45705,-13.8954 5.50706,1.8211 11.17682,2.9364 16.88208,3.9013 5.70526,0.9649 11.44603,1.7794 17.09512,2.999 2.07666,6.1422 4.20364,13.9087 7.97763,19.6234 3.77398,5.7147 9.19497,9.3775 17.85967,7.3124 z m 17.87493,-367.00805 c -2.41992,-0.69073 -3.68503,-0.55036 -3.71261,-0.3075 -0.0276,0.24286 1.18238,0.58822 3.71261,0.3075 z"
       id="path3128"
       inkscape:connector-curvature="0"
       sodipodi:nodetypes="cscscscscscscscscscscscscscscscscscscscscscscscscscscscscscscscscscscscscscscscscscscscscscscscscscscscscscscscscscscscscscscscscscscscsccscscscscscscscscscscscscscscscscscscscscscscscscscscscscscscscscscscscscscscscscscscscscscscscscscscscscscscscscscscscscscscscscscscscscscscscscsccsc" />
  </g>
</svg>
