999
DXF created by Inkscape
  0
SECTION
  2
HEADER
  9
$ACADVER
  1
AC1014
  9
$HANDSEED
  5
FFFF
  9
$MEASUREMENT
 70
     1
  0
ENDSEC
  0
SECTION
  2
TABLES
  0
TABLE
  2
VPORT
  5
8
330
0
100
AcDbSymbolTable
 70
     4
  0
VPORT
  5
2E
330
8
100
AcDbSymbolTableRecord
100
AcDbViewportTableRecord
  2
*ACTIVE
 70
     0
 10
0.0
 20
0.0
 11
1.0
 21
1.0
 12
210.0
 22
148.5
 13
0.0
 23
0.0
 14
10.0
 24
10.0
 15
10.0
 25
10.0
 16
0.0
 26
0.0
 36
1.0
 17
0.0
 27
0.0
 37
0.0
 40
341.0
 41
1.24
 42
50.0
 43
0.0
 44
0.0
 50
0.0
 51
0.0
 71
     0
 72
   100
 73
     1
 74
     3
 75
     0
 76
     0
 77
     0
 78
     0
  0
ENDTAB
  0
TABLE
  2
LTYPE
  5
5
330
0
100
AcDbSymbolTable
 70
     1
  0
LTYPE
  5
14
330
5
100
AcDbSymbolTableRecord
100
AcDbLinetypeTableRecord
  2
BYBLOCK
 70
     0
  3

 72
    65
 73
     0
 40
0.0
  0
LTYPE
  5
15
330
5
100
AcDbSymbolTableRecord
100
AcDbLinetypeTableRecord
  2
BYLAYER
 70
     0
  3

 72
    65
 73
     0
 40
0.0
  0
LTYPE
  5
16
330
5
100
AcDbSymbolTableRecord
100
AcDbLinetypeTableRecord
  2
CONTINUOUS
 70
     0
  3
Solid line
 72
    65
 73
     0
 40
0.0
  0
ENDTAB
  0
TABLE
  2
LAYER
  5
2
330
0
100
AcDbSymbolTable
 70
1
  0
LAYER
  5
10
330
2
100
AcDbSymbolTableRecord
100
AcDbLayerTableRecord
  2
0
 70
     0
 62
     7
  6
CONTINUOUS
  0
ENDTAB
  0
TABLE
  2
STYLE
  5
3
330
0
100
AcDbSymbolTable
 70
     1
  0
STYLE
  5
11
330
3
100
AcDbSymbolTableRecord
100
AcDbTextStyleTableRecord
  2
STANDARD
 70
     0
 40
0.0
 41
1.0
 50
0.0
 71
     0
 42
2.5
  3
txt
  4

  0
ENDTAB
  0
TABLE
  2
VIEW
  5
6
330
0
100
AcDbSymbolTable
 70
     0
  0
ENDTAB
  0
TABLE
  2
UCS
  5
7
330
0
100
AcDbSymbolTable
 70
     0
  0
ENDTAB
  0
TABLE
  2
APPID
  5
9
330
0
100
AcDbSymbolTable
 70
     2
  0
APPID
  5
12
330
9
100
AcDbSymbolTableRecord
100
AcDbRegAppTableRecord
  2
ACAD
 70
     0
  0
ENDTAB
  0
TABLE
  2
DIMSTYLE
  5
A
330
0
100
AcDbSymbolTable
 70
     1
  0
DIMSTYLE
105
27
330
A
100
AcDbSymbolTableRecord
100
AcDbDimStyleTableRecord
  2
ISO-25
 70
     0
  3

  4

  5

  6

  7

 40
1.0
 41
2.5
 42
0.625
 43
3.75
 44
1.25
 45
0.0
 46
0.0
 47
0.0
 48
0.0
140
2.5
141
2.5
142
0.0
143
0.03937007874016
144
1.0
145
0.0
146
1.0
147
0.625
 71
     0
 72
     0
 73
     0
 74
     0
 75
     0
 76
     0
 77
     1
 78
     8
170
     0
171
     3
172
     1
173
     0
174
     0
175
     0
176
     0
177
     0
178
     0
270
     2
271
     2
272
     2
273
     2
274
     3
340
11
275
     0
280
     0
281
     0
282
     0
283
     0
284
     8
285
     0
286
     0
287
     3
288
     0
  0
ENDTAB
  0
TABLE
  2
BLOCK_RECORD
  5
1
330
0
100
AcDbSymbolTable
 70
     1
  0
BLOCK_RECORD
  5
1F
330
1
100
AcDbSymbolTableRecord
100
AcDbBlockTableRecord
  2
*MODEL_SPACE
  0
BLOCK_RECORD
  5
1B
330
1
100
AcDbSymbolTableRecord
100
AcDbBlockTableRecord
  2
*PAPER_SPACE
  0
ENDTAB
  0
ENDSEC
  0
SECTION
  2
BLOCKS
  0
BLOCK
  5
20
330
1F
100
AcDbEntity
  8
0
100
AcDbBlockBegin
  2
*MODEL_SPACE
 70
     0
 10
0.0
 20
0.0
 30
0.0
  3
*MODEL_SPACE
  1

  0
ENDBLK
  5
21
330
1F
100
AcDbEntity
  8
0
100
AcDbBlockEnd
  0
BLOCK
  5
1C
330
1B
100
AcDbEntity
 67
     1
  8
0
100
AcDbBlockBegin
  2
*PAPER_SPACE
  1

  0
ENDBLK
  5
1D
330
1B
100
AcDbEntity
 67
     1
  8
0
100
AcDbBlockEnd
  0
ENDSEC
  0
SECTION
  2
ENTITIES
  0
LWPOLYLINE
  5
100
100
AcDbEntity
  8
0
 62
7
100
AcDbPolyline
 90
275
 70
0
 10
144.348395
 20
3.108199
 30
0.0
 10
142.970716
 20
4.000699
 30
0.0
 10
140.969438
 20
5.786121
 30
0.0
 10
139.794877
 20
8.245039
 30
0.0
 10
139.243915
 20
9.811090
 30
0.0
 10
137.966673
 20
9.687844
 30
0.0
 10
135.820147
 20
9.511144
 30
0.0
 10
133.648077
 20
9.376383
 30
0.0
 10
132.345289
 20
9.295075
 30
0.0
 10
131.456097
 20
7.548176
 30
0.0
 10
129.627071
 20
4.907338
 30
0.0
 10
126.818949
 20
3.645325
 30
0.0
 10
124.950660
 20
3.277279
 30
0.0
 10
123.224496
 20
4.215668
 30
0.0
 10
120.812441
 20
6.300415
 30
0.0
 10
119.353147
 20
9.308001
 30
0.0
 10
118.579742
 20
11.169200
 30
0.0
 10
117.117176
 20
11.362466
 30
0.0
 10
114.684480
 20
11.716288
 30
0.0
 10
112.267111
 20
12.139988
 30
0.0
 10
110.819875
 20
12.403132
 30
0.0
 10
109.579088
 20
10.327641
 30
0.0
 10
107.014792
 20
7.410790
 30
0.0
 10
103.326421
 20
6.720362
 30
0.0
 10
100.961560
 20
6.871322
 30
0.0
 10
99.004986
 20
8.653217
 30
0.0
 10
96.509205
 20
12.136008
 30
0.0
 10
96.404955
 20
16.465732
 30
0.0
 10
96.839913
 20
19.094542
 30
0.0
 10
96.135546
 20
20.004251
 30
0.0
 10
94.930059
 20
21.556699
 30
0.0
 10
94.056928
 20
23.349936
 30
0.0
 10
93.684917
 20
24.500435
 30
0.0
 10
92.220895
 20
24.808766
 30
0.0
 10
89.900427
 20
25.553973
 30
0.0
 10
88.553013
 20
27.331855
 30
0.0
 10
88.062051
 20
28.672859
 30
0.0
 10
88.226265
 20
31.504829
 30
0.0
 10
89.434173
 20
35.932326
 30
0.0
 10
92.911038
 20
38.942802
 30
0.0
 10
95.344214
 20
40.357754
 30
0.0
 10
97.722337
 20
45.250671
 30
0.0
 10
101.291240
 20
53.556085
 30
0.0
 10
103.331275
 20
62.334249
 30
0.0
 10
104.180527
 20
67.699914
 30
0.0
 10
104.198081
 20
71.826164
 30
0.0
 10
103.652839
 20
78.657242
 30
0.0
 10
101.602910
 20
85.218367
 30
0.0
 10
100.115785
 20
89.074663
 30
0.0
 10
95.811628
 20
91.636064
 30
0.0
 10
88.108358
 20
93.885392
 30
0.0
 10
80.761984
 20
90.401728
 30
0.0
 10
76.814722
 20
87.230138
 30
0.0
 10
74.211358
 20
83.338623
 30
0.0
 10
70.379768
 20
76.592073
 30
0.0
 10
68.550705
 20
69.120330
 30
0.0
 10
67.949871
 20
64.503623
 30
0.0
 10
68.242775
 20
61.370660
 30
0.0
 10
68.994802
 20
56.179100
 30
0.0
 10
70.162248
 20
51.044355
 30
0.0
 10
70.870572
 20
47.968206
 30
0.0
 10
71.694568
 20
47.177555
 30
0.0
 10
73.245994
 20
45.964939
 30
0.0
 10
74.496986
 20
44.459168
 30
0.0
 10
75.020545
 20
43.375356
 30
0.0
 10
75.212866
 20
41.082433
 30
0.0
 10
74.934414
 20
37.335238
 30
0.0
 10
72.791114
 20
34.387811
 30
0.0
 10
71.118589
 20
32.894658
 30
0.0
 10
69.721010
 20
32.096511
 30
0.0
 10
67.738591
 20
30.317740
 30
0.0
 10
66.159462
 20
27.946667
 30
0.0
 10
65.165173
 20
26.556218
 30
0.0
 10
64.242922
 20
25.492641
 30
0.0
 10
62.612431
 20
23.809752
 30
0.0
 10
60.697042
 20
22.470834
 30
0.0
 10
59.489899
 20
21.751226
 30
0.0
 10
59.363661
 20
19.249194
 30
0.0
 10
58.340032
 20
15.381976
 30
0.0
 10
55.090715
 20
13.385209
 30
0.0
 10
52.738790
 20
12.753624
 30
0.0
 10
51.502804
 20
13.088734
 30
0.0
 10
49.625716
 20
13.980472
 30
0.0
 10
48.437859
 20
15.680059
 30
0.0
 10
47.891099
 20
16.822983
 30
0.0
 10
46.194732
 20
16.699996
 30
0.0
 10
43.360007
 20
16.471692
 30
0.0
 10
40.596275
 20
16.366754
 30
0.0
 10
38.970901
 20
16.367036
 30
0.0
 10
37.177819
 20
13.708257
 30
0.0
 10
33.272566
 20
10.530322
 30
0.0
 10
28.389555
 20
11.564779
 30
0.0
 10
25.618712
 20
13.118413
 30
0.0
 10
25.065719
 20
14.296126
 30
0.0
 10
24.267262
 20
16.315375
 30
0.0
 10
22.978501
 20
17.646823
 30
0.0
 10
21.935202
 20
18.136733
 30
0.0
 10
20.425704
 20
18.558398
 30
0.0
 10
17.976755
 20
19.485259
 30
0.0
 10
15.560798
 20
20.426611
 30
0.0
 10
14.084292
 20
20.862765
 30
0.0
 10
11.438737
 20
20.576036
 30
0.0
 10
7.414786
 20
21.553468
 30
0.0
 10
5.559950
 20
25.557558
 30
0.0
 10
5.083510
 20
28.297489
 30
0.0
 10
5.744504
 20
29.907104
 30
0.0
 10
6.889476
 20
32.571313
 30
0.0
 10
7.255816
 20
35.301291
 30
0.0
 10
7.138177
 20
36.976672
 30
0.0
 10
7.492554
 20
40.728292
 30
0.0
 10
9.153440
 20
46.624857
 30
0.0
 10
13.332567
 20
51.280725
 30
0.0
 10
16.205184
 20
53.791653
 30
0.0
 10
18.786446
 20
55.242394
 30
0.0
 10
23.260683
 20
57.295868
 30
0.0
 10
28.076866
 20
58.428050
 30
0.0
 10
31.000076
 20
58.957496
 30
0.0
 10
32.092420
 20
58.767691
 30
0.0
 10
33.927886
 20
58.317222
 30
0.0
 10
34.906534
 20
58.546191
 30
0.0
 10
35.142066
 20
59.035822
 30
0.0
 10
34.317827
 20
62.235623
 30
0.0
 10
33.375346
 20
67.609467
 30
0.0
 10
34.235387
 20
72.901896
 30
0.0
 10
35.213668
 20
76.020282
 30
0.0
 10
36.414862
 20
78.190633
 30
0.0
 10
38.725862
 20
81.578877
 30
0.0
 10
41.837695
 20
84.266923
 30
0.0
 10
43.839725
 20
85.737075
 30
0.0
 10
42.234601
 20
90.209989
 30
0.0
 10
40.702402
 20
97.830035
 30
0.0
 10
42.919469
 20
105.162574
 30
0.0
 10
45.063613
 20
109.347981
 30
0.0
 10
46.234669
 20
110.481024
 30
0.0
 10
48.248265
 20
112.273107
 30
0.0
 10
49.582423
 20
114.365277
 30
0.0
 10
50.074040
 20
115.798404
 30
0.0
 10
51.171066
 20
119.525493
 30
0.0
 10
53.667731
 20
125.423954
 30
0.0
 10
58.286478
 20
129.668288
 30
0.0
 10
61.505584
 20
131.741250
 30
0.0
 10
63.479714
 20
132.200245
 30
0.0
 10
66.805505
 20
132.758808
 30
0.0
 10
70.073356
 20
132.308240
 30
0.0
 10
71.989546
 20
131.758099
 30
0.0
 10
73.959136
 20
133.852413
 30
0.0
 10
77.470265
 20
137.087462
 30
0.0
 10
81.614109
 20
139.378739
 30
0.0
 10
84.216415
 20
140.529283
 30
0.0
 10
86.670555
 20
140.361262
 30
0.0
 10
90.612714
 20
139.495258
 30
0.0
 10
93.859217
 20
137.077694
 30
0.0
 10
95.617705
 20
135.358114
 30
0.0
 10
98.486578
 20
136.466257
 30
0.0
 10
103.402076
 20
137.562806
 30
0.0
 10
108.182983
 20
136.185956
 30
0.0
 10
110.917268
 20
134.820706
 30
0.0
 10
112.350223
 20
133.573394
 30
0.0
 10
114.513693
 20
131.303949
 30
0.0
 10
115.952383
 20
128.518981
 30
0.0
 10
116.660557
 20
126.756142
 30
0.0
 10
118.386959
 20
126.474656
 30
0.0
 10
121.230452
 20
125.816977
 30
0.0
 10
123.749412
 20
124.346379
 30
0.0
 10
125.151284
 20
123.251972
 30
0.0
 10
126.941648
 20
120.870809
 30
0.0
 10
129.571778
 20
116.695052
 30
0.0
 10
131.012864
 20
111.988565
 30
0.0
 10
131.614184
 20
109.076672
 30
0.0
 10
132.731479
 20
108.651211
 30
0.0
 10
134.379256
 20
107.491280
 30
0.0
 10
135.809561
 20
105.738570
 30
0.0
 10
136.709381
 20
104.720335
 30
0.0
 10
138.043776
 20
101.802707
 30
0.0
 10
139.581323
 20
96.758304
 30
0.0
 10
139.123434
 20
91.470741
 30
0.0
 10
138.462393
 20
88.309954
 30
0.0
 10
138.765557
 20
87.034978
 30
0.0
 10
139.492654
 20
84.912929
 30
0.0
 10
140.324707
 20
82.724178
 30
0.0
 10
140.732823
 20
81.382496
 30
0.0
 10
141.066799
 20
77.998762
 30
0.0
 10
140.949827
 20
72.412060
 30
0.0
 10
138.759684
 20
67.293384
 30
0.0
 10
137.020492
 20
64.377676
 30
0.0
 10
136.374437
 20
62.939516
 30
0.0
 10
135.803104
 20
60.400411
 30
0.0
 10
135.839756
 20
57.633011
 30
0.0
 10
135.801693
 20
55.966553
 30
0.0
 10
135.204626
 20
53.103155
 30
0.0
 10
133.765516
 20
48.489646
 30
0.0
 10
131.142811
 20
44.418093
 30
0.0
 10
129.362155
 20
42.096649
 30
0.0
 10
130.362839
 20
41.855389
 30
0.0
 10
132.279624
 20
41.541899
 30
0.0
 10
134.499217
 20
41.214126
 30
0.0
 10
135.802709
 20
40.958579
 30
0.0
 10
137.606436
 20
40.000604
 30
0.0
 10
140.493188
 20
38.210215
 30
0.0
 10
142.638049
 20
35.703861
 30
0.0
 10
143.699879
 20
34.029925
 30
0.0
 10
144.576924
 20
35.086009
 30
0.0
 10
146.070887
 20
36.821758
 30
0.0
 10
147.668206
 20
38.470062
 30
0.0
 10
148.648612
 20
39.438700
 30
0.0
 10
147.928736
 20
40.901579
 30
0.0
 10
146.677823
 20
43.319250
 30
0.0
 10
145.301256
 20
45.638724
 30
0.0
 10
144.455721
 20
47.003410
 30
0.0
 10
142.739432
 20
48.651441
 30
0.0
 10
140.822172
 20
51.901227
 30
0.0
 10
141.717765
 20
55.694398
 30
0.0
 10
142.814328
 20
57.885814
 30
0.0
 10
144.998378
 20
59.275775
 30
0.0
 10
148.897295
 20
60.463208
 30
0.0
 10
152.019150
 20
58.200765
 30
0.0
 10
153.426137
 20
56.140851
 30
0.0
 10
153.236854
 20
54.654581
 30
0.0
 10
152.822981
 20
52.202033
 30
0.0
 10
153.131012
 20
49.915542
 30
0.0
 10
153.663630
 20
48.595324
 30
0.0
 10
154.317861
 20
47.640032
 30
0.0
 10
155.428462
 20
46.040318
 30
0.0
 10
156.749188
 20
44.831100
 30
0.0
 10
157.613542
 20
44.266306
 30
0.0
 10
158.838530
 20
44.397491
 30
0.0
 10
160.872870
 20
44.384170
 30
0.0
 10
162.834969
 20
43.810350
 30
0.0
 10
163.987720
 20
43.381037
 30
0.0
 10
164.861782
 20
45.065678
 30
0.0
 10
166.271753
 20
47.897512
 30
0.0
 10
167.519014
 20
50.803157
 30
0.0
 10
168.230369
 20
52.561607
 30
0.0
 10
167.570029
 20
55.087631
 30
0.0
 10
167.857077
 20
59.123200
 30
0.0
 10
171.355300
 20
61.368716
 30
0.0
 10
173.906129
 20
62.104689
 30
0.0
 10
176.121921
 20
61.288861
 30
0.0
 10
179.030413
 20
58.953573
 30
0.0
 10
179.738418
 20
54.905474
 30
0.0
 10
179.753714
 20
52.376836
 30
0.0
 10
179.055395
 20
50.944990
 30
0.0
 10
177.554283
 20
48.788824
 30
0.0
 10
175.813280
 20
46.733148
 30
0.0
 10
174.875066
 20
45.401790
 30
0.0
 10
174.216565
 20
44.040692
 30
0.0
 10
173.202016
 20
41.727979
 30
0.0
 10
172.521380
 20
39.329804
 30
0.0
 10
172.196794
 20
37.883241
 30
0.0
 10
173.384676
 20
34.981906
 30
0.0
 10
174.793851
 20
29.980160
 30
0.0
 10
174.512060
 20
24.772621
 30
0.0
 10
174.008977
 20
21.665493
 30
0.0
 10
173.016226
 20
19.742702
 30
0.0
 10
171.171455
 20
16.658732
 30
0.0
 10
168.846703
 20
13.929353
 30
0.0
 10
167.373972
 20
12.361129
 30
0.0
 10
166.931744
 20
9.365086
 30
0.0
 10
164.887955
 20
5.108949
 30
0.0
 10
160.285433
 20
4.192799
 30
0.0
 10
157.284471
 20
4.536772
 30
0.0
 10
156.682375
 20
5.564117
 30
0.0
 10
155.934568
 20
7.406633
 30
0.0
 10
155.599415
 20
9.293796
 30
0.0
 10
155.409971
 20
10.365846
 30
0.0
 10
154.212931
 20
10.188638
 30
0.0
 10
152.400858
 20
9.714844
 30
0.0
 10
151.430753
 20
8.296423
 30
0.0
 10
151.075684
 20
7.174590
 30
0.0
 10
150.108347
 20
5.893668
 30
0.0
 10
148.319913
 20
4.028800
 30
0.0
 10
145.923652
 20
3.276480
 30
0.0
 10
144.348485
 20
3.108106
 30
0.0
 10
144.348434
 20
3.108106
 30
0.0
 10
144.348395
 20
3.108199
 30
0.0
  0
LWPOLYLINE
  5
101
100
AcDbEntity
  8
0
 62
7
100
AcDbPolyline
 90
293
 70
0
 10
127.005670
 20
4.417146
 30
0.0
 10
128.210395
 20
5.289636
 30
0.0
 10
129.980995
 20
6.957908
 30
0.0
 10
130.846150
 20
9.198894
 30
0.0
 10
131.145432
 20
10.644125
 30
0.0
 10
132.340649
 20
10.731840
 30
0.0
 10
134.415922
 20
10.741436
 30
0.0
 10
136.601968
 20
10.790006
 30
0.0
 10
137.907954
 20
10.916611
 30
0.0
 10
138.962466
 20
10.978361
 30
0.0
 10
140.333750
 20
10.491725
 30
0.0
 10
140.909441
 20
8.823256
 30
0.0
 10
141.168363
 20
7.703144
 30
0.0
 10
142.224895
 20
6.248768
 30
0.0
 10
144.408545
 20
4.474183
 30
0.0
 10
147.097358
 20
4.973632
 30
0.0
 10
148.659060
 20
5.793233
 30
0.0
 10
149.370570
 20
6.738283
 30
0.0
 10
150.185820
 20
8.448295
 30
0.0
 10
150.616271
 20
10.037997
 30
0.0
 10
150.942985
 20
10.862763
 30
0.0
 10
152.064283
 20
10.983667
 30
0.0
 10
153.926704
 20
11.257592
 30
0.0
 10
155.750692
 20
11.482946
 30
0.0
 10
156.833556
 20
11.555280
 30
0.0
 10
156.832145
 20
9.904139
 30
0.0
 10
157.102866
 20
7.208098
 30
0.0
 10
158.741113
 20
5.471839
 30
0.0
 10
160.107351
 20
4.780479
 30
0.0
 10
162.268117
 20
5.330078
 30
0.0
 10
165.366567
 20
7.098088
 30
0.0
 10
166.105535
 20
10.495564
 30
0.0
 10
165.906820
 20
12.674573
 30
0.0
 10
168.476481
 20
15.373893
 30
0.0
 10
172.144769
 20
20.290241
 30
0.0
 10
173.495947
 20
26.212053
 30
0.0
 10
173.748497
 20
29.916838
 30
0.0
 10
173.449909
 20
31.495713
 30
0.0
 10
172.812820
 20
34.086892
 30
0.0
 10
171.760075
 20
36.486480
 30
0.0
 10
171.045827
 20
37.873766
 30
0.0
 10
171.763682
 20
40.259710
 30
0.0
 10
173.173212
 20
44.175890
 30
0.0
 10
175.275034
 20
47.736993
 30
0.0
 10
176.685183
 20
49.767858
 30
0.0
 10
177.780623
 20
51.165236
 30
0.0
 10
178.944389
 20
53.838914
 30
0.0
 10
178.531461
 20
56.936173
 30
0.0
 10
178.050207
 20
58.757133
 30
0.0
 10
175.977646
 20
60.147266
 30
0.0
 10
172.176875
 20
61.084727
 30
0.0
 10
169.164051
 20
58.410505
 30
0.0
 10
167.879435
 20
56.188953
 30
0.0
 10
168.270538
 20
55.013605
 30
0.0
 10
168.860515
 20
53.060198
 30
0.0
 10
168.664139
 20
51.098550
 30
0.0
 10
168.268884
 20
49.914958
 30
0.0
 10
167.555336
 20
48.344662
 30
0.0
 10
166.393639
 20
45.702797
 30
0.0
 10
164.947002
 20
43.302522
 30
0.0
 10
163.948516
 20
41.973817
 30
0.0
 10
162.742857
 20
42.586477
 30
0.0
 10
160.658421
 20
43.348886
 30
0.0
 10
158.484070
 20
43.179443
 30
0.0
 10
157.188501
 20
42.860246
 30
0.0
 10
155.921682
 20
44.116084
 30
0.0
 10
153.973840
 20
46.391453
 30
0.0
 10
152.326608
 20
48.964366
 30
0.0
 10
151.360401
 20
50.517751
 30
0.0
 10
151.949700
 20
52.418374
 30
0.0
 10
152.474445
 20
55.622538
 30
0.0
 10
151.041800
 20
58.180381
 30
0.0
 10
149.673714
 20
59.434678
 30
0.0
 10
146.877834
 20
58.846775
 30
0.0
 10
143.017457
 20
56.632276
 30
0.0
 10
142.389741
 20
52.159330
 30
0.0
 10
142.826523
 20
49.312984
 30
0.0
 10
143.724661
 20
48.651144
 30
0.0
 10
145.193162
 20
47.558524
 30
0.0
 10
146.312746
 20
46.128981
 30
0.0
 10
146.861965
 20
45.130222
 30
0.0
 10
147.520107
 20
43.935459
 30
0.0
 10
148.654493
 20
41.939587
 30
0.0
 10
149.365355
 20
39.967635
 30
0.0
 10
149.599975
 20
38.796797
 30
0.0
 10
148.385468
 20
37.721939
 30
0.0
 10
146.477290
 20
35.831005
 30
0.0
 10
145.003856
 20
33.595633
 30
0.0
 10
144.224090
 20
32.176335
 30
0.0
 10
143.455446
 20
32.749429
 30
0.0
 10
142.416239
 20
34.179438
 30
0.0
 10
141.278954
 20
35.955127
 30
0.0
 10
140.412230
 20
36.873901
 30
0.0
 10
138.481003
 20
38.252613
 30
0.0
 10
135.047296
 20
40.098211
 30
0.0
 10
131.158697
 20
40.725393
 30
0.0
 10
128.772576
 20
40.885687
 30
0.0
 10
128.115376
 20
41.292872
 30
0.0
 10
127.955415
 20
42.303270
 30
0.0
 10
129.297049
 20
43.824746
 30
0.0
 10
130.141447
 20
44.743007
 30
0.0
 10
131.906515
 20
47.611881
 30
0.0
 10
134.177586
 20
52.673762
 30
0.0
 10
134.663115
 20
58.250039
 30
0.0
 10
134.642654
 20
61.633307
 30
0.0
 10
134.893121
 20
62.661361
 30
0.0
 10
135.682420
 20
64.321672
 30
0.0
 10
136.921920
 20
65.950528
 30
0.0
 10
137.622588
 20
66.947126
 30
0.0
 10
139.038539
 20
70.642267
 30
0.0
 10
140.405121
 20
76.991479
 30
0.0
 10
138.923324
 20
83.336447
 30
0.0
 10
137.490897
 20
87.027344
 30
0.0
 10
137.798962
 20
88.667292
 30
0.0
 10
138.408500
 20
91.413532
 30
0.0
 10
138.746842
 20
94.235164
 30
0.0
 10
138.783709
 20
95.950505
 30
0.0
 10
138.431722
 20
98.412225
 30
0.0
 10
137.338689
 20
102.361728
 30
0.0
 10
134.783122
 20
105.495303
 30
0.0
 10
132.968596
 20
107.141093
 30
0.0
 10
131.829212
 20
107.347098
 30
0.0
 10
130.526804
 20
108.226283
 30
0.0
 10
130.376611
 20
110.178595
 30
0.0
 10
130.389452
 20
111.457727
 30
0.0
 10
129.615904
 20
114.003995
 30
0.0
 10
127.959064
 20
118.111297
 30
0.0
 10
125.299380
 20
121.661903
 30
0.0
 10
123.522986
 20
123.651474
 30
0.0
 10
122.294896
 20
124.366493
 30
0.0
 10
120.132935
 20
125.277015
 30
0.0
 10
117.819003
 20
125.241325
 30
0.0
 10
116.438942
 20
125.010131
 30
0.0
 10
115.820294
 20
126.569294
 30
0.0
 10
114.758002
 20
129.175235
 30
0.0
 10
113.229407
 20
131.533252
 30
0.0
 10
112.144454
 20
132.844488
 30
0.0
 10
110.269949
 20
134.283886
 30
0.0
 10
106.934008
 20
136.232063
 30
0.0
 10
103.127302
 20
136.575299
 30
0.0
 10
100.782027
 20
136.409756
 30
0.0
 10
99.530448
 20
136.136633
 30
0.0
 10
97.523774
 20
135.437167
 30
0.0
 10
95.701381
 20
134.300213
 30
0.0
 10
94.634075
 20
133.589594
 30
0.0
 10
93.878682
 20
135.293923
 30
0.0
 10
92.080983
 20
137.780213
 30
0.0
 10
89.201247
 20
139.169116
 30
0.0
 10
87.363816
 20
139.776060
 30
0.0
 10
84.340920
 20
139.244737
 30
0.0
 10
79.569237
 20
137.555643
 30
0.0
 10
75.575628
 20
134.195977
 30
0.0
 10
73.330805
 20
131.994082
 30
0.0
 10
72.693756
 20
131.231452
 30
0.0
 10
71.397207
 20
130.873541
 30
0.0
 10
69.497784
 20
131.612260
 30
0.0
 10
68.257857
 20
131.946262
 30
0.0
 10
65.628328
 20
131.665911
 30
0.0
 10
61.367055
 20
130.777283
 30
0.0
 10
57.730734
 20
128.462756
 30
0.0
 10
55.726158
 20
126.756503
 30
0.0
 10
54.208375
 20
124.325737
 30
0.0
 10
52.052852
 20
120.087956
 30
0.0
 10
51.223029
 20
115.424998
 30
0.0
 10
51.030940
 20
112.569056
 30
0.0
 10
48.879743
 20
111.307325
 30
0.0
 10
45.660014
 20
108.699615
 30
0.0
 10
43.501231
 20
105.048729
 30
0.0
 10
42.410978
 20
102.743823
 30
0.0
 10
41.948856
 20
99.578153
 30
0.0
 10
41.807773
 20
94.313557
 30
0.0
 10
43.399072
 20
89.269501
 30
0.0
 10
44.669332
 20
86.324368
 30
0.0
 10
44.327566
 20
85.349519
 30
0.0
 10
43.155218
 20
83.935154
 30
0.0
 10
41.264036
 20
82.660387
 30
0.0
 10
40.203439
 20
81.825139
 30
0.0
 10
38.074371
 20
78.823923
 30
0.0
 10
35.162357
 20
73.509529
 30
0.0
 10
34.624013
 20
67.556943
 30
0.0
 10
34.868615
 20
63.917535
 30
0.0
 10
35.235478
 20
62.374544
 30
0.0
 10
36.010136
 20
59.848198
 30
0.0
 10
36.876304
 20
57.407272
 30
0.0
 10
37.334673
 20
55.949696
 30
0.0
 10
35.930755
 20
56.528878
 30
0.0
 10
33.524723
 20
57.492142
 30
0.0
 10
30.944964
 20
57.844776
 30
0.0
 10
29.367319
 20
57.813328
 30
0.0
 10
24.817428
 20
56.581462
 30
0.0
 10
17.607191
 20
53.700690
 30
0.0
 10
12.016035
 20
48.397954
 30
0.0
 10
9.085224
 20
44.744125
 30
0.0
 10
8.562784
 20
42.742975
 30
0.0
 10
8.013271
 20
39.379286
 30
0.0
 10
8.387193
 20
35.989879
 30
0.0
 10
8.788188
 20
33.963005
 30
0.0
 10
7.527431
 20
31.747399
 30
0.0
 10
6.083748
 20
27.871235
 30
0.0
 10
7.173640
 20
24.101646
 30
0.0
 10
8.446455
 20
21.992617
 30
0.0
 10
9.685698
 20
21.452872
 30
0.0
 10
11.774438
 20
21.049086
 30
0.0
 10
13.826250
 20
21.825499
 30
0.0
 10
15.028562
 20
22.465954
 30
0.0
 10
16.701384
 20
21.413804
 30
0.0
 10
19.613696
 20
19.923598
 30
0.0
 10
22.812320
 20
19.228202
 30
0.0
 10
24.771452
 20
18.970866
 30
0.0
 10
25.211176
 20
17.185232
 30
0.0
 10
26.226824
 20
14.342619
 30
0.0
 10
28.325527
 20
12.352078
 30
0.0
 10
29.848305
 20
11.418515
 30
0.0
 10
31.967266
 20
11.607180
 30
0.0
 10
35.252268
 20
12.551016
 30
0.0
 10
37.158927
 20
15.265698
 30
0.0
 10
37.899546
 20
17.225192
 30
0.0
 10
39.223199
 20
17.426349
 30
0.0
 10
41.485933
 20
17.537519
 30
0.0
 10
43.825123
 20
17.514010
 30
0.0
 10
45.225233
 20
17.580484
 30
0.0
 10
46.470099
 20
17.937566
 30
0.0
 10
48.273239
 20
17.901202
 30
0.0
 10
49.472288
 20
16.325081
 30
0.0
 10
50.113065
 20
15.142403
 30
0.0
 10
52.040979
 20
14.382861
 30
0.0
 10
55.257102
 20
14.108485
 30
0.0
 10
57.505868
 20
16.442429
 30
0.0
 10
58.466426
 20
18.291188
 30
0.0
 10
58.448900
 20
19.563716
 30
0.0
 10
58.549517
 20
21.566980
 30
0.0
 10
59.656861
 20
22.930023
 30
0.0
 10
60.646053
 20
23.562331
 30
0.0
 10
62.468591
 20
25.249269
 30
0.0
 10
65.293912
 20
28.258235
 30
0.0
 10
67.419700
 20
31.795428
 30
0.0
 10
68.542707
 20
34.010590
 30
0.0
 10
70.552124
 20
34.435747
 30
0.0
 10
73.329803
 20
36.129960
 30
0.0
 10
74.281713
 20
39.613319
 30
0.0
 10
74.465361
 20
41.827615
 30
0.0
 10
74.115010
 20
43.021503
 30
0.0
 10
73.168073
 20
44.767846
 30
0.0
 10
71.374562
 20
45.715074
 30
0.0
 10
70.177637
 20
46.109841
 30
0.0
 10
69.107394
 20
50.894930
 30
0.0
 10
67.535662
 20
58.909098
 30
0.0
 10
67.484145
 20
66.974278
 30
0.0
 10
67.934118
 20
71.810379
 30
0.0
 10
69.382507
 20
75.795413
 30
0.0
 10
72.291586
 20
82.204276
 30
0.0
 10
76.423071
 20
87.930901
 30
0.0
 10
79.093864
 20
91.233694
 30
0.0
 10
83.315079
 20
93.144322
 30
0.0
 10
90.647478
 20
94.822610
 30
0.0
 10
97.434900
 20
91.850544
 30
0.0
 10
101.111135
 20
89.110819
 30
0.0
 10
102.665953
 20
84.879650
 30
0.0
 10
104.747328
 20
77.688924
 30
0.0
 10
105.064004
 20
70.234052
 30
0.0
 10
104.854124
 20
65.738738
 30
0.0
 10
103.880547
 20
60.466996
 30
0.0
 10
101.663362
 20
51.837676
 30
0.0
 10
98.019921
 20
43.672016
 30
0.0
 10
95.620092
 20
38.863932
 30
0.0
 10
93.244532
 20
37.651666
 30
0.0
 10
89.991176
 20
34.891025
 30
0.0
 10
89.127234
 20
30.639065
 30
0.0
 10
89.141091
 20
27.935483
 30
0.0
 10
90.246443
 20
27.074180
 30
0.0
 10
92.403563
 20
26.037793
 30
0.0
 10
94.261093
 20
24.783871
 30
0.0
 10
95.066858
 20
23.705034
 30
0.0
 10
95.829363
 20
22.535118
 30
0.0
 10
97.217515
 20
20.679383
 30
0.0
 10
97.671952
 20
18.721907
 30
0.0
 10
97.500739
 20
17.450250
 30
0.0
 10
97.488462
 20
14.682469
 30
0.0
 10
98.530049
 20
10.386369
 30
0.0
 10
102.211827
 20
8.234396
 30
0.0
 10
104.839750
 20
7.610770
 30
0.0
 10
106.248414
 20
8.389675
 30
0.0
 10
108.302256
 20
10.044767
 30
0.0
 10
109.536007
 20
12.443684
 30
0.0
 10
110.124579
 20
13.966358
 30
0.0
 10
111.903022
 20
13.517963
 30
0.0
 10
114.889077
 20
12.865324
 30
0.0
 10
117.905194
 20
12.340024
 30
0.0
 10
119.713700
 20
12.018940
 30
0.0
 10
120.440018
 20
9.854662
 30
0.0
 10
121.965164
 20
6.480780
 30
0.0
 10
124.884775
 20
4.844117
 30
0.0
 10
127.005670
 20
4.417146
 30
0.0
  0
LWPOLYLINE
  5
102
100
AcDbEntity
  8
0
 62
7
100
AcDbPolyline
 90
5
 70
0
 10
132.050372
 20
107.994973
 30
0.0
 10
131.529401
 20
108.064067
 30
0.0
 10
131.002591
 20
108.081762
 30
0.0
 10
131.523559
 20
108.012669
 30
0.0
 10
132.050372
 20
107.994973
 30
0.0
  0
ENDSEC
  0
SECTION
  2
OBJECTS
  0
DICTIONARY
  5
C
330
0
100
AcDbDictionary
  3
ACAD_GROUP
350
D
  3
ACAD_MLINESTYLE
350
17
  0
DICTIONARY
  5
D
330
C
100
AcDbDictionary
  0
DICTIONARY
  5
1A
330
C
100
AcDbDictionary
  0
DICTIONARY
  5
17
330
C
100
AcDbDictionary
  3
STANDARD
350
18
  0
DICTIONARY
  5
19
330
C
100
AcDbDictionary
  0
ENDSEC
  0
EOF
