  0
SECTION
  2
HEADER
  9
$ACADVER
  1
AC1014
  9
$HANDSEED
  5
FFFF
  9
$MEASUREMENT
 70
     1
  0
ENDSEC
  0
SECTION
  2
TABLES
  0
TABLE
  2
VPORT
  5
8
330
0
100
AcDbSymbolTable
 70
     4
  0
VPORT
  5
2E
330
8
100
AcDbSymbolTableRecord
100
AcDbViewportTableRecord
  2
*ACTIVE
 70
     0
 10
0.0
 20
0.0
 11
1.0
 21
1.0
 12
210.0
 22
148.5
 13
0.0
 23
0.0
 14
10.0
 24
10.0
 15
10.0
 25
10.0
 16
0.0
 26
0.0
 36
1.0
 17
0.0
 27
0.0
 37
0.0
 40
341.0
 41
1.24
 42
50.0
 43
0.0
 44
0.0
 50
0.0
 51
0.0
 71
     0
 72
   100
 73
     1
 74
     3
 75
     0
 76
     0
 77
     0
 78
     0
  0
ENDTAB
  0
TABLE
  2
LTYPE
  5
5
330
0
100
AcDbSymbolTable
 70
     1
  0
LTYPE
  5
14
330
5
100
AcDbSymbolTableRecord
100
AcDbLinetypeTableRecord
  2
BYBLOCK
 70
     0
  3

 72
    65
 73
     0
 40
0.0
  0
LTYPE
  5
15
330
5
100
AcDbSymbolTableRecord
100
AcDbLinetypeTableRecord
  2
BYLAYER
 70
     0
  3

 72
    65
 73
     0
 40
0.0
  0
LTYPE
  5
16
330
5
100
AcDbSymbolTableRecord
100
AcDbLinetypeTableRecord
  2
CONTINUOUS
 70
     0
  3
Solid line
 72
    65
 73
     0
 40
0.0
  0
ENDTAB
  0
TABLE
  2
LAYER
  5
2
100
AcDbSymbolTable
 70
2
  0
LAYER
  5
50
100
AcDbSymbolTableRecord
100
AcDbLayerTableRecord
  2
0
 70
0
  6
CONTINUOUS
  0
LAYER
  5
51
100
AcDbSymbolTableRecord
100
AcDbLayerTableRecord
  2
Ebene_1
 70
0
  6
CONTINUOUS
  0
ENDTAB
  0
TABLE
  2
STYLE
  5
3
330
0
100
AcDbSymbolTable
 70
     1
  0
STYLE
  5
11
330
3
100
AcDbSymbolTableRecord
100
AcDbTextStyleTableRecord
  2
STANDARD
 70
     0
 40
0.0
 41
1.0
 50
0.0
 71
     0
 42
2.5
  3
txt
  4

  0
ENDTAB
  0
TABLE
  2
VIEW
  5
6
330
0
100
AcDbSymbolTable
 70
     0
  0
ENDTAB
  0
TABLE
  2
UCS
  5
7
330
0
100
AcDbSymbolTable
 70
     0
  0
ENDTAB
  0
TABLE
  2
APPID
  5
9
330
0
100
AcDbSymbolTable
 70
     2
  0
APPID
  5
12
330
9
100
AcDbSymbolTableRecord
100
AcDbRegAppTableRecord
  2
ACAD
 70
     0
  0
ENDTAB
  0
TABLE
  2
DIMSTYLE
  5
A
330
0
100
AcDbSymbolTable
 70
     1
  0
DIMSTYLE
105
27
330
A
100
AcDbSymbolTableRecord
100
AcDbDimStyleTableRecord
  2
ISO-25
 70
     0
  3

  4

  5

  6

  7

 40
1.0
 41
2.5
 42
0.625
 43
3.75
 44
1.25
 45
0.0
 46
0.0
 47
0.0
 48
0.0
140
2.5
141
2.5
142
0.0
143
0.03937007874016
144
1.0
145
0.0
146
1.0
147
0.625
 71
     0
 72
     0
 73
     0
 74
     0
 75
     0
 76
     0
 77
     1
 78
     8
170
     0
171
     3
172
     1
173
     0
174
     0
175
     0
176
     0
177
     0
178
     0
270
     2
271
     2
272
     2
273
     2
274
     3
340
11
275
     0
280
     0
281
     0
282
     0
283
     0
284
     8
285
     0
286
     0
287
     3
288
     0
  0
ENDTAB
  0
TABLE
  2
BLOCK_RECORD
  5
1
330
0
100
AcDbSymbolTable
 70
     1
  0
BLOCK_RECORD
  5
1F
330
1
100
AcDbSymbolTableRecord
100
AcDbBlockTableRecord
  2
*MODEL_SPACE
  0
BLOCK_RECORD
  5
1B
330
1
100
AcDbSymbolTableRecord
100
AcDbBlockTableRecord
  2
*PAPER_SPACE
  0
ENDTAB
  0
ENDSEC
  0
SECTION
  2
BLOCKS
  0
BLOCK
  5
20
330
1F
100
AcDbEntity
  8
0
100
AcDbBlockBegin
  2
*MODEL_SPACE
 70
     0
 10
0.0
 20
0.0
 30
0.0
  3
*MODEL_SPACE
  1

  0
ENDBLK
  5
21
330
1F
100
AcDbEntity
  8
0
100
AcDbBlockEnd
  0
BLOCK
  5
1C
330
1B
100
AcDbEntity
 67
     1
  8
0
100
AcDbBlockBegin
  2
*PAPER_SPACE
  1

  0
ENDBLK
  5
1D
330
1B
100
AcDbEntity
 67
     1
  8
0
100
AcDbBlockEnd
  0
ENDSEC
  0
SECTION
  2
ENTITIES
  0
SPLINE
  5
100
100
AcDbEntity
  8
Ebene_1
 62
7
100
AcDbSpline
 70
8
 71
3
 72
8
 73
4
 74
0
 40
0
 40
0
 40
0
 40
0
 40
1
 40
1
 40
1
 40
1
 10
46.493295
 20
73.923052
 30
0.0
 10
46.207090
 20
73.928132
 30
0.0
 10
45.920527
 20
73.908997
 30
0.0
 10
45.633358
 20
73.868453
 30
0.0
  0
LINE
  5
101
100
AcDbEntity
  8
Ebene_1
 62
7
100
AcDbLine
 10
45.633358
 20
73.868453
 30
0.0
 11
45.628786
 21
73.868453
 31
0.0
  0
LINE
  5
102
100
AcDbEntity
  8
Ebene_1
 62
7
100
AcDbLine
 10
45.628786
 20
73.868453
 30
0.0
 11
45.619670
 21
73.868453
 31
0.0
  0
SPLINE
  5
103
100
AcDbEntity
  8
Ebene_1
 62
7
100
AcDbSpline
 70
8
 71
3
 72
8
 73
4
 74
0
 40
0
 40
0
 40
0
 40
0
 40
1
 40
1
 40
1
 40
1
 10
45.619670
 20
73.868453
 30
0.0
 10
44.359373
 20
73.497065
 30
0.0
 10
43.186914
 20
72.869276
 30
0.0
 10
42.120775
 20
72.080335
 30
0.0
  0
SPLINE
  5
104
100
AcDbEntity
  8
Ebene_1
 62
7
100
AcDbSpline
 70
8
 71
3
 72
8
 73
4
 74
0
 40
0
 40
0
 40
0
 40
0
 40
1
 40
1
 40
1
 40
1
 10
42.120775
 20
72.080335
 30
0.0
 10
41.071106
 20
71.303583
 30
0.0
 10
40.128579
 20
70.368197
 30
0.0
 10
39.318020
 20
69.364025
 30
0.0
  0
SPLINE
  5
105
100
AcDbEntity
  8
Ebene_1
 62
7
100
AcDbSpline
 70
8
 71
3
 72
8
 73
4
 74
0
 40
0
 40
0
 40
0
 40
0
 40
1
 40
1
 40
1
 40
1
 10
39.318020
 20
69.364025
 30
0.0
 10
38.490816
 20
69.826881
 30
0.0
 10
37.574990
 20
69.927646
 30
0.0
 10
36.656315
 20
69.859972
 30
0.0
  0
SPLINE
  5
106
100
AcDbEntity
  8
Ebene_1
 62
7
100
AcDbSpline
 70
8
 71
3
 72
8
 73
4
 74
0
 40
0
 40
0
 40
0
 40
0
 40
1
 40
1
 40
1
 40
1
 10
36.656315
 20
69.859972
 30
0.0
 10
35.717613
 20
69.790819
 30
0.0
 10
34.772436
 20
69.551051
 30
0.0
 10
33.908162
 20
69.336729
 30
0.0
  0
LINE
  5
107
100
AcDbEntity
  8
Ebene_1
 62
7
100
AcDbLine
 10
33.908162
 20
69.336729
 30
0.0
 11
33.908162
 21
69.332157
 31
0.0
  0
LINE
  5
108
100
AcDbEntity
  8
Ebene_1
 62
7
100
AcDbLine
 10
33.908162
 20
69.332157
 30
0.0
 11
33.903618
 21
69.332157
 31
0.0
  0
SPLINE
  5
109
100
AcDbEntity
  8
Ebene_1
 62
7
100
AcDbSpline
 70
8
 71
3
 72
8
 73
4
 74
0
 40
0
 40
0
 40
0
 40
0
 40
1
 40
1
 40
1
 40
1
 10
33.903618
 20
69.332157
 30
0.0
 10
32.131649
 20
68.769852
 30
0.0
 10
30.791915
 20
67.546748
 30
0.0
 10
29.822335
 20
66.042560
 30
0.0
  0
SPLINE
  5
10a
100
AcDbEntity
  8
Ebene_1
 62
7
100
AcDbSpline
 70
8
 71
3
 72
8
 73
4
 74
0
 40
0
 40
0
 40
0
 40
0
 40
1
 40
1
 40
1
 40
1
 10
29.822335
 20
66.042560
 30
0.0
 10
28.852757
 20
64.538375
 30
0.0
 10
28.251621
 20
62.753368
 30
0.0
 10
27.956866
 20
61.051294
 30
0.0
  0
LINE
  5
10b
100
AcDbEntity
  8
Ebene_1
 62
7
100
AcDbLine
 10
27.956866
 20
61.051294
 30
0.0
 11
27.956866
 21
61.042178
 31
0.0
  0
LINE
  5
10c
100
AcDbEntity
  8
Ebene_1
 62
7
100
AcDbLine
 10
27.956866
 20
61.042178
 30
0.0
 11
27.956866
 21
61.028547
 31
0.0
  0
SPLINE
  5
10d
100
AcDbEntity
  8
Ebene_1
 62
7
100
AcDbSpline
 70
8
 71
3
 72
8
 73
4
 74
0
 40
0
 40
0
 40
0
 40
0
 40
1
 40
1
 40
1
 40
1
 10
27.956866
 20
61.028547
 30
0.0
 10
28.005360
 20
60.612749
 30
0.0
 10
27.920368
 20
60.292246
 30
0.0
 10
27.752120
 20
60.013916
 30
0.0
  0
SPLINE
  5
10e
100
AcDbEntity
  8
Ebene_1
 62
7
100
AcDbSpline
 70
8
 71
3
 72
8
 73
4
 74
0
 40
0
 40
0
 40
0
 40
0
 40
1
 40
1
 40
1
 40
1
 10
27.752120
 20
60.013916
 30
0.0
 10
27.583870
 20
59.735582
 30
0.0
 10
27.329182
 20
59.501203
 30
0.0
 10
27.042332
 20
59.276827
 30
0.0
  0
SPLINE
  5
10f
100
AcDbEntity
  8
Ebene_1
 62
7
100
AcDbSpline
 70
8
 71
3
 72
8
 73
4
 74
0
 40
0
 40
0
 40
0
 40
0
 40
1
 40
1
 40
1
 40
1
 10
27.042332
 20
59.276827
 30
0.0
 10
26.472758
 20
58.831303
 30
0.0
 10
25.772649
 20
58.430147
 30
0.0
 10
25.390709
 20
57.761700
 30
0.0
  0
SPLINE
  5
110
100
AcDbEntity
  8
Ebene_1
 62
7
100
AcDbSpline
 70
8
 71
3
 72
8
 73
4
 74
0
 40
0
 40
0
 40
0
 40
0
 40
1
 40
1
 40
1
 40
1
 10
25.390709
 20
57.761700
 30
0.0
 10
25.387971
 20
57.756874
 30
0.0
 10
25.384345
 20
57.752952
 30
0.0
 10
25.381607
 20
57.748069
 30
0.0
  0
SPLINE
  5
111
100
AcDbEntity
  8
Ebene_1
 62
7
100
AcDbSpline
 70
8
 71
3
 72
8
 73
4
 74
0
 40
0
 40
0
 40
0
 40
0
 40
1
 40
1
 40
1
 40
1
 10
25.381607
 20
57.748069
 30
0.0
 10
23.871243
 20
56.073484
 30
0.0
 10
23.170669
 20
53.943443
 30
0.0
 10
23.120294
 20
51.769471
 30
0.0
  0
SPLINE
  5
112
100
AcDbEntity
  8
Ebene_1
 62
7
100
AcDbSpline
 70
8
 71
3
 72
8
 73
4
 74
0
 40
0
 40
0
 40
0
 40
0
 40
1
 40
1
 40
1
 40
1
 10
23.120294
 20
51.769471
 30
0.0
 10
23.070300
 20
49.612000
 30
0.0
 10
23.661439
 20
47.413834
 30
0.0
 10
24.721868
 20
45.554274
 30
0.0
  0
SPLINE
  5
113
100
AcDbEntity
  8
Ebene_1
 62
7
100
AcDbSpline
 70
8
 71
3
 72
8
 73
4
 74
0
 40
0
 40
0
 40
0
 40
0
 40
1
 40
1
 40
1
 40
1
 10
24.721868
 20
45.554274
 30
0.0
 10
23.764220
 20
44.967441
 30
0.0
 10
22.873308
 20
44.261442
 30
0.0
 10
22.119310
 20
43.434009
 30
0.0
  0
SPLINE
  5
114
100
AcDbEntity
  8
Ebene_1
 62
7
100
AcDbSpline
 70
8
 71
3
 72
8
 73
4
 74
0
 40
0
 40
0
 40
0
 40
0
 40
1
 40
1
 40
1
 40
1
 10
22.119310
 20
43.434009
 30
0.0
 10
21.352907
 20
42.592956
 30
0.0
 10
20.725709
 20
41.630838
 30
0.0
 10
20.299340
 20
40.553906
 30
0.0
  0
SPLINE
  5
115
100
AcDbEntity
  8
Ebene_1
 62
7
100
AcDbSpline
 70
8
 71
3
 72
8
 73
4
 74
0
 40
0
 40
0
 40
0
 40
0
 40
1
 40
1
 40
1
 40
1
 10
20.299340
 20
40.553906
 30
0.0
 10
20.298042
 20
40.550773
 30
0.0
 10
20.296041
 20
40.547979
 30
0.0
 10
20.294800
 20
40.544790
 30
0.0
  0
SPLINE
  5
116
100
AcDbEntity
  8
Ebene_1
 62
7
100
AcDbSpline
 70
8
 71
3
 72
8
 73
4
 74
0
 40
0
 40
0
 40
0
 40
0
 40
1
 40
1
 40
1
 40
1
 10
20.294800
 20
40.544790
 30
0.0
 10
19.489381
 20
39.170376
 30
0.0
 10
19.257616
 20
37.679013
 30
0.0
 10
19.339316
 20
36.176862
 30
0.0
  0
SPLINE
  5
117
100
AcDbEntity
  8
Ebene_1
 62
7
100
AcDbSpline
 70
8
 71
3
 72
8
 73
4
 74
0
 40
0
 40
0
 40
0
 40
0
 40
1
 40
1
 40
1
 40
1
 10
19.339316
 20
36.176862
 30
0.0
 10
19.421192
 20
34.671430
 30
0.0
 10
19.814345
 20
33.156627
 30
0.0
 10
20.253850
 20
31.736135
 30
0.0
  0
LINE
  5
118
100
AcDbEntity
  8
Ebene_1
 62
7
100
AcDbLine
 10
20.253850
 20
31.736135
 30
0.0
 11
20.258391
 21
31.731563
 31
0.0
  0
LINE
  5
119
100
AcDbEntity
  8
Ebene_1
 62
7
100
AcDbLine
 10
20.258391
 20
31.731563
 30
0.0
 11
20.258391
 21
31.727019
 31
0.0
  0
SPLINE
  5
11a
100
AcDbEntity
  8
Ebene_1
 62
7
100
AcDbSpline
 70
8
 71
3
 72
8
 73
4
 74
0
 40
0
 40
0
 40
0
 40
0
 40
1
 40
1
 40
1
 40
1
 10
20.258391
 20
31.727019
 30
0.0
 10
20.318375
 20
31.579234
 30
0.0
 10
20.336384
 20
31.478562
 30
0.0
 10
20.331190
 20
31.422177
 30
0.0
  0
SPLINE
  5
11b
100
AcDbEntity
  8
Ebene_1
 62
7
100
AcDbSpline
 70
8
 71
3
 72
8
 73
4
 74
0
 40
0
 40
0
 40
0
 40
0
 40
1
 40
1
 40
1
 40
1
 10
20.331190
 20
31.422177
 30
0.0
 10
20.325994
 20
31.365792
 30
0.0
 10
20.316543
 20
31.357263
 30
0.0
 10
20.276591
 20
31.344828
 30
0.0
  0
SPLINE
  5
11c
100
AcDbEntity
  8
Ebene_1
 62
7
100
AcDbSpline
 70
8
 71
3
 72
8
 73
4
 74
0
 40
0
 40
0
 40
0
 40
0
 40
1
 40
1
 40
1
 40
1
 10
20.276591
 20
31.344828
 30
0.0
 10
20.236637
 20
31.332382
 30
0.0
 10
20.159260
 20
31.333596
 30
0.0
 10
20.062745
 20
31.353944
 30
0.0
  0
SPLINE
  5
11d
100
AcDbEntity
  8
Ebene_1
 62
7
100
AcDbSpline
 70
8
 71
3
 72
8
 73
4
 74
0
 40
0
 40
0
 40
0
 40
0
 40
1
 40
1
 40
1
 40
1
 10
20.062745
 20
31.353944
 30
0.0
 10
19.966229
 20
31.374264
 30
0.0
 10
19.847991
 20
31.409672
 30
0.0
 10
19.721500
 20
31.454040
 30
0.0
  0
SPLINE
  5
11e
100
AcDbEntity
  8
Ebene_1
 62
7
100
AcDbSpline
 70
8
 71
3
 72
8
 73
4
 74
0
 40
0
 40
0
 40
0
 40
0
 40
1
 40
1
 40
1
 40
1
 10
19.721500
 20
31.454040
 30
0.0
 10
19.468517
 20
31.542782
 30
0.0
 10
19.174544
 20
31.660804
 30
0.0
 10
18.897964
 20
31.740685
 30
0.0
  0
SPLINE
  5
11f
100
AcDbEntity
  8
Ebene_1
 62
7
100
AcDbSpline
 70
8
 71
3
 72
8
 73
4
 74
0
 40
0
 40
0
 40
0
 40
0
 40
1
 40
1
 40
1
 40
1
 10
18.897964
 20
31.740685
 30
0.0
 10
18.628873
 20
31.818409
 30
0.0
 10
18.379025
 20
31.863096
 30
0.0
 10
18.179076
 20
31.786187
 30
0.0
  0
SPLINE
  5
120
100
AcDbEntity
  8
Ebene_1
 62
7
100
AcDbSpline
 70
8
 71
3
 72
8
 73
4
 74
0
 40
0
 40
0
 40
0
 40
0
 40
1
 40
1
 40
1
 40
1
 10
18.179076
 20
31.786187
 30
0.0
 10
18.172977
 20
31.785341
 30
0.0
 10
18.166977
 20
31.782659
 30
0.0
 10
18.160878
 20
31.781615
 30
0.0
  0
SPLINE
  5
121
100
AcDbEntity
  8
Ebene_1
 62
7
100
AcDbSpline
 70
8
 71
3
 72
8
 73
4
 74
0
 40
0
 40
0
 40
0
 40
0
 40
1
 40
1
 40
1
 40
1
 10
18.160878
 20
31.781615
 30
0.0
 10
16.834656
 20
31.595047
 30
0.0
 10
15.476966
 20
31.340742
 30
0.0
 10
14.175144
 20
30.926231
 30
0.0
  0
SPLINE
  5
122
100
AcDbEntity
  8
Ebene_1
 62
7
100
AcDbSpline
 70
8
 71
3
 72
8
 73
4
 74
0
 40
0
 40
0
 40
0
 40
0
 40
1
 40
1
 40
1
 40
1
 10
14.175144
 20
30.926231
 30
0.0
 10
12.867325
 20
30.509815
 30
0.0
 10
11.615106
 20
29.932555
 30
0.0
 10
10.512454
 20
29.106261
 30
0.0
  0
LINE
  5
123
100
AcDbEntity
  8
Ebene_1
 62
7
100
AcDbLine
 10
10.512454
 20
29.106261
 30
0.0
 11
10.512454
 21
29.110805
 31
0.0
  0
SPLINE
  5
124
100
AcDbEntity
  8
Ebene_1
 62
7
100
AcDbSpline
 70
8
 71
3
 72
8
 73
4
 74
0
 40
0
 40
0
 40
0
 40
0
 40
1
 40
1
 40
1
 40
1
 10
10.512454
 20
29.110805
 30
0.0
 10
9.098048
 20
28.146280
 30
0.0
 10
7.760041
 20
26.875927
 30
0.0
 10
6.854315
 20
25.388966
 30
0.0
  0
SPLINE
  5
125
100
AcDbEntity
  8
Ebene_1
 62
7
100
AcDbSpline
 70
8
 71
3
 72
8
 73
4
 74
0
 40
0
 40
0
 40
0
 40
0
 40
1
 40
1
 40
1
 40
1
 10
6.854315
 20
25.388966
 30
0.0
 10
5.948589
 20
23.902005
 30
0.0
 10
5.479642
 20
22.194165
 30
0.0
 10
5.807832
 20
20.361301
 30
0.0
  0
LINE
  5
126
100
AcDbEntity
  8
Ebene_1
 62
7
100
AcDbLine
 10
5.807832
 20
20.361301
 30
0.0
 11
5.807832
 21
20.352185
 31
0.0
  0
LINE
  5
127
100
AcDbEntity
  8
Ebene_1
 62
7
100
AcDbLine
 10
5.807832
 20
20.352185
 30
0.0
 11
5.812382
 21
20.343070
 31
0.0
  0
SPLINE
  5
128
100
AcDbEntity
  8
Ebene_1
 62
7
100
AcDbSpline
 70
8
 71
3
 72
8
 73
4
 74
0
 40
0
 40
0
 40
0
 40
0
 40
1
 40
1
 40
1
 40
1
 10
5.812382
 20
20.343070
 30
0.0
 10
6.203899
 20
19.556804
 30
0.0
 10
6.014689
 20
18.850221
 30
0.0
 10
5.684984
 20
18.131802
 30
0.0
  0
SPLINE
  5
129
100
AcDbEntity
  8
Ebene_1
 62
7
100
AcDbSpline
 70
8
 71
3
 72
8
 73
4
 74
0
 40
0
 40
0
 40
0
 40
0
 40
1
 40
1
 40
1
 40
1
 10
5.684984
 20
18.131802
 30
0.0
 10
5.355885
 20
17.414681
 30
0.0
 10
4.884252
 20
16.700464
 30
0.0
 10
4.747699
 20
15.915979
 30
0.0
  0
SPLINE
  5
12a
100
AcDbEntity
  8
Ebene_1
 62
7
100
AcDbSpline
 70
8
 71
3
 72
8
 73
4
 74
0
 40
0
 40
0
 40
0
 40
0
 40
1
 40
1
 40
1
 40
1
 10
4.747699
 20
15.915979
 30
0.0
 10
4.747452
 20
15.915979
 30
0.0
 10
4.747947
 20
15.912056
 30
0.0
 10
4.747699
 20
15.911266
 30
0.0
  0
SPLINE
  5
12b
100
AcDbEntity
  8
Ebene_1
 62
7
100
AcDbSpline
 70
8
 71
3
 72
8
 73
4
 74
0
 40
0
 40
0
 40
0
 40
0
 40
1
 40
1
 40
1
 40
1
 10
4.747699
 20
15.911266
 30
0.0
 10
4.420715
 20
14.658877
 30
0.0
 10
5.006925
 20
13.247060
 30
0.0
 10
5.971629
 20
12.362294
 30
0.0
  0
SPLINE
  5
12c
100
AcDbEntity
  8
Ebene_1
 62
7
100
AcDbSpline
 70
8
 71
3
 72
8
 73
4
 74
0
 40
0
 40
0
 40
0
 40
0
 40
1
 40
1
 40
1
 40
1
 10
5.971629
 20
12.362294
 30
0.0
 10
6.454540
 20
11.919374
 30
0.0
 10
7.033347
 20
11.611357
 30
0.0
 10
7.646001
 20
11.520538
 30
0.0
  0
SPLINE
  5
12d
100
AcDbEntity
  8
Ebene_1
 62
7
100
AcDbSpline
 70
8
 71
3
 72
8
 73
4
 74
0
 40
0
 40
0
 40
0
 40
0
 40
1
 40
1
 40
1
 40
1
 10
7.646001
 20
11.520538
 30
0.0
 10
8.249871
 20
11.431101
 30
0.0
 10
8.882377
 20
11.562532
 30
0.0
 10
9.475072
 20
11.989168
 30
0.0
  0
SPLINE
  5
12e
100
AcDbEntity
  8
Ebene_1
 62
7
100
AcDbSpline
 70
8
 71
3
 72
8
 73
4
 74
0
 40
0
 40
0
 40
0
 40
0
 40
1
 40
1
 40
1
 40
1
 10
9.475072
 20
11.989168
 30
0.0
 10
10.168188
 20
11.972234
 30
0.0
 10
10.793845
 20
11.633850
 30
0.0
 10
11.436089
 20
11.288523
 30
0.0
  0
SPLINE
  5
12f
100
AcDbEntity
  8
Ebene_1
 62
7
100
AcDbSpline
 70
8
 71
3
 72
8
 73
4
 74
0
 40
0
 40
0
 40
0
 40
0
 40
1
 40
1
 40
1
 40
1
 10
11.436089
 20
11.288523
 30
0.0
 10
12.082586
 20
10.940853
 30
0.0
 10
12.744480
 20
10.586523
 30
0.0
 10
13.510854
 20
10.583249
 30
0.0
  0
LINE
  5
130
100
AcDbEntity
  8
Ebene_1
 62
7
100
AcDbLine
 10
13.510854
 20
10.583249
 30
0.0
 11
13.515404
 21
10.583249
 31
0.0
  0
LINE
  5
131
100
AcDbEntity
  8
Ebene_1
 62
7
100
AcDbLine
 10
13.515404
 20
10.583249
 30
0.0
 11
13.519953
 21
10.583249
 31
0.0
  0
SPLINE
  5
132
100
AcDbEntity
  8
Ebene_1
 62
7
100
AcDbSpline
 70
8
 71
3
 72
8
 73
4
 74
0
 40
0
 40
0
 40
0
 40
0
 40
1
 40
1
 40
1
 40
1
 10
13.519953
 20
10.583249
 30
0.0
 10
13.895555
 20
10.631255
 30
0.0
 10
14.127228
 20
10.547520
 30
0.0
 10
14.293441
 20
10.387613
 30
0.0
  0
SPLINE
  5
133
100
AcDbEntity
  8
Ebene_1
 62
7
100
AcDbSpline
 70
8
 71
3
 72
8
 73
4
 74
0
 40
0
 40
0
 40
0
 40
0
 40
1
 40
1
 40
1
 40
1
 10
14.293441
 20
10.387613
 30
0.0
 10
14.459653
 20
10.227819
 30
0.0
 10
14.560648
 20
9.981072
 30
0.0
 10
14.643785
 20
9.696027
 30
0.0
  0
SPLINE
  5
134
100
AcDbEntity
  8
Ebene_1
 62
7
100
AcDbSpline
 70
8
 71
3
 72
8
 73
4
 74
0
 40
0
 40
0
 40
0
 40
0
 40
1
 40
1
 40
1
 40
1
 10
14.643785
 20
9.696027
 30
0.0
 10
14.807986
 20
9.133050
 30
0.0
 10
14.894627
 20
8.432603
 30
0.0
 10
15.353573
 20
8.030775
 30
0.0
  0
LINE
  5
135
100
AcDbEntity
  8
Ebene_1
 62
7
100
AcDbLine
 10
15.353573
 20
8.030775
 30
0.0
 11
15.349024
 21
8.025977
 31
0.0
  0
SPLINE
  5
136
100
AcDbEntity
  8
Ebene_1
 62
7
100
AcDbSpline
 70
8
 71
3
 72
8
 73
4
 74
0
 40
0
 40
0
 40
0
 40
0
 40
1
 40
1
 40
1
 40
1
 10
15.349024
 20
8.025977
 30
0.0
 10
16.243092
 20
6.671621
 30
0.0
 10
17.899401
 20
6.298156
 30
0.0
 10
19.375707
 20
6.660981
 30
0.0
  0
SPLINE
  5
137
100
AcDbEntity
  8
Ebene_1
 62
7
100
AcDbSpline
 70
8
 71
3
 72
8
 73
4
 74
0
 40
0
 40
0
 40
0
 40
0
 40
1
 40
1
 40
1
 40
1
 10
19.375707
 20
6.660981
 30
0.0
 10
20.831699
 20
7.018811
 30
0.0
 10
22.126913
 20
8.097267
 30
0.0
 10
22.360458
 20
9.668482
 30
0.0
  0
SPLINE
  5
138
100
AcDbEntity
  8
Ebene_1
 62
7
100
AcDbSpline
 70
8
 71
3
 72
8
 73
4
 74
0
 40
0
 40
0
 40
0
 40
0
 40
1
 40
1
 40
1
 40
1
 10
22.360458
 20
9.668482
 30
0.0
 10
23.060744
 20
9.607240
 30
0.0
 10
23.811453
 20
9.652678
 30
0.0
 10
24.571721
 20
9.723064
 30
0.0
  0
SPLINE
  5
139
100
AcDbEntity
  8
Ebene_1
 62
7
100
AcDbSpline
 70
8
 71
3
 72
8
 73
4
 74
0
 40
0
 40
0
 40
0
 40
0
 40
1
 40
1
 40
1
 40
1
 10
24.571721
 20
9.723064
 30
0.0
 10
25.340640
 20
9.794212
 30
0.0
 10
26.114717
 20
9.882830
 30
0.0
 10
26.855784
 20
9.900526
 30
0.0
  0
SPLINE
  5
13a
100
AcDbEntity
  8
Ebene_1
 62
7
100
AcDbSpline
 70
8
 71
3
 72
8
 73
4
 74
0
 40
0
 40
0
 40
0
 40
0
 40
1
 40
1
 40
1
 40
1
 10
26.855784
 20
9.900526
 30
0.0
 10
26.999498
 20
9.346608
 30
0.0
 10
27.311310
 20
8.836999
 30
0.0
 10
27.747569
 20
8.458201
 30
0.0
  0
SPLINE
  5
13b
100
AcDbEntity
  8
Ebene_1
 62
7
100
AcDbSpline
 70
8
 71
3
 72
8
 73
4
 74
0
 40
0
 40
0
 40
0
 40
0
 40
1
 40
1
 40
1
 40
1
 10
27.747569
 20
8.458201
 30
0.0
 10
28.200012
 20
8.065376
 30
0.0
 10
28.779097
 20
7.809146
 30
0.0
 10
29.403740
 20
7.803022
 30
0.0
  0
LINE
  5
13c
100
AcDbEntity
  8
Ebene_1
 62
7
100
AcDbLine
 10
29.403740
 20
7.803022
 30
0.0
 11
29.403740
 21
7.807255
 31
0.0
  0
SPLINE
  5
13d
100
AcDbEntity
  8
Ebene_1
 62
7
100
AcDbSpline
 70
8
 71
3
 72
8
 73
4
 74
0
 40
0
 40
0
 40
0
 40
0
 40
1
 40
1
 40
1
 40
1
 10
29.403740
 20
7.807255
 30
0.0
 10
30.698079
 20
7.608938
 30
0.0
 10
31.725263
 20
8.241426
 30
0.0
 10
32.352093
 20
9.194998
 30
0.0
  0
SPLINE
  5
13e
100
AcDbEntity
  8
Ebene_1
 62
7
100
AcDbSpline
 70
8
 71
3
 72
8
 73
4
 74
0
 40
0
 40
0
 40
0
 40
0
 40
1
 40
1
 40
1
 40
1
 10
32.352093
 20
9.194998
 30
0.0
 10
32.971159
 20
10.136802
 30
0.0
 10
33.205776
 20
11.384394
 30
0.0
 10
32.961780
 20
12.480037
 30
0.0
  0
SPLINE
  5
13f
100
AcDbEntity
  8
Ebene_1
 62
7
100
AcDbSpline
 70
8
 71
3
 72
8
 73
4
 74
0
 40
0
 40
0
 40
0
 40
0
 40
1
 40
1
 40
1
 40
1
 10
32.961780
 20
12.480037
 30
0.0
 10
33.537889
 20
12.750406
 30
0.0
 10
34.067005
 20
13.108433
 30
0.0
 10
34.545154
 20
13.526517
 30
0.0
  0
SPLINE
  5
140
100
AcDbEntity
  8
Ebene_1
 62
7
100
AcDbSpline
 70
8
 71
3
 72
8
 73
4
 74
0
 40
0
 40
0
 40
0
 40
0
 40
1
 40
1
 40
1
 40
1
 10
34.545154
 20
13.526517
 30
0.0
 10
35.032541
 20
13.952700
 30
0.0
 10
35.468707
 20
14.437445
 30
0.0
 10
35.860084
 20
14.941568
 30
0.0
  0
SPLINE
  5
141
100
AcDbEntity
  8
Ebene_1
 62
7
100
AcDbSpline
 70
8
 71
3
 72
8
 73
4
 74
0
 40
0
 40
0
 40
0
 40
0
 40
1
 40
1
 40
1
 40
1
 10
35.860084
 20
14.941568
 30
0.0
 10
35.863386
 20
14.945886
 30
0.0
 10
35.865870
 20
14.950994
 30
0.0
 10
35.869172
 20
14.955312
 30
0.0
  0
SPLINE
  5
142
100
AcDbEntity
  8
Ebene_1
 62
7
100
AcDbSpline
 70
8
 71
3
 72
8
 73
4
 74
0
 40
0
 40
0
 40
0
 40
0
 40
1
 40
1
 40
1
 40
1
 10
35.869172
 20
14.955312
 30
0.0
 10
36.472458
 20
15.460837
 30
0.0
 10
36.806265
 20
16.238644
 30
0.0
 10
37.202299
 20
16.902702
 30
0.0
  0
SPLINE
  5
143
100
AcDbEntity
  8
Ebene_1
 62
7
100
AcDbSpline
 70
8
 71
3
 72
8
 73
4
 74
0
 40
0
 40
0
 40
0
 40
0
 40
1
 40
1
 40
1
 40
1
 10
37.202299
 20
16.902702
 30
0.0
 10
37.601051
 20
17.571275
 30
0.0
 10
38.049592
 20
18.115411
 30
0.0
 10
38.890318
 20
18.194873
 30
0.0
  0
LINE
  5
144
100
AcDbEntity
  8
Ebene_1
 62
7
100
AcDbLine
 10
38.890318
 20
18.194873
 30
0.0
 11
38.903950
 21
18.199586
 31
0.0
  0
LINE
  5
145
100
AcDbEntity
  8
Ebene_1
 62
7
100
AcDbLine
 10
38.903950
 20
18.199586
 30
0.0
 11
38.913065
 21
18.199586
 31
0.0
  0
SPLINE
  5
146
100
AcDbEntity
  8
Ebene_1
 62
7
100
AcDbSpline
 70
8
 71
3
 72
8
 73
4
 74
0
 40
0
 40
0
 40
0
 40
0
 40
1
 40
1
 40
1
 40
1
 10
38.913065
 20
18.199586
 30
0.0
 10
39.935438
 20
18.636765
 30
0.0
 10
40.595361
 20
19.522650
 30
0.0
 10
40.924133
 20
20.538246
 30
0.0
  0
SPLINE
  5
147
100
AcDbEntity
  8
Ebene_1
 62
7
100
AcDbSpline
 70
8
 71
3
 72
8
 73
4
 74
0
 40
0
 40
0
 40
0
 40
0
 40
1
 40
1
 40
1
 40
1
 10
40.924133
 20
20.538246
 30
0.0
 10
41.252896
 20
21.553845
 30
0.0
 10
41.256382
 20
22.703424
 30
0.0
 10
40.969630
 20
23.695895
 30
0.0
  0
LINE
  5
148
100
AcDbEntity
  8
Ebene_1
 62
7
100
AcDbLine
 10
40.969630
 20
23.695895
 30
0.0
 11
40.965086
 21
23.695895
 31
0.0
  0
SPLINE
  5
149
100
AcDbEntity
  8
Ebene_1
 62
7
100
AcDbSpline
 70
8
 71
3
 72
8
 73
4
 74
0
 40
0
 40
0
 40
0
 40
0
 40
1
 40
1
 40
1
 40
1
 10
40.965086
 20
23.695895
 30
0.0
 10
40.976403
 20
24.051879
 30
0.0
 10
40.872537
 20
24.330553
 30
0.0
 10
40.696639
 20
24.546730
 30
0.0
  0
SPLINE
  5
14a
100
AcDbEntity
  8
Ebene_1
 62
7
100
AcDbSpline
 70
8
 71
3
 72
8
 73
4
 74
0
 40
0
 40
0
 40
0
 40
0
 40
1
 40
1
 40
1
 40
1
 10
40.696639
 20
24.546730
 30
0.0
 10
40.516536
 20
24.768080
 30
0.0
 10
40.271409
 20
24.927933
 30
0.0
 10
40.018699
 20
25.074522
 30
0.0
  0
SPLINE
  5
14b
100
AcDbEntity
  8
Ebene_1
 62
7
100
AcDbSpline
 70
8
 71
3
 72
8
 73
4
 74
0
 40
0
 40
0
 40
0
 40
0
 40
1
 40
1
 40
1
 40
1
 10
40.018699
 20
25.074522
 30
0.0
 10
39.513279
 20
25.367703
 30
0.0
 10
38.986516
 20
25.605856
 30
0.0
 10
38.826618
 20
26.070956
 30
0.0
  0
LINE
  5
14c
100
AcDbEntity
  8
Ebene_1
 62
7
100
AcDbLine
 10
38.826618
 20
26.070956
 30
0.0
 11
38.822074
 21
26.070956
 31
0.0
  0
SPLINE
  5
14d
100
AcDbEntity
  8
Ebene_1
 62
7
100
AcDbSpline
 70
8
 71
3
 72
8
 73
4
 74
0
 40
0
 40
0
 40
0
 40
0
 40
1
 40
1
 40
1
 40
1
 10
38.822074
 20
26.070956
 30
0.0
 10
38.556746
 20
27.483941
 30
0.0
 10
38.176287
 20
28.888809
 30
0.0
 10
37.862036
 20
30.297835
 30
0.0
  0
SPLINE
  5
14e
100
AcDbEntity
  8
Ebene_1
 62
7
100
AcDbSpline
 70
8
 71
3
 72
8
 73
4
 74
0
 40
0
 40
0
 40
0
 40
0
 40
1
 40
1
 40
1
 40
1
 10
37.862036
 20
30.297835
 30
0.0
 10
37.546748
 20
31.711520
 30
0.0
 10
37.304167
 20
33.130855
 30
0.0
 10
37.325148
 20
34.574766
 30
0.0
  0
LINE
  5
14f
100
AcDbEntity
  8
Ebene_1
 62
7
100
AcDbLine
 10
37.325148
 20
34.574766
 30
0.0
 11
37.325148
 21
34.579310
 31
0.0
  0
SPLINE
  5
150
100
AcDbEntity
  8
Ebene_1
 62
7
100
AcDbSpline
 70
8
 71
3
 72
8
 73
4
 74
0
 40
0
 40
0
 40
0
 40
0
 40
1
 40
1
 40
1
 40
1
 10
37.325148
 20
34.579310
 30
0.0
 10
37.233936
 20
36.750214
 30
0.0
 10
37.730255
 20
38.829161
 30
0.0
 10
38.571825
 20
40.785407
 30
0.0
  0
SPLINE
  5
151
100
AcDbEntity
  8
Ebene_1
 62
7
100
AcDbSpline
 70
8
 71
3
 72
8
 73
4
 74
0
 40
0
 40
0
 40
0
 40
0
 40
1
 40
1
 40
1
 40
1
 10
38.571825
 20
40.785407
 30
0.0
 10
39.413394
 20
42.741653
 30
0.0
 10
40.596281
 20
44.572406
 30
0.0
 10
41.879622
 20
46.254417
 30
0.0
  0
LINE
  5
152
100
AcDbEntity
  8
Ebene_1
 62
7
100
AcDbLine
 10
41.879622
 20
46.254417
 30
0.0
 11
41.884165
 21
46.258960
 31
0.0
  0
LINE
  5
153
100
AcDbEntity
  8
Ebene_1
 62
7
100
AcDbLine
 10
41.884165
 20
46.258960
 30
0.0
 11
41.884165
 21
46.263504
 31
0.0
  0
SPLINE
  5
154
100
AcDbEntity
  8
Ebene_1
 62
7
100
AcDbSpline
 70
8
 71
3
 72
8
 73
4
 74
0
 40
0
 40
0
 40
0
 40
0
 40
1
 40
1
 40
1
 40
1
 10
41.884165
 20
46.263504
 30
0.0
 10
43.081485
 20
48.258141
 30
0.0
 10
45.340222
 20
49.449502
 30
0.0
 10
47.658017
 20
49.662298
 30
0.0
  0
SPLINE
  5
155
100
AcDbEntity
  8
Ebene_1
 62
7
100
AcDbSpline
 70
8
 71
3
 72
8
 73
4
 74
0
 40
0
 40
0
 40
0
 40
0
 40
1
 40
1
 40
1
 40
1
 10
47.658017
 20
49.662298
 30
0.0
 10
49.971590
 20
49.874707
 30
0.0
 10
52.337490
 20
49.113455
 30
0.0
 10
53.777667
 20
47.218987
 30
0.0
  0
SPLINE
  5
156
100
AcDbEntity
  8
Ebene_1
 62
7
100
AcDbSpline
 70
8
 71
3
 72
8
 73
4
 74
0
 40
0
 40
0
 40
0
 40
0
 40
1
 40
1
 40
1
 40
1
 10
53.777667
 20
47.218987
 30
0.0
 10
54.567432
 20
45.523583
 30
0.0
 10
55.211873
 20
43.717707
 30
0.0
 10
55.597639
 20
41.863728
 30
0.0
  0
SPLINE
  5
157
100
AcDbEntity
  8
Ebene_1
 62
7
100
AcDbSpline
 70
8
 71
3
 72
8
 73
4
 74
0
 40
0
 40
0
 40
0
 40
0
 40
1
 40
1
 40
1
 40
1
 10
55.597639
 20
41.863728
 30
0.0
 10
55.983406
 20
40.009748
 30
0.0
 10
56.112701
 20
38.111397
 30
0.0
 10
55.870633
 20
36.235469
 30
0.0
  0
LINE
  5
158
100
AcDbEntity
  8
Ebene_1
 62
7
100
AcDbLine
 10
55.870633
 20
36.235469
 30
0.0
 11
55.870633
 21
36.230925
 31
0.0
  0
LINE
  5
159
100
AcDbEntity
  8
Ebene_1
 62
7
100
AcDbLine
 10
55.870633
 20
36.230925
 30
0.0
 11
55.870633
 21
36.226381
 31
0.0
  0
SPLINE
  5
15a
100
AcDbEntity
  8
Ebene_1
 62
7
100
AcDbSpline
 70
8
 71
3
 72
8
 73
4
 74
0
 40
0
 40
0
 40
0
 40
0
 40
1
 40
1
 40
1
 40
1
 10
55.870633
 20
36.226381
 30
0.0
 10
55.755726
 20
33.714121
 30
0.0
 10
55.200132
 20
31.293314
 30
0.0
 10
54.382808
 20
28.951051
 30
0.0
  0
SPLINE
  5
15b
100
AcDbEntity
  8
Ebene_1
 62
7
100
AcDbSpline
 70
8
 71
3
 72
8
 73
4
 74
0
 40
0
 40
0
 40
0
 40
0
 40
1
 40
1
 40
1
 40
1
 10
54.382808
 20
28.951051
 30
0.0
 10
53.568826
 20
26.618363
 30
0.0
 10
52.494855
 20
24.366116
 30
0.0
 10
51.334360
 20
22.180762
 30
0.0
  0
SPLINE
  5
15c
100
AcDbEntity
  8
Ebene_1
 62
7
100
AcDbSpline
 70
8
 71
3
 72
8
 73
4
 74
0
 40
0
 40
0
 40
0
 40
0
 40
1
 40
1
 40
1
 40
1
 10
51.334360
 20
22.180762
 30
0.0
 10
50.102733
 20
21.838393
 30
0.0
 10
48.994074
 20
20.977415
 30
0.0
 10
48.272260
 20
19.873951
 30
0.0
  0
SPLINE
  5
15d
100
AcDbEntity
  8
Ebene_1
 62
7
100
AcDbSpline
 70
8
 71
3
 72
8
 73
4
 74
0
 40
0
 40
0
 40
0
 40
0
 40
1
 40
1
 40
1
 40
1
 10
48.272260
 20
19.873951
 30
0.0
 10
47.545024
 20
18.762210
 30
0.0
 10
47.209718
 20
17.403973
 30
0.0
 10
47.553369
 20
16.074760
 30
0.0
  0
SPLINE
  5
15e
100
AcDbEntity
  8
Ebene_1
 62
7
100
AcDbSpline
 70
8
 71
3
 72
8
 73
4
 74
0
 40
0
 40
0
 40
0
 40
0
 40
1
 40
1
 40
1
 40
1
 10
47.553369
 20
16.074760
 30
0.0
 10
47.499338
 20
15.232731
 30
0.0
 10
47.942147
 20
14.723901
 30
0.0
 10
48.540707
 20
14.418593
 30
0.0
  0
SPLINE
  5
15f
100
AcDbEntity
  8
Ebene_1
 62
7
100
AcDbSpline
 70
8
 71
3
 72
8
 73
4
 74
0
 40
0
 40
0
 40
0
 40
0
 40
1
 40
1
 40
1
 40
1
 10
48.540707
 20
14.418593
 30
0.0
 10
49.131169
 20
14.117405
 30
0.0
 10
49.867543
 20
13.994300
 30
0.0
 10
50.465324
 20
13.877178
 30
0.0
  0
SPLINE
  5
160
100
AcDbEntity
  8
Ebene_1
 62
7
100
AcDbSpline
 70
8
 71
3
 72
8
 73
4
 74
0
 40
0
 40
0
 40
0
 40
0
 40
1
 40
1
 40
1
 40
1
 10
50.465324
 20
13.877178
 30
0.0
 10
50.493958
 20
13.289506
 30
0.0
 10
50.774676
 20
12.807584
 30
0.0
 10
51.111412
 20
12.375671
 30
0.0
  0
SPLINE
  5
161
100
AcDbEntity
  8
Ebene_1
 62
7
100
AcDbSpline
 70
8
 71
3
 72
8
 73
4
 74
0
 40
0
 40
0
 40
0
 40
0
 40
1
 40
1
 40
1
 40
1
 10
51.111412
 20
12.375671
 30
0.0
 10
51.454671
 20
11.935432
 30
0.0
 10
51.843333
 20
11.540942
 30
0.0
 10
52.075994
 20
11.133554
 30
0.0
  0
SPLINE
  5
162
100
AcDbEntity
  8
Ebene_1
 62
7
100
AcDbSpline
 70
8
 71
3
 72
8
 73
4
 74
0
 40
0
 40
0
 40
0
 40
0
 40
1
 40
1
 40
1
 40
1
 10
52.075994
 20
11.133554
 30
0.0
 10
51.584931
 20
10.019990
 30
0.0
 10
51.545479
 20
8.710282
 30
0.0
 10
51.916751
 20
7.539088
 30
0.0
  0
SPLINE
  5
163
100
AcDbEntity
  8
Ebene_1
 62
7
100
AcDbSpline
 70
8
 71
3
 72
8
 73
4
 74
0
 40
0
 40
0
 40
0
 40
0
 40
1
 40
1
 40
1
 40
1
 10
51.916751
 20
7.539088
 30
0.0
 10
52.292860
 20
6.352710
 30
0.0
 10
53.085633
 20
5.308742
 30
0.0
 10
54.250861
 20
4.777289
 30
0.0
  0
SPLINE
  5
164
100
AcDbEntity
  8
Ebene_1
 62
7
100
AcDbSpline
 70
8
 71
3
 72
8
 73
4
 74
0
 40
0
 40
0
 40
0
 40
0
 40
1
 40
1
 40
1
 40
1
 10
54.250861
 20
4.777289
 30
0.0
 10
55.382586
 20
4.270700
 30
0.0
 10
56.518313
 20
4.470372
 30
0.0
 10
57.444908
 20
5.059398
 30
0.0
  0
SPLINE
  5
165
100
AcDbEntity
  8
Ebene_1
 62
7
100
AcDbSpline
 70
8
 71
3
 72
8
 73
4
 74
0
 40
0
 40
0
 40
0
 40
0
 40
1
 40
1
 40
1
 40
1
 10
57.444908
 20
5.059398
 30
0.0
 10
58.353455
 20
5.636966
 30
0.0
 10
59.061624
 20
6.588507
 30
0.0
 10
59.410476
 20
7.616473
 30
0.0
  0
SPLINE
  5
166
100
AcDbEntity
  8
Ebene_1
 62
7
100
AcDbSpline
 70
8
 71
3
 72
8
 73
4
 74
0
 40
0
 40
0
 40
0
 40
0
 40
1
 40
1
 40
1
 40
1
 10
59.410476
 20
7.616473
 30
0.0
 10
60.054267
 20
7.498335
 30
0.0
 10
60.698826
 20
7.378249
 30
0.0
 10
61.348744
 20
7.270666
 30
0.0
  0
SPLINE
  5
167
100
AcDbEntity
  8
Ebene_1
 62
7
100
AcDbSpline
 70
8
 71
3
 72
8
 73
4
 74
0
 40
0
 40
0
 40
0
 40
0
 40
1
 40
1
 40
1
 40
1
 10
61.348744
 20
7.270666
 30
0.0
 10
62.001928
 20
7.162575
 30
0.0
 10
62.660036
 20
7.066140
 30
0.0
 10
63.318858
 20
6.993129
 30
0.0
  0
SPLINE
  5
168
100
AcDbEntity
  8
Ebene_1
 62
7
100
AcDbSpline
 70
8
 71
3
 72
8
 73
4
 74
0
 40
0
 40
0
 40
0
 40
0
 40
1
 40
1
 40
1
 40
1
 10
63.318858
 20
6.993129
 30
0.0
 10
63.680800
 20
6.229830
 30
0.0
 10
63.989907
 20
5.300614
 30
0.0
 10
64.460893
 20
4.513411
 30
0.0
  0
SPLINE
  5
169
100
AcDbEntity
  8
Ebene_1
 62
7
100
AcDbSpline
 70
8
 71
3
 72
8
 73
4
 74
0
 40
0
 40
0
 40
0
 40
0
 40
1
 40
1
 40
1
 40
1
 10
64.460893
 20
4.513411
 30
0.0
 10
64.938710
 20
3.714779
 30
0.0
 10
65.592483
 20
3.061011
 30
0.0
 10
66.644859
 20
2.916400
 30
0.0
  0
SPLINE
  5
16a
100
AcDbEntity
  8
Ebene_1
 62
7
100
AcDbSpline
 70
8
 71
3
 72
8
 73
4
 74
0
 40
0
 40
0
 40
0
 40
0
 40
1
 40
1
 40
1
 40
1
 10
66.644859
 20
2.916400
 30
0.0
 10
67.621026
 20
2.760614
 30
0.0
 10
68.462192
 20
3.150617
 30
0.0
 10
69.120015
 20
3.776303
 30
0.0
  0
SPLINE
  5
16b
100
AcDbEntity
  8
Ebene_1
 62
7
100
AcDbSpline
 70
8
 71
3
 72
8
 73
4
 74
0
 40
0
 40
0
 40
0
 40
0
 40
1
 40
1
 40
1
 40
1
 10
69.120015
 20
3.776303
 30
0.0
 10
69.765370
 20
4.390165
 30
0.0
 10
70.233723
 20
5.231356
 30
0.0
 10
70.516840
 20
6.023978
 30
0.0
  0
SPLINE
  5
16c
100
AcDbEntity
  8
Ebene_1
 62
7
100
AcDbSpline
 70
8
 71
3
 72
8
 73
4
 74
0
 40
0
 40
0
 40
0
 40
0
 40
1
 40
1
 40
1
 40
1
 10
70.516840
 20
6.023978
 30
0.0
 10
71.094837
 20
6.067299
 30
0.0
 10
71.683728
 20
6.097242
 30
0.0
 10
72.268565
 20
6.133169
 30
0.0
  0
SPLINE
  5
16d
100
AcDbEntity
  8
Ebene_1
 62
7
100
AcDbSpline
 70
8
 71
3
 72
8
 73
4
 74
0
 40
0
 40
0
 40
0
 40
0
 40
1
 40
1
 40
1
 40
1
 10
72.268565
 20
6.133169
 30
0.0
 10
72.847129
 20
6.168927
 30
0.0
 10
73.420012
 20
6.213377
 30
0.0
 10
73.979334
 20
6.283340
 30
0.0
  0
SPLINE
  5
16e
100
AcDbEntity
  8
Ebene_1
 62
7
100
AcDbSpline
 70
8
 71
3
 72
8
 73
4
 74
0
 40
0
 40
0
 40
0
 40
0
 40
1
 40
1
 40
1
 40
1
 10
73.979334
 20
6.283340
 30
0.0
 10
74.156660
 20
5.564266
 30
0.0
 10
74.438042
 20
4.847478
 30
0.0
 10
74.862018
 20
4.240418
 30
0.0
  0
SPLINE
  5
16f
100
AcDbEntity
  8
Ebene_1
 62
7
100
AcDbSpline
 70
8
 71
3
 72
8
 73
4
 74
0
 40
0
 40
0
 40
0
 40
0
 40
1
 40
1
 40
1
 40
1
 10
74.862018
 20
4.240418
 30
0.0
 10
75.297755
 20
3.616509
 30
0.0
 10
75.882082
 20
3.109215
 30
0.0
 10
76.641040
 20
2.834500
 30
0.0
  0
LINE
  5
170
100
AcDbEntity
  8
Ebene_1
 62
7
100
AcDbLine
 10
76.641040
 20
2.834500
 30
0.0
 11
76.650156
 21
2.829702
 31
0.0
  0
LINE
  5
171
100
AcDbEntity
  8
Ebene_1
 62
7
100
AcDbLine
 10
76.650156
 20
2.829702
 30
0.0
 11
76.663787
 21
2.829702
 31
0.0
  0
SPLINE
  5
172
100
AcDbEntity
  8
Ebene_1
 62
7
100
AcDbSpline
 70
8
 71
3
 72
8
 73
4
 74
0
 40
0
 40
0
 40
0
 40
0
 40
1
 40
1
 40
1
 40
1
 10
76.663787
 20
2.829702
 30
0.0
 10
77.490661
 20
2.694348
 30
0.0
 10
78.182862
 20
2.908414
 30
0.0
 10
78.756753
 20
3.316535
 30
0.0
  0
SPLINE
  5
173
100
AcDbEntity
  8
Ebene_1
 62
7
100
AcDbSpline
 70
8
 71
3
 72
8
 73
4
 74
0
 40
0
 40
0
 40
0
 40
0
 40
1
 40
1
 40
1
 40
1
 10
78.756753
 20
3.316535
 30
0.0
 10
79.333906
 20
3.726999
 30
0.0
 10
79.795378
 20
4.326834
 30
0.0
 10
80.194528
 20
4.959068
 30
0.0
  0
LINE
  5
174
100
AcDbEntity
  8
Ebene_1
 62
7
100
AcDbLine
 10
80.194528
 20
4.959068
 30
0.0
 11
80.208160
 21
4.977131
 31
0.0
  0
LINE
  5
175
100
AcDbEntity
  8
Ebene_1
 62
7
100
AcDbLine
 10
80.208160
 20
4.977131
 30
0.0
 11
80.208160
 21
4.999991
 31
0.0
  0
SPLINE
  5
176
100
AcDbEntity
  8
Ebene_1
 62
7
100
AcDbSpline
 70
8
 71
3
 72
8
 73
4
 74
0
 40
0
 40
0
 40
0
 40
0
 40
1
 40
1
 40
1
 40
1
 10
80.208160
 20
4.999991
 30
0.0
 10
80.190944
 20
5.721266
 30
0.0
 10
80.446112
 20
6.052087
 30
0.0
 10
80.849701
 20
6.246651
 30
0.0
  0
SPLINE
  5
177
100
AcDbEntity
  8
Ebene_1
 62
7
100
AcDbSpline
 70
8
 71
3
 72
8
 73
4
 74
0
 40
0
 40
0
 40
0
 40
0
 40
1
 40
1
 40
1
 40
1
 10
80.849701
 20
6.246651
 30
0.0
 10
81.236707
 20
6.433284
 30
0.0
 10
81.772842
 20
6.481319
 30
0.0
 10
82.314776
 20
6.565167
 30
0.0
  0
SPLINE
  5
178
100
AcDbEntity
  8
Ebene_1
 62
7
100
AcDbSpline
 70
8
 71
3
 72
8
 73
4
 74
0
 40
0
 40
0
 40
0
 40
0
 40
1
 40
1
 40
1
 40
1
 10
82.314776
 20
6.565167
 30
0.0
 10
82.436572
 20
6.186255
 30
0.0
 10
82.472332
 20
5.648594
 30
0.0
 10
82.569572
 20
5.104610
 30
0.0
  0
SPLINE
  5
179
100
AcDbEntity
  8
Ebene_1
 62
7
100
AcDbSpline
 70
8
 71
3
 72
8
 73
4
 74
0
 40
0
 40
0
 40
0
 40
0
 40
1
 40
1
 40
1
 40
1
 10
82.569572
 20
5.104610
 30
0.0
 10
82.670870
 20
4.537936
 30
0.0
 10
82.843393
 20
3.969146
 30
0.0
 10
83.288463
 20
3.584985
 30
0.0
  0
LINE
  5
17a
100
AcDbEntity
  8
Ebene_1
 62
7
100
AcDbLine
 10
83.288463
 20
3.584985
 30
0.0
 11
83.293006
 21
3.580187
 31
0.0
  0
LINE
  5
17b
100
AcDbEntity
  8
Ebene_1
 62
7
100
AcDbLine
 10
83.293006
 20
3.580187
 30
0.0
 11
83.297578
 21
3.580187
 31
0.0
  0
SPLINE
  5
17c
100
AcDbEntity
  8
Ebene_1
 62
7
100
AcDbSpline
 70
8
 71
3
 72
8
 73
4
 74
0
 40
0
 40
0
 40
0
 40
0
 40
1
 40
1
 40
1
 40
1
 10
83.297578
 20
3.580187
 30
0.0
 10
84.605664
 20
2.696662
 30
0.0
 10
86.184723
 20
2.993616
 30
0.0
 10
87.306060
 20
3.875928
 30
0.0
  0
SPLINE
  5
17d
100
AcDbEntity
  8
Ebene_1
 62
7
100
AcDbSpline
 70
8
 71
3
 72
8
 73
4
 74
0
 40
0
 40
0
 40
0
 40
0
 40
1
 40
1
 40
1
 40
1
 10
87.306060
 20
3.875928
 30
0.0
 10
88.415921
 20
4.749180
 30
0.0
 10
89.084184
 20
6.200846
 30
0.0
 10
88.620989
 20
7.652343
 30
0.0
  0
SPLINE
  5
17e
100
AcDbEntity
  8
Ebene_1
 62
7
100
AcDbSpline
 70
8
 71
3
 72
8
 73
4
 74
0
 40
0
 40
0
 40
0
 40
0
 40
1
 40
1
 40
1
 40
1
 10
88.620989
 20
7.652343
 30
0.0
 10
89.316794
 20
8.327250
 30
0.0
 10
89.978526
 20
9.058544
 30
0.0
 10
90.559258
 20
9.849980
 30
0.0
  0
SPLINE
  5
17f
100
AcDbEntity
  8
Ebene_1
 62
7
100
AcDbSpline
 70
8
 71
3
 72
8
 73
4
 74
0
 40
0
 40
0
 40
0
 40
0
 40
1
 40
1
 40
1
 40
1
 10
90.559258
 20
9.849980
 30
0.0
 10
91.148301
 20
10.652761
 30
0.0
 10
91.656532
 20
11.516953
 30
0.0
 10
92.033434
 20
12.448004
 30
0.0
  0
LINE
  5
180
100
AcDbEntity
  8
Ebene_1
 62
7
100
AcDbLine
 10
92.033434
 20
12.448004
 30
0.0
 11
92.033434
 21
12.452802
 31
0.0
  0
SPLINE
  5
181
100
AcDbEntity
  8
Ebene_1
 62
7
100
AcDbSpline
 70
8
 71
3
 72
8
 73
4
 74
0
 40
0
 40
0
 40
0
 40
0
 40
1
 40
1
 40
1
 40
1
 10
92.033434
 20
12.452802
 30
0.0
 10
92.454995
 20
13.827083
 30
0.0
 10
92.596168
 20
15.316133
 30
0.0
 10
92.442925
 20
16.770644
 30
0.0
  0
SPLINE
  5
182
100
AcDbEntity
  8
Ebene_1
 62
7
100
AcDbSpline
 70
8
 71
3
 72
8
 73
4
 74
0
 40
0
 40
0
 40
0
 40
0
 40
1
 40
1
 40
1
 40
1
 10
92.442925
 20
16.770644
 30
0.0
 10
92.290979
 20
18.212862
 30
0.0
 10
91.849163
 20
19.621450
 30
0.0
 10
91.109797
 20
20.847375
 30
0.0
  0
SPLINE
  5
183
100
AcDbEntity
  8
Ebene_1
 62
7
100
AcDbSpline
 70
8
 71
3
 72
8
 73
4
 74
0
 40
0
 40
0
 40
0
 40
0
 40
1
 40
1
 40
1
 40
1
 10
91.109797
 20
20.847375
 30
0.0
 10
91.195858
 20
21.495349
 30
0.0
 10
91.377643
 20
22.153181
 30
0.0
 10
91.619389
 20
22.799292
 30
0.0
  0
SPLINE
  5
184
100
AcDbEntity
  8
Ebene_1
 62
7
100
AcDbSpline
 70
8
 71
3
 72
8
 73
4
 74
0
 40
0
 40
0
 40
0
 40
0
 40
1
 40
1
 40
1
 40
1
 10
91.619389
 20
22.799292
 30
0.0
 10
91.862870
 20
23.450037
 30
0.0
 10
92.164456
 20
24.088568
 30
0.0
 10
92.479323
 20
24.687511
 30
0.0
  0
LINE
  5
185
100
AcDbEntity
  8
Ebene_1
 62
7
100
AcDbLine
 10
92.479323
 20
24.687511
 30
0.0
 11
92.479323
 21
24.692055
 31
0.0
  0
LINE
  5
186
100
AcDbEntity
  8
Ebene_1
 62
7
100
AcDbLine
 10
92.479323
 20
24.692055
 30
0.0
 11
92.483895
 21
24.701171
 31
0.0
  0
SPLINE
  5
187
100
AcDbEntity
  8
Ebene_1
 62
7
100
AcDbSpline
 70
8
 71
3
 72
8
 73
4
 74
0
 40
0
 40
0
 40
0
 40
0
 40
1
 40
1
 40
1
 40
1
 10
92.483895
 20
24.701171
 30
0.0
 10
92.712853
 20
25.444784
 30
0.0
 10
93.290150
 20
25.916493
 30
0.0
 10
93.844322
 20
26.416495
 30
0.0
  0
SPLINE
  5
188
100
AcDbEntity
  8
Ebene_1
 62
7
100
AcDbSpline
 70
8
 71
3
 72
8
 73
4
 74
0
 40
0
 40
0
 40
0
 40
0
 40
1
 40
1
 40
1
 40
1
 10
93.844322
 20
26.416495
 30
0.0
 10
94.396461
 20
26.914665
 30
0.0
 10
94.923147
 20
27.446208
 30
0.0
 10
94.999999
 20
28.304714
 30
0.0
  0
SPLINE
  5
189
100
AcDbEntity
  8
Ebene_1
 62
7
100
AcDbSpline
 70
8
 71
3
 72
8
 73
4
 74
0
 40
0
 40
0
 40
0
 40
0
 40
1
 40
1
 40
1
 40
1
 10
94.999999
 20
28.304714
 30
0.0
 10
95.000281
 20
28.307846
 30
0.0
 10
94.999717
 20
28.310640
 30
0.0
 10
94.999999
 20
28.313829
 30
0.0
  0
SPLINE
  5
18a
100
AcDbEntity
  8
Ebene_1
 62
7
100
AcDbSpline
 70
8
 71
3
 72
8
 73
4
 74
0
 40
0
 40
0
 40
0
 40
0
 40
1
 40
1
 40
1
 40
1
 10
94.999999
 20
28.313829
 30
0.0
 10
95.202508
 20
29.337416
 30
0.0
 10
95.105688
 20
30.684270
 30
0.0
 10
94.622358
 20
31.744475
 30
0.0
  0
SPLINE
  5
18b
100
AcDbEntity
  8
Ebene_1
 62
7
100
AcDbSpline
 70
8
 71
3
 72
8
 73
4
 74
0
 40
0
 40
0
 40
0
 40
0
 40
1
 40
1
 40
1
 40
1
 10
94.622358
 20
31.744475
 30
0.0
 10
94.380027
 20
32.276029
 30
0.0
 10
94.040839
 20
32.734657
 30
0.0
 10
93.589523
 20
33.041201
 30
0.0
  0
SPLINE
  5
18c
100
AcDbEntity
  8
Ebene_1
 62
7
100
AcDbSpline
 70
8
 71
3
 72
8
 73
4
 74
0
 40
0
 40
0
 40
0
 40
0
 40
1
 40
1
 40
1
 40
1
 10
93.589523
 20
33.041201
 30
0.0
 10
93.143471
 20
33.344175
 30
0.0
 10
92.585557
 20
33.490383
 30
0.0
 10
91.924251
 20
33.409747
 30
0.0
  0
SPLINE
  5
18d
100
AcDbEntity
  8
Ebene_1
 62
7
100
AcDbSpline
 70
8
 71
3
 72
8
 73
4
 74
0
 40
0
 40
0
 40
0
 40
0
 40
1
 40
1
 40
1
 40
1
 10
91.924251
 20
33.409747
 30
0.0
 10
91.916659
 20
33.411440
 30
0.0
 10
91.909096
 20
33.408618
 30
0.0
 10
91.901504
 20
33.409747
 30
0.0
  0
SPLINE
  5
18e
100
AcDbEntity
  8
Ebene_1
 62
7
100
AcDbSpline
 70
8
 71
3
 72
8
 73
4
 74
0
 40
0
 40
0
 40
0
 40
0
 40
1
 40
1
 40
1
 40
1
 10
91.901504
 20
33.409747
 30
0.0
 10
90.610092
 20
33.634003
 30
0.0
 10
89.391284
 20
32.893359
 30
0.0
 10
88.730204
 20
31.840021
 30
0.0
  0
SPLINE
  5
18f
100
AcDbEntity
  8
Ebene_1
 62
7
100
AcDbSpline
 70
8
 71
3
 72
8
 73
4
 74
0
 40
0
 40
0
 40
0
 40
0
 40
1
 40
1
 40
1
 40
1
 10
88.730204
 20
31.840021
 30
0.0
 10
88.073134
 20
30.793061
 30
0.0
 10
87.967208
 20
29.422627
 30
0.0
 10
88.898552
 20
28.400277
 30
0.0
  0
SPLINE
  5
190
100
AcDbEntity
  8
Ebene_1
 62
7
100
AcDbSpline
 70
8
 71
3
 72
8
 73
4
 74
0
 40
0
 40
0
 40
0
 40
0
 40
1
 40
1
 40
1
 40
1
 10
88.898552
 20
28.400277
 30
0.0
 10
88.602030
 20
27.601613
 30
0.0
 10
88.268254
 20
26.812893
 30
0.0
 10
87.906671
 20
26.038867
 30
0.0
  0
SPLINE
  5
191
100
AcDbEntity
  8
Ebene_1
 62
7
100
AcDbSpline
 70
8
 71
3
 72
8
 73
4
 74
0
 40
0
 40
0
 40
0
 40
0
 40
1
 40
1
 40
1
 40
1
 10
87.906671
 20
26.038867
 30
0.0
 10
87.547385
 20
25.269766
 30
0.0
 10
87.162200
 20
24.514610
 30
0.0
 10
86.760090
 20
23.768457
 30
0.0
  0
SPLINE
  5
192
100
AcDbEntity
  8
Ebene_1
 62
7
100
AcDbSpline
 70
8
 71
3
 72
8
 73
4
 74
0
 40
0
 40
0
 40
0
 40
0
 40
1
 40
1
 40
1
 40
1
 10
86.760090
 20
23.768457
 30
0.0
 10
86.268306
 20
23.981134
 30
0.0
 10
85.746311
 20
24.172122
 30
0.0
 10
85.204012
 20
24.268944
 30
0.0
  0
SPLINE
  5
193
100
AcDbEntity
  8
Ebene_1
 62
7
100
AcDbSpline
 70
8
 71
3
 72
8
 73
4
 74
0
 40
0
 40
0
 40
0
 40
0
 40
1
 40
1
 40
1
 40
1
 10
85.204012
 20
24.268944
 30
0.0
 10
84.646654
 20
24.368464
 30
0.0
 10
84.072894
 20
24.370141
 30
0.0
 10
83.511441
 20
24.209799
 30
0.0
  0
SPLINE
  5
194
100
AcDbEntity
  8
Ebene_1
 62
7
100
AcDbSpline
 70
8
 71
3
 72
8
 73
4
 74
0
 40
0
 40
0
 40
0
 40
0
 40
1
 40
1
 40
1
 40
1
 10
83.511441
 20
24.209799
 30
0.0
 10
83.082844
 20
24.302862
 30
0.0
 10
82.745639
 20
24.657598
 30
0.0
 10
82.437659
 20
25.092483
 30
0.0
  0
SPLINE
  5
195
100
AcDbEntity
  8
Ebene_1
 62
7
100
AcDbSpline
 70
8
 71
3
 72
8
 73
4
 74
0
 40
0
 40
0
 40
0
 40
0
 40
1
 40
1
 40
1
 40
1
 10
82.437659
 20
25.092483
 30
0.0
 10
82.127265
 20
25.530777
 30
0.0
 10
81.850270
 20
26.042511
 30
0.0
 10
81.523126
 20
26.416512
 30
0.0
  0
LINE
  5
196
100
AcDbEntity
  8
Ebene_1
 62
7
100
AcDbLine
 10
81.523126
 20
26.416512
 30
0.0
 11
81.523126
 21
26.421084
 31
0.0
  0
LINE
  5
197
100
AcDbEntity
  8
Ebene_1
 62
7
100
AcDbLine
 10
81.523126
 20
26.421084
 30
0.0
 11
81.518582
 21
26.421084
 31
0.0
  0
SPLINE
  5
198
100
AcDbEntity
  8
Ebene_1
 62
7
100
AcDbSpline
 70
8
 71
3
 72
8
 73
4
 74
0
 40
0
 40
0
 40
0
 40
0
 40
1
 40
1
 40
1
 40
1
 10
81.518582
 20
26.421084
 30
0.0
 10
81.219935
 20
26.691444
 30
0.0
 10
81.084321
 20
26.974592
 30
0.0
 10
81.036290
 20
27.271921
 30
0.0
  0
SPLINE
  5
199
100
AcDbEntity
  8
Ebene_1
 62
7
100
AcDbSpline
 70
8
 71
3
 72
8
 73
4
 74
0
 40
0
 40
0
 40
0
 40
0
 40
1
 40
1
 40
1
 40
1
 10
81.036290
 20
27.271921
 30
0.0
 10
80.988261
 20
27.569248
 30
0.0
 10
81.032762
 20
27.885388
 30
0.0
 10
81.109086
 20
28.213756
 30
0.0
  0
SPLINE
  5
19a
100
AcDbEntity
  8
Ebene_1
 62
7
100
AcDbSpline
 70
8
 71
3
 72
8
 73
4
 74
0
 40
0
 40
0
 40
0
 40
0
 40
1
 40
1
 40
1
 40
1
 10
81.109086
 20
28.213756
 30
0.0
 10
81.261077
 20
28.867665
 30
0.0
 10
81.541372
 20
29.566922
 30
0.0
 10
81.418484
 20
30.265771
 30
0.0
  0
SPLINE
  5
19b
100
AcDbEntity
  8
Ebene_1
 62
7
100
AcDbSpline
 70
8
 71
3
 72
8
 73
4
 74
0
 40
0
 40
0
 40
0
 40
0
 40
1
 40
1
 40
1
 40
1
 10
81.418484
 20
30.265771
 30
0.0
 10
81.418201
 20
30.268904
 30
0.0
 10
81.418766
 20
30.271783
 30
0.0
 10
81.418484
 20
30.274887
 30
0.0
  0
SPLINE
  5
19c
100
AcDbEntity
  8
Ebene_1
 62
7
100
AcDbSpline
 70
8
 71
3
 72
8
 73
4
 74
0
 40
0
 40
0
 40
0
 40
0
 40
1
 40
1
 40
1
 40
1
 10
81.418484
 20
30.274887
 30
0.0
 10
81.359736
 20
30.966874
 30
0.0
 10
81.060818
 20
31.509979
 30
0.0
 10
80.626797
 20
31.890110
 30
0.0
  0
SPLINE
  5
19d
100
AcDbEntity
  8
Ebene_1
 62
7
100
AcDbSpline
 70
8
 71
3
 72
8
 73
4
 74
0
 40
0
 40
0
 40
0
 40
0
 40
1
 40
1
 40
1
 40
1
 10
80.626797
 20
31.890110
 30
0.0
 10
80.190837
 20
32.271948
 30
0.0
 10
79.622743
 20
32.492395
 30
0.0
 10
79.020673
 20
32.563501
 30
0.0
  0
SPLINE
  5
19e
100
AcDbEntity
  8
Ebene_1
 62
7
100
AcDbSpline
 70
8
 71
3
 72
8
 73
4
 74
0
 40
0
 40
0
 40
0
 40
0
 40
1
 40
1
 40
1
 40
1
 10
79.020673
 20
32.563501
 30
0.0
 10
77.821920
 20
32.705075
 30
0.0
 10
76.489193
 20
32.246780
 30
0.0
 10
75.822076
 20
31.212173
 30
0.0
  0
SPLINE
  5
19f
100
AcDbEntity
  8
Ebene_1
 62
7
100
AcDbSpline
 70
8
 71
3
 72
8
 73
4
 74
0
 40
0
 40
0
 40
0
 40
0
 40
1
 40
1
 40
1
 40
1
 10
75.822076
 20
31.212173
 30
0.0
 10
75.818944
 20
31.207544
 30
0.0
 10
75.815952
 20
31.203170
 30
0.0
 10
75.812960
 20
31.198541
 30
0.0
  0
SPLINE
  5
1a0
100
AcDbEntity
  8
Ebene_1
 62
7
100
AcDbSpline
 70
8
 71
3
 72
8
 73
4
 74
0
 40
0
 40
0
 40
0
 40
0
 40
1
 40
1
 40
1
 40
1
 10
75.812960
 20
31.198541
 30
0.0
 10
74.981991
 20
30.389769
 30
0.0
 10
74.630780
 20
29.181420
 30
0.0
 10
74.771024
 20
28.063642
 30
0.0
  0
SPLINE
  5
1a1
100
AcDbEntity
  8
Ebene_1
 62
7
100
AcDbSpline
 70
8
 71
3
 72
8
 73
4
 74
0
 40
0
 40
0
 40
0
 40
0
 40
1
 40
1
 40
1
 40
1
 10
74.771024
 20
28.063642
 30
0.0
 10
74.910462
 20
26.952293
 30
0.0
 10
75.544076
 20
25.932588
 30
0.0
 10
76.663793
 20
25.497486
 30
0.0
  0
SPLINE
  5
1a2
100
AcDbEntity
  8
Ebene_1
 62
7
100
AcDbSpline
 70
8
 71
3
 72
8
 73
4
 74
0
 40
0
 40
0
 40
0
 40
0
 40
1
 40
1
 40
1
 40
1
 10
76.663793
 20
25.497486
 30
0.0
 10
77.055187
 20
24.897360
 30
0.0
 10
77.438518
 20
24.261499
 30
0.0
 10
77.801272
 20
23.609264
 30
0.0
  0
SPLINE
  5
1a3
100
AcDbEntity
  8
Ebene_1
 62
7
100
AcDbSpline
 70
8
 71
3
 72
8
 73
4
 74
0
 40
0
 40
0
 40
0
 40
0
 40
1
 40
1
 40
1
 40
1
 10
77.801272
 20
23.609264
 30
0.0
 10
78.158075
 20
22.967748
 30
0.0
 10
78.491210
 20
22.313071
 30
0.0
 10
78.793157
 20
21.657345
 30
0.0
  0
SPLINE
  5
1a4
100
AcDbEntity
  8
Ebene_1
 62
7
100
AcDbSpline
 70
8
 71
3
 72
8
 73
4
 74
0
 40
0
 40
0
 40
0
 40
0
 40
1
 40
1
 40
1
 40
1
 10
78.793157
 20
21.657345
 30
0.0
 10
78.343498
 20
21.237497
 30
0.0
 10
77.913571
 20
20.796984
 30
0.0
 10
77.500980
 20
20.342420
 30
0.0
  0
SPLINE
  5
1a5
100
AcDbEntity
  8
Ebene_1
 62
7
100
AcDbSpline
 70
8
 71
3
 72
8
 73
4
 74
0
 40
0
 40
0
 40
0
 40
0
 40
1
 40
1
 40
1
 40
1
 10
77.500980
 20
20.342420
 30
0.0
 10
77.102250
 20
19.903133
 30
0.0
 10
76.719836
 20
19.450403
 30
0.0
 10
76.349849
 20
18.991109
 30
0.0
  0
SPLINE
  5
1a6
100
AcDbEntity
  8
Ebene_1
 62
7
100
AcDbSpline
 70
8
 71
3
 72
8
 73
4
 74
0
 40
0
 40
0
 40
0
 40
0
 40
1
 40
1
 40
1
 40
1
 10
76.349849
 20
18.991109
 30
0.0
 10
76.037457
 20
19.840643
 30
0.0
 10
75.439786
 20
20.517929
 30
0.0
 10
74.720975
 20
21.070407
 30
0.0
  0
SPLINE
  5
1a7
100
AcDbEntity
  8
Ebene_1
 62
7
100
AcDbSpline
 70
8
 71
3
 72
8
 73
4
 74
0
 40
0
 40
0
 40
0
 40
0
 40
1
 40
1
 40
1
 40
1
 10
74.720975
 20
21.070407
 30
0.0
 10
73.968819
 20
21.648511
 30
0.0
 10
73.089866
 20
22.098303
 30
0.0
 10
72.286766
 20
22.494534
 30
0.0
  0
LINE
  5
1a8
100
AcDbEntity
  8
Ebene_1
 62
7
100
AcDbLine
 10
72.286766
 20
22.494534
 30
0.0
 11
72.282222
 21
22.494534
 31
0.0
  0
SPLINE
  5
1a9
100
AcDbEntity
  8
Ebene_1
 62
7
100
AcDbSpline
 70
8
 71
3
 72
8
 73
4
 74
0
 40
0
 40
0
 40
0
 40
0
 40
1
 40
1
 40
1
 40
1
 10
72.282222
 20
22.494534
 30
0.0
 10
71.760286
 20
22.700252
 30
0.0
 10
71.074082
 20
22.754255
 30
0.0
 10
70.444052
 20
22.803929
 30
0.0
  0
SPLINE
  5
1aa
100
AcDbEntity
  8
Ebene_1
 62
7
100
AcDbSpline
 70
8
 71
3
 72
8
 73
4
 74
0
 40
0
 40
0
 40
0
 40
0
 40
1
 40
1
 40
1
 40
1
 10
70.444052
 20
22.803929
 30
0.0
 10
69.859531
 20
22.850016
 30
0.0
 10
69.342965
 20
22.907279
 30
0.0
 10
69.056326
 20
23.049623
 30
0.0
  0
SPLINE
  5
1ab
100
AcDbEntity
  8
Ebene_1
 62
7
100
AcDbSpline
 70
8
 71
3
 72
8
 73
4
 74
0
 40
0
 40
0
 40
0
 40
0
 40
1
 40
1
 40
1
 40
1
 10
69.056326
 20
23.049623
 30
0.0
 10
69.939741
 20
24.018523
 30
0.0
 10
70.704781
 20
25.105423
 30
0.0
 10
71.272140
 20
26.284621
 30
0.0
  0
SPLINE
  5
1ac
100
AcDbEntity
  8
Ebene_1
 62
7
100
AcDbSpline
 70
8
 71
3
 72
8
 73
4
 74
0
 40
0
 40
0
 40
0
 40
0
 40
1
 40
1
 40
1
 40
1
 10
71.272140
 20
26.284621
 30
0.0
 10
71.854876
 20
27.495780
 30
0.0
 10
72.231442
 20
28.799167
 30
0.0
 10
72.327722
 20
30.165707
 30
0.0
  0
SPLINE
  5
1ad
100
AcDbEntity
  8
Ebene_1
 62
7
100
AcDbSpline
 70
8
 71
3
 72
8
 73
4
 74
0
 40
0
 40
0
 40
0
 40
0
 40
1
 40
1
 40
1
 40
1
 10
72.327722
 20
30.165707
 30
0.0
 10
72.536324
 20
30.917733
 30
0.0
 10
72.378367
 20
31.717192
 30
0.0
 10
72.327722
 20
32.463422
 30
0.0
  0
SPLINE
  5
1ae
100
AcDbEntity
  8
Ebene_1
 62
7
100
AcDbSpline
 70
8
 71
3
 72
8
 73
4
 74
0
 40
0
 40
0
 40
0
 40
0
 40
1
 40
1
 40
1
 40
1
 10
72.327722
 20
32.463422
 30
0.0
 10
72.276767
 20
33.214237
 30
0.0
 10
72.327440
 20
33.898781
 30
0.0
 10
72.932863
 20
34.456286
 30
0.0
  0
LINE
  5
1af
100
AcDbEntity
  8
Ebene_1
 62
7
100
AcDbLine
 10
72.932863
 20
34.456286
 30
0.0
 11
72.937407
 21
34.460830
 31
0.0
  0
SPLINE
  5
1b0
100
AcDbEntity
  8
Ebene_1
 62
7
100
AcDbSpline
 70
8
 71
3
 72
8
 73
4
 74
0
 40
0
 40
0
 40
0
 40
0
 40
1
 40
1
 40
1
 40
1
 10
72.937407
 20
34.460830
 30
0.0
 10
73.996635
 20
35.665783
 30
0.0
 10
74.667832
 20
37.115638
 30
0.0
 10
74.980323
 20
38.642212
 30
0.0
  0
SPLINE
  5
1b1
100
AcDbEntity
  8
Ebene_1
 62
7
100
AcDbSpline
 70
8
 71
3
 72
8
 73
4
 74
0
 40
0
 40
0
 40
0
 40
0
 40
1
 40
1
 40
1
 40
1
 10
74.980323
 20
38.642212
 30
0.0
 10
75.291927
 20
40.164451
 30
0.0
 10
75.246526
 20
41.764699
 30
0.0
 10
74.871126
 20
43.287683
 30
0.0
  0
SPLINE
  5
1b2
100
AcDbEntity
  8
Ebene_1
 62
7
100
AcDbSpline
 70
8
 71
3
 72
8
 73
4
 74
0
 40
0
 40
0
 40
0
 40
0
 40
1
 40
1
 40
1
 40
1
 10
74.871126
 20
43.287683
 30
0.0
 10
74.870843
 20
43.292255
 30
0.0
 10
74.871408
 20
43.296798
 30
0.0
 10
74.871126
 20
43.301314
 30
0.0
  0
SPLINE
  5
1b3
100
AcDbEntity
  8
Ebene_1
 62
7
100
AcDbSpline
 70
8
 71
3
 72
8
 73
4
 74
0
 40
0
 40
0
 40
0
 40
0
 40
1
 40
1
 40
1
 40
1
 10
74.871126
 20
43.301314
 30
0.0
 10
74.827895
 20
43.960983
 30
0.0
 10
74.514284
 20
44.561526
 30
0.0
 10
74.225037
 20
45.139487
 30
0.0
  0
SPLINE
  5
1b4
100
AcDbEntity
  8
Ebene_1
 62
7
100
AcDbSpline
 70
8
 71
3
 72
8
 73
4
 74
0
 40
0
 40
0
 40
0
 40
0
 40
1
 40
1
 40
1
 40
1
 10
74.225037
 20
45.139487
 30
0.0
 10
73.934554
 20
45.719896
 30
0.0
 10
73.671153
 20
46.277858
 30
0.0
 10
73.701791
 20
46.850256
 30
0.0
  0
SPLINE
  5
1b5
100
AcDbEntity
  8
Ebene_1
 62
7
100
AcDbSpline
 70
8
 71
3
 72
8
 73
4
 74
0
 40
0
 40
0
 40
0
 40
0
 40
1
 40
1
 40
1
 40
1
 10
73.701791
 20
46.850256
 30
0.0
 10
73.701876
 20
46.851949
 30
0.0
 10
73.701710
 20
46.853388
 30
0.0
 10
73.701791
 20
46.854828
 30
0.0
  0
SPLINE
  5
1b6
100
AcDbEntity
  8
Ebene_1
 62
7
100
AcDbSpline
 70
8
 71
3
 72
8
 73
4
 74
0
 40
0
 40
0
 40
0
 40
0
 40
1
 40
1
 40
1
 40
1
 10
73.701791
 20
46.854828
 30
0.0
 10
74.213252
 20
48.249717
 30
0.0
 10
74.415184
 20
49.756069
 30
0.0
 10
74.275086
 20
51.222755
 30
0.0
  0
SPLINE
  5
1b7
100
AcDbEntity
  8
Ebene_1
 62
7
100
AcDbSpline
 70
8
 71
3
 72
8
 73
4
 74
0
 40
0
 40
0
 40
0
 40
0
 40
1
 40
1
 40
1
 40
1
 10
74.275086
 20
51.222755
 30
0.0
 10
74.134258
 20
52.697045
 30
0.0
 10
73.649566
 20
54.128445
 30
0.0
 10
72.782709
 20
55.363184
 30
0.0
  0
LINE
  5
1b8
100
AcDbEntity
  8
Ebene_1
 62
7
100
AcDbLine
 10
72.782709
 20
55.363184
 30
0.0
 11
72.773594
 21
55.376815
 31
0.0
  0
LINE
  5
1b9
100
AcDbEntity
  8
Ebene_1
 62
7
100
AcDbLine
 10
72.773594
 20
55.376815
 30
0.0
 11
72.759962
 21
55.385931
 31
0.0
  0
SPLINE
  5
1ba
100
AcDbEntity
  8
Ebene_1
 62
7
100
AcDbSpline
 70
8
 71
3
 72
8
 73
4
 74
0
 40
0
 40
0
 40
0
 40
0
 40
1
 40
1
 40
1
 40
1
 10
72.759962
 20
55.385931
 30
0.0
 10
72.273767
 20
55.688456
 30
0.0
 10
71.950538
 20
56.285509
 30
0.0
 10
71.581532
 20
56.796407
 30
0.0
  0
SPLINE
  5
1bb
100
AcDbEntity
  8
Ebene_1
 62
7
100
AcDbSpline
 70
8
 71
3
 72
8
 73
4
 74
0
 40
0
 40
0
 40
0
 40
0
 40
1
 40
1
 40
1
 40
1
 10
71.581532
 20
56.796407
 30
0.0
 10
71.397029
 20
57.051855
 30
0.0
 10
71.198887
 20
57.286323
 30
0.0
 10
70.958194
 20
57.447045
 30
0.0
  0
SPLINE
  5
1bc
100
AcDbEntity
  8
Ebene_1
 62
7
100
AcDbSpline
 70
8
 71
3
 72
8
 73
4
 74
0
 40
0
 40
0
 40
0
 40
0
 40
1
 40
1
 40
1
 40
1
 10
70.958194
 20
57.447045
 30
0.0
 10
70.735859
 20
57.595514
 30
0.0
 10
70.468854
 20
57.663840
 30
0.0
 10
70.157408
 20
57.638144
 30
0.0
  0
SPLINE
  5
1bd
100
AcDbEntity
  8
Ebene_1
 62
7
100
AcDbSpline
 70
8
 71
3
 72
8
 73
4
 74
0
 40
0
 40
0
 40
0
 40
0
 40
1
 40
1
 40
1
 40
1
 10
70.157408
 20
57.638144
 30
0.0
 10
70.047129
 20
58.995096
 30
0.0
 10
69.678378
 20
60.310497
 30
0.0
 10
69.106375
 20
61.532878
 30
0.0
  0
SPLINE
  5
1be
100
AcDbEntity
  8
Ebene_1
 62
7
100
AcDbSpline
 70
8
 71
3
 72
8
 73
4
 74
0
 40
0
 40
0
 40
0
 40
0
 40
1
 40
1
 40
1
 40
1
 10
69.106375
 20
61.532878
 30
0.0
 10
68.525353
 20
62.774534
 30
0.0
 10
67.738670
 20
63.921446
 30
0.0
 10
66.813213
 20
64.931672
 30
0.0
  0
LINE
  5
1bf
100
AcDbEntity
  8
Ebene_1
 62
7
100
AcDbLine
 10
66.813213
 20
64.931672
 30
0.0
 11
66.817756
 21
64.931672
 31
0.0
  0
SPLINE
  5
1c0
100
AcDbEntity
  8
Ebene_1
 62
7
100
AcDbSpline
 70
8
 71
3
 72
8
 73
4
 74
0
 40
0
 40
0
 40
0
 40
0
 40
1
 40
1
 40
1
 40
1
 10
66.817756
 20
64.931672
 30
0.0
 10
66.265261
 20
65.610834
 30
0.0
 10
65.538119
 20
66.012261
 30
0.0
 10
64.761186
 20
66.273898
 30
0.0
  0
SPLINE
  5
1c1
100
AcDbEntity
  8
Ebene_1
 62
7
100
AcDbSpline
 70
8
 71
3
 72
8
 73
4
 74
0
 40
0
 40
0
 40
0
 40
0
 40
1
 40
1
 40
1
 40
1
 10
64.761186
 20
66.273898
 30
0.0
 10
63.997657
 20
66.531028
 30
0.0
 10
63.185762
 20
66.655324
 30
0.0
 10
62.431625
 20
66.760743
 30
0.0
  0
SPLINE
  5
1c2
100
AcDbEntity
  8
Ebene_1
 62
7
100
AcDbSpline
 70
8
 71
3
 72
8
 73
4
 74
0
 40
0
 40
0
 40
0
 40
0
 40
1
 40
1
 40
1
 40
1
 10
62.431625
 20
66.760743
 30
0.0
 10
62.200759
 20
67.600989
 30
0.0
 10
61.827816
 20
68.385425
 30
0.0
 10
61.330546
 20
69.081205
 30
0.0
  0
SPLINE
  5
1c3
100
AcDbEntity
  8
Ebene_1
 62
7
100
AcDbSpline
 70
8
 71
3
 72
8
 73
4
 74
0
 40
0
 40
0
 40
0
 40
0
 40
1
 40
1
 40
1
 40
1
 10
61.330546
 20
69.081205
 30
0.0
 10
60.824962
 20
69.788615
 30
0.0
 10
60.194297
 20
70.405188
 30
0.0
 10
59.465077
 20
70.905726
 30
0.0
  0
SPLINE
  5
1c4
100
AcDbEntity
  8
Ebene_1
 62
7
100
AcDbSpline
 70
8
 71
3
 72
8
 73
4
 74
0
 40
0
 40
0
 40
0
 40
0
 40
1
 40
1
 40
1
 40
1
 10
59.465077
 20
70.905726
 30
0.0
 10
59.462820
 20
70.907984
 30
0.0
 10
59.458530
 20
70.907984
 30
0.0
 10
59.455962
 20
70.910270
 30
0.0
  0
SPLINE
  5
1c5
100
AcDbEntity
  8
Ebene_1
 62
7
100
AcDbSpline
 70
8
 71
3
 72
8
 73
4
 74
0
 40
0
 40
0
 40
0
 40
0
 40
1
 40
1
 40
1
 40
1
 10
59.455962
 20
70.910270
 30
0.0
 10
58.357556
 20
71.892226
 30
0.0
 10
56.957657
 20
72.330903
 30
0.0
 10
55.538477
 20
72.338950
 30
0.0
  0
SPLINE
  5
1c6
100
AcDbEntity
  8
Ebene_1
 62
7
100
AcDbSpline
 70
8
 71
3
 72
8
 73
4
 74
0
 40
0
 40
0
 40
0
 40
0
 40
1
 40
1
 40
1
 40
1
 10
55.538477
 20
72.338950
 30
0.0
 10
54.138587
 20
72.346880
 30
0.0
 10
52.721696
 20
71.938036
 30
0.0
 10
51.543644
 20
71.224217
 30
0.0
  0
SPLINE
  5
1c7
100
AcDbEntity
  8
Ebene_1
 62
7
100
AcDbSpline
 70
8
 71
3
 72
8
 73
4
 74
0
 40
0
 40
0
 40
0
 40
0
 40
1
 40
1
 40
1
 40
1
 10
51.543644
 20
71.224217
 30
0.0
 10
50.886199
 20
72.115523
 30
0.0
 10
49.989432
 20
72.850460
 30
0.0
 10
48.977485
 20
73.326281
 30
0.0
  0
LINE
  5
1c8
100
AcDbEntity
  8
Ebene_1
 62
7
100
AcDbLine
 10
48.977485
 20
73.326281
 30
0.0
 11
48.972941
 21
73.330825
 31
0.0
  0
SPLINE
  5
1c9
100
AcDbEntity
  8
Ebene_1
 62
7
100
AcDbSpline
 70
8
 71
3
 72
8
 73
4
 74
0
 40
0
 40
0
 40
0
 40
0
 40
1
 40
1
 40
1
 40
1
 10
48.972941
 20
73.330825
 30
0.0
 10
48.196757
 20
73.694909
 30
0.0
 10
47.351843
 20
73.907129
 30
0.0
 10
46.493232
 20
73.922312
 30
0.0
  0
LINE
  5
1ca
100
AcDbEntity
  8
Ebene_1
 62
7
100
AcDbLine
 10
46.493232
 20
73.922312
 30
0.0
 11
46.493295
 21
73.923052
 31
0.0
  0
SPLINE
  5
1cb
100
AcDbEntity
  8
Ebene_1
 62
7
100
AcDbSpline
 70
8
 71
3
 72
8
 73
4
 74
0
 40
0
 40
0
 40
0
 40
0
 40
1
 40
1
 40
1
 40
1
 10
85.857306
 20
140.490138
 30
0.0
 10
87.478636
 20
140.461388
 30
0.0
 10
89.077752
 20
140.060303
 30
0.0
 10
90.549250
 20
139.370069
 30
0.0
  0
LINE
  5
1cc
100
AcDbEntity
  8
Ebene_1
 62
7
100
AcDbLine
 10
90.549250
 20
139.370069
 30
0.0
 11
90.558056
 21
139.370069
 31
0.0
  0
SPLINE
  5
1cd
100
AcDbEntity
  8
Ebene_1
 62
7
100
AcDbSpline
 70
8
 71
3
 72
8
 73
4
 74
0
 40
0
 40
0
 40
0
 40
0
 40
1
 40
1
 40
1
 40
1
 10
90.558056
 20
139.370069
 30
0.0
 10
92.517189
 20
138.449635
 30
0.0
 10
94.252982
 20
137.014272
 30
0.0
 10
95.505764
 20
135.277847
 30
0.0
  0
LINE
  5
1ce
100
AcDbEntity
  8
Ebene_1
 62
7
100
AcDbLine
 10
95.505764
 20
135.277847
 30
0.0
 11
95.576319
 21
135.172013
 31
0.0
  0
LINE
  5
1cf
100
AcDbEntity
  8
Ebene_1
 62
7
100
AcDbLine
 10
95.576319
 20
135.172013
 30
0.0
 11
95.690972
 21
135.242569
 31
0.0
  0
SPLINE
  5
1d0
100
AcDbEntity
  8
Ebene_1
 62
7
100
AcDbSpline
 70
8
 71
3
 72
8
 73
4
 74
0
 40
0
 40
0
 40
0
 40
0
 40
1
 40
1
 40
1
 40
1
 10
95.690972
 20
135.242569
 30
0.0
 10
97.949828
 20
136.639493
 30
0.0
 10
100.698766
 20
137.436268
 30
0.0
 10
103.399167
 20
137.420972
 30
0.0
  0
SPLINE
  5
1d1
100
AcDbEntity
  8
Ebene_1
 62
7
100
AcDbSpline
 70
8
 71
3
 72
8
 73
4
 74
0
 40
0
 40
0
 40
0
 40
0
 40
1
 40
1
 40
1
 40
1
 10
103.399167
 20
137.420972
 30
0.0
 10
106.099568
 20
137.405675
 30
0.0
 10
108.751683
 20
136.574155
 30
0.0
 10
110.825139
 20
134.713402
 30
0.0
  0
LINE
  5
1d2
100
AcDbEntity
  8
Ebene_1
 62
7
100
AcDbLine
 10
110.825139
 20
134.713402
 30
0.0
 11
110.833944
 21
134.713402
 31
0.0
  0
LINE
  5
1d3
100
AcDbEntity
  8
Ebene_1
 62
7
100
AcDbLine
 10
110.833944
 20
134.713402
 30
0.0
 11
110.833944
 21
134.704597
 31
0.0
  0
SPLINE
  5
1d4
100
AcDbEntity
  8
Ebene_1
 62
7
100
AcDbSpline
 70
8
 71
3
 72
8
 73
4
 74
0
 40
0
 40
0
 40
0
 40
0
 40
1
 40
1
 40
1
 40
1
 10
110.833944
 20
134.704597
 30
0.0
 10
112.227244
 20
133.750911
 30
0.0
 10
113.432658
 20
132.570209
 30
0.0
 10
114.397000
 20
131.220916
 30
0.0
  0
SPLINE
  5
1d5
100
AcDbEntity
  8
Ebene_1
 62
7
100
AcDbSpline
 70
8
 71
3
 72
8
 73
4
 74
0
 40
0
 40
0
 40
0
 40
0
 40
1
 40
1
 40
1
 40
1
 10
114.397000
 20
131.220916
 30
0.0
 10
115.361339
 20
129.871623
 30
0.0
 10
116.086501
 20
128.356685
 30
0.0
 10
116.522486
 20
126.723000
 30
0.0
  0
LINE
  5
1d6
100
AcDbEntity
  8
Ebene_1
 62
7
100
AcDbLine
 10
116.522486
 20
126.723000
 30
0.0
 11
116.548930
 21
126.625986
 31
0.0
  0
LINE
  5
1d7
100
AcDbEntity
  8
Ebene_1
 62
7
100
AcDbLine
 10
116.548930
 20
126.625986
 30
0.0
 11
116.637125
 21
126.617180
 31
0.0
  0
SPLINE
  5
1d8
100
AcDbEntity
  8
Ebene_1
 62
7
100
AcDbSpline
 70
8
 71
3
 72
8
 73
4
 74
0
 40
0
 40
0
 40
0
 40
0
 40
1
 40
1
 40
1
 40
1
 10
116.637125
 20
126.617180
 30
0.0
 10
118.119460
 20
126.410286
 30
0.0
 10
119.715029
 20
126.178345
 30
0.0
 10
121.187958
 20
125.682319
 30
0.0
  0
SPLINE
  5
1d9
100
AcDbEntity
  8
Ebene_1
 62
7
100
AcDbSpline
 70
8
 71
3
 72
8
 73
4
 74
0
 40
0
 40
0
 40
0
 40
0
 40
1
 40
1
 40
1
 40
1
 10
121.187958
 20
125.682319
 30
0.0
 10
122.660884
 20
125.186297
 30
0.0
 10
124.012788
 20
124.425200
 30
0.0
 10
125.042055
 20
123.159958
 30
0.0
  0
LINE
  5
1da
100
AcDbEntity
  8
Ebene_1
 62
7
100
AcDbLine
 10
125.042055
 20
123.159958
 30
0.0
 11
125.050860
 21
123.159958
 31
0.0
  0
SPLINE
  5
1db
100
AcDbEntity
  8
Ebene_1
 62
7
100
AcDbSpline
 70
8
 71
3
 72
8
 73
4
 74
0
 40
0
 40
0
 40
0
 40
0
 40
1
 40
1
 40
1
 40
1
 10
125.050860
 20
123.159958
 30
0.0
 10
126.826521
 20
121.221664
 30
0.0
 10
128.329809
 20
119.012364
 30
0.0
 10
129.442944
 20
116.633569
 30
0.0
  0
SPLINE
  5
1dc
100
AcDbEntity
  8
Ebene_1
 62
7
100
AcDbSpline
 70
8
 71
3
 72
8
 73
4
 74
0
 40
0
 40
0
 40
0
 40
0
 40
1
 40
1
 40
1
 40
1
 10
129.442944
 20
116.633569
 30
0.0
 10
130.556082
 20
114.254775
 30
0.0
 10
131.273437
 20
111.703740
 30
0.0
 10
131.471416
 20
109.066486
 30
0.0
  0
LINE
  5
1dd
100
AcDbEntity
  8
Ebene_1
 62
7
100
AcDbLine
 10
131.471416
 20
109.066486
 30
0.0
 11
131.489055
 21
108.916555
 31
0.0
  0
LINE
  5
1de
100
AcDbEntity
  8
Ebene_1
 62
7
100
AcDbLine
 10
131.489055
 20
108.916555
 30
0.0
 11
131.630166
 21
108.934194
 31
0.0
  0
SPLINE
  5
1df
100
AcDbEntity
  8
Ebene_1
 62
7
100
AcDbSpline
 70
8
 71
3
 72
8
 73
4
 74
0
 40
0
 40
0
 40
0
 40
0
 40
1
 40
1
 40
1
 40
1
 10
131.630166
 20
108.934194
 30
0.0
 10
132.237336
 20
109.017628
 30
0.0
 10
132.709807
 20
108.879288
 30
0.0
 10
133.129472
 20
108.599055
 30
0.0
  0
SPLINE
  5
1e0
100
AcDbEntity
  8
Ebene_1
 62
7
100
AcDbSpline
 70
8
 71
3
 72
8
 73
4
 74
0
 40
0
 40
0
 40
0
 40
0
 40
1
 40
1
 40
1
 40
1
 10
133.129472
 20
108.599055
 30
0.0
 10
133.549136
 20
108.318823
 30
0.0
 10
133.917501
 20
107.892571
 30
0.0
 10
134.267180
 20
107.408430
 30
0.0
  0
SPLINE
  5
1e1
100
AcDbEntity
  8
Ebene_1
 62
7
100
AcDbSpline
 70
8
 71
3
 72
8
 73
4
 74
0
 40
0
 40
0
 40
0
 40
0
 40
1
 40
1
 40
1
 40
1
 10
134.267180
 20
107.408430
 30
0.0
 10
134.956993
 20
106.453362
 30
0.0
 10
135.586645
 20
105.288225
 30
0.0
 10
136.595513
 20
104.639125
 30
0.0
  0
SPLINE
  5
1e2
100
AcDbEntity
  8
Ebene_1
 62
7
100
AcDbSpline
 70
8
 71
3
 72
8
 73
4
 74
0
 40
0
 40
0
 40
0
 40
0
 40
1
 40
1
 40
1
 40
1
 10
136.595513
 20
104.639125
 30
0.0
 10
136.599013
 20
104.636867
 30
0.0
 10
136.600819
 20
104.632549
 30
0.0
 10
136.604319
 20
104.630319
 30
0.0
  0
SPLINE
  5
1e3
100
AcDbEntity
  8
Ebene_1
 62
7
100
AcDbSpline
 70
8
 71
3
 72
8
 73
4
 74
0
 40
0
 40
0
 40
0
 40
0
 40
1
 40
1
 40
1
 40
1
 10
136.604319
 20
104.630319
 30
0.0
 10
138.249750
 20
102.282595
 30
0.0
 10
139.175795
 20
99.555419
 30
0.0
 10
139.444180
 20
96.745736
 30
0.0
  0
SPLINE
  5
1e4
100
AcDbEntity
  8
Ebene_1
 62
7
100
AcDbSpline
 70
8
 71
3
 72
8
 73
4
 74
0
 40
0
 40
0
 40
0
 40
0
 40
1
 40
1
 40
1
 40
1
 10
139.444180
 20
96.745736
 30
0.0
 10
139.712948
 20
93.932057
 30
0.0
 10
139.321190
 20
91.034673
 30
0.0
 10
138.332930
 20
88.358444
 30
0.0
  0
LINE
  5
1e5
100
AcDbEntity
  8
Ebene_1
 62
7
100
AcDbLine
 10
138.332930
 20
88.358444
 30
0.0
 11
138.324124
 21
88.340806
 31
0.0
  0
LINE
  5
1e6
100
AcDbEntity
  8
Ebene_1
 62
7
100
AcDbLine
 10
138.324124
 20
88.340806
 30
0.0
 11
138.324124
 21
88.314361
 31
0.0
  0
SPLINE
  5
1e7
100
AcDbEntity
  8
Ebene_1
 62
7
100
AcDbSpline
 70
8
 71
3
 72
8
 73
4
 74
0
 40
0
 40
0
 40
0
 40
0
 40
1
 40
1
 40
1
 40
1
 10
138.324124
 20
88.314361
 30
0.0
 10
138.256185
 20
87.106162
 30
0.0
 10
138.798859
 20
85.979176
 30
0.0
 10
139.364819
 20
84.848320
 30
0.0
  0
SPLINE
  5
1e8
100
AcDbEntity
  8
Ebene_1
 62
7
100
AcDbSpline
 70
8
 71
3
 72
8
 73
4
 74
0
 40
0
 40
0
 40
0
 40
0
 40
1
 40
1
 40
1
 40
1
 10
139.364819
 20
84.848320
 30
0.0
 10
139.930779
 20
83.717469
 30
0.0
 10
140.518411
 20
82.582992
 30
0.0
 10
140.590722
 20
81.373459
 30
0.0
  0
LINE
  5
1e9
100
AcDbEntity
  8
Ebene_1
 62
7
100
AcDbLine
 10
140.590722
 20
81.373459
 30
0.0
 11
140.590722
 21
81.364653
 31
0.0
  0
LINE
  5
1ea
100
AcDbEntity
  8
Ebene_1
 62
7
100
AcDbLine
 10
140.590722
 20
81.364653
 30
0.0
 11
140.599527
 21
81.347014
 31
0.0
  0
SPLINE
  5
1eb
100
AcDbEntity
  8
Ebene_1
 62
7
100
AcDbSpline
 70
8
 71
3
 72
8
 73
4
 74
0
 40
0
 40
0
 40
0
 40
0
 40
1
 40
1
 40
1
 40
1
 10
140.599527
 20
81.347014
 30
0.0
 10
141.323102
 20
78.426974
 30
0.0
 10
141.408006
 20
75.354895
 30
0.0
 10
140.811194
 20
72.439375
 30
0.0
  0
SPLINE
  5
1ec
100
AcDbEntity
  8
Ebene_1
 62
7
100
AcDbSpline
 70
8
 71
3
 72
8
 73
4
 74
0
 40
0
 40
0
 40
0
 40
0
 40
1
 40
1
 40
1
 40
1
 10
140.811194
 20
72.439375
 30
0.0
 10
140.215199
 20
69.527838
 30
0.0
 10
138.935361
 20
66.778336
 30
0.0
 10
136.921819
 20
64.484237
 30
0.0
  0
SPLINE
  5
1ed
100
AcDbEntity
  8
Ebene_1
 62
7
100
AcDbSpline
 70
8
 71
3
 72
8
 73
4
 74
0
 40
0
 40
0
 40
0
 40
0
 40
1
 40
1
 40
1
 40
1
 10
136.921819
 20
64.484237
 30
0.0
 10
136.918996
 20
64.481104
 30
0.0
 10
136.915751
 20
64.478564
 30
0.0
 10
136.913013
 20
64.475431
 30
0.0
  0
SPLINE
  5
1ee
100
AcDbEntity
  8
Ebene_1
 62
7
100
AcDbSpline
 70
8
 71
3
 72
8
 73
4
 74
0
 40
0
 40
0
 40
0
 40
0
 40
1
 40
1
 40
1
 40
1
 10
136.913013
 20
64.475431
 30
0.0
 10
135.668289
 20
63.322539
 30
0.0
 10
135.560438
 20
61.868635
 30
0.0
 10
135.660652
 20
60.392028
 30
0.0
  0
SPLINE
  5
1ef
100
AcDbEntity
  8
Ebene_1
 62
7
100
AcDbSpline
 70
8
 71
3
 72
8
 73
4
 74
0
 40
0
 40
0
 40
0
 40
0
 40
1
 40
1
 40
1
 40
1
 10
135.660652
 20
60.392028
 30
0.0
 10
135.761129
 20
58.911530
 30
0.0
 10
136.060409
 20
57.387059
 30
0.0
 10
135.669457
 20
56.008765
 30
0.0
  0
LINE
  5
1f0
100
AcDbEntity
  8
Ebene_1
 62
7
100
AcDbLine
 10
135.669457
 20
56.008765
 30
0.0
 11
135.660652
 21
55.991126
 31
0.0
  0
LINE
  5
1f1
100
AcDbEntity
  8
Ebene_1
 62
7
100
AcDbLine
 10
135.660652
 20
55.991126
 30
0.0
 11
135.660652
 21
55.973487
 31
0.0
  0
SPLINE
  5
1f2
100
AcDbEntity
  8
Ebene_1
 62
7
100
AcDbSpline
 70
8
 71
3
 72
8
 73
4
 74
0
 40
0
 40
0
 40
0
 40
0
 40
1
 40
1
 40
1
 40
1
 10
135.660652
 20
55.973487
 30
0.0
 10
135.476782
 20
53.363758
 30
0.0
 10
134.756895
 20
50.866791
 30
0.0
 10
133.640999
 20
48.547515
 30
0.0
  0
SPLINE
  5
1f3
100
AcDbEntity
  8
Ebene_1
 62
7
100
AcDbSpline
 70
8
 71
3
 72
8
 73
4
 74
0
 40
0
 40
0
 40
0
 40
0
 40
1
 40
1
 40
1
 40
1
 10
133.640999
 20
48.547515
 30
0.0
 10
132.525101
 20
46.228238
 30
0.0
 10
131.012551
 20
44.086137
 30
0.0
 10
129.257735
 20
42.188695
 30
0.0
  0
LINE
  5
1f4
100
AcDbEntity
  8
Ebene_1
 62
7
100
AcDbLine
 10
129.257735
 20
42.188695
 30
0.0
 11
129.143083
 21
42.065223
 31
0.0
  0
LINE
  5
1f5
100
AcDbEntity
  8
Ebene_1
 62
7
100
AcDbLine
 10
129.143083
 20
42.065223
 30
0.0
 11
129.284194
 21
41.977028
 31
0.0
  0
SPLINE
  5
1f6
100
AcDbEntity
  8
Ebene_1
 62
7
100
AcDbSpline
 70
8
 71
3
 72
8
 73
4
 74
0
 40
0
 40
0
 40
0
 40
0
 40
1
 40
1
 40
1
 40
1
 10
129.284194
 20
41.977028
 30
0.0
 10
129.920701
 20
41.571207
 30
0.0
 10
131.043451
 20
41.500090
 30
0.0
 10
132.265166
 20
41.403765
 30
0.0
  0
SPLINE
  5
1f7
100
AcDbEntity
  8
Ebene_1
 62
7
100
AcDbSpline
 70
8
 71
3
 72
8
 73
4
 74
0
 40
0
 40
0
 40
0
 40
0
 40
1
 40
1
 40
1
 40
1
 10
132.265166
 20
41.403765
 30
0.0
 10
133.483756
 20
41.307685
 30
0.0
 10
134.793877
 20
41.201312
 30
0.0
 10
135.740027
 20
40.830501
 30
0.0
  0
SPLINE
  5
1f8
100
AcDbEntity
  8
Ebene_1
 62
7
100
AcDbSpline
 70
8
 71
3
 72
8
 73
4
 74
0
 40
0
 40
0
 40
0
 40
0
 40
1
 40
1
 40
1
 40
1
 10
135.740027
 20
40.830501
 30
0.0
 10
135.742567
 20
40.829654
 30
0.0
 10
135.746434
 20
40.831347
 30
0.0
 10
135.748832
 20
40.830501
 30
0.0
  0
SPLINE
  5
1f9
100
AcDbEntity
  8
Ebene_1
 62
7
100
AcDbSpline
 70
8
 71
3
 72
8
 73
4
 74
0
 40
0
 40
0
 40
0
 40
0
 40
1
 40
1
 40
1
 40
1
 10
135.748832
 20
40.830501
 30
0.0
 10
137.300451
 20
40.064863
 30
0.0
 10
138.977466
 20
39.194058
 30
0.0
 10
140.405499
 20
38.096473
 30
0.0
  0
SPLINE
  5
1fa
100
AcDbEntity
  8
Ebene_1
 62
7
100
AcDbSpline
 70
8
 71
3
 72
8
 73
4
 74
0
 40
0
 40
0
 40
0
 40
0
 40
1
 40
1
 40
1
 40
1
 10
140.405499
 20
38.096473
 30
0.0
 10
141.835615
 20
36.997285
 30
0.0
 10
143.008548
 20
35.673180
 30
0.0
 10
143.562860
 20
33.986612
 30
0.0
  0
LINE
  5
1fb
100
AcDbEntity
  8
Ebene_1
 62
7
100
AcDbLine
 10
143.562860
 20
33.986612
 30
0.0
 11
143.651055
 21
33.739667
 31
0.0
  0
LINE
  5
1fc
100
AcDbEntity
  8
Ebene_1
 62
7
100
AcDbLine
 10
143.651055
 20
33.739667
 30
0.0
 11
143.809805
 21
33.942515
 31
0.0
  0
SPLINE
  5
1fd
100
AcDbEntity
  8
Ebene_1
 62
7
100
AcDbSpline
 70
8
 71
3
 72
8
 73
4
 74
0
 40
0
 40
0
 40
0
 40
0
 40
1
 40
1
 40
1
 40
1
 10
143.809805
 20
33.942515
 30
0.0
 10
144.568661
 20
34.890891
 30
0.0
 10
145.353193
 20
35.825809
 30
0.0
 10
146.173416
 20
36.729459
 30
0.0
  0
SPLINE
  5
1fe
100
AcDbEntity
  8
Ebene_1
 62
7
100
AcDbSpline
 70
8
 71
3
 72
8
 73
4
 74
0
 40
0
 40
0
 40
0
 40
0
 40
1
 40
1
 40
1
 40
1
 10
146.173416
 20
36.729459
 30
0.0
 10
146.993638
 20
37.633112
 30
0.0
 10
147.853897
 20
38.500672
 30
0.0
 10
148.748694
 20
39.331195
 30
0.0
  0
LINE
  5
1ff
100
AcDbEntity
  8
Ebene_1
 62
7
100
AcDbLine
 10
148.748694
 20
39.331195
 30
0.0
 11
148.819249
 21
39.401751
 31
0.0
  0
LINE
  5
200
100
AcDbEntity
  8
Ebene_1
 62
7
100
AcDbLine
 10
148.819249
 20
39.401751
 30
0.0
 11
148.775152
 21
39.498765
 31
0.0
  0
SPLINE
  5
201
100
AcDbEntity
  8
Ebene_1
 62
7
100
AcDbSpline
 70
8
 71
3
 72
8
 73
4
 74
0
 40
0
 40
0
 40
0
 40
0
 40
1
 40
1
 40
1
 40
1
 10
148.775152
 20
39.498765
 30
0.0
 10
148.176886
 20
40.804155
 30
0.0
 10
147.509292
 20
42.112123
 30
0.0
 10
146.799596
 20
43.388140
 30
0.0
  0
SPLINE
  5
202
100
AcDbEntity
  8
Ebene_1
 62
7
100
AcDbSpline
 70
8
 71
3
 72
8
 73
4
 74
0
 40
0
 40
0
 40
0
 40
0
 40
1
 40
1
 40
1
 40
1
 10
146.799596
 20
43.388140
 30
0.0
 10
146.089903
 20
44.664157
 30
0.0
 10
145.343053
 20
45.909891
 30
0.0
 10
144.577096
 20
47.083487
 30
0.0
  0
LINE
  5
203
100
AcDbEntity
  8
Ebene_1
 62
7
100
AcDbLine
 10
144.577096
 20
47.083487
 30
0.0
 11
144.550652
 21
47.118765
 31
0.0
  0
LINE
  5
204
100
AcDbEntity
  8
Ebene_1
 62
7
100
AcDbLine
 10
144.550652
 20
47.118765
 30
0.0
 11
144.506555
 21
47.136403
 31
0.0
  0
SPLINE
  5
205
100
AcDbEntity
  8
Ebene_1
 62
7
100
AcDbSpline
 70
8
 71
3
 72
8
 73
4
 74
0
 40
0
 40
0
 40
0
 40
0
 40
1
 40
1
 40
1
 40
1
 10
144.506555
 20
47.136403
 30
0.0
 10
142.400361
 20
47.923874
 30
0.0
 10
141.223913
 20
49.822188
 30
0.0
 10
140.961138
 20
51.916542
 30
0.0
  0
SPLINE
  5
206
100
AcDbEntity
  8
Ebene_1
 62
7
100
AcDbSpline
 70
8
 71
3
 72
8
 73
4
 74
0
 40
0
 40
0
 40
0
 40
0
 40
1
 40
1
 40
1
 40
1
 10
140.961138
 20
51.916542
 30
0.0
 10
140.698364
 20
54.010894
 30
0.0
 10
141.356715
 20
56.284950
 30
0.0
 10
142.910235
 20
57.781473
 30
0.0
  0
LINE
  5
207
100
AcDbEntity
  8
Ebene_1
 62
7
100
AcDbLine
 10
142.910235
 20
57.781473
 30
0.0
 11
142.927874
 21
57.799112
 31
0.0
  0
LINE
  5
208
100
AcDbEntity
  8
Ebene_1
 62
7
100
AcDbLine
 10
142.927874
 20
57.799112
 30
0.0
 11
142.936680
 21
57.807917
 31
0.0
  0
SPLINE
  5
209
100
AcDbEntity
  8
Ebene_1
 62
7
100
AcDbSpline
 70
8
 71
3
 72
8
 73
4
 74
0
 40
0
 40
0
 40
0
 40
0
 40
1
 40
1
 40
1
 40
1
 10
142.936680
 20
57.807917
 30
0.0
 10
144.151361
 20
59.718361
 30
0.0
 10
146.642068
 20
60.585876
 30
0.0
 10
148.880985
 20
60.321459
 30
0.0
  0
SPLINE
  5
20a
100
AcDbEntity
  8
Ebene_1
 62
7
100
AcDbSpline
 70
8
 71
3
 72
8
 73
4
 74
0
 40
0
 40
0
 40
0
 40
0
 40
1
 40
1
 40
1
 40
1
 10
148.880985
 20
60.321459
 30
0.0
 10
150.000442
 20
60.189249
 30
0.0
 10
151.050292
 20
59.773366
 30
0.0
 10
151.844319
 20
59.077917
 30
0.0
  0
SPLINE
  5
20b
100
AcDbEntity
  8
Ebene_1
 62
7
100
AcDbSpline
 70
8
 71
3
 72
8
 73
4
 74
0
 40
0
 40
0
 40
0
 40
0
 40
1
 40
1
 40
1
 40
1
 10
151.844319
 20
59.077917
 30
0.0
 10
152.638345
 20
58.382468
 30
0.0
 10
153.177206
 20
57.414567
 30
0.0
 10
153.281888
 20
56.132223
 30
0.0
  0
LINE
  5
20c
100
AcDbEntity
  8
Ebene_1
 62
7
100
AcDbLine
 10
153.281888
 20
56.132223
 30
0.0
 11
153.281888
 21
56.123417
 31
0.0
  0
LINE
  5
20d
100
AcDbEntity
  8
Ebene_1
 62
7
100
AcDbLine
 10
153.281888
 20
56.123417
 30
0.0
 11
153.290693
 21
56.114612
 31
0.0
  0
SPLINE
  5
20e
100
AcDbEntity
  8
Ebene_1
 62
7
100
AcDbSpline
 70
8
 71
3
 72
8
 73
4
 74
0
 40
0
 40
0
 40
0
 40
0
 40
1
 40
1
 40
1
 40
1
 10
153.290693
 20
56.114612
 30
0.0
 10
153.517354
 20
54.861599
 30
0.0
 10
152.985176
 20
53.537793
 30
0.0
 10
152.682152
 20
52.234056
 30
0.0
  0
SPLINE
  5
20f
100
AcDbEntity
  8
Ebene_1
 62
7
100
AcDbSpline
 70
8
 71
3
 72
8
 73
4
 74
0
 40
0
 40
0
 40
0
 40
0
 40
1
 40
1
 40
1
 40
1
 10
152.682152
 20
52.234056
 30
0.0
 10
152.530641
 20
51.582191
 30
0.0
 10
152.438684
 20
50.936198
 30
0.0
 10
152.541041
 20
50.302598
 30
0.0
  0
SPLINE
  5
210
100
AcDbEntity
  8
Ebene_1
 62
7
100
AcDbSpline
 70
8
 71
3
 72
8
 73
4
 74
0
 40
0
 40
0
 40
0
 40
0
 40
1
 40
1
 40
1
 40
1
 10
152.541041
 20
50.302598
 30
0.0
 10
152.642522
 20
49.674400
 30
0.0
 10
152.954691
 20
49.069640
 30
0.0
 10
153.564096
 20
48.512251
 30
0.0
  0
LINE
  5
211
100
AcDbEntity
  8
Ebene_1
 62
7
100
AcDbLine
 10
153.564096
 20
48.512251
 30
0.0
 11
153.555291
 21
48.503446
 31
0.0
  0
SPLINE
  5
212
100
AcDbEntity
  8
Ebene_1
 62
7
100
AcDbSpline
 70
8
 71
3
 72
8
 73
4
 74
0
 40
0
 40
0
 40
0
 40
0
 40
1
 40
1
 40
1
 40
1
 10
153.555291
 20
48.503446
 30
0.0
 10
154.156932
 20
47.815633
 30
0.0
 10
154.695031
 20
46.823507
 30
0.0
 10
155.310360
 20
45.954626
 30
0.0
  0
SPLINE
  5
213
100
AcDbEntity
  8
Ebene_1
 62
7
100
AcDbSpline
 70
8
 71
3
 72
8
 73
4
 74
0
 40
0
 40
0
 40
0
 40
0
 40
1
 40
1
 40
1
 40
1
 10
155.310360
 20
45.954626
 30
0.0
 10
155.925689
 20
45.085746
 30
0.0
 10
156.629808
 20
44.326701
 30
0.0
 10
157.585777
 20
44.129001
 30
0.0
  0
LINE
  5
214
100
AcDbEntity
  8
Ebene_1
 62
7
100
AcDbLine
 10
157.585777
 20
44.129001
 30
0.0
 11
157.621055
 21
44.120196
 31
0.0
  0
LINE
  5
215
100
AcDbEntity
  8
Ebene_1
 62
7
100
AcDbLine
 10
157.621055
 20
44.120196
 30
0.0
 11
157.656332
 21
44.129001
 31
0.0
  0
SPLINE
  5
216
100
AcDbEntity
  8
Ebene_1
 62
7
100
AcDbSpline
 70
8
 71
3
 72
8
 73
4
 74
0
 40
0
 40
0
 40
0
 40
0
 40
1
 40
1
 40
1
 40
1
 10
157.656332
 20
44.129001
 30
0.0
 10
158.707861
 20
44.437902
 30
0.0
 10
159.785733
 20
44.433491
 30
0.0
 10
160.848971
 20
44.243654
 30
0.0
  0
SPLINE
  5
217
100
AcDbEntity
  8
Ebene_1
 62
7
100
AcDbSpline
 70
8
 71
3
 72
8
 73
4
 74
0
 40
0
 40
0
 40
0
 40
0
 40
1
 40
1
 40
1
 40
1
 10
160.848971
 20
44.243654
 30
0.0
 10
161.912207
 20
44.053820
 30
0.0
 10
162.952484
 20
43.684109
 30
0.0
 10
163.926957
 20
43.255876
 30
0.0
  0
LINE
  5
218
100
AcDbEntity
  8
Ebene_1
 62
7
100
AcDbLine
 10
163.926957
 20
43.255876
 30
0.0
 11
164.050430
 21
43.202959
 31
0.0
  0
LINE
  5
219
100
AcDbEntity
  8
Ebene_1
 62
7
100
AcDbLine
 10
164.050430
 20
43.202959
 30
0.0
 11
164.112222
 21
43.317499
 31
0.0
  0
SPLINE
  5
21a
100
AcDbEntity
  8
Ebene_1
 62
7
100
AcDbSpline
 70
8
 71
3
 72
8
 73
4
 74
0
 40
0
 40
0
 40
0
 40
0
 40
1
 40
1
 40
1
 40
1
 10
164.112222
 20
43.317499
 30
0.0
 10
164.913962
 20
44.801311
 30
0.0
 10
165.680506
 20
46.309275
 30
0.0
 10
166.396458
 20
47.841874
 30
0.0
  0
SPLINE
  5
21b
100
AcDbEntity
  8
Ebene_1
 62
7
100
AcDbSpline
 70
8
 71
3
 72
8
 73
4
 74
0
 40
0
 40
0
 40
0
 40
0
 40
1
 40
1
 40
1
 40
1
 10
166.396458
 20
47.841874
 30
0.0
 10
167.112408
 20
49.374474
 30
0.0
 10
167.777868
 20
50.931640
 30
0.0
 10
168.363194
 20
52.516180
 30
0.0
  0
LINE
  5
21c
100
AcDbEntity
  8
Ebene_1
 62
7
100
AcDbLine
 10
168.363194
 20
52.516180
 30
0.0
 11
168.389639
 21
52.595555
 31
0.0
  0
LINE
  5
21d
100
AcDbEntity
  8
Ebene_1
 62
7
100
AcDbLine
 10
168.389639
 20
52.595555
 30
0.0
 11
168.336722
 21
52.657291
 31
0.0
  0
SPLINE
  5
21e
100
AcDbEntity
  8
Ebene_1
 62
7
100
AcDbSpline
 70
8
 71
3
 72
8
 73
4
 74
0
 40
0
 40
0
 40
0
 40
0
 40
1
 40
1
 40
1
 40
1
 10
168.336722
 20
52.657291
 30
0.0
 10
166.554187
 20
54.547198
 30
0.0
 10
166.737693
 20
57.079702
 30
0.0
 10
167.975125
 20
59.051388
 30
0.0
  0
SPLINE
  5
21f
100
AcDbEntity
  8
Ebene_1
 62
7
100
AcDbSpline
 70
8
 71
3
 72
8
 73
4
 74
0
 40
0
 40
0
 40
0
 40
0
 40
1
 40
1
 40
1
 40
1
 10
167.975125
 20
59.051388
 30
0.0
 10
169.212559
 20
61.023072
 30
0.0
 10
171.499132
 20
62.396808
 30
0.0
 10
173.884153
 20
61.961805
 30
0.0
  0
LINE
  5
220
100
AcDbEntity
  8
Ebene_1
 62
7
100
AcDbLine
 10
173.884153
 20
61.961805
 30
0.0
 11
173.901791
 21
61.961805
 31
0.0
  0
LINE
  5
221
100
AcDbEntity
  8
Ebene_1
 62
7
100
AcDbLine
 10
173.901791
 20
61.961805
 30
0.0
 11
173.928236
 21
61.961805
 31
0.0
  0
SPLINE
  5
222
100
AcDbEntity
  8
Ebene_1
 62
7
100
AcDbSpline
 70
8
 71
3
 72
8
 73
4
 74
0
 40
0
 40
0
 40
0
 40
0
 40
1
 40
1
 40
1
 40
1
 10
173.928236
 20
61.961805
 30
0.0
 10
175.169909
 20
62.122818
 30
0.0
 10
176.176869
 20
61.848860
 30
0.0
 10
176.997402
 20
61.291527
 30
0.0
  0
SPLINE
  5
223
100
AcDbEntity
  8
Ebene_1
 62
7
100
AcDbSpline
 70
8
 71
3
 72
8
 73
4
 74
0
 40
0
 40
0
 40
0
 40
0
 40
1
 40
1
 40
1
 40
1
 10
176.997402
 20
61.291527
 30
0.0
 10
177.817935
 20
60.734195
 30
0.0
 10
178.448524
 20
59.888231
 30
0.0
 10
178.902402
 20
58.892638
 30
0.0
  0
SPLINE
  5
224
100
AcDbEntity
  8
Ebene_1
 62
7
100
AcDbSpline
 70
8
 71
3
 72
8
 73
4
 74
0
 40
0
 40
0
 40
0
 40
0
 40
1
 40
1
 40
1
 40
1
 10
178.902402
 20
58.892638
 30
0.0
 10
179.810159
 20
56.901456
 30
0.0
 10
180.000746
 20
54.323249
 30
0.0
 10
179.616777
 20
52.401527
 30
0.0
  0
LINE
  5
225
100
AcDbEntity
  8
Ebene_1
 62
7
100
AcDbLine
 10
179.616777
 20
52.401527
 30
0.0
 11
179.616777
 21
52.392722
 31
0.0
  0
SPLINE
  5
226
100
AcDbEntity
  8
Ebene_1
 62
7
100
AcDbSpline
 70
8
 71
3
 72
8
 73
4
 74
0
 40
0
 40
0
 40
0
 40
0
 40
1
 40
1
 40
1
 40
1
 10
179.616777
 20
52.392722
 30
0.0
 10
179.482592
 20
50.821619
 30
0.0
 10
178.522605
 20
49.853735
 30
0.0
 10
177.456013
 20
48.891402
 30
0.0
  0
SPLINE
  5
227
100
AcDbEntity
  8
Ebene_1
 62
7
100
AcDbSpline
 70
8
 71
3
 72
8
 73
4
 74
0
 40
0
 40
0
 40
0
 40
0
 40
1
 40
1
 40
1
 40
1
 10
177.456013
 20
48.891402
 30
0.0
 10
176.395840
 20
47.934864
 30
0.0
 10
175.227155
 20
46.989857
 30
0.0
 10
174.748444
 20
45.469458
 30
0.0
  0
SPLINE
  5
228
100
AcDbEntity
  8
Ebene_1
 62
7
100
AcDbSpline
 70
8
 71
3
 72
8
 73
4
 74
0
 40
0
 40
0
 40
0
 40
0
 40
1
 40
1
 40
1
 40
1
 10
174.748444
 20
45.469458
 30
0.0
 10
174.745537
 20
45.460257
 30
0.0
 10
174.742461
 20
45.452242
 30
0.0
 10
174.739639
 20
45.443014
 30
0.0
  0
SPLINE
  5
229
100
AcDbEntity
  8
Ebene_1
 62
7
100
AcDbSpline
 70
8
 71
3
 72
8
 73
4
 74
0
 40
0
 40
0
 40
0
 40
0
 40
1
 40
1
 40
1
 40
1
 10
174.739639
 20
45.443014
 30
0.0
 10
174.129979
 20
44.281613
 30
0.0
 10
173.547004
 20
43.041622
 30
0.0
 10
173.072764
 20
41.774125
 30
0.0
  0
SPLINE
  5
22a
100
AcDbEntity
  8
Ebene_1
 62
7
100
AcDbSpline
 70
8
 71
3
 72
8
 73
4
 74
0
 40
0
 40
0
 40
0
 40
0
 40
1
 40
1
 40
1
 40
1
 10
173.072764
 20
41.774125
 30
0.0
 10
172.595249
 20
40.497879
 30
0.0
 10
172.227404
 20
39.194919
 30
0.0
 10
172.058528
 20
37.902389
 30
0.0
  0
LINE
  5
22b
100
AcDbEntity
  8
Ebene_1
 62
7
100
AcDbLine
 10
172.058528
 20
37.902389
 30
0.0
 11
172.049722
 21
37.849472
 31
0.0
  0
LINE
  5
22c
100
AcDbEntity
  8
Ebene_1
 62
7
100
AcDbLine
 10
172.049722
 20
37.849472
 30
0.0
 11
172.076166
 21
37.814194
 31
0.0
  0
SPLINE
  5
22d
100
AcDbEntity
  8
Ebene_1
 62
7
100
AcDbSpline
 70
8
 71
3
 72
8
 73
4
 74
0
 40
0
 40
0
 40
0
 40
0
 40
1
 40
1
 40
1
 40
1
 10
172.076166
 20
37.814194
 30
0.0
 10
173.507344
 20
35.463503
 30
0.0
 10
174.358376
 20
32.746573
 30
0.0
 10
174.651444
 20
29.964889
 30
0.0
  0
SPLINE
  5
22e
100
AcDbEntity
  8
Ebene_1
 62
7
100
AcDbSpline
 70
8
 71
3
 72
8
 73
4
 74
0
 40
0
 40
0
 40
0
 40
0
 40
1
 40
1
 40
1
 40
1
 10
174.651444
 20
29.964889
 30
0.0
 10
174.944210
 20
27.186089
 30
0.0
 10
174.678876
 20
24.342427
 30
0.0
 10
173.875333
 20
21.718708
 30
0.0
  0
SPLINE
  5
22f
100
AcDbEntity
  8
Ebene_1
 62
7
100
AcDbSpline
 70
8
 71
3
 72
8
 73
4
 74
0
 40
0
 40
0
 40
0
 40
0
 40
1
 40
1
 40
1
 40
1
 10
173.875333
 20
21.718708
 30
0.0
 10
173.874486
 20
21.715886
 30
0.0
 10
173.876180
 20
21.712612
 30
0.0
 10
173.875333
 20
21.709903
 30
0.0
  0
SPLINE
  5
230
100
AcDbEntity
  8
Ebene_1
 62
7
100
AcDbSpline
 70
8
 71
3
 72
8
 73
4
 74
0
 40
0
 40
0
 40
0
 40
0
 40
1
 40
1
 40
1
 40
1
 10
173.875333
 20
21.709903
 30
0.0
 10
173.155277
 20
19.933218
 30
0.0
 10
172.190624
 20
18.282805
 30
0.0
 10
171.061930
 20
16.744556
 30
0.0
  0
SPLINE
  5
231
100
AcDbEntity
  8
Ebene_1
 62
7
100
AcDbSpline
 70
8
 71
3
 72
8
 73
4
 74
0
 40
0
 40
0
 40
0
 40
0
 40
1
 40
1
 40
1
 40
1
 10
171.061930
 20
16.744556
 30
0.0
 10
169.931670
 20
15.204175
 30
0.0
 10
168.639273
 20
13.782069
 30
0.0
 10
167.278389
 20
12.467111
 30
0.0
  0
LINE
  5
232
100
AcDbEntity
  8
Ebene_1
 62
7
100
AcDbLine
 10
167.278389
 20
12.467111
 30
0.0
 11
167.207833
 21
12.396555
 31
0.0
  0
LINE
  5
233
100
AcDbEntity
  8
Ebene_1
 62
7
100
AcDbLine
 10
167.207833
 20
12.396555
 30
0.0
 11
167.243111
 21
12.317166
 31
0.0
  0
SPLINE
  5
234
100
AcDbEntity
  8
Ebene_1
 62
7
100
AcDbSpline
 70
8
 71
3
 72
8
 73
4
 74
0
 40
0
 40
0
 40
0
 40
0
 40
1
 40
1
 40
1
 40
1
 10
167.243111
 20
12.317166
 30
0.0
 10
168.153526
 20
9.602725
 30
0.0
 10
166.897377
 20
6.867653
 30
0.0
 10
164.800125
 20
5.217528
 30
0.0
  0
SPLINE
  5
235
100
AcDbEntity
  8
Ebene_1
 62
7
100
AcDbSpline
 70
8
 71
3
 72
8
 73
4
 74
0
 40
0
 40
0
 40
0
 40
0
 40
1
 40
1
 40
1
 40
1
 10
164.800125
 20
5.217528
 30
0.0
 10
162.705841
 20
3.569717
 30
0.0
 10
159.796045
 20
3.015658
 30
0.0
 10
157.374153
 20
4.644306
 30
0.0
  0
SPLINE
  5
236
100
AcDbEntity
  8
Ebene_1
 62
7
100
AcDbSpline
 70
8
 71
3
 72
8
 73
4
 74
0
 40
0
 40
0
 40
0
 40
0
 40
1
 40
1
 40
1
 40
1
 10
157.374153
 20
4.644306
 30
0.0
 10
157.370963
 20
4.647128
 30
0.0
 10
157.368508
 20
4.650233
 30
0.0
 10
157.365347
 20
4.653055
 30
0.0
  0
SPLINE
  5
237
100
AcDbEntity
  8
Ebene_1
 62
7
100
AcDbSpline
 70
8
 71
3
 72
8
 73
4
 74
0
 40
0
 40
0
 40
0
 40
0
 40
1
 40
1
 40
1
 40
1
 10
157.365347
 20
4.653055
 30
0.0
 10
156.587396
 20
5.330670
 30
0.0
 10
156.269134
 20
6.360245
 30
0.0
 10
156.077708
 20
7.431194
 30
0.0
  0
SPLINE
  5
238
100
AcDbEntity
  8
Ebene_1
 62
7
100
AcDbSpline
 70
8
 71
3
 72
8
 73
4
 74
0
 40
0
 40
0
 40
0
 40
0
 40
1
 40
1
 40
1
 40
1
 10
156.077708
 20
7.431194
 30
0.0
 10
155.885495
 20
8.506432
 30
0.0
 10
155.825438
 20
9.607381
 30
0.0
 10
155.539722
 20
10.412138
 30
0.0
  0
LINE
  5
239
100
AcDbEntity
  8
Ebene_1
 62
7
100
AcDbLine
 10
155.539722
 20
10.412138
 30
0.0
 11
155.504444
 21
10.526805
 31
0.0
  0
LINE
  5
23a
100
AcDbEntity
  8
Ebene_1
 62
7
100
AcDbLine
 10
155.504444
 20
10.526805
 30
0.0
 11
155.389792
 21
10.509307
 31
0.0
  0
SPLINE
  5
23b
100
AcDbEntity
  8
Ebene_1
 62
7
100
AcDbSpline
 70
8
 71
3
 72
8
 73
4
 74
0
 40
0
 40
0
 40
0
 40
0
 40
1
 40
1
 40
1
 40
1
 10
155.389792
 20
10.509307
 30
0.0
 10
154.309445
 20
10.335599
 30
0.0
 10
153.196050
 20
10.252654
 30
0.0
 10
152.338264
 20
9.839029
 30
0.0
  0
SPLINE
  5
23c
100
AcDbEntity
  8
Ebene_1
 62
7
100
AcDbSpline
 70
8
 71
3
 72
8
 73
4
 74
0
 40
0
 40
0
 40
0
 40
0
 40
1
 40
1
 40
1
 40
1
 10
152.338264
 20
9.839029
 30
0.0
 10
151.491990
 20
9.430964
 30
0.0
 10
150.917608
 20
8.661626
 30
0.0
 10
150.935972
 20
7.228474
 30
0.0
  0
SPLINE
  5
23d
100
AcDbEntity
  8
Ebene_1
 62
7
100
AcDbSpline
 70
8
 71
3
 72
8
 73
4
 74
0
 40
0
 40
0
 40
0
 40
0
 40
1
 40
1
 40
1
 40
1
 10
150.935972
 20
7.228474
 30
0.0
 10
150.175146
 20
6.026405
 30
0.0
 10
149.301858
 20
4.898814
 30
0.0
 10
148.237222
 20
4.141668
 30
0.0
  0
SPLINE
  5
23e
100
AcDbEntity
  8
Ebene_1
 62
7
100
AcDbSpline
 70
8
 71
3
 72
8
 73
4
 74
0
 40
0
 40
0
 40
0
 40
0
 40
1
 40
1
 40
1
 40
1
 10
148.237222
 20
4.141668
 30
0.0
 10
147.168509
 20
3.381616
 30
0.0
 10
145.922365
 20
2.994407
 30
0.0
 10
144.383125
 20
3.250890
 30
0.0
  0
SPLINE
  5
23f
100
AcDbEntity
  8
Ebene_1
 62
7
100
AcDbSpline
 70
8
 71
3
 72
8
 73
4
 74
0
 40
0
 40
0
 40
0
 40
0
 40
1
 40
1
 40
1
 40
1
 10
144.383125
 20
3.250890
 30
0.0
 10
144.380585
 20
3.250890
 30
0.0
 10
144.376860
 20
3.250890
 30
0.0
 10
144.374320
 20
3.250890
 30
0.0
  0
SPLINE
  5
240
100
AcDbEntity
  8
Ebene_1
 62
7
100
AcDbSpline
 70
8
 71
3
 72
8
 73
4
 74
0
 40
0
 40
0
 40
0
 40
0
 40
1
 40
1
 40
1
 40
1
 10
144.374320
 20
3.250890
 30
0.0
 10
142.977472
 20
3.763406
 30
0.0
 10
141.897851
 20
4.705943
 30
0.0
 10
141.084667
 20
5.870279
 30
0.0
  0
SPLINE
  5
241
100
AcDbEntity
  8
Ebene_1
 62
7
100
AcDbSpline
 70
8
 71
3
 72
8
 73
4
 74
0
 40
0
 40
0
 40
0
 40
0
 40
1
 40
1
 40
1
 40
1
 10
141.084667
 20
5.870279
 30
0.0
 10
140.266349
 20
7.041953
 30
0.0
 10
139.717498
 20
8.441747
 30
0.0
 10
139.382514
 20
9.847835
 30
0.0
  0
LINE
  5
242
100
AcDbEntity
  8
Ebene_1
 62
7
100
AcDbLine
 10
139.382514
 20
9.847835
 30
0.0
 11
139.356070
 21
9.971335
 31
0.0
  0
LINE
  5
243
100
AcDbEntity
  8
Ebene_1
 62
7
100
AcDbLine
 10
139.356070
 20
9.971335
 30
0.0
 11
139.223778
 21
9.953555
 31
0.0
  0
SPLINE
  5
244
100
AcDbEntity
  8
Ebene_1
 62
7
100
AcDbSpline
 70
8
 71
3
 72
8
 73
4
 74
0
 40
0
 40
0
 40
0
 40
0
 40
1
 40
1
 40
1
 40
1
 10
139.223778
 20
9.953555
 30
0.0
 10
138.114758
 20
9.810807
 30
0.0
 10
136.968526
 20
9.724899
 30
0.0
 10
135.810653
 20
9.653722
 30
0.0
  0
SPLINE
  5
245
100
AcDbEntity
  8
Ebene_1
 62
7
100
AcDbSpline
 70
8
 71
3
 72
8
 73
4
 74
0
 40
0
 40
0
 40
0
 40
0
 40
1
 40
1
 40
1
 40
1
 10
135.810653
 20
9.653722
 30
0.0
 10
134.652777
 20
9.582518
 30
0.0
 10
133.486621
 20
9.520937
 30
0.0
 10
132.335792
 20
9.433222
 30
0.0
  0
LINE
  5
246
100
AcDbEntity
  8
Ebene_1
 62
7
100
AcDbLine
 10
132.335792
 20
9.433222
 30
0.0
 11
132.238778
 21
9.424473
 31
0.0
  0
LINE
  5
247
100
AcDbEntity
  8
Ebene_1
 62
7
100
AcDbLine
 10
132.238778
 20
9.424473
 30
0.0
 11
132.212334
 21
9.345112
 31
0.0
  0
SPLINE
  5
248
100
AcDbEntity
  8
Ebene_1
 62
7
100
AcDbSpline
 70
8
 71
3
 72
8
 73
4
 74
0
 40
0
 40
0
 40
0
 40
0
 40
1
 40
1
 40
1
 40
1
 10
132.212334
 20
9.345112
 30
0.0
 10
131.680255
 20
7.818854
 30
0.0
 10
130.762347
 20
6.176970
 30
0.0
 10
129.531223
 20
5.005946
 30
0.0
  0
SPLINE
  5
249
100
AcDbEntity
  8
Ebene_1
 62
7
100
AcDbSpline
 70
8
 71
3
 72
8
 73
4
 74
0
 40
0
 40
0
 40
0
 40
0
 40
1
 40
1
 40
1
 40
1
 10
129.531223
 20
5.005946
 30
0.0
 10
128.300099
 20
3.834921
 30
0.0
 10
126.767020
 20
3.131934
 30
0.0
 10
124.971570
 20
3.418446
 30
0.0
  0
SPLINE
  5
24a
100
AcDbEntity
  8
Ebene_1
 62
7
100
AcDbSpline
 70
8
 71
3
 72
8
 73
4
 74
0
 40
0
 40
0
 40
0
 40
0
 40
1
 40
1
 40
1
 40
1
 10
124.971570
 20
3.418446
 30
0.0
 10
123.028273
 20
3.685512
 30
0.0
 10
121.835110
 20
4.863960
 30
0.0
 10
120.932265
 20
6.372974
 30
0.0
  0
SPLINE
  5
24b
100
AcDbEntity
  8
Ebene_1
 62
7
100
AcDbSpline
 70
8
 71
3
 72
8
 73
4
 74
0
 40
0
 40
0
 40
0
 40
0
 40
1
 40
1
 40
1
 40
1
 10
120.932265
 20
6.372974
 30
0.0
 10
120.029416
 20
7.881959
 30
0.0
 10
119.437246
 20
9.715331
 30
0.0
 10
118.709765
 20
11.232473
 30
0.0
  0
LINE
  5
24c
100
AcDbEntity
  8
Ebene_1
 62
7
100
AcDbLine
 10
118.709765
 20
11.232473
 30
0.0
 11
118.674487
 21
11.303029
 31
0.0
  0
LINE
  5
24d
100
AcDbEntity
  8
Ebene_1
 62
7
100
AcDbLine
 10
118.674487
 20
11.303029
 30
0.0
 11
118.595112
 21
11.311778
 31
0.0
  0
SPLINE
  5
24e
100
AcDbEntity
  8
Ebene_1
 62
7
100
AcDbSpline
 70
8
 71
3
 72
8
 73
4
 74
0
 40
0
 40
0
 40
0
 40
0
 40
1
 40
1
 40
1
 40
1
 10
118.595112
 20
11.311778
 30
0.0
 10
117.295456
 20
11.453594
 30
0.0
 10
115.997561
 20
11.644772
 30
0.0
 10
114.705737
 20
11.858555
 30
0.0
  0
SPLINE
  5
24f
100
AcDbEntity
  8
Ebene_1
 62
7
100
AcDbSpline
 70
8
 71
3
 72
8
 73
4
 74
0
 40
0
 40
0
 40
0
 40
0
 40
1
 40
1
 40
1
 40
1
 10
114.705737
 20
11.858555
 30
0.0
 10
113.413913
 20
12.072395
 30
0.0
 10
112.125585
 20
12.302293
 30
0.0
 10
110.842820
 20
12.537666
 30
0.0
  0
LINE
  5
250
100
AcDbEntity
  8
Ebene_1
 62
7
100
AcDbLine
 10
110.842820
 20
12.537666
 30
0.0
 11
110.728167
 21
12.564195
 31
0.0
  0
LINE
  5
251
100
AcDbEntity
  8
Ebene_1
 62
7
100
AcDbLine
 10
110.728167
 20
12.564195
 30
0.0
 11
110.684070
 21
12.449557
 31
0.0
  0
SPLINE
  5
252
100
AcDbEntity
  8
Ebene_1
 62
7
100
AcDbSpline
 70
8
 71
3
 72
8
 73
4
 74
0
 40
0
 40
0
 40
0
 40
0
 40
1
 40
1
 40
1
 40
1
 10
110.684070
 20
12.449557
 30
0.0
 10
110.043925
 20
10.474763
 30
0.0
 10
108.669071
 20
8.630159
 30
0.0
 10
106.935806
 20
7.528307
 30
0.0
  0
SPLINE
  5
253
100
AcDbEntity
  8
Ebene_1
 62
7
100
AcDbSpline
 70
8
 71
3
 72
8
 73
4
 74
0
 40
0
 40
0
 40
0
 40
0
 40
1
 40
1
 40
1
 40
1
 10
106.935806
 20
7.528307
 30
0.0
 10
105.202538
 20
6.426455
 30
0.0
 10
103.122634
 20
6.056998
 30
0.0
 10
101.017959
 20
6.999140
 30
0.0
  0
SPLINE
  5
254
100
AcDbEntity
  8
Ebene_1
 62
7
100
AcDbSpline
 70
8
 71
3
 72
8
 73
4
 74
0
 40
0
 40
0
 40
0
 40
0
 40
1
 40
1
 40
1
 40
1
 10
101.017959
 20
6.999140
 30
0.0
 10
98.842020
 20
7.991574
 30
0.0
 10
97.352358
 20
9.940150
 30
0.0
 10
96.643515
 20
12.176140
 30
0.0
  0
SPLINE
  5
255
100
AcDbEntity
  8
Ebene_1
 62
7
100
AcDbSpline
 70
8
 71
3
 72
8
 73
4
 74
0
 40
0
 40
0
 40
0
 40
0
 40
1
 40
1
 40
1
 40
1
 10
96.643515
 20
12.176140
 30
0.0
 10
95.934671
 20
14.412186
 30
0.0
 10
96.014670
 20
16.932987
 30
0.0
 10
96.969834
 20
19.037668
 30
0.0
  0
LINE
  5
256
100
AcDbEntity
  8
Ebene_1
 62
7
100
AcDbLine
 10
96.969834
 20
19.037668
 30
0.0
 11
96.996278
 21
19.099404
 31
0.0
  0
LINE
  5
257
100
AcDbEntity
  8
Ebene_1
 62
7
100
AcDbLine
 10
96.996278
 20
19.099404
 30
0.0
 11
96.961000
 21
19.161140
 31
0.0
  0
SPLINE
  5
258
100
AcDbEntity
  8
Ebene_1
 62
7
100
AcDbSpline
 70
8
 71
3
 72
8
 73
4
 74
0
 40
0
 40
0
 40
0
 40
0
 40
1
 40
1
 40
1
 40
1
 10
96.961000
 20
19.161140
 30
0.0
 10
96.483684
 20
20.015669
 30
0.0
 10
95.699241
 20
20.791752
 30
0.0
 10
95.038362
 20
21.639404
 30
0.0
  0
SPLINE
  5
259
100
AcDbEntity
  8
Ebene_1
 62
7
100
AcDbSpline
 70
8
 71
3
 72
8
 73
4
 74
0
 40
0
 40
0
 40
0
 40
0
 40
1
 40
1
 40
1
 40
1
 10
95.038362
 20
21.639404
 30
0.0
 10
94.377482
 20
22.487053
 30
0.0
 10
93.848953
 20
23.400504
 30
0.0
 10
93.830098
 20
24.505723
 30
0.0
  0
LINE
  5
25a
100
AcDbEntity
  8
Ebene_1
 62
7
100
AcDbLine
 10
93.830098
 20
24.505723
 30
0.0
 11
93.821292
 21
24.620376
 31
0.0
  0
LINE
  5
25b
100
AcDbEntity
  8
Ebene_1
 62
7
100
AcDbLine
 10
93.821292
 20
24.620376
 30
0.0
 11
93.715459
 21
24.638015
 31
0.0
  0
SPLINE
  5
25c
100
AcDbEntity
  8
Ebene_1
 62
7
100
AcDbSpline
 70
8
 71
3
 72
8
 73
4
 74
0
 40
0
 40
0
 40
0
 40
0
 40
1
 40
1
 40
1
 40
1
 10
93.715459
 20
24.638015
 30
0.0
 10
92.535268
 20
24.871548
 30
0.0
 10
91.079444
 20
25.111347
 30
0.0
 10
89.967195
 20
25.678709
 30
0.0
  0
SPLINE
  5
25d
100
AcDbEntity
  8
Ebene_1
 62
7
100
AcDbSpline
 70
8
 71
3
 72
8
 73
4
 74
0
 40
0
 40
0
 40
0
 40
0
 40
1
 40
1
 40
1
 40
1
 10
89.967195
 20
25.678709
 30
0.0
 10
88.854943
 20
26.246069
 30
0.0
 10
88.086040
 20
27.101445
 30
0.0
 10
88.203306
 20
28.659681
 30
0.0
  0
LINE
  5
25e
100
AcDbEntity
  8
Ebene_1
 62
7
100
AcDbLine
 10
88.203306
 20
28.659681
 30
0.0
 11
88.203306
 21
28.686126
 31
0.0
  0
LINE
  5
25f
100
AcDbEntity
  8
Ebene_1
 62
7
100
AcDbLine
 10
88.203306
 20
28.686126
 30
0.0
 11
88.194501
 21
28.712570
 31
0.0
  0
SPLINE
  5
260
100
AcDbEntity
  8
Ebene_1
 62
7
100
AcDbSpline
 70
8
 71
3
 72
8
 73
4
 74
0
 40
0
 40
0
 40
0
 40
0
 40
1
 40
1
 40
1
 40
1
 10
88.194501
 20
28.712570
 30
0.0
 10
87.551170
 20
31.200895
 30
0.0
 10
88.179148
 20
33.756564
 30
0.0
 10
89.552695
 20
35.856320
 30
0.0
  0
SPLINE
  5
261
100
AcDbEntity
  8
Ebene_1
 62
7
100
AcDbSpline
 70
8
 71
3
 72
8
 73
4
 74
0
 40
0
 40
0
 40
0
 40
0
 40
1
 40
1
 40
1
 40
1
 10
89.552695
 20
35.856320
 30
0.0
 10
90.926220
 20
37.956073
 30
0.0
 10
93.050055
 20
39.589282
 30
0.0
 10
95.382348
 20
40.221945
 30
0.0
  0
LINE
  5
262
100
AcDbEntity
  8
Ebene_1
 62
7
100
AcDbLine
 10
95.382348
 20
40.221945
 30
0.0
 11
95.444084
 21
40.239584
 31
0.0
  0
LINE
  5
263
100
AcDbEntity
  8
Ebene_1
 62
7
100
AcDbLine
 10
95.444084
 20
40.239584
 30
0.0
 11
95.470528
 21
40.292500
 31
0.0
  0
SPLINE
  5
264
100
AcDbEntity
  8
Ebene_1
 62
7
100
AcDbSpline
 70
8
 71
3
 72
8
 73
4
 74
0
 40
0
 40
0
 40
0
 40
0
 40
1
 40
1
 40
1
 40
1
 10
95.470528
 20
40.292500
 30
0.0
 10
97.734433
 20
44.552033
 30
0.0
 10
99.832516
 20
48.953028
 30
0.0
 10
101.423653
 20
53.512848
 30
0.0
  0
SPLINE
  5
265
100
AcDbEntity
  8
Ebene_1
 62
7
100
AcDbSpline
 70
8
 71
3
 72
8
 73
4
 74
0
 40
0
 40
0
 40
0
 40
0
 40
1
 40
1
 40
1
 40
1
 10
101.423653
 20
53.512848
 30
0.0
 10
103.014791
 20
58.072670
 30
0.0
 10
104.101003
 20
62.791705
 30
0.0
 10
104.325251
 20
67.694514
 30
0.0
  0
LINE
  5
266
100
AcDbEntity
  8
Ebene_1
 62
7
100
AcDbLine
 10
104.325251
 20
67.694514
 30
0.0
 11
104.316445
 21
67.694514
 31
0.0
  0
SPLINE
  5
267
100
AcDbEntity
  8
Ebene_1
 62
7
100
AcDbSpline
 70
8
 71
3
 72
8
 73
4
 74
0
 40
0
 40
0
 40
0
 40
0
 40
1
 40
1
 40
1
 40
1
 10
104.316445
 20
67.694514
 30
0.0
 10
104.788840
 20
71.364363
 30
0.0
 10
104.539737
 20
75.067243
 30
0.0
 10
103.787279
 20
78.683542
 30
0.0
  0
SPLINE
  5
268
100
AcDbEntity
  8
Ebene_1
 62
7
100
AcDbSpline
 70
8
 71
3
 72
8
 73
4
 74
0
 40
0
 40
0
 40
0
 40
0
 40
1
 40
1
 40
1
 40
1
 10
103.787279
 20
78.683542
 30
0.0
 10
103.034225
 20
82.302715
 30
0.0
 10
101.780368
 20
85.831836
 30
0.0
 10
100.241862
 20
89.134584
 30
0.0
  0
LINE
  5
269
100
AcDbEntity
  8
Ebene_1
 62
7
100
AcDbLine
 10
100.241862
 20
89.134584
 30
0.0
 11
100.233057
 21
89.152223
 31
0.0
  0
LINE
  5
26a
100
AcDbEntity
  8
Ebene_1
 62
7
100
AcDbLine
 10
100.233057
 20
89.152223
 30
0.0
 11
100.224251
 21
89.161028
 31
0.0
  0
SPLINE
  5
26b
100
AcDbEntity
  8
Ebene_1
 62
7
100
AcDbSpline
 70
8
 71
3
 72
8
 73
4
 74
0
 40
0
 40
0
 40
0
 40
0
 40
1
 40
1
 40
1
 40
1
 10
100.224251
 20
89.161028
 30
0.0
 10
97.366049
 20
92.937946
 30
0.0
 10
92.669061
 20
94.449079
 30
0.0
 10
88.097515
 20
94.029361
 30
0.0
  0
SPLINE
  5
26c
100
AcDbEntity
  8
Ebene_1
 62
7
100
AcDbSpline
 70
8
 71
3
 72
8
 73
4
 74
0
 40
0
 40
0
 40
0
 40
0
 40
1
 40
1
 40
1
 40
1
 10
88.097515
 20
94.029361
 30
0.0
 10
83.532441
 20
93.610242
 30
0.0
 10
79.081043
 20
91.265381
 30
0.0
 10
76.702793
 20
87.317764
 30
0.0
  0
SPLINE
  5
26d
100
AcDbEntity
  8
Ebene_1
 62
7
100
AcDbSpline
 70
8
 71
3
 72
8
 73
4
 74
0
 40
0
 40
0
 40
0
 40
0
 40
1
 40
1
 40
1
 40
1
 10
76.702793
 20
87.317764
 30
0.0
 10
76.699406
 20
87.312176
 30
0.0
 10
76.697346
 20
87.305741
 30
0.0
 10
76.693988
 20
87.300125
 30
0.0
  0
SPLINE
  5
26e
100
AcDbEntity
  8
Ebene_1
 62
7
100
AcDbSpline
 70
8
 71
3
 72
8
 73
4
 74
0
 40
0
 40
0
 40
0
 40
0
 40
1
 40
1
 40
1
 40
1
 10
76.693988
 20
87.300125
 30
0.0
 10
74.201711
 20
84.031930
 30
0.0
 10
71.888398
 20
80.461759
 30
0.0
 10
70.246974
 20
76.646236
 30
0.0
  0
SPLINE
  5
26f
100
AcDbEntity
  8
Ebene_1
 62
7
100
AcDbSpline
 70
8
 71
3
 72
8
 73
4
 74
0
 40
0
 40
0
 40
0
 40
0
 40
1
 40
1
 40
1
 40
1
 10
70.246974
 20
76.646236
 30
0.0
 10
68.602981
 20
72.824741
 30
0.0
 10
67.633881
 20
68.760425
 30
0.0
 10
67.812807
 20
64.501861
 30
0.0
  0
SPLINE
  5
270
100
AcDbEntity
  8
Ebene_1
 62
7
100
AcDbSpline
 70
8
 71
3
 72
8
 73
4
 74
0
 40
0
 40
0
 40
0
 40
0
 40
1
 40
1
 40
1
 40
1
 10
67.812807
 20
64.501861
 30
0.0
 10
67.771642
 20
61.668700
 30
0.0
 10
68.240329
 20
58.899186
 30
0.0
 10
68.853502
 20
56.149847
 30
0.0
  0
SPLINE
  5
271
100
AcDbEntity
  8
Ebene_1
 62
7
100
AcDbSpline
 70
8
 71
3
 72
8
 73
4
 74
0
 40
0
 40
0
 40
0
 40
0
 40
1
 40
1
 40
1
 40
1
 10
68.853502
 20
56.149847
 30
0.0
 10
69.466674
 20
53.400506
 30
0.0
 10
70.220535
 20
50.671355
 30
0.0
 10
70.732043
 20
47.938945
 30
0.0
  0
LINE
  5
272
100
AcDbEntity
  8
Ebene_1
 62
7
100
AcDbLine
 10
70.732043
 20
47.938945
 30
0.0
 11
70.732043
 21
47.930139
 31
0.0
  0
LINE
  5
273
100
AcDbEntity
  8
Ebene_1
 62
7
100
AcDbLine
 10
70.732043
 20
47.930139
 30
0.0
 11
70.740849
 21
47.921334
 31
0.0
  0
SPLINE
  5
274
100
AcDbEntity
  8
Ebene_1
 62
7
100
AcDbSpline
 70
8
 71
3
 72
8
 73
4
 74
0
 40
0
 40
0
 40
0
 40
0
 40
1
 40
1
 40
1
 40
1
 10
70.740849
 20
47.921334
 30
0.0
 10
71.101819
 20
46.871363
 30
0.0
 10
72.214887
 20
46.396891
 30
0.0
 10
73.175015
 20
45.839945
 30
0.0
  0
SPLINE
  5
275
100
AcDbEntity
  8
Ebene_1
 62
7
100
AcDbSpline
 70
8
 71
3
 72
8
 73
4
 74
0
 40
0
 40
0
 40
0
 40
0
 40
1
 40
1
 40
1
 40
1
 10
73.175015
 20
45.839945
 30
0.0
 10
73.655081
 20
45.561474
 30
0.0
 10
74.097766
 20
45.262044
 30
0.0
 10
74.409737
 20
44.878626
 30
0.0
  0
SPLINE
  5
276
100
AcDbEntity
  8
Ebene_1
 62
7
100
AcDbSpline
 70
8
 71
3
 72
8
 73
4
 74
0
 40
0
 40
0
 40
0
 40
0
 40
1
 40
1
 40
1
 40
1
 10
74.409737
 20
44.878626
 30
0.0
 10
74.721709
 20
44.495207
 30
0.0
 10
74.908258
 20
44.031722
 30
0.0
 10
74.877168
 20
43.379320
 30
0.0
  0
LINE
  5
277
100
AcDbEntity
  8
Ebene_1
 62
7
100
AcDbLine
 10
74.877168
 20
43.379320
 30
0.0
 11
74.877168
 21
43.361681
 31
0.0
  0
LINE
  5
278
100
AcDbEntity
  8
Ebene_1
 62
7
100
AcDbLine
 10
74.877168
 20
43.361681
 30
0.0
 11
74.885973
 21
43.335237
 31
0.0
  0
SPLINE
  5
279
100
AcDbEntity
  8
Ebene_1
 62
7
100
AcDbSpline
 70
8
 71
3
 72
8
 73
4
 74
0
 40
0
 40
0
 40
0
 40
0
 40
1
 40
1
 40
1
 40
1
 10
74.885973
 20
43.335237
 30
0.0
 10
75.425441
 20
41.468083
 30
0.0
 10
75.415902
 20
39.291566
 30
0.0
 10
74.797779
 20
37.382112
 30
0.0
  0
SPLINE
  5
27a
100
AcDbEntity
  8
Ebene_1
 62
7
100
AcDbSpline
 70
8
 71
3
 72
8
 73
4
 74
0
 40
0
 40
0
 40
0
 40
0
 40
1
 40
1
 40
1
 40
1
 10
74.797779
 20
37.382112
 30
0.0
 10
74.179656
 20
35.472659
 30
0.0
 10
72.963038
 20
33.836058
 30
0.0
 10
71.067154
 20
33.025306
 30
0.0
  0
SPLINE
  5
27b
100
AcDbEntity
  8
Ebene_1
 62
7
100
AcDbSpline
 70
8
 71
3
 72
8
 73
4
 74
0
 40
0
 40
0
 40
0
 40
0
 40
1
 40
1
 40
1
 40
1
 10
71.067154
 20
33.025306
 30
0.0
 10
69.349696
 20
32.846959
 30
0.0
 10
68.399443
 20
31.697313
 30
0.0
 10
67.618751
 20
30.388293
 30
0.0
  0
SPLINE
  5
27c
100
AcDbEntity
  8
Ebene_1
 62
7
100
AcDbSpline
 70
8
 71
3
 72
8
 73
4
 74
0
 40
0
 40
0
 40
0
 40
0
 40
1
 40
1
 40
1
 40
1
 10
67.618751
 20
30.388293
 30
0.0
 10
66.832110
 20
29.069299
 30
0.0
 10
66.190580
 20
27.585451
 30
0.0
 10
65.078751
 20
26.666487
 30
0.0
  0
LINE
  5
27d
100
AcDbEntity
  8
Ebene_1
 62
7
100
AcDbLine
 10
65.078751
 20
26.666487
 30
0.0
 11
65.061112
 21
26.657682
 31
0.0
  0
LINE
  5
27e
100
AcDbEntity
  8
Ebene_1
 62
7
100
AcDbLine
 10
65.061112
 20
26.657682
 30
0.0
 11
65.052307
 21
26.640043
 31
0.0
  0
SPLINE
  5
27f
100
AcDbEntity
  8
Ebene_1
 62
7
100
AcDbSpline
 70
8
 71
3
 72
8
 73
4
 74
0
 40
0
 40
0
 40
0
 40
0
 40
1
 40
1
 40
1
 40
1
 10
65.052307
 20
26.640043
 30
0.0
 10
64.297695
 20
25.665473
 30
0.0
 10
63.457046
 20
24.733234
 30
0.0
 10
62.521126
 20
23.914834
 30
0.0
  0
SPLINE
  5
280
100
AcDbEntity
  8
Ebene_1
 62
7
100
AcDbSpline
 70
8
 71
3
 72
8
 73
4
 74
0
 40
0
 40
0
 40
0
 40
0
 40
1
 40
1
 40
1
 40
1
 10
62.521126
 20
23.914834
 30
0.0
 10
61.585204
 20
23.096435
 30
0.0
 10
60.558652
 20
22.392550
 30
0.0
 10
59.434321
 20
21.877543
 30
0.0
  0
LINE
  5
281
100
AcDbEntity
  8
Ebene_1
 62
7
100
AcDbLine
 10
59.434321
 20
21.877543
 30
0.0
 11
59.328487
 21
21.833446
 31
0.0
  0
LINE
  5
282
100
AcDbEntity
  8
Ebene_1
 62
7
100
AcDbLine
 10
59.328487
 20
21.833446
 30
0.0
 11
59.354932
 21
21.718793
 31
0.0
  0
SPLINE
  5
283
100
AcDbEntity
  8
Ebene_1
 62
7
100
AcDbSpline
 70
8
 71
3
 72
8
 73
4
 74
0
 40
0
 40
0
 40
0
 40
0
 40
1
 40
1
 40
1
 40
1
 10
59.354932
 20
21.718793
 30
0.0
 10
59.846055
 20
19.656163
 30
0.0
 10
59.399729
 20
17.242503
 30
0.0
 10
58.226043
 20
15.456987
 30
0.0
  0
SPLINE
  5
284
100
AcDbEntity
  8
Ebene_1
 62
7
100
AcDbSpline
 70
8
 71
3
 72
8
 73
4
 74
0
 40
0
 40
0
 40
0
 40
0
 40
1
 40
1
 40
1
 40
1
 10
58.226043
 20
15.456987
 30
0.0
 10
57.052354
 20
13.671494
 30
0.0
 10
55.169062
 20
12.510573
 30
0.0
 10
52.757987
 20
12.890529
 30
0.0
  0
LINE
  5
285
100
AcDbEntity
  8
Ebene_1
 62
7
100
AcDbLine
 10
52.757987
 20
12.890529
 30
0.0
 11
52.749182
 21
12.890529
 31
0.0
  0
LINE
  5
286
100
AcDbEntity
  8
Ebene_1
 62
7
100
AcDbLine
 10
52.749182
 20
12.890529
 30
0.0
 11
52.740377
 21
12.890529
 31
0.0
  0
SPLINE
  5
287
100
AcDbEntity
  8
Ebene_1
 62
7
100
AcDbSpline
 70
8
 71
3
 72
8
 73
4
 74
0
 40
0
 40
0
 40
0
 40
0
 40
1
 40
1
 40
1
 40
1
 10
52.740377
 20
12.890529
 30
0.0
 10
51.603698
 20
12.901818
 30
0.0
 10
50.547905
 20
13.367061
 30
0.0
 10
49.715307
 20
14.089973
 30
0.0
  0
SPLINE
  5
288
100
AcDbEntity
  8
Ebene_1
 62
7
100
AcDbSpline
 70
8
 71
3
 72
8
 73
4
 74
0
 40
0
 40
0
 40
0
 40
0
 40
1
 40
1
 40
1
 40
1
 10
49.715307
 20
14.089973
 30
0.0
 10
48.882718
 20
14.812905
 30
0.0
 10
48.278308
 20
15.801448
 30
0.0
 10
48.030793
 20
16.859279
 30
0.0
  0
LINE
  5
289
100
AcDbEntity
  8
Ebene_1
 62
7
100
AcDbLine
 10
48.030793
 20
16.859279
 30
0.0
 11
48.004349
 21
16.965112
 31
0.0
  0
LINE
  5
28a
100
AcDbEntity
  8
Ebene_1
 62
7
100
AcDbLine
 10
48.004349
 20
16.965112
 30
0.0
 11
47.889696
 21
16.965112
 31
0.0
  0
SPLINE
  5
28b
100
AcDbEntity
  8
Ebene_1
 62
7
100
AcDbSpline
 70
8
 71
3
 72
8
 73
4
 74
0
 40
0
 40
0
 40
0
 40
0
 40
1
 40
1
 40
1
 40
1
 10
47.889696
 20
16.965112
 30
0.0
 10
46.408250
 20
16.935600
 30
0.0
 10
44.863108
 20
16.752540
 30
0.0
 10
43.347682
 20
16.612334
 30
0.0
  0
SPLINE
  5
28c
100
AcDbEntity
  8
Ebene_1
 62
7
100
AcDbSpline
 70
8
 71
3
 72
8
 73
4
 74
0
 40
0
 40
0
 40
0
 40
0
 40
1
 40
1
 40
1
 40
1
 10
43.347682
 20
16.612334
 30
0.0
 10
41.832256
 20
16.472129
 30
0.0
 10
40.342648
 20
16.372959
 30
0.0
 10
38.982057
 20
16.506501
 30
0.0
  0
LINE
  5
28d
100
AcDbEntity
  8
Ebene_1
 62
7
100
AcDbLine
 10
38.982057
 20
16.506501
 30
0.0
 11
38.849766
 21
16.524140
 31
0.0
  0
LINE
  5
28e
100
AcDbEntity
  8
Ebene_1
 62
7
100
AcDbLine
 10
38.849766
 20
16.524140
 30
0.0
 11
38.832127
 21
16.383029
 31
0.0
  0
SPLINE
  5
28f
100
AcDbEntity
  8
Ebene_1
 62
7
100
AcDbSpline
 70
8
 71
3
 72
8
 73
4
 74
0
 40
0
 40
0
 40
0
 40
0
 40
1
 40
1
 40
1
 40
1
 10
38.832127
 20
16.383029
 30
0.0
 10
38.448923
 20
13.401718
 30
0.0
 10
36.011423
 20
11.349059
 30
0.0
 10
33.240599
 20
10.668029
 30
0.0
  0
SPLINE
  5
290
100
AcDbEntity
  8
Ebene_1
 62
7
100
AcDbSpline
 70
8
 71
3
 72
8
 73
4
 74
0
 40
0
 40
0
 40
0
 40
0
 40
1
 40
1
 40
1
 40
1
 10
33.240599
 20
10.668029
 30
0.0
 10
30.469778
 20
9.986970
 30
0.0
 10
27.393176
 20
10.687784
 30
0.0
 10
25.735252
 20
13.199195
 30
0.0
  0
LINE
  5
291
100
AcDbEntity
  8
Ebene_1
 62
7
100
AcDbLine
 10
25.735252
 20
13.199195
 30
0.0
 11
25.726432
 21
13.216975
 31
0.0
  0
LINE
  5
292
100
AcDbEntity
  8
Ebene_1
 62
7
100
AcDbLine
 10
25.726432
 20
13.216975
 30
0.0
 11
25.708793
 21
13.225724
 31
0.0
  0
SPLINE
  5
293
100
AcDbEntity
  8
Ebene_1
 62
7
100
AcDbSpline
 70
8
 71
3
 72
8
 73
4
 74
0
 40
0
 40
0
 40
0
 40
0
 40
1
 40
1
 40
1
 40
1
 10
25.708793
 20
13.225724
 30
0.0
 10
24.907955
 20
13.899276
 30
0.0
 10
24.735783
 20
15.217493
 30
0.0
 10
24.403516
 20
16.356627
 30
0.0
  0
SPLINE
  5
294
100
AcDbEntity
  8
Ebene_1
 62
7
100
AcDbSpline
 70
8
 71
3
 72
8
 73
4
 74
0
 40
0
 40
0
 40
0
 40
0
 40
1
 40
1
 40
1
 40
1
 10
24.403516
 20
16.356627
 30
0.0
 10
24.237382
 20
16.926197
 30
0.0
 10
24.028557
 20
17.451900
 30
0.0
 10
23.645043
 20
17.820655
 30
0.0
  0
SPLINE
  5
295
100
AcDbEntity
  8
Ebene_1
 62
7
100
AcDbSpline
 70
8
 71
3
 72
8
 73
4
 74
0
 40
0
 40
0
 40
0
 40
0
 40
1
 40
1
 40
1
 40
1
 10
23.645043
 20
17.820655
 30
0.0
 10
23.264856
 20
18.186212
 30
0.0
 10
22.709326
 20
18.373901
 30
0.0
 10
21.934071
 20
18.279266
 30
0.0
  0
SPLINE
  5
296
100
AcDbEntity
  8
Ebene_1
 62
7
100
AcDbSpline
 70
8
 71
3
 72
8
 73
4
 74
0
 40
0
 40
0
 40
0
 40
0
 40
1
 40
1
 40
1
 40
1
 10
21.934071
 20
18.279266
 30
0.0
 10
21.928116
 20
18.279291
 30
0.0
 10
21.922382
 20
18.279218
 30
0.0
 10
21.916432
 20
18.279266
 30
0.0
  0
SPLINE
  5
297
100
AcDbEntity
  8
Ebene_1
 62
7
100
AcDbSpline
 70
8
 71
3
 72
8
 73
4
 74
0
 40
0
 40
0
 40
0
 40
0
 40
1
 40
1
 40
1
 40
1
 10
21.916432
 20
18.279266
 30
0.0
 10
20.524743
 20
18.290668
 30
0.0
 10
19.291416
 20
18.940569
 30
0.0
 10
18.044696
 20
19.611002
 30
0.0
  0
SPLINE
  5
298
100
AcDbEntity
  8
Ebene_1
 62
7
100
AcDbSpline
 70
8
 71
3
 72
8
 73
4
 74
0
 40
0
 40
0
 40
0
 40
0
 40
1
 40
1
 40
1
 40
1
 10
18.044696
 20
19.611002
 30
0.0
 10
16.792647
 20
20.284300
 30
0.0
 10
15.527125
 20
20.978182
 30
0.0
 10
14.084766
 20
21.004474
 30
0.0
  0
LINE
  5
299
100
AcDbEntity
  8
Ebene_1
 62
7
100
AcDbLine
 10
14.084766
 20
21.004474
 30
0.0
 11
14.040668
 21
21.004474
 31
0.0
  0
LINE
  5
29a
100
AcDbEntity
  8
Ebene_1
 62
7
100
AcDbLine
 10
14.040668
 20
21.004474
 30
0.0
 11
13.996571
 21
20.978030
 31
0.0
  0
SPLINE
  5
29b
100
AcDbEntity
  8
Ebene_1
 62
7
100
AcDbSpline
 70
8
 71
3
 72
8
 73
4
 74
0
 40
0
 40
0
 40
0
 40
0
 40
1
 40
1
 40
1
 40
1
 10
13.996571
 20
20.978030
 30
0.0
 10
12.888916
 20
20.162682
 30
0.0
 10
11.729955
 20
19.921345
 30
0.0
 10
10.609905
 20
20.087266
 30
0.0
  0
SPLINE
  5
29c
100
AcDbEntity
  8
Ebene_1
 62
7
100
AcDbSpline
 70
8
 71
3
 72
8
 73
4
 74
0
 40
0
 40
0
 40
0
 40
0
 40
1
 40
1
 40
1
 40
1
 10
10.609905
 20
20.087266
 30
0.0
 10
9.489742
 20
20.253004
 30
0.0
 10
8.415968
 20
20.829880
 30
0.0
 10
7.514167
 20
21.656944
 30
0.0
  0
SPLINE
  5
29d
100
AcDbEntity
  8
Ebene_1
 62
7
100
AcDbSpline
 70
8
 71
3
 72
8
 73
4
 74
0
 40
0
 40
0
 40
0
 40
0
 40
1
 40
1
 40
1
 40
1
 10
7.514167
 20
21.656944
 30
0.0
 10
5.710564
 20
23.311068
 30
0.0
 10
4.616953
 20
25.964293
 30
0.0
 10
5.221111
 20
28.262708
 30
0.0
  0
LINE
  5
29e
100
AcDbEntity
  8
Ebene_1
 62
7
100
AcDbLine
 10
5.221111
 20
28.262708
 30
0.0
 11
5.221111
 21
28.271513
 31
0.0
  0
SPLINE
  5
29f
100
AcDbEntity
  8
Ebene_1
 62
7
100
AcDbSpline
 70
8
 71
3
 72
8
 73
4
 74
0
 40
0
 40
0
 40
0
 40
0
 40
1
 40
1
 40
1
 40
1
 10
5.221111
 20
28.271513
 30
0.0
 10
5.469952
 20
29.714580
 30
0.0
 10
6.368759
 20
31.094001
 30
0.0
 10
7.020278
 20
32.513666
 30
0.0
  0
SPLINE
  5
2a0
100
AcDbEntity
  8
Ebene_1
 62
7
100
AcDbSpline
 70
8
 71
3
 72
8
 73
4
 74
0
 40
0
 40
0
 40
0
 40
0
 40
1
 40
1
 40
1
 40
1
 10
7.020278
 20
32.513666
 30
0.0
 10
7.667079
 20
33.923053
 30
0.0
 10
8.058724
 20
35.398045
 30
0.0
 10
7.276042
 20
37.002763
 30
0.0
  0
SPLINE
  5
2a1
100
AcDbEntity
  8
Ebene_1
 62
7
100
AcDbSpline
 70
8
 71
3
 72
8
 73
4
 74
0
 40
0
 40
0
 40
0
 40
0
 40
1
 40
1
 40
1
 40
1
 10
7.276042
 20
37.002763
 30
0.0
 10
7.275505
 20
37.005755
 30
0.0
 10
7.276578
 20
37.008605
 30
0.0
 10
7.276042
 20
37.011568
 30
0.0
  0
SPLINE
  5
2a2
100
AcDbEntity
  8
Ebene_1
 62
7
100
AcDbSpline
 70
8
 71
3
 72
8
 73
4
 74
0
 40
0
 40
0
 40
0
 40
0
 40
1
 40
1
 40
1
 40
1
 10
7.276042
 20
37.011568
 30
0.0
 10
6.656623
 20
40.484945
 30
0.0
 10
7.551145
 20
43.719076
 30
0.0
 10
9.278056
 20
46.554207
 30
0.0
  0
SPLINE
  5
2a3
100
AcDbEntity
  8
Ebene_1
 62
7
100
AcDbSpline
 70
8
 71
3
 72
8
 73
4
 74
0
 40
0
 40
0
 40
0
 40
0
 40
1
 40
1
 40
1
 40
1
 10
9.278056
 20
46.554207
 30
0.0
 10
11.006447
 20
49.391768
 30
0.0
 10
13.565728
 20
51.820079
 30
0.0
 10
16.280694
 20
53.671499
 30
0.0
  0
LINE
  5
2a4
100
AcDbEntity
  8
Ebene_1
 62
7
100
AcDbLine
 10
16.280694
 20
53.671499
 30
0.0
 11
16.289514
 21
53.680304
 31
0.0
  0
SPLINE
  5
2a5
100
AcDbEntity
  8
Ebene_1
 62
7
100
AcDbSpline
 70
8
 71
3
 72
8
 73
4
 74
0
 40
0
 40
0
 40
0
 40
0
 40
1
 40
1
 40
1
 40
1
 10
16.289514
 20
53.680304
 30
0.0
 10
18.392264
 20
55.256041
 30
0.0
 10
20.783180
 20
56.355319
 30
0.0
 10
23.292153
 20
57.155165
 30
0.0
  0
LINE
  5
2a6
100
AcDbEntity
  8
Ebene_1
 62
7
100
AcDbLine
 10
23.292153
 20
57.155165
 30
0.0
 11
23.300972
 21
57.163971
 31
0.0
  0
SPLINE
  5
2a7
100
AcDbEntity
  8
Ebene_1
 62
7
100
AcDbSpline
 70
8
 71
3
 72
8
 73
4
 74
0
 40
0
 40
0
 40
0
 40
0
 40
1
 40
1
 40
1
 40
1
 10
23.300972
 20
57.163971
 30
0.0
 10
25.813864
 20
57.964090
 30
0.0
 10
28.444994
 20
58.461222
 30
0.0
 10
31.017986
 20
58.822026
 30
0.0
  0
LINE
  5
2a8
100
AcDbEntity
  8
Ebene_1
 62
7
100
AcDbLine
 10
31.017986
 20
58.822026
 30
0.0
 11
31.035625
 21
58.822026
 31
0.0
  0
LINE
  5
2a9
100
AcDbEntity
  8
Ebene_1
 62
7
100
AcDbLine
 10
31.035625
 20
58.822026
 30
0.0
 11
31.053264
 21
58.830832
 31
0.0
  0
SPLINE
  5
2aa
100
AcDbEntity
  8
Ebene_1
 62
7
100
AcDbSpline
 70
8
 71
3
 72
8
 73
4
 74
0
 40
0
 40
0
 40
0
 40
0
 40
1
 40
1
 40
1
 40
1
 10
31.053264
 20
58.830832
 30
0.0
 10
31.321561
 20
58.945089
 30
0.0
 10
31.781860
 20
58.882549
 30
0.0
 10
32.296806
 20
58.733818
 30
0.0
  0
SPLINE
  5
2ab
100
AcDbEntity
  8
Ebene_1
 62
7
100
AcDbSpline
 70
8
 71
3
 72
8
 73
4
 74
0
 40
0
 40
0
 40
0
 40
0
 40
1
 40
1
 40
1
 40
1
 10
32.296806
 20
58.733818
 30
0.0
 10
32.811751
 20
58.585087
 30
0.0
 10
33.383855
 20
58.362554
 30
0.0
 10
33.884306
 20
58.187012
 30
0.0
  0
SPLINE
  5
2ac
100
AcDbEntity
  8
Ebene_1
 62
7
100
AcDbSpline
 70
8
 71
3
 72
8
 73
4
 74
0
 40
0
 40
0
 40
0
 40
0
 40
1
 40
1
 40
1
 40
1
 10
33.884306
 20
58.187012
 30
0.0
 10
34.134532
 20
58.099241
 30
0.0
 10
34.363465
 20
58.019302
 30
0.0
 10
34.572222
 20
57.975345
 30
0.0
  0
SPLINE
  5
2ad
100
AcDbEntity
  8
Ebene_1
 62
7
100
AcDbSpline
 70
8
 71
3
 72
8
 73
4
 74
0
 40
0
 40
0
 40
0
 40
0
 40
1
 40
1
 40
1
 40
1
 10
34.572222
 20
57.975345
 30
0.0
 10
34.780979
 20
57.931389
 30
0.0
 10
34.965366
 20
57.915943
 30
0.0
 10
35.127847
 20
57.966540
 30
0.0
  0
SPLINE
  5
2ae
100
AcDbEntity
  8
Ebene_1
 62
7
100
AcDbSpline
 70
8
 71
3
 72
8
 73
4
 74
0
 40
0
 40
0
 40
0
 40
0
 40
1
 40
1
 40
1
 40
1
 10
35.127847
 20
57.966540
 30
0.0
 10
35.290328
 20
58.017123
 30
0.0
 10
35.418928
 20
58.172368
 30
0.0
 10
35.436528
 20
58.363415
 30
0.0
  0
SPLINE
  5
2af
100
AcDbEntity
  8
Ebene_1
 62
7
100
AcDbSpline
 70
8
 71
3
 72
8
 73
4
 74
0
 40
0
 40
0
 40
0
 40
0
 40
1
 40
1
 40
1
 40
1
 10
35.436528
 20
58.363415
 30
0.0
 10
35.453913
 20
58.552250
 30
0.0
 10
35.390599
 20
58.775965
 30
0.0
 10
35.268958
 20
59.077790
 30
0.0
  0
LINE
  5
2b0
100
AcDbEntity
  8
Ebene_1
 62
7
100
AcDbLine
 10
35.268958
 20
59.077790
 30
0.0
 11
35.277764
 21
59.077790
 31
0.0
  0
SPLINE
  5
2b1
100
AcDbEntity
  8
Ebene_1
 62
7
100
AcDbSpline
 70
8
 71
3
 72
8
 73
4
 74
0
 40
0
 40
0
 40
0
 40
0
 40
1
 40
1
 40
1
 40
1
 10
35.277764
 20
59.077790
 30
0.0
 10
34.428549
 20
61.822466
 30
0.0
 10
33.670477
 20
64.735651
 30
0.0
 10
33.513875
 20
67.615012
 30
0.0
  0
SPLINE
  5
2b2
100
AcDbEntity
  8
Ebene_1
 62
7
100
AcDbSpline
 70
8
 71
3
 72
8
 73
4
 74
0
 40
0
 40
0
 40
0
 40
0
 40
1
 40
1
 40
1
 40
1
 10
33.513875
 20
67.615012
 30
0.0
 10
33.357272
 20
70.494370
 30
0.0
 10
33.803421
 20
73.337308
 30
0.0
 10
35.339500
 20
75.949387
 30
0.0
  0
LINE
  5
2b3
100
AcDbEntity
  8
Ebene_1
 62
7
100
AcDbLine
 10
35.339500
 20
75.949387
 30
0.0
 11
35.339500
 21
75.958193
 31
0.0
  0
LINE
  5
2b4
100
AcDbEntity
  8
Ebene_1
 62
7
100
AcDbLine
 10
35.339500
 20
75.958193
 30
0.0
 11
35.348305
 21
75.966998
 31
0.0
  0
SPLINE
  5
2b5
100
AcDbEntity
  8
Ebene_1
 62
7
100
AcDbSpline
 70
8
 71
3
 72
8
 73
4
 74
0
 40
0
 40
0
 40
0
 40
0
 40
1
 40
1
 40
1
 40
1
 10
35.348305
 20
75.966998
 30
0.0
 10
36.161068
 20
78.026980
 30
0.0
 10
37.362474
 20
79.875333
 30
0.0
 10
38.831986
 20
81.487970
 30
0.0
  0
SPLINE
  5
2b6
100
AcDbEntity
  8
Ebene_1
 62
7
100
AcDbSpline
 70
8
 71
3
 72
8
 73
4
 74
0
 40
0
 40
0
 40
0
 40
0
 40
1
 40
1
 40
1
 40
1
 10
38.831986
 20
81.487970
 30
0.0
 10
40.301494
 20
83.100608
 30
0.0
 10
42.034883
 20
84.477861
 30
0.0
 10
43.911986
 20
85.615470
 30
0.0
  0
LINE
  5
2b7
100
AcDbEntity
  8
Ebene_1
 62
7
100
AcDbLine
 10
43.911986
 20
85.615470
 30
0.0
 11
44.026667
 21
85.686110
 31
0.0
  0
LINE
  5
2b8
100
AcDbEntity
  8
Ebene_1
 62
7
100
AcDbLine
 10
44.026667
 20
85.686110
 30
0.0
 11
43.964931
 21
85.809583
 31
0.0
  0
SPLINE
  5
2b9
100
AcDbEntity
  8
Ebene_1
 62
7
100
AcDbSpline
 70
8
 71
3
 72
8
 73
4
 74
0
 40
0
 40
0
 40
0
 40
0
 40
1
 40
1
 40
1
 40
1
 10
43.964931
 20
85.809583
 30
0.0
 10
41.895872
 20
89.391880
 30
0.0
 10
40.746259
 20
93.662354
 30
0.0
 10
40.842847
 20
97.830485
 30
0.0
  0
SPLINE
  5
2ba
100
AcDbEntity
  8
Ebene_1
 62
7
100
AcDbSpline
 70
8
 71
3
 72
8
 73
4
 74
0
 40
0
 40
0
 40
0
 40
0
 40
1
 40
1
 40
1
 40
1
 10
40.842847
 20
97.830485
 30
0.0
 10
40.939432
 20
101.998617
 30
0.0
 10
42.272873
 20
106.058378
 30
0.0
 10
45.164375
 20
109.251666
 30
0.0
  0
LINE
  5
2bb
100
AcDbEntity
  8
Ebene_1
 62
7
100
AcDbLine
 10
45.164375
 20
109.251666
 30
0.0
 11
45.182014
 21
109.269305
 31
0.0
  0
LINE
  5
2bc
100
AcDbEntity
  8
Ebene_1
 62
7
100
AcDbLine
 10
45.182014
 20
109.269305
 30
0.0
 11
45.190819
 21
109.278110
 31
0.0
  0
SPLINE
  5
2bd
100
AcDbEntity
  8
Ebene_1
 62
7
100
AcDbSpline
 70
8
 71
3
 72
8
 73
4
 74
0
 40
0
 40
0
 40
0
 40
0
 40
1
 40
1
 40
1
 40
1
 10
45.190819
 20
109.278110
 30
0.0
 10
45.877003
 20
110.500894
 30
0.0
 10
47.204633
 20
111.274477
 30
0.0
 10
48.339361
 20
112.162069
 30
0.0
  0
SPLINE
  5
2be
100
AcDbEntity
  8
Ebene_1
 62
7
100
AcDbSpline
 70
8
 71
3
 72
8
 73
4
 74
0
 40
0
 40
0
 40
0
 40
0
 40
1
 40
1
 40
1
 40
1
 10
48.339361
 20
112.162069
 30
0.0
 10
48.906726
 20
112.605866
 30
0.0
 10
49.422391
 20
113.083691
 30
0.0
 10
49.776930
 20
113.670194
 30
0.0
  0
SPLINE
  5
2bf
100
AcDbEntity
  8
Ebene_1
 62
7
100
AcDbSpline
 70
8
 71
3
 72
8
 73
4
 74
0
 40
0
 40
0
 40
0
 40
0
 40
1
 40
1
 40
1
 40
1
 10
49.776930
 20
113.670194
 30
0.0
 10
50.131469
 20
114.256697
 30
0.0
 10
50.318422
 20
114.951463
 30
0.0
 10
50.217903
 20
115.813319
 30
0.0
  0
SPLINE
  5
2c0
100
AcDbEntity
  8
Ebene_1
 62
7
100
AcDbSpline
 70
8
 71
3
 72
8
 73
4
 74
0
 40
0
 40
0
 40
0
 40
0
 40
1
 40
1
 40
1
 40
1
 10
50.217903
 20
115.813319
 30
0.0
 10
50.786098
 20
119.071162
 30
0.0
 10
51.943471
 20
122.482817
 30
0.0
 10
53.789778
 20
125.347138
 30
0.0
  0
SPLINE
  5
2c1
100
AcDbEntity
  8
Ebene_1
 62
7
100
AcDbSpline
 70
8
 71
3
 72
8
 73
4
 74
0
 40
0
 40
0
 40
0
 40
0
 40
1
 40
1
 40
1
 40
1
 10
53.789778
 20
125.347138
 30
0.0
 10
55.640667
 20
128.218574
 30
0.0
 10
58.186151
 20
130.531792
 30
0.0
 10
61.542069
 20
131.600124
 30
0.0
  0
SPLINE
  5
2c2
100
AcDbEntity
  8
Ebene_1
 62
7
100
AcDbSpline
 70
8
 71
3
 72
8
 73
4
 74
0
 40
0
 40
0
 40
0
 40
0
 40
1
 40
1
 40
1
 40
1
 10
61.542069
 20
131.600124
 30
0.0
 10
63.219147
 20
132.016004
 30
0.0
 10
65.031228
 20
132.482879
 30
0.0
 10
66.816097
 20
132.614360
 30
0.0
  0
SPLINE
  5
2c3
100
AcDbEntity
  8
Ebene_1
 62
7
100
AcDbSpline
 70
8
 71
3
 72
8
 73
4
 74
0
 40
0
 40
0
 40
0
 40
0
 40
1
 40
1
 40
1
 40
1
 10
66.816097
 20
132.614360
 30
0.0
 10
68.600969
 20
132.745845
 30
0.0
 10
70.355293
 20
132.546841
 30
0.0
 10
71.922555
 20
131.635402
 30
0.0
  0
LINE
  5
2c4
100
AcDbEntity
  8
Ebene_1
 62
7
100
AcDbLine
 10
71.922555
 20
131.635402
 30
0.0
 11
72.019569
 21
131.573666
 31
0.0
  0
LINE
  5
2c5
100
AcDbEntity
  8
Ebene_1
 62
7
100
AcDbLine
 10
72.019569
 20
131.573666
 30
0.0
 11
72.098944
 21
131.670680
 31
0.0
  0
SPLINE
  5
2c6
100
AcDbEntity
  8
Ebene_1
 62
7
100
AcDbSpline
 70
8
 71
3
 72
8
 73
4
 74
0
 40
0
 40
0
 40
0
 40
0
 40
1
 40
1
 40
1
 40
1
 10
72.098944
 20
131.670680
 30
0.0
 10
73.673013
 20
133.635028
 30
0.0
 10
75.513986
 20
135.458469
 30
0.0
 10
77.558180
 20
136.971166
 30
0.0
  0
SPLINE
  5
2c7
100
AcDbEntity
  8
Ebene_1
 62
7
100
AcDbSpline
 70
8
 71
3
 72
8
 73
4
 74
0
 40
0
 40
0
 40
0
 40
0
 40
1
 40
1
 40
1
 40
1
 10
77.558180
 20
136.971166
 30
0.0
 10
79.602372
 20
138.483866
 30
0.0
 10
81.846104
 20
139.684095
 30
0.0
 10
84.252139
 20
140.393110
 30
0.0
  0
SPLINE
  5
2c8
100
AcDbEntity
  8
Ebene_1
 62
7
100
AcDbSpline
 70
8
 71
3
 72
8
 73
4
 74
0
 40
0
 40
0
 40
0
 40
0
 40
1
 40
1
 40
1
 40
1
 10
84.252139
 20
140.393110
 30
0.0
 10
84.787844
 20
140.467781
 30
0.0
 10
85.322687
 20
140.499604
 30
0.0
 10
85.857278
 20
140.490124
 30
0.0
  0
LINE
  5
2c9
100
AcDbEntity
  8
Ebene_1
 62
7
100
AcDbLine
 10
85.857278
 20
140.490124
 30
0.0
 11
85.857306
 21
140.490138
 31
0.0
  0
SPLINE
  5
2ca
100
AcDbEntity
  8
Ebene_1
 62
7
100
AcDbSpline
 70
8
 71
3
 72
8
 73
4
 74
0
 40
0
 40
0
 40
0
 40
0
 40
1
 40
1
 40
1
 40
1
 10
131.277431
 20
108.281527
 30
0.0
 10
131.181579
 20
108.284744
 30
0.0
 10
131.103647
 20
108.278536
 30
0.0
 10
131.039306
 20
108.263888
 30
0.0
  0
SPLINE
  5
2cb
100
AcDbEntity
  8
Ebene_1
 62
7
100
AcDbSpline
 70
8
 71
3
 72
8
 73
4
 74
0
 40
0
 40
0
 40
0
 40
0
 40
1
 40
1
 40
1
 40
1
 10
131.039306
 20
108.263888
 30
0.0
 10
131.007135
 20
108.256550
 30
0.0
 10
130.983485
 20
108.248451
 30
0.0
 10
130.951111
 20
108.228610
 30
0.0
  0
SPLINE
  5
2cc
100
AcDbEntity
  8
Ebene_1
 62
7
100
AcDbSpline
 70
8
 71
3
 72
8
 73
4
 74
0
 40
0
 40
0
 40
0
 40
0
 40
1
 40
1
 40
1
 40
1
 10
130.951111
 20
108.228610
 30
0.0
 10
130.918737
 20
108.208770
 30
0.0
 10
130.870627
 20
108.164219
 30
0.0
 10
130.862917
 20
108.096319
 30
0.0
  0
SPLINE
  5
2cd
100
AcDbEntity
  8
Ebene_1
 62
7
100
AcDbSpline
 70
8
 71
3
 72
8
 73
4
 74
0
 40
0
 40
0
 40
0
 40
0
 40
1
 40
1
 40
1
 40
1
 10
130.862917
 20
108.096319
 30
0.0
 10
130.855212
 20
108.028416
 30
0.0
 10
130.895762
 20
107.972629
 30
0.0
 10
130.924653
 20
107.946388
 30
0.0
  0
SPLINE
  5
2ce
100
AcDbEntity
  8
Ebene_1
 62
7
100
AcDbSpline
 70
8
 71
3
 72
8
 73
4
 74
0
 40
0
 40
0
 40
0
 40
0
 40
1
 40
1
 40
1
 40
1
 10
130.924653
 20
107.946388
 30
0.0
 10
130.953544
 20
107.920142
 30
0.0
 10
130.973621
 20
107.914966
 30
0.0
 10
131.004028
 20
107.902291
 30
0.0
  0
SPLINE
  5
2cf
100
AcDbEntity
  8
Ebene_1
 62
7
100
AcDbSpline
 70
8
 71
3
 72
8
 73
4
 74
0
 40
0
 40
0
 40
0
 40
0
 40
1
 40
1
 40
1
 40
1
 10
131.004028
 20
107.902291
 30
0.0
 10
131.064838
 20
107.876947
 30
0.0
 10
131.138473
 20
107.853136
 30
0.0
 10
131.233333
 20
107.840555
 30
0.0
  0
SPLINE
  5
2d0
100
AcDbEntity
  8
Ebene_1
 62
7
100
AcDbSpline
 70
8
 71
3
 72
8
 73
4
 74
0
 40
0
 40
0
 40
0
 40
0
 40
1
 40
1
 40
1
 40
1
 10
131.233333
 20
107.840555
 30
0.0
 10
131.410950
 20
107.816989
 30
0.0
 10
131.678014
 20
107.825400
 30
0.0
 10
132.009444
 20
107.858194
 30
0.0
  0
SPLINE
  5
2d1
100
AcDbEntity
  8
Ebene_1
 62
7
100
AcDbSpline
 70
8
 71
3
 72
8
 73
4
 74
0
 40
0
 40
0
 40
0
 40
0
 40
1
 40
1
 40
1
 40
1
 10
132.009444
 20
107.858194
 30
0.0
 10
132.032022
 20
107.860452
 30
0.0
 10
132.039024
 20
107.855654
 30
0.0
 10
132.062361
 20
107.858194
 30
0.0
  0
LINE
  5
2d2
100
AcDbEntity
  8
Ebene_1
 62
7
100
AcDbLine
 10
132.062361
 20
107.858194
 30
0.0
 11
132.088805
 21
108.131597
 31
0.0
  0
SPLINE
  5
2d3
100
AcDbEntity
  8
Ebene_1
 62
7
100
AcDbSpline
 70
8
 71
3
 72
8
 73
4
 74
0
 40
0
 40
0
 40
0
 40
0
 40
1
 40
1
 40
1
 40
1
 10
132.088805
 20
108.131597
 30
0.0
 10
131.738661
 20
108.231540
 30
0.0
 10
131.469119
 20
108.275090
 30
0.0
 10
131.277416
 20
108.281527
 30
0.0
  0
LINE
  5
2d4
100
AcDbEntity
  8
Ebene_1
 62
7
100
AcDbLine
 10
131.277416
 20
108.281527
 30
0.0
 11
131.277431
 21
108.281527
 31
0.0
  0
LINE
  5
2d5
100
AcDbEntity
  8
Ebene_1
 62
7
100
AcDbLine
 10
46.493295
 20
73.923052
 30
0.0
 11
46.063687
 21
73.912863
 31
0.0
  0
LINE
  5
2d6
100
AcDbEntity
  8
Ebene_1
 62
7
100
AcDbLine
 10
46.063687
 20
73.912863
 30
0.0
 11
45.633358
 21
73.868456
 31
0.0
  0
LINE
  5
2d7
100
AcDbEntity
  8
Ebene_1
 62
7
100
AcDbLine
 10
45.633358
 20
73.868456
 30
0.0
 11
45.631100
 21
73.868456
 31
0.0
  0
LINE
  5
2d8
100
AcDbEntity
  8
Ebene_1
 62
7
100
AcDbLine
 10
45.631100
 20
73.868456
 30
0.0
 11
45.628842
 21
73.868456
 31
0.0
  0
LINE
  5
2d9
100
AcDbEntity
  8
Ebene_1
 62
7
100
AcDbLine
 10
45.628842
 20
73.868456
 30
0.0
 11
45.624298
 21
73.868456
 31
0.0
  0
LINE
  5
2da
100
AcDbEntity
  8
Ebene_1
 62
7
100
AcDbLine
 10
45.624298
 20
73.868456
 30
0.0
 11
45.619726
 21
73.868456
 31
0.0
  0
LINE
  5
2db
100
AcDbEntity
  8
Ebene_1
 62
7
100
AcDbLine
 10
45.619726
 20
73.868456
 30
0.0
 11
43.797468
 21
73.130981
 31
0.0
  0
LINE
  5
2dc
100
AcDbEntity
  8
Ebene_1
 62
7
100
AcDbLine
 10
43.797468
 20
73.130981
 30
0.0
 11
42.120831
 21
72.080338
 31
0.0
  0
LINE
  5
2dd
100
AcDbEntity
  8
Ebene_1
 62
7
100
AcDbLine
 10
42.120831
 20
72.080338
 30
0.0
 11
40.629789
 21
70.807465
 31
0.0
  0
LINE
  5
2de
100
AcDbEntity
  8
Ebene_1
 62
7
100
AcDbLine
 10
40.629789
 20
70.807465
 30
0.0
 11
39.318077
 21
69.364028
 31
0.0
  0
LINE
  5
2df
100
AcDbEntity
  8
Ebene_1
 62
7
100
AcDbLine
 10
39.318077
 20
69.364028
 30
0.0
 11
38.021525
 21
69.810950
 31
0.0
  0
LINE
  5
2e0
100
AcDbEntity
  8
Ebene_1
 62
7
100
AcDbLine
 10
38.021525
 20
69.810950
 30
0.0
 11
36.656371
 21
69.859974
 31
0.0
  0
LINE
  5
2e1
100
AcDbEntity
  8
Ebene_1
 62
7
100
AcDbLine
 10
36.656371
 20
69.859974
 30
0.0
 11
35.254384
 21
69.652792
 31
0.0
  0
LINE
  5
2e2
100
AcDbEntity
  8
Ebene_1
 62
7
100
AcDbLine
 10
35.254384
 20
69.652792
 30
0.0
 11
33.908218
 21
69.336732
 31
0.0
  0
LINE
  5
2e3
100
AcDbEntity
  8
Ebene_1
 62
7
100
AcDbLine
 10
33.908218
 20
69.336732
 30
0.0
 11
33.908218
 21
69.334474
 31
0.0
  0
LINE
  5
2e4
100
AcDbEntity
  8
Ebene_1
 62
7
100
AcDbLine
 10
33.908218
 20
69.334474
 30
0.0
 11
33.908218
 21
69.332216
 31
0.0
  0
LINE
  5
2e5
100
AcDbEntity
  8
Ebene_1
 62
7
100
AcDbLine
 10
33.908218
 20
69.332216
 30
0.0
 11
33.905960
 21
69.332216
 31
0.0
  0
LINE
  5
2e6
100
AcDbEntity
  8
Ebene_1
 62
7
100
AcDbLine
 10
33.905960
 20
69.332216
 30
0.0
 11
33.903703
 21
69.332216
 31
0.0
  0
LINE
  5
2e7
100
AcDbEntity
  8
Ebene_1
 62
7
100
AcDbLine
 10
33.903703
 20
69.332216
 30
0.0
 11
31.562164
 21
68.040623
 31
0.0
  0
LINE
  5
2e8
100
AcDbEntity
  8
Ebene_1
 62
7
100
AcDbLine
 10
31.562164
 20
68.040623
 30
0.0
 11
29.822419
 21
66.042620
 31
0.0
  0
LINE
  5
2e9
100
AcDbEntity
  8
Ebene_1
 62
7
100
AcDbLine
 10
29.822419
 20
66.042620
 30
0.0
 11
28.636626
 21
63.621195
 31
0.0
  0
LINE
  5
2ea
100
AcDbEntity
  8
Ebene_1
 62
7
100
AcDbLine
 10
28.636626
 20
63.621195
 30
0.0
 11
27.956951
 21
61.051353
 31
0.0
  0
LINE
  5
2eb
100
AcDbEntity
  8
Ebene_1
 62
7
100
AcDbLine
 10
27.956951
 20
61.051353
 30
0.0
 11
27.956951
 21
61.046781
 31
0.0
  0
LINE
  5
2ec
100
AcDbEntity
  8
Ebene_1
 62
7
100
AcDbLine
 10
27.956951
 20
61.046781
 30
0.0
 11
27.956951
 21
61.042237
 31
0.0
  0
LINE
  5
2ed
100
AcDbEntity
  8
Ebene_1
 62
7
100
AcDbLine
 10
27.956951
 20
61.042237
 30
0.0
 11
27.956951
 21
61.035408
 31
0.0
  0
LINE
  5
2ee
100
AcDbEntity
  8
Ebene_1
 62
7
100
AcDbLine
 10
27.956951
 20
61.035408
 30
0.0
 11
27.956951
 21
61.028606
 31
0.0
  0
LINE
  5
2ef
100
AcDbEntity
  8
Ebene_1
 62
7
100
AcDbLine
 10
27.956951
 20
61.028606
 30
0.0
 11
27.935855
 21
60.469741
 31
0.0
  0
LINE
  5
2f0
100
AcDbEntity
  8
Ebene_1
 62
7
100
AcDbLine
 10
27.935855
 20
60.469741
 30
0.0
 11
27.752203
 21
60.013975
 31
0.0
  0
LINE
  5
2f1
100
AcDbEntity
  8
Ebene_1
 62
7
100
AcDbLine
 10
27.752203
 20
60.013975
 30
0.0
 11
27.441784
 21
59.625197
 31
0.0
  0
LINE
  5
2f2
100
AcDbEntity
  8
Ebene_1
 62
7
100
AcDbLine
 10
27.441784
 20
59.625197
 30
0.0
 11
27.042415
 21
59.276887
 31
0.0
  0
LINE
  5
2f3
100
AcDbEntity
  8
Ebene_1
 62
7
100
AcDbLine
 10
27.042415
 20
59.276887
 30
0.0
 11
26.146241
 21
58.602920
 31
0.0
  0
LINE
  5
2f4
100
AcDbEntity
  8
Ebene_1
 62
7
100
AcDbLine
 10
26.146241
 20
58.602920
 30
0.0
 11
25.390792
 21
57.761760
 31
0.0
  0
LINE
  5
2f5
100
AcDbEntity
  8
Ebene_1
 62
7
100
AcDbLine
 10
25.390792
 20
57.761760
 30
0.0
 11
25.386240
 21
57.754958
 31
0.0
  0
LINE
  5
2f6
100
AcDbEntity
  8
Ebene_1
 62
7
100
AcDbLine
 10
25.386240
 20
57.754958
 30
0.0
 11
25.381688
 21
57.748128
 31
0.0
  0
LINE
  5
2f7
100
AcDbEntity
  8
Ebene_1
 62
7
100
AcDbLine
 10
25.381688
 20
57.748128
 30
0.0
 11
23.703535
 21
54.946099
 31
0.0
  0
LINE
  5
2f8
100
AcDbEntity
  8
Ebene_1
 62
7
100
AcDbLine
 10
23.703535
 20
54.946099
 30
0.0
 11
23.120375
 21
51.769530
 31
0.0
  0
LINE
  5
2f9
100
AcDbEntity
  8
Ebene_1
 62
7
100
AcDbLine
 10
23.120375
 20
51.769530
 30
0.0
 11
23.504754
 21
48.550215
 31
0.0
  0
LINE
  5
2fa
100
AcDbEntity
  8
Ebene_1
 62
7
100
AcDbLine
 10
23.504754
 20
48.550215
 30
0.0
 11
24.721948
 21
45.554333
 31
0.0
  0
LINE
  5
2fb
100
AcDbEntity
  8
Ebene_1
 62
7
100
AcDbLine
 10
24.721948
 20
45.554333
 30
0.0
 11
23.344301
 21
44.584426
 31
0.0
  0
LINE
  5
2fc
100
AcDbEntity
  8
Ebene_1
 62
7
100
AcDbLine
 10
23.344301
 20
44.584426
 30
0.0
 11
22.119391
 21
43.434068
 31
0.0
  0
LINE
  5
2fd
100
AcDbEntity
  8
Ebene_1
 62
7
100
AcDbLine
 10
22.119391
 20
43.434068
 30
0.0
 11
21.081892
 21
42.082472
 31
0.0
  0
LINE
  5
2fe
100
AcDbEntity
  8
Ebene_1
 62
7
100
AcDbLine
 10
21.081892
 20
42.082472
 30
0.0
 11
20.299421
 21
40.553965
 31
0.0
  0
LINE
  5
2ff
100
AcDbEntity
  8
Ebene_1
 62
7
100
AcDbLine
 10
20.299421
 20
40.553965
 30
0.0
 11
20.297135
 21
40.549421
 31
0.0
  0
LINE
  5
300
100
AcDbEntity
  8
Ebene_1
 62
7
100
AcDbLine
 10
20.297135
 20
40.549421
 30
0.0
 11
20.294877
 21
40.544849
 31
0.0
  0
LINE
  5
301
100
AcDbEntity
  8
Ebene_1
 62
7
100
AcDbLine
 10
20.294877
 20
40.544849
 30
0.0
 11
19.484466
 21
38.408786
 31
0.0
  0
LINE
  5
302
100
AcDbEntity
  8
Ebene_1
 62
7
100
AcDbLine
 10
19.484466
 20
38.408786
 30
0.0
 11
19.339393
 21
36.176922
 31
0.0
  0
LINE
  5
303
100
AcDbEntity
  8
Ebene_1
 62
7
100
AcDbLine
 10
19.339393
 20
36.176922
 30
0.0
 11
19.662551
 21
33.924706
 31
0.0
  0
LINE
  5
304
100
AcDbEntity
  8
Ebene_1
 62
7
100
AcDbLine
 10
19.662551
 20
33.924706
 30
0.0
 11
20.253928
 21
31.736194
 31
0.0
  0
LINE
  5
305
100
AcDbEntity
  8
Ebene_1
 62
7
100
AcDbLine
 10
20.253928
 20
31.736194
 30
0.0
 11
20.256186
 21
31.733937
 31
0.0
  0
LINE
  5
306
100
AcDbEntity
  8
Ebene_1
 62
7
100
AcDbLine
 10
20.256186
 20
31.733937
 30
0.0
 11
20.258444
 21
31.731679
 31
0.0
  0
LINE
  5
307
100
AcDbEntity
  8
Ebene_1
 62
7
100
AcDbLine
 10
20.258444
 20
31.731679
 30
0.0
 11
20.258444
 21
31.729421
 31
0.0
  0
LINE
  5
308
100
AcDbEntity
  8
Ebene_1
 62
7
100
AcDbLine
 10
20.258444
 20
31.729421
 30
0.0
 11
20.258444
 21
31.727163
 31
0.0
  0
LINE
  5
309
100
AcDbEntity
  8
Ebene_1
 62
7
100
AcDbLine
 10
20.258444
 20
31.727163
 30
0.0
 11
20.319285
 21
31.540468
 31
0.0
  0
LINE
  5
30a
100
AcDbEntity
  8
Ebene_1
 62
7
100
AcDbLine
 10
20.319285
 20
31.540468
 30
0.0
 11
20.331242
 21
31.422321
 31
0.0
  0
LINE
  5
30b
100
AcDbEntity
  8
Ebene_1
 62
7
100
AcDbLine
 10
20.331242
 20
31.422321
 30
0.0
 11
20.316976
 21
31.367166
 31
0.0
  0
LINE
  5
30c
100
AcDbEntity
  8
Ebene_1
 62
7
100
AcDbLine
 10
20.316976
 20
31.367166
 30
0.0
 11
20.276643
 21
31.344984
 31
0.0
  0
LINE
  5
30d
100
AcDbEntity
  8
Ebene_1
 62
7
100
AcDbLine
 10
20.276643
 20
31.344984
 30
0.0
 11
20.190930
 21
31.337251
 31
0.0
  0
LINE
  5
30e
100
AcDbEntity
  8
Ebene_1
 62
7
100
AcDbLine
 10
20.190930
 20
31.337251
 30
0.0
 11
20.062796
 21
31.354099
 31
0.0
  0
LINE
  5
30f
100
AcDbEntity
  8
Ebene_1
 62
7
100
AcDbLine
 10
20.062796
 20
31.354099
 30
0.0
 11
19.903415
 21
31.395129
 31
0.0
  0
LINE
  5
310
100
AcDbEntity
  8
Ebene_1
 62
7
100
AcDbLine
 10
19.903415
 20
31.395129
 30
0.0
 11
19.721552
 21
31.454195
 31
0.0
  0
LINE
  5
311
100
AcDbEntity
  8
Ebene_1
 62
7
100
AcDbLine
 10
19.721552
 20
31.454195
 30
0.0
 11
19.318633
 21
31.600841
 31
0.0
  0
LINE
  5
312
100
AcDbEntity
  8
Ebene_1
 62
7
100
AcDbLine
 10
19.318633
 20
31.600841
 30
0.0
 11
18.898016
 21
31.740840
 31
0.0
  0
LINE
  5
313
100
AcDbEntity
  8
Ebene_1
 62
7
100
AcDbLine
 10
18.898016
 20
31.740840
 30
0.0
 11
18.512644
 21
31.821578
 31
0.0
  0
LINE
  5
314
100
AcDbEntity
  8
Ebene_1
 62
7
100
AcDbLine
 10
18.512644
 20
31.821578
 30
0.0
 11
18.179128
 21
31.786342
 31
0.0
  0
LINE
  5
315
100
AcDbEntity
  8
Ebene_1
 62
7
100
AcDbLine
 10
18.179128
 20
31.786342
 30
0.0
 11
18.170029
 21
31.784085
 31
0.0
  0
LINE
  5
316
100
AcDbEntity
  8
Ebene_1
 62
7
100
AcDbLine
 10
18.170029
 20
31.784085
 30
0.0
 11
18.160930
 21
31.781827
 31
0.0
  0
LINE
  5
317
100
AcDbEntity
  8
Ebene_1
 62
7
100
AcDbLine
 10
18.160930
 20
31.781827
 30
0.0
 11
16.158913
 21
31.439613
 31
0.0
  0
LINE
  5
318
100
AcDbEntity
  8
Ebene_1
 62
7
100
AcDbLine
 10
16.158913
 20
31.439613
 30
0.0
 11
14.175196
 21
30.926442
 31
0.0
  0
LINE
  5
319
100
AcDbEntity
  8
Ebene_1
 62
7
100
AcDbLine
 10
14.175196
 20
30.926442
 30
0.0
 11
12.266914
 21
30.170160
 31
0.0
  0
LINE
  5
31a
100
AcDbEntity
  8
Ebene_1
 62
7
100
AcDbLine
 10
12.266914
 20
30.170160
 30
0.0
 11
10.512506
 21
29.106473
 31
0.0
  0
LINE
  5
31b
100
AcDbEntity
  8
Ebene_1
 62
7
100
AcDbLine
 10
10.512506
 20
29.106473
 30
0.0
 11
10.512506
 21
29.108731
 31
0.0
  0
LINE
  5
31c
100
AcDbEntity
  8
Ebene_1
 62
7
100
AcDbLine
 10
10.512506
 20
29.108731
 30
0.0
 11
10.512506
 21
29.110989
 31
0.0
  0
LINE
  5
31d
100
AcDbEntity
  8
Ebene_1
 62
7
100
AcDbLine
 10
10.512506
 20
29.110989
 30
0.0
 11
8.492681
 21
27.445982
 31
0.0
  0
LINE
  5
31e
100
AcDbEntity
  8
Ebene_1
 62
7
100
AcDbLine
 10
8.492681
 20
27.445982
 30
0.0
 11
6.854367
 21
25.389149
 31
0.0
  0
LINE
  5
31f
100
AcDbEntity
  8
Ebene_1
 62
7
100
AcDbLine
 10
6.854367
 20
25.389149
 30
0.0
 11
5.868407
 21
23.005029
 31
0.0
  0
LINE
  5
320
100
AcDbEntity
  8
Ebene_1
 62
7
100
AcDbLine
 10
5.868407
 20
23.005029
 30
0.0
 11
5.807884
 21
20.361485
 31
0.0
  0
LINE
  5
321
100
AcDbEntity
  8
Ebene_1
 62
7
100
AcDbLine
 10
5.807884
 20
20.361485
 30
0.0
 11
5.807884
 21
20.356941
 31
0.0
  0
LINE
  5
322
100
AcDbEntity
  8
Ebene_1
 62
7
100
AcDbLine
 10
5.807884
 20
20.356941
 30
0.0
 11
5.807884
 21
20.352369
 31
0.0
  0
LINE
  5
323
100
AcDbEntity
  8
Ebene_1
 62
7
100
AcDbLine
 10
5.807884
 20
20.352369
 30
0.0
 11
5.810170
 21
20.347797
 31
0.0
  0
LINE
  5
324
100
AcDbEntity
  8
Ebene_1
 62
7
100
AcDbLine
 10
5.810170
 20
20.347797
 30
0.0
 11
5.812456
 21
20.343253
 31
0.0
  0
LINE
  5
325
100
AcDbEntity
  8
Ebene_1
 62
7
100
AcDbLine
 10
5.812456
 20
20.343253
 30
0.0
 11
6.019216
 21
19.212177
 31
0.0
  0
LINE
  5
326
100
AcDbEntity
  8
Ebene_1
 62
7
100
AcDbLine
 10
6.019216
 20
19.212177
 30
0.0
 11
5.685058
 21
18.131985
 31
0.0
  0
LINE
  5
327
100
AcDbEntity
  8
Ebene_1
 62
7
100
AcDbLine
 10
5.685058
 20
18.131985
 30
0.0
 11
5.144211
 21
17.049336
 31
0.0
  0
LINE
  5
328
100
AcDbEntity
  8
Ebene_1
 62
7
100
AcDbLine
 10
5.144211
 20
17.049336
 30
0.0
 11
4.747774
 21
15.916163
 31
0.0
  0
LINE
  5
329
100
AcDbEntity
  8
Ebene_1
 62
7
100
AcDbLine
 10
4.747774
 20
15.916163
 30
0.0
 11
4.747774
 21
15.914187
 31
0.0
  0
LINE
  5
32a
100
AcDbEntity
  8
Ebene_1
 62
7
100
AcDbLine
 10
4.747774
 20
15.914187
 30
0.0
 11
4.747774
 21
15.911647
 31
0.0
  0
LINE
  5
32b
100
AcDbEntity
  8
Ebene_1
 62
7
100
AcDbLine
 10
4.747774
 20
15.911647
 30
0.0
 11
4.875356
 21
13.999309
 31
0.0
  0
LINE
  5
32c
100
AcDbEntity
  8
Ebene_1
 62
7
100
AcDbLine
 10
4.875356
 20
13.999309
 30
0.0
 11
5.971704
 21
12.362675
 31
0.0
  0
LINE
  5
32d
100
AcDbEntity
  8
Ebene_1
 62
7
100
AcDbLine
 10
5.971704
 20
12.362675
 30
0.0
 11
6.760236
 21
11.809745
 31
0.0
  0
LINE
  5
32e
100
AcDbEntity
  8
Ebene_1
 62
7
100
AcDbLine
 10
6.760236
 20
11.809745
 30
0.0
 11
7.646076
 21
11.520919
 31
0.0
  0
LINE
  5
32f
100
AcDbEntity
  8
Ebene_1
 62
7
100
AcDbLine
 10
7.646076
 20
11.520919
 30
0.0
 11
8.564802
 21
11.561700
 31
0.0
  0
LINE
  5
330
100
AcDbEntity
  8
Ebene_1
 62
7
100
AcDbLine
 10
8.564802
 20
11.561700
 30
0.0
 11
9.475146
 21
11.989549
 31
0.0
  0
LINE
  5
331
100
AcDbEntity
  8
Ebene_1
 62
7
100
AcDbLine
 10
9.475146
 20
11.989549
 30
0.0
 11
10.474732
 21
11.762360
 31
0.0
  0
LINE
  5
332
100
AcDbEntity
  8
Ebene_1
 62
7
100
AcDbLine
 10
10.474732
 20
11.762360
 30
0.0
 11
11.436163
 21
11.288904
 31
0.0
  0
LINE
  5
333
100
AcDbEntity
  8
Ebene_1
 62
7
100
AcDbLine
 10
11.436163
 20
11.288904
 30
0.0
 11
12.428592
 21
10.807122
 31
0.0
  0
LINE
  5
334
100
AcDbEntity
  8
Ebene_1
 62
7
100
AcDbLine
 10
12.428592
 20
10.807122
 30
0.0
 11
13.510929
 21
10.583630
 31
0.0
  0
LINE
  5
335
100
AcDbEntity
  8
Ebene_1
 62
7
100
AcDbLine
 10
13.510929
 20
10.583630
 30
0.0
 11
13.513215
 21
10.583630
 31
0.0
  0
LINE
  5
336
100
AcDbEntity
  8
Ebene_1
 62
7
100
AcDbLine
 10
13.513215
 20
10.583630
 30
0.0
 11
13.515501
 21
10.583630
 31
0.0
  0
LINE
  5
337
100
AcDbEntity
  8
Ebene_1
 62
7
100
AcDbLine
 10
13.515501
 20
10.583630
 30
0.0
 11
13.517787
 21
10.583630
 31
0.0
  0
LINE
  5
338
100
AcDbEntity
  8
Ebene_1
 62
7
100
AcDbLine
 10
13.517787
 20
10.583630
 30
0.0
 11
13.520073
 21
10.583630
 31
0.0
  0
LINE
  5
339
100
AcDbEntity
  8
Ebene_1
 62
7
100
AcDbLine
 10
13.520073
 20
10.583630
 30
0.0
 11
13.985338
 21
10.563875
 31
0.0
  0
LINE
  5
33a
100
AcDbEntity
  8
Ebene_1
 62
7
100
AcDbLine
 10
13.985338
 20
10.563875
 30
0.0
 11
14.293560
 21
10.388079
 31
0.0
  0
LINE
  5
33b
100
AcDbEntity
  8
Ebene_1
 62
7
100
AcDbLine
 10
14.293560
 20
10.388079
 30
0.0
 11
14.499886
 21
10.089262
 31
0.0
  0
LINE
  5
33c
100
AcDbEntity
  8
Ebene_1
 62
7
100
AcDbLine
 10
14.499886
 20
10.089262
 30
0.0
 11
14.643905
 21
9.696493
 31
0.0
  0
LINE
  5
33d
100
AcDbEntity
  8
Ebene_1
 62
7
100
AcDbLine
 10
14.643905
 20
9.696493
 30
0.0
 11
14.888269
 21
8.803429
 31
0.0
  0
LINE
  5
33e
100
AcDbEntity
  8
Ebene_1
 62
7
100
AcDbLine
 10
14.888269
 20
8.803429
 30
0.0
 11
15.353693
 21
8.031241
 31
0.0
  0
LINE
  5
33f
100
AcDbEntity
  8
Ebene_1
 62
7
100
AcDbLine
 10
15.353693
 20
8.031241
 30
0.0
 11
15.351407
 21
8.028419
 31
0.0
  0
LINE
  5
340
100
AcDbEntity
  8
Ebene_1
 62
7
100
AcDbLine
 10
15.351407
 20
8.028419
 30
0.0
 11
15.349121
 21
8.025596
 31
0.0
  0
LINE
  5
341
100
AcDbEntity
  8
Ebene_1
 62
7
100
AcDbLine
 10
15.349121
 20
8.025596
 30
0.0
 11
17.144123
 21
6.699152
 31
0.0
  0
LINE
  5
342
100
AcDbEntity
  8
Ebene_1
 62
7
100
AcDbLine
 10
17.144123
 20
6.699152
 30
0.0
 11
19.375804
 21
6.660600
 31
0.0
  0
LINE
  5
343
100
AcDbEntity
  8
Ebene_1
 62
7
100
AcDbLine
 10
19.375804
 20
6.660600
 30
0.0
 11
21.326597
 21
7.709338
 31
0.0
  0
LINE
  5
344
100
AcDbEntity
  8
Ebene_1
 62
7
100
AcDbLine
 10
21.326597
 20
7.709338
 30
0.0
 11
22.360555
 21
9.668101
 31
0.0
  0
LINE
  5
345
100
AcDbEntity
  8
Ebene_1
 62
7
100
AcDbLine
 10
22.360555
 20
9.668101
 30
0.0
 11
23.443693
 21
9.646088
 31
0.0
  0
LINE
  5
346
100
AcDbEntity
  8
Ebene_1
 62
7
100
AcDbLine
 10
23.443693
 20
9.646088
 30
0.0
 11
24.571818
 21
9.722740
 31
0.0
  0
LINE
  5
347
100
AcDbEntity
  8
Ebene_1
 62
7
100
AcDbLine
 10
24.571818
 20
9.722740
 30
0.0
 11
25.724294
 21
9.831508
 31
0.0
  0
LINE
  5
348
100
AcDbEntity
  8
Ebene_1
 62
7
100
AcDbLine
 10
25.724294
 20
9.831508
 30
0.0
 11
26.855881
 21
9.900201
 31
0.0
  0
LINE
  5
349
100
AcDbEntity
  8
Ebene_1
 62
7
100
AcDbLine
 10
26.855881
 20
9.900201
 30
0.0
 11
27.192069
 21
9.113365
 31
0.0
  0
LINE
  5
34a
100
AcDbEntity
  8
Ebene_1
 62
7
100
AcDbLine
 10
27.192069
 20
9.113365
 30
0.0
 11
27.747666
 21
8.457876
 31
0.0
  0
LINE
  5
34b
100
AcDbEntity
  8
Ebene_1
 62
7
100
AcDbLine
 10
27.747666
 20
8.457876
 30
0.0
 11
28.511177
 21
7.985267
 31
0.0
  0
LINE
  5
34c
100
AcDbEntity
  8
Ebene_1
 62
7
100
AcDbLine
 10
28.511177
 20
7.985267
 30
0.0
 11
29.403837
 21
7.802697
 31
0.0
  0
LINE
  5
34d
100
AcDbEntity
  8
Ebene_1
 62
7
100
AcDbLine
 10
29.403837
 20
7.802697
 30
0.0
 11
29.403837
 21
7.805519
 31
0.0
  0
LINE
  5
34e
100
AcDbEntity
  8
Ebene_1
 62
7
100
AcDbLine
 10
29.403837
 20
7.805519
 30
0.0
 11
29.403837
 21
7.808342
 31
0.0
  0
LINE
  5
34f
100
AcDbEntity
  8
Ebene_1
 62
7
100
AcDbLine
 10
29.403837
 20
7.808342
 30
0.0
 11
31.128330
 21
8.070244
 31
0.0
  0
LINE
  5
350
100
AcDbEntity
  8
Ebene_1
 62
7
100
AcDbLine
 10
31.128330
 20
8.070244
 30
0.0
 11
32.352190
 21
9.196085
 31
0.0
  0
LINE
  5
351
100
AcDbEntity
  8
Ebene_1
 62
7
100
AcDbLine
 10
32.352190
 20
9.196085
 30
0.0
 11
32.980682
 21
10.780904
 31
0.0
  0
LINE
  5
352
100
AcDbEntity
  8
Ebene_1
 62
7
100
AcDbLine
 10
32.980682
 20
10.780904
 30
0.0
 11
32.961886
 21
12.481123
 31
0.0
  0
LINE
  5
353
100
AcDbEntity
  8
Ebene_1
 62
7
100
AcDbLine
 10
32.961886
 20
12.481123
 30
0.0
 11
33.790307
 21
12.948963
 31
0.0
  0
LINE
  5
354
100
AcDbEntity
  8
Ebene_1
 62
7
100
AcDbLine
 10
33.790307
 20
12.948963
 30
0.0
 11
34.545260
 21
13.527603
 31
0.0
  0
LINE
  5
355
100
AcDbEntity
  8
Ebene_1
 62
7
100
AcDbLine
 10
34.545260
 20
13.527603
 30
0.0
 11
35.238728
 21
14.205896
 31
0.0
  0
LINE
  5
356
100
AcDbEntity
  8
Ebene_1
 62
7
100
AcDbLine
 10
35.238728
 20
14.205896
 30
0.0
 11
35.860190
 21
14.942654
 31
0.0
  0
LINE
  5
357
100
AcDbEntity
  8
Ebene_1
 62
7
100
AcDbLine
 10
35.860190
 20
14.942654
 30
0.0
 11
35.864733
 21
14.949512
 31
0.0
  0
LINE
  5
358
100
AcDbEntity
  8
Ebene_1
 62
7
100
AcDbLine
 10
35.864733
 20
14.949512
 30
0.0
 11
35.869277
 21
14.956398
 31
0.0
  0
LINE
  5
359
100
AcDbEntity
  8
Ebene_1
 62
7
100
AcDbLine
 10
35.869277
 20
14.956398
 30
0.0
 11
36.613562
 21
15.870643
 31
0.0
  0
LINE
  5
35a
100
AcDbEntity
  8
Ebene_1
 62
7
100
AcDbLine
 10
36.613562
 20
15.870643
 30
0.0
 11
37.202405
 21
16.903788
 31
0.0
  0
LINE
  5
35b
100
AcDbEntity
  8
Ebene_1
 62
7
100
AcDbLine
 10
37.202405
 20
16.903788
 30
0.0
 11
37.880675
 21
17.770789
 31
0.0
  0
LINE
  5
35c
100
AcDbEntity
  8
Ebene_1
 62
7
100
AcDbLine
 10
37.880675
 20
17.770789
 30
0.0
 11
38.890424
 21
18.195960
 31
0.0
  0
LINE
  5
35d
100
AcDbEntity
  8
Ebene_1
 62
7
100
AcDbLine
 10
38.890424
 20
18.195960
 30
0.0
 11
38.897225
 21
18.198217
 31
0.0
  0
LINE
  5
35e
100
AcDbEntity
  8
Ebene_1
 62
7
100
AcDbLine
 10
38.897225
 20
18.198217
 30
0.0
 11
38.904027
 21
18.200475
 31
0.0
  0
LINE
  5
35f
100
AcDbEntity
  8
Ebene_1
 62
7
100
AcDbLine
 10
38.904027
 20
18.200475
 30
0.0
 11
38.908599
 21
18.200475
 31
0.0
  0
LINE
  5
360
100
AcDbEntity
  8
Ebene_1
 62
7
100
AcDbLine
 10
38.908599
 20
18.200475
 30
0.0
 11
38.913171
 21
18.200475
 31
0.0
  0
LINE
  5
361
100
AcDbEntity
  8
Ebene_1
 62
7
100
AcDbLine
 10
38.913171
 20
18.200475
 30
0.0
 11
40.178805
 21
19.152899
 31
0.0
  0
LINE
  5
362
100
AcDbEntity
  8
Ebene_1
 62
7
100
AcDbLine
 10
40.178805
 20
19.152899
 30
0.0
 11
40.924238
 21
20.539135
 31
0.0
  0
LINE
  5
363
100
AcDbEntity
  8
Ebene_1
 62
7
100
AcDbLine
 10
40.924238
 20
20.539135
 30
0.0
 11
41.177809
 21
22.126632
 31
0.0
  0
LINE
  5
364
100
AcDbEntity
  8
Ebene_1
 62
7
100
AcDbLine
 10
41.177809
 20
22.126632
 30
0.0
 11
40.969735
 21
23.696784
 31
0.0
  0
LINE
  5
365
100
AcDbEntity
  8
Ebene_1
 62
7
100
AcDbLine
 10
40.969735
 20
23.696784
 30
0.0
 11
40.967478
 21
23.696784
 31
0.0
  0
LINE
  5
366
100
AcDbEntity
  8
Ebene_1
 62
7
100
AcDbLine
 10
40.967478
 20
23.696784
 30
0.0
 11
40.965220
 21
23.696784
 31
0.0
  0
LINE
  5
367
100
AcDbEntity
  8
Ebene_1
 62
7
100
AcDbLine
 10
40.965220
 20
23.696784
 30
0.0
 11
40.901203
 21
24.174629
 31
0.0
  0
LINE
  5
368
100
AcDbEntity
  8
Ebene_1
 62
7
100
AcDbLine
 10
40.901203
 20
24.174629
 30
0.0
 11
40.696773
 21
24.547619
 31
0.0
  0
LINE
  5
369
100
AcDbEntity
  8
Ebene_1
 62
7
100
AcDbLine
 10
40.696773
 20
24.547619
 30
0.0
 11
40.385030
 21
24.839550
 31
0.0
  0
LINE
  5
36a
100
AcDbEntity
  8
Ebene_1
 62
7
100
AcDbLine
 10
40.385030
 20
24.839550
 30
0.0
 11
40.018833
 21
25.075411
 31
0.0
  0
LINE
  5
36b
100
AcDbEntity
  8
Ebene_1
 62
7
100
AcDbLine
 10
40.018833
 20
25.075411
 30
0.0
 11
39.293220
 21
25.509159
 31
0.0
  0
LINE
  5
36c
100
AcDbEntity
  8
Ebene_1
 62
7
100
AcDbLine
 10
39.293220
 20
25.509159
 30
0.0
 11
38.826752
 21
26.071845
 31
0.0
  0
LINE
  5
36d
100
AcDbEntity
  8
Ebene_1
 62
7
100
AcDbLine
 10
38.826752
 20
26.071845
 30
0.0
 11
38.824494
 21
26.071845
 31
0.0
  0
LINE
  5
36e
100
AcDbEntity
  8
Ebene_1
 62
7
100
AcDbLine
 10
38.824494
 20
26.071845
 30
0.0
 11
38.822236
 21
26.071845
 31
0.0
  0
LINE
  5
36f
100
AcDbEntity
  8
Ebene_1
 62
7
100
AcDbLine
 10
38.822236
 20
26.071845
 30
0.0
 11
38.360563
 21
28.186770
 31
0.0
  0
LINE
  5
370
100
AcDbEntity
  8
Ebene_1
 62
7
100
AcDbLine
 10
38.360563
 20
28.186770
 30
0.0
 11
37.862198
 21
30.298724
 31
0.0
  0
LINE
  5
371
100
AcDbEntity
  8
Ebene_1
 62
7
100
AcDbLine
 10
37.862198
 20
30.298724
 30
0.0
 11
37.467651
 21
32.425855
 31
0.0
  0
LINE
  5
372
100
AcDbEntity
  8
Ebene_1
 62
7
100
AcDbLine
 10
37.467651
 20
32.425855
 30
0.0
 11
37.325310
 21
34.575655
 31
0.0
  0
LINE
  5
373
100
AcDbEntity
  8
Ebene_1
 62
7
100
AcDbLine
 10
37.325310
 20
34.575655
 30
0.0
 11
37.325310
 21
34.577913
 31
0.0
  0
LINE
  5
374
100
AcDbEntity
  8
Ebene_1
 62
7
100
AcDbLine
 10
37.325310
 20
34.577913
 30
0.0
 11
37.325310
 21
34.580170
 31
0.0
  0
LINE
  5
375
100
AcDbEntity
  8
Ebene_1
 62
7
100
AcDbLine
 10
37.325310
 20
34.580170
 30
0.0
 11
37.598856
 21
37.763716
 31
0.0
  0
LINE
  5
376
100
AcDbEntity
  8
Ebene_1
 62
7
100
AcDbLine
 10
37.598856
 20
37.763716
 30
0.0
 11
38.571987
 21
40.786268
 31
0.0
  0
LINE
  5
377
100
AcDbEntity
  8
Ebene_1
 62
7
100
AcDbLine
 10
38.571987
 20
40.786268
 30
0.0
 11
40.060221
 21
43.623612
 31
0.0
  0
LINE
  5
378
100
AcDbEntity
  8
Ebene_1
 62
7
100
AcDbLine
 10
40.060221
 20
43.623612
 30
0.0
 11
41.879784
 21
46.255277
 31
0.0
  0
LINE
  5
379
100
AcDbEntity
  8
Ebene_1
 62
7
100
AcDbLine
 10
41.879784
 20
46.255277
 30
0.0
 11
41.882041
 21
46.257535
 31
0.0
  0
LINE
  5
37a
100
AcDbEntity
  8
Ebene_1
 62
7
100
AcDbLine
 10
41.882041
 20
46.257535
 30
0.0
 11
41.884299
 21
46.259793
 31
0.0
  0
LINE
  5
37b
100
AcDbEntity
  8
Ebene_1
 62
7
100
AcDbLine
 10
41.884299
 20
46.259793
 30
0.0
 11
41.884299
 21
46.262051
 31
0.0
  0
LINE
  5
37c
100
AcDbEntity
  8
Ebene_1
 62
7
100
AcDbLine
 10
41.884299
 20
46.262051
 30
0.0
 11
41.884299
 21
46.264309
 31
0.0
  0
LINE
  5
37d
100
AcDbEntity
  8
Ebene_1
 62
7
100
AcDbLine
 10
41.884299
 20
46.264309
 30
0.0
 11
44.351046
 21
48.631896
 31
0.0
  0
LINE
  5
37e
100
AcDbEntity
  8
Ebene_1
 62
7
100
AcDbLine
 10
44.351046
 20
48.631896
 30
0.0
 11
47.658151
 21
49.663102
 31
0.0
  0
LINE
  5
37f
100
AcDbEntity
  8
Ebene_1
 62
7
100
AcDbLine
 10
47.658151
 20
49.663102
 30
0.0
 11
51.045501
 21
49.231525
 31
0.0
  0
LINE
  5
380
100
AcDbEntity
  8
Ebene_1
 62
7
100
AcDbLine
 10
51.045501
 20
49.231525
 30
0.0
 11
53.777801
 21
47.219792
 31
0.0
  0
LINE
  5
381
100
AcDbEntity
  8
Ebene_1
 62
7
100
AcDbLine
 10
53.777801
 20
47.219792
 30
0.0
 11
54.839287
 21
44.601627
 31
0.0
  0
LINE
  5
382
100
AcDbEntity
  8
Ebene_1
 62
7
100
AcDbLine
 10
54.839287
 20
44.601627
 30
0.0
 11
55.597773
 21
41.864532
 31
0.0
  0
LINE
  5
383
100
AcDbEntity
  8
Ebene_1
 62
7
100
AcDbLine
 10
55.597773
 20
41.864532
 30
0.0
 11
55.969708
 21
39.058633
 31
0.0
  0
LINE
  5
384
100
AcDbEntity
  8
Ebene_1
 62
7
100
AcDbLine
 10
55.969708
 20
39.058633
 30
0.0
 11
55.870767
 21
36.236273
 31
0.0
  0
LINE
  5
385
100
AcDbEntity
  8
Ebene_1
 62
7
100
AcDbLine
 10
55.870767
 20
36.236273
 30
0.0
 11
55.870767
 21
36.234015
 31
0.0
  0
LINE
  5
386
100
AcDbEntity
  8
Ebene_1
 62
7
100
AcDbLine
 10
55.870767
 20
36.234015
 30
0.0
 11
55.870767
 21
36.231757
 31
0.0
  0
LINE
  5
387
100
AcDbEntity
  8
Ebene_1
 62
7
100
AcDbLine
 10
55.870767
 20
36.231757
 30
0.0
 11
55.870767
 21
36.229500
 31
0.0
  0
LINE
  5
388
100
AcDbEntity
  8
Ebene_1
 62
7
100
AcDbLine
 10
55.870767
 20
36.229500
 30
0.0
 11
55.870767
 21
36.227242
 31
0.0
  0
LINE
  5
389
100
AcDbEntity
  8
Ebene_1
 62
7
100
AcDbLine
 10
55.870767
 20
36.227242
 30
0.0
 11
55.390261
 21
32.525827
 31
0.0
  0
LINE
  5
38a
100
AcDbEntity
  8
Ebene_1
 62
7
100
AcDbLine
 10
55.390261
 20
32.525827
 30
0.0
 11
54.382942
 21
28.951911
 31
0.0
  0
LINE
  5
38b
100
AcDbEntity
  8
Ebene_1
 62
7
100
AcDbLine
 10
54.382942
 20
28.951911
 30
0.0
 11
52.988660
 21
25.511518
 31
0.0
  0
LINE
  5
38c
100
AcDbEntity
  8
Ebene_1
 62
7
100
AcDbLine
 10
52.988660
 20
25.511518
 30
0.0
 11
51.334493
 21
22.181623
 31
0.0
  0
LINE
  5
38d
100
AcDbEntity
  8
Ebene_1
 62
7
100
AcDbLine
 10
51.334493
 20
22.181623
 30
0.0
 11
49.612263
 21
21.313629
 31
0.0
  0
LINE
  5
38e
100
AcDbEntity
  8
Ebene_1
 62
7
100
AcDbLine
 10
49.612263
 20
21.313629
 30
0.0
 11
48.272394
 21
19.874812
 31
0.0
  0
LINE
  5
38f
100
AcDbEntity
  8
Ebene_1
 62
7
100
AcDbLine
 10
48.272394
 20
19.874812
 30
0.0
 11
47.511367
 21
18.056768
 31
0.0
  0
LINE
  5
390
100
AcDbEntity
  8
Ebene_1
 62
7
100
AcDbLine
 10
47.511367
 20
18.056768
 30
0.0
 11
47.553503
 21
16.075621
 31
0.0
  0
LINE
  5
391
100
AcDbEntity
  8
Ebene_1
 62
7
100
AcDbLine
 10
47.553503
 20
16.075621
 30
0.0
 11
47.802451
 21
15.046266
 31
0.0
  0
LINE
  5
392
100
AcDbEntity
  8
Ebene_1
 62
7
100
AcDbLine
 10
47.802451
 20
15.046266
 30
0.0
 11
48.540840
 21
14.419454
 31
0.0
  0
LINE
  5
393
100
AcDbEntity
  8
Ebene_1
 62
7
100
AcDbLine
 10
48.540840
 20
14.419454
 30
0.0
 11
49.500404
 21
14.079715
 31
0.0
  0
LINE
  5
394
100
AcDbEntity
  8
Ebene_1
 62
7
100
AcDbLine
 10
49.500404
 20
14.079715
 30
0.0
 11
50.465458
 21
13.878039
 31
0.0
  0
LINE
  5
395
100
AcDbEntity
  8
Ebene_1
 62
7
100
AcDbLine
 10
50.465458
 20
13.878039
 30
0.0
 11
50.672964
 21
13.068879
 31
0.0
  0
LINE
  5
396
100
AcDbEntity
  8
Ebene_1
 62
7
100
AcDbLine
 10
50.672964
 20
13.068879
 30
0.0
 11
51.111546
 21
12.376532
 31
0.0
  0
LINE
  5
397
100
AcDbEntity
  8
Ebene_1
 62
7
100
AcDbLine
 10
51.111546
 20
12.376532
 30
0.0
 11
51.635311
 21
11.743169
 31
0.0
  0
LINE
  5
398
100
AcDbEntity
  8
Ebene_1
 62
7
100
AcDbLine
 10
51.635311
 20
11.743169
 30
0.0
 11
52.076128
 21
11.134415
 31
0.0
  0
LINE
  5
399
100
AcDbEntity
  8
Ebene_1
 62
7
100
AcDbLine
 10
52.076128
 20
11.134415
 30
0.0
 11
51.673132
 21
9.358786
 31
0.0
  0
LINE
  5
39a
100
AcDbEntity
  8
Ebene_1
 62
7
100
AcDbLine
 10
51.673132
 20
9.358786
 30
0.0
 11
51.916884
 21
7.539948
 31
0.0
  0
LINE
  5
39b
100
AcDbEntity
  8
Ebene_1
 62
7
100
AcDbLine
 10
51.916884
 20
7.539948
 30
0.0
 11
52.788020
 21
5.913445
 31
0.0
  0
LINE
  5
39c
100
AcDbEntity
  8
Ebene_1
 62
7
100
AcDbLine
 10
52.788020
 20
5.913445
 30
0.0
 11
54.250995
 21
4.778150
 31
0.0
  0
LINE
  5
39d
100
AcDbEntity
  8
Ebene_1
 62
7
100
AcDbLine
 10
54.250995
 20
4.778150
 30
0.0
 11
55.924942
 21
4.508345
 31
0.0
  0
LINE
  5
39e
100
AcDbEntity
  8
Ebene_1
 62
7
100
AcDbLine
 10
55.924942
 20
4.508345
 30
0.0
 11
57.445042
 21
5.060259
 31
0.0
  0
LINE
  5
39f
100
AcDbEntity
  8
Ebene_1
 62
7
100
AcDbLine
 10
57.445042
 20
5.060259
 30
0.0
 11
58.637713
 21
6.169901
 31
0.0
  0
LINE
  5
3a0
100
AcDbEntity
  8
Ebene_1
 62
7
100
AcDbLine
 10
58.637713
 20
6.169901
 30
0.0
 11
59.410610
 21
7.617334
 31
0.0
  0
LINE
  5
3a1
100
AcDbEntity
  8
Ebene_1
 62
7
100
AcDbLine
 10
59.410610
 20
7.617334
 30
0.0
 11
60.377446
 21
7.440465
 31
0.0
  0
LINE
  5
3a2
100
AcDbEntity
  8
Ebene_1
 62
7
100
AcDbLine
 10
60.377446
 20
7.440465
 30
0.0
 11
61.348878
 21
7.271527
 31
0.0
  0
LINE
  5
3a3
100
AcDbEntity
  8
Ebene_1
 62
7
100
AcDbLine
 10
61.348878
 20
7.271527
 30
0.0
 11
62.331821
 21
7.119607
 31
0.0
  0
LINE
  5
3a4
100
AcDbEntity
  8
Ebene_1
 62
7
100
AcDbLine
 10
62.331821
 20
7.119607
 30
0.0
 11
63.318992
 21
6.993989
 31
0.0
  0
LINE
  5
3a5
100
AcDbEntity
  8
Ebene_1
 62
7
100
AcDbLine
 10
63.318992
 20
6.993989
 30
0.0
 11
63.849118
 21
5.763105
 31
0.0
  0
LINE
  5
3a6
100
AcDbEntity
  8
Ebene_1
 62
7
100
AcDbLine
 10
63.849118
 20
5.763105
 30
0.0
 11
64.461027
 21
4.514272
 31
0.0
  0
LINE
  5
3a7
100
AcDbEntity
  8
Ebene_1
 62
7
100
AcDbLine
 10
64.461027
 20
4.514272
 30
0.0
 11
65.337553
 21
3.470501
 31
0.0
  0
LINE
  5
3a8
100
AcDbEntity
  8
Ebene_1
 62
7
100
AcDbLine
 10
65.337553
 20
3.470501
 30
0.0
 11
66.644992
 21
2.917261
 31
0.0
  0
LINE
  5
3a9
100
AcDbEntity
  8
Ebene_1
 62
7
100
AcDbLine
 10
66.644992
 20
2.917261
 30
0.0
 11
68.001951
 21
3.054167
 31
0.0
  0
LINE
  5
3aa
100
AcDbEntity
  8
Ebene_1
 62
7
100
AcDbLine
 10
68.001951
 20
3.054167
 30
0.0
 11
69.120149
 21
3.777164
 31
0.0
  0
LINE
  5
3ab
100
AcDbEntity
  8
Ebene_1
 62
7
100
AcDbLine
 10
69.120149
 20
3.777164
 30
0.0
 11
69.954401
 21
4.833973
 31
0.0
  0
LINE
  5
3ac
100
AcDbEntity
  8
Ebene_1
 62
7
100
AcDbLine
 10
69.954401
 20
4.833973
 30
0.0
 11
70.516974
 21
6.024838
 31
0.0
  0
LINE
  5
3ad
100
AcDbEntity
  8
Ebene_1
 62
7
100
AcDbLine
 10
70.516974
 20
6.024838
 30
0.0
 11
71.390271
 21
6.082214
 31
0.0
  0
LINE
  5
3ae
100
AcDbEntity
  8
Ebene_1
 62
7
100
AcDbLine
 10
71.390271
 20
6.082214
 30
0.0
 11
72.268699
 21
6.134030
 31
0.0
  0
LINE
  5
3af
100
AcDbEntity
  8
Ebene_1
 62
7
100
AcDbLine
 10
72.268699
 20
6.134030
 30
0.0
 11
73.131300
 21
6.196288
 31
0.0
  0
LINE
  5
3b0
100
AcDbEntity
  8
Ebene_1
 62
7
100
AcDbLine
 10
73.131300
 20
6.196288
 30
0.0
 11
73.979468
 21
6.284201
 31
0.0
  0
LINE
  5
3b1
100
AcDbEntity
  8
Ebene_1
 62
7
100
AcDbLine
 10
73.979468
 20
6.284201
 30
0.0
 11
74.328317
 21
5.220731
 31
0.0
  0
LINE
  5
3b2
100
AcDbEntity
  8
Ebene_1
 62
7
100
AcDbLine
 10
74.328317
 20
5.220731
 30
0.0
 11
74.862152
 21
4.241279
 31
0.0
  0
LINE
  5
3b3
100
AcDbEntity
  8
Ebene_1
 62
7
100
AcDbLine
 10
74.862152
 20
4.241279
 30
0.0
 11
75.630457
 21
3.407368
 31
0.0
  0
LINE
  5
3b4
100
AcDbEntity
  8
Ebene_1
 62
7
100
AcDbLine
 10
75.630457
 20
3.407368
 30
0.0
 11
76.641174
 21
2.835360
 31
0.0
  0
LINE
  5
3b5
100
AcDbEntity
  8
Ebene_1
 62
7
100
AcDbLine
 10
76.641174
 20
2.835360
 30
0.0
 11
76.645718
 21
2.832538
 31
0.0
  0
LINE
  5
3b6
100
AcDbEntity
  8
Ebene_1
 62
7
100
AcDbLine
 10
76.645718
 20
2.832538
 30
0.0
 11
76.650261
 21
2.829716
 31
0.0
  0
LINE
  5
3b7
100
AcDbEntity
  8
Ebene_1
 62
7
100
AcDbLine
 10
76.650261
 20
2.829716
 30
0.0
 11
76.657091
 21
2.829716
 31
0.0
  0
LINE
  5
3b8
100
AcDbEntity
  8
Ebene_1
 62
7
100
AcDbLine
 10
76.657091
 20
2.829716
 30
0.0
 11
76.663921
 21
2.829716
 31
0.0
  0
LINE
  5
3b9
100
AcDbEntity
  8
Ebene_1
 62
7
100
AcDbLine
 10
76.663921
 20
2.829716
 30
0.0
 11
77.805273
 21
2.869340
 31
0.0
  0
LINE
  5
3ba
100
AcDbEntity
  8
Ebene_1
 62
7
100
AcDbLine
 10
77.805273
 20
2.869340
 30
0.0
 11
78.756886
 21
3.316549
 31
0.0
  0
LINE
  5
3bb
100
AcDbEntity
  8
Ebene_1
 62
7
100
AcDbLine
 10
78.756886
 20
3.316549
 30
0.0
 11
79.542525
 21
4.054645
 31
0.0
  0
LINE
  5
3bc
100
AcDbEntity
  8
Ebene_1
 62
7
100
AcDbLine
 10
79.542525
 20
4.054645
 30
0.0
 11
80.194662
 21
4.959083
 31
0.0
  0
LINE
  5
3bd
100
AcDbEntity
  8
Ebene_1
 62
7
100
AcDbLine
 10
80.194662
 20
4.959083
 30
0.0
 11
80.201492
 21
4.968114
 31
0.0
  0
LINE
  5
3be
100
AcDbEntity
  8
Ebene_1
 62
7
100
AcDbLine
 10
80.201492
 20
4.968114
 30
0.0
 11
80.208293
 21
4.977145
 31
0.0
  0
LINE
  5
3bf
100
AcDbEntity
  8
Ebene_1
 62
7
100
AcDbLine
 10
80.208293
 20
4.977145
 30
0.0
 11
80.208293
 21
4.988434
 31
0.0
  0
LINE
  5
3c0
100
AcDbEntity
  8
Ebene_1
 62
7
100
AcDbLine
 10
80.208293
 20
4.988434
 30
0.0
 11
80.208293
 21
5.000005
 31
0.0
  0
LINE
  5
3c1
100
AcDbEntity
  8
Ebene_1
 62
7
100
AcDbLine
 10
80.208293
 20
5.000005
 30
0.0
 11
80.371263
 21
5.820848
 31
0.0
  0
LINE
  5
3c2
100
AcDbEntity
  8
Ebene_1
 62
7
100
AcDbLine
 10
80.371263
 20
5.820848
 30
0.0
 11
80.849835
 21
6.246665
 31
0.0
  0
LINE
  5
3c3
100
AcDbEntity
  8
Ebene_1
 62
7
100
AcDbLine
 10
80.849835
 20
6.246665
 30
0.0
 11
81.524276
 21
6.444475
 31
0.0
  0
LINE
  5
3c4
100
AcDbEntity
  8
Ebene_1
 62
7
100
AcDbLine
 10
81.524276
 20
6.444475
 30
0.0
 11
82.314910
 21
6.565181
 31
0.0
  0
LINE
  5
3c5
100
AcDbEntity
  8
Ebene_1
 62
7
100
AcDbLine
 10
82.314910
 20
6.565181
 30
0.0
 11
82.451517
 21
5.896794
 31
0.0
  0
LINE
  5
3c6
100
AcDbEntity
  8
Ebene_1
 62
7
100
AcDbLine
 10
82.451517
 20
5.896794
 30
0.0
 11
82.569706
 21
5.104625
 31
0.0
  0
LINE
  5
3c7
100
AcDbEntity
  8
Ebene_1
 62
7
100
AcDbLine
 10
82.569706
 20
5.104625
 30
0.0
 11
82.800236
 21
4.276359
 31
0.0
  0
LINE
  5
3c8
100
AcDbEntity
  8
Ebene_1
 62
7
100
AcDbLine
 10
82.800236
 20
4.276359
 30
0.0
 11
83.288596
 21
3.584999
 31
0.0
  0
LINE
  5
3c9
100
AcDbEntity
  8
Ebene_1
 62
7
100
AcDbLine
 10
83.288596
 20
3.584999
 30
0.0
 11
83.290854
 21
3.582177
 31
0.0
  0
LINE
  5
3ca
100
AcDbEntity
  8
Ebene_1
 62
7
100
AcDbLine
 10
83.290854
 20
3.582177
 30
0.0
 11
83.293112
 21
3.579355
 31
0.0
  0
LINE
  5
3cb
100
AcDbEntity
  8
Ebene_1
 62
7
100
AcDbLine
 10
83.293112
 20
3.579355
 30
0.0
 11
83.295370
 21
3.579355
 31
0.0
  0
LINE
  5
3cc
100
AcDbEntity
  8
Ebene_1
 62
7
100
AcDbLine
 10
83.295370
 20
3.579355
 30
0.0
 11
83.297628
 21
3.579355
 31
0.0
  0
LINE
  5
3cd
100
AcDbEntity
  8
Ebene_1
 62
7
100
AcDbLine
 10
83.297628
 20
3.579355
 30
0.0
 11
85.371899
 21
3.065033
 31
0.0
  0
LINE
  5
3ce
100
AcDbEntity
  8
Ebene_1
 62
7
100
AcDbLine
 10
85.371899
 20
3.065033
 30
0.0
 11
87.306109
 21
3.875095
 31
0.0
  0
LINE
  5
3cf
100
AcDbEntity
  8
Ebene_1
 62
7
100
AcDbLine
 10
87.306109
 20
3.875095
 30
0.0
 11
88.553469
 21
5.546472
 31
0.0
  0
LINE
  5
3d0
100
AcDbEntity
  8
Ebene_1
 62
7
100
AcDbLine
 10
88.553469
 20
5.546472
 30
0.0
 11
88.621039
 21
7.651511
 31
0.0
  0
LINE
  5
3d1
100
AcDbEntity
  8
Ebene_1
 62
7
100
AcDbLine
 10
88.621039
 20
7.651511
 30
0.0
 11
89.633325
 21
8.706627
 31
0.0
  0
LINE
  5
3d2
100
AcDbEntity
  8
Ebene_1
 62
7
100
AcDbLine
 10
89.633325
 20
8.706627
 30
0.0
 11
90.559307
 21
9.849147
 31
0.0
  0
LINE
  5
3d3
100
AcDbEntity
  8
Ebene_1
 62
7
100
AcDbLine
 10
90.559307
 20
9.849147
 30
0.0
 11
91.375951
 21
11.100069
 31
0.0
  0
LINE
  5
3d4
100
AcDbEntity
  8
Ebene_1
 62
7
100
AcDbLine
 10
91.375951
 20
11.100069
 30
0.0
 11
92.033483
 21
12.447172
 31
0.0
  0
LINE
  5
3d5
100
AcDbEntity
  8
Ebene_1
 62
7
100
AcDbLine
 10
92.033483
 20
12.447172
 30
0.0
 11
92.033483
 21
12.449994
 31
0.0
  0
LINE
  5
3d6
100
AcDbEntity
  8
Ebene_1
 62
7
100
AcDbLine
 10
92.033483
 20
12.449994
 30
0.0
 11
92.033483
 21
12.452816
 31
0.0
  0
LINE
  5
3d7
100
AcDbEntity
  8
Ebene_1
 62
7
100
AcDbLine
 10
92.033483
 20
12.452816
 30
0.0
 11
92.453780
 21
14.581647
 31
0.0
  0
LINE
  5
3d8
100
AcDbEntity
  8
Ebene_1
 62
7
100
AcDbLine
 10
92.453780
 20
14.581647
 30
0.0
 11
92.442971
 21
16.770658
 31
0.0
  0
LINE
  5
3d9
100
AcDbEntity
  8
Ebene_1
 62
7
100
AcDbLine
 10
92.442971
 20
16.770658
 30
0.0
 11
91.996687
 21
18.890133
 31
0.0
  0
LINE
  5
3da
100
AcDbEntity
  8
Ebene_1
 62
7
100
AcDbLine
 10
91.996687
 20
18.890133
 30
0.0
 11
91.109843
 21
20.847389
 31
0.0
  0
LINE
  5
3db
100
AcDbEntity
  8
Ebene_1
 62
7
100
AcDbLine
 10
91.109843
 20
20.847389
 30
0.0
 11
91.306259
 21
21.824045
 31
0.0
  0
LINE
  5
3dc
100
AcDbEntity
  8
Ebene_1
 62
7
100
AcDbLine
 10
91.306259
 20
21.824045
 30
0.0
 11
91.619435
 21
22.799306
 31
0.0
  0
LINE
  5
3dd
100
AcDbEntity
  8
Ebene_1
 62
7
100
AcDbLine
 10
91.619435
 20
22.799306
 30
0.0
 11
92.022632
 21
23.762841
 31
0.0
  0
LINE
  5
3de
100
AcDbEntity
  8
Ebene_1
 62
7
100
AcDbLine
 10
92.022632
 20
23.762841
 30
0.0
 11
92.479369
 21
24.687525
 31
0.0
  0
LINE
  5
3df
100
AcDbEntity
  8
Ebene_1
 62
7
100
AcDbLine
 10
92.479369
 20
24.687525
 30
0.0
 11
92.479369
 21
24.689783
 31
0.0
  0
LINE
  5
3e0
100
AcDbEntity
  8
Ebene_1
 62
7
100
AcDbLine
 10
92.479369
 20
24.689783
 30
0.0
 11
92.479369
 21
24.692041
 31
0.0
  0
LINE
  5
3e1
100
AcDbEntity
  8
Ebene_1
 62
7
100
AcDbLine
 10
92.479369
 20
24.692041
 30
0.0
 11
92.481627
 21
24.696613
 31
0.0
  0
LINE
  5
3e2
100
AcDbEntity
  8
Ebene_1
 62
7
100
AcDbLine
 10
92.481627
 20
24.696613
 30
0.0
 11
92.483885
 21
24.701156
 31
0.0
  0
LINE
  5
3e3
100
AcDbEntity
  8
Ebene_1
 62
7
100
AcDbLine
 10
92.483885
 20
24.701156
 30
0.0
 11
93.042143
 21
25.650174
 31
0.0
  0
LINE
  5
3e4
100
AcDbEntity
  8
Ebene_1
 62
7
100
AcDbLine
 10
93.042143
 20
25.650174
 30
0.0
 11
93.844312
 21
26.416480
 31
0.0
  0
LINE
  5
3e5
100
AcDbEntity
  8
Ebene_1
 62
7
100
AcDbLine
 10
93.844312
 20
26.416480
 30
0.0
 11
94.600382
 21
27.225465
 31
0.0
  0
LINE
  5
3e6
100
AcDbEntity
  8
Ebene_1
 62
7
100
AcDbLine
 10
94.600382
 20
27.225465
 30
0.0
 11
94.999989
 21
28.304700
 31
0.0
  0
LINE
  5
3e7
100
AcDbEntity
  8
Ebene_1
 62
7
100
AcDbLine
 10
94.999989
 20
28.304700
 30
0.0
 11
94.999989
 21
28.309243
 31
0.0
  0
LINE
  5
3e8
100
AcDbEntity
  8
Ebene_1
 62
7
100
AcDbLine
 10
94.999989
 20
28.309243
 30
0.0
 11
94.999989
 21
28.313815
 31
0.0
  0
LINE
  5
3e9
100
AcDbEntity
  8
Ebene_1
 62
7
100
AcDbLine
 10
94.999989
 20
28.313815
 30
0.0
 11
95.068357
 21
30.015406
 31
0.0
  0
LINE
  5
3ea
100
AcDbEntity
  8
Ebene_1
 62
7
100
AcDbLine
 10
95.068357
 20
30.015406
 30
0.0
 11
94.622347
 21
31.744461
 31
0.0
  0
LINE
  5
3eb
100
AcDbEntity
  8
Ebene_1
 62
7
100
AcDbLine
 10
94.622347
 20
31.744461
 30
0.0
 11
94.184302
 21
32.477203
 31
0.0
  0
LINE
  5
3ec
100
AcDbEntity
  8
Ebene_1
 62
7
100
AcDbLine
 10
94.184302
 20
32.477203
 30
0.0
 11
93.589513
 21
33.041187
 31
0.0
  0
LINE
  5
3ed
100
AcDbEntity
  8
Ebene_1
 62
7
100
AcDbLine
 10
93.589513
 20
33.041187
 30
0.0
 11
92.837597
 21
33.369313
 31
0.0
  0
LINE
  5
3ee
100
AcDbEntity
  8
Ebene_1
 62
7
100
AcDbLine
 10
92.837597
 20
33.369313
 30
0.0
 11
91.924241
 21
33.409733
 31
0.0
  0
LINE
  5
3ef
100
AcDbEntity
  8
Ebene_1
 62
7
100
AcDbLine
 10
91.924241
 20
33.409733
 30
0.0
 11
91.912867
 21
33.409944
 31
0.0
  0
LINE
  5
3f0
100
AcDbEntity
  8
Ebene_1
 62
7
100
AcDbLine
 10
91.912867
 20
33.409944
 30
0.0
 11
91.901494
 21
33.409733
 31
0.0
  0
LINE
  5
3f1
100
AcDbEntity
  8
Ebene_1
 62
7
100
AcDbLine
 10
91.901494
 20
33.409733
 30
0.0
 11
90.079470
 21
33.103967
 31
0.0
  0
LINE
  5
3f2
100
AcDbEntity
  8
Ebene_1
 62
7
100
AcDbLine
 10
90.079470
 20
33.103967
 30
0.0
 11
88.730194
 21
31.840007
 31
0.0
  0
LINE
  5
3f3
100
AcDbEntity
  8
Ebene_1
 62
7
100
AcDbLine
 10
88.730194
 20
31.840007
 30
0.0
 11
88.218711
 21
30.110908
 31
0.0
  0
LINE
  5
3f4
100
AcDbEntity
  8
Ebene_1
 62
7
100
AcDbLine
 10
88.218711
 20
30.110908
 30
0.0
 11
88.898542
 21
28.400263
 31
0.0
  0
LINE
  5
3f5
100
AcDbEntity
  8
Ebene_1
 62
7
100
AcDbLine
 10
88.898542
 20
28.400263
 30
0.0
 11
88.427000
 21
27.210318
 31
0.0
  0
LINE
  5
3f6
100
AcDbEntity
  8
Ebene_1
 62
7
100
AcDbLine
 10
88.427000
 20
27.210318
 30
0.0
 11
87.906661
 21
26.038853
 31
0.0
  0
LINE
  5
3f7
100
AcDbEntity
  8
Ebene_1
 62
7
100
AcDbLine
 10
87.906661
 20
26.038853
 30
0.0
 11
87.349430
 21
24.895043
 31
0.0
  0
LINE
  5
3f8
100
AcDbEntity
  8
Ebene_1
 62
7
100
AcDbLine
 10
87.349430
 20
24.895043
 30
0.0
 11
86.760079
 21
23.768443
 31
0.0
  0
LINE
  5
3f9
100
AcDbEntity
  8
Ebene_1
 62
7
100
AcDbLine
 10
86.760079
 20
23.768443
 30
0.0
 11
86.000983
 21
24.062132
 31
0.0
  0
LINE
  5
3fa
100
AcDbEntity
  8
Ebene_1
 62
7
100
AcDbLine
 10
86.000983
 20
24.062132
 30
0.0
 11
85.204002
 21
24.268930
 31
0.0
  0
LINE
  5
3fb
100
AcDbEntity
  8
Ebene_1
 62
7
100
AcDbLine
 10
85.204002
 20
24.268930
 30
0.0
 11
84.359252
 21
24.336805
 31
0.0
  0
LINE
  5
3fc
100
AcDbEntity
  8
Ebene_1
 62
7
100
AcDbLine
 10
84.359252
 20
24.336805
 30
0.0
 11
83.511431
 21
24.209785
 31
0.0
  0
LINE
  5
3fd
100
AcDbEntity
  8
Ebene_1
 62
7
100
AcDbLine
 10
83.511431
 20
24.209785
 30
0.0
 11
82.929308
 21
24.522944
 31
0.0
  0
LINE
  5
3fe
100
AcDbEntity
  8
Ebene_1
 62
7
100
AcDbLine
 10
82.929308
 20
24.522944
 30
0.0
 11
82.437648
 21
25.092469
 31
0.0
  0
LINE
  5
3ff
100
AcDbEntity
  8
Ebene_1
 62
7
100
AcDbLine
 10
82.437648
 20
25.092469
 30
0.0
 11
81.986663
 21
25.778593
 31
0.0
  0
LINE
  5
400
100
AcDbEntity
  8
Ebene_1
 62
7
100
AcDbLine
 10
81.986663
 20
25.778593
 30
0.0
 11
81.523116
 21
26.416497
 31
0.0
  0
LINE
  5
401
100
AcDbEntity
  8
Ebene_1
 62
7
100
AcDbLine
 10
81.523116
 20
26.416497
 30
0.0
 11
81.523116
 21
26.418755
 31
0.0
  0
LINE
  5
402
100
AcDbEntity
  8
Ebene_1
 62
7
100
AcDbLine
 10
81.523116
 20
26.418755
 30
0.0
 11
81.523116
 21
26.421013
 31
0.0
  0
LINE
  5
403
100
AcDbEntity
  8
Ebene_1
 62
7
100
AcDbLine
 10
81.523116
 20
26.421013
 30
0.0
 11
81.520858
 21
26.421013
 31
0.0
  0
LINE
  5
404
100
AcDbEntity
  8
Ebene_1
 62
7
100
AcDbLine
 10
81.520858
 20
26.421013
 30
0.0
 11
81.518600
 21
26.421013
 31
0.0
  0
LINE
  5
405
100
AcDbEntity
  8
Ebene_1
 62
7
100
AcDbLine
 10
81.518600
 20
26.421013
 30
0.0
 11
81.183473
 21
26.836317
 31
0.0
  0
LINE
  5
406
100
AcDbEntity
  8
Ebene_1
 62
7
100
AcDbLine
 10
81.183473
 20
26.836317
 30
0.0
 11
81.036308
 21
27.271851
 31
0.0
  0
LINE
  5
407
100
AcDbEntity
  8
Ebene_1
 62
7
100
AcDbLine
 10
81.036308
 20
27.271851
 30
0.0
 11
81.026063
 21
27.731128
 31
0.0
  0
LINE
  5
408
100
AcDbEntity
  8
Ebene_1
 62
7
100
AcDbLine
 10
81.026063
 20
27.731128
 30
0.0
 11
81.109096
 21
28.213686
 31
0.0
  0
LINE
  5
409
100
AcDbEntity
  8
Ebene_1
 62
7
100
AcDbLine
 10
81.109096
 20
28.213686
 30
0.0
 11
81.366875
 21
29.222839
 31
0.0
  0
LINE
  5
40a
100
AcDbEntity
  8
Ebene_1
 62
7
100
AcDbLine
 10
81.366875
 20
29.222839
 30
0.0
 11
81.418493
 21
30.265701
 31
0.0
  0
LINE
  5
40b
100
AcDbEntity
  8
Ebene_1
 62
7
100
AcDbLine
 10
81.418493
 20
30.265701
 30
0.0
 11
81.418493
 21
30.270273
 31
0.0
  0
LINE
  5
40c
100
AcDbEntity
  8
Ebene_1
 62
7
100
AcDbLine
 10
81.418493
 20
30.270273
 30
0.0
 11
81.418493
 21
30.274817
 31
0.0
  0
LINE
  5
40d
100
AcDbEntity
  8
Ebene_1
 62
7
100
AcDbLine
 10
81.418493
 20
30.274817
 30
0.0
 11
81.163378
 21
31.199374
 31
0.0
  0
LINE
  5
40e
100
AcDbEntity
  8
Ebene_1
 62
7
100
AcDbLine
 10
81.163378
 20
31.199374
 30
0.0
 11
80.626806
 21
31.890039
 31
0.0
  0
LINE
  5
40f
100
AcDbEntity
  8
Ebene_1
 62
7
100
AcDbLine
 10
80.626806
 20
31.890039
 30
0.0
 11
79.886035
 21
32.343257
 31
0.0
  0
LINE
  5
410
100
AcDbEntity
  8
Ebene_1
 62
7
100
AcDbLine
 10
79.886035
 20
32.343257
 30
0.0
 11
79.020682
 21
32.563430
 31
0.0
  0
LINE
  5
411
100
AcDbEntity
  8
Ebene_1
 62
7
100
AcDbLine
 10
79.020682
 20
32.563430
 30
0.0
 11
77.222021
 21
32.328836
 31
0.0
  0
LINE
  5
412
100
AcDbEntity
  8
Ebene_1
 62
7
100
AcDbLine
 10
77.222021
 20
32.328836
 30
0.0
 11
75.822086
 21
31.212102
 31
0.0
  0
LINE
  5
413
100
AcDbEntity
  8
Ebene_1
 62
7
100
AcDbLine
 10
75.822086
 20
31.212102
 30
0.0
 11
75.817486
 21
31.205272
 31
0.0
  0
LINE
  5
414
100
AcDbEntity
  8
Ebene_1
 62
7
100
AcDbLine
 10
75.817486
 20
31.205272
 30
0.0
 11
75.812970
 21
31.198471
 31
0.0
  0
LINE
  5
415
100
AcDbEntity
  8
Ebene_1
 62
7
100
AcDbLine
 10
75.812970
 20
31.198471
 30
0.0
 11
74.927797
 21
29.746897
 31
0.0
  0
LINE
  5
416
100
AcDbEntity
  8
Ebene_1
 62
7
100
AcDbLine
 10
74.927797
 20
29.746897
 30
0.0
 11
74.771034
 21
28.063572
 31
0.0
  0
LINE
  5
417
100
AcDbEntity
  8
Ebene_1
 62
7
100
AcDbLine
 10
74.771034
 20
28.063572
 30
0.0
 11
75.349812
 21
26.526900
 31
0.0
  0
LINE
  5
418
100
AcDbEntity
  8
Ebene_1
 62
7
100
AcDbLine
 10
75.349812
 20
26.526900
 30
0.0
 11
76.663802
 21
25.497415
 31
0.0
  0
LINE
  5
419
100
AcDbEntity
  8
Ebene_1
 62
7
100
AcDbLine
 10
76.663802
 20
25.497415
 30
0.0
 11
77.243284
 21
24.572844
 31
0.0
  0
LINE
  5
41a
100
AcDbEntity
  8
Ebene_1
 62
7
100
AcDbLine
 10
77.243284
 20
24.572844
 30
0.0
 11
77.801282
 21
23.609193
 31
0.0
  0
LINE
  5
41b
100
AcDbEntity
  8
Ebene_1
 62
7
100
AcDbLine
 10
77.801282
 20
23.609193
 30
0.0
 11
78.317791
 21
22.638561
 31
0.0
  0
LINE
  5
41c
100
AcDbEntity
  8
Ebene_1
 62
7
100
AcDbLine
 10
78.317791
 20
22.638561
 30
0.0
 11
78.793166
 21
21.657274
 31
0.0
  0
LINE
  5
41d
100
AcDbEntity
  8
Ebene_1
 62
7
100
AcDbLine
 10
78.793166
 20
21.657274
 30
0.0
 11
78.133178
 21
21.012831
 31
0.0
  0
LINE
  5
41e
100
AcDbEntity
  8
Ebene_1
 62
7
100
AcDbLine
 10
78.133178
 20
21.012831
 30
0.0
 11
77.500989
 21
20.342350
 31
0.0
  0
LINE
  5
41f
100
AcDbEntity
  8
Ebene_1
 62
7
100
AcDbLine
 10
77.500989
 20
20.342350
 30
0.0
 11
76.914647
 21
19.674197
 31
0.0
  0
LINE
  5
420
100
AcDbEntity
  8
Ebene_1
 62
7
100
AcDbLine
 10
76.914647
 20
19.674197
 30
0.0
 11
76.349858
 21
18.991039
 31
0.0
  0
LINE
  5
421
100
AcDbEntity
  8
Ebene_1
 62
7
100
AcDbLine
 10
76.349858
 20
18.991039
 30
0.0
 11
75.687830
 21
20.142082
 31
0.0
  0
LINE
  5
422
100
AcDbEntity
  8
Ebene_1
 62
7
100
AcDbLine
 10
75.687830
 20
20.142082
 30
0.0
 11
74.720985
 21
21.070336
 31
0.0
  0
LINE
  5
423
100
AcDbEntity
  8
Ebene_1
 62
7
100
AcDbLine
 10
74.720985
 20
21.070336
 30
0.0
 11
73.522985
 21
21.850602
 31
0.0
  0
LINE
  5
424
100
AcDbEntity
  8
Ebene_1
 62
7
100
AcDbLine
 10
73.522985
 20
21.850602
 30
0.0
 11
72.286776
 21
22.494464
 31
0.0
  0
LINE
  5
425
100
AcDbEntity
  8
Ebene_1
 62
7
100
AcDbLine
 10
72.286776
 20
22.494464
 30
0.0
 11
72.284518
 21
22.494464
 31
0.0
  0
LINE
  5
426
100
AcDbEntity
  8
Ebene_1
 62
7
100
AcDbLine
 10
72.284518
 20
22.494464
 30
0.0
 11
72.282260
 21
22.494464
 31
0.0
  0
LINE
  5
427
100
AcDbEntity
  8
Ebene_1
 62
7
100
AcDbLine
 10
72.282260
 20
22.494464
 30
0.0
 11
71.403711
 21
22.707677
 31
0.0
  0
LINE
  5
428
100
AcDbEntity
  8
Ebene_1
 62
7
100
AcDbLine
 10
71.403711
 20
22.707677
 30
0.0
 11
70.444090
 21
22.803858
 31
0.0
  0
LINE
  5
429
100
AcDbEntity
  8
Ebene_1
 62
7
100
AcDbLine
 10
70.444090
 20
22.803858
 30
0.0
 11
69.638521
 21
22.890608
 31
0.0
  0
LINE
  5
42a
100
AcDbEntity
  8
Ebene_1
 62
7
100
AcDbLine
 10
69.638521
 20
22.890608
 30
0.0
 11
69.056364
 21
23.049552
 31
0.0
  0
LINE
  5
42b
100
AcDbEntity
  8
Ebene_1
 62
7
100
AcDbLine
 10
69.056364
 20
23.049552
 30
0.0
 11
70.282792
 21
24.588188
 31
0.0
  0
LINE
  5
42c
100
AcDbEntity
  8
Ebene_1
 62
7
100
AcDbLine
 10
70.282792
 20
24.588188
 30
0.0
 11
71.272178
 21
26.284550
 31
0.0
  0
LINE
  5
42d
100
AcDbEntity
  8
Ebene_1
 62
7
100
AcDbLine
 10
71.272178
 20
26.284550
 30
0.0
 11
71.982390
 21
28.166826
 31
0.0
  0
LINE
  5
42e
100
AcDbEntity
  8
Ebene_1
 62
7
100
AcDbLine
 10
71.982390
 20
28.166826
 30
0.0
 11
72.327760
 21
30.165636
 31
0.0
  0
LINE
  5
42f
100
AcDbEntity
  8
Ebene_1
 62
7
100
AcDbLine
 10
72.327760
 20
30.165636
 30
0.0
 11
72.424977
 21
31.316668
 31
0.0
  0
LINE
  5
430
100
AcDbEntity
  8
Ebene_1
 62
7
100
AcDbLine
 10
72.424977
 20
31.316668
 30
0.0
 11
72.327760
 21
32.463351
 31
0.0
  0
LINE
  5
431
100
AcDbEntity
  8
Ebene_1
 62
7
100
AcDbLine
 10
72.327760
 20
32.463351
 30
0.0
 11
72.384187
 21
33.532274
 31
0.0
  0
LINE
  5
432
100
AcDbEntity
  8
Ebene_1
 62
7
100
AcDbLine
 10
72.384187
 20
33.532274
 30
0.0
 11
72.932901
 21
34.456215
 31
0.0
  0
LINE
  5
433
100
AcDbEntity
  8
Ebene_1
 62
7
100
AcDbLine
 10
72.932901
 20
34.456215
 30
0.0
 11
72.935159
 21
34.458473
 31
0.0
  0
LINE
  5
434
100
AcDbEntity
  8
Ebene_1
 62
7
100
AcDbLine
 10
72.935159
 20
34.458473
 30
0.0
 11
72.937416
 21
34.460731
 31
0.0
  0
LINE
  5
435
100
AcDbEntity
  8
Ebene_1
 62
7
100
AcDbLine
 10
72.937416
 20
34.460731
 30
0.0
 11
74.238901
 21
36.430814
 31
0.0
  0
LINE
  5
436
100
AcDbEntity
  8
Ebene_1
 62
7
100
AcDbLine
 10
74.238901
 20
36.430814
 30
0.0
 11
74.980333
 21
38.642113
 31
0.0
  0
LINE
  5
437
100
AcDbEntity
  8
Ebene_1
 62
7
100
AcDbLine
 10
74.980333
 20
38.642113
 30
0.0
 11
75.183360
 21
40.964570
 31
0.0
  0
LINE
  5
438
100
AcDbEntity
  8
Ebene_1
 62
7
100
AcDbLine
 10
75.183360
 20
40.964570
 30
0.0
 11
74.871135
 21
43.287584
 31
0.0
  0
LINE
  5
439
100
AcDbEntity
  8
Ebene_1
 62
7
100
AcDbLine
 10
74.871135
 20
43.287584
 30
0.0
 11
74.871135
 21
43.294414
 31
0.0
  0
LINE
  5
43a
100
AcDbEntity
  8
Ebene_1
 62
7
100
AcDbLine
 10
74.871135
 20
43.294414
 30
0.0
 11
74.871135
 21
43.301215
 31
0.0
  0
LINE
  5
43b
100
AcDbEntity
  8
Ebene_1
 62
7
100
AcDbLine
 10
74.871135
 20
43.301215
 30
0.0
 11
74.640348
 21
44.250941
 31
0.0
  0
LINE
  5
43c
100
AcDbEntity
  8
Ebene_1
 62
7
100
AcDbLine
 10
74.640348
 20
44.250941
 30
0.0
 11
74.225047
 21
45.139388
 31
0.0
  0
LINE
  5
43d
100
AcDbEntity
  8
Ebene_1
 62
7
100
AcDbLine
 10
74.225047
 20
45.139388
 30
0.0
 11
73.843002
 21
45.997778
 31
0.0
  0
LINE
  5
43e
100
AcDbEntity
  8
Ebene_1
 62
7
100
AcDbLine
 10
73.843002
 20
45.997778
 30
0.0
 11
73.701801
 21
46.850157
 31
0.0
  0
LINE
  5
43f
100
AcDbEntity
  8
Ebene_1
 62
7
100
AcDbLine
 10
73.701801
 20
46.850157
 30
0.0
 11
73.701801
 21
46.852415
 31
0.0
  0
LINE
  5
440
100
AcDbEntity
  8
Ebene_1
 62
7
100
AcDbLine
 10
73.701801
 20
46.852415
 30
0.0
 11
73.701801
 21
46.854672
 31
0.0
  0
LINE
  5
441
100
AcDbEntity
  8
Ebene_1
 62
7
100
AcDbLine
 10
73.701801
 20
46.854672
 30
0.0
 11
74.232782
 21
49.011711
 31
0.0
  0
LINE
  5
442
100
AcDbEntity
  8
Ebene_1
 62
7
100
AcDbLine
 10
74.232782
 20
49.011711
 30
0.0
 11
74.275096
 21
51.222600
 31
0.0
  0
LINE
  5
443
100
AcDbEntity
  8
Ebene_1
 62
7
100
AcDbLine
 10
74.275096
 20
51.222600
 30
0.0
 11
73.801169
 21
53.382647
 31
0.0
  0
LINE
  5
444
100
AcDbEntity
  8
Ebene_1
 62
7
100
AcDbLine
 10
73.801169
 20
53.382647
 30
0.0
 11
72.782719
 21
55.363029
 31
0.0
  0
LINE
  5
445
100
AcDbEntity
  8
Ebene_1
 62
7
100
AcDbLine
 10
72.782719
 20
55.363029
 30
0.0
 11
72.778175
 21
55.369830
 31
0.0
  0
LINE
  5
446
100
AcDbEntity
  8
Ebene_1
 62
7
100
AcDbLine
 10
72.778175
 20
55.369830
 30
0.0
 11
72.773631
 21
55.376660
 31
0.0
  0
LINE
  5
447
100
AcDbEntity
  8
Ebene_1
 62
7
100
AcDbLine
 10
72.773631
 20
55.376660
 30
0.0
 11
72.766802
 21
55.381204
 31
0.0
  0
LINE
  5
448
100
AcDbEntity
  8
Ebene_1
 62
7
100
AcDbLine
 10
72.766802
 20
55.381204
 30
0.0
 11
72.759972
 21
55.385776
 31
0.0
  0
LINE
  5
449
100
AcDbEntity
  8
Ebene_1
 62
7
100
AcDbLine
 10
72.759972
 20
55.385776
 30
0.0
 11
72.126812
 21
56.012874
 31
0.0
  0
LINE
  5
44a
100
AcDbEntity
  8
Ebene_1
 62
7
100
AcDbLine
 10
72.126812
 20
56.012874
 30
0.0
 11
71.581542
 21
56.796252
 31
0.0
  0
LINE
  5
44b
100
AcDbEntity
  8
Ebene_1
 62
7
100
AcDbLine
 10
71.581542
 20
56.796252
 30
0.0
 11
71.290943
 21
57.157093
 31
0.0
  0
LINE
  5
44c
100
AcDbEntity
  8
Ebene_1
 62
7
100
AcDbLine
 10
71.290943
 20
57.157093
 30
0.0
 11
70.958203
 21
57.446890
 31
0.0
  0
LINE
  5
44d
100
AcDbEntity
  8
Ebene_1
 62
7
100
AcDbLine
 10
70.958203
 20
57.446890
 30
0.0
 11
70.591227
 21
57.607751
 31
0.0
  0
LINE
  5
44e
100
AcDbEntity
  8
Ebene_1
 62
7
100
AcDbLine
 10
70.591227
 20
57.607751
 30
0.0
 11
70.157417
 21
57.637988
 31
0.0
  0
LINE
  5
44f
100
AcDbEntity
  8
Ebene_1
 62
7
100
AcDbLine
 10
70.157417
 20
57.637988
 30
0.0
 11
69.805049
 21
59.635820
 31
0.0
  0
LINE
  5
450
100
AcDbEntity
  8
Ebene_1
 62
7
100
AcDbLine
 10
69.805049
 20
59.635820
 30
0.0
 11
69.106385
 21
61.532723
 31
0.0
  0
LINE
  5
451
100
AcDbEntity
  8
Ebene_1
 62
7
100
AcDbLine
 10
69.106385
 20
61.532723
 30
0.0
 11
68.088966
 21
63.318907
 31
0.0
  0
LINE
  5
452
100
AcDbEntity
  8
Ebene_1
 62
7
100
AcDbLine
 10
68.088966
 20
63.318907
 30
0.0
 11
66.813222
 21
64.931516
 31
0.0
  0
LINE
  5
453
100
AcDbEntity
  8
Ebene_1
 62
7
100
AcDbLine
 10
66.813222
 20
64.931516
 30
0.0
 11
66.815480
 21
64.931516
 31
0.0
  0
LINE
  5
454
100
AcDbEntity
  8
Ebene_1
 62
7
100
AcDbLine
 10
66.815480
 20
64.931516
 30
0.0
 11
66.817738
 21
64.931516
 31
0.0
  0
LINE
  5
455
100
AcDbEntity
  8
Ebene_1
 62
7
100
AcDbLine
 10
66.817738
 20
64.931516
 30
0.0
 11
65.873617
 21
65.759201
 31
0.0
  0
LINE
  5
456
100
AcDbEntity
  8
Ebene_1
 62
7
100
AcDbLine
 10
65.873617
 20
65.759201
 30
0.0
 11
64.761168
 21
66.273743
 31
0.0
  0
LINE
  5
457
100
AcDbEntity
  8
Ebene_1
 62
7
100
AcDbLine
 10
64.761168
 20
66.273743
 30
0.0
 11
63.592864
 21
66.574055
 31
0.0
  0
LINE
  5
458
100
AcDbEntity
  8
Ebene_1
 62
7
100
AcDbLine
 10
63.592864
 20
66.574055
 30
0.0
 11
62.431607
 21
66.760587
 31
0.0
  0
LINE
  5
459
100
AcDbEntity
  8
Ebene_1
 62
7
100
AcDbLine
 10
62.431607
 20
66.760587
 30
0.0
 11
61.980968
 21
67.974992
 31
0.0
  0
LINE
  5
45a
100
AcDbEntity
  8
Ebene_1
 62
7
100
AcDbLine
 10
61.980968
 20
67.974992
 30
0.0
 11
61.330528
 21
69.081050
 31
0.0
  0
LINE
  5
45b
100
AcDbEntity
  8
Ebene_1
 62
7
100
AcDbLine
 10
61.330528
 20
69.081050
 30
0.0
 11
60.481657
 21
70.070888
 31
0.0
  0
LINE
  5
45c
100
AcDbEntity
  8
Ebene_1
 62
7
100
AcDbLine
 10
60.481657
 20
70.070888
 30
0.0
 11
59.465059
 21
70.905571
 31
0.0
  0
LINE
  5
45d
100
AcDbEntity
  8
Ebene_1
 62
7
100
AcDbLine
 10
59.465059
 20
70.905571
 30
0.0
 11
59.460628
 21
70.907829
 31
0.0
  0
LINE
  5
45e
100
AcDbEntity
  8
Ebene_1
 62
7
100
AcDbLine
 10
59.460628
 20
70.907829
 30
0.0
 11
59.455943
 21
70.910087
 31
0.0
  0
LINE
  5
45f
100
AcDbEntity
  8
Ebene_1
 62
7
100
AcDbLine
 10
59.455943
 20
70.910087
 30
0.0
 11
57.617491
 21
71.989643
 31
0.0
  0
LINE
  5
460
100
AcDbEntity
  8
Ebene_1
 62
7
100
AcDbLine
 10
57.617491
 20
71.989643
 30
0.0
 11
55.538459
 21
72.338766
 31
0.0
  0
LINE
  5
461
100
AcDbEntity
  8
Ebene_1
 62
7
100
AcDbLine
 10
55.538459
 20
72.338766
 30
0.0
 11
53.457854
 21
72.052059
 31
0.0
  0
LINE
  5
462
100
AcDbEntity
  8
Ebene_1
 62
7
100
AcDbLine
 10
53.457854
 20
72.052059
 30
0.0
 11
51.543626
 21
71.224033
 31
0.0
  0
LINE
  5
463
100
AcDbEntity
  8
Ebene_1
 62
7
100
AcDbLine
 10
51.543626
 20
71.224033
 30
0.0
 11
50.393485
 21
72.430872
 31
0.0
  0
LINE
  5
464
100
AcDbEntity
  8
Ebene_1
 62
7
100
AcDbLine
 10
50.393485
 20
72.430872
 30
0.0
 11
48.977466
 21
73.326098
 31
0.0
  0
LINE
  5
465
100
AcDbEntity
  8
Ebene_1
 62
7
100
AcDbLine
 10
48.977466
 20
73.326098
 30
0.0
 11
48.975209
 21
73.328356
 31
0.0
  0
LINE
  5
466
100
AcDbEntity
  8
Ebene_1
 62
7
100
AcDbLine
 10
48.975209
 20
73.328356
 30
0.0
 11
48.972951
 21
73.330614
 31
0.0
  0
LINE
  5
467
100
AcDbEntity
  8
Ebene_1
 62
7
100
AcDbLine
 10
48.972951
 20
73.330614
 30
0.0
 11
47.764007
 21
73.757195
 31
0.0
  0
LINE
  5
468
100
AcDbEntity
  8
Ebene_1
 62
7
100
AcDbLine
 10
47.764007
 20
73.757195
 30
0.0
 11
46.493242
 21
73.922100
 31
0.0
  0
LINE
  5
469
100
AcDbEntity
  8
Ebene_1
 62
7
100
AcDbLine
 10
46.493242
 20
73.922100
 30
0.0
 11
46.493273
 21
73.922383
 31
0.0
  0
LINE
  5
46a
100
AcDbEntity
  8
Ebene_1
 62
7
100
AcDbLine
 10
46.493273
 20
73.922383
 30
0.0
 11
46.493295
 21
73.923052
 31
0.0
  0
ENDSEC
  0
SECTION
  2
OBJECTS
  0
DICTIONARY
  5
C
330
0
100
AcDbDictionary
  3
ACAD_GROUP
350
D
  3
ACAD_MLINESTYLE
350
17
  0
DICTIONARY
  5
D
330
C
100
AcDbDictionary
  0
DICTIONARY
  5
1A
330
C
100
AcDbDictionary
  0
DICTIONARY
  5
17
330
C
100
AcDbDictionary
  3
STANDARD
350
18
  0
DICTIONARY
  5
19
330
C
100
AcDbDictionary
  0
ENDSEC
  0
EOF
