999
DXF created by Inkscape
  0
SECTION
  2
HEADER
  9
$ACADVER
  1
AC1014
  9
$HANDSEED
  5
FFFF
  9
$MEASUREMENT
 70
     1
  0
ENDSEC
  0
SECTION
  2
TABLES
  0
TABLE
  2
VPORT
  5
8
330
0
100
AcDbSymbolTable
 70
     4
  0
VPORT
  5
2E
330
8
100
AcDbSymbolTableRecord
100
AcDbViewportTableRecord
  2
*ACTIVE
 70
     0
 10
0.0
 20
0.0
 11
1.0
 21
1.0
 12
210.0
 22
148.5
 13
0.0
 23
0.0
 14
10.0
 24
10.0
 15
10.0
 25
10.0
 16
0.0
 26
0.0
 36
1.0
 17
0.0
 27
0.0
 37
0.0
 40
341.0
 41
1.24
 42
50.0
 43
0.0
 44
0.0
 50
0.0
 51
0.0
 71
     0
 72
   100
 73
     1
 74
     3
 75
     0
 76
     0
 77
     0
 78
     0
  0
ENDTAB
  0
TABLE
  2
LTYPE
  5
5
330
0
100
AcDbSymbolTable
 70
     1
  0
LTYPE
  5
14
330
5
100
AcDbSymbolTableRecord
100
AcDbLinetypeTableRecord
  2
BYBLOCK
 70
     0
  3

 72
    65
 73
     0
 40
0.0
  0
LTYPE
  5
15
330
5
100
AcDbSymbolTableRecord
100
AcDbLinetypeTableRecord
  2
BYLAYER
 70
     0
  3

 72
    65
 73
     0
 40
0.0
  0
LTYPE
  5
16
330
5
100
AcDbSymbolTableRecord
100
AcDbLinetypeTableRecord
  2
CONTINUOUS
 70
     0
  3
Solid line
 72
    65
 73
     0
 40
0.0
  0
ENDTAB
  0
TABLE
  2
LAYER
  5
2
330
0
100
AcDbSymbolTable
 70
1
  0
LAYER
  5
10
330
2
100
AcDbSymbolTableRecord
100
AcDbLayerTableRecord
  2
0
 70
     0
 62
     7
  6
CONTINUOUS
  0
ENDTAB
  0
TABLE
  2
STYLE
  5
3
330
0
100
AcDbSymbolTable
 70
     1
  0
STYLE
  5
11
330
3
100
AcDbSymbolTableRecord
100
AcDbTextStyleTableRecord
  2
STANDARD
 70
     0
 40
0.0
 41
1.0
 50
0.0
 71
     0
 42
2.5
  3
txt
  4

  0
ENDTAB
  0
TABLE
  2
VIEW
  5
6
330
0
100
AcDbSymbolTable
 70
     0
  0
ENDTAB
  0
TABLE
  2
UCS
  5
7
330
0
100
AcDbSymbolTable
 70
     0
  0
ENDTAB
  0
TABLE
  2
APPID
  5
9
330
0
100
AcDbSymbolTable
 70
     2
  0
APPID
  5
12
330
9
100
AcDbSymbolTableRecord
100
AcDbRegAppTableRecord
  2
ACAD
 70
     0
  0
ENDTAB
  0
TABLE
  2
DIMSTYLE
  5
A
330
0
100
AcDbSymbolTable
 70
     1
  0
DIMSTYLE
105
27
330
A
100
AcDbSymbolTableRecord
100
AcDbDimStyleTableRecord
  2
ISO-25
 70
     0
  3

  4

  5

  6

  7

 40
1.0
 41
2.5
 42
0.625
 43
3.75
 44
1.25
 45
0.0
 46
0.0
 47
0.0
 48
0.0
140
2.5
141
2.5
142
0.0
143
0.03937007874016
144
1.0
145
0.0
146
1.0
147
0.625
 71
     0
 72
     0
 73
     0
 74
     0
 75
     0
 76
     0
 77
     1
 78
     8
170
     0
171
     3
172
     1
173
     0
174
     0
175
     0
176
     0
177
     0
178
     0
270
     2
271
     2
272
     2
273
     2
274
     3
340
11
275
     0
280
     0
281
     0
282
     0
283
     0
284
     8
285
     0
286
     0
287
     3
288
     0
  0
ENDTAB
  0
TABLE
  2
BLOCK_RECORD
  5
1
330
0
100
AcDbSymbolTable
 70
     1
  0
BLOCK_RECORD
  5
1F
330
1
100
AcDbSymbolTableRecord
100
AcDbBlockTableRecord
  2
*MODEL_SPACE
  0
BLOCK_RECORD
  5
1B
330
1
100
AcDbSymbolTableRecord
100
AcDbBlockTableRecord
  2
*PAPER_SPACE
  0
ENDTAB
  0
ENDSEC
  0
SECTION
  2
BLOCKS
  0
BLOCK
  5
20
330
1F
100
AcDbEntity
  8
0
100
AcDbBlockBegin
  2
*MODEL_SPACE
 70
     0
 10
0.0
 20
0.0
 30
0.0
  3
*MODEL_SPACE
  1

  0
ENDBLK
  5
21
330
1F
100
AcDbEntity
  8
0
100
AcDbBlockEnd
  0
BLOCK
  5
1C
330
1B
100
AcDbEntity
 67
     1
  8
0
100
AcDbBlockBegin
  2
*PAPER_SPACE
  1

  0
ENDBLK
  5
1D
330
1B
100
AcDbEntity
 67
     1
  8
0
100
AcDbBlockEnd
  0
ENDSEC
  0
SECTION
  2
ENTITIES
  0
SPLINE
  5
100
100
AcDbEntity
  8
0
 62
7
100
AcDbSpline
 70
8
 71
3
 72
8
 73
4
 74
0
 40
0
 40
0
 40
0
 40
0
 40
1
 40
1
 40
1
 40
1
 10
85.857306
 20
140.490139
 30
0.0
 10
87.478636
 20
140.461389
 30
0.0
 10
89.077752
 20
140.060303
 30
0.0
 10
90.549250
 20
139.370069
 30
0.0
  0
LWPOLYLINE
  5
101
100
AcDbEntity
  8
0
 62
7
100
AcDbPolyline
 90
204
 70
0
 10
85.866111
 20
140.772361
 30
0.0
 10
84.199236
 20
140.666528
 30
0.0
 10
84.190431
 20
140.666528
 30
0.0
 10
84.172792
 20
140.666528
 30
0.0
 10
77.390639
 20
137.200486
 30
0.0
 10
71.957861
 20
131.935278
 30
0.0
 10
66.798486
 20
132.896597
 30
0.0
 10
61.471542
 20
131.882361
 30
0.0
 10
61.471542
 20
131.873556
 30
0.0
 10
61.462737
 20
131.873556
 30
0.0
 10
53.551695
 20
125.497097
 30
0.0
 10
49.935723
 20
115.822167
 30
0.0
 10
49.935723
 20
115.804528
 30
0.0
 10
49.935723
 20
115.778084
 30
0.0
 10
49.538848
 20
113.811348
 30
0.0
 10
48.163014
 20
112.382598
 30
0.0
 10
44.961556
 20
109.445723
 30
0.0
 10
44.943917
 20
109.419278
 30
0.0
 10
40.560653
 20
97.830528
 30
0.0
 10
43.665098
 20
85.783167
 30
0.0
 10
38.620375
 20
81.673306
 30
0.0
 10
35.092598
 20
76.090598
 30
0.0
 10
35.083792
 20
76.072959
 30
0.0
 10
33.231709
 20
67.606292
 30
0.0
 10
35.004417
 20
58.998515
 30
0.0
 10
35.013223
 20
58.989709
 30
0.0
 10
35.013223
 20
58.980904
 30
0.0
 10
35.154334
 20
58.390001
 30
0.0
 10
35.048500
 20
58.240071
 30
0.0
 10
34.633987
 20
58.257709
 30
0.0
 10
33.972528
 20
58.451737
 30
0.0
 10
32.376209
 20
59.007362
 30
0.0
 10
30.982737
 20
59.095557
 30
0.0
 10
30.947459
 20
59.086751
 30
0.0
 10
23.221625
 20
57.428696
 30
0.0
 10
16.121973
 20
53.900918
 30
0.0
 10
16.121973
 20
53.909723
 30
0.0
 10
9.031139
 20
46.695418
 30
0.0
 10
7.002667
 20
36.949932
 30
0.0
 10
7.002667
 20
36.932293
 30
0.0
 10
7.011487
 20
36.914654
 30
0.0
 10
6.764542
 20
32.628404
 30
0.0
 10
4.947737
 20
28.333334
 30
0.0
 10
4.947737
 20
28.324529
 30
0.0
 10
7.320167
 20
21.445362
 30
0.0
 10
10.565723
 20
19.813765
 30
0.0
 10
14.111139
 20
20.722168
 30
0.0
 10
17.912320
 20
19.363974
 30
0.0
 10
21.933987
 20
17.996960
 30
0.0
 10
21.942806
 20
17.996960
 30
0.0
 10
21.951625
 20
17.996960
 30
0.0
 10
23.450931
 20
17.617724
 30
0.0
 10
24.130028
 20
16.277168
 30
0.0
 10
25.505862
 20
13.049251
 30
0.0
 10
25.497042
 20
13.040502
 30
0.0
 10
33.302250
 20
10.394669
 30
0.0
 10
39.087806
 20
16.224308
 30
0.0
 10
43.374056
 20
16.330141
 30
0.0
 10
47.801417
 20
16.674099
 30
0.0
 10
49.530028
 20
13.878336
 30
0.0
 10
52.740306
 20
12.608336
 30
0.0
 10
52.740306
 20
12.617084
 30
0.0
 10
58.455306
 20
15.307001
 30
0.0
 10
59.637112
 20
21.674640
 30
0.0
 10
62.706278
 20
23.703112
 30
0.0
 10
65.255098
 20
26.445959
 30
0.0
 10
65.272737
 20
26.472403
 30
0.0
 10
67.856834
 20
30.247126
 30
0.0
 10
71.128848
 20
32.751848
 30
0.0
 10
71.155292
 20
32.760653
 30
0.0
 10
71.172931
 20
32.760653
 30
0.0
 10
75.071125
 20
37.293848
 30
0.0
 10
75.159320
 20
43.414542
 30
0.0
 10
75.150514
 20
43.414542
 30
0.0
 10
74.630167
 20
45.063778
 30
0.0
 10
73.316070
 20
46.086834
 30
0.0
 10
71.005375
 20
48.018292
 30
0.0
 10
70.996570
 20
48.018292
 30
0.0
 10
69.135667
 20
56.211556
 30
0.0
 10
68.094973
 20
64.501834
 30
0.0
 10
68.094973
 20
64.510639
 30
0.0
 10
70.511501
 20
76.540361
 30
0.0
 10
76.923237
 20
87.141334
 30
0.0
 10
76.932042
 20
87.150139
 30
0.0
 10
76.932042
 20
87.158944
 30
0.0
 10
88.123917
 20
93.747069
 30
0.0
 10
99.986070
 20
89.011028
 30
0.0
 10
103.513848
 20
78.630541
 30
0.0
 10
104.043014
 20
67.720889
 30
0.0
 10
104.043014
 20
67.712083
 30
0.0
 10
104.043014
 20
67.703278
 30
0.0
 10
101.159056
 20
53.600986
 30
0.0
 10
95.250028
 20
40.477653
 30
0.0
 10
89.314542
 20
36.006195
 30
0.0
 10
87.921070
 20
28.641959
 30
0.0
 10
89.834889
 20
25.431681
 30
0.0
 10
93.565514
 20
24.382167
 30
0.0
 10
94.817875
 20
21.471750
 30
0.0
 10
96.687598
 20
19.064042
 30
0.0
 10
96.378917
 20
12.096667
 30
0.0
 10
100.903292
 20
6.743250
 30
0.0
 10
107.094542
 20
7.290084
 30
0.0
 10
110.904542
 20
12.246611
 30
0.0
 10
114.661625
 20
11.576334
 30
0.0
 10
118.480445
 20
11.038333
 30
0.0
 10
120.694125
 20
6.231750
 30
0.0
 10
124.927459
 20
3.136111
 30
0.0
 10
129.725237
 20
4.802972
 30
0.0
 10
132.432806
 20
9.159806
 30
0.0
 10
135.828292
 20
9.371472
 30
0.0
 10
139.144403
 20
9.662500
 30
0.0
 10
140.855375
 20
5.702584
 30
0.0
 10
144.303778
 20
2.977361
 30
0.0
 10
144.321417
 20
2.968612
 30
0.0
 10
144.347861
 20
2.968612
 30
0.0
 10
148.404806
 20
3.912307
 30
0.0
 10
151.191750
 20
7.096112
 30
0.0
 10
151.218194
 20
7.131390
 30
0.0
 10
151.218194
 20
7.175501
 30
0.0
 10
152.461736
 20
9.592029
 30
0.0
 10
155.301597
 20
10.209390
 30
0.0
 10
155.795486
 20
7.378334
 30
0.0
 10
157.188958
 20
4.432668
 30
0.0
 10
157.197764
 20
4.423919
 30
0.0
 10
157.206569
 20
4.423919
 30
0.0
 10
164.976500
 20
4.997197
 30
0.0
 10
167.525319
 20
12.317308
 30
0.0
 10
171.282402
 20
16.577128
 30
0.0
 10
174.139902
 20
21.613031
 30
0.0
 10
174.139902
 20
21.621836
 30
0.0
 10
174.933652
 20
29.991489
 30
0.0
 10
172.349555
 20
37.893711
 30
0.0
 10
173.337333
 20
41.677253
 30
0.0
 10
175.004208
 20
45.337322
 30
0.0
 10
175.004208
 20
45.346127
 30
0.0
 10
175.013013
 20
45.363766
 30
0.0
 10
177.650027
 20
48.688697
 30
0.0
 10
179.890166
 20
52.348766
 30
0.0
 10
179.890166
 20
52.366405
 30
0.0
 10
179.158152
 20
59.016266
 30
0.0
 10
177.156138
 20
61.529808
 30
0.0
 10
173.928222
 20
62.244183
 30
0.0
 10
173.884124
 20
62.244183
 30
0.0
 10
167.736972
 20
59.201475
 30
0.0
 10
168.063291
 20
52.533975
 30
0.0
 10
166.140652
 20
47.956683
 30
0.0
 10
163.918152
 20
43.555780
 30
0.0
 10
160.901902
 20
44.525919
 30
0.0
 10
157.621069
 20
44.411266
 30
0.0
 10
155.539680
 20
46.122239
 30
0.0
 10
153.766972
 20
48.688697
 30
0.0
 10
153.766972
 20
48.697502
 30
0.0
 10
153.758166
 20
48.697502
 30
0.0
 10
152.823305
 20
50.346738
 30
0.0
 10
152.964416
 20
52.172363
 30
0.0
 10
153.564138
 20
56.149933
 30
0.0
 10
153.564138
 20
56.167572
 30
0.0
 10
152.029555
 20
59.298474
 30
0.0
 10
148.916291
 20
60.603752
 30
0.0
 10
142.716222
 20
57.984377
 30
0.0
 10
142.698583
 20
57.957933
 30
0.0
 10
140.678930
 20
51.881336
 30
0.0
 10
144.347819
 20
46.907169
 30
0.0
 10
146.552680
 20
43.247100
 30
0.0
 10
148.475319
 20
39.463558
 30
0.0
 10
145.970597
 20
36.914739
 30
0.0
 10
143.739277
 20
34.295364
 30
0.0
 10
140.581916
 20
38.325850
 30
0.0
 10
135.863513
 20
41.086336
 30
0.0
 10
135.854708
 20
41.086336
 30
0.0
 10
132.291653
 20
41.686058
 30
0.0
 10
129.601722
 20
42.162308
 30
0.0
 10
133.896791
 20
48.432933
 30
0.0
 10
135.942903
 20
55.955919
 30
0.0
 10
135.942903
 20
60.409739
 30
0.0
 10
137.115889
 20
64.272655
 30
0.0
 10
137.124694
 20
64.281461
 30
0.0
 10
141.084625
 20
72.386530
 30
0.0
 10
140.872958
 20
81.391183
 30
0.0
 10
140.872958
 20
81.417627
 30
0.0
 10
139.620597
 20
84.980683
 30
0.0
 10
138.606361
 20
88.296794
 30
0.0
 10
138.606361
 20
88.305599
 30
0.0
 10
139.717611
 20
96.772266
 30
0.0
 10
136.824833
 20
104.797960
 30
0.0
 10
136.807194
 20
104.824404
 30
0.0
 10
136.780750
 20
104.842043
 30
0.0
 10
134.496514
 20
107.576071
 30
0.0
 10
133.288250
 20
108.837252
 30
0.0
 10
131.736028
 20
109.207668
 30
0.0
 10
129.698736
 20
116.757113
 30
0.0
 10
125.253736
 20
123.345238
 30
0.0
 10
125.262541
 20
123.345238
 30
0.0
 10
121.276152
 20
125.946974
 30
0.0
 10
116.760597
 20
126.890654
 30
0.0
 10
114.626291
 20
131.388571
 30
0.0
 10
111.010319
 20
134.925168
 30
0.0
 10
110.992680
 20
134.933974
 30
0.0
 10
103.399138
 20
137.703279
 30
0.0
 10
95.655666
 20
135.542515
 30
0.0
 10
90.681500
 20
139.617099
 30
0.0
 10
90.672694
 20
139.625904
 30
0.0
 10
85.866097
 20
140.772432
 30
0.0
 10
85.866111
 20
140.772361
 30
0.0
  0
SPLINE
  5
102
100
AcDbEntity
  8
0
 62
7
100
AcDbSpline
 70
8
 71
3
 72
8
 73
4
 74
0
 40
0
 40
0
 40
0
 40
0
 40
1
 40
1
 40
1
 40
1
 10
90.558056
 20
139.370069
 30
0.0
 10
92.517189
 20
138.449636
 30
0.0
 10
94.252982
 20
137.014273
 30
0.0
 10
95.505764
 20
135.277847
 30
0.0
  0
LWPOLYLINE
  5
103
100
AcDbEntity
  8
0
 62
7
100
AcDbPolyline
 90
2
 70
0
 10
90.549250
 20
139.370069
 30
0.0
 10
90.558056
 20
139.370069
 30
0.0
  0
SPLINE
  5
104
100
AcDbEntity
  8
0
 62
7
100
AcDbSpline
 70
8
 71
3
 72
8
 73
4
 74
0
 40
0
 40
0
 40
0
 40
0
 40
1
 40
1
 40
1
 40
1
 10
95.690972
 20
135.242569
 30
0.0
 10
97.949828
 20
136.639493
 30
0.0
 10
100.698766
 20
137.436269
 30
0.0
 10
103.399167
 20
137.420972
 30
0.0
  0
SPLINE
  5
105
100
AcDbEntity
  8
0
 62
7
100
AcDbSpline
 70
8
 71
3
 72
8
 73
4
 74
0
 40
0
 40
0
 40
0
 40
0
 40
1
 40
1
 40
1
 40
1
 10
103.399167
 20
137.420972
 30
0.0
 10
106.099568
 20
137.405676
 30
0.0
 10
108.751683
 20
136.574156
 30
0.0
 10
110.825139
 20
134.713403
 30
0.0
  0
LWPOLYLINE
  5
106
100
AcDbEntity
  8
0
 62
7
100
AcDbPolyline
 90
3
 70
0
 10
95.505764
 20
135.277847
 30
0.0
 10
95.576319
 20
135.172014
 30
0.0
 10
95.690972
 20
135.242569
 30
0.0
  0
SPLINE
  5
107
100
AcDbEntity
  8
0
 62
7
100
AcDbSpline
 70
8
 71
3
 72
8
 73
4
 74
0
 40
0
 40
0
 40
0
 40
0
 40
1
 40
1
 40
1
 40
1
 10
110.833944
 20
134.704597
 30
0.0
 10
112.227244
 20
133.750912
 30
0.0
 10
113.432658
 20
132.570210
 30
0.0
 10
114.397000
 20
131.220917
 30
0.0
  0
SPLINE
  5
108
100
AcDbEntity
  8
0
 62
7
100
AcDbSpline
 70
8
 71
3
 72
8
 73
4
 74
0
 40
0
 40
0
 40
0
 40
0
 40
1
 40
1
 40
1
 40
1
 10
114.397000
 20
131.220917
 30
0.0
 10
115.361339
 20
129.871624
 30
0.0
 10
116.086501
 20
128.356686
 30
0.0
 10
116.522486
 20
126.723000
 30
0.0
  0
LWPOLYLINE
  5
109
100
AcDbEntity
  8
0
 62
7
100
AcDbPolyline
 90
3
 70
0
 10
110.825139
 20
134.713403
 30
0.0
 10
110.833944
 20
134.713403
 30
0.0
 10
110.833944
 20
134.704597
 30
0.0
  0
SPLINE
  5
10a
100
AcDbEntity
  8
0
 62
7
100
AcDbSpline
 70
8
 71
3
 72
8
 73
4
 74
0
 40
0
 40
0
 40
0
 40
0
 40
1
 40
1
 40
1
 40
1
 10
116.637125
 20
126.617181
 30
0.0
 10
118.119460
 20
126.410287
 30
0.0
 10
119.715029
 20
126.178345
 30
0.0
 10
121.187958
 20
125.682320
 30
0.0
  0
SPLINE
  5
10b
100
AcDbEntity
  8
0
 62
7
100
AcDbSpline
 70
8
 71
3
 72
8
 73
4
 74
0
 40
0
 40
0
 40
0
 40
0
 40
1
 40
1
 40
1
 40
1
 10
121.187958
 20
125.682320
 30
0.0
 10
122.660884
 20
125.186297
 30
0.0
 10
124.012788
 20
124.425201
 30
0.0
 10
125.042055
 20
123.159959
 30
0.0
  0
LWPOLYLINE
  5
10c
100
AcDbEntity
  8
0
 62
7
100
AcDbPolyline
 90
3
 70
0
 10
116.522486
 20
126.723000
 30
0.0
 10
116.548930
 20
126.625986
 30
0.0
 10
116.637125
 20
126.617181
 30
0.0
  0
SPLINE
  5
10d
100
AcDbEntity
  8
0
 62
7
100
AcDbSpline
 70
8
 71
3
 72
8
 73
4
 74
0
 40
0
 40
0
 40
0
 40
0
 40
1
 40
1
 40
1
 40
1
 10
125.050860
 20
123.159959
 30
0.0
 10
126.826521
 20
121.221665
 30
0.0
 10
128.329809
 20
119.012365
 30
0.0
 10
129.442944
 20
116.633570
 30
0.0
  0
SPLINE
  5
10e
100
AcDbEntity
  8
0
 62
7
100
AcDbSpline
 70
8
 71
3
 72
8
 73
4
 74
0
 40
0
 40
0
 40
0
 40
0
 40
1
 40
1
 40
1
 40
1
 10
129.442944
 20
116.633570
 30
0.0
 10
130.556082
 20
114.254775
 30
0.0
 10
131.273437
 20
111.703740
 30
0.0
 10
131.471416
 20
109.066487
 30
0.0
  0
LWPOLYLINE
  5
10f
100
AcDbEntity
  8
0
 62
7
100
AcDbPolyline
 90
2
 70
0
 10
125.042055
 20
123.159959
 30
0.0
 10
125.050860
 20
123.159959
 30
0.0
  0
SPLINE
  5
110
100
AcDbEntity
  8
0
 62
7
100
AcDbSpline
 70
8
 71
3
 72
8
 73
4
 74
0
 40
0
 40
0
 40
0
 40
0
 40
1
 40
1
 40
1
 40
1
 10
131.630166
 20
108.934195
 30
0.0
 10
132.237336
 20
109.017628
 30
0.0
 10
132.709807
 20
108.879289
 30
0.0
 10
133.129472
 20
108.599056
 30
0.0
  0
SPLINE
  5
111
100
AcDbEntity
  8
0
 62
7
100
AcDbSpline
 70
8
 71
3
 72
8
 73
4
 74
0
 40
0
 40
0
 40
0
 40
0
 40
1
 40
1
 40
1
 40
1
 10
133.129472
 20
108.599056
 30
0.0
 10
133.549136
 20
108.318823
 30
0.0
 10
133.917501
 20
107.892572
 30
0.0
 10
134.267180
 20
107.408431
 30
0.0
  0
SPLINE
  5
112
100
AcDbEntity
  8
0
 62
7
100
AcDbSpline
 70
8
 71
3
 72
8
 73
4
 74
0
 40
0
 40
0
 40
0
 40
0
 40
1
 40
1
 40
1
 40
1
 10
134.267180
 20
107.408431
 30
0.0
 10
134.956993
 20
106.453363
 30
0.0
 10
135.586645
 20
105.288225
 30
0.0
 10
136.595513
 20
104.639125
 30
0.0
  0
SPLINE
  5
113
100
AcDbEntity
  8
0
 62
7
100
AcDbSpline
 70
8
 71
3
 72
8
 73
4
 74
0
 40
0
 40
0
 40
0
 40
0
 40
1
 40
1
 40
1
 40
1
 10
136.595513
 20
104.639125
 30
0.0
 10
136.599013
 20
104.636868
 30
0.0
 10
136.600819
 20
104.632550
 30
0.0
 10
136.604319
 20
104.630320
 30
0.0
  0
SPLINE
  5
114
100
AcDbEntity
  8
0
 62
7
100
AcDbSpline
 70
8
 71
3
 72
8
 73
4
 74
0
 40
0
 40
0
 40
0
 40
0
 40
1
 40
1
 40
1
 40
1
 10
136.604319
 20
104.630320
 30
0.0
 10
138.249750
 20
102.282595
 30
0.0
 10
139.175795
 20
99.555420
 30
0.0
 10
139.444180
 20
96.745737
 30
0.0
  0
SPLINE
  5
115
100
AcDbEntity
  8
0
 62
7
100
AcDbSpline
 70
8
 71
3
 72
8
 73
4
 74
0
 40
0
 40
0
 40
0
 40
0
 40
1
 40
1
 40
1
 40
1
 10
139.444180
 20
96.745737
 30
0.0
 10
139.712948
 20
93.932057
 30
0.0
 10
139.321190
 20
91.034674
 30
0.0
 10
138.332930
 20
88.358445
 30
0.0
  0
LWPOLYLINE
  5
116
100
AcDbEntity
  8
0
 62
7
100
AcDbPolyline
 90
3
 70
0
 10
131.471416
 20
109.066487
 30
0.0
 10
131.489055
 20
108.916556
 30
0.0
 10
131.630166
 20
108.934195
 30
0.0
  0
SPLINE
  5
117
100
AcDbEntity
  8
0
 62
7
100
AcDbSpline
 70
8
 71
3
 72
8
 73
4
 74
0
 40
0
 40
0
 40
0
 40
0
 40
1
 40
1
 40
1
 40
1
 10
138.324124
 20
88.314362
 30
0.0
 10
138.256185
 20
87.106163
 30
0.0
 10
138.798859
 20
85.979176
 30
0.0
 10
139.364819
 20
84.848320
 30
0.0
  0
SPLINE
  5
118
100
AcDbEntity
  8
0
 62
7
100
AcDbSpline
 70
8
 71
3
 72
8
 73
4
 74
0
 40
0
 40
0
 40
0
 40
0
 40
1
 40
1
 40
1
 40
1
 10
139.364819
 20
84.848320
 30
0.0
 10
139.930779
 20
83.717470
 30
0.0
 10
140.518411
 20
82.582993
 30
0.0
 10
140.590722
 20
81.373459
 30
0.0
  0
LWPOLYLINE
  5
119
100
AcDbEntity
  8
0
 62
7
100
AcDbPolyline
 90
3
 70
0
 10
138.332930
 20
88.358445
 30
0.0
 10
138.324124
 20
88.340806
 30
0.0
 10
138.324124
 20
88.314362
 30
0.0
  0
SPLINE
  5
11a
100
AcDbEntity
  8
0
 62
7
100
AcDbSpline
 70
8
 71
3
 72
8
 73
4
 74
0
 40
0
 40
0
 40
0
 40
0
 40
1
 40
1
 40
1
 40
1
 10
140.599527
 20
81.347015
 30
0.0
 10
141.323102
 20
78.426975
 30
0.0
 10
141.408006
 20
75.354895
 30
0.0
 10
140.811194
 20
72.439376
 30
0.0
  0
SPLINE
  5
11b
100
AcDbEntity
  8
0
 62
7
100
AcDbSpline
 70
8
 71
3
 72
8
 73
4
 74
0
 40
0
 40
0
 40
0
 40
0
 40
1
 40
1
 40
1
 40
1
 10
140.811194
 20
72.439376
 30
0.0
 10
140.215199
 20
69.527839
 30
0.0
 10
138.935361
 20
66.778337
 30
0.0
 10
136.921819
 20
64.484237
 30
0.0
  0
SPLINE
  5
11c
100
AcDbEntity
  8
0
 62
7
100
AcDbSpline
 70
8
 71
3
 72
8
 73
4
 74
0
 40
0
 40
0
 40
0
 40
0
 40
1
 40
1
 40
1
 40
1
 10
136.921819
 20
64.484237
 30
0.0
 10
136.918996
 20
64.481105
 30
0.0
 10
136.915751
 20
64.478565
 30
0.0
 10
136.913013
 20
64.475432
 30
0.0
  0
SPLINE
  5
11d
100
AcDbEntity
  8
0
 62
7
100
AcDbSpline
 70
8
 71
3
 72
8
 73
4
 74
0
 40
0
 40
0
 40
0
 40
0
 40
1
 40
1
 40
1
 40
1
 10
136.913013
 20
64.475432
 30
0.0
 10
135.668289
 20
63.322540
 30
0.0
 10
135.560438
 20
61.868636
 30
0.0
 10
135.660652
 20
60.392029
 30
0.0
  0
SPLINE
  5
11e
100
AcDbEntity
  8
0
 62
7
100
AcDbSpline
 70
8
 71
3
 72
8
 73
4
 74
0
 40
0
 40
0
 40
0
 40
0
 40
1
 40
1
 40
1
 40
1
 10
135.660652
 20
60.392029
 30
0.0
 10
135.761129
 20
58.911531
 30
0.0
 10
136.060409
 20
57.387060
 30
0.0
 10
135.669457
 20
56.008765
 30
0.0
  0
LWPOLYLINE
  5
11f
100
AcDbEntity
  8
0
 62
7
100
AcDbPolyline
 90
3
 70
0
 10
140.590722
 20
81.373459
 30
0.0
 10
140.590722
 20
81.364654
 30
0.0
 10
140.599527
 20
81.347015
 30
0.0
  0
SPLINE
  5
120
100
AcDbEntity
  8
0
 62
7
100
AcDbSpline
 70
8
 71
3
 72
8
 73
4
 74
0
 40
0
 40
0
 40
0
 40
0
 40
1
 40
1
 40
1
 40
1
 10
135.660652
 20
55.973487
 30
0.0
 10
135.476782
 20
53.363759
 30
0.0
 10
134.756895
 20
50.866792
 30
0.0
 10
133.640999
 20
48.547515
 30
0.0
  0
SPLINE
  5
121
100
AcDbEntity
  8
0
 62
7
100
AcDbSpline
 70
8
 71
3
 72
8
 73
4
 74
0
 40
0
 40
0
 40
0
 40
0
 40
1
 40
1
 40
1
 40
1
 10
133.640999
 20
48.547515
 30
0.0
 10
132.525101
 20
46.228238
 30
0.0
 10
131.012551
 20
44.086138
 30
0.0
 10
129.257735
 20
42.188696
 30
0.0
  0
LWPOLYLINE
  5
122
100
AcDbEntity
  8
0
 62
7
100
AcDbPolyline
 90
3
 70
0
 10
135.669457
 20
56.008765
 30
0.0
 10
135.660652
 20
55.991126
 30
0.0
 10
135.660652
 20
55.973487
 30
0.0
  0
SPLINE
  5
123
100
AcDbEntity
  8
0
 62
7
100
AcDbSpline
 70
8
 71
3
 72
8
 73
4
 74
0
 40
0
 40
0
 40
0
 40
0
 40
1
 40
1
 40
1
 40
1
 10
129.284194
 20
41.977029
 30
0.0
 10
129.920701
 20
41.571208
 30
0.0
 10
131.043451
 20
41.500090
 30
0.0
 10
132.265166
 20
41.403765
 30
0.0
  0
SPLINE
  5
124
100
AcDbEntity
  8
0
 62
7
100
AcDbSpline
 70
8
 71
3
 72
8
 73
4
 74
0
 40
0
 40
0
 40
0
 40
0
 40
1
 40
1
 40
1
 40
1
 10
132.265166
 20
41.403765
 30
0.0
 10
133.483756
 20
41.307685
 30
0.0
 10
134.793877
 20
41.201313
 30
0.0
 10
135.740027
 20
40.830501
 30
0.0
  0
SPLINE
  5
125
100
AcDbEntity
  8
0
 62
7
100
AcDbSpline
 70
8
 71
3
 72
8
 73
4
 74
0
 40
0
 40
0
 40
0
 40
0
 40
1
 40
1
 40
1
 40
1
 10
135.740027
 20
40.830501
 30
0.0
 10
135.742567
 20
40.829655
 30
0.0
 10
135.746434
 20
40.831348
 30
0.0
 10
135.748832
 20
40.830501
 30
0.0
  0
SPLINE
  5
126
100
AcDbEntity
  8
0
 62
7
100
AcDbSpline
 70
8
 71
3
 72
8
 73
4
 74
0
 40
0
 40
0
 40
0
 40
0
 40
1
 40
1
 40
1
 40
1
 10
135.748832
 20
40.830501
 30
0.0
 10
137.300451
 20
40.064863
 30
0.0
 10
138.977466
 20
39.194058
 30
0.0
 10
140.405499
 20
38.096474
 30
0.0
  0
SPLINE
  5
127
100
AcDbEntity
  8
0
 62
7
100
AcDbSpline
 70
8
 71
3
 72
8
 73
4
 74
0
 40
0
 40
0
 40
0
 40
0
 40
1
 40
1
 40
1
 40
1
 10
140.405499
 20
38.096474
 30
0.0
 10
141.835615
 20
36.997286
 30
0.0
 10
143.008548
 20
35.673181
 30
0.0
 10
143.562860
 20
33.986612
 30
0.0
  0
LWPOLYLINE
  5
128
100
AcDbEntity
  8
0
 62
7
100
AcDbPolyline
 90
3
 70
0
 10
129.257735
 20
42.188696
 30
0.0
 10
129.143083
 20
42.065224
 30
0.0
 10
129.284194
 20
41.977029
 30
0.0
  0
SPLINE
  5
129
100
AcDbEntity
  8
0
 62
7
100
AcDbSpline
 70
8
 71
3
 72
8
 73
4
 74
0
 40
0
 40
0
 40
0
 40
0
 40
1
 40
1
 40
1
 40
1
 10
143.809805
 20
33.942515
 30
0.0
 10
144.568661
 20
34.890892
 30
0.0
 10
145.353193
 20
35.825810
 30
0.0
 10
146.173416
 20
36.729460
 30
0.0
  0
SPLINE
  5
12a
100
AcDbEntity
  8
0
 62
7
100
AcDbSpline
 70
8
 71
3
 72
8
 73
4
 74
0
 40
0
 40
0
 40
0
 40
0
 40
1
 40
1
 40
1
 40
1
 10
146.173416
 20
36.729460
 30
0.0
 10
146.993638
 20
37.633113
 30
0.0
 10
147.853897
 20
38.500672
 30
0.0
 10
148.748694
 20
39.331196
 30
0.0
  0
LWPOLYLINE
  5
12b
100
AcDbEntity
  8
0
 62
7
100
AcDbPolyline
 90
3
 70
0
 10
143.562860
 20
33.986612
 30
0.0
 10
143.651055
 20
33.739668
 30
0.0
 10
143.809805
 20
33.942515
 30
0.0
  0
SPLINE
  5
12c
100
AcDbEntity
  8
0
 62
7
100
AcDbSpline
 70
8
 71
3
 72
8
 73
4
 74
0
 40
0
 40
0
 40
0
 40
0
 40
1
 40
1
 40
1
 40
1
 10
148.775152
 20
39.498765
 30
0.0
 10
148.176886
 20
40.804156
 30
0.0
 10
147.509292
 20
42.112123
 30
0.0
 10
146.799596
 20
43.388140
 30
0.0
  0
SPLINE
  5
12d
100
AcDbEntity
  8
0
 62
7
100
AcDbSpline
 70
8
 71
3
 72
8
 73
4
 74
0
 40
0
 40
0
 40
0
 40
0
 40
1
 40
1
 40
1
 40
1
 10
146.799596
 20
43.388140
 30
0.0
 10
146.089903
 20
44.664157
 30
0.0
 10
145.343053
 20
45.909892
 30
0.0
 10
144.577096
 20
47.083487
 30
0.0
  0
LWPOLYLINE
  5
12e
100
AcDbEntity
  8
0
 62
7
100
AcDbPolyline
 90
3
 70
0
 10
148.748694
 20
39.331196
 30
0.0
 10
148.819249
 20
39.401751
 30
0.0
 10
148.775152
 20
39.498765
 30
0.0
  0
SPLINE
  5
12f
100
AcDbEntity
  8
0
 62
7
100
AcDbSpline
 70
8
 71
3
 72
8
 73
4
 74
0
 40
0
 40
0
 40
0
 40
0
 40
1
 40
1
 40
1
 40
1
 10
144.506555
 20
47.136404
 30
0.0
 10
142.400361
 20
47.923875
 30
0.0
 10
141.223913
 20
49.822189
 30
0.0
 10
140.961138
 20
51.916543
 30
0.0
  0
SPLINE
  5
130
100
AcDbEntity
  8
0
 62
7
100
AcDbSpline
 70
8
 71
3
 72
8
 73
4
 74
0
 40
0
 40
0
 40
0
 40
0
 40
1
 40
1
 40
1
 40
1
 10
140.961138
 20
51.916543
 30
0.0
 10
140.698364
 20
54.010894
 30
0.0
 10
141.356715
 20
56.284951
 30
0.0
 10
142.910235
 20
57.781474
 30
0.0
  0
LWPOLYLINE
  5
131
100
AcDbEntity
  8
0
 62
7
100
AcDbPolyline
 90
3
 70
0
 10
144.577096
 20
47.083487
 30
0.0
 10
144.550652
 20
47.118765
 30
0.0
 10
144.506555
 20
47.136404
 30
0.0
  0
SPLINE
  5
132
100
AcDbEntity
  8
0
 62
7
100
AcDbSpline
 70
8
 71
3
 72
8
 73
4
 74
0
 40
0
 40
0
 40
0
 40
0
 40
1
 40
1
 40
1
 40
1
 10
142.936680
 20
57.807918
 30
0.0
 10
144.151361
 20
59.718362
 30
0.0
 10
146.642068
 20
60.585876
 30
0.0
 10
148.880985
 20
60.321459
 30
0.0
  0
SPLINE
  5
133
100
AcDbEntity
  8
0
 62
7
100
AcDbSpline
 70
8
 71
3
 72
8
 73
4
 74
0
 40
0
 40
0
 40
0
 40
0
 40
1
 40
1
 40
1
 40
1
 10
148.880985
 20
60.321459
 30
0.0
 10
150.000442
 20
60.189250
 30
0.0
 10
151.050292
 20
59.773367
 30
0.0
 10
151.844319
 20
59.077918
 30
0.0
  0
SPLINE
  5
134
100
AcDbEntity
  8
0
 62
7
100
AcDbSpline
 70
8
 71
3
 72
8
 73
4
 74
0
 40
0
 40
0
 40
0
 40
0
 40
1
 40
1
 40
1
 40
1
 10
151.844319
 20
59.077918
 30
0.0
 10
152.638345
 20
58.382469
 30
0.0
 10
153.177206
 20
57.414568
 30
0.0
 10
153.281888
 20
56.132223
 30
0.0
  0
LWPOLYLINE
  5
135
100
AcDbEntity
  8
0
 62
7
100
AcDbPolyline
 90
3
 70
0
 10
142.910235
 20
57.781474
 30
0.0
 10
142.927874
 20
57.799112
 30
0.0
 10
142.936680
 20
57.807918
 30
0.0
  0
SPLINE
  5
136
100
AcDbEntity
  8
0
 62
7
100
AcDbSpline
 70
8
 71
3
 72
8
 73
4
 74
0
 40
0
 40
0
 40
0
 40
0
 40
1
 40
1
 40
1
 40
1
 10
153.290693
 20
56.114613
 30
0.0
 10
153.517354
 20
54.861600
 30
0.0
 10
152.985176
 20
53.537794
 30
0.0
 10
152.682152
 20
52.234057
 30
0.0
  0
SPLINE
  5
137
100
AcDbEntity
  8
0
 62
7
100
AcDbSpline
 70
8
 71
3
 72
8
 73
4
 74
0
 40
0
 40
0
 40
0
 40
0
 40
1
 40
1
 40
1
 40
1
 10
152.682152
 20
52.234057
 30
0.0
 10
152.530641
 20
51.582192
 30
0.0
 10
152.438684
 20
50.936199
 30
0.0
 10
152.541041
 20
50.302599
 30
0.0
  0
SPLINE
  5
138
100
AcDbEntity
  8
0
 62
7
100
AcDbSpline
 70
8
 71
3
 72
8
 73
4
 74
0
 40
0
 40
0
 40
0
 40
0
 40
1
 40
1
 40
1
 40
1
 10
152.541041
 20
50.302599
 30
0.0
 10
152.642522
 20
49.674400
 30
0.0
 10
152.954691
 20
49.069640
 30
0.0
 10
153.564096
 20
48.512252
 30
0.0
  0
LWPOLYLINE
  5
139
100
AcDbEntity
  8
0
 62
7
100
AcDbPolyline
 90
3
 70
0
 10
153.281888
 20
56.132223
 30
0.0
 10
153.281888
 20
56.123418
 30
0.0
 10
153.290693
 20
56.114613
 30
0.0
  0
SPLINE
  5
13a
100
AcDbEntity
  8
0
 62
7
100
AcDbSpline
 70
8
 71
3
 72
8
 73
4
 74
0
 40
0
 40
0
 40
0
 40
0
 40
1
 40
1
 40
1
 40
1
 10
153.555291
 20
48.503446
 30
0.0
 10
154.156932
 20
47.815634
 30
0.0
 10
154.695031
 20
46.823507
 30
0.0
 10
155.310360
 20
45.954627
 30
0.0
  0
SPLINE
  5
13b
100
AcDbEntity
  8
0
 62
7
100
AcDbSpline
 70
8
 71
3
 72
8
 73
4
 74
0
 40
0
 40
0
 40
0
 40
0
 40
1
 40
1
 40
1
 40
1
 10
155.310360
 20
45.954627
 30
0.0
 10
155.925689
 20
45.085746
 30
0.0
 10
156.629808
 20
44.326701
 30
0.0
 10
157.585777
 20
44.129002
 30
0.0
  0
LWPOLYLINE
  5
13c
100
AcDbEntity
  8
0
 62
7
100
AcDbPolyline
 90
2
 70
0
 10
153.564096
 20
48.512252
 30
0.0
 10
153.555291
 20
48.503446
 30
0.0
  0
SPLINE
  5
13d
100
AcDbEntity
  8
0
 62
7
100
AcDbSpline
 70
8
 71
3
 72
8
 73
4
 74
0
 40
0
 40
0
 40
0
 40
0
 40
1
 40
1
 40
1
 40
1
 10
157.656332
 20
44.129002
 30
0.0
 10
158.707861
 20
44.437902
 30
0.0
 10
159.785733
 20
44.433491
 30
0.0
 10
160.848971
 20
44.243655
 30
0.0
  0
SPLINE
  5
13e
100
AcDbEntity
  8
0
 62
7
100
AcDbSpline
 70
8
 71
3
 72
8
 73
4
 74
0
 40
0
 40
0
 40
0
 40
0
 40
1
 40
1
 40
1
 40
1
 10
160.848971
 20
44.243655
 30
0.0
 10
161.912207
 20
44.053821
 30
0.0
 10
162.952484
 20
43.684109
 30
0.0
 10
163.926957
 20
43.255877
 30
0.0
  0
LWPOLYLINE
  5
13f
100
AcDbEntity
  8
0
 62
7
100
AcDbPolyline
 90
3
 70
0
 10
157.585777
 20
44.129002
 30
0.0
 10
157.621055
 20
44.120196
 30
0.0
 10
157.656332
 20
44.129002
 30
0.0
  0
SPLINE
  5
140
100
AcDbEntity
  8
0
 62
7
100
AcDbSpline
 70
8
 71
3
 72
8
 73
4
 74
0
 40
0
 40
0
 40
0
 40
0
 40
1
 40
1
 40
1
 40
1
 10
164.112222
 20
43.317500
 30
0.0
 10
164.913962
 20
44.801312
 30
0.0
 10
165.680506
 20
46.309276
 30
0.0
 10
166.396458
 20
47.841875
 30
0.0
  0
SPLINE
  5
141
100
AcDbEntity
  8
0
 62
7
100
AcDbSpline
 70
8
 71
3
 72
8
 73
4
 74
0
 40
0
 40
0
 40
0
 40
0
 40
1
 40
1
 40
1
 40
1
 10
166.396458
 20
47.841875
 30
0.0
 10
167.112408
 20
49.374474
 30
0.0
 10
167.777868
 20
50.931641
 30
0.0
 10
168.363194
 20
52.516181
 30
0.0
  0
LWPOLYLINE
  5
142
100
AcDbEntity
  8
0
 62
7
100
AcDbPolyline
 90
3
 70
0
 10
163.926957
 20
43.255877
 30
0.0
 10
164.050430
 20
43.202960
 30
0.0
 10
164.112222
 20
43.317500
 30
0.0
  0
SPLINE
  5
143
100
AcDbEntity
  8
0
 62
7
100
AcDbSpline
 70
8
 71
3
 72
8
 73
4
 74
0
 40
0
 40
0
 40
0
 40
0
 40
1
 40
1
 40
1
 40
1
 10
168.336722
 20
52.657292
 30
0.0
 10
166.554187
 20
54.547198
 30
0.0
 10
166.737693
 20
57.079703
 30
0.0
 10
167.975125
 20
59.051389
 30
0.0
  0
SPLINE
  5
144
100
AcDbEntity
  8
0
 62
7
100
AcDbSpline
 70
8
 71
3
 72
8
 73
4
 74
0
 40
0
 40
0
 40
0
 40
0
 40
1
 40
1
 40
1
 40
1
 10
167.975125
 20
59.051389
 30
0.0
 10
169.212559
 20
61.023072
 30
0.0
 10
171.499132
 20
62.396809
 30
0.0
 10
173.884153
 20
61.961806
 30
0.0
  0
LWPOLYLINE
  5
145
100
AcDbEntity
  8
0
 62
7
100
AcDbPolyline
 90
3
 70
0
 10
168.363194
 20
52.516181
 30
0.0
 10
168.389639
 20
52.595556
 30
0.0
 10
168.336722
 20
52.657292
 30
0.0
  0
SPLINE
  5
146
100
AcDbEntity
  8
0
 62
7
100
AcDbSpline
 70
8
 71
3
 72
8
 73
4
 74
0
 40
0
 40
0
 40
0
 40
0
 40
1
 40
1
 40
1
 40
1
 10
173.928236
 20
61.961806
 30
0.0
 10
175.169909
 20
62.122819
 30
0.0
 10
176.176869
 20
61.848860
 30
0.0
 10
176.997402
 20
61.291528
 30
0.0
  0
SPLINE
  5
147
100
AcDbEntity
  8
0
 62
7
100
AcDbSpline
 70
8
 71
3
 72
8
 73
4
 74
0
 40
0
 40
0
 40
0
 40
0
 40
1
 40
1
 40
1
 40
1
 10
176.997402
 20
61.291528
 30
0.0
 10
177.817935
 20
60.734195
 30
0.0
 10
178.448524
 20
59.888231
 30
0.0
 10
178.902402
 20
58.892639
 30
0.0
  0
SPLINE
  5
148
100
AcDbEntity
  8
0
 62
7
100
AcDbSpline
 70
8
 71
3
 72
8
 73
4
 74
0
 40
0
 40
0
 40
0
 40
0
 40
1
 40
1
 40
1
 40
1
 10
178.902402
 20
58.892639
 30
0.0
 10
179.810159
 20
56.901457
 30
0.0
 10
180.000746
 20
54.323249
 30
0.0
 10
179.616777
 20
52.401528
 30
0.0
  0
LWPOLYLINE
  5
149
100
AcDbEntity
  8
0
 62
7
100
AcDbPolyline
 90
3
 70
0
 10
173.884153
 20
61.961806
 30
0.0
 10
173.901791
 20
61.961806
 30
0.0
 10
173.928236
 20
61.961806
 30
0.0
  0
SPLINE
  5
14a
100
AcDbEntity
  8
0
 62
7
100
AcDbSpline
 70
8
 71
3
 72
8
 73
4
 74
0
 40
0
 40
0
 40
0
 40
0
 40
1
 40
1
 40
1
 40
1
 10
179.616777
 20
52.392722
 30
0.0
 10
179.482592
 20
50.821620
 30
0.0
 10
178.522605
 20
49.853736
 30
0.0
 10
177.456013
 20
48.891403
 30
0.0
  0
SPLINE
  5
14b
100
AcDbEntity
  8
0
 62
7
100
AcDbSpline
 70
8
 71
3
 72
8
 73
4
 74
0
 40
0
 40
0
 40
0
 40
0
 40
1
 40
1
 40
1
 40
1
 10
177.456013
 20
48.891403
 30
0.0
 10
176.395840
 20
47.934864
 30
0.0
 10
175.227155
 20
46.989857
 30
0.0
 10
174.748444
 20
45.469459
 30
0.0
  0
SPLINE
  5
14c
100
AcDbEntity
  8
0
 62
7
100
AcDbSpline
 70
8
 71
3
 72
8
 73
4
 74
0
 40
0
 40
0
 40
0
 40
0
 40
1
 40
1
 40
1
 40
1
 10
174.748444
 20
45.469459
 30
0.0
 10
174.745537
 20
45.460258
 30
0.0
 10
174.742461
 20
45.452243
 30
0.0
 10
174.739639
 20
45.443014
 30
0.0
  0
SPLINE
  5
14d
100
AcDbEntity
  8
0
 62
7
100
AcDbSpline
 70
8
 71
3
 72
8
 73
4
 74
0
 40
0
 40
0
 40
0
 40
0
 40
1
 40
1
 40
1
 40
1
 10
174.739639
 20
45.443014
 30
0.0
 10
174.129979
 20
44.281613
 30
0.0
 10
173.547004
 20
43.041622
 30
0.0
 10
173.072764
 20
41.774125
 30
0.0
  0
SPLINE
  5
14e
100
AcDbEntity
  8
0
 62
7
100
AcDbSpline
 70
8
 71
3
 72
8
 73
4
 74
0
 40
0
 40
0
 40
0
 40
0
 40
1
 40
1
 40
1
 40
1
 10
173.072764
 20
41.774125
 30
0.0
 10
172.595249
 20
40.497880
 30
0.0
 10
172.227404
 20
39.194919
 30
0.0
 10
172.058528
 20
37.902389
 30
0.0
  0
LWPOLYLINE
  5
14f
100
AcDbEntity
  8
0
 62
7
100
AcDbPolyline
 90
2
 70
0
 10
179.616777
 20
52.401528
 30
0.0
 10
179.616777
 20
52.392722
 30
0.0
  0
SPLINE
  5
150
100
AcDbEntity
  8
0
 62
7
100
AcDbSpline
 70
8
 71
3
 72
8
 73
4
 74
0
 40
0
 40
0
 40
0
 40
0
 40
1
 40
1
 40
1
 40
1
 10
172.076166
 20
37.814195
 30
0.0
 10
173.507344
 20
35.463504
 30
0.0
 10
174.358376
 20
32.746573
 30
0.0
 10
174.651444
 20
29.964889
 30
0.0
  0
SPLINE
  5
151
100
AcDbEntity
  8
0
 62
7
100
AcDbSpline
 70
8
 71
3
 72
8
 73
4
 74
0
 40
0
 40
0
 40
0
 40
0
 40
1
 40
1
 40
1
 40
1
 10
174.651444
 20
29.964889
 30
0.0
 10
174.944210
 20
27.186090
 30
0.0
 10
174.678876
 20
24.342427
 30
0.0
 10
173.875333
 20
21.718709
 30
0.0
  0
SPLINE
  5
152
100
AcDbEntity
  8
0
 62
7
100
AcDbSpline
 70
8
 71
3
 72
8
 73
4
 74
0
 40
0
 40
0
 40
0
 40
0
 40
1
 40
1
 40
1
 40
1
 10
173.875333
 20
21.718709
 30
0.0
 10
173.874486
 20
21.715887
 30
0.0
 10
173.876180
 20
21.712613
 30
0.0
 10
173.875333
 20
21.709903
 30
0.0
  0
SPLINE
  5
153
100
AcDbEntity
  8
0
 62
7
100
AcDbSpline
 70
8
 71
3
 72
8
 73
4
 74
0
 40
0
 40
0
 40
0
 40
0
 40
1
 40
1
 40
1
 40
1
 10
173.875333
 20
21.709903
 30
0.0
 10
173.155277
 20
19.933219
 30
0.0
 10
172.190624
 20
18.282806
 30
0.0
 10
171.061930
 20
16.744556
 30
0.0
  0
SPLINE
  5
154
100
AcDbEntity
  8
0
 62
7
100
AcDbSpline
 70
8
 71
3
 72
8
 73
4
 74
0
 40
0
 40
0
 40
0
 40
0
 40
1
 40
1
 40
1
 40
1
 10
171.061930
 20
16.744556
 30
0.0
 10
169.931670
 20
15.204176
 30
0.0
 10
168.639273
 20
13.782070
 30
0.0
 10
167.278389
 20
12.467112
 30
0.0
  0
LWPOLYLINE
  5
155
100
AcDbEntity
  8
0
 62
7
100
AcDbPolyline
 90
3
 70
0
 10
172.058528
 20
37.902389
 30
0.0
 10
172.049722
 20
37.849473
 30
0.0
 10
172.076166
 20
37.814195
 30
0.0
  0
SPLINE
  5
156
100
AcDbEntity
  8
0
 62
7
100
AcDbSpline
 70
8
 71
3
 72
8
 73
4
 74
0
 40
0
 40
0
 40
0
 40
0
 40
1
 40
1
 40
1
 40
1
 10
167.243111
 20
12.317167
 30
0.0
 10
168.153526
 20
9.602725
 30
0.0
 10
166.897377
 20
6.867653
 30
0.0
 10
164.800125
 20
5.217528
 30
0.0
  0
SPLINE
  5
157
100
AcDbEntity
  8
0
 62
7
100
AcDbSpline
 70
8
 71
3
 72
8
 73
4
 74
0
 40
0
 40
0
 40
0
 40
0
 40
1
 40
1
 40
1
 40
1
 10
164.800125
 20
5.217528
 30
0.0
 10
162.705841
 20
3.569717
 30
0.0
 10
159.796045
 20
3.015659
 30
0.0
 10
157.374153
 20
4.644307
 30
0.0
  0
SPLINE
  5
158
100
AcDbEntity
  8
0
 62
7
100
AcDbSpline
 70
8
 71
3
 72
8
 73
4
 74
0
 40
0
 40
0
 40
0
 40
0
 40
1
 40
1
 40
1
 40
1
 10
157.374153
 20
4.644307
 30
0.0
 10
157.370963
 20
4.647129
 30
0.0
 10
157.368508
 20
4.650233
 30
0.0
 10
157.365347
 20
4.653056
 30
0.0
  0
SPLINE
  5
159
100
AcDbEntity
  8
0
 62
7
100
AcDbSpline
 70
8
 71
3
 72
8
 73
4
 74
0
 40
0
 40
0
 40
0
 40
0
 40
1
 40
1
 40
1
 40
1
 10
157.365347
 20
4.653056
 30
0.0
 10
156.587396
 20
5.330671
 30
0.0
 10
156.269134
 20
6.360246
 30
0.0
 10
156.077708
 20
7.431195
 30
0.0
  0
SPLINE
  5
15a
100
AcDbEntity
  8
0
 62
7
100
AcDbSpline
 70
8
 71
3
 72
8
 73
4
 74
0
 40
0
 40
0
 40
0
 40
0
 40
1
 40
1
 40
1
 40
1
 10
156.077708
 20
7.431195
 30
0.0
 10
155.885495
 20
8.506433
 30
0.0
 10
155.825438
 20
9.607382
 30
0.0
 10
155.539722
 20
10.412139
 30
0.0
  0
LWPOLYLINE
  5
15b
100
AcDbEntity
  8
0
 62
7
100
AcDbPolyline
 90
3
 70
0
 10
167.278389
 20
12.467112
 30
0.0
 10
167.207833
 20
12.396556
 30
0.0
 10
167.243111
 20
12.317167
 30
0.0
  0
SPLINE
  5
15c
100
AcDbEntity
  8
0
 62
7
100
AcDbSpline
 70
8
 71
3
 72
8
 73
4
 74
0
 40
0
 40
0
 40
0
 40
0
 40
1
 40
1
 40
1
 40
1
 10
155.389792
 20
10.509308
 30
0.0
 10
154.309445
 20
10.335600
 30
0.0
 10
153.196050
 20
10.252655
 30
0.0
 10
152.338264
 20
9.839030
 30
0.0
  0
SPLINE
  5
15d
100
AcDbEntity
  8
0
 62
7
100
AcDbSpline
 70
8
 71
3
 72
8
 73
4
 74
0
 40
0
 40
0
 40
0
 40
0
 40
1
 40
1
 40
1
 40
1
 10
152.338264
 20
9.839030
 30
0.0
 10
151.491990
 20
9.430965
 30
0.0
 10
150.917608
 20
8.661627
 30
0.0
 10
150.935972
 20
7.228474
 30
0.0
  0
SPLINE
  5
15e
100
AcDbEntity
  8
0
 62
7
100
AcDbSpline
 70
8
 71
3
 72
8
 73
4
 74
0
 40
0
 40
0
 40
0
 40
0
 40
1
 40
1
 40
1
 40
1
 10
150.935972
 20
7.228474
 30
0.0
 10
150.175146
 20
6.026405
 30
0.0
 10
149.301858
 20
4.898815
 30
0.0
 10
148.237222
 20
4.141669
 30
0.0
  0
SPLINE
  5
15f
100
AcDbEntity
  8
0
 62
7
100
AcDbSpline
 70
8
 71
3
 72
8
 73
4
 74
0
 40
0
 40
0
 40
0
 40
0
 40
1
 40
1
 40
1
 40
1
 10
148.237222
 20
4.141669
 30
0.0
 10
147.168509
 20
3.381616
 30
0.0
 10
145.922365
 20
2.994407
 30
0.0
 10
144.383125
 20
3.250891
 30
0.0
  0
SPLINE
  5
160
100
AcDbEntity
  8
0
 62
7
100
AcDbSpline
 70
8
 71
3
 72
8
 73
4
 74
0
 40
0
 40
0
 40
0
 40
0
 40
1
 40
1
 40
1
 40
1
 10
144.383125
 20
3.250891
 30
0.0
 10
144.380585
 20
3.250891
 30
0.0
 10
144.376860
 20
3.250891
 30
0.0
 10
144.374320
 20
3.250891
 30
0.0
  0
SPLINE
  5
161
100
AcDbEntity
  8
0
 62
7
100
AcDbSpline
 70
8
 71
3
 72
8
 73
4
 74
0
 40
0
 40
0
 40
0
 40
0
 40
1
 40
1
 40
1
 40
1
 10
144.374320
 20
3.250891
 30
0.0
 10
142.977472
 20
3.763406
 30
0.0
 10
141.897851
 20
4.705944
 30
0.0
 10
141.084667
 20
5.870280
 30
0.0
  0
SPLINE
  5
162
100
AcDbEntity
  8
0
 62
7
100
AcDbSpline
 70
8
 71
3
 72
8
 73
4
 74
0
 40
0
 40
0
 40
0
 40
0
 40
1
 40
1
 40
1
 40
1
 10
141.084667
 20
5.870280
 30
0.0
 10
140.266349
 20
7.041954
 30
0.0
 10
139.717498
 20
8.441748
 30
0.0
 10
139.382514
 20
9.847835
 30
0.0
  0
LWPOLYLINE
  5
163
100
AcDbEntity
  8
0
 62
7
100
AcDbPolyline
 90
3
 70
0
 10
155.539722
 20
10.412139
 30
0.0
 10
155.504444
 20
10.526806
 30
0.0
 10
155.389792
 20
10.509308
 30
0.0
  0
SPLINE
  5
164
100
AcDbEntity
  8
0
 62
7
100
AcDbSpline
 70
8
 71
3
 72
8
 73
4
 74
0
 40
0
 40
0
 40
0
 40
0
 40
1
 40
1
 40
1
 40
1
 10
139.223778
 20
9.953556
 30
0.0
 10
138.114758
 20
9.810808
 30
0.0
 10
136.968526
 20
9.724899
 30
0.0
 10
135.810653
 20
9.653723
 30
0.0
  0
SPLINE
  5
165
100
AcDbEntity
  8
0
 62
7
100
AcDbSpline
 70
8
 71
3
 72
8
 73
4
 74
0
 40
0
 40
0
 40
0
 40
0
 40
1
 40
1
 40
1
 40
1
 10
135.810653
 20
9.653723
 30
0.0
 10
134.652777
 20
9.582518
 30
0.0
 10
133.486621
 20
9.520937
 30
0.0
 10
132.335792
 20
9.433223
 30
0.0
  0
LWPOLYLINE
  5
166
100
AcDbEntity
  8
0
 62
7
100
AcDbPolyline
 90
3
 70
0
 10
139.382514
 20
9.847835
 30
0.0
 10
139.356070
 20
9.971336
 30
0.0
 10
139.223778
 20
9.953556
 30
0.0
  0
SPLINE
  5
167
100
AcDbEntity
  8
0
 62
7
100
AcDbSpline
 70
8
 71
3
 72
8
 73
4
 74
0
 40
0
 40
0
 40
0
 40
0
 40
1
 40
1
 40
1
 40
1
 10
132.212334
 20
9.345113
 30
0.0
 10
131.680255
 20
7.818855
 30
0.0
 10
130.762347
 20
6.176971
 30
0.0
 10
129.531223
 20
5.005946
 30
0.0
  0
SPLINE
  5
168
100
AcDbEntity
  8
0
 62
7
100
AcDbSpline
 70
8
 71
3
 72
8
 73
4
 74
0
 40
0
 40
0
 40
0
 40
0
 40
1
 40
1
 40
1
 40
1
 10
129.531223
 20
5.005946
 30
0.0
 10
128.300099
 20
3.834922
 30
0.0
 10
126.767020
 20
3.131934
 30
0.0
 10
124.971570
 20
3.418446
 30
0.0
  0
SPLINE
  5
169
100
AcDbEntity
  8
0
 62
7
100
AcDbSpline
 70
8
 71
3
 72
8
 73
4
 74
0
 40
0
 40
0
 40
0
 40
0
 40
1
 40
1
 40
1
 40
1
 10
124.971570
 20
3.418446
 30
0.0
 10
123.028273
 20
3.685513
 30
0.0
 10
121.835110
 20
4.863960
 30
0.0
 10
120.932265
 20
6.372974
 30
0.0
  0
SPLINE
  5
16a
100
AcDbEntity
  8
0
 62
7
100
AcDbSpline
 70
8
 71
3
 72
8
 73
4
 74
0
 40
0
 40
0
 40
0
 40
0
 40
1
 40
1
 40
1
 40
1
 10
120.932265
 20
6.372974
 30
0.0
 10
120.029416
 20
7.881960
 30
0.0
 10
119.437246
 20
9.715332
 30
0.0
 10
118.709765
 20
11.232474
 30
0.0
  0
LWPOLYLINE
  5
16b
100
AcDbEntity
  8
0
 62
7
100
AcDbPolyline
 90
3
 70
0
 10
132.335792
 20
9.433223
 30
0.0
 10
132.238778
 20
9.424474
 30
0.0
 10
132.212334
 20
9.345113
 30
0.0
  0
SPLINE
  5
16c
100
AcDbEntity
  8
0
 62
7
100
AcDbSpline
 70
8
 71
3
 72
8
 73
4
 74
0
 40
0
 40
0
 40
0
 40
0
 40
1
 40
1
 40
1
 40
1
 10
118.595112
 20
11.311778
 30
0.0
 10
117.295456
 20
11.453595
 30
0.0
 10
115.997561
 20
11.644772
 30
0.0
 10
114.705737
 20
11.858556
 30
0.0
  0
SPLINE
  5
16d
100
AcDbEntity
  8
0
 62
7
100
AcDbSpline
 70
8
 71
3
 72
8
 73
4
 74
0
 40
0
 40
0
 40
0
 40
0
 40
1
 40
1
 40
1
 40
1
 10
114.705737
 20
11.858556
 30
0.0
 10
113.413913
 20
12.072396
 30
0.0
 10
112.125585
 20
12.302294
 30
0.0
 10
110.842820
 20
12.537667
 30
0.0
  0
LWPOLYLINE
  5
16e
100
AcDbEntity
  8
0
 62
7
100
AcDbPolyline
 90
3
 70
0
 10
118.709765
 20
11.232474
 30
0.0
 10
118.674487
 20
11.303030
 30
0.0
 10
118.595112
 20
11.311778
 30
0.0
  0
SPLINE
  5
16f
100
AcDbEntity
  8
0
 62
7
100
AcDbSpline
 70
8
 71
3
 72
8
 73
4
 74
0
 40
0
 40
0
 40
0
 40
0
 40
1
 40
1
 40
1
 40
1
 10
110.684070
 20
12.449557
 30
0.0
 10
110.043925
 20
10.474764
 30
0.0
 10
108.669071
 20
8.630159
 30
0.0
 10
106.935806
 20
7.528307
 30
0.0
  0
SPLINE
  5
170
100
AcDbEntity
  8
0
 62
7
100
AcDbSpline
 70
8
 71
3
 72
8
 73
4
 74
0
 40
0
 40
0
 40
0
 40
0
 40
1
 40
1
 40
1
 40
1
 10
106.935806
 20
7.528307
 30
0.0
 10
105.202538
 20
6.426455
 30
0.0
 10
103.122634
 20
6.056998
 30
0.0
 10
101.017959
 20
6.999141
 30
0.0
  0
SPLINE
  5
171
100
AcDbEntity
  8
0
 62
7
100
AcDbSpline
 70
8
 71
3
 72
8
 73
4
 74
0
 40
0
 40
0
 40
0
 40
0
 40
1
 40
1
 40
1
 40
1
 10
101.017959
 20
6.999141
 30
0.0
 10
98.842020
 20
7.991575
 30
0.0
 10
97.352358
 20
9.940150
 30
0.0
 10
96.643515
 20
12.176140
 30
0.0
  0
SPLINE
  5
172
100
AcDbEntity
  8
0
 62
7
100
AcDbSpline
 70
8
 71
3
 72
8
 73
4
 74
0
 40
0
 40
0
 40
0
 40
0
 40
1
 40
1
 40
1
 40
1
 10
96.643515
 20
12.176140
 30
0.0
 10
95.934671
 20
14.412187
 30
0.0
 10
96.014670
 20
16.932988
 30
0.0
 10
96.969834
 20
19.037668
 30
0.0
  0
LWPOLYLINE
  5
173
100
AcDbEntity
  8
0
 62
7
100
AcDbPolyline
 90
3
 70
0
 10
110.842820
 20
12.537667
 30
0.0
 10
110.728167
 20
12.564196
 30
0.0
 10
110.684070
 20
12.449557
 30
0.0
  0
SPLINE
  5
174
100
AcDbEntity
  8
0
 62
7
100
AcDbSpline
 70
8
 71
3
 72
8
 73
4
 74
0
 40
0
 40
0
 40
0
 40
0
 40
1
 40
1
 40
1
 40
1
 10
96.961000
 20
19.161140
 30
0.0
 10
96.483684
 20
20.015670
 30
0.0
 10
95.699241
 20
20.791753
 30
0.0
 10
95.038362
 20
21.639404
 30
0.0
  0
SPLINE
  5
175
100
AcDbEntity
  8
0
 62
7
100
AcDbSpline
 70
8
 71
3
 72
8
 73
4
 74
0
 40
0
 40
0
 40
0
 40
0
 40
1
 40
1
 40
1
 40
1
 10
95.038362
 20
21.639404
 30
0.0
 10
94.377482
 20
22.487053
 30
0.0
 10
93.848953
 20
23.400505
 30
0.0
 10
93.830098
 20
24.505724
 30
0.0
  0
LWPOLYLINE
  5
176
100
AcDbEntity
  8
0
 62
7
100
AcDbPolyline
 90
3
 70
0
 10
96.969834
 20
19.037668
 30
0.0
 10
96.996278
 20
19.099404
 30
0.0
 10
96.961000
 20
19.161140
 30
0.0
  0
SPLINE
  5
177
100
AcDbEntity
  8
0
 62
7
100
AcDbSpline
 70
8
 71
3
 72
8
 73
4
 74
0
 40
0
 40
0
 40
0
 40
0
 40
1
 40
1
 40
1
 40
1
 10
93.715459
 20
24.638015
 30
0.0
 10
92.535268
 20
24.871549
 30
0.0
 10
91.079444
 20
25.111347
 30
0.0
 10
89.967195
 20
25.678710
 30
0.0
  0
SPLINE
  5
178
100
AcDbEntity
  8
0
 62
7
100
AcDbSpline
 70
8
 71
3
 72
8
 73
4
 74
0
 40
0
 40
0
 40
0
 40
0
 40
1
 40
1
 40
1
 40
1
 10
89.967195
 20
25.678710
 30
0.0
 10
88.854943
 20
26.246070
 30
0.0
 10
88.086040
 20
27.101446
 30
0.0
 10
88.203306
 20
28.659682
 30
0.0
  0
LWPOLYLINE
  5
179
100
AcDbEntity
  8
0
 62
7
100
AcDbPolyline
 90
3
 70
0
 10
93.830098
 20
24.505724
 30
0.0
 10
93.821292
 20
24.620377
 30
0.0
 10
93.715459
 20
24.638015
 30
0.0
  0
SPLINE
  5
17a
100
AcDbEntity
  8
0
 62
7
100
AcDbSpline
 70
8
 71
3
 72
8
 73
4
 74
0
 40
0
 40
0
 40
0
 40
0
 40
1
 40
1
 40
1
 40
1
 10
88.194501
 20
28.712571
 30
0.0
 10
87.551170
 20
31.200896
 30
0.0
 10
88.179148
 20
33.756565
 30
0.0
 10
89.552695
 20
35.856321
 30
0.0
  0
SPLINE
  5
17b
100
AcDbEntity
  8
0
 62
7
100
AcDbSpline
 70
8
 71
3
 72
8
 73
4
 74
0
 40
0
 40
0
 40
0
 40
0
 40
1
 40
1
 40
1
 40
1
 10
89.552695
 20
35.856321
 30
0.0
 10
90.926220
 20
37.956074
 30
0.0
 10
93.050055
 20
39.589282
 30
0.0
 10
95.382348
 20
40.221946
 30
0.0
  0
LWPOLYLINE
  5
17c
100
AcDbEntity
  8
0
 62
7
100
AcDbPolyline
 90
3
 70
0
 10
88.203306
 20
28.659682
 30
0.0
 10
88.203306
 20
28.686126
 30
0.0
 10
88.194501
 20
28.712571
 30
0.0
  0
SPLINE
  5
17d
100
AcDbEntity
  8
0
 62
7
100
AcDbSpline
 70
8
 71
3
 72
8
 73
4
 74
0
 40
0
 40
0
 40
0
 40
0
 40
1
 40
1
 40
1
 40
1
 10
95.470528
 20
40.292501
 30
0.0
 10
97.734433
 20
44.552033
 30
0.0
 10
99.832516
 20
48.953029
 30
0.0
 10
101.423653
 20
53.512848
 30
0.0
  0
SPLINE
  5
17e
100
AcDbEntity
  8
0
 62
7
100
AcDbSpline
 70
8
 71
3
 72
8
 73
4
 74
0
 40
0
 40
0
 40
0
 40
0
 40
1
 40
1
 40
1
 40
1
 10
101.423653
 20
53.512848
 30
0.0
 10
103.014791
 20
58.072670
 30
0.0
 10
104.101003
 20
62.791705
 30
0.0
 10
104.325251
 20
67.694515
 30
0.0
  0
LWPOLYLINE
  5
17f
100
AcDbEntity
  8
0
 62
7
100
AcDbPolyline
 90
3
 70
0
 10
95.382348
 20
40.221946
 30
0.0
 10
95.444084
 20
40.239584
 30
0.0
 10
95.470528
 20
40.292501
 30
0.0
  0
SPLINE
  5
180
100
AcDbEntity
  8
0
 62
7
100
AcDbSpline
 70
8
 71
3
 72
8
 73
4
 74
0
 40
0
 40
0
 40
0
 40
0
 40
1
 40
1
 40
1
 40
1
 10
104.316445
 20
67.694515
 30
0.0
 10
104.788840
 20
71.364363
 30
0.0
 10
104.539737
 20
75.067243
 30
0.0
 10
103.787279
 20
78.683543
 30
0.0
  0
SPLINE
  5
181
100
AcDbEntity
  8
0
 62
7
100
AcDbSpline
 70
8
 71
3
 72
8
 73
4
 74
0
 40
0
 40
0
 40
0
 40
0
 40
1
 40
1
 40
1
 40
1
 10
103.787279
 20
78.683543
 30
0.0
 10
103.034225
 20
82.302715
 30
0.0
 10
101.780368
 20
85.831837
 30
0.0
 10
100.241862
 20
89.134584
 30
0.0
  0
LWPOLYLINE
  5
182
100
AcDbEntity
  8
0
 62
7
100
AcDbPolyline
 90
2
 70
0
 10
104.325251
 20
67.694515
 30
0.0
 10
104.316445
 20
67.694515
 30
0.0
  0
SPLINE
  5
183
100
AcDbEntity
  8
0
 62
7
100
AcDbSpline
 70
8
 71
3
 72
8
 73
4
 74
0
 40
0
 40
0
 40
0
 40
0
 40
1
 40
1
 40
1
 40
1
 10
100.224251
 20
89.161029
 30
0.0
 10
97.366049
 20
92.937947
 30
0.0
 10
92.669061
 20
94.449080
 30
0.0
 10
88.097515
 20
94.029362
 30
0.0
  0
SPLINE
  5
184
100
AcDbEntity
  8
0
 62
7
100
AcDbSpline
 70
8
 71
3
 72
8
 73
4
 74
0
 40
0
 40
0
 40
0
 40
0
 40
1
 40
1
 40
1
 40
1
 10
88.097515
 20
94.029362
 30
0.0
 10
83.532441
 20
93.610242
 30
0.0
 10
79.081043
 20
91.265382
 30
0.0
 10
76.702793
 20
87.317765
 30
0.0
  0
SPLINE
  5
185
100
AcDbEntity
  8
0
 62
7
100
AcDbSpline
 70
8
 71
3
 72
8
 73
4
 74
0
 40
0
 40
0
 40
0
 40
0
 40
1
 40
1
 40
1
 40
1
 10
76.702793
 20
87.317765
 30
0.0
 10
76.699406
 20
87.312177
 30
0.0
 10
76.697346
 20
87.305742
 30
0.0
 10
76.693988
 20
87.300126
 30
0.0
  0
SPLINE
  5
186
100
AcDbEntity
  8
0
 62
7
100
AcDbSpline
 70
8
 71
3
 72
8
 73
4
 74
0
 40
0
 40
0
 40
0
 40
0
 40
1
 40
1
 40
1
 40
1
 10
76.693988
 20
87.300126
 30
0.0
 10
74.201711
 20
84.031930
 30
0.0
 10
71.888398
 20
80.461760
 30
0.0
 10
70.246974
 20
76.646237
 30
0.0
  0
SPLINE
  5
187
100
AcDbEntity
  8
0
 62
7
100
AcDbSpline
 70
8
 71
3
 72
8
 73
4
 74
0
 40
0
 40
0
 40
0
 40
0
 40
1
 40
1
 40
1
 40
1
 10
70.246974
 20
76.646237
 30
0.0
 10
68.602981
 20
72.824742
 30
0.0
 10
67.633881
 20
68.760426
 30
0.0
 10
67.812807
 20
64.501862
 30
0.0
  0
SPLINE
  5
188
100
AcDbEntity
  8
0
 62
7
100
AcDbSpline
 70
8
 71
3
 72
8
 73
4
 74
0
 40
0
 40
0
 40
0
 40
0
 40
1
 40
1
 40
1
 40
1
 10
67.812807
 20
64.501862
 30
0.0
 10
67.771642
 20
61.668701
 30
0.0
 10
68.240329
 20
58.899186
 30
0.0
 10
68.853502
 20
56.149848
 30
0.0
  0
SPLINE
  5
189
100
AcDbEntity
  8
0
 62
7
100
AcDbSpline
 70
8
 71
3
 72
8
 73
4
 74
0
 40
0
 40
0
 40
0
 40
0
 40
1
 40
1
 40
1
 40
1
 10
68.853502
 20
56.149848
 30
0.0
 10
69.466674
 20
53.400507
 30
0.0
 10
70.220535
 20
50.671356
 30
0.0
 10
70.732043
 20
47.938945
 30
0.0
  0
LWPOLYLINE
  5
18a
100
AcDbEntity
  8
0
 62
7
100
AcDbPolyline
 90
3
 70
0
 10
100.241862
 20
89.134584
 30
0.0
 10
100.233057
 20
89.152223
 30
0.0
 10
100.224251
 20
89.161029
 30
0.0
  0
SPLINE
  5
18b
100
AcDbEntity
  8
0
 62
7
100
AcDbSpline
 70
8
 71
3
 72
8
 73
4
 74
0
 40
0
 40
0
 40
0
 40
0
 40
1
 40
1
 40
1
 40
1
 10
70.740849
 20
47.921335
 30
0.0
 10
71.101819
 20
46.871364
 30
0.0
 10
72.214887
 20
46.396892
 30
0.0
 10
73.175015
 20
45.839946
 30
0.0
  0
SPLINE
  5
18c
100
AcDbEntity
  8
0
 62
7
100
AcDbSpline
 70
8
 71
3
 72
8
 73
4
 74
0
 40
0
 40
0
 40
0
 40
0
 40
1
 40
1
 40
1
 40
1
 10
73.175015
 20
45.839946
 30
0.0
 10
73.655081
 20
45.561474
 30
0.0
 10
74.097766
 20
45.262045
 30
0.0
 10
74.409737
 20
44.878626
 30
0.0
  0
SPLINE
  5
18d
100
AcDbEntity
  8
0
 62
7
100
AcDbSpline
 70
8
 71
3
 72
8
 73
4
 74
0
 40
0
 40
0
 40
0
 40
0
 40
1
 40
1
 40
1
 40
1
 10
74.409737
 20
44.878626
 30
0.0
 10
74.721709
 20
44.495208
 30
0.0
 10
74.908258
 20
44.031723
 30
0.0
 10
74.877168
 20
43.379321
 30
0.0
  0
LWPOLYLINE
  5
18e
100
AcDbEntity
  8
0
 62
7
100
AcDbPolyline
 90
3
 70
0
 10
70.732043
 20
47.938945
 30
0.0
 10
70.732043
 20
47.930140
 30
0.0
 10
70.740849
 20
47.921335
 30
0.0
  0
SPLINE
  5
18f
100
AcDbEntity
  8
0
 62
7
100
AcDbSpline
 70
8
 71
3
 72
8
 73
4
 74
0
 40
0
 40
0
 40
0
 40
0
 40
1
 40
1
 40
1
 40
1
 10
74.885973
 20
43.335238
 30
0.0
 10
75.425441
 20
41.468084
 30
0.0
 10
75.415902
 20
39.291566
 30
0.0
 10
74.797779
 20
37.382113
 30
0.0
  0
SPLINE
  5
190
100
AcDbEntity
  8
0
 62
7
100
AcDbSpline
 70
8
 71
3
 72
8
 73
4
 74
0
 40
0
 40
0
 40
0
 40
0
 40
1
 40
1
 40
1
 40
1
 10
74.797779
 20
37.382113
 30
0.0
 10
74.179656
 20
35.472659
 30
0.0
 10
72.963038
 20
33.836058
 30
0.0
 10
71.067154
 20
33.025307
 30
0.0
  0
SPLINE
  5
191
100
AcDbEntity
  8
0
 62
7
100
AcDbSpline
 70
8
 71
3
 72
8
 73
4
 74
0
 40
0
 40
0
 40
0
 40
0
 40
1
 40
1
 40
1
 40
1
 10
71.067154
 20
33.025307
 30
0.0
 10
69.349696
 20
32.846960
 30
0.0
 10
68.399443
 20
31.697313
 30
0.0
 10
67.618751
 20
30.388293
 30
0.0
  0
SPLINE
  5
192
100
AcDbEntity
  8
0
 62
7
100
AcDbSpline
 70
8
 71
3
 72
8
 73
4
 74
0
 40
0
 40
0
 40
0
 40
0
 40
1
 40
1
 40
1
 40
1
 10
67.618751
 20
30.388293
 30
0.0
 10
66.832110
 20
29.069299
 30
0.0
 10
66.190580
 20
27.585451
 30
0.0
 10
65.078751
 20
26.666488
 30
0.0
  0
LWPOLYLINE
  5
193
100
AcDbEntity
  8
0
 62
7
100
AcDbPolyline
 90
3
 70
0
 10
74.877168
 20
43.379321
 30
0.0
 10
74.877168
 20
43.361682
 30
0.0
 10
74.885973
 20
43.335238
 30
0.0
  0
SPLINE
  5
194
100
AcDbEntity
  8
0
 62
7
100
AcDbSpline
 70
8
 71
3
 72
8
 73
4
 74
0
 40
0
 40
0
 40
0
 40
0
 40
1
 40
1
 40
1
 40
1
 10
65.052307
 20
26.640043
 30
0.0
 10
64.297695
 20
25.665474
 30
0.0
 10
63.457046
 20
24.733234
 30
0.0
 10
62.521126
 20
23.914835
 30
0.0
  0
SPLINE
  5
195
100
AcDbEntity
  8
0
 62
7
100
AcDbSpline
 70
8
 71
3
 72
8
 73
4
 74
0
 40
0
 40
0
 40
0
 40
0
 40
1
 40
1
 40
1
 40
1
 10
62.521126
 20
23.914835
 30
0.0
 10
61.585204
 20
23.096436
 30
0.0
 10
60.558652
 20
22.392551
 30
0.0
 10
59.434321
 20
21.877543
 30
0.0
  0
LWPOLYLINE
  5
196
100
AcDbEntity
  8
0
 62
7
100
AcDbPolyline
 90
3
 70
0
 10
65.078751
 20
26.666488
 30
0.0
 10
65.061112
 20
26.657682
 30
0.0
 10
65.052307
 20
26.640043
 30
0.0
  0
SPLINE
  5
197
100
AcDbEntity
  8
0
 62
7
100
AcDbSpline
 70
8
 71
3
 72
8
 73
4
 74
0
 40
0
 40
0
 40
0
 40
0
 40
1
 40
1
 40
1
 40
1
 10
59.354932
 20
21.718793
 30
0.0
 10
59.846055
 20
19.656164
 30
0.0
 10
59.399729
 20
17.242503
 30
0.0
 10
58.226043
 20
15.456988
 30
0.0
  0
SPLINE
  5
198
100
AcDbEntity
  8
0
 62
7
100
AcDbSpline
 70
8
 71
3
 72
8
 73
4
 74
0
 40
0
 40
0
 40
0
 40
0
 40
1
 40
1
 40
1
 40
1
 10
58.226043
 20
15.456988
 30
0.0
 10
57.052354
 20
13.671495
 30
0.0
 10
55.169062
 20
12.510574
 30
0.0
 10
52.757987
 20
12.890530
 30
0.0
  0
LWPOLYLINE
  5
199
100
AcDbEntity
  8
0
 62
7
100
AcDbPolyline
 90
3
 70
0
 10
59.434321
 20
21.877543
 30
0.0
 10
59.328487
 20
21.833446
 30
0.0
 10
59.354932
 20
21.718793
 30
0.0
  0
SPLINE
  5
19a
100
AcDbEntity
  8
0
 62
7
100
AcDbSpline
 70
8
 71
3
 72
8
 73
4
 74
0
 40
0
 40
0
 40
0
 40
0
 40
1
 40
1
 40
1
 40
1
 10
52.740377
 20
12.890530
 30
0.0
 10
51.603698
 20
12.901818
 30
0.0
 10
50.547905
 20
13.367062
 30
0.0
 10
49.715307
 20
14.089974
 30
0.0
  0
SPLINE
  5
19b
100
AcDbEntity
  8
0
 62
7
100
AcDbSpline
 70
8
 71
3
 72
8
 73
4
 74
0
 40
0
 40
0
 40
0
 40
0
 40
1
 40
1
 40
1
 40
1
 10
49.715307
 20
14.089974
 30
0.0
 10
48.882718
 20
14.812906
 30
0.0
 10
48.278308
 20
15.801449
 30
0.0
 10
48.030793
 20
16.859280
 30
0.0
  0
LWPOLYLINE
  5
19c
100
AcDbEntity
  8
0
 62
7
100
AcDbPolyline
 90
3
 70
0
 10
52.757987
 20
12.890530
 30
0.0
 10
52.749182
 20
12.890530
 30
0.0
 10
52.740377
 20
12.890530
 30
0.0
  0
SPLINE
  5
19d
100
AcDbEntity
  8
0
 62
7
100
AcDbSpline
 70
8
 71
3
 72
8
 73
4
 74
0
 40
0
 40
0
 40
0
 40
0
 40
1
 40
1
 40
1
 40
1
 10
47.889696
 20
16.965113
 30
0.0
 10
46.408250
 20
16.935601
 30
0.0
 10
44.863108
 20
16.752540
 30
0.0
 10
43.347682
 20
16.612335
 30
0.0
  0
SPLINE
  5
19e
100
AcDbEntity
  8
0
 62
7
100
AcDbSpline
 70
8
 71
3
 72
8
 73
4
 74
0
 40
0
 40
0
 40
0
 40
0
 40
1
 40
1
 40
1
 40
1
 10
43.347682
 20
16.612335
 30
0.0
 10
41.832256
 20
16.472130
 30
0.0
 10
40.342648
 20
16.372960
 30
0.0
 10
38.982057
 20
16.506502
 30
0.0
  0
LWPOLYLINE
  5
19f
100
AcDbEntity
  8
0
 62
7
100
AcDbPolyline
 90
3
 70
0
 10
48.030793
 20
16.859280
 30
0.0
 10
48.004349
 20
16.965113
 30
0.0
 10
47.889696
 20
16.965113
 30
0.0
  0
SPLINE
  5
1a0
100
AcDbEntity
  8
0
 62
7
100
AcDbSpline
 70
8
 71
3
 72
8
 73
4
 74
0
 40
0
 40
0
 40
0
 40
0
 40
1
 40
1
 40
1
 40
1
 10
38.832127
 20
16.383030
 30
0.0
 10
38.448923
 20
13.401719
 30
0.0
 10
36.011423
 20
11.349060
 30
0.0
 10
33.240599
 20
10.668030
 30
0.0
  0
SPLINE
  5
1a1
100
AcDbEntity
  8
0
 62
7
100
AcDbSpline
 70
8
 71
3
 72
8
 73
4
 74
0
 40
0
 40
0
 40
0
 40
0
 40
1
 40
1
 40
1
 40
1
 10
33.240599
 20
10.668030
 30
0.0
 10
30.469778
 20
9.986971
 30
0.0
 10
27.393176
 20
10.687785
 30
0.0
 10
25.735252
 20
13.199196
 30
0.0
  0
LWPOLYLINE
  5
1a2
100
AcDbEntity
  8
0
 62
7
100
AcDbPolyline
 90
3
 70
0
 10
38.982057
 20
16.506502
 30
0.0
 10
38.849766
 20
16.524141
 30
0.0
 10
38.832127
 20
16.383030
 30
0.0
  0
SPLINE
  5
1a3
100
AcDbEntity
  8
0
 62
7
100
AcDbSpline
 70
8
 71
3
 72
8
 73
4
 74
0
 40
0
 40
0
 40
0
 40
0
 40
1
 40
1
 40
1
 40
1
 10
25.708793
 20
13.225725
 30
0.0
 10
24.907955
 20
13.899276
 30
0.0
 10
24.735783
 20
15.217494
 30
0.0
 10
24.403516
 20
16.356628
 30
0.0
  0
SPLINE
  5
1a4
100
AcDbEntity
  8
0
 62
7
100
AcDbSpline
 70
8
 71
3
 72
8
 73
4
 74
0
 40
0
 40
0
 40
0
 40
0
 40
1
 40
1
 40
1
 40
1
 10
24.403516
 20
16.356628
 30
0.0
 10
24.237382
 20
16.926197
 30
0.0
 10
24.028557
 20
17.451901
 30
0.0
 10
23.645043
 20
17.820655
 30
0.0
  0
SPLINE
  5
1a5
100
AcDbEntity
  8
0
 62
7
100
AcDbSpline
 70
8
 71
3
 72
8
 73
4
 74
0
 40
0
 40
0
 40
0
 40
0
 40
1
 40
1
 40
1
 40
1
 10
23.645043
 20
17.820655
 30
0.0
 10
23.264856
 20
18.186212
 30
0.0
 10
22.709326
 20
18.373901
 30
0.0
 10
21.934071
 20
18.279267
 30
0.0
  0
SPLINE
  5
1a6
100
AcDbEntity
  8
0
 62
7
100
AcDbSpline
 70
8
 71
3
 72
8
 73
4
 74
0
 40
0
 40
0
 40
0
 40
0
 40
1
 40
1
 40
1
 40
1
 10
21.934071
 20
18.279267
 30
0.0
 10
21.928116
 20
18.279292
 30
0.0
 10
21.922382
 20
18.279219
 30
0.0
 10
21.916432
 20
18.279267
 30
0.0
  0
SPLINE
  5
1a7
100
AcDbEntity
  8
0
 62
7
100
AcDbSpline
 70
8
 71
3
 72
8
 73
4
 74
0
 40
0
 40
0
 40
0
 40
0
 40
1
 40
1
 40
1
 40
1
 10
21.916432
 20
18.279267
 30
0.0
 10
20.524743
 20
18.290668
 30
0.0
 10
19.291416
 20
18.940570
 30
0.0
 10
18.044696
 20
19.611003
 30
0.0
  0
SPLINE
  5
1a8
100
AcDbEntity
  8
0
 62
7
100
AcDbSpline
 70
8
 71
3
 72
8
 73
4
 74
0
 40
0
 40
0
 40
0
 40
0
 40
1
 40
1
 40
1
 40
1
 10
18.044696
 20
19.611003
 30
0.0
 10
16.792647
 20
20.284300
 30
0.0
 10
15.527125
 20
20.978183
 30
0.0
 10
14.084766
 20
21.004475
 30
0.0
  0
LWPOLYLINE
  5
1a9
100
AcDbEntity
  8
0
 62
7
100
AcDbPolyline
 90
3
 70
0
 10
25.735252
 20
13.199196
 30
0.0
 10
25.726432
 20
13.216976
 30
0.0
 10
25.708793
 20
13.225725
 30
0.0
  0
SPLINE
  5
1aa
100
AcDbEntity
  8
0
 62
7
100
AcDbSpline
 70
8
 71
3
 72
8
 73
4
 74
0
 40
0
 40
0
 40
0
 40
0
 40
1
 40
1
 40
1
 40
1
 10
13.996571
 20
20.978031
 30
0.0
 10
12.888916
 20
20.162682
 30
0.0
 10
11.729955
 20
19.921346
 30
0.0
 10
10.609905
 20
20.087267
 30
0.0
  0
SPLINE
  5
1ab
100
AcDbEntity
  8
0
 62
7
100
AcDbSpline
 70
8
 71
3
 72
8
 73
4
 74
0
 40
0
 40
0
 40
0
 40
0
 40
1
 40
1
 40
1
 40
1
 10
10.609905
 20
20.087267
 30
0.0
 10
9.489742
 20
20.253005
 30
0.0
 10
8.415968
 20
20.829881
 30
0.0
 10
7.514167
 20
21.656944
 30
0.0
  0
SPLINE
  5
1ac
100
AcDbEntity
  8
0
 62
7
100
AcDbSpline
 70
8
 71
3
 72
8
 73
4
 74
0
 40
0
 40
0
 40
0
 40
0
 40
1
 40
1
 40
1
 40
1
 10
7.514167
 20
21.656944
 30
0.0
 10
5.710564
 20
23.311069
 30
0.0
 10
4.616953
 20
25.964293
 30
0.0
 10
5.221111
 20
28.262708
 30
0.0
  0
LWPOLYLINE
  5
1ad
100
AcDbEntity
  8
0
 62
7
100
AcDbPolyline
 90
3
 70
0
 10
14.084766
 20
21.004475
 30
0.0
 10
14.040668
 20
21.004475
 30
0.0
 10
13.996571
 20
20.978031
 30
0.0
  0
SPLINE
  5
1ae
100
AcDbEntity
  8
0
 62
7
100
AcDbSpline
 70
8
 71
3
 72
8
 73
4
 74
0
 40
0
 40
0
 40
0
 40
0
 40
1
 40
1
 40
1
 40
1
 10
5.221111
 20
28.271514
 30
0.0
 10
5.469952
 20
29.714581
 30
0.0
 10
6.368759
 20
31.094001
 30
0.0
 10
7.020278
 20
32.513666
 30
0.0
  0
SPLINE
  5
1af
100
AcDbEntity
  8
0
 62
7
100
AcDbSpline
 70
8
 71
3
 72
8
 73
4
 74
0
 40
0
 40
0
 40
0
 40
0
 40
1
 40
1
 40
1
 40
1
 10
7.020278
 20
32.513666
 30
0.0
 10
7.667079
 20
33.923053
 30
0.0
 10
8.058724
 20
35.398045
 30
0.0
 10
7.276042
 20
37.002764
 30
0.0
  0
SPLINE
  5
1b0
100
AcDbEntity
  8
0
 62
7
100
AcDbSpline
 70
8
 71
3
 72
8
 73
4
 74
0
 40
0
 40
0
 40
0
 40
0
 40
1
 40
1
 40
1
 40
1
 10
7.276042
 20
37.002764
 30
0.0
 10
7.275505
 20
37.005755
 30
0.0
 10
7.276578
 20
37.008606
 30
0.0
 10
7.276042
 20
37.011569
 30
0.0
  0
SPLINE
  5
1b1
100
AcDbEntity
  8
0
 62
7
100
AcDbSpline
 70
8
 71
3
 72
8
 73
4
 74
0
 40
0
 40
0
 40
0
 40
0
 40
1
 40
1
 40
1
 40
1
 10
7.276042
 20
37.011569
 30
0.0
 10
6.656623
 20
40.484946
 30
0.0
 10
7.551145
 20
43.719077
 30
0.0
 10
9.278056
 20
46.554208
 30
0.0
  0
SPLINE
  5
1b2
100
AcDbEntity
  8
0
 62
7
100
AcDbSpline
 70
8
 71
3
 72
8
 73
4
 74
0
 40
0
 40
0
 40
0
 40
0
 40
1
 40
1
 40
1
 40
1
 10
9.278056
 20
46.554208
 30
0.0
 10
11.006447
 20
49.391769
 30
0.0
 10
13.565728
 20
51.820079
 30
0.0
 10
16.280694
 20
53.671500
 30
0.0
  0
LWPOLYLINE
  5
1b3
100
AcDbEntity
  8
0
 62
7
100
AcDbPolyline
 90
2
 70
0
 10
5.221111
 20
28.262708
 30
0.0
 10
5.221111
 20
28.271514
 30
0.0
  0
SPLINE
  5
1b4
100
AcDbEntity
  8
0
 62
7
100
AcDbSpline
 70
8
 71
3
 72
8
 73
4
 74
0
 40
0
 40
0
 40
0
 40
0
 40
1
 40
1
 40
1
 40
1
 10
16.289514
 20
53.680305
 30
0.0
 10
18.392264
 20
55.256042
 30
0.0
 10
20.783180
 20
56.355320
 30
0.0
 10
23.292153
 20
57.155166
 30
0.0
  0
LWPOLYLINE
  5
1b5
100
AcDbEntity
  8
0
 62
7
100
AcDbPolyline
 90
2
 70
0
 10
16.280694
 20
53.671500
 30
0.0
 10
16.289514
 20
53.680305
 30
0.0
  0
SPLINE
  5
1b6
100
AcDbEntity
  8
0
 62
7
100
AcDbSpline
 70
8
 71
3
 72
8
 73
4
 74
0
 40
0
 40
0
 40
0
 40
0
 40
1
 40
1
 40
1
 40
1
 10
23.300972
 20
57.163971
 30
0.0
 10
25.813864
 20
57.964091
 30
0.0
 10
28.444994
 20
58.461223
 30
0.0
 10
31.017986
 20
58.822027
 30
0.0
  0
LWPOLYLINE
  5
1b7
100
AcDbEntity
  8
0
 62
7
100
AcDbPolyline
 90
2
 70
0
 10
23.292153
 20
57.155166
 30
0.0
 10
23.300972
 20
57.163971
 30
0.0
  0
SPLINE
  5
1b8
100
AcDbEntity
  8
0
 62
7
100
AcDbSpline
 70
8
 71
3
 72
8
 73
4
 74
0
 40
0
 40
0
 40
0
 40
0
 40
1
 40
1
 40
1
 40
1
 10
31.053264
 20
58.830832
 30
0.0
 10
31.321561
 20
58.945090
 30
0.0
 10
31.781860
 20
58.882549
 30
0.0
 10
32.296806
 20
58.733818
 30
0.0
  0
SPLINE
  5
1b9
100
AcDbEntity
  8
0
 62
7
100
AcDbSpline
 70
8
 71
3
 72
8
 73
4
 74
0
 40
0
 40
0
 40
0
 40
0
 40
1
 40
1
 40
1
 40
1
 10
32.296806
 20
58.733818
 30
0.0
 10
32.811751
 20
58.585087
 30
0.0
 10
33.383855
 20
58.362555
 30
0.0
 10
33.884306
 20
58.187013
 30
0.0
  0
SPLINE
  5
1ba
100
AcDbEntity
  8
0
 62
7
100
AcDbSpline
 70
8
 71
3
 72
8
 73
4
 74
0
 40
0
 40
0
 40
0
 40
0
 40
1
 40
1
 40
1
 40
1
 10
33.884306
 20
58.187013
 30
0.0
 10
34.134532
 20
58.099242
 30
0.0
 10
34.363465
 20
58.019302
 30
0.0
 10
34.572222
 20
57.975346
 30
0.0
  0
SPLINE
  5
1bb
100
AcDbEntity
  8
0
 62
7
100
AcDbSpline
 70
8
 71
3
 72
8
 73
4
 74
0
 40
0
 40
0
 40
0
 40
0
 40
1
 40
1
 40
1
 40
1
 10
34.572222
 20
57.975346
 30
0.0
 10
34.780979
 20
57.931390
 30
0.0
 10
34.965366
 20
57.915944
 30
0.0
 10
35.127847
 20
57.966541
 30
0.0
  0
SPLINE
  5
1bc
100
AcDbEntity
  8
0
 62
7
100
AcDbSpline
 70
8
 71
3
 72
8
 73
4
 74
0
 40
0
 40
0
 40
0
 40
0
 40
1
 40
1
 40
1
 40
1
 10
35.127847
 20
57.966541
 30
0.0
 10
35.290328
 20
58.017123
 30
0.0
 10
35.418928
 20
58.172368
 30
0.0
 10
35.436528
 20
58.363416
 30
0.0
  0
SPLINE
  5
1bd
100
AcDbEntity
  8
0
 62
7
100
AcDbSpline
 70
8
 71
3
 72
8
 73
4
 74
0
 40
0
 40
0
 40
0
 40
0
 40
1
 40
1
 40
1
 40
1
 10
35.436528
 20
58.363416
 30
0.0
 10
35.453913
 20
58.552251
 30
0.0
 10
35.390599
 20
58.775965
 30
0.0
 10
35.268958
 20
59.077791
 30
0.0
  0
LWPOLYLINE
  5
1be
100
AcDbEntity
  8
0
 62
7
100
AcDbPolyline
 90
3
 70
0
 10
31.017986
 20
58.822027
 30
0.0
 10
31.035625
 20
58.822027
 30
0.0
 10
31.053264
 20
58.830832
 30
0.0
  0
SPLINE
  5
1bf
100
AcDbEntity
  8
0
 62
7
100
AcDbSpline
 70
8
 71
3
 72
8
 73
4
 74
0
 40
0
 40
0
 40
0
 40
0
 40
1
 40
1
 40
1
 40
1
 10
35.277764
 20
59.077791
 30
0.0
 10
34.428549
 20
61.822467
 30
0.0
 10
33.670477
 20
64.735652
 30
0.0
 10
33.513875
 20
67.615013
 30
0.0
  0
SPLINE
  5
1c0
100
AcDbEntity
  8
0
 62
7
100
AcDbSpline
 70
8
 71
3
 72
8
 73
4
 74
0
 40
0
 40
0
 40
0
 40
0
 40
1
 40
1
 40
1
 40
1
 10
33.513875
 20
67.615013
 30
0.0
 10
33.357272
 20
70.494371
 30
0.0
 10
33.803421
 20
73.337308
 30
0.0
 10
35.339500
 20
75.949388
 30
0.0
  0
LWPOLYLINE
  5
1c1
100
AcDbEntity
  8
0
 62
7
100
AcDbPolyline
 90
2
 70
0
 10
35.268958
 20
59.077791
 30
0.0
 10
35.277764
 20
59.077791
 30
0.0
  0
SPLINE
  5
1c2
100
AcDbEntity
  8
0
 62
7
100
AcDbSpline
 70
8
 71
3
 72
8
 73
4
 74
0
 40
0
 40
0
 40
0
 40
0
 40
1
 40
1
 40
1
 40
1
 10
35.348305
 20
75.966999
 30
0.0
 10
36.161068
 20
78.026981
 30
0.0
 10
37.362474
 20
79.875333
 30
0.0
 10
38.831986
 20
81.487971
 30
0.0
  0
SPLINE
  5
1c3
100
AcDbEntity
  8
0
 62
7
100
AcDbSpline
 70
8
 71
3
 72
8
 73
4
 74
0
 40
0
 40
0
 40
0
 40
0
 40
1
 40
1
 40
1
 40
1
 10
38.831986
 20
81.487971
 30
0.0
 10
40.301494
 20
83.100608
 30
0.0
 10
42.034883
 20
84.477861
 30
0.0
 10
43.911986
 20
85.615471
 30
0.0
  0
LWPOLYLINE
  5
1c4
100
AcDbEntity
  8
0
 62
7
100
AcDbPolyline
 90
3
 70
0
 10
35.339500
 20
75.949388
 30
0.0
 10
35.339500
 20
75.958193
 30
0.0
 10
35.348305
 20
75.966999
 30
0.0
  0
SPLINE
  5
1c5
100
AcDbEntity
  8
0
 62
7
100
AcDbSpline
 70
8
 71
3
 72
8
 73
4
 74
0
 40
0
 40
0
 40
0
 40
0
 40
1
 40
1
 40
1
 40
1
 10
43.964931
 20
85.809583
 30
0.0
 10
41.895872
 20
89.391881
 30
0.0
 10
40.746259
 20
93.662355
 30
0.0
 10
40.842847
 20
97.830486
 30
0.0
  0
SPLINE
  5
1c6
100
AcDbEntity
  8
0
 62
7
100
AcDbSpline
 70
8
 71
3
 72
8
 73
4
 74
0
 40
0
 40
0
 40
0
 40
0
 40
1
 40
1
 40
1
 40
1
 10
40.842847
 20
97.830486
 30
0.0
 10
40.939432
 20
101.998618
 30
0.0
 10
42.272873
 20
106.058379
 30
0.0
 10
45.164375
 20
109.251667
 30
0.0
  0
LWPOLYLINE
  5
1c7
100
AcDbEntity
  8
0
 62
7
100
AcDbPolyline
 90
3
 70
0
 10
43.911986
 20
85.615471
 30
0.0
 10
44.026667
 20
85.686111
 30
0.0
 10
43.964931
 20
85.809583
 30
0.0
  0
SPLINE
  5
1c8
100
AcDbEntity
  8
0
 62
7
100
AcDbSpline
 70
8
 71
3
 72
8
 73
4
 74
0
 40
0
 40
0
 40
0
 40
0
 40
1
 40
1
 40
1
 40
1
 10
45.190819
 20
109.278111
 30
0.0
 10
45.877003
 20
110.500895
 30
0.0
 10
47.204633
 20
111.274478
 30
0.0
 10
48.339361
 20
112.162069
 30
0.0
  0
SPLINE
  5
1c9
100
AcDbEntity
  8
0
 62
7
100
AcDbSpline
 70
8
 71
3
 72
8
 73
4
 74
0
 40
0
 40
0
 40
0
 40
0
 40
1
 40
1
 40
1
 40
1
 10
48.339361
 20
112.162069
 30
0.0
 10
48.906726
 20
112.605866
 30
0.0
 10
49.422391
 20
113.083691
 30
0.0
 10
49.776930
 20
113.670194
 30
0.0
  0
SPLINE
  5
1ca
100
AcDbEntity
  8
0
 62
7
100
AcDbSpline
 70
8
 71
3
 72
8
 73
4
 74
0
 40
0
 40
0
 40
0
 40
0
 40
1
 40
1
 40
1
 40
1
 10
49.776930
 20
113.670194
 30
0.0
 10
50.131469
 20
114.256697
 30
0.0
 10
50.318422
 20
114.951463
 30
0.0
 10
50.217903
 20
115.813319
 30
0.0
  0
SPLINE
  5
1cb
100
AcDbEntity
  8
0
 62
7
100
AcDbSpline
 70
8
 71
3
 72
8
 73
4
 74
0
 40
0
 40
0
 40
0
 40
0
 40
1
 40
1
 40
1
 40
1
 10
50.217903
 20
115.813319
 30
0.0
 10
50.786098
 20
119.071163
 30
0.0
 10
51.943471
 20
122.482817
 30
0.0
 10
53.789778
 20
125.347139
 30
0.0
  0
SPLINE
  5
1cc
100
AcDbEntity
  8
0
 62
7
100
AcDbSpline
 70
8
 71
3
 72
8
 73
4
 74
0
 40
0
 40
0
 40
0
 40
0
 40
1
 40
1
 40
1
 40
1
 10
53.789778
 20
125.347139
 30
0.0
 10
55.640667
 20
128.218575
 30
0.0
 10
58.186151
 20
130.531792
 30
0.0
 10
61.542069
 20
131.600125
 30
0.0
  0
SPLINE
  5
1cd
100
AcDbEntity
  8
0
 62
7
100
AcDbSpline
 70
8
 71
3
 72
8
 73
4
 74
0
 40
0
 40
0
 40
0
 40
0
 40
1
 40
1
 40
1
 40
1
 10
61.542069
 20
131.600125
 30
0.0
 10
63.219147
 20
132.016005
 30
0.0
 10
65.031228
 20
132.482879
 30
0.0
 10
66.816097
 20
132.614361
 30
0.0
  0
SPLINE
  5
1ce
100
AcDbEntity
  8
0
 62
7
100
AcDbSpline
 70
8
 71
3
 72
8
 73
4
 74
0
 40
0
 40
0
 40
0
 40
0
 40
1
 40
1
 40
1
 40
1
 10
66.816097
 20
132.614361
 30
0.0
 10
68.600969
 20
132.745845
 30
0.0
 10
70.355293
 20
132.546842
 30
0.0
 10
71.922555
 20
131.635403
 30
0.0
  0
LWPOLYLINE
  5
1cf
100
AcDbEntity
  8
0
 62
7
100
AcDbPolyline
 90
3
 70
0
 10
45.164375
 20
109.251667
 30
0.0
 10
45.182014
 20
109.269306
 30
0.0
 10
45.190819
 20
109.278111
 30
0.0
  0
SPLINE
  5
1d0
100
AcDbEntity
  8
0
 62
7
100
AcDbSpline
 70
8
 71
3
 72
8
 73
4
 74
0
 40
0
 40
0
 40
0
 40
0
 40
1
 40
1
 40
1
 40
1
 10
72.098944
 20
131.670680
 30
0.0
 10
73.673013
 20
133.635029
 30
0.0
 10
75.513986
 20
135.458469
 30
0.0
 10
77.558180
 20
136.971166
 30
0.0
  0
SPLINE
  5
1d1
100
AcDbEntity
  8
0
 62
7
100
AcDbSpline
 70
8
 71
3
 72
8
 73
4
 74
0
 40
0
 40
0
 40
0
 40
0
 40
1
 40
1
 40
1
 40
1
 10
77.558180
 20
136.971166
 30
0.0
 10
79.602372
 20
138.483866
 30
0.0
 10
81.846104
 20
139.684095
 30
0.0
 10
84.252139
 20
140.393111
 30
0.0
  0
SPLINE
  5
1d2
100
AcDbEntity
  8
0
 62
7
100
AcDbSpline
 70
8
 71
3
 72
8
 73
4
 74
0
 40
0
 40
0
 40
0
 40
0
 40
1
 40
1
 40
1
 40
1
 10
84.252139
 20
140.393111
 30
0.0
 10
84.787844
 20
140.467781
 30
0.0
 10
85.322687
 20
140.499605
 30
0.0
 10
85.857278
 20
140.490125
 30
0.0
  0
LWPOLYLINE
  5
1d3
100
AcDbEntity
  8
0
 62
7
100
AcDbPolyline
 90
3
 70
0
 10
71.922555
 20
131.635403
 30
0.0
 10
72.019569
 20
131.573666
 30
0.0
 10
72.098944
 20
131.670680
 30
0.0
  0
SPLINE
  5
1d4
100
AcDbEntity
  8
0
 62
7
100
AcDbSpline
 70
8
 71
3
 72
8
 73
4
 74
0
 40
0
 40
0
 40
0
 40
0
 40
1
 40
1
 40
1
 40
1
 10
131.277431
 20
108.281528
 30
0.0
 10
131.181579
 20
108.284745
 30
0.0
 10
131.103647
 20
108.278536
 30
0.0
 10
131.039306
 20
108.263889
 30
0.0
  0
SPLINE
  5
1d5
100
AcDbEntity
  8
0
 62
7
100
AcDbSpline
 70
8
 71
3
 72
8
 73
4
 74
0
 40
0
 40
0
 40
0
 40
0
 40
1
 40
1
 40
1
 40
1
 10
131.039306
 20
108.263889
 30
0.0
 10
131.007135
 20
108.256551
 30
0.0
 10
130.983485
 20
108.248451
 30
0.0
 10
130.951111
 20
108.228611
 30
0.0
  0
SPLINE
  5
1d6
100
AcDbEntity
  8
0
 62
7
100
AcDbSpline
 70
8
 71
3
 72
8
 73
4
 74
0
 40
0
 40
0
 40
0
 40
0
 40
1
 40
1
 40
1
 40
1
 10
130.951111
 20
108.228611
 30
0.0
 10
130.918737
 20
108.208771
 30
0.0
 10
130.870627
 20
108.164219
 30
0.0
 10
130.862917
 20
108.096319
 30
0.0
  0
SPLINE
  5
1d7
100
AcDbEntity
  8
0
 62
7
100
AcDbSpline
 70
8
 71
3
 72
8
 73
4
 74
0
 40
0
 40
0
 40
0
 40
0
 40
1
 40
1
 40
1
 40
1
 10
130.862917
 20
108.096319
 30
0.0
 10
130.855212
 20
108.028417
 30
0.0
 10
130.895762
 20
107.972630
 30
0.0
 10
130.924653
 20
107.946389
 30
0.0
  0
SPLINE
  5
1d8
100
AcDbEntity
  8
0
 62
7
100
AcDbSpline
 70
8
 71
3
 72
8
 73
4
 74
0
 40
0
 40
0
 40
0
 40
0
 40
1
 40
1
 40
1
 40
1
 10
130.924653
 20
107.946389
 30
0.0
 10
130.953544
 20
107.920142
 30
0.0
 10
130.973621
 20
107.914966
 30
0.0
 10
131.004028
 20
107.902292
 30
0.0
  0
SPLINE
  5
1d9
100
AcDbEntity
  8
0
 62
7
100
AcDbSpline
 70
8
 71
3
 72
8
 73
4
 74
0
 40
0
 40
0
 40
0
 40
0
 40
1
 40
1
 40
1
 40
1
 10
131.004028
 20
107.902292
 30
0.0
 10
131.064838
 20
107.876948
 30
0.0
 10
131.138473
 20
107.853137
 30
0.0
 10
131.233333
 20
107.840556
 30
0.0
  0
SPLINE
  5
1da
100
AcDbEntity
  8
0
 62
7
100
AcDbSpline
 70
8
 71
3
 72
8
 73
4
 74
0
 40
0
 40
0
 40
0
 40
0
 40
1
 40
1
 40
1
 40
1
 10
131.233333
 20
107.840556
 30
0.0
 10
131.410950
 20
107.816990
 30
0.0
 10
131.678014
 20
107.825400
 30
0.0
 10
132.009444
 20
107.858194
 30
0.0
  0
SPLINE
  5
1db
100
AcDbEntity
  8
0
 62
7
100
AcDbSpline
 70
8
 71
3
 72
8
 73
4
 74
0
 40
0
 40
0
 40
0
 40
0
 40
1
 40
1
 40
1
 40
1
 10
132.009444
 20
107.858194
 30
0.0
 10
132.032022
 20
107.860452
 30
0.0
 10
132.039024
 20
107.855654
 30
0.0
 10
132.062361
 20
107.858194
 30
0.0
  0
LWPOLYLINE
  5
1dc
100
AcDbEntity
  8
0
 62
7
100
AcDbPolyline
 90
2
 70
0
 10
85.857278
 20
140.490125
 30
0.0
 10
85.857306
 20
140.490139
 30
0.0
  0
SPLINE
  5
1dd
100
AcDbEntity
  8
0
 62
7
100
AcDbSpline
 70
8
 71
3
 72
8
 73
4
 74
0
 40
0
 40
0
 40
0
 40
0
 40
1
 40
1
 40
1
 40
1
 10
132.088805
 20
108.131597
 30
0.0
 10
131.738661
 20
108.231541
 30
0.0
 10
131.469119
 20
108.275090
 30
0.0
 10
131.277416
 20
108.281528
 30
0.0
  0
LWPOLYLINE
  5
1de
100
AcDbEntity
  8
0
 62
7
100
AcDbPolyline
 90
2
 70
0
 10
132.062361
 20
107.858194
 30
0.0
 10
132.088805
 20
108.131597
 30
0.0
  0
LWPOLYLINE
  5
1df
100
AcDbEntity
  8
0
 62
7
100
AcDbPolyline
 90
2
 70
0
 10
131.277416
 20
108.281528
 30
0.0
 10
131.277431
 20
108.281528
 30
0.0
  0
ENDSEC
  0
SECTION
  2
OBJECTS
  0
DICTIONARY
  5
C
330
0
100
AcDbDictionary
  3
ACAD_GROUP
350
D
  3
ACAD_MLINESTYLE
350
17
  0
DICTIONARY
  5
D
330
C
100
AcDbDictionary
  0
DICTIONARY
  5
1A
330
C
100
AcDbDictionary
  0
DICTIONARY
  5
17
330
C
100
AcDbDictionary
  3
STANDARD
350
18
  0
DICTIONARY
  5
19
330
C
100
AcDbDictionary
  0
ENDSEC
  0
EOF
