<?xml version="1.0" encoding="UTF-8" standalone="no"?>
<!-- Created with Inkscape (http://www.inkscape.org/) -->

<svg
   xmlns:dc="http://purl.org/dc/elements/1.1/"
   xmlns:cc="http://creativecommons.org/ns#"
   xmlns:rdf="http://www.w3.org/1999/02/22-rdf-syntax-ns#"
   xmlns:svg="http://www.w3.org/2000/svg"
   xmlns="http://www.w3.org/2000/svg"
   xmlns:sodipodi="http://sodipodi.sourceforge.net/DTD/sodipodi-0.dtd"
   xmlns:inkscape="http://www.inkscape.org/namespaces/inkscape"
   width="744.09448"
   height="1052.3622"
   id="svg2"
   version="1.1"
   inkscape:version="0.48.0 r9654"
   sodipodi:docname="caterpillar-contour-line.svg">
  <defs
     id="defs4" />
  <sodipodi:namedview
     id="base"
     pagecolor="#ffffff"
     bordercolor="#666666"
     borderopacity="1.0"
     inkscape:pageopacity="0.0"
     inkscape:pageshadow="2"
     inkscape:zoom="1.6516069"
     inkscape:cx="200.7942"
     inkscape:cy="150.34282"
     inkscape:document-units="px"
     inkscape:current-layer="layer1"
     showgrid="true"
     inkscape:window-width="1280"
     inkscape:window-height="752"
     inkscape:window-x="0"
     inkscape:window-y="0"
     inkscape:window-maximized="0"
     units="mm"
     showguides="true"
     inkscape:guide-bbox="true">
    <inkscape:grid
       type="xygrid"
       id="grid2985"
       empspacing="5"
       visible="true"
       enabled="true"
       snapvisiblegridlinesonly="true"
       units="mm"
       spacingx="5mm"
       spacingy="5mm"
       dotted="false" />
  </sodipodi:namedview>
  <metadata
     id="metadata7">
    <rdf:RDF>
      <cc:Work
         rdf:about="">
        <dc:format>image/svg+xml</dc:format>
        <dc:type
           rdf:resource="http://purl.org/dc/dcmitype/StillImage" />
        <dc:title></dc:title>
      </cc:Work>
    </rdf:RDF>
  </metadata>
  <g
     inkscape:label="Ebene 1"
     inkscape:groupmode="layer"
     id="layer1"
     transform="translate(0,-2.5390623e-6)">
    <path
       style="font-size:medium;font-style:normal;font-variant:normal;font-weight:normal;font-stretch:normal;text-indent:0;text-align:start;text-decoration:none;line-height:normal;letter-spacing:normal;word-spacing:normal;text-transform:none;direction:ltr;block-progression:tb;writing-mode:lr-tb;text-anchor:start;baseline-shift:baseline;color:#000000;fill:none;stroke:none;stroke-width:1;marker:none;visibility:visible;display:inline;overflow:visible;enable-background:accumulate;font-family:Sans;-inkscape-font-specification:Sans"
       d="m 304.2188,554.5625 c 5.74487,0.10187 11.41103,1.52304 16.625,3.96875 l 0.0312,0 c 6.94181,3.26138 13.09226,8.34731 17.53125,14.5 l 0.25,0.375 0.40625,-0.25 c 8.00382,-4.94973 17.74415,-7.77295 27.3125,-7.71875 9.56835,0.0542 18.96561,3.00053 26.3125,9.59375 l 0.0312,0 0,0.0312 c 4.93689,3.3792 9.20804,7.56279 12.625,12.34375 3.41695,4.78096 5.98642,10.14885 7.53125,15.9375 l 0.0937,0.34375 0.3125,0.0312 c 5.25237,0.73309 10.90596,1.55493 16.125,3.3125 5.21903,1.75756 10.00924,4.45436 13.65625,8.9375 l 0.0312,0 c 6.29171,6.86797 11.61832,14.6962 15.5625,23.125 3.94419,8.4288 6.486,17.4679 7.1875,26.8125 l 0.0625,0.53125 0.5,-0.0625 c 2.15139,-0.29563 3.8255,0.19455 5.3125,1.1875 1.487,0.99295 2.79223,2.50329 4.03125,4.21875 2.44422,3.3841 4.67527,7.51254 8.25,9.8125 0.0124,0.008 0.0188,0.0233 0.0312,0.0312 5.83027,8.31871 9.11153,17.98193 10.0625,27.9375 0.95233,9.96973 -0.43579,20.23605 -3.9375,29.71875 l -0.0312,0.0625 0,0.0937 c -0.24073,4.28102 1.68213,8.27428 3.6875,12.28125 2.00537,4.00695 4.08753,8.02675 4.34375,12.3125 l 0,0.0312 0.0312,0.0625 c 2.56385,10.3466 2.86469,21.23192 0.75,31.5625 -2.11179,10.31647 -6.64665,20.0588 -13.78125,28.1875 -0.01,0.0111 -0.0215,0.0201 -0.0312,0.0312 -4.41044,4.08505 -4.79259,9.23668 -4.4375,14.46875 0.35602,5.24586 1.41646,10.64753 0.0312,15.53125 l -0.0312,0.0625 0,0.0625 c -0.65151,9.24707 -3.20229,18.09459 -7.15625,26.3125 -3.95397,8.21791 -9.3134,15.80803 -15.53125,22.53125 l -0.40625,0.4375 0.5,0.3125 c 2.25534,1.43795 6.23359,1.68994 10.5625,2.03125 4.31784,0.34044 8.96,0.71735 12.3125,2.03125 0.009,0.003 0.0227,-0.003 0.0312,0 5.49786,2.71289 11.44004,5.79842 16.5,9.6875 5.06734,3.89476 9.2234,8.58647 11.1875,14.5625 l 0.3125,0.875 0.5625,-0.71875 c 2.68886,-3.36039 5.4687,-6.67309 8.375,-9.875 2.9063,-3.20192 5.95446,-6.27595 9.125,-9.21875 l 0.25,-0.25 -0.15625,-0.34375 c -2.11984,-4.6254 -4.48533,-9.25993 -7,-13.78125 -2.51466,-4.52132 -5.16098,-8.93534 -7.875,-13.09375 l -0.0937,-0.125 -0.15625,-0.0625 c -7.46289,-2.79025 -11.63141,-9.51656 -12.5625,-16.9375 -0.93109,-7.42093 1.40165,-15.47861 6.90625,-20.78125 l 0.0625,-0.0625 0.0312,-0.0312 c 4.30399,-6.76929 13.12933,-9.84316 21.0625,-8.90625 3.96658,0.46846 7.68652,1.94206 10.5,4.40625 2.81348,2.46419 4.72283,5.89376 5.09375,10.4375 l 0,0.0312 0.0312,0.0312 c 0.80313,4.43981 -1.08254,9.13046 -2.15625,13.75 -0.53685,2.30976 -0.86268,4.59871 -0.5,6.84375 0.35958,2.2259 1.46569,4.36875 3.625,6.34375 l -0.0312,0.0312 c 2.1318,2.43713 4.03845,5.95254 6.21875,9.03125 2.1803,3.07871 4.67521,5.76824 8.0625,6.46875 l 0.125,0.0312 0.125,-0.0312 c 3.72589,-1.09453 7.54512,-1.0789 11.3125,-0.40625 3.76737,0.67264 7.45339,1.98264 10.90625,3.5 l 0.4375,0.1875 L 581.5,898.875 c 2.84081,-5.2576 5.55691,-10.60078 8.09375,-16.03125 2.53683,-5.43047 4.89476,-10.94799 6.96875,-16.5625 L 596.6562,866 l -0.1875,-0.21875 c -6.31607,-6.69652 -5.66585,-15.66996 -1.28125,-22.65625 4.38461,-6.98628 12.48664,-11.85385 20.9375,-10.3125 l 0.0625,0 0.0937,0 c 4.39963,-0.57052 7.9676,0.4002 10.875,2.375 2.9074,1.9748 5.14177,4.97231 6.75,8.5 3.21646,7.05537 3.89177,16.19075 2.53125,23 l 0,0.0312 c -0.47546,5.5669 -3.87699,8.99641 -7.65625,12.40625 -3.75652,3.38931 -7.89753,6.73776 -9.59375,12.125 -0.0103,0.0326 -0.0212,0.061 -0.0312,0.0937 -2.16021,4.1152 -4.22587,8.50887 -5.90625,13 -1.69198,4.52213 -2.99537,9.13892 -3.59375,13.71875 l -0.0312,0.1875 0.0937,0.125 c 5.0711,8.32922 8.08657,17.95614 9.125,27.8125 1.03736,9.84614 0.0972,19.92211 -2.75,29.21875 -0.003,0.01 0.003,0.0216 0,0.0312 -2.55138,6.29534 -5.96944,12.14326 -9.96875,17.59375 -4.00486,5.45804 -8.58422,10.497 -13.40625,15.1563 l -0.25,0.25 0.125,0.2813 c 3.22588,9.6181 -1.22504,19.3093 -8.65625,25.1562 -7.42069,5.8387 -17.73099,7.8019 -26.3125,2.0311 -0.0113,-0.01 -0.02,-0.021 -0.0312,-0.031 -2.75652,-2.401 -3.88422,-6.0491 -4.5625,-9.8438 -0.68107,-3.8099 -0.89387,-7.7109 -1.90625,-10.5624 l -0.125,-0.4063 -0.40625,0.062 c -3.828,0.6155 -7.7731,0.9094 -10.8125,2.375 -2.99861,1.4459 -5.03382,4.1719 -4.96875,9.25 -2.69584,4.2593 -5.79017,8.2547 -9.5625,10.9375 -3.78678,2.6931 -8.20225,4.0651 -13.65625,3.1563 -0.009,0 -0.0222,0 -0.0312,0 -4.94946,-1.816 -8.77489,-5.1557 -11.65625,-9.2813 -2.89955,-4.1516 -4.8443,-9.1115 -6.03125,-14.0937 l -0.0937,-0.4376 -0.46875,0.063 c -3.9296,0.5058 -7.99105,0.8102 -12.09375,1.0624 -4.10271,0.2523 -8.23476,0.4705 -12.3125,0.7813 l -0.34375,0.031 -0.0937,0.2812 c -1.88532,5.408 -5.13775,11.2257 -9.5,15.375 -4.36225,4.1493 -9.79442,6.6402 -16.15625,5.625 -6.8857,-0.9463 -11.11344,-5.1219 -14.3125,-10.4688 -3.19907,-5.3468 -5.29731,-11.843 -7.875,-17.2187 l -0.125,-0.25 -0.28125,-0.031 c -4.60508,-0.5025 -9.20392,-1.1799 -13.78125,-1.9374 -4.57733,-0.7577 -9.14227,-1.5723 -13.6875,-2.4063 l -0.40625,-0.094 -0.15625,0.4062 c -2.26823,6.9973 -7.13976,13.5333 -13.28125,17.4375 -6.1415,3.9042 -13.51124,5.2133 -20.96875,1.875 -7.71002,-3.5165 -12.98835,-10.4209 -15.5,-18.3437 -2.51165,-7.923 -2.22819,-16.85497 1.15625,-24.3125 l 0.0937,-0.21875 -0.125,-0.21875 c -1.69128,-3.02786 -4.4708,-5.77776 -6.8125,-8.78125 -2.3417,-3.00348 -4.21444,-6.24012 -4.28125,-10.15625 l -0.0312,-0.40625 -0.375,-0.0625 c -4.18178,-0.82748 -9.34021,-1.67716 -13.28125,-3.6875 -3.94105,-2.01033 -6.66551,-5.04119 -6.25,-10.5625 l 0,-0.0937 -0.0312,-0.0937 c -2.27952,-8.8169 -0.0544,-17.87242 4.8125,-25.3125 4.86682,-7.44007 12.39222,-13.22703 20.65625,-15.46875 l 0.21875,-0.0625 0.0937,-0.1875 c 8.02171,-15.09283 15.45586,-30.68691 21.09375,-46.84375 5.63789,-16.15685 9.48667,-32.87784 10.28125,-50.25 l -0.0312,0 c 1.67384,-13.0034 0.79119,-26.12384 -1.875,-38.9375 -2.6683,-12.82384 -7.1111,-25.3286 -12.5625,-37.03125 l -0.0312,-0.0625 -0.0312,-0.0312 c -10.12749,-13.38278 -26.77036,-18.73719 -42.96875,-17.25 -16.17546,1.48507 -31.94813,9.79363 -40.375,23.78125 -0.012,0.0198 -0.0193,0.0426 -0.0312,0.0625 -8.8309,11.58022 -17.02768,24.23043 -22.84375,37.75 -5.82517,13.54073 -9.25899,27.94185 -8.625,43.03125 -0.14586,10.03876 1.51484,19.852 3.6875,29.59375 2.17266,9.74176 4.84382,19.41198 6.65625,29.09375 l 0,0.0312 0.0312,0.0312 c 1.27903,3.72037 5.22297,5.40157 8.625,7.375 1.70102,0.98671 3.26959,2.04768 4.375,3.40625 1.10541,1.35857 1.76641,3.00084 1.65625,5.3125 l 0,0.0625 0.0312,0.0937 c 1.9115,6.6159 1.8777,14.32797 -0.3125,21.09375 -2.1902,6.76578 -6.50105,12.56476 -13.21875,15.4375 -6.08548,0.63194 -9.45252,4.70549 -12.21875,9.34375 -2.78731,4.6736 -5.06045,9.93133 -9,13.1875 l -0.0625,0.0312 -0.0312,0.0625 c -2.67382,3.4532 -5.6525,6.75641 -8.96875,9.65625 -3.31626,2.89984 -6.95365,5.39392 -10.9375,7.21875 l -0.375,0.15625 0.0937,0.40625 c 1.7402,7.30853 0.15873,15.86087 -4,22.1875 -4.15874,6.32655 -10.83182,10.44005 -19.375,9.09375 l -0.0312,0 -0.0312,0 c -4.0276,-0.04 -7.7686,-1.6885 -10.71875,-4.25 -2.95012,-2.56157 -5.09173,-6.06428 -5.96875,-9.8125 l -0.0937,-0.375 -0.40625,0 c -5.24922,0.10457 -10.72413,0.75321 -16.09375,1.25 -5.36962,0.49679 -10.64776,0.84818 -15.46875,0.375 l -0.46875,-0.0625 -0.0625,0.5 c -1.35781,10.5637 -9.99462,17.8369 -19.8125,20.25 -9.81787,2.4132 -20.719215,-0.07 -26.59375,-8.9687 l -0.03125,-0.063 -0.0625,-0.031 c -2.837618,-2.3866 -3.447674,-7.05745 -4.625,-11.09375 -0.588663,-2.01816 -1.328595,-3.88089 -2.6875,-5.1875 -1.34712,-1.29528 -3.315536,-1.96032 -6.0625,-1.625 -0.0211,-9e-5 -0.04142,1.7e-4 -0.0625,0 -4.931182,-0.0404 -9.301238,-2.3432 -13.71875,-4.71875 -4.436395,-2.3857 -8.920529,-4.84434 -14.03125,-4.9375 l -0.15625,0 -0.15625,0.0937 c -3.924762,2.88903 -8.031319,3.74416 -12,3.15625 C 33.625069,980.59959 29.820359,978.55554 26.625,975.625 20.234282,969.76393 16.359282,960.36274 18.5,952.21875 l 0,-0.0312 c 0.881721,-5.11323 4.066468,-10.00094 6.375,-15.03125 2.291815,-4.99389 3.679533,-10.22024 0.90625,-15.90625 -0.0019,-0.0106 0.0019,-0.0207 0,-0.0312 -2.194789,-12.30724 0.974777,-23.76676 7.09375,-33.8125 6.124223,-10.05435 15.192539,-18.6586 24.8125,-25.21875 l 0.03125,-0.0312 c 7.450691,-5.58332 15.922438,-9.4784 24.8125,-12.3125 l 0.03125,-0.0312 c 8.903948,-2.83507 18.22685,-4.59656 27.34375,-5.875 l 0.0625,0 0.0625,-0.0312 c 0.95066,-0.40485 2.58164,-0.18325 4.40625,0.34375 1.82461,0.527 3.85175,1.3155 5.625,1.9375 0.88663,0.311 1.69781,0.59425 2.4375,0.75 0.73969,0.15575 1.39303,0.21048 1.96875,0.0312 0.57572,-0.17923 1.03139,-0.72931 1.09375,-1.40625 0.0616,-0.6691 -0.16274,-1.46179 -0.59375,-2.53125 l 0.0312,0 c -3.00903,-9.72523 -5.69511,-20.04754 -6.25,-30.25 -0.55489,-10.20245 1.02595,-20.27585 6.46875,-29.53125 l 0,-0.0312 0.0312,-0.0312 c 2.87987,-7.29915 7.13682,-13.84843 12.34375,-19.5625 5.20692,-5.71407 11.34885,-10.5941 18,-14.625 L 156,748.75 l -0.21875,-0.4375 c -7.33131,-12.69318 -11.40474,-27.82478 -11.0625,-42.59375 0.34223,-14.76897 5.06702,-29.15395 15.3125,-40.46875 l 0.0625,-0.0625 0.0312,-0.0312 c 2.43136,-4.3327 7.13556,-7.07374 11.15625,-10.21875 2.01035,-1.57251 3.83751,-3.26559 5.09375,-5.34375 1.25624,-2.07816 1.91867,-4.53993 1.5625,-7.59375 2.01329,-11.54354 6.11422,-23.63208 12.65625,-33.78125 6.55827,-10.17438 15.5777,-18.37082 27.46875,-22.15625 5.9424,-1.47359 12.36316,-3.12787 18.6875,-3.59375 6.32435,-0.46589 12.54046,0.23924 18.09375,3.46875 l 0.34375,0.21875 0.28125,-0.34375 c 5.57741,-6.96029 12.10054,-13.4213 19.34375,-18.78125 7.2432,-5.35996 15.19343,-9.61274 23.71875,-12.125 1.89817,-0.26458 3.79328,-0.37734 5.6875,-0.34375 z"
       id="path3013"
       inkscape:connector-curvature="0" />
    <path
       style="font-size:medium;font-style:normal;font-variant:normal;font-weight:normal;font-stretch:normal;text-indent:0;text-align:start;text-decoration:none;line-height:normal;letter-spacing:normal;word-spacing:normal;text-transform:none;direction:ltr;block-progression:tb;writing-mode:lr-tb;text-anchor:start;baseline-shift:baseline;color:#000000;fill-opacity:1;fill-rule:nonzero;stroke:none;stroke-width:1;marker:none;visibility:visible;display:inline;overflow:visible;enable-background:accumulate;font-family:Sans;-inkscape-font-specification:Sans"
       d="m 465.15625,668.6875 c -0.33963,-0.0114 -0.61577,0.0106 -0.84375,0.0625 -0.11399,0.026 -0.19779,0.0547 -0.3125,0.125 -0.11471,0.0703 -0.28518,0.22816 -0.3125,0.46875 -0.0273,0.2406 0.11638,0.43827 0.21875,0.53125 0.10237,0.093 0.17351,0.11134 0.28125,0.15625 0.21547,0.0898 0.47638,0.17417 0.8125,0.21875 0.62935,0.0835 1.57564,0.0537 2.75,-0.0625 0.08,-0.008 0.10481,0.009 0.1875,0 l 0.0937,-0.96875 c -1.24067,-0.35413 -2.19574,-0.50844 -2.875,-0.53125 z"
       id="path3128"
       inkscape:connector-curvature="0" />
    <path
       inkscape:connector-curvature="0"
       id="path2987"
       d="m 164.74002,790.43013 -1.52223,0.0361 -1.52479,0.15735 -0.008,0 -0.008,0 -0.0161,0 -0.0162,0 -6.45682,2.6131 -5.94084,3.72275 -5.28322,4.51018 -4.6478,5.11454 -4.59408,-1.58358 -4.83716,-0.17371 -4.96767,0.73411 -4.76988,1.1199 0,0.008 0,0.008 -0.008,0 -0.008,0 -8.29679,4.57651 -6.16445,7.07954 -4.20163,8.57985 -2.408298,9.10574 0,0.0162 0,0.0161 0,0.0242 0,0.0241 -0.07475,1.98023 -0.650734,1.61492 -1.099909,1.37756 -1.415088,1.23417 -3.175421,2.38807 -2.676786,2.98049 -0.01613,0.0241 -0.01613,0.0242 -5.946209,9.92845 -2.066317,11.25556 1.361972,11.40702 4.312895,10.61533 -4.881428,3.43668 -4.340232,4.07607 -3.676179,4.78912 -2.772533,5.41597 -0.0081,0.0161 -0.008,0.0162 -2.871535,7.56873 -0.514038,7.90818 1.145045,7.98029 2.095433,7.75457 0.008,0.008 0.008,0.008 0,0.008 0,0.008 0.215577,0.66152 0.04237,0.41863 -0.05055,0.19543 -0.142912,0.0786 -0.303706,0.0274 -0.454018,-0.0597 -0.564737,-0.14538 -0.644397,-0.20929 -1.427666,-0.51961 -1.490376,-0.49606 -1.365492,-0.28608 -1.181749,0.12485 -0.03224,0.008 -0.03224,0.008 -7.093761,1.21257 -7.028919,1.81832 -6.761628,2.67974 -6.216406,3.76897 0,-0.008 0,-0.008 -7.15686,5.89963 -5.805051,7.28799 -3.493559,8.44767 -0.214451,9.36689 0,0.0161 0,0.0162 0.0081,0.0162 0.0081,0.0161 0.732613,4.00775 -1.184022,3.82745 -1.916389,3.83616 -1.404698,4.01518 0,0.007 0,0.009 0.452061,6.77595 3.884698,5.7991 2.794012,1.9592 3.138803,1.0234 3.255329,-0.1445 3.225628,-1.516 3.541839,0.805 3.406648,1.6776 3.516479,1.7071 3.835052,0.7919 0.0081,0 0.0081,0 0.0081,0 0.0081,0 1.648576,0.07 1.092128,0.6229 0.731074,1.0588 0.510303,1.3917 0.865857,3.1644 1.64914,2.7361 -0.0081,0.01 -0.0081,0.01 6.360246,4.7 7.907531,0.1367 6.912258,-3.716 3.66363,-6.9406 3.837892,0.078 3.997293,-0.2716 4.083575,-0.3854 4.009559,-0.2434 1.19122,2.788 1.968649,2.3226 2.705349,1.6746 3.16297,0.6469 0,-0.01 0,-0.01 6.11041,-0.928 4.33651,-3.9892 2.22694,-5.6155 -0.0666,-6.0244 2.93535,-1.6577 2.67503,-2.0503 2.45717,-2.4034 2.20203,-2.61051 0.0161,-0.0243 0.0161,-0.0244 2.63723,-3.23945 2.08645,-3.66075 2.40332,-3.07205 3.57785,-1.50651 0.0241,-0.008 0.0241,-0.008 0.0162,0 0.0162,0 4.48453,-3.37473 2.6413,-4.91186 0.89848,-5.62499 -0.73727,-5.56353 -0.008,0 -0.008,0 -0.22683,-1.69315 -0.72436,-1.32162 -1.1046,-1.0344 -1.29755,-0.83573 -2.57107,-1.5369 -1.65284,-1.99377 -0.008,0 -0.008,0 -1.63585,-7.49383 -1.76586,-7.4833 -1.398,-7.53708 -0.50436,-7.6174 0,-0.008 0,-0.008 0.96926,-11.28028 3.4481,-10.70983 5.27327,-10.05358 6.44727,-9.3248 0.008,-0.008 0.008,-0.008 0,-0.008 0,-0.008 8.74044,-8.38909 11.71809,-3.65388 12.00242,1.52921 9.68138,7.12819 3.76117,9.27696 2.68755,9.69837 1.31788,9.94216 -0.35058,10.00049 0,0.008 0,0.008 0,0.008 0,0.008 -1.70258,13.11525 -3.56924,12.66348 -4.94037,12.19037 -5.86122,11.79884 -6.10239,3.07557 -4.74757,5.09817 -2.69655,6.44189 0.1493,7.01981 0.8821,3.64732 2.61634,2.22094 3.40003,1.2038 3.41948,0.7146 0.73526,2.8671 1.55403,2.4532 1.85586,2.2442 1.56195,2.157 -1.42794,6.2916 0.86369,6.4447 3.0867,5.7633 5.18377,4.0227 5.93131,0.9559 5.38618,-1.9556 4.226,-3.9318 2.73861,-5.1287 3.4258,0.6267 3.44208,0.5986 3.48287,0.5383 3.49785,0.4451 1.8784,4.3614 2.16818,4.425 3.1058,3.6984 4.63266,1.9603 4.80812,-0.4851 3.96212,-2.5618 2.95601,-3.7446 1.99337,-4.2196 3.09436,-0.2033 3.11254,-0.1836 3.05646,-0.2206 3.00532,-0.3115 1.23608,3.7682 1.89154,3.4705 2.72234,2.9548 3.58128,2.0268 0.0161,0.01 0.0161,0.01 0.0242,0 0.0242,0 4.04416,-0.1404 3.37186,-1.5846 2.78376,-2.6153 2.31072,-3.2047 0.0242,-0.032 0.0241,-0.032 0,-0.04 0,-0.041 0.57745,-2.9085 1.69573,-1.5089 2.38975,-0.7009 2.80146,-0.4277 0.48404,2.3684 0.41878,2.8069 0.81684,2.9348 1.73041,2.4496 0.008,0.01 0.008,0.01 0.008,0 0.008,0 7.34978,1.8224 6.8535,-2.8703 4.41978,-5.9222 0.23942,-7.4588 3.58684,-3.7386 3.28104,-4.0483 2.89362,-4.4324 2.32984,-4.7732 0,-0.01 0,-0.01 1.48924,-7.5431 -0.0383,-7.75629 -1.58132,-7.50995 -3.14236,-6.93516 0.69596,-3.46059 1.10968,-3.45565 1.42865,-3.4141 1.61836,-3.27644 0,-0.008 0,-0.008 0.008,-0.0162 0.008,-0.0161 1.97808,-3.36266 2.84233,-2.71526 2.67899,-2.86648 1.41593,-3.82406 0,-0.0161 0,-0.0162 0.24225,-6.02926 -1.58035,-6.12657 -1.55213,-2.59633 -2.10752,-1.99837 -2.66427,-1.16265 -3.2363,-0.14322 -0.0403,-7.5e-4 -0.0403,7.5e-4 -6.45599,1.08342 -4.7809,4.4786 -1.81234,6.12673 2.40885,6.06134 -1.67082,4.21634 -1.84372,4.15086 -1.97444,4.05287 -2.08825,3.99189 -2.68971,-1.04063 -2.82395,-0.73275 -2.99321,-0.2405 -3.00409,0.45007 -2.06264,-1.10962 -1.7421,-2.018 -1.59798,-2.43115 -1.64249,-2.26029 0,-0.008 0,-0.008 -0.008,0 -0.008,0 -1.18746,-1.47155 -0.52145,-1.54323 -0.0363,-1.62736 0.29421,-1.70985 0.91339,-3.57574 0.1829,-3.69518 0,-0.0162 0,-0.0161 -0.90395,-3.27599 -1.90124,-2.44724 -2.62478,-1.60589 -3.06621,-0.78014 -6.37321,0.83124 -4.9604,3.95693 -0.0163,0.0242 -0.016,0.0241 -3.13644,5.14337 -0.55546,5.96454 2.05079,5.4449 4.65587,3.64778 2.05328,3.27604 1.97716,3.41451 1.83015,3.43925 1.6844,3.477 -2.33854,2.28346 -2.24004,2.37572 -2.07759,2.36747 -2.00122,2.42064 -2.34577,-4.0785 -3.42583,-3.28909 -4.24488,-2.76472 -4.38027,-2.2814 -0.008,0 -0.008,0 -3.11297,-0.75548 -3.40023,-0.3408 -2.85438,-0.30738 -2.06276,-0.56319 4.34561,-5.45186 3.5057,-6.01073 2.5165,-6.66948 1.22375,-7.0824 0.34447,-4.07846 -0.34447,-4.06305 0.19994,-3.78752 1.94426,-3.27381 0.008,-0.008 0.008,-0.008 4.61156,-6.98061 2.62712,-7.83531 0.71939,-8.22918 -1.10631,-8.23115 0,-0.0242 0,-0.0241 -0.81775,-3.36517 -1.47154,-3.14804 -1.3537,-3.04154 -0.50032,-3.02024 0,-0.008 0,-0.008 1.88143,-7.64305 0.14993,-7.83386 -1.67927,-7.65371 -3.60868,-7.0171 -0.0161,-0.0241 -0.0161,-0.0242 -0.0242,-0.0161 -0.0242,-0.0162 -2.24348,-2.222 -1.93206,-2.77575 -1.02968,-1.27857 -1.179,-1.02684 -1.30031,-0.56998 -1.53712,-0.10714 -1.24855,-7.07893 -2.47558,-6.72131 -3.60503,-6.329 -4.52035,-5.71397 0.008,0 0.008,0 -3.34531,-2.93274 -3.94175,-1.82318 -4.13966,-1.0641 -4.11469,-0.66094 -1.59675,-4.30301 -2.30471,-3.9191 -3.00781,-3.5073 -3.60212,-2.95754 -0.0157,-0.008 -0.0166,-0.008 -6.5142,-3.8252 -7.36665,-1.23705 -7.37222,1.01589 -6.7827,2.93395 -4.0753,-4.2762 -5.01739,-3.17206 -0.008,-0.008 -0.008,-0.008 -4.28366,-1.51151 -4.50271,-0.58431 1.1e-4,-10e-4 z"
       style="font-size:medium;font-style:normal;font-variant:normal;font-weight:normal;font-stretch:normal;text-indent:0;text-align:start;text-decoration:none;line-height:normal;letter-spacing:normal;word-spacing:normal;text-transform:none;direction:ltr;block-progression:tb;writing-mode:lr-tb;text-anchor:start;baseline-shift:baseline;color:#000000;fill:none;stroke:#000000;stroke-width:0.51589704;stroke-opacity:1;marker:none;visibility:visible;display:inline;overflow:visible;enable-background:accumulate;font-family:Sans;-inkscape-font-specification:Sans"
       sodipodi:nodetypes="ccccccccccccccccccccccccccccccccccccccccccccccccccccccccccccccccccccccccccccccccccccccccccccccccccccccccccccccccccccccccccccccccccccccccccccccccccccccccccccccccccccccccccccccccccccccccccccccccccccccccccccccccccccccccccccccccccccccccccccccccccccccccccccccccccccccccccccccccccccccccccccccccccccccccccccccccccccccccccccccccccccccccccccccccccccccccccccccccccccccccccccccccccccccccccccccccccccccccccccccccccccccc" />
  </g>
</svg>
