<?xml version="1.0" encoding="UTF-8" standalone="no"?>
<!-- Created with Inkscape (http://www.inkscape.org/) -->

<svg
   xmlns:dc="http://purl.org/dc/elements/1.1/"
   xmlns:cc="http://creativecommons.org/ns#"
   xmlns:rdf="http://www.w3.org/1999/02/22-rdf-syntax-ns#"
   xmlns:svg="http://www.w3.org/2000/svg"
   xmlns="http://www.w3.org/2000/svg"
   xmlns:sodipodi="http://sodipodi.sourceforge.net/DTD/sodipodi-0.dtd"
   xmlns:inkscape="http://www.inkscape.org/namespaces/inkscape"
   width="210mm"
   height="297mm"
   id="svg2"
   version="1.1"
   inkscape:version="0.48.3.1 r9886"
   sodipodi:docname="unicorn-contour.svg">
  <defs
     id="defs4" />
  <sodipodi:namedview
     id="base"
     pagecolor="#ffffff"
     bordercolor="#666666"
     borderopacity="1.0"
     inkscape:pageopacity="0.0"
     inkscape:pageshadow="2"
     inkscape:zoom="1.979899"
     inkscape:cx="312.77811"
     inkscape:cy="209.1581"
     inkscape:document-units="px"
     inkscape:current-layer="layer1"
     showgrid="false"
     inkscape:window-width="1871"
     inkscape:window-height="1176"
     inkscape:window-x="49"
     inkscape:window-y="24"
     inkscape:window-maximized="1" />
  <metadata
     id="metadata7">
    <rdf:RDF>
      <cc:Work
         rdf:about="">
        <dc:format>image/svg+xml</dc:format>
        <dc:type
           rdf:resource="http://purl.org/dc/dcmitype/StillImage" />
        <dc:title></dc:title>
      </cc:Work>
    </rdf:RDF>
  </metadata>
  <g
     inkscape:label="Ebene 1"
     inkscape:groupmode="layer"
     id="layer1">
    <path
       style="fill:#000000"
       d="m 301.51561,986.255 10.14431,-14.26333 12.72048,-14.48482 16.41065,-17.89359 4.76641,-5.2267 14.98465,-14.08781 15.27951,-12.73579 1.63492,-1.19003 0.97204,-0.83615 7.69777,-6.59688 8.80223,-6.43011 3.70625,-2.42009 3.29375,-2.56221 3.80781,-2.87709 4.94219,-3.17715 4.06094,-2.7046 1.68906,-1.74096 1.39531,-1.69821 3.35469,-2.60181 11.40495,-8.03208 4.59299,-3.93677 10.75158,-6.67216 14.8866,-6.95678 1.35305,-0.83931 -1.10305,-1.63516 -1.15551,-1.48812 -0.48061,-1.03907 -1.01675,-2.09744 -2.44454,-4.03272 -6.52009,-12.04302 -3.96732,-10.72112 -1.01893,-3.97497 -1.04431,-3.28536 -0.50533,-2.23668 0.30795,-1.42259 2.49741,-0.9113 4.78975,-0.97632 5.14348,-1.2533 3.14574,-1.6137 1.16305,-1.69385 -2.66305,-0.87581 -10.59878,-5.1366 -9.26828,-7.95337 -3.42657,-4.26888 -3.32343,-3.82216 -2.29531,-2.86597 -0.95469,-1.96997 3.29986,-3.54505 7.20014,-2.23949 8.41088,-1.29122 3.08912,-1.3743 -13.61155,-13.44978 -24.13845,-19.57687 -2.29531,-2.00495 -0.95469,-1.49584 2.51717,-1.97386 6.05193,-3.1542 4.28454,-1.99738 4.28455,-1.99738 -1.97077,-1.36575 -1.97077,-1.36574 -13.43752,-5.88705 -12.06692,0.17769 -3.75375,0.85486 -5.60139,0.75366 -6.131,0.24658 -1.93093,-2.0775 -0.59554,-2.33944 1.21432,-1.76908 1.56686,-1.12718 1.29064,-0.46882 2.06009,-1.54219 3.41682,-3.70781 7.20747,-10.02662 -1.1858,-2.21825 -10.55439,2.87977 -15.69561,1.6491 -11.04844,0.82617 -6.20156,0.72316 -2.66308,-0.61053 2.82963,-4.78144 4.84534,-7.24148 1.97117,-4.55015 -1.11962,0.0196 -2.17938,0.55954 -13.00794,3.67735 -10.67612,0.97862 -7.54242,-0.0683 -2.20758,-0.87666 4.39491,-7.76869 7.30406,-10.2967 1.57861,-2.13541 0.44871,-1.09606 -6.80831,2.07906 -12.47371,5.97252 -13.1833,5.5278 -11.26097,1.78984 -3.32799,0.1432 -3.08643,0.55159 -2.31267,0.39209 0.14815,-1.44938 1.98556,-7.50745 2.25878,-10.64223 -0.83364,-3.24442 -4.39467,3.08152 -3.79249,3.47656 -4.99368,4.02344 -5.94659,3.76927 -6.42005,0.64363 -5.52455,-0.30859 -0.26991,-1.94141 1.0427,-3.49844 1.49153,-5.25156 1.78219,-5.76563 1.74153,-4.73437 2.52065,-6.8941 -0.0246,-2.6059 -3.07046,2.62053 -6.23554,6.30043 -8.09571,9.56433 -7.18521,11.05209 -8.47582,12.2559 -7.07105,3.20298 -2.35888,-0.78645 -1.57711,-3.45981 -5.11359,-9.9237 -7.50164,-8.49548 -3.27454,-2.3917 -1.68057,-0.67619 0.24045,2.48621 1.3441,5.21149 1.71262,10.72067 -5.08234,5.55425 -3.81581,1.93267 -2.31941,0.62979 -1.87389,-1.50432 -2.74467,-3.19829 -8.87156,-9.1542 -6.5835,-4.68426 3.99016,11.04247 6.01503,10.52391 1.22375,1.32987 -4.78405,3.06129 -2.56429,1.35724 -2.56429,1.35724 -3.04527,-1.02588 -3.04526,-1.02587 -12.81645,-6.52105 -10.2377,-12.68609 -9.11343,-11.24161 -13.27742,-8.08831 -14.17113,-8.62038 -9.01937,-10.54085 -3.367211,-5.04149 -1.776491,-2.11184 0.260284,3.89173 2.419205,7.59457 7.142633,13.94347 12.69941,12.04464 6.31394,7.22987 3.80563,10.9383 1.99804,6.38316 2.36988,5.28079 6.49527,7.59591 6.19884,4.07197 1.25122,0.52976 1.08415,1.27367 -0.0391,2.44659 -2.93839,4.30341 -9.32988,15.20259 -3.58743,13.59574 1.13159,1.46352 7.17623,-6.68386 19.17276,-15.44671 9.57792,1.42459 0.28371,2.85759 -2.43742,5.3806 -9.88481,16.55696 -13.98121,20.59555 -4.00462,5.825 -2.63078,4.175 -2.10656,3.29375 -2.74428,3.70625 -4.49705,6.20312 -6.32066,9.29688 -6.58233,9.88438 -5.12617,7.61562 -3.24595,4.79243 -2.06181,3.09668 -1.52155,2.14354 -1.94701,2.50082 -1.58906,2.13222 -0.660939,1.25734 -1.46875,2.34051 -3.53125,4.73646 -3.53125,4.82976 -1.46875,2.56485 -0.702546,1.50723 -1.689099,2.28702 -5.542449,18.84505 4.489042,15.91014 3.145791,3.7692 4.408216,6.99485 5.049169,7.95772 4.686805,6.08418 4.49935,4.03124 4.82468,0.71876 4.50255,-0.43674 3.95107,-1.05003 3.15373,-0.90304 2.24841,0.40304 2.64026,0.69691 3.75869,0.28986 4.7062,-0.82157 5.31404,-4.12763 5.01984,-3.84346 4.33971,-2.15442 7.30663,-3.42235 5.04475,-5.15599 1.69132,-4.91606 1.5907,-7.58054 1.64572,-7.86509 2.02236,-3.06917 2.81081,-2.39423 3.74014,-3.71133 5.67436,-4.68395 7.94866,-4.74592 6.95302,-3.72392 3.76807,-2.24008 2.68876,-1.36996 4.35809,-1.63192 5.72012,-1.30007 6.36179,0.61963 12.97273,1.00357 11.32633,-2.77479 12.60358,-6.82989 11.81448,-11.72807 1.17294,-1.38428 1.17295,-1.38427 1.40408,1.53727 1.40408,1.53727 2.60767,4.16694 2.32612,5.70094 1.92855,6.11967 1.65182,5.17367 1.92537,7.73125 2.58625,12.26875 3.25179,23.52542 2.25937,42.47458 0.63803,9.51049 0.92983,8.12098 0.70489,10.54526 -0.0759,16.70474 -0.26233,14.20871 0.0836,5.90982 2.05488,-2.71719 z"
       id="path3180"
       inkscape:connector-curvature="0"
       sodipodi:nodetypes="ccccccccccccccccccccccccccccccccccccccccccccccccccccccccccccccccccccccccccccccccccccccccccccccccccccccccccccccccccccccccccccccccccccccccccccccccccccccccccccccccccccccccccccccccccccccccccccccccccccccccccccccccccccccccccccccccccccccccccccccccccccccccccccccccc" />
  </g>
</svg>
