  0
SECTION
  2
HEADER
  9
$ACADVER
  1
AC1014
  9
$HANDSEED
  5
FFFF
  9
$MEASUREMENT
 70
     1
  0
ENDSEC
  0
SECTION
  2
TABLES
  0
TABLE
  2
VPORT
  5
8
330
0
100
AcDbSymbolTable
 70
     4
  0
VPORT
  5
2E
330
8
100
AcDbSymbolTableRecord
100
AcDbViewportTableRecord
  2
*ACTIVE
 70
     0
 10
0.0
 20
0.0
 11
1.0
 21
1.0
 12
210.0
 22
148.5
 13
0.0
 23
0.0
 14
10.0
 24
10.0
 15
10.0
 25
10.0
 16
0.0
 26
0.0
 36
1.0
 17
0.0
 27
0.0
 37
0.0
 40
341.0
 41
1.24
 42
50.0
 43
0.0
 44
0.0
 50
0.0
 51
0.0
 71
     0
 72
   100
 73
     1
 74
     3
 75
     0
 76
     0
 77
     0
 78
     0
  0
ENDTAB
  0
TABLE
  2
LTYPE
  5
5
330
0
100
AcDbSymbolTable
 70
     1
  0
LTYPE
  5
14
330
5
100
AcDbSymbolTableRecord
100
AcDbLinetypeTableRecord
  2
BYBLOCK
 70
     0
  3

 72
    65
 73
     0
 40
0.0
  0
LTYPE
  5
15
330
5
100
AcDbSymbolTableRecord
100
AcDbLinetypeTableRecord
  2
BYLAYER
 70
     0
  3

 72
    65
 73
     0
 40
0.0
  0
LTYPE
  5
16
330
5
100
AcDbSymbolTableRecord
100
AcDbLinetypeTableRecord
  2
CONTINUOUS
 70
     0
  3
Solid line
 72
    65
 73
     0
 40
0.0
  0
ENDTAB
  0
TABLE
  2
LAYER
  5
2
100
AcDbSymbolTable
 70
2
  0
LAYER
  5
50
100
AcDbSymbolTableRecord
100
AcDbLayerTableRecord
  2
0
 70
0
  6
CONTINUOUS
  0
LAYER
  5
51
100
AcDbSymbolTableRecord
100
AcDbLayerTableRecord
  2
Ebene_1
 70
0
  6
CONTINUOUS
  0
ENDTAB
  0
TABLE
  2
STYLE
  5
3
330
0
100
AcDbSymbolTable
 70
     1
  0
STYLE
  5
11
330
3
100
AcDbSymbolTableRecord
100
AcDbTextStyleTableRecord
  2
STANDARD
 70
     0
 40
0.0
 41
1.0
 50
0.0
 71
     0
 42
2.5
  3
txt
  4

  0
ENDTAB
  0
TABLE
  2
VIEW
  5
6
330
0
100
AcDbSymbolTable
 70
     0
  0
ENDTAB
  0
TABLE
  2
UCS
  5
7
330
0
100
AcDbSymbolTable
 70
     0
  0
ENDTAB
  0
TABLE
  2
APPID
  5
9
330
0
100
AcDbSymbolTable
 70
     2
  0
APPID
  5
12
330
9
100
AcDbSymbolTableRecord
100
AcDbRegAppTableRecord
  2
ACAD
 70
     0
  0
ENDTAB
  0
TABLE
  2
DIMSTYLE
  5
A
330
0
100
AcDbSymbolTable
 70
     1
  0
DIMSTYLE
105
27
330
A
100
AcDbSymbolTableRecord
100
AcDbDimStyleTableRecord
  2
ISO-25
 70
     0
  3

  4

  5

  6

  7

 40
1.0
 41
2.5
 42
0.625
 43
3.75
 44
1.25
 45
0.0
 46
0.0
 47
0.0
 48
0.0
140
2.5
141
2.5
142
0.0
143
0.03937007874016
144
1.0
145
0.0
146
1.0
147
0.625
 71
     0
 72
     0
 73
     0
 74
     0
 75
     0
 76
     0
 77
     1
 78
     8
170
     0
171
     3
172
     1
173
     0
174
     0
175
     0
176
     0
177
     0
178
     0
270
     2
271
     2
272
     2
273
     2
274
     3
340
11
275
     0
280
     0
281
     0
282
     0
283
     0
284
     8
285
     0
286
     0
287
     3
288
     0
  0
ENDTAB
  0
TABLE
  2
BLOCK_RECORD
  5
1
330
0
100
AcDbSymbolTable
 70
     1
  0
BLOCK_RECORD
  5
1F
330
1
100
AcDbSymbolTableRecord
100
AcDbBlockTableRecord
  2
*MODEL_SPACE
  0
BLOCK_RECORD
  5
1B
330
1
100
AcDbSymbolTableRecord
100
AcDbBlockTableRecord
  2
*PAPER_SPACE
  0
ENDTAB
  0
ENDSEC
  0
SECTION
  2
BLOCKS
  0
BLOCK
  5
20
330
1F
100
AcDbEntity
  8
0
100
AcDbBlockBegin
  2
*MODEL_SPACE
 70
     0
 10
0.0
 20
0.0
 30
0.0
  3
*MODEL_SPACE
  1

  0
ENDBLK
  5
21
330
1F
100
AcDbEntity
  8
0
100
AcDbBlockEnd
  0
BLOCK
  5
1C
330
1B
100
AcDbEntity
 67
     1
  8
0
100
AcDbBlockBegin
  2
*PAPER_SPACE
  1

  0
ENDBLK
  5
1D
330
1B
100
AcDbEntity
 67
     1
  8
0
100
AcDbBlockEnd
  0
ENDSEC
  0
SECTION
  2
ENTITIES
  0
LWPOLYLINE
  5
100
100
AcDbEntity
  8
Ebene_1
 62
7
100
AcDbPolyline
 90
257
 70
0
 10
85.094405
 20
18.656922
 30
0.0
 10
87.957355
 20
22.682351
 30
0.0
 10
91.547357
 20
26.770289
 30
0.0
 10
96.178807
 20
31.820258
 30
0.0
 10
97.523994
 20
33.295349
 30
0.0
 10
101.752995
 20
37.271242
 30
0.0
 10
106.065213
 20
40.865565
 30
0.0
 10
106.526624
 20
41.201418
 30
0.0
 10
106.800955
 20
41.437398
 30
0.0
 10
108.973437
 20
43.299184
 30
0.0
 10
111.457621
 20
45.113904
 30
0.0
 10
112.503608
 20
45.796907
 30
0.0
 10
113.433177
 20
46.520019
 30
0.0
 10
114.507826
 20
47.331998
 30
0.0
 10
115.902621
 20
48.228661
 30
0.0
 10
117.048709
 20
48.991959
 30
0.0
 10
117.525399
 20
49.483296
 30
0.0
 10
117.919187
 20
49.962569
 30
0.0
 10
118.865955
 20
50.696858
 30
0.0
 10
122.084685
 20
52.963689
 30
0.0
 10
123.380929
 20
54.074733
 30
0.0
 10
126.415264
 20
55.957765
 30
0.0
 10
130.616593
 20
57.921123
 30
0.0
 10
130.998454
 20
58.157995
 30
0.0
 10
130.687149
 20
58.619473
 30
0.0
 10
130.361038
 20
59.039454
 30
0.0
 10
130.225399
 20
59.332702
 30
0.0
 10
129.938450
 20
59.924647
 30
0.0
 10
129.248546
 20
61.062770
 30
0.0
 10
127.408432
 20
64.461578
 30
0.0
 10
126.288766
 20
67.487316
 30
0.0
 10
126.001201
 20
68.609141
 30
0.0
 10
125.706474
 20
69.536342
 30
0.0
 10
125.563859
 20
70.167583
 30
0.0
 10
125.650769
 20
70.569070
 30
0.0
 10
126.355594
 20
70.826259
 30
0.0
 10
127.707367
 20
71.101798
 30
0.0
 10
129.158972
 20
71.455507
 30
0.0
 10
130.046770
 20
71.910929
 30
0.0
 10
130.375008
 20
72.388971
 30
0.0
 10
129.623436
 20
72.636144
 30
0.0
 10
126.632225
 20
74.085807
 30
0.0
 10
124.016510
 20
76.330425
 30
0.0
 10
123.049456
 20
77.535197
 30
0.0
 10
122.111510
 20
78.613896
 30
0.0
 10
121.463723
 20
79.422736
 30
0.0
 10
121.194288
 20
79.978706
 30
0.0
 10
122.125582
 20
80.979198
 30
0.0
 10
124.157621
 20
81.611231
 30
0.0
 10
126.531359
 20
81.975642
 30
0.0
 10
127.403177
 20
82.363500
 30
0.0
 10
123.561695
 20
86.159327
 30
0.0
 10
116.749288
 20
91.684355
 30
0.0
 10
116.101501
 20
92.250196
 30
0.0
 10
115.832066
 20
92.672356
 30
0.0
 10
116.542467
 20
93.229423
 30
0.0
 10
118.250456
 20
94.119608
 30
0.0
 10
119.459649
 20
94.683313
 30
0.0
 10
120.668844
 20
95.247018
 30
0.0
 10
120.112649
 20
95.632463
 30
0.0
 10
119.556454
 20
96.017905
 30
0.0
 10
115.764087
 20
97.679362
 30
0.0
 10
112.358534
 20
97.629214
 30
0.0
 10
111.299142
 20
97.387953
 30
0.0
 10
109.718306
 20
97.175254
 30
0.0
 10
107.988001
 20
97.105663
 30
0.0
 10
107.443050
 20
97.691980
 30
0.0
 10
107.274975
 20
98.352222
 30
0.0
 10
107.617683
 20
98.851496
 30
0.0
 10
108.059886
 20
99.169611
 30
0.0
 10
108.424133
 20
99.301922
 30
0.0
 10
109.005537
 20
99.737163
 30
0.0
 10
109.969839
 20
100.783589
 30
0.0
 10
112.003947
 20
103.613324
 30
0.0
 10
111.669288
 20
104.239363
 30
0.0
 10
108.690605
 20
103.426628
 30
0.0
 10
104.260955
 20
102.961216
 30
0.0
 10
101.142840
 20
102.728052
 30
0.0
 10
99.392621
 20
102.523960
 30
0.0
 10
98.641041
 20
102.696265
 30
0.0
 10
99.439626
 20
104.045694
 30
0.0
 10
100.807088
 20
106.089401
 30
0.0
 10
101.363396
 20
107.373554
 30
0.0
 10
101.047415
 20
107.368022
 30
0.0
 10
100.432345
 20
107.210108
 30
0.0
 10
96.761215
 20
106.172278
 30
0.0
 10
93.748177
 20
105.896090
 30
0.0
 10
91.619538
 20
105.915365
 30
0.0
 10
90.996510
 20
106.162778
 30
0.0
 10
92.236852
 20
108.355275
 30
0.0
 10
94.298220
 20
111.261233
 30
0.0
 10
94.743738
 20
111.863893
 30
0.0
 10
94.870374
 20
112.173225
 30
0.0
 10
92.948918
 20
111.586469
 30
0.0
 10
89.428560
 20
109.900891
 30
0.0
 10
85.707940
 20
108.340823
 30
0.0
 10
82.529844
 20
107.835690
 30
0.0
 10
81.590611
 20
107.795276
 30
0.0
 10
80.719552
 20
107.639605
 30
0.0
 10
80.066865
 20
107.528948
 30
0.0
 10
80.108676
 20
107.937996
 30
0.0
 10
80.669045
 20
110.056765
 30
0.0
 10
81.306523
 20
113.060239
 30
0.0
 10
81.071252
 20
113.975886
 30
0.0
 10
79.830978
 20
113.106213
 30
0.0
 10
78.760653
 20
112.125050
 30
0.0
 10
77.351326
 20
110.989546
 30
0.0
 10
75.673066
 20
109.925774
 30
0.0
 10
73.861185
 20
109.744128
 30
0.0
 10
72.302034
 20
109.831218
 30
0.0
 10
72.225860
 20
110.379128
 30
0.0
 10
72.520133
 20
111.366465
 30
0.0
 10
72.941076
 20
112.848572
 30
0.0
 10
73.444049
 20
114.475761
 30
0.0
 10
73.935548
 20
115.811905
 30
0.0
 10
74.646931
 20
117.757574
 30
0.0
 10
74.639988
 20
118.493016
 30
0.0
 10
73.773436
 20
117.753445
 30
0.0
 10
72.013628
 20
115.975323
 30
0.0
 10
69.728839
 20
113.276057
 30
0.0
 10
67.701013
 20
110.156911
 30
0.0
 10
65.308948
 20
106.698024
 30
0.0
 10
63.313341
 20
105.794072
 30
0.0
 10
62.647613
 20
106.016026
 30
0.0
 10
62.202517
 20
106.992461
 30
0.0
 10
60.759348
 20
109.793150
 30
0.0
 10
58.642219
 20
112.190763
 30
0.0
 10
57.718071
 20
112.865754
 30
0.0
 10
57.243777
 20
113.056589
 30
0.0
 10
57.311637
 20
112.354926
 30
0.0
 10
57.690972
 20
110.884127
 30
0.0
 10
58.174311
 20
107.858516
 30
0.0
 10
56.739962
 20
106.290983
 30
0.0
 10
55.663056
 20
105.745541
 30
0.0
 10
55.008467
 20
105.567800
 30
0.0
 10
54.479613
 20
105.992353
 30
0.0
 10
53.705006
 20
106.894981
 30
0.0
 10
51.201255
 20
109.478500
 30
0.0
 10
49.343245
 20
110.800502
 30
0.0
 10
50.469357
 20
107.684072
 30
0.0
 10
52.166932
 20
104.713991
 30
0.0
 10
52.512301
 20
104.338672
 30
0.0
 10
51.162136
 20
103.474708
 30
0.0
 10
50.438437
 20
103.091664
 30
0.0
 10
49.714737
 20
102.708621
 30
0.0
 10
48.855294
 20
102.998147
 30
0.0
 10
47.995854
 20
103.287670
 30
0.0
 10
44.378767
 20
105.128056
 30
0.0
 10
41.489461
 20
108.708352
 30
0.0
 10
38.917448
 20
111.880984
 30
0.0
 10
35.170265
 20
114.163685
 30
0.0
 10
31.170857
 20
116.596548
 30
0.0
 10
28.625391
 20
119.571410
 30
0.0
 10
27.675089
 20
120.994231
 30
0.0
 10
27.173724
 20
121.590239
 30
0.0
 10
27.247182
 20
120.491906
 30
0.0
 10
27.929935
 20
118.348550
 30
0.0
 10
29.945745
 20
114.413393
 30
0.0
 10
33.529801
 20
111.014128
 30
0.0
 10
35.311735
 20
108.973698
 30
0.0
 10
36.385768
 20
105.886666
 30
0.0
 10
36.949659
 20
104.085197
 30
0.0
 10
37.618492
 20
102.594840
 30
0.0
 10
39.451602
 20
100.451106
 30
0.0
 10
41.201052
 20
99.301905
 30
0.0
 10
41.554174
 20
99.152395
 30
0.0
 10
41.860145
 20
98.792937
 30
0.0
 10
41.849111
 20
98.102455
 30
0.0
 10
41.019832
 20
96.887937
 30
0.0
 10
38.386732
 20
92.597429
 30
0.0
 10
37.374280
 20
88.760409
 30
0.0
 10
37.693640
 20
88.347371
 30
0.0
 10
39.718931
 20
90.233705
 30
0.0
 10
45.129910
 20
94.593109
 30
0.0
 10
47.833012
 20
94.191058
 30
0.0
 10
47.913081
 20
93.384583
 30
0.0
 10
47.225187
 20
91.866058
 30
0.0
 10
44.435474
 20
87.193316
 30
0.0
 10
40.489666
 20
81.380794
 30
0.0
 10
39.359473
 20
79.736850
 30
0.0
 10
38.617009
 20
78.558572
 30
0.0
 10
38.022490
 20
77.629003
 30
0.0
 10
37.247994
 20
76.583016
 30
0.0
 10
35.978826
 20
74.832358
 30
0.0
 10
34.194996
 20
72.208572
 30
0.0
 10
32.337316
 20
69.418980
 30
0.0
 10
30.890597
 20
67.269683
 30
0.0
 10
29.974517
 20
65.917153
 30
0.0
 10
29.392629
 20
65.043201
 30
0.0
 10
28.963214
 20
64.438246
 30
0.0
 10
28.413724
 20
63.732459
 30
0.0
 10
27.965256
 20
63.130699
 30
0.0
 10
27.778724
 20
62.775850
 30
0.0
 10
27.364211
 20
62.115306
 30
0.0
 10
26.367613
 20
60.778572
 30
0.0
 10
25.371016
 20
59.415506
 30
0.0
 10
24.956502
 20
58.691649
 30
0.0
 10
24.758228
 20
58.266275
 30
0.0
 10
24.281527
 20
57.620827
 30
0.0
 10
22.717325
 20
52.302335
 30
0.0
 10
23.984232
 20
47.812140
 30
0.0
 10
24.872044
 20
46.748388
 30
0.0
 10
26.116141
 20
44.774286
 30
0.0
 10
27.541128
 20
42.528441
 30
0.0
 10
28.863849
 20
40.811350
 30
0.0
 10
30.133665
 20
39.673644
 30
0.0
 10
31.495297
 20
39.470794
 30
0.0
 10
32.766017
 20
39.594052
 30
0.0
 10
33.881097
 20
39.890394
 30
0.0
 10
34.771149
 20
40.145252
 30
0.0
 10
35.405701
 20
40.031505
 30
0.0
 10
36.150841
 20
39.834821
 30
0.0
 10
37.211627
 20
39.753016
 30
0.0
 10
38.539821
 20
39.984882
 30
0.0
 10
40.039561
 20
41.149791
 30
0.0
 10
41.456271
 20
42.234500
 30
0.0
 10
42.681034
 20
42.842526
 30
0.0
 10
44.743127
 20
43.808389
 30
0.0
 10
46.166868
 20
45.263524
 30
0.0
 10
46.644196
 20
46.650945
 30
0.0
 10
47.093127
 20
48.790342
 30
0.0
 10
47.557586
 20
51.010045
 30
0.0
 10
48.128341
 20
51.876233
 30
0.0
 10
48.921614
 20
52.551938
 30
0.0
 10
49.977164
 20
53.599358
 30
0.0
 10
51.578595
 20
54.921273
 30
0.0
 10
53.821883
 20
56.260677
 30
0.0
 10
55.784180
 20
57.311650
 30
0.0
 10
56.847613
 20
57.943850
 30
0.0
 10
57.606441
 20
58.330483
 30
0.0
 10
58.836391
 20
58.791047
 30
0.0
 10
60.450736
 20
59.157956
 30
0.0
 10
62.246174
 20
58.983083
 30
0.0
 10
65.907367
 20
58.699853
 30
0.0
 10
69.103909
 20
59.482960
 30
0.0
 10
72.660919
 20
61.410507
 30
0.0
 10
75.995228
 20
64.720429
 30
0.0
 10
76.326258
 20
65.111104
 30
0.0
 10
76.657290
 20
65.501775
 30
0.0
 10
77.053553
 20
65.067924
 30
0.0
 10
77.449815
 20
64.634072
 30
0.0
 10
78.185758
 20
63.458069
 30
0.0
 10
78.842241
 20
61.849137
 30
0.0
 10
79.386520
 20
60.122030
 30
0.0
 10
79.852701
 20
58.661905
 30
0.0
 10
80.396083
 20
56.479975
 30
0.0
 10
81.125980
 20
53.017461
 30
0.0
 10
82.043707
 20
46.378065
 30
0.0
 10
82.681352
 20
34.390794
 30
0.0
 10
82.861418
 20
31.706723
 30
0.0
 10
83.123837
 20
29.414802
 30
0.0
 10
83.322772
 20
26.438695
 30
0.0
 10
83.301352
 20
21.724246
 30
0.0
 10
83.227316
 20
17.714232
 30
0.0
 10
83.250910
 20
16.046350
 30
0.0
 10
83.830843
 20
16.813201
 30
0.0
 10
85.094405
 20
18.656922
 30
0.0
  0
ENDSEC
  0
SECTION
  2
OBJECTS
  0
DICTIONARY
  5
C
330
0
100
AcDbDictionary
  3
ACAD_GROUP
350
D
  3
ACAD_MLINESTYLE
350
17
  0
DICTIONARY
  5
D
330
C
100
AcDbDictionary
  0
DICTIONARY
  5
1A
330
C
100
AcDbDictionary
  0
DICTIONARY
  5
17
330
C
100
AcDbDictionary
  3
STANDARD
350
18
  0
DICTIONARY
  5
19
330
C
100
AcDbDictionary
  0
ENDSEC
  0
EOF
