<?xml version="1.0" encoding="UTF-8" standalone="no"?>
<!-- Created with Inkscape (http://www.inkscape.org/) -->

<svg
   xmlns:dc="http://purl.org/dc/elements/1.1/"
   xmlns:cc="http://creativecommons.org/ns#"
   xmlns:rdf="http://www.w3.org/1999/02/22-rdf-syntax-ns#"
   xmlns:svg="http://www.w3.org/2000/svg"
   xmlns="http://www.w3.org/2000/svg"
   xmlns:sodipodi="http://sodipodi.sourceforge.net/DTD/sodipodi-0.dtd"
   xmlns:inkscape="http://www.inkscape.org/namespaces/inkscape"
   width="210mm"
   height="297mm"
   id="svg2"
   version="1.1"
   inkscape:version="0.48.3.1 r9886"
   sodipodi:docname="Neues Dokument 1">
  <defs
     id="defs4" />
  <sodipodi:namedview
     id="base"
     pagecolor="#ffffff"
     bordercolor="#666666"
     borderopacity="1.0"
     inkscape:pageopacity="0.0"
     inkscape:pageshadow="2"
     inkscape:zoom="0.98994949"
     inkscape:cx="370.3207"
     inkscape:cy="225.24456"
     inkscape:document-units="px"
     inkscape:current-layer="layer1"
     showgrid="false"
     inkscape:window-width="1871"
     inkscape:window-height="1176"
     inkscape:window-x="49"
     inkscape:window-y="24"
     inkscape:window-maximized="1" />
  <metadata
     id="metadata7">
    <rdf:RDF>
      <cc:Work
         rdf:about="">
        <dc:format>image/svg+xml</dc:format>
        <dc:type
           rdf:resource="http://purl.org/dc/dcmitype/StillImage" />
        <dc:title></dc:title>
      </cc:Work>
    </rdf:RDF>
  </metadata>
  <g
     inkscape:label="Ebene 1"
     inkscape:groupmode="layer"
     id="layer1">
    <path
       style="fill:#000000"
       d="m 301.51561,986.255 c 8.59323,-12.81606 10.83666,-15.63676 22.86479,-28.74815 17.9619,-19.57954 18.74082,-20.42994 21.17706,-23.12029 4.93404,-5.44869 24.93697,-23.1776 30.26416,-26.8236 1.15883,-0.79312 2.33196,-1.7049 2.60696,-2.02618 1.82826,-2.13595 13.19911,-11.11341 16.5,-13.02699 2.2,-1.27538 5.35,-3.51742 7,-4.9823 1.65,-1.46488 5.5875,-4.18929 8.75,-6.05424 3.1625,-1.86495 5.75,-3.86546 5.75,-4.44556 0,-0.58011 2.1375,-2.51512 4.75,-4.30002 10.27785,-7.02201 14.8027,-10.40727 15.99794,-11.96885 1.64621,-2.15078 18.4786,-11.09867 25.63818,-13.62894 1.75362,-0.61975 1.77119,-0.79358 0.25,-2.47447 -0.89987,-0.99434 -1.63612,-2.13157 -1.63612,-2.52719 0,-0.39561 -1.55758,-3.15418 -3.46129,-6.13016 -4.63115,-7.23965 -9.25996,-17.28702 -10.48741,-22.76414 -0.55047,-2.45634 -1.47893,-5.72348 -2.06324,-7.26033 -0.59772,-1.57211 -0.68405,-3.1726 -0.19738,-3.65927 0.47575,-0.47575 3.75497,-1.32518 7.28716,-1.88762 3.75544,-0.59799 7.19743,-1.78848 8.28922,-2.867 1.81974,-1.79763 1.78173,-1.86275 -1.5,-2.56966 -5.55229,-1.19599 -16.08877,-8.13826 -19.86706,-13.08997 -1.925,-2.52286 -4.9625,-6.16382 -6.75,-8.09104 -1.7875,-1.92722 -3.25,-4.10339 -3.25,-4.83594 0,-2.30284 5.29962,-5.22245 10.5,-5.78454 7.09568,-0.76694 11.5,-1.7878 11.5,-2.66552 0,-2.05511 -23.71412,-22.80208 -37.75,-33.02665 -1.7875,-1.30212 -3.25,-2.87748 -3.25,-3.50079 0,-0.62332 3.85609,-2.93094 8.5691,-5.12806 l 8.56909,-3.99476 -3.94154,-2.73149 c -8.18218,-5.67026 -19.14972,-8.12542 -25.50444,-5.70936 -1.3409,0.50981 -5.55071,1.23365 -9.35514,1.60852 -6.7107,0.66126 -6.95131,0.60662 -8.06193,-1.83092 -0.94987,-2.08473 -0.84451,-2.78426 0.61878,-4.10852 0.96996,-0.8778 2.25583,-1.596 2.8575,-1.596 0.60166,0 3.06627,-2.3625 5.47691,-5.25 7.3867,-8.84789 9.826,-13.80813 6.02167,-12.24487 -5.9222,2.43353 -13.47284,3.73623 -26.25,4.52887 -7.975,0.49473 -15.7375,1.19193 -17.25,1.54933 -3.60221,0.8512 -3.55485,-0.68194 0.16655,-5.39197 3.27528,-4.14537 7.37346,-11.23468 6.81651,-11.79163 -0.20072,-0.20072 -1.68527,0.0599 -3.299,0.57912 -11.93157,3.83914 -14.86157,4.41514 -23.68406,4.65597 -7.11311,0.19418 -9.75,-0.0614 -9.75,-0.945 0,-1.30951 7.82011,-13.38521 11.69897,-18.06539 1.31077,-1.58156 2.22307,-3.03572 2.02732,-3.23147 -0.71848,-0.71849 -11.00966,3.57879 -19.28202,8.05158 -8.73624,4.7236 -18.27114,7.57797 -24.44427,7.31764 -1.925,-0.0812 -4.81149,0.23147 -6.41442,0.69479 -2.60963,0.75428 -2.836,0.64371 -2.16452,-1.05729 0.75213,-1.90529 3.12792,-12.06467 4.24434,-18.14968 0.78285,-4.26687 -1.26311,-4.33062 -5.22831,-0.1629 -1.6154,1.69791 -5.56918,5.07291 -8.78617,7.5 -5.52385,4.16752 -6.2115,4.4129 -12.36664,4.4129 -6.30651,0 -6.49413,-0.0729 -5.79446,-2.25 0.39769,-1.2375 1.5381,-5.175 2.53423,-8.75 0.99613,-3.575 2.58181,-8.3 3.52372,-10.5 2.44795,-5.71759 3.44176,-9.5 2.49608,-9.5 -0.4491,0 -4.6368,4.01443 -9.306,8.92096 -6.06972,6.37824 -10.4252,12.25449 -15.28092,20.61642 -7.0136,12.078 -10.40627,15.45146 -15.54687,15.45888 -2.17035,0.003 -2.80801,-0.68479 -3.93599,-4.24626 -1.93047,-6.09527 -7.50068,-14.2282 -12.61523,-18.41918 -2.4253,-1.98735 -4.6551,-3.3679 -4.95511,-3.06789 -0.30001,0.30002 0.41303,3.76398 1.58455,7.6977 3.09284,10.3852 2.59735,12.77828 -3.36972,16.27492 -2.68479,1.57326 -5.44564,2.72637 -6.13522,2.56246 -0.68959,-0.16391 -2.76794,-2.28008 -4.61856,-4.70261 -3.90237,-5.10831 -14.60345,-14.69006 -15.45506,-13.83846 -1.03167,1.03168 8.33704,21.22612 10.00519,21.56638 2.63375,0.53723 1.81636,1.54537 -3.5603,4.39116 l -5.12858,2.71448 -6.09053,-2.05175 c -11.16827,-3.76232 -15.32422,-7.22477 -23.05415,-19.20714 -6.54994,-10.15324 -10.28893,-13.38109 -22.39085,-19.32992 -12.30407,-6.04819 -17.75545,-10.55241 -23.1905,-19.16123 -2.474999,-3.92026 -4.789665,-7.13926 -5.143702,-7.15333 -0.8715,-0.0346 0.672427,6.58378 2.679489,11.4863 5.400283,13.19089 7.032733,15.329 19.842043,25.98811 5.68358,4.72952 7.78041,8.49407 10.11957,18.16817 0.95328,3.9425 2.91884,9.19127 4.36792,11.66395 2.75354,4.6986 10.3358,11.66788 12.69411,11.66788 0.75361,0 1.80453,0.81154 2.33537,1.80343 0.76023,1.4205 0.12801,2.85374 -2.97749,6.75 -7.65662,9.60621 -12.91731,21.33458 -12.91731,28.79833 0,2.89943 0.2483,2.74341 8.30782,-5.22034 16.24263,-16.0496 25.30117,-20.46758 28.75068,-14.02212 0.92333,1.72526 0.55114,3.14891 -2.15371,8.23819 -4.79911,9.02971 -13.60504,22.738 -23.86602,37.15251 -2.74063,3.85 -5.72656,8.35 -6.6354,10 -0.90883,1.65 -3.09171,4.8 -4.85084,7 -1.75913,2.2 -6.6271,9.175 -10.81771,15.5 -4.19062,6.325 -9.45944,14.2 -11.7085,17.5 -2.24906,3.3 -4.63755,6.8501 -5.30776,7.88911 -0.67021,1.03901 -2.23106,3.12897 -3.46856,4.64436 -1.237499,1.51538 -2.249999,3.04068 -2.249999,3.38956 0,0.34887 -2.25,3.53351 -5,7.07697 -2.75,3.54346 -5,6.87104 -5,7.39461 0,0.52356 -1.07624,2.23098 -2.391645,3.79425 -6.876037,8.1717 -7.552693,30.49669 -1.053407,34.75519 1.235737,0.80968 4.63504,5.65351 7.554007,10.76405 2.918967,5.11055 7.300154,11.4294 9.735974,14.0419 4.11795,4.41665 4.7723,4.75 9.32403,4.75 2.6924,0 6.49653,-0.66905 8.45362,-1.48677 2.50518,-1.04673 4.10405,-1.19472 5.40214,-0.5 1.01409,0.54272 3.89362,0.98677 6.39895,0.98677 4.05713,0 5.15267,-0.54111 10.02024,-4.9492 3.1554,-2.85754 7.11098,-5.3924 9.35955,-5.99788 5.18055,-1.39497 10.18667,-4.87185 12.35138,-8.57834 0.96963,-1.66024 2.44654,-7.28371 3.28202,-12.4966 1.21093,-7.55546 1.95496,-9.77337 3.66808,-10.93426 1.18196,-0.80096 4.12989,-3.54846 6.55095,-6.10556 2.76988,-2.92551 7.82074,-6.42173 13.62302,-9.42987 5.0716,-2.62933 9.89609,-5.31313 10.72109,-5.964 0.825,-0.65088 3.99608,-2.00172 7.04685,-3.00188 4.8022,-1.57435 6.42416,-1.6657 12.08191,-0.68044 10.52041,1.83205 15.97385,1.43453 24.29906,-1.77122 9.77552,-3.76422 15.69468,-8.26283 24.41806,-18.55796 l 2.34589,-2.76855 2.80816,3.07454 c 1.54449,1.691 3.7647,6.13155 4.93379,9.86788 1.16909,3.73634 2.78025,8.81834 3.58037,11.29334 0.80011,2.475 2.83034,11.475 4.51162,20 2.97691,15.0945 3.85748,25.63994 5.51116,66 0.23662,5.775 0.94216,13.70916 1.56786,17.63147 0.71941,4.50975 0.95064,14.5276 0.62899,27.25 -0.27976,11.06519 -0.3602,20.11853 -0.17876,20.11853 0.18145,0 3.12088,-4.1625 6.53207,-9.25 z"
       id="path3180" />
  </g>
</svg>
