solid OpenSCAD_Model
  facet normal -0.839219 -1.20746e-16 -0.543793
    outer loop
      vertex -72 5 -36
      vertex -72 42 -36
      vertex -69 7.359 -40.6298
    endloop
  endfacet
  facet normal -0.839219 -1.20746e-16 -0.543793
    outer loop
      vertex -69 7.359 -40.6298
      vertex -72 42 -36
      vertex -69 44.359 -40.6298
    endloop
  endfacet
  facet normal -1 0 0
    outer loop
      vertex -72 5 -36
      vertex -72 5 0
      vertex -72 42 -36
    endloop
  endfacet
  facet normal -1 0 0
    outer loop
      vertex -72 13.5 -4.1
      vertex -72 5 0
      vertex -72 49 0
    endloop
  endfacet
  facet normal -1 0 0
    outer loop
      vertex -72 42 -36
      vertex -72 49 0
      vertex -72 49 -1
    endloop
  endfacet
  facet normal -1 0 0
    outer loop
      vertex -72 13.5 -5.9
      vertex -72 5 0
      vertex -72 13.5 -4.1
    endloop
  endfacet
  facet normal -1 0 0
    outer loop
      vertex -72 16.5 -4.1
      vertex -72 13.5 -4.1
      vertex -72 49 0
    endloop
  endfacet
  facet normal -1 0 0
    outer loop
      vertex -72 42 -36
      vertex -72 5 0
      vertex -72 13.5 -5.9
    endloop
  endfacet
  facet normal -1 0 0
    outer loop
      vertex -72 32.5 -5.9
      vertex -72 42 -36
      vertex -72 29.5 -5.9
    endloop
  endfacet
  facet normal -1 0 0
    outer loop
      vertex -72 29.5 -4.1
      vertex -72 16.5 -5.9
      vertex -72 49 0
    endloop
  endfacet
  facet normal -1 0 0
    outer loop
      vertex -72 16.5 -5.9
      vertex -72 16.5 -4.1
      vertex -72 49 0
    endloop
  endfacet
  facet normal -1 0 0
    outer loop
      vertex -72 29.5 -5.9
      vertex -72 16.5 -5.9
      vertex -72 29.5 -4.1
    endloop
  endfacet
  facet normal -1 0 0
    outer loop
      vertex -72 32.5 -4.1
      vertex -72 29.5 -4.1
      vertex -72 49 0
    endloop
  endfacet
  facet normal -1 0 0
    outer loop
      vertex -72 42 -36
      vertex -72 16.5 -5.9
      vertex -72 29.5 -5.9
    endloop
  endfacet
  facet normal -1 0 0
    outer loop
      vertex -72 42 -36
      vertex -72 32.5 -5.9
      vertex -72 49 0
    endloop
  endfacet
  facet normal -1 0 0
    outer loop
      vertex -72 32.5 -5.9
      vertex -72 32.5 -4.1
      vertex -72 49 0
    endloop
  endfacet
  facet normal -1 0 0
    outer loop
      vertex -72 16.5 -5.9
      vertex -72 42 -36
      vertex -72 13.5 -5.9
    endloop
  endfacet
  facet normal -0.839219 -0.543793 1.20746e-16
    outer loop
      vertex -72 5 -36
      vertex -70.0561 2 -37.5286
      vertex -72 5 0
    endloop
  endfacet
  facet normal -0.839219 -0.543793 1.20746e-16
    outer loop
      vertex -72 5 0
      vertex -70.0561 2 -37.5286
      vertex -70.0561 2 0
    endloop
  endfacet
  facet normal -0.774597 -0.19544 -0.601501
    outer loop
      vertex -72 5 -36
      vertex -69 7.359 -40.6298
      vertex -70.0561 2 -37.5286
    endloop
  endfacet
  facet normal -0.774597 -0.19544 -0.601501
    outer loop
      vertex -70.0561 2 -37.5286
      vertex -69 7.359 -40.6298
      vertex -67.6163 2 -40.6705
    endloop
  endfacet
  facet normal -0.029388 -2.21949e-16 -0.999568
    outer loop
      vertex -69 7.359 -40.6298
      vertex -69 44.359 -40.6298
      vertex -67.6163 2 -40.6705
    endloop
  endfacet
  facet normal -0.029388 -2.21949e-16 -0.999568
    outer loop
      vertex -67.6163 2 -40.6705
      vertex -69 44.359 -40.6298
      vertex -67.5 38.5497 -40.6739
    endloop
  endfacet
  facet normal -0.029388 -2.21949e-16 -0.999568
    outer loop
      vertex -67.6163 2 -40.6705
      vertex -67.5 38.5497 -40.6739
      vertex -67.5 2 -40.6739
    endloop
  endfacet
  facet normal 0 0.00759122 -0.999971
    outer loop
      vertex -46 38.5497 -40.6739
      vertex 69 44.359 -40.6298
      vertex 67.5 38.5497 -40.6739
    endloop
  endfacet
  facet normal 0 0.00759122 -0.999971
    outer loop
      vertex -69 44.359 -40.6298
      vertex 69 44.359 -40.6298
      vertex -46 39.5 -40.6667
    endloop
  endfacet
  facet normal 0 0.00759122 -0.999971
    outer loop
      vertex -69 44.359 -40.6298
      vertex -46 39.5 -40.6667
      vertex -51 39.5 -40.6667
    endloop
  endfacet
  facet normal 0 0.00759122 -0.999971
    outer loop
      vertex -64.5 38.5497 -40.6739
      vertex -67.5 38.5497 -40.6739
      vertex -64.5 39.5 -40.6667
    endloop
  endfacet
  facet normal 0 0.00759122 -0.999971
    outer loop
      vertex -51 38.5497 -40.6739
      vertex -59.5 38.5497 -40.6739
      vertex -51 39.5 -40.6667
    endloop
  endfacet
  facet normal 0 0.00759122 -0.999971
    outer loop
      vertex -69 44.359 -40.6298
      vertex -51 39.5 -40.6667
      vertex -59.5 39.5 -40.6667
    endloop
  endfacet
  facet normal 0 0.00759122 -0.999971
    outer loop
      vertex -69 44.359 -40.6298
      vertex -59.5 39.5 -40.6667
      vertex -64.5 39.5 -40.6667
    endloop
  endfacet
  facet normal 0 0.00759122 -0.999971
    outer loop
      vertex -69 44.359 -40.6298
      vertex -64.5 39.5 -40.6667
      vertex -67.5 38.5497 -40.6739
    endloop
  endfacet
  facet normal 0 0.00759122 -0.999971
    outer loop
      vertex -46 39.5 -40.6667
      vertex 69 44.359 -40.6298
      vertex -46 38.5497 -40.6739
    endloop
  endfacet
  facet normal 0 0.00759122 -0.999971
    outer loop
      vertex -59.5 39.5 -40.6667
      vertex -51 39.5 -40.6667
      vertex -59.5 38.5497 -40.6739
    endloop
  endfacet
  facet normal 0 0.804532 -0.59391
    outer loop
      vertex -69 44.359 -40.6298
      vertex -67.5 47.8093 -35.9559
      vertex 69 44.359 -40.6298
    endloop
  endfacet
  facet normal 0 0.804532 -0.59391
    outer loop
      vertex 69 44.359 -40.6298
      vertex -67.5 47.8093 -35.9559
      vertex 67.5 47.8093 -35.9559
    endloop
  endfacet
  facet normal -0.774597 0.601501 -0.19544
    outer loop
      vertex -72 42 -36
      vertex -69 46.6298 -33.641
      vertex -69 44.359 -40.6298
    endloop
  endfacet
  facet normal -0.774597 0.601501 -0.19544
    outer loop
      vertex -69 44.359 -40.6298
      vertex -69 46.6298 -33.641
      vertex -67.5 47.8093 -35.9559
    endloop
  endfacet
  facet normal -0.805461 0.58114 -0.116228
    outer loop
      vertex -72 42 -36
      vertex -72 49 -1
      vertex -69 46.6298 -33.641
    endloop
  endfacet
  facet normal -0.805461 0.58114 -0.116228
    outer loop
      vertex -69 46.6298 -33.641
      vertex -72 49 -1
      vertex -70.7283 50.9626 0
    endloop
  endfacet
  facet normal -0.805461 0.58114 -0.116228
    outer loop
      vertex -69 53.158 -1
      vertex -70.7283 50.9626 0
      vertex -69 53.358 0
    endloop
  endfacet
  facet normal -0.805461 0.58114 -0.116228
    outer loop
      vertex -69 46.6298 -33.641
      vertex -70.7283 50.9626 0
      vertex -69 53.158 -1
    endloop
  endfacet
  facet normal -0.839219 0.543793 -1.20746e-16
    outer loop
      vertex -70.7283 50.9626 0
      vertex -72 49 -1
      vertex -72 49 0
    endloop
  endfacet
  facet normal 0 0 1
    outer loop
      vertex -70.0561 2 0
      vertex -69 2 0
      vertex -69 53.358 0
    endloop
  endfacet
  facet normal 0 0 1
    outer loop
      vertex -72 49 0
      vertex -70.0561 2 0
      vertex -70.7283 50.9626 0
    endloop
  endfacet
  facet normal 0 0 1
    outer loop
      vertex -70.7283 50.9626 0
      vertex -70.0561 2 0
      vertex -69 53.358 0
    endloop
  endfacet
  facet normal 0 0 1
    outer loop
      vertex -72 5 0
      vertex -70.0561 2 0
      vertex -72 49 0
    endloop
  endfacet
  facet normal 0 0 -1
    outer loop
      vertex -69 16.5 -4.1
      vertex -69 13.5 -4.1
      vertex -72 16.5 -4.1
    endloop
  endfacet
  facet normal 0 0 -1
    outer loop
      vertex -72 16.5 -4.1
      vertex -69 13.5 -4.1
      vertex -72 13.5 -4.1
    endloop
  endfacet
  facet normal 0 1 0
    outer loop
      vertex -69 13.5 -4.1
      vertex -69 13.5 -5.9
      vertex -72 13.5 -4.1
    endloop
  endfacet
  facet normal 0 1 0
    outer loop
      vertex -72 13.5 -4.1
      vertex -69 13.5 -5.9
      vertex -72 13.5 -5.9
    endloop
  endfacet
  facet normal 0 -1 0
    outer loop
      vertex -69 16.5 -5.9
      vertex -69 16.5 -4.1
      vertex -72 16.5 -4.1
    endloop
  endfacet
  facet normal 0 -1 0
    outer loop
      vertex -72 16.5 -5.9
      vertex -69 16.5 -5.9
      vertex -72 16.5 -4.1
    endloop
  endfacet
  facet normal 0 0 1
    outer loop
      vertex -69 13.5 -5.9
      vertex -69 16.5 -5.9
      vertex -72 16.5 -5.9
    endloop
  endfacet
  facet normal 0 0 1
    outer loop
      vertex -72 13.5 -5.9
      vertex -69 13.5 -5.9
      vertex -72 16.5 -5.9
    endloop
  endfacet
  facet normal 0 0 -1
    outer loop
      vertex -69 32.5 -4.1
      vertex -69 29.5 -4.1
      vertex -72 32.5 -4.1
    endloop
  endfacet
  facet normal 0 0 -1
    outer loop
      vertex -72 32.5 -4.1
      vertex -69 29.5 -4.1
      vertex -72 29.5 -4.1
    endloop
  endfacet
  facet normal 0 1 0
    outer loop
      vertex -69 29.5 -4.1
      vertex -69 29.5 -5.9
      vertex -72 29.5 -4.1
    endloop
  endfacet
  facet normal 0 1 0
    outer loop
      vertex -72 29.5 -4.1
      vertex -69 29.5 -5.9
      vertex -72 29.5 -5.9
    endloop
  endfacet
  facet normal 0 -1 0
    outer loop
      vertex -69 32.5 -5.9
      vertex -69 32.5 -4.1
      vertex -72 32.5 -4.1
    endloop
  endfacet
  facet normal 0 -1 0
    outer loop
      vertex -72 32.5 -5.9
      vertex -69 32.5 -5.9
      vertex -72 32.5 -4.1
    endloop
  endfacet
  facet normal 0 0 1
    outer loop
      vertex -69 29.5 -5.9
      vertex -69 32.5 -5.9
      vertex -72 32.5 -5.9
    endloop
  endfacet
  facet normal 0 0 1
    outer loop
      vertex -72 29.5 -5.9
      vertex -69 29.5 -5.9
      vertex -72 32.5 -5.9
    endloop
  endfacet
  facet normal 0 -1 2.22045e-16
    outer loop
      vertex -67.6163 2 -40.6705
      vertex -67.5 2 -40.6739
      vertex 67.5 2 -40.6739
    endloop
  endfacet
  facet normal 0 -1 2.22045e-16
    outer loop
      vertex 66.75 2 -38.337
      vertex -67.6163 2 -40.6705
      vertex 67.6163 2 -40.6705
    endloop
  endfacet
  facet normal 0 -1 2.22045e-16
    outer loop
      vertex 67.6163 2 -40.6705
      vertex -67.6163 2 -40.6705
      vertex 67.5 2 -40.6739
    endloop
  endfacet
  facet normal 0 -1 2.22045e-16
    outer loop
      vertex 69 2 -36
      vertex 67.5 2 -38.3149
      vertex 70.0561 2 -37.5286
    endloop
  endfacet
  facet normal 0 -1 2.22045e-16
    outer loop
      vertex 70.0561 2 0
      vertex 69 2 -36
      vertex 70.0561 2 -37.5286
    endloop
  endfacet
  facet normal 0 -1 2.22045e-16
    outer loop
      vertex 70.0561 2 -37.5286
      vertex 67.5 2 -38.3149
      vertex 67.6163 2 -40.6705
    endloop
  endfacet
  facet normal 0 -1 2.22045e-16
    outer loop
      vertex 67.5 2 -38.3149
      vertex 66.75 2 -38.337
      vertex 67.6163 2 -40.6705
    endloop
  endfacet
  facet normal 0 -1 2.22045e-16
    outer loop
      vertex -67.5 2 -38.3149
      vertex -67.6163 2 -40.6705
      vertex -66.75 2 -38.337
    endloop
  endfacet
  facet normal 0 -1 2.22045e-16
    outer loop
      vertex -69 2 -36
      vertex -67.6163 2 -40.6705
      vertex -67.5 2 -38.3149
    endloop
  endfacet
  facet normal 0 -1 2.22045e-16
    outer loop
      vertex -70.0561 2 -37.5286
      vertex -67.6163 2 -40.6705
      vertex -69 2 -36
    endloop
  endfacet
  facet normal 0 -1 2.22045e-16
    outer loop
      vertex -70.0561 2 0
      vertex -69 2 -36
      vertex -69 2 0
    endloop
  endfacet
  facet normal 0 -1 2.22045e-16
    outer loop
      vertex -70.0561 2 -37.5286
      vertex -69 2 -36
      vertex -70.0561 2 0
    endloop
  endfacet
  facet normal 0 -1 2.22045e-16
    outer loop
      vertex 69 2 0
      vertex 69 2 -36
      vertex 70.0561 2 0
    endloop
  endfacet
  facet normal 0 -1 2.22045e-16
    outer loop
      vertex 66.75 2 -38.337
      vertex -66.75 2 -38.337
      vertex -67.6163 2 -40.6705
    endloop
  endfacet
  facet normal 0 -2.22045e-16 -1
    outer loop
      vertex -67.5 2 -40.6739
      vertex -67.5 38.5497 -40.6739
      vertex -64.5 17.5 -40.6739
    endloop
  endfacet
  facet normal 0 -2.22045e-16 -1
    outer loop
      vertex -67.5 2 -40.6739
      vertex -64.5 17.5 -40.6739
      vertex 67.5 2 -40.6739
    endloop
  endfacet
  facet normal 0 -2.22045e-16 -1
    outer loop
      vertex -51 17.5 -40.6739
      vertex -59.5 26 -40.6739
      vertex -51 26 -40.6739
    endloop
  endfacet
  facet normal 0 -2.22045e-16 -1
    outer loop
      vertex -64.5 17.5 -40.6739
      vertex -59.5 17.5 -40.6739
      vertex 67.5 2 -40.6739
    endloop
  endfacet
  facet normal 0 -2.22045e-16 -1
    outer loop
      vertex -59.5 17.5 -40.6739
      vertex -59.5 26 -40.6739
      vertex -51 17.5 -40.6739
    endloop
  endfacet
  facet normal 0 -2.22045e-16 -1
    outer loop
      vertex -59.5 17.5 -40.6739
      vertex -51 17.5 -40.6739
      vertex 67.5 2 -40.6739
    endloop
  endfacet
  facet normal 0 -2.22045e-16 -1
    outer loop
      vertex -46 38.5497 -40.6739
      vertex 67.5 2 -40.6739
      vertex -46 17.5 -40.6739
    endloop
  endfacet
  facet normal 0 -2.22045e-16 -1
    outer loop
      vertex -51 17.5 -40.6739
      vertex -46 17.5 -40.6739
      vertex 67.5 2 -40.6739
    endloop
  endfacet
  facet normal 0 -2.22045e-16 -1
    outer loop
      vertex 67.5 2 -40.6739
      vertex -46 38.5497 -40.6739
      vertex 67.5 38.5497 -40.6739
    endloop
  endfacet
  facet normal 0 -2.22045e-16 -1
    outer loop
      vertex -64.5 17.5 -40.6739
      vertex -67.5 38.5497 -40.6739
      vertex -64.5 38.5497 -40.6739
    endloop
  endfacet
  facet normal 1 0 0
    outer loop
      vertex -64.5 38.5497 -40.6739
      vertex -64.5 39.5 -40.6667
      vertex -64.5 39.5 -38.337
    endloop
  endfacet
  facet normal 1 0 0
    outer loop
      vertex -64.5 17.5 -40.6739
      vertex -64.5 38.5497 -40.6739
      vertex -64.5 17.5 -38.337
    endloop
  endfacet
  facet normal 1 0 0
    outer loop
      vertex -64.5 17.5 -38.337
      vertex -64.5 38.5497 -40.6739
      vertex -64.5 39.5 -38.337
    endloop
  endfacet
  facet normal 0 -1 4.44089e-16
    outer loop
      vertex -59.5 39.5 -40.6667
      vertex -59.5 39.5 -38.337
      vertex -64.5 39.5 -38.337
    endloop
  endfacet
  facet normal 0 -1 4.44089e-16
    outer loop
      vertex -64.5 39.5 -40.6667
      vertex -59.5 39.5 -40.6667
      vertex -64.5 39.5 -38.337
    endloop
  endfacet
  facet normal -1 0 0
    outer loop
      vertex -59.5 39.5 -38.337
      vertex -59.5 39.5 -40.6667
      vertex -59.5 30 -38.337
    endloop
  endfacet
  facet normal -1 0 0
    outer loop
      vertex -59.5 30 -38.337
      vertex -59.5 39.5 -40.6667
      vertex -59.5 38.5497 -40.6739
    endloop
  endfacet
  facet normal -1 0 0
    outer loop
      vertex -59.5 30 -38.337
      vertex -59.5 38.5497 -40.6739
      vertex -59.5 30 -40.6739
    endloop
  endfacet
  facet normal 0 -2.22045e-16 -1
    outer loop
      vertex -59.5 30 -40.6739
      vertex -59.5 38.5497 -40.6739
      vertex -51 30 -40.6739
    endloop
  endfacet
  facet normal 0 -2.22045e-16 -1
    outer loop
      vertex -51 30 -40.6739
      vertex -59.5 38.5497 -40.6739
      vertex -51 38.5497 -40.6739
    endloop
  endfacet
  facet normal 1 0 0
    outer loop
      vertex -51 38.5497 -40.6739
      vertex -51 39.5 -40.6667
      vertex -51 39.5 -38.337
    endloop
  endfacet
  facet normal 1 0 0
    outer loop
      vertex -51 30 -40.6739
      vertex -51 38.5497 -40.6739
      vertex -51 30 -38.337
    endloop
  endfacet
  facet normal 1 0 0
    outer loop
      vertex -51 30 -38.337
      vertex -51 38.5497 -40.6739
      vertex -51 39.5 -38.337
    endloop
  endfacet
  facet normal 0 -1 4.44089e-16
    outer loop
      vertex -46 39.5 -40.6667
      vertex -46 39.5 -38.337
      vertex -51 39.5 -38.337
    endloop
  endfacet
  facet normal 0 -1 4.44089e-16
    outer loop
      vertex -51 39.5 -40.6667
      vertex -46 39.5 -40.6667
      vertex -51 39.5 -38.337
    endloop
  endfacet
  facet normal -1 0 0
    outer loop
      vertex -46 39.5 -38.337
      vertex -46 39.5 -40.6667
      vertex -46 17.5 -38.337
    endloop
  endfacet
  facet normal -1 0 0
    outer loop
      vertex -46 17.5 -38.337
      vertex -46 39.5 -40.6667
      vertex -46 38.5497 -40.6739
    endloop
  endfacet
  facet normal -1 0 0
    outer loop
      vertex -46 17.5 -38.337
      vertex -46 38.5497 -40.6739
      vertex -46 17.5 -40.6739
    endloop
  endfacet
  facet normal 0.029388 -2.21949e-16 -0.999568
    outer loop
      vertex 67.5 2 -40.6739
      vertex 67.5 38.5497 -40.6739
      vertex 67.6163 2 -40.6705
    endloop
  endfacet
  facet normal 0.029388 -2.21949e-16 -0.999568
    outer loop
      vertex 67.6163 2 -40.6705
      vertex 67.5 38.5497 -40.6739
      vertex 69 44.359 -40.6298
    endloop
  endfacet
  facet normal 0.029388 -2.21949e-16 -0.999568
    outer loop
      vertex 67.6163 2 -40.6705
      vertex 69 44.359 -40.6298
      vertex 69 7.359 -40.6298
    endloop
  endfacet
  facet normal 0.839219 -1.20746e-16 -0.543793
    outer loop
      vertex 72 5 -36
      vertex 69 7.359 -40.6298
      vertex 69 44.359 -40.6298
    endloop
  endfacet
  facet normal 0.839219 -1.20746e-16 -0.543793
    outer loop
      vertex 72 42 -36
      vertex 72 5 -36
      vertex 69 44.359 -40.6298
    endloop
  endfacet
  facet normal 0.774597 0.601501 -0.19544
    outer loop
      vertex 69 44.359 -40.6298
      vertex 67.5 47.8093 -35.9559
      vertex 69 46.6298 -33.641
    endloop
  endfacet
  facet normal 0.774597 0.601501 -0.19544
    outer loop
      vertex 72 42 -36
      vertex 69 44.359 -40.6298
      vertex 69 46.6298 -33.641
    endloop
  endfacet
  facet normal 0.731783 0.668302 -0.13366
    outer loop
      vertex 69 46.6298 -33.641
      vertex 67.5 47.8093 -35.9559
      vertex 67.5 54.3375 -3.3149
    endloop
  endfacet
  facet normal 0.731783 0.668302 -0.13366
    outer loop
      vertex 69 53.158 -1
      vertex 69 46.6298 -33.641
      vertex 67.5 54.3375 -3.3149
    endloop
  endfacet
  facet normal 0 0.980581 -0.196116
    outer loop
      vertex -67.5 47.8093 -35.9559
      vertex -67.5 54.3375 -3.3149
      vertex 67.5 47.8093 -35.9559
    endloop
  endfacet
  facet normal 0 0.980581 -0.196116
    outer loop
      vertex 67.5 47.8093 -35.9559
      vertex -67.5 54.3375 -3.3149
      vertex -66.75 54.3331 -3.33695
    endloop
  endfacet
  facet normal 0 0.980581 -0.196116
    outer loop
      vertex 67.5 47.8093 -35.9559
      vertex -66.75 54.3331 -3.33695
      vertex 66.75 54.3331 -3.33695
    endloop
  endfacet
  facet normal 0 0.980581 -0.196116
    outer loop
      vertex 66.75 54.3331 -3.33695
      vertex 67.5 54.3375 -3.3149
      vertex 67.5 47.8093 -35.9559
    endloop
  endfacet
  facet normal -0.731783 0.668302 -0.13366
    outer loop
      vertex -69 46.6298 -33.641
      vertex -69 53.158 -1
      vertex -67.5 47.8093 -35.9559
    endloop
  endfacet
  facet normal -0.731783 0.668302 -0.13366
    outer loop
      vertex -67.5 47.8093 -35.9559
      vertex -69 53.158 -1
      vertex -67.5 54.3375 -3.3149
    endloop
  endfacet
  facet normal 0.839219 1.20746e-16 0.543793
    outer loop
      vertex -67.5 50.616 -3.3149
      vertex -67.5 54.3375 -3.3149
      vertex -69 53.158 -1
    endloop
  endfacet
  facet normal 0.839219 1.20746e-16 0.543793
    outer loop
      vertex -69 49 -1
      vertex -67.5 50.616 -3.3149
      vertex -69 53.158 -1
    endloop
  endfacet
  facet normal 1 0 0
    outer loop
      vertex -69 53.358 0
      vertex -69 49 -1
      vertex -69 53.158 -1
    endloop
  endfacet
  facet normal 1 0 0
    outer loop
      vertex -69 2 0
      vertex -69 49 -1
      vertex -69 53.358 0
    endloop
  endfacet
  facet normal 1 0 0
    outer loop
      vertex -69 13.5 -4.1
      vertex -69 49 -1
      vertex -69 2 0
    endloop
  endfacet
  facet normal 1 0 0
    outer loop
      vertex -69 2 -36
      vertex -69 42 -36
      vertex -69 2 0
    endloop
  endfacet
  facet normal 1 0 0
    outer loop
      vertex -69 13.5 -5.9
      vertex -69 13.5 -4.1
      vertex -69 2 0
    endloop
  endfacet
  facet normal 1 0 0
    outer loop
      vertex -69 16.5 -4.1
      vertex -69 49 -1
      vertex -69 13.5 -4.1
    endloop
  endfacet
  facet normal 1 0 0
    outer loop
      vertex -69 29.5 -4.1
      vertex -69 49 -1
      vertex -69 16.5 -4.1
    endloop
  endfacet
  facet normal 1 0 0
    outer loop
      vertex -69 32.5 -5.9
      vertex -69 29.5 -5.9
      vertex -69 42 -36
    endloop
  endfacet
  facet normal 1 0 0
    outer loop
      vertex -69 42 -36
      vertex -69 16.5 -4.1
      vertex -69 16.5 -5.9
    endloop
  endfacet
  facet normal 1 0 0
    outer loop
      vertex -69 42 -36
      vertex -69 13.5 -5.9
      vertex -69 2 0
    endloop
  endfacet
  facet normal 1 0 0
    outer loop
      vertex -69 29.5 -5.9
      vertex -69 29.5 -4.1
      vertex -69 16.5 -4.1
    endloop
  endfacet
  facet normal 1 0 0
    outer loop
      vertex -69 32.5 -4.1
      vertex -69 49 -1
      vertex -69 29.5 -4.1
    endloop
  endfacet
  facet normal 1 0 0
    outer loop
      vertex -69 42 -36
      vertex -69 49 -1
      vertex -69 32.5 -4.1
    endloop
  endfacet
  facet normal 1 0 0
    outer loop
      vertex -69 42 -36
      vertex -69 32.5 -4.1
      vertex -69 32.5 -5.9
    endloop
  endfacet
  facet normal 1 0 0
    outer loop
      vertex -69 42 -36
      vertex -69 29.5 -5.9
      vertex -69 16.5 -4.1
    endloop
  endfacet
  facet normal 1 0 0
    outer loop
      vertex -69 16.5 -5.9
      vertex -69 13.5 -5.9
      vertex -69 42 -36
    endloop
  endfacet
  facet normal 0.839219 1.20746e-16 0.543793
    outer loop
      vertex -67.5 2 -38.3149
      vertex -67.5 43.1795 -38.3149
      vertex -69 42 -36
    endloop
  endfacet
  facet normal 0.839219 1.20746e-16 0.543793
    outer loop
      vertex -69 2 -36
      vertex -67.5 2 -38.3149
      vertex -69 42 -36
    endloop
  endfacet
  facet normal 0.029388 2.21949e-16 0.999568
    outer loop
      vertex -66.75 2 -38.337
      vertex -66.75 40.2748 -38.337
      vertex -67.5 43.1795 -38.3149
    endloop
  endfacet
  facet normal 0.029388 2.21949e-16 0.999568
    outer loop
      vertex -67.5 2 -38.3149
      vertex -66.75 2 -38.337
      vertex -67.5 43.1795 -38.3149
    endloop
  endfacet
  facet normal 0 2.22045e-16 1
    outer loop
      vertex -59.5 39.5 -38.337
      vertex 66.75 40.2748 -38.337
      vertex -66.75 40.2748 -38.337
    endloop
  endfacet
  facet normal 0 2.22045e-16 1
    outer loop
      vertex -66.75 2 -38.337
      vertex -64.5 39.5 -38.337
      vertex -66.75 40.2748 -38.337
    endloop
  endfacet
  facet normal 0 2.22045e-16 1
    outer loop
      vertex -51 30 -38.337
      vertex -51 39.5 -38.337
      vertex -59.5 39.5 -38.337
    endloop
  endfacet
  facet normal 0 2.22045e-16 1
    outer loop
      vertex -51 39.5 -38.337
      vertex 66.75 40.2748 -38.337
      vertex -59.5 39.5 -38.337
    endloop
  endfacet
  facet normal 0 2.22045e-16 1
    outer loop
      vertex -59.5 17.5 -38.337
      vertex -64.5 17.5 -38.337
      vertex -66.75 2 -38.337
    endloop
  endfacet
  facet normal 0 2.22045e-16 1
    outer loop
      vertex -46 39.5 -38.337
      vertex 66.75 40.2748 -38.337
      vertex -51 39.5 -38.337
    endloop
  endfacet
  facet normal 0 2.22045e-16 1
    outer loop
      vertex 66.75 2 -38.337
      vertex 66.75 40.2748 -38.337
      vertex -46 39.5 -38.337
    endloop
  endfacet
  facet normal 0 2.22045e-16 1
    outer loop
      vertex -51 26 -38.337
      vertex -59.5 26 -38.337
      vertex -51 17.5 -38.337
    endloop
  endfacet
  facet normal 0 2.22045e-16 1
    outer loop
      vertex -66.75 2 -38.337
      vertex 66.75 2 -38.337
      vertex -46 17.5 -38.337
    endloop
  endfacet
  facet normal 0 2.22045e-16 1
    outer loop
      vertex -66.75 2 -38.337
      vertex -46 17.5 -38.337
      vertex -51 17.5 -38.337
    endloop
  endfacet
  facet normal 0 2.22045e-16 1
    outer loop
      vertex -59.5 17.5 -38.337
      vertex -51 17.5 -38.337
      vertex -59.5 26 -38.337
    endloop
  endfacet
  facet normal 0 2.22045e-16 1
    outer loop
      vertex -66.75 2 -38.337
      vertex -51 17.5 -38.337
      vertex -59.5 17.5 -38.337
    endloop
  endfacet
  facet normal 0 2.22045e-16 1
    outer loop
      vertex -66.75 2 -38.337
      vertex -64.5 17.5 -38.337
      vertex -64.5 39.5 -38.337
    endloop
  endfacet
  facet normal 0 2.22045e-16 1
    outer loop
      vertex -64.5 39.5 -38.337
      vertex -59.5 39.5 -38.337
      vertex -66.75 40.2748 -38.337
    endloop
  endfacet
  facet normal 0 2.22045e-16 1
    outer loop
      vertex -59.5 39.5 -38.337
      vertex -59.5 30 -38.337
      vertex -51 30 -38.337
    endloop
  endfacet
  facet normal 0 2.22045e-16 1
    outer loop
      vertex -46 39.5 -38.337
      vertex -46 17.5 -38.337
      vertex 66.75 2 -38.337
    endloop
  endfacet
  facet normal -0.029388 2.21949e-16 0.999568
    outer loop
      vertex 67.5 2 -38.3149
      vertex 67.5 43.1795 -38.3149
      vertex 66.75 40.2748 -38.337
    endloop
  endfacet
  facet normal -0.029388 2.21949e-16 0.999568
    outer loop
      vertex 66.75 2 -38.337
      vertex 67.5 2 -38.3149
      vertex 66.75 40.2748 -38.337
    endloop
  endfacet
  facet normal -0.839219 1.20746e-16 0.543793
    outer loop
      vertex 69 42 -36
      vertex 67.5 43.1795 -38.3149
      vertex 69 2 -36
    endloop
  endfacet
  facet normal -0.839219 1.20746e-16 0.543793
    outer loop
      vertex 69 2 -36
      vertex 67.5 43.1795 -38.3149
      vertex 67.5 2 -38.3149
    endloop
  endfacet
  facet normal -1 0 0
    outer loop
      vertex 69 53.358 0
      vertex 69 53.158 -1
      vertex 69 2 0
    endloop
  endfacet
  facet normal -1 0 0
    outer loop
      vertex 69 2 0
      vertex 69 53.158 -1
      vertex 69 49 -1
    endloop
  endfacet
  facet normal -1 0 0
    outer loop
      vertex 69 32.5 -5.9
      vertex 69 49 -1
      vertex 69 42 -36
    endloop
  endfacet
  facet normal -1 0 0
    outer loop
      vertex 69 2 0
      vertex 69 42 -36
      vertex 69 2 -36
    endloop
  endfacet
  facet normal -1 0 0
    outer loop
      vertex 69 29.5 -5.9
      vertex 69 16.5 -5.9
      vertex 69 29.5 -4.1
    endloop
  endfacet
  facet normal -1 0 0
    outer loop
      vertex 69 2 0
      vertex 69 13.5 -5.9
      vertex 69 42 -36
    endloop
  endfacet
  facet normal -1 0 0
    outer loop
      vertex 69 13.5 -5.9
      vertex 69 16.5 -5.9
      vertex 69 42 -36
    endloop
  endfacet
  facet normal -1 0 0
    outer loop
      vertex 69 2 0
      vertex 69 49 -1
      vertex 69 16.5 -4.1
    endloop
  endfacet
  facet normal -1 0 0
    outer loop
      vertex 69 2 0
      vertex 69 16.5 -4.1
      vertex 69 13.5 -4.1
    endloop
  endfacet
  facet normal -1 0 0
    outer loop
      vertex 69 2 0
      vertex 69 13.5 -4.1
      vertex 69 13.5 -5.9
    endloop
  endfacet
  facet normal -1 0 0
    outer loop
      vertex 69 16.5 -5.9
      vertex 69 29.5 -5.9
      vertex 69 42 -36
    endloop
  endfacet
  facet normal -1 0 0
    outer loop
      vertex 69 29.5 -5.9
      vertex 69 32.5 -5.9
      vertex 69 42 -36
    endloop
  endfacet
  facet normal -1 0 0
    outer loop
      vertex 69 29.5 -4.1
      vertex 69 49 -1
      vertex 69 32.5 -4.1
    endloop
  endfacet
  facet normal -1 0 0
    outer loop
      vertex 69 32.5 -4.1
      vertex 69 49 -1
      vertex 69 32.5 -5.9
    endloop
  endfacet
  facet normal -1 0 0
    outer loop
      vertex 69 16.5 -5.9
      vertex 69 49 -1
      vertex 69 29.5 -4.1
    endloop
  endfacet
  facet normal -1 0 0
    outer loop
      vertex 69 16.5 -4.1
      vertex 69 49 -1
      vertex 69 16.5 -5.9
    endloop
  endfacet
  facet normal 0 0 1
    outer loop
      vertex 70.0561 2 0
      vertex 72 5 0
      vertex 72 49 0
    endloop
  endfacet
  facet normal 0 0 1
    outer loop
      vertex 69 53.358 0
      vertex 70.0561 2 0
      vertex 70.7283 50.9626 0
    endloop
  endfacet
  facet normal 0 0 1
    outer loop
      vertex 70.7283 50.9626 0
      vertex 70.0561 2 0
      vertex 72 49 0
    endloop
  endfacet
  facet normal 0 0 1
    outer loop
      vertex 69 2 0
      vertex 70.0561 2 0
      vertex 69 53.358 0
    endloop
  endfacet
  facet normal 0.839219 -0.543793 1.20746e-16
    outer loop
      vertex 70.0561 2 0
      vertex 70.0561 2 -37.5286
      vertex 72 5 -36
    endloop
  endfacet
  facet normal 0.839219 -0.543793 1.20746e-16
    outer loop
      vertex 72 5 0
      vertex 70.0561 2 0
      vertex 72 5 -36
    endloop
  endfacet
  facet normal 0.774597 -0.19544 -0.601501
    outer loop
      vertex 70.0561 2 -37.5286
      vertex 67.6163 2 -40.6705
      vertex 69 7.359 -40.6298
    endloop
  endfacet
  facet normal 0.774597 -0.19544 -0.601501
    outer loop
      vertex 72 5 -36
      vertex 70.0561 2 -37.5286
      vertex 69 7.359 -40.6298
    endloop
  endfacet
  facet normal 0 1 -4.44089e-16
    outer loop
      vertex -46 17.5 -38.337
      vertex -46 17.5 -40.6739
      vertex -51 17.5 -38.337
    endloop
  endfacet
  facet normal 0 1 -4.44089e-16
    outer loop
      vertex -51 17.5 -38.337
      vertex -46 17.5 -40.6739
      vertex -51 17.5 -40.6739
    endloop
  endfacet
  facet normal 1 0 0
    outer loop
      vertex -51 26 -40.6739
      vertex -51 26 -38.337
      vertex -51 17.5 -38.337
    endloop
  endfacet
  facet normal 1 0 0
    outer loop
      vertex -51 17.5 -40.6739
      vertex -51 26 -40.6739
      vertex -51 17.5 -38.337
    endloop
  endfacet
  facet normal 0 1 -4.44089e-16
    outer loop
      vertex -51 26 -38.337
      vertex -51 26 -40.6739
      vertex -59.5 26 -38.337
    endloop
  endfacet
  facet normal 0 1 -4.44089e-16
    outer loop
      vertex -59.5 26 -38.337
      vertex -51 26 -40.6739
      vertex -59.5 26 -40.6739
    endloop
  endfacet
  facet normal -1 0 0
    outer loop
      vertex -59.5 26 -38.337
      vertex -59.5 26 -40.6739
      vertex -59.5 17.5 -38.337
    endloop
  endfacet
  facet normal -1 0 0
    outer loop
      vertex -59.5 17.5 -38.337
      vertex -59.5 26 -40.6739
      vertex -59.5 17.5 -40.6739
    endloop
  endfacet
  facet normal 0 1 -4.44089e-16
    outer loop
      vertex -59.5 17.5 -38.337
      vertex -59.5 17.5 -40.6739
      vertex -64.5 17.5 -38.337
    endloop
  endfacet
  facet normal 0 1 -4.44089e-16
    outer loop
      vertex -64.5 17.5 -38.337
      vertex -59.5 17.5 -40.6739
      vertex -64.5 17.5 -40.6739
    endloop
  endfacet
  facet normal 0 -1 4.44089e-16
    outer loop
      vertex -51 30 -40.6739
      vertex -51 30 -38.337
      vertex -59.5 30 -38.337
    endloop
  endfacet
  facet normal 0 -1 4.44089e-16
    outer loop
      vertex -59.5 30 -40.6739
      vertex -51 30 -40.6739
      vertex -59.5 30 -38.337
    endloop
  endfacet
  facet normal 1 0 0
    outer loop
      vertex 72 5 0
      vertex 72 5 -36
      vertex 72 42 -36
    endloop
  endfacet
  facet normal 1 0 0
    outer loop
      vertex 72 49 0
      vertex 72 5 0
      vertex 72 49 -1
    endloop
  endfacet
  facet normal 1 0 0
    outer loop
      vertex 72 13.5 -5.9
      vertex 72 5 0
      vertex 72 42 -36
    endloop
  endfacet
  facet normal 1 0 0
    outer loop
      vertex 72 16.5 -5.9
      vertex 72 13.5 -5.9
      vertex 72 42 -36
    endloop
  endfacet
  facet normal 1 0 0
    outer loop
      vertex 72 13.5 -4.1
      vertex 72 5 0
      vertex 72 13.5 -5.9
    endloop
  endfacet
  facet normal 1 0 0
    outer loop
      vertex 72 49 -1
      vertex 72 5 0
      vertex 72 13.5 -4.1
    endloop
  endfacet
  facet normal 1 0 0
    outer loop
      vertex 72 32.5 -4.1
      vertex 72 32.5 -5.9
      vertex 72 49 -1
    endloop
  endfacet
  facet normal 1 0 0
    outer loop
      vertex 72 49 -1
      vertex 72 13.5 -4.1
      vertex 72 16.5 -4.1
    endloop
  endfacet
  facet normal 1 0 0
    outer loop
      vertex 72 29.5 -5.9
      vertex 72 16.5 -5.9
      vertex 72 42 -36
    endloop
  endfacet
  facet normal 1 0 0
    outer loop
      vertex 72 32.5 -5.9
      vertex 72 29.5 -5.9
      vertex 72 42 -36
    endloop
  endfacet
  facet normal 1 0 0
    outer loop
      vertex 72 29.5 -4.1
      vertex 72 16.5 -5.9
      vertex 72 29.5 -5.9
    endloop
  endfacet
  facet normal 1 0 0
    outer loop
      vertex 72 49 -1
      vertex 72 16.5 -5.9
      vertex 72 29.5 -4.1
    endloop
  endfacet
  facet normal 1 0 0
    outer loop
      vertex 72 49 -1
      vertex 72 29.5 -4.1
      vertex 72 32.5 -4.1
    endloop
  endfacet
  facet normal 1 0 0
    outer loop
      vertex 72 49 -1
      vertex 72 32.5 -5.9
      vertex 72 42 -36
    endloop
  endfacet
  facet normal 1 0 0
    outer loop
      vertex 72 16.5 -4.1
      vertex 72 16.5 -5.9
      vertex 72 49 -1
    endloop
  endfacet
  facet normal 0.805461 0.58114 -0.116228
    outer loop
      vertex 72 42 -36
      vertex 69 46.6298 -33.641
      vertex 69 53.158 -1
    endloop
  endfacet
  facet normal 0.805461 0.58114 -0.116228
    outer loop
      vertex 70.7283 50.9626 0
      vertex 72 42 -36
      vertex 69 53.358 0
    endloop
  endfacet
  facet normal 0.805461 0.58114 -0.116228
    outer loop
      vertex 69 53.358 0
      vertex 72 42 -36
      vertex 69 53.158 -1
    endloop
  endfacet
  facet normal 0.805461 0.58114 -0.116228
    outer loop
      vertex 72 49 -1
      vertex 72 42 -36
      vertex 70.7283 50.9626 0
    endloop
  endfacet
  facet normal -0.839219 1.20746e-16 0.543793
    outer loop
      vertex 69 53.158 -1
      vertex 67.5 54.3375 -3.3149
      vertex 69 49 -1
    endloop
  endfacet
  facet normal -0.839219 1.20746e-16 0.543793
    outer loop
      vertex 69 49 -1
      vertex 67.5 54.3375 -3.3149
      vertex 67.5 50.616 -3.3149
    endloop
  endfacet
  facet normal -0.029388 2.21949e-16 0.999568
    outer loop
      vertex 67.5 50.616 -3.3149
      vertex 67.5 54.3375 -3.3149
      vertex 66.75 54.3331 -3.33695
    endloop
  endfacet
  facet normal -0.029388 2.21949e-16 0.999568
    outer loop
      vertex 66.75 51.4329 -3.33695
      vertex 67.5 50.616 -3.3149
      vertex 66.75 54.3331 -3.33695
    endloop
  endfacet
  facet normal 0 2.22045e-16 1
    outer loop
      vertex 66.75 51.4329 -3.33695
      vertex 66.75 54.3331 -3.33695
      vertex -66.75 54.3331 -3.33695
    endloop
  endfacet
  facet normal 0 2.22045e-16 1
    outer loop
      vertex -66.75 51.4329 -3.33695
      vertex 66.75 51.4329 -3.33695
      vertex -66.75 54.3331 -3.33695
    endloop
  endfacet
  facet normal 0.029388 2.21949e-16 0.999568
    outer loop
      vertex -66.75 51.4329 -3.33695
      vertex -66.75 54.3331 -3.33695
      vertex -67.5 54.3375 -3.3149
    endloop
  endfacet
  facet normal 0.029388 2.21949e-16 0.999568
    outer loop
      vertex -67.5 50.616 -3.3149
      vertex -66.75 51.4329 -3.33695
      vertex -67.5 54.3375 -3.3149
    endloop
  endfacet
  facet normal 0.805461 -0.58114 0.116228
    outer loop
      vertex -67.5 44.3149 -34.8205
      vertex -67.5 50.616 -3.3149
      vertex -69 49 -1
    endloop
  endfacet
  facet normal 0.805461 -0.58114 0.116228
    outer loop
      vertex -69 42 -36
      vertex -67.5 44.3149 -34.8205
      vertex -69 49 -1
    endloop
  endfacet
  facet normal 0.731783 -0.668302 0.13366
    outer loop
      vertex -66.75 44.9047 -35.9779
      vertex -66.75 51.4329 -3.33695
      vertex -67.5 50.616 -3.3149
    endloop
  endfacet
  facet normal 0.731783 -0.668302 0.13366
    outer loop
      vertex -67.5 44.3149 -34.8205
      vertex -66.75 44.9047 -35.9779
      vertex -67.5 50.616 -3.3149
    endloop
  endfacet
  facet normal 0.774597 -0.601501 0.19544
    outer loop
      vertex -67.5 43.1795 -38.3149
      vertex -66.75 44.9047 -35.9779
      vertex -67.5 44.3149 -34.8205
    endloop
  endfacet
  facet normal 0.774597 -0.601501 0.19544
    outer loop
      vertex -69 42 -36
      vertex -67.5 43.1795 -38.3149
      vertex -67.5 44.3149 -34.8205
    endloop
  endfacet
  facet normal 0 -0.804532 0.59391
    outer loop
      vertex 67.5 43.1795 -38.3149
      vertex 66.75 44.9047 -35.9779
      vertex -66.75 44.9047 -35.9779
    endloop
  endfacet
  facet normal 0 -0.804532 0.59391
    outer loop
      vertex -67.5 43.1795 -38.3149
      vertex 67.5 43.1795 -38.3149
      vertex -66.75 44.9047 -35.9779
    endloop
  endfacet
  facet normal 0 -0.00759122 0.999971
    outer loop
      vertex -66.75 40.2748 -38.337
      vertex 66.75 40.2748 -38.337
      vertex 67.5 43.1795 -38.3149
    endloop
  endfacet
  facet normal 0 -0.00759122 0.999971
    outer loop
      vertex -67.5 43.1795 -38.3149
      vertex -66.75 40.2748 -38.337
      vertex 67.5 43.1795 -38.3149
    endloop
  endfacet
  facet normal -0.774597 -0.601501 0.19544
    outer loop
      vertex 69 42 -36
      vertex 67.5 44.3149 -34.8205
      vertex 67.5 43.1795 -38.3149
    endloop
  endfacet
  facet normal -0.774597 -0.601501 0.19544
    outer loop
      vertex 67.5 43.1795 -38.3149
      vertex 67.5 44.3149 -34.8205
      vertex 66.75 44.9047 -35.9779
    endloop
  endfacet
  facet normal -0.805461 -0.58114 0.116228
    outer loop
      vertex 69 49 -1
      vertex 67.5 50.616 -3.3149
      vertex 69 42 -36
    endloop
  endfacet
  facet normal -0.805461 -0.58114 0.116228
    outer loop
      vertex 69 42 -36
      vertex 67.5 50.616 -3.3149
      vertex 67.5 44.3149 -34.8205
    endloop
  endfacet
  facet normal 0 0 1
    outer loop
      vertex 72 13.5 -5.9
      vertex 72 16.5 -5.9
      vertex 69 16.5 -5.9
    endloop
  endfacet
  facet normal 0 0 1
    outer loop
      vertex 69 13.5 -5.9
      vertex 72 13.5 -5.9
      vertex 69 16.5 -5.9
    endloop
  endfacet
  facet normal 0 1 0
    outer loop
      vertex 72 13.5 -4.1
      vertex 72 13.5 -5.9
      vertex 69 13.5 -4.1
    endloop
  endfacet
  facet normal 0 1 0
    outer loop
      vertex 69 13.5 -4.1
      vertex 72 13.5 -5.9
      vertex 69 13.5 -5.9
    endloop
  endfacet
  facet normal 0 0 -1
    outer loop
      vertex 72 16.5 -4.1
      vertex 72 13.5 -4.1
      vertex 69 16.5 -4.1
    endloop
  endfacet
  facet normal 0 0 -1
    outer loop
      vertex 69 16.5 -4.1
      vertex 72 13.5 -4.1
      vertex 69 13.5 -4.1
    endloop
  endfacet
  facet normal 0 -1 0
    outer loop
      vertex 72 16.5 -5.9
      vertex 72 16.5 -4.1
      vertex 69 16.5 -4.1
    endloop
  endfacet
  facet normal 0 -1 0
    outer loop
      vertex 69 16.5 -5.9
      vertex 72 16.5 -5.9
      vertex 69 16.5 -4.1
    endloop
  endfacet
  facet normal 0 0 1
    outer loop
      vertex 72 29.5 -5.9
      vertex 72 32.5 -5.9
      vertex 69 32.5 -5.9
    endloop
  endfacet
  facet normal 0 0 1
    outer loop
      vertex 69 29.5 -5.9
      vertex 72 29.5 -5.9
      vertex 69 32.5 -5.9
    endloop
  endfacet
  facet normal 0 1 0
    outer loop
      vertex 72 29.5 -4.1
      vertex 72 29.5 -5.9
      vertex 69 29.5 -4.1
    endloop
  endfacet
  facet normal 0 1 0
    outer loop
      vertex 69 29.5 -4.1
      vertex 72 29.5 -5.9
      vertex 69 29.5 -5.9
    endloop
  endfacet
  facet normal 0 0 -1
    outer loop
      vertex 72 32.5 -4.1
      vertex 72 29.5 -4.1
      vertex 69 32.5 -4.1
    endloop
  endfacet
  facet normal 0 0 -1
    outer loop
      vertex 69 32.5 -4.1
      vertex 72 29.5 -4.1
      vertex 69 29.5 -4.1
    endloop
  endfacet
  facet normal 0 -1 0
    outer loop
      vertex 72 32.5 -5.9
      vertex 72 32.5 -4.1
      vertex 69 32.5 -4.1
    endloop
  endfacet
  facet normal 0 -1 0
    outer loop
      vertex 69 32.5 -5.9
      vertex 72 32.5 -5.9
      vertex 69 32.5 -4.1
    endloop
  endfacet
  facet normal 0.839219 0.543793 -1.20746e-16
    outer loop
      vertex 72 49 -1
      vertex 70.7283 50.9626 0
      vertex 72 49 0
    endloop
  endfacet
  facet normal -0.731783 -0.668302 0.13366
    outer loop
      vertex 67.5 50.616 -3.3149
      vertex 66.75 51.4329 -3.33695
      vertex 67.5 44.3149 -34.8205
    endloop
  endfacet
  facet normal -0.731783 -0.668302 0.13366
    outer loop
      vertex 67.5 44.3149 -34.8205
      vertex 66.75 51.4329 -3.33695
      vertex 66.75 44.9047 -35.9779
    endloop
  endfacet
  facet normal 0 -0.980581 0.196116
    outer loop
      vertex 66.75 44.9047 -35.9779
      vertex 66.75 51.4329 -3.33695
      vertex -66.75 51.4329 -3.33695
    endloop
  endfacet
  facet normal 0 -0.980581 0.196116
    outer loop
      vertex -66.75 44.9047 -35.9779
      vertex 66.75 44.9047 -35.9779
      vertex -66.75 51.4329 -3.33695
    endloop
  endfacet
  facet normal -1 0 0
    outer loop
      vertex -72 -49 0
      vertex -72 -5 0
      vertex -72 -49 -1
    endloop
  endfacet
  facet normal -1 0 0
    outer loop
      vertex -72 -13.5 -5.9
      vertex -72 -5 0
      vertex -72 -5 -36
    endloop
  endfacet
  facet normal -1 0 0
    outer loop
      vertex -72 -49 -1
      vertex -72 -5 -36
      vertex -72 -42 -36
    endloop
  endfacet
  facet normal -1 0 0
    outer loop
      vertex -72 -49 -1
      vertex -72 -5 0
      vertex -72 -32.5 -4.1
    endloop
  endfacet
  facet normal -1 0 0
    outer loop
      vertex -72 -49 -1
      vertex -72 -32.5 -4.1
      vertex -72 -32.5 -5.9
    endloop
  endfacet
  facet normal -1 0 0
    outer loop
      vertex -72 -49 -1
      vertex -72 -32.5 -5.9
      vertex -72 -5 -36
    endloop
  endfacet
  facet normal -1 0 0
    outer loop
      vertex -72 -29.5 -4.1
      vertex -72 -5 0
      vertex -72 -29.5 -5.9
    endloop
  endfacet
  facet normal -1 0 0
    outer loop
      vertex -72 -13.5 -5.9
      vertex -72 -5 -36
      vertex -72 -16.5 -5.9
    endloop
  endfacet
  facet normal -1 0 0
    outer loop
      vertex -72 -32.5 -4.1
      vertex -72 -5 0
      vertex -72 -29.5 -4.1
    endloop
  endfacet
  facet normal -1 0 0
    outer loop
      vertex -72 -29.5 -5.9
      vertex -72 -5 0
      vertex -72 -16.5 -4.1
    endloop
  endfacet
  facet normal -1 0 0
    outer loop
      vertex -72 -29.5 -5.9
      vertex -72 -16.5 -4.1
      vertex -72 -16.5 -5.9
    endloop
  endfacet
  facet normal -1 0 0
    outer loop
      vertex -72 -29.5 -5.9
      vertex -72 -16.5 -5.9
      vertex -72 -5 -36
    endloop
  endfacet
  facet normal -1 0 0
    outer loop
      vertex -72 -13.5 -4.1
      vertex -72 -5 0
      vertex -72 -13.5 -5.9
    endloop
  endfacet
  facet normal -1 0 0
    outer loop
      vertex -72 -16.5 -4.1
      vertex -72 -5 0
      vertex -72 -13.5 -4.1
    endloop
  endfacet
  facet normal -1 0 0
    outer loop
      vertex -72 -29.5 -5.9
      vertex -72 -5 -36
      vertex -72 -32.5 -5.9
    endloop
  endfacet
  facet normal 0 0 1
    outer loop
      vertex -70.7283 -50.9626 0
      vertex -69 -53.358 0
      vertex -69 -2 0
    endloop
  endfacet
  facet normal 0 0 1
    outer loop
      vertex -72 -5 0
      vertex -70.7283 -50.9626 0
      vertex -70.0561 -2 0
    endloop
  endfacet
  facet normal 0 0 1
    outer loop
      vertex -70.0561 -2 0
      vertex -70.7283 -50.9626 0
      vertex -69 -2 0
    endloop
  endfacet
  facet normal 0 0 1
    outer loop
      vertex -72 -49 0
      vertex -70.7283 -50.9626 0
      vertex -72 -5 0
    endloop
  endfacet
  facet normal -0.839219 -0.543793 -1.20746e-16
    outer loop
      vertex -72 -49 0
      vertex -72 -49 -1
      vertex -70.7283 -50.9626 0
    endloop
  endfacet
  facet normal -0.839219 -0.543793 -1.20746e-16
    outer loop
      vertex -70.7283 -50.9626 0
      vertex -72 -49 -1
      vertex -69 -53.6298 -3.359
    endloop
  endfacet
  facet normal -0.839219 -0.543793 -1.20746e-16
    outer loop
      vertex -70.7283 -50.9626 0
      vertex -69 -53.6298 -3.359
      vertex -69 -53.6298 -1.359
    endloop
  endfacet
  facet normal -0.857608 -0.504316 -0.100863
    outer loop
      vertex -72 -49 -1
      vertex -72 -42 -36
      vertex -69 -53.6298 -3.359
    endloop
  endfacet
  facet normal -0.857608 -0.504316 -0.100863
    outer loop
      vertex -69 -53.6298 -3.359
      vertex -72 -42 -36
      vertex -69 -46.6298 -38.359
    endloop
  endfacet
  facet normal -0.839219 1.20746e-16 -0.543793
    outer loop
      vertex -72 -42 -36
      vertex -72 -5 -36
      vertex -69 -39.641 -40.6298
    endloop
  endfacet
  facet normal -0.839219 1.20746e-16 -0.543793
    outer loop
      vertex -69 -39.641 -40.6298
      vertex -72 -5 -36
      vertex -69 -2.641 -40.6298
    endloop
  endfacet
  facet normal -0.774597 -0.19544 -0.601501
    outer loop
      vertex -72 -42 -36
      vertex -69 -39.641 -40.6298
      vertex -69 -46.6298 -38.359
    endloop
  endfacet
  facet normal -0.774597 -0.19544 -0.601501
    outer loop
      vertex -69 -46.6298 -38.359
      vertex -69 -39.641 -40.6298
      vertex -67.5 -45.4503 -40.6739
    endloop
  endfacet
  facet normal -0.774597 0.601501 -0.19544
    outer loop
      vertex -72 -5 -36
      vertex -70.0561 -2 -34.4714
      vertex -69 -2.641 -40.6298
    endloop
  endfacet
  facet normal -0.774597 0.601501 -0.19544
    outer loop
      vertex -69 -2.641 -40.6298
      vertex -70.0561 -2 -34.4714
      vertex -68.7213 -2 -39.7615
    endloop
  endfacet
  facet normal -0.839219 0.543793 1.20746e-16
    outer loop
      vertex -72 -5 0
      vertex -70.0561 -2 0
      vertex -72 -5 -36
    endloop
  endfacet
  facet normal -0.839219 0.543793 1.20746e-16
    outer loop
      vertex -72 -5 -36
      vertex -70.0561 -2 0
      vertex -70.0561 -2 -34.4714
    endloop
  endfacet
  facet normal 0 0 -1
    outer loop
      vertex -69 -29.5 -4.1
      vertex -69 -32.5 -4.1
      vertex -72 -29.5 -4.1
    endloop
  endfacet
  facet normal 0 0 -1
    outer loop
      vertex -72 -29.5 -4.1
      vertex -69 -32.5 -4.1
      vertex -72 -32.5 -4.1
    endloop
  endfacet
  facet normal 0 1 0
    outer loop
      vertex -69 -32.5 -4.1
      vertex -69 -32.5 -5.9
      vertex -72 -32.5 -4.1
    endloop
  endfacet
  facet normal 0 1 0
    outer loop
      vertex -72 -32.5 -4.1
      vertex -69 -32.5 -5.9
      vertex -72 -32.5 -5.9
    endloop
  endfacet
  facet normal 0 -1 0
    outer loop
      vertex -69 -29.5 -5.9
      vertex -69 -29.5 -4.1
      vertex -72 -29.5 -4.1
    endloop
  endfacet
  facet normal 0 -1 0
    outer loop
      vertex -72 -29.5 -5.9
      vertex -69 -29.5 -5.9
      vertex -72 -29.5 -4.1
    endloop
  endfacet
  facet normal 0 0 1
    outer loop
      vertex -69 -32.5 -5.9
      vertex -69 -29.5 -5.9
      vertex -72 -29.5 -5.9
    endloop
  endfacet
  facet normal 0 0 1
    outer loop
      vertex -72 -32.5 -5.9
      vertex -69 -32.5 -5.9
      vertex -72 -29.5 -5.9
    endloop
  endfacet
  facet normal 0 0 -1
    outer loop
      vertex -69 -13.5 -4.1
      vertex -69 -16.5 -4.1
      vertex -72 -13.5 -4.1
    endloop
  endfacet
  facet normal 0 0 -1
    outer loop
      vertex -72 -13.5 -4.1
      vertex -69 -16.5 -4.1
      vertex -72 -16.5 -4.1
    endloop
  endfacet
  facet normal 0 1 0
    outer loop
      vertex -69 -16.5 -4.1
      vertex -69 -16.5 -5.9
      vertex -72 -16.5 -4.1
    endloop
  endfacet
  facet normal 0 1 0
    outer loop
      vertex -72 -16.5 -4.1
      vertex -69 -16.5 -5.9
      vertex -72 -16.5 -5.9
    endloop
  endfacet
  facet normal 0 -1 0
    outer loop
      vertex -69 -13.5 -5.9
      vertex -69 -13.5 -4.1
      vertex -72 -13.5 -4.1
    endloop
  endfacet
  facet normal 0 -1 0
    outer loop
      vertex -72 -13.5 -5.9
      vertex -69 -13.5 -5.9
      vertex -72 -13.5 -4.1
    endloop
  endfacet
  facet normal 0 0 1
    outer loop
      vertex -69 -16.5 -5.9
      vertex -69 -13.5 -5.9
      vertex -72 -13.5 -5.9
    endloop
  endfacet
  facet normal 0 0 1
    outer loop
      vertex -72 -16.5 -5.9
      vertex -69 -16.5 -5.9
      vertex -72 -13.5 -5.9
    endloop
  endfacet
  facet normal -0.805461 -0.58114 0.116228
    outer loop
      vertex -70.7283 -50.9626 0
      vertex -69 -53.558 -1
      vertex -69 -53.358 0
    endloop
  endfacet
  facet normal -0.805461 -0.58114 0.116228
    outer loop
      vertex -70.7283 -50.9626 0
      vertex -69 -53.6298 -1.359
      vertex -69 -53.558 -1
    endloop
  endfacet
  facet normal 0 1 2.22045e-16
    outer loop
      vertex -69 -2 -36
      vertex -67.5 -2 -38.3149
      vertex -68.7213 -2 -39.7615
    endloop
  endfacet
  facet normal 0 1 2.22045e-16
    outer loop
      vertex -68.7213 -2 -39.7615
      vertex -66.75 -2 -38.337
      vertex 68.7213 -2 -39.7615
    endloop
  endfacet
  facet normal 0 1 2.22045e-16
    outer loop
      vertex -66.75 -2 -38.337
      vertex 66.75 -2 -38.337
      vertex 68.7213 -2 -39.7615
    endloop
  endfacet
  facet normal 0 1 2.22045e-16
    outer loop
      vertex 68.7213 -2 -39.7615
      vertex 67.5 -2 -38.3149
      vertex 70.0561 -2 -34.4714
    endloop
  endfacet
  facet normal 0 1 2.22045e-16
    outer loop
      vertex 70.0561 -2 0
      vertex 69 -2 -36
      vertex 69 -2 0
    endloop
  endfacet
  facet normal 0 1 2.22045e-16
    outer loop
      vertex 70.0561 -2 -34.4714
      vertex 69 -2 -36
      vertex 70.0561 -2 0
    endloop
  endfacet
  facet normal 0 1 2.22045e-16
    outer loop
      vertex 67.5 -2 -38.3149
      vertex 69 -2 -36
      vertex 70.0561 -2 -34.4714
    endloop
  endfacet
  facet normal 0 1 2.22045e-16
    outer loop
      vertex 66.75 -2 -38.337
      vertex 67.5 -2 -38.3149
      vertex 68.7213 -2 -39.7615
    endloop
  endfacet
  facet normal 0 1 2.22045e-16
    outer loop
      vertex -67.5 -2 -38.3149
      vertex -66.75 -2 -38.337
      vertex -68.7213 -2 -39.7615
    endloop
  endfacet
  facet normal 0 1 2.22045e-16
    outer loop
      vertex -69 -2 -36
      vertex -68.7213 -2 -39.7615
      vertex -70.0561 -2 -34.4714
    endloop
  endfacet
  facet normal 0 1 2.22045e-16
    outer loop
      vertex -69 -2 -36
      vertex -70.0561 -2 -34.4714
      vertex -69 -2 0
    endloop
  endfacet
  facet normal 0 1 2.22045e-16
    outer loop
      vertex -70.0561 -2 -34.4714
      vertex -70.0561 -2 0
      vertex -69 -2 0
    endloop
  endfacet
  facet normal 1 0 0
    outer loop
      vertex -69 -49 -1
      vertex -69 -42 -36
      vertex -69 -2 -36
    endloop
  endfacet
  facet normal 1 0 0
    outer loop
      vertex -69 -53.358 0
      vertex -69 -49 -1
      vertex -69 -2 0
    endloop
  endfacet
  facet normal 1 0 0
    outer loop
      vertex -69 -32.5 -5.9
      vertex -69 -49 -1
      vertex -69 -2 -36
    endloop
  endfacet
  facet normal 1 0 0
    outer loop
      vertex -69 -29.5 -5.9
      vertex -69 -32.5 -5.9
      vertex -69 -2 -36
    endloop
  endfacet
  facet normal 1 0 0
    outer loop
      vertex -69 -13.5 -5.9
      vertex -69 -16.5 -5.9
      vertex -69 -2 -36
    endloop
  endfacet
  facet normal 1 0 0
    outer loop
      vertex -69 -2 0
      vertex -69 -49 -1
      vertex -69 -32.5 -4.1
    endloop
  endfacet
  facet normal 1 0 0
    outer loop
      vertex -69 -16.5 -5.9
      vertex -69 -29.5 -4.1
      vertex -69 -2 -36
    endloop
  endfacet
  facet normal 1 0 0
    outer loop
      vertex -69 -2 0
      vertex -69 -32.5 -4.1
      vertex -69 -29.5 -4.1
    endloop
  endfacet
  facet normal 1 0 0
    outer loop
      vertex -69 -29.5 -4.1
      vertex -69 -29.5 -5.9
      vertex -69 -2 -36
    endloop
  endfacet
  facet normal 1 0 0
    outer loop
      vertex -69 -32.5 -4.1
      vertex -69 -49 -1
      vertex -69 -32.5 -5.9
    endloop
  endfacet
  facet normal 1 0 0
    outer loop
      vertex -69 -2 0
      vertex -69 -29.5 -4.1
      vertex -69 -16.5 -4.1
    endloop
  endfacet
  facet normal 1 0 0
    outer loop
      vertex -69 -2 0
      vertex -69 -13.5 -4.1
      vertex -69 -2 -36
    endloop
  endfacet
  facet normal 1 0 0
    outer loop
      vertex -69 -2 0
      vertex -69 -16.5 -4.1
      vertex -69 -13.5 -4.1
    endloop
  endfacet
  facet normal 1 0 0
    outer loop
      vertex -69 -13.5 -4.1
      vertex -69 -13.5 -5.9
      vertex -69 -2 -36
    endloop
  endfacet
  facet normal 1 0 0
    outer loop
      vertex -69 -16.5 -4.1
      vertex -69 -29.5 -4.1
      vertex -69 -16.5 -5.9
    endloop
  endfacet
  facet normal 1 0 0
    outer loop
      vertex -69 -53.558 -1
      vertex -69 -49 -1
      vertex -69 -53.358 0
    endloop
  endfacet
  facet normal -0.618123 -0.786081 -1.74545e-16
    outer loop
      vertex -68.8837 -53.7213 -1.1795
      vertex -69 -53.6298 -1.359
      vertex -69 -53.6298 -3.359
    endloop
  endfacet
  facet normal -0.618123 -0.786081 -1.74545e-16
    outer loop
      vertex -68.2357 -54.2308 -2.1795
      vertex -68.8837 -53.7213 -1.1795
      vertex -69 -53.6298 -3.359
    endloop
  endfacet
  facet normal -0.731783 -0.668302 0.13366
    outer loop
      vertex -69 -53.558 -1
      vertex -69 -53.6298 -1.359
      vertex -68.8837 -53.7213 -1.1795
    endloop
  endfacet
  facet normal -0.424177 -0.887993 -0.177599
    outer loop
      vertex -68.2357 -54.2308 -2.1795
      vertex -69 -53.6298 -3.359
      vertex -69 -46.6298 -38.359
    endloop
  endfacet
  facet normal -0.424177 -0.887993 -0.177599
    outer loop
      vertex -67.5 -54.3551 -3.3149
      vertex -68.2357 -54.2308 -2.1795
      vertex -67.5 -47.8093 -36.0441
    endloop
  endfacet
  facet normal -0.424177 -0.887993 -0.177599
    outer loop
      vertex -67.5 -47.8093 -36.0441
      vertex -68.2357 -54.2308 -2.1795
      vertex -69 -46.6298 -38.359
    endloop
  endfacet
  facet normal 0 -0.891007 -0.45399
    outer loop
      vertex -67.5 -47.8093 -36.0441
      vertex -69 -46.6298 -38.359
      vertex -67.5 -45.4503 -40.6739
    endloop
  endfacet
  facet normal 0 -0.891007 -0.45399
    outer loop
      vertex 69 -46.6298 -38.359
      vertex -67.5 -47.8093 -36.0441
      vertex 67.5 -45.4503 -40.6739
    endloop
  endfacet
  facet normal 0 -0.891007 -0.45399
    outer loop
      vertex 67.5 -45.4503 -40.6739
      vertex -67.5 -47.8093 -36.0441
      vertex -67.5 -45.4503 -40.6739
    endloop
  endfacet
  facet normal 0 -0.891007 -0.45399
    outer loop
      vertex 67.5 -47.8093 -36.0441
      vertex -67.5 -47.8093 -36.0441
      vertex 69 -46.6298 -38.359
    endloop
  endfacet
  facet normal -0.029388 2.21949e-16 -0.999568
    outer loop
      vertex -69 -39.641 -40.6298
      vertex -69 -2.641 -40.6298
      vertex -67.5 -45.4503 -40.6739
    endloop
  endfacet
  facet normal -0.029388 2.21949e-16 -0.999568
    outer loop
      vertex -67.5 -45.4503 -40.6739
      vertex -69 -2.641 -40.6298
      vertex -67.5 -8.4503 -40.6739
    endloop
  endfacet
  facet normal 0 0.00759122 -0.999971
    outer loop
      vertex -69 -2.641 -40.6298
      vertex 69 -2.641 -40.6298
      vertex -67.5 -8.4503 -40.6739
    endloop
  endfacet
  facet normal 0 0.00759122 -0.999971
    outer loop
      vertex -67.5 -8.4503 -40.6739
      vertex 69 -2.641 -40.6298
      vertex 67.5 -8.4503 -40.6739
    endloop
  endfacet
  facet normal 0 0.804532 -0.59391
    outer loop
      vertex -69 -2.641 -40.6298
      vertex -68.7213 -2 -39.7615
      vertex 69 -2.641 -40.6298
    endloop
  endfacet
  facet normal 0 0.804532 -0.59391
    outer loop
      vertex 69 -2.641 -40.6298
      vertex -68.7213 -2 -39.7615
      vertex 68.7213 -2 -39.7615
    endloop
  endfacet
  facet normal 0 2.22045e-16 -1
    outer loop
      vertex -67.5 -45.4503 -40.6739
      vertex -67.5 -8.4503 -40.6739
      vertex 67.5 -45.4503 -40.6739
    endloop
  endfacet
  facet normal 0 2.22045e-16 -1
    outer loop
      vertex 67.5 -45.4503 -40.6739
      vertex -67.5 -8.4503 -40.6739
      vertex 67.5 -8.4503 -40.6739
    endloop
  endfacet
  facet normal 0.839219 -1.20746e-16 0.543793
    outer loop
      vertex -68.8837 -53.7213 -1.1795
      vertex -68.2357 -54.2308 -2.1795
      vertex -67.5 -54.3551 -3.3149
    endloop
  endfacet
  facet normal 0.839219 -1.20746e-16 0.543793
    outer loop
      vertex -69 -49 -1
      vertex -68.8837 -53.7213 -1.1795
      vertex -67.5 -51.0878 -3.3149
    endloop
  endfacet
  facet normal 0.839219 -1.20746e-16 0.543793
    outer loop
      vertex -67.5 -51.0878 -3.3149
      vertex -68.8837 -53.7213 -1.1795
      vertex -67.5 -54.3551 -3.3149
    endloop
  endfacet
  facet normal 0.839219 -1.20746e-16 0.543793
    outer loop
      vertex -69 -53.558 -1
      vertex -68.8837 -53.7213 -1.1795
      vertex -69 -49 -1
    endloop
  endfacet
  facet normal 0.774597 0.601501 -0.19544
    outer loop
      vertex 69 -2.641 -40.6298
      vertex 68.7213 -2 -39.7615
      vertex 70.0561 -2 -34.4714
    endloop
  endfacet
  facet normal 0.774597 0.601501 -0.19544
    outer loop
      vertex 72 -5 -36
      vertex 69 -2.641 -40.6298
      vertex 70.0561 -2 -34.4714
    endloop
  endfacet
  facet normal 0.839219 0.543793 1.20746e-16
    outer loop
      vertex 70.0561 -2 -34.4714
      vertex 70.0561 -2 0
      vertex 72 -5 0
    endloop
  endfacet
  facet normal 0.839219 0.543793 1.20746e-16
    outer loop
      vertex 72 -5 -36
      vertex 70.0561 -2 -34.4714
      vertex 72 -5 0
    endloop
  endfacet
  facet normal 0 0 1
    outer loop
      vertex 70.7283 -50.9626 0
      vertex 72 -49 0
      vertex 72 -5 0
    endloop
  endfacet
  facet normal 0 0 1
    outer loop
      vertex 69 -2 0
      vertex 70.7283 -50.9626 0
      vertex 70.0561 -2 0
    endloop
  endfacet
  facet normal 0 0 1
    outer loop
      vertex 70.0561 -2 0
      vertex 70.7283 -50.9626 0
      vertex 72 -5 0
    endloop
  endfacet
  facet normal 0 0 1
    outer loop
      vertex 69 -53.358 0
      vertex 70.7283 -50.9626 0
      vertex 69 -2 0
    endloop
  endfacet
  facet normal -1 0 0
    outer loop
      vertex 69 -53.558 -1
      vertex 69 -53.358 0
      vertex 69 -49 -1
    endloop
  endfacet
  facet normal -1 0 0
    outer loop
      vertex 69 -32.5 -5.9
      vertex 69 -2 -36
      vertex 69 -49 -1
    endloop
  endfacet
  facet normal -1 0 0
    outer loop
      vertex 69 -2 0
      vertex 69 -49 -1
      vertex 69 -53.358 0
    endloop
  endfacet
  facet normal -1 0 0
    outer loop
      vertex 69 -29.5 -4.1
      vertex 69 -2 0
      vertex 69 -29.5 -5.9
    endloop
  endfacet
  facet normal -1 0 0
    outer loop
      vertex 69 -29.5 -5.9
      vertex 69 -2 -36
      vertex 69 -32.5 -5.9
    endloop
  endfacet
  facet normal -1 0 0
    outer loop
      vertex 69 -32.5 -4.1
      vertex 69 -32.5 -5.9
      vertex 69 -49 -1
    endloop
  endfacet
  facet normal -1 0 0
    outer loop
      vertex 69 -16.5 -5.9
      vertex 69 -2 -36
      vertex 69 -29.5 -5.9
    endloop
  endfacet
  facet normal -1 0 0
    outer loop
      vertex 69 -16.5 -5.9
      vertex 69 -29.5 -5.9
      vertex 69 -16.5 -4.1
    endloop
  endfacet
  facet normal -1 0 0
    outer loop
      vertex 69 -2 0
      vertex 69 -29.5 -4.1
      vertex 69 -49 -1
    endloop
  endfacet
  facet normal -1 0 0
    outer loop
      vertex 69 -29.5 -4.1
      vertex 69 -32.5 -4.1
      vertex 69 -49 -1
    endloop
  endfacet
  facet normal -1 0 0
    outer loop
      vertex 69 -13.5 -5.9
      vertex 69 -2 -36
      vertex 69 -16.5 -5.9
    endloop
  endfacet
  facet normal -1 0 0
    outer loop
      vertex 69 -13.5 -4.1
      vertex 69 -2 0
      vertex 69 -13.5 -5.9
    endloop
  endfacet
  facet normal -1 0 0
    outer loop
      vertex 69 -2 0
      vertex 69 -2 -36
      vertex 69 -13.5 -5.9
    endloop
  endfacet
  facet normal -1 0 0
    outer loop
      vertex 69 -2 0
      vertex 69 -13.5 -4.1
      vertex 69 -16.5 -4.1
    endloop
  endfacet
  facet normal -1 0 0
    outer loop
      vertex 69 -2 0
      vertex 69 -16.5 -4.1
      vertex 69 -29.5 -5.9
    endloop
  endfacet
  facet normal -1 0 0
    outer loop
      vertex 69 -49 -1
      vertex 69 -2 -36
      vertex 69 -42 -36
    endloop
  endfacet
  facet normal -0.839219 -1.20746e-16 0.543793
    outer loop
      vertex 69 -2 -36
      vertex 67.5 -2 -38.3149
      vertex 69 -42 -36
    endloop
  endfacet
  facet normal -0.839219 -1.20746e-16 0.543793
    outer loop
      vertex 69 -42 -36
      vertex 67.5 -2 -38.3149
      vertex 67.5 -40.8205 -38.3149
    endloop
  endfacet
  facet normal -0.029388 -2.21949e-16 0.999568
    outer loop
      vertex 67.5 -40.8205 -38.3149
      vertex 67.5 -2 -38.3149
      vertex 66.75 -2 -38.337
    endloop
  endfacet
  facet normal -0.029388 -2.21949e-16 0.999568
    outer loop
      vertex 66.75 -43.7252 -38.337
      vertex 67.5 -40.8205 -38.3149
      vertex 66.75 -2 -38.337
    endloop
  endfacet
  facet normal 0 -2.22045e-16 1
    outer loop
      vertex 66.75 -43.7252 -38.337
      vertex 66.75 -2 -38.337
      vertex -66.75 -2 -38.337
    endloop
  endfacet
  facet normal 0 -2.22045e-16 1
    outer loop
      vertex -66.75 -43.7252 -38.337
      vertex 66.75 -43.7252 -38.337
      vertex -66.75 -2 -38.337
    endloop
  endfacet
  facet normal 0.029388 -2.21949e-16 0.999568
    outer loop
      vertex -66.75 -43.7252 -38.337
      vertex -66.75 -2 -38.337
      vertex -67.5 -2 -38.3149
    endloop
  endfacet
  facet normal 0.029388 -2.21949e-16 0.999568
    outer loop
      vertex -67.5 -40.8205 -38.3149
      vertex -66.75 -43.7252 -38.337
      vertex -67.5 -2 -38.3149
    endloop
  endfacet
  facet normal 0.839219 -1.20746e-16 0.543793
    outer loop
      vertex -67.5 -40.8205 -38.3149
      vertex -67.5 -2 -38.3149
      vertex -69 -2 -36
    endloop
  endfacet
  facet normal 0.839219 -1.20746e-16 0.543793
    outer loop
      vertex -69 -42 -36
      vertex -67.5 -40.8205 -38.3149
      vertex -69 -2 -36
    endloop
  endfacet
  facet normal 0.857608 0.504316 0.100863
    outer loop
      vertex -67.5 -51.0878 -3.3149
      vertex -67.5 -44.3149 -37.1795
      vertex -69 -42 -36
    endloop
  endfacet
  facet normal 0.857608 0.504316 0.100863
    outer loop
      vertex -69 -49 -1
      vertex -67.5 -51.0878 -3.3149
      vertex -69 -42 -36
    endloop
  endfacet
  facet normal 0.774597 0.19544 0.601501
    outer loop
      vertex -67.5 -44.3149 -37.1795
      vertex -66.75 -43.7252 -38.337
      vertex -67.5 -40.8205 -38.3149
    endloop
  endfacet
  facet normal 0.774597 0.19544 0.601501
    outer loop
      vertex -69 -42 -36
      vertex -67.5 -44.3149 -37.1795
      vertex -67.5 -40.8205 -38.3149
    endloop
  endfacet
  facet normal 0.029388 -2.21949e-16 0.999568
    outer loop
      vertex -66.75 -54.3507 -3.33695
      vertex -66.75 -51.4417 -3.33695
      vertex -67.5 -51.0878 -3.3149
    endloop
  endfacet
  facet normal 0.029388 -2.21949e-16 0.999568
    outer loop
      vertex -67.5 -54.3551 -3.3149
      vertex -66.75 -54.3507 -3.33695
      vertex -67.5 -51.0878 -3.3149
    endloop
  endfacet
  facet normal 0 -0.980581 -0.196116
    outer loop
      vertex -66.75 -54.3507 -3.33695
      vertex -67.5 -54.3551 -3.3149
      vertex -67.5 -47.8093 -36.0441
    endloop
  endfacet
  facet normal 0 -0.980581 -0.196116
    outer loop
      vertex 66.75 -54.3507 -3.33695
      vertex -66.75 -54.3507 -3.33695
      vertex 67.5 -47.8093 -36.0441
    endloop
  endfacet
  facet normal 0 -0.980581 -0.196116
    outer loop
      vertex 67.5 -47.8093 -36.0441
      vertex -66.75 -54.3507 -3.33695
      vertex -67.5 -47.8093 -36.0441
    endloop
  endfacet
  facet normal 0 -0.980581 -0.196116
    outer loop
      vertex 67.5 -54.3551 -3.3149
      vertex 66.75 -54.3507 -3.33695
      vertex 67.5 -47.8093 -36.0441
    endloop
  endfacet
  facet normal 0.424177 -0.887993 -0.177599
    outer loop
      vertex 68.2357 -54.2308 -2.1795
      vertex 67.5 -54.3551 -3.3149
      vertex 67.5 -47.8093 -36.0441
    endloop
  endfacet
  facet normal 0.424177 -0.887993 -0.177599
    outer loop
      vertex 69 -53.6298 -3.359
      vertex 68.2357 -54.2308 -2.1795
      vertex 69 -46.6298 -38.359
    endloop
  endfacet
  facet normal 0.424177 -0.887993 -0.177599
    outer loop
      vertex 69 -46.6298 -38.359
      vertex 68.2357 -54.2308 -2.1795
      vertex 67.5 -47.8093 -36.0441
    endloop
  endfacet
  facet normal 0.774597 -0.19544 -0.601501
    outer loop
      vertex 69 -46.6298 -38.359
      vertex 67.5 -45.4503 -40.6739
      vertex 69 -39.641 -40.6298
    endloop
  endfacet
  facet normal 0.774597 -0.19544 -0.601501
    outer loop
      vertex 72 -42 -36
      vertex 69 -46.6298 -38.359
      vertex 69 -39.641 -40.6298
    endloop
  endfacet
  facet normal 0.857608 -0.504316 -0.100863
    outer loop
      vertex 72 -49 -1
      vertex 69 -53.6298 -3.359
      vertex 69 -46.6298 -38.359
    endloop
  endfacet
  facet normal 0.857608 -0.504316 -0.100863
    outer loop
      vertex 72 -42 -36
      vertex 72 -49 -1
      vertex 69 -46.6298 -38.359
    endloop
  endfacet
  facet normal 0.029388 2.21949e-16 -0.999568
    outer loop
      vertex 67.5 -45.4503 -40.6739
      vertex 67.5 -8.4503 -40.6739
      vertex 69 -39.641 -40.6298
    endloop
  endfacet
  facet normal 0.029388 2.21949e-16 -0.999568
    outer loop
      vertex 69 -39.641 -40.6298
      vertex 67.5 -8.4503 -40.6739
      vertex 69 -2.641 -40.6298
    endloop
  endfacet
  facet normal 0.839219 1.20746e-16 -0.543793
    outer loop
      vertex 72 -42 -36
      vertex 69 -39.641 -40.6298
      vertex 69 -2.641 -40.6298
    endloop
  endfacet
  facet normal 0.839219 1.20746e-16 -0.543793
    outer loop
      vertex 72 -5 -36
      vertex 72 -42 -36
      vertex 69 -2.641 -40.6298
    endloop
  endfacet
  facet normal 0.424177 0.887993 0.177599
    outer loop
      vertex -66.75 -44.9047 -36.0221
      vertex -67.5 -44.3149 -37.1795
      vertex -66.75 -51.4417 -3.33695
    endloop
  endfacet
  facet normal 0.424177 0.887993 0.177599
    outer loop
      vertex -66.75 -51.4417 -3.33695
      vertex -67.5 -44.3149 -37.1795
      vertex -67.5 -51.0878 -3.3149
    endloop
  endfacet
  facet normal 1 0 0
    outer loop
      vertex 72 -5 0
      vertex 72 -49 0
      vertex 72 -49 -1
    endloop
  endfacet
  facet normal 1 0 0
    outer loop
      vertex 72 -5 -36
      vertex 72 -5 0
      vertex 72 -42 -36
    endloop
  endfacet
  facet normal 1 0 0
    outer loop
      vertex 72 -32.5 -4.1
      vertex 72 -5 0
      vertex 72 -49 -1
    endloop
  endfacet
  facet normal 1 0 0
    outer loop
      vertex 72 -42 -36
      vertex 72 -32.5 -5.9
      vertex 72 -49 -1
    endloop
  endfacet
  facet normal 1 0 0
    outer loop
      vertex 72 -32.5 -5.9
      vertex 72 -32.5 -4.1
      vertex 72 -49 -1
    endloop
  endfacet
  facet normal 1 0 0
    outer loop
      vertex 72 -29.5 -4.1
      vertex 72 -5 0
      vertex 72 -32.5 -4.1
    endloop
  endfacet
  facet normal 1 0 0
    outer loop
      vertex 72 -13.5 -4.1
      vertex 72 -13.5 -5.9
      vertex 72 -5 0
    endloop
  endfacet
  facet normal 1 0 0
    outer loop
      vertex 72 -42 -36
      vertex 72 -29.5 -5.9
      vertex 72 -32.5 -5.9
    endloop
  endfacet
  facet normal 1 0 0
    outer loop
      vertex 72 -16.5 -4.1
      vertex 72 -5 0
      vertex 72 -29.5 -5.9
    endloop
  endfacet
  facet normal 1 0 0
    outer loop
      vertex 72 -42 -36
      vertex 72 -16.5 -5.9
      vertex 72 -29.5 -5.9
    endloop
  endfacet
  facet normal 1 0 0
    outer loop
      vertex 72 -16.5 -5.9
      vertex 72 -16.5 -4.1
      vertex 72 -29.5 -5.9
    endloop
  endfacet
  facet normal 1 0 0
    outer loop
      vertex 72 -13.5 -4.1
      vertex 72 -5 0
      vertex 72 -16.5 -4.1
    endloop
  endfacet
  facet normal 1 0 0
    outer loop
      vertex 72 -42 -36
      vertex 72 -13.5 -5.9
      vertex 72 -16.5 -5.9
    endloop
  endfacet
  facet normal 1 0 0
    outer loop
      vertex 72 -42 -36
      vertex 72 -5 0
      vertex 72 -13.5 -5.9
    endloop
  endfacet
  facet normal 1 0 0
    outer loop
      vertex 72 -29.5 -4.1
      vertex 72 -29.5 -5.9
      vertex 72 -5 0
    endloop
  endfacet
  facet normal 0.805461 -0.58114 0.116228
    outer loop
      vertex 69 -53.558 -1
      vertex 69 -53.6298 -1.359
      vertex 70.7283 -50.9626 0
    endloop
  endfacet
  facet normal 0.805461 -0.58114 0.116228
    outer loop
      vertex 69 -53.358 0
      vertex 69 -53.558 -1
      vertex 70.7283 -50.9626 0
    endloop
  endfacet
  facet normal 0.839219 -0.543793 -1.20746e-16
    outer loop
      vertex 70.7283 -50.9626 0
      vertex 69 -53.6298 -1.359
      vertex 69 -53.6298 -3.359
    endloop
  endfacet
  facet normal 0.839219 -0.543793 -1.20746e-16
    outer loop
      vertex 72 -49 0
      vertex 70.7283 -50.9626 0
      vertex 72 -49 -1
    endloop
  endfacet
  facet normal 0.839219 -0.543793 -1.20746e-16
    outer loop
      vertex 72 -49 -1
      vertex 70.7283 -50.9626 0
      vertex 69 -53.6298 -3.359
    endloop
  endfacet
  facet normal 0.731783 -0.668302 0.13366
    outer loop
      vertex 69 -53.558 -1
      vertex 68.8837 -53.7213 -1.1795
      vertex 69 -53.6298 -1.359
    endloop
  endfacet
  facet normal -0.839219 -1.20746e-16 0.543793
    outer loop
      vertex 68.8837 -53.7213 -1.1795
      vertex 69 -53.558 -1
      vertex 68.2357 -54.2308 -2.1795
    endloop
  endfacet
  facet normal -0.839219 -1.20746e-16 0.543793
    outer loop
      vertex 68.2357 -54.2308 -2.1795
      vertex 69 -53.558 -1
      vertex 69 -49 -1
    endloop
  endfacet
  facet normal -0.839219 -1.20746e-16 0.543793
    outer loop
      vertex 68.2357 -54.2308 -2.1795
      vertex 69 -49 -1
      vertex 67.5 -51.0878 -3.3149
    endloop
  endfacet
  facet normal -0.839219 -1.20746e-16 0.543793
    outer loop
      vertex 68.2357 -54.2308 -2.1795
      vertex 67.5 -51.0878 -3.3149
      vertex 67.5 -54.3551 -3.3149
    endloop
  endfacet
  facet normal -0.857608 0.504316 0.100863
    outer loop
      vertex 69 -42 -36
      vertex 67.5 -44.3149 -37.1795
      vertex 69 -49 -1
    endloop
  endfacet
  facet normal -0.857608 0.504316 0.100863
    outer loop
      vertex 69 -49 -1
      vertex 67.5 -44.3149 -37.1795
      vertex 67.5 -51.0878 -3.3149
    endloop
  endfacet
  facet normal -0.774597 0.19544 0.601501
    outer loop
      vertex 69 -42 -36
      vertex 67.5 -40.8205 -38.3149
      vertex 67.5 -44.3149 -37.1795
    endloop
  endfacet
  facet normal -0.774597 0.19544 0.601501
    outer loop
      vertex 67.5 -44.3149 -37.1795
      vertex 67.5 -40.8205 -38.3149
      vertex 66.75 -43.7252 -38.337
    endloop
  endfacet
  facet normal 0 0 1
    outer loop
      vertex 72 -32.5 -5.9
      vertex 72 -29.5 -5.9
      vertex 69 -29.5 -5.9
    endloop
  endfacet
  facet normal 0 0 1
    outer loop
      vertex 69 -32.5 -5.9
      vertex 72 -32.5 -5.9
      vertex 69 -29.5 -5.9
    endloop
  endfacet
  facet normal 0 1 0
    outer loop
      vertex 72 -32.5 -4.1
      vertex 72 -32.5 -5.9
      vertex 69 -32.5 -4.1
    endloop
  endfacet
  facet normal 0 1 0
    outer loop
      vertex 69 -32.5 -4.1
      vertex 72 -32.5 -5.9
      vertex 69 -32.5 -5.9
    endloop
  endfacet
  facet normal 0 0 -1
    outer loop
      vertex 72 -29.5 -4.1
      vertex 72 -32.5 -4.1
      vertex 69 -29.5 -4.1
    endloop
  endfacet
  facet normal 0 0 -1
    outer loop
      vertex 69 -29.5 -4.1
      vertex 72 -32.5 -4.1
      vertex 69 -32.5 -4.1
    endloop
  endfacet
  facet normal 0 -1 0
    outer loop
      vertex 72 -29.5 -5.9
      vertex 72 -29.5 -4.1
      vertex 69 -29.5 -4.1
    endloop
  endfacet
  facet normal 0 -1 0
    outer loop
      vertex 69 -29.5 -5.9
      vertex 72 -29.5 -5.9
      vertex 69 -29.5 -4.1
    endloop
  endfacet
  facet normal 0 0 1
    outer loop
      vertex 72 -16.5 -5.9
      vertex 72 -13.5 -5.9
      vertex 69 -13.5 -5.9
    endloop
  endfacet
  facet normal 0 0 1
    outer loop
      vertex 69 -16.5 -5.9
      vertex 72 -16.5 -5.9
      vertex 69 -13.5 -5.9
    endloop
  endfacet
  facet normal 0 1 0
    outer loop
      vertex 72 -16.5 -4.1
      vertex 72 -16.5 -5.9
      vertex 69 -16.5 -4.1
    endloop
  endfacet
  facet normal 0 1 0
    outer loop
      vertex 69 -16.5 -4.1
      vertex 72 -16.5 -5.9
      vertex 69 -16.5 -5.9
    endloop
  endfacet
  facet normal 0 0 -1
    outer loop
      vertex 72 -13.5 -4.1
      vertex 72 -16.5 -4.1
      vertex 69 -13.5 -4.1
    endloop
  endfacet
  facet normal 0 0 -1
    outer loop
      vertex 69 -13.5 -4.1
      vertex 72 -16.5 -4.1
      vertex 69 -16.5 -4.1
    endloop
  endfacet
  facet normal 0 -1 0
    outer loop
      vertex 72 -13.5 -5.9
      vertex 72 -13.5 -4.1
      vertex 69 -13.5 -4.1
    endloop
  endfacet
  facet normal 0 -1 0
    outer loop
      vertex 69 -13.5 -5.9
      vertex 72 -13.5 -5.9
      vertex 69 -13.5 -4.1
    endloop
  endfacet
  facet normal 0 0.891007 0.45399
    outer loop
      vertex 66.75 -44.9047 -36.0221
      vertex 67.5 -44.3149 -37.1795
      vertex -66.75 -44.9047 -36.0221
    endloop
  endfacet
  facet normal 0 0.891007 0.45399
    outer loop
      vertex -66.75 -44.9047 -36.0221
      vertex 67.5 -44.3149 -37.1795
      vertex 66.75 -43.7252 -38.337
    endloop
  endfacet
  facet normal 0 0.891007 0.45399
    outer loop
      vertex -66.75 -44.9047 -36.0221
      vertex 66.75 -43.7252 -38.337
      vertex -66.75 -43.7252 -38.337
    endloop
  endfacet
  facet normal 0 0.891007 0.45399
    outer loop
      vertex -66.75 -44.9047 -36.0221
      vertex -66.75 -43.7252 -38.337
      vertex -67.5 -44.3149 -37.1795
    endloop
  endfacet
  facet normal 0 -2.22045e-16 1
    outer loop
      vertex 66.75 -54.3507 -3.33695
      vertex 66.75 -51.4417 -3.33695
      vertex -66.75 -51.4417 -3.33695
    endloop
  endfacet
  facet normal 0 -2.22045e-16 1
    outer loop
      vertex -66.75 -54.3507 -3.33695
      vertex 66.75 -54.3507 -3.33695
      vertex -66.75 -51.4417 -3.33695
    endloop
  endfacet
  facet normal 0 0.980581 0.196116
    outer loop
      vertex 66.75 -44.9047 -36.0221
      vertex -66.75 -44.9047 -36.0221
      vertex 66.75 -51.4417 -3.33695
    endloop
  endfacet
  facet normal 0 0.980581 0.196116
    outer loop
      vertex 66.75 -51.4417 -3.33695
      vertex -66.75 -44.9047 -36.0221
      vertex -66.75 -51.4417 -3.33695
    endloop
  endfacet
  facet normal -0.029388 -2.21949e-16 0.999568
    outer loop
      vertex 67.5 -54.3551 -3.3149
      vertex 67.5 -51.0878 -3.3149
      vertex 66.75 -51.4417 -3.33695
    endloop
  endfacet
  facet normal -0.029388 -2.21949e-16 0.999568
    outer loop
      vertex 66.75 -54.3507 -3.33695
      vertex 67.5 -54.3551 -3.3149
      vertex 66.75 -51.4417 -3.33695
    endloop
  endfacet
  facet normal 0.618123 -0.786081 -1.74545e-16
    outer loop
      vertex 68.8837 -53.7213 -1.1795
      vertex 68.2357 -54.2308 -2.1795
      vertex 69 -53.6298 -3.359
    endloop
  endfacet
  facet normal 0.618123 -0.786081 -1.74545e-16
    outer loop
      vertex 69 -53.6298 -1.359
      vertex 68.8837 -53.7213 -1.1795
      vertex 69 -53.6298 -3.359
    endloop
  endfacet
  facet normal -0.424177 0.887993 0.177599
    outer loop
      vertex 67.5 -44.3149 -37.1795
      vertex 66.75 -44.9047 -36.0221
      vertex 67.5 -51.0878 -3.3149
    endloop
  endfacet
  facet normal -0.424177 0.887993 0.177599
    outer loop
      vertex 67.5 -51.0878 -3.3149
      vertex 66.75 -44.9047 -36.0221
      vertex 66.75 -51.4417 -3.33695
    endloop
  endfacet
endsolid OpenSCAD_Model
