solid OpenSCAD_Model
  facet normal -0.965926 -0.258819 -0
    outer loop
      vertex -34.7304 0 0
      vertex -32.7569 -7.36518 0
      vertex -34.7304 0 10.2622
    endloop
  endfacet
  facet normal -0.965926 -0.258819 0
    outer loop
      vertex -34.7304 0 10.2622
      vertex -32.7569 -7.36518 0
      vertex -32.7569 -7.36518 10.2622
    endloop
  endfacet
  facet normal 0 -0 -1
    outer loop
      vertex -32.3386 7.1237 0
      vertex -32.7569 7.36518 0
      vertex -27.1237 12.3386 0
    endloop
  endfacet
  facet normal -0 -0 -1
    outer loop
      vertex -20 14.2474 0
      vertex -20 14.7304 0
      vertex -12.6348 12.7569 0
    endloop
  endfacet
  facet normal -0 0 -1
    outer loop
      vertex -12.8763 12.3386 0
      vertex -12.6348 12.7569 0
      vertex -7.24313 7.36518 0
    endloop
  endfacet
  facet normal -0 0 -1
    outer loop
      vertex -7.66139 7.1237 0
      vertex -7.24313 7.36518 0
      vertex -5.26963 0 0
    endloop
  endfacet
  facet normal 0 0 -1
    outer loop
      vertex -5.75259 0 0
      vertex -5.26963 0 0
      vertex -7.24313 -7.36518 0
    endloop
  endfacet
  facet normal -0 0 -1
    outer loop
      vertex -12.8763 -12.3386 0
      vertex -7.24313 -7.36518 0
      vertex -12.6348 -12.7569 0
    endloop
  endfacet
  facet normal -0 0 -1
    outer loop
      vertex -20 -14.2474 0
      vertex -12.6348 -12.7569 0
      vertex -20 -14.7304 0
    endloop
  endfacet
  facet normal 0 0 -1
    outer loop
      vertex -27.1237 -12.3386 0
      vertex -20 -14.7304 0
      vertex -27.3652 -12.7569 0
    endloop
  endfacet
  facet normal 0 0 -1
    outer loop
      vertex -32.3386 -7.1237 0
      vertex -27.3652 -12.7569 0
      vertex -32.7569 -7.36518 0
    endloop
  endfacet
  facet normal 0 0 -1
    outer loop
      vertex -34.2474 0 0
      vertex -32.7569 -7.36518 0
      vertex -34.7304 0 0
    endloop
  endfacet
  facet normal 0 0 -1
    outer loop
      vertex -27.1237 -12.3386 0
      vertex -27.3652 -12.7569 0
      vertex -32.3386 -7.1237 0
    endloop
  endfacet
  facet normal 0 0 -1
    outer loop
      vertex -20 -14.2474 0
      vertex -20 -14.7304 0
      vertex -27.1237 -12.3386 0
    endloop
  endfacet
  facet normal 0 0 -1
    outer loop
      vertex -12.8763 -12.3386 0
      vertex -12.6348 -12.7569 0
      vertex -20 -14.2474 0
    endloop
  endfacet
  facet normal 0 0 -1
    outer loop
      vertex -7.66139 -7.1237 0
      vertex -7.24313 -7.36518 0
      vertex -12.8763 -12.3386 0
    endloop
  endfacet
  facet normal 0 0 -1
    outer loop
      vertex -5.75259 0 0
      vertex -7.24313 -7.36518 0
      vertex -7.66139 -7.1237 0
    endloop
  endfacet
  facet normal 0 0 -1
    outer loop
      vertex -7.66139 7.1237 0
      vertex -5.26963 0 0
      vertex -5.75259 0 0
    endloop
  endfacet
  facet normal 0 0 -1
    outer loop
      vertex -12.8763 12.3386 0
      vertex -7.24313 7.36518 0
      vertex -7.66139 7.1237 0
    endloop
  endfacet
  facet normal 0 0 -1
    outer loop
      vertex -20 14.2474 0
      vertex -12.6348 12.7569 0
      vertex -12.8763 12.3386 0
    endloop
  endfacet
  facet normal 0 0 -1
    outer loop
      vertex -27.1237 12.3386 0
      vertex -20 14.7304 0
      vertex -20 14.2474 0
    endloop
  endfacet
  facet normal -0 0 -1
    outer loop
      vertex -27.3652 12.7569 0
      vertex -20 14.7304 0
      vertex -27.1237 12.3386 0
    endloop
  endfacet
  facet normal 0 0 -1
    outer loop
      vertex -27.3652 12.7569 0
      vertex -27.1237 12.3386 0
      vertex -32.7569 7.36518 0
    endloop
  endfacet
  facet normal 0 0 -1
    outer loop
      vertex -34.2474 0 0
      vertex -32.7569 7.36518 0
      vertex -32.3386 7.1237 0
    endloop
  endfacet
  facet normal 0 0 -1
    outer loop
      vertex -32.7569 7.36518 0
      vertex -34.2474 0 0
      vertex -34.7304 0 0
    endloop
  endfacet
  facet normal 0 0 -1
    outer loop
      vertex -32.3386 -7.1237 0
      vertex -32.7569 -7.36518 0
      vertex -34.2474 0 0
    endloop
  endfacet
  facet normal -0.965926 0.258819 0
    outer loop
      vertex -34.7304 0 0
      vertex -34.7304 0 10.2622
      vertex -32.7569 7.36518 0
    endloop
  endfacet
  facet normal -0.965926 0.258819 0
    outer loop
      vertex -32.7569 7.36518 0
      vertex -34.7304 0 10.2622
      vertex -32.7569 7.36518 10.2622
    endloop
  endfacet
  facet normal -0.944445 0.253063 0.209721
    outer loop
      vertex -32.7569 7.36518 10.2622
      vertex -34.7304 0 10.2622
      vertex -29.3387 5.39169 28.0368
    endloop
  endfacet
  facet normal -0.944445 0.253063 0.209721
    outer loop
      vertex -29.3387 5.39169 28.0368
      vertex -34.7304 0 10.2622
      vertex -30.7834 0 28.0368
    endloop
  endfacet
  facet normal -0.944445 -0.253063 0.209721
    outer loop
      vertex -30.7834 0 28.0368
      vertex -34.7304 0 10.2622
      vertex -29.3387 -5.39169 28.0368
    endloop
  endfacet
  facet normal -0.944445 -0.253063 0.209721
    outer loop
      vertex -29.3387 -5.39169 28.0368
      vertex -34.7304 0 10.2622
      vertex -32.7569 -7.36518 10.2622
    endloop
  endfacet
  facet normal -0.691382 -0.691382 0.209721
    outer loop
      vertex -29.3387 -5.39169 28.0368
      vertex -32.7569 -7.36518 10.2622
      vertex -27.3652 -12.7569 10.2622
    endloop
  endfacet
  facet normal -0.691382 -0.691382 0.209721
    outer loop
      vertex -25.3917 -9.33868 28.0368
      vertex -29.3387 -5.39169 28.0368
      vertex -27.3652 -12.7569 10.2622
    endloop
  endfacet
  facet normal -0.707107 -0.707107 0
    outer loop
      vertex -32.7569 -7.36518 10.2622
      vertex -32.7569 -7.36518 0
      vertex -27.3652 -12.7569 0
    endloop
  endfacet
  facet normal -0.707107 -0.707107 0
    outer loop
      vertex -27.3652 -12.7569 10.2622
      vertex -32.7569 -7.36518 10.2622
      vertex -27.3652 -12.7569 0
    endloop
  endfacet
  facet normal -0.707107 0.707107 0
    outer loop
      vertex -32.7569 7.36518 0
      vertex -32.7569 7.36518 10.2622
      vertex -27.3652 12.7569 0
    endloop
  endfacet
  facet normal -0.707107 0.707107 0
    outer loop
      vertex -27.3652 12.7569 0
      vertex -32.7569 7.36518 10.2622
      vertex -27.3652 12.7569 10.2622
    endloop
  endfacet
  facet normal -0.258819 -0.965926 0
    outer loop
      vertex -27.3652 -12.7569 10.2622
      vertex -27.3652 -12.7569 0
      vertex -20 -14.7304 0
    endloop
  endfacet
  facet normal -0.258819 -0.965926 0
    outer loop
      vertex -20 -14.7304 10.2622
      vertex -27.3652 -12.7569 10.2622
      vertex -20 -14.7304 0
    endloop
  endfacet
  facet normal 0.258819 -0.965926 0
    outer loop
      vertex -20 -14.7304 10.2622
      vertex -20 -14.7304 0
      vertex -12.6348 -12.7569 0
    endloop
  endfacet
  facet normal 0.258819 -0.965926 0
    outer loop
      vertex -12.6348 -12.7569 10.2622
      vertex -20 -14.7304 10.2622
      vertex -12.6348 -12.7569 0
    endloop
  endfacet
  facet normal 0.707107 -0.707107 0
    outer loop
      vertex -12.6348 -12.7569 10.2622
      vertex -12.6348 -12.7569 0
      vertex -7.24313 -7.36518 0
    endloop
  endfacet
  facet normal 0.707107 -0.707107 0
    outer loop
      vertex -7.24313 -7.36518 10.2622
      vertex -12.6348 -12.7569 10.2622
      vertex -7.24313 -7.36518 0
    endloop
  endfacet
  facet normal 0.965926 -0.258819 0
    outer loop
      vertex -7.24313 -7.36518 10.2622
      vertex -7.24313 -7.36518 0
      vertex -5.26963 0 0
    endloop
  endfacet
  facet normal 0.965926 -0.258819 0
    outer loop
      vertex -5.26963 0 10.2622
      vertex -7.24313 -7.36518 10.2622
      vertex -5.26963 0 0
    endloop
  endfacet
  facet normal 0.965926 0.258819 0
    outer loop
      vertex -5.26963 0 0
      vertex -7.24313 7.36518 0
      vertex -7.24313 7.36518 10.2622
    endloop
  endfacet
  facet normal 0.965926 0.258819 -0
    outer loop
      vertex -5.26963 0 10.2622
      vertex -5.26963 0 0
      vertex -7.24313 7.36518 10.2622
    endloop
  endfacet
  facet normal 0.707107 0.707107 0
    outer loop
      vertex -12.6348 12.7569 0
      vertex -12.6348 12.7569 10.2622
      vertex -7.24313 7.36518 0
    endloop
  endfacet
  facet normal 0.707107 0.707107 0
    outer loop
      vertex -7.24313 7.36518 0
      vertex -12.6348 12.7569 10.2622
      vertex -7.24313 7.36518 10.2622
    endloop
  endfacet
  facet normal 0.258819 0.965926 0
    outer loop
      vertex -20 14.7304 0
      vertex -20 14.7304 10.2622
      vertex -12.6348 12.7569 0
    endloop
  endfacet
  facet normal 0.258819 0.965926 0
    outer loop
      vertex -12.6348 12.7569 0
      vertex -20 14.7304 10.2622
      vertex -12.6348 12.7569 10.2622
    endloop
  endfacet
  facet normal -0.258819 0.965926 0
    outer loop
      vertex -27.3652 12.7569 0
      vertex -27.3652 12.7569 10.2622
      vertex -20 14.7304 0
    endloop
  endfacet
  facet normal -0.258819 0.965926 0
    outer loop
      vertex -20 14.7304 0
      vertex -27.3652 12.7569 10.2622
      vertex -20 14.7304 10.2622
    endloop
  endfacet
  facet normal 0.707107 0.707107 -0
    outer loop
      vertex -27.1237 -12.3386 9.92571
      vertex -27.1237 -12.3386 0
      vertex -32.3386 -7.1237 9.92571
    endloop
  endfacet
  facet normal 0.707107 0.707107 -0
    outer loop
      vertex -32.3386 -7.1237 9.92571
      vertex -27.1237 -12.3386 0
      vertex -32.3386 -7.1237 0
    endloop
  endfacet
  facet normal 0.965926 0.258819 0
    outer loop
      vertex -34.2474 0 9.92571
      vertex -32.3386 -7.1237 9.92571
      vertex -32.3386 -7.1237 0
    endloop
  endfacet
  facet normal 0.965926 0.258819 0
    outer loop
      vertex -34.2474 0 0
      vertex -34.2474 0 9.92571
      vertex -32.3386 -7.1237 0
    endloop
  endfacet
  facet normal 0.965926 -0.258819 0
    outer loop
      vertex -32.3386 7.1237 0
      vertex -32.3386 7.1237 9.92571
      vertex -34.2474 0 9.92571
    endloop
  endfacet
  facet normal 0.965926 -0.258819 0
    outer loop
      vertex -34.2474 0 0
      vertex -32.3386 7.1237 0
      vertex -34.2474 0 9.92571
    endloop
  endfacet
  facet normal 0.707107 -0.707107 0
    outer loop
      vertex -27.1237 12.3386 0
      vertex -27.1237 12.3386 9.92571
      vertex -32.3386 7.1237 9.92571
    endloop
  endfacet
  facet normal 0.707107 -0.707107 0
    outer loop
      vertex -32.3386 7.1237 0
      vertex -27.1237 12.3386 0
      vertex -32.3386 7.1237 9.92571
    endloop
  endfacet
  facet normal 0.258819 -0.965926 0
    outer loop
      vertex -20 14.2474 0
      vertex -20 14.2474 9.92571
      vertex -27.1237 12.3386 9.92571
    endloop
  endfacet
  facet normal 0.258819 -0.965926 0
    outer loop
      vertex -27.1237 12.3386 0
      vertex -20 14.2474 0
      vertex -27.1237 12.3386 9.92571
    endloop
  endfacet
  facet normal -0.258819 -0.965926 -0
    outer loop
      vertex -12.8763 12.3386 0
      vertex -12.8763 12.3386 9.92571
      vertex -20 14.2474 9.92571
    endloop
  endfacet
  facet normal -0.258819 -0.965926 -0
    outer loop
      vertex -20 14.2474 0
      vertex -12.8763 12.3386 0
      vertex -20 14.2474 9.92571
    endloop
  endfacet
  facet normal -0.707107 -0.707107 -0
    outer loop
      vertex -7.66139 7.1237 0
      vertex -7.66139 7.1237 9.92571
      vertex -12.8763 12.3386 9.92571
    endloop
  endfacet
  facet normal -0.707107 -0.707107 -0
    outer loop
      vertex -12.8763 12.3386 0
      vertex -7.66139 7.1237 0
      vertex -12.8763 12.3386 9.92571
    endloop
  endfacet
  facet normal -0.965926 -0.258819 0
    outer loop
      vertex -5.75259 0 9.92571
      vertex -7.66139 7.1237 9.92571
      vertex -5.75259 0 0
    endloop
  endfacet
  facet normal -0.965926 -0.258819 0
    outer loop
      vertex -5.75259 0 0
      vertex -7.66139 7.1237 9.92571
      vertex -7.66139 7.1237 0
    endloop
  endfacet
  facet normal -0.965926 0.258819 0
    outer loop
      vertex -5.75259 0 9.92571
      vertex -5.75259 0 0
      vertex -7.66139 -7.1237 9.92571
    endloop
  endfacet
  facet normal -0.965926 0.258819 0
    outer loop
      vertex -7.66139 -7.1237 9.92571
      vertex -5.75259 0 0
      vertex -7.66139 -7.1237 0
    endloop
  endfacet
  facet normal -0.707107 0.707107 0
    outer loop
      vertex -7.66139 -7.1237 9.92571
      vertex -7.66139 -7.1237 0
      vertex -12.8763 -12.3386 9.92571
    endloop
  endfacet
  facet normal -0.707107 0.707107 0
    outer loop
      vertex -12.8763 -12.3386 9.92571
      vertex -7.66139 -7.1237 0
      vertex -12.8763 -12.3386 0
    endloop
  endfacet
  facet normal -0.258819 0.965926 0
    outer loop
      vertex -12.8763 -12.3386 9.92571
      vertex -12.8763 -12.3386 0
      vertex -20 -14.2474 9.92571
    endloop
  endfacet
  facet normal -0.258819 0.965926 0
    outer loop
      vertex -20 -14.2474 9.92571
      vertex -12.8763 -12.3386 0
      vertex -20 -14.2474 0
    endloop
  endfacet
  facet normal 0.258819 0.965926 -0
    outer loop
      vertex -20 -14.2474 9.92571
      vertex -20 -14.2474 0
      vertex -27.1237 -12.3386 9.92571
    endloop
  endfacet
  facet normal 0.258819 0.965926 -0
    outer loop
      vertex -27.1237 -12.3386 9.92571
      vertex -20 -14.2474 0
      vertex -27.1237 -12.3386 0
    endloop
  endfacet
  facet normal -0.691382 0.691382 0.209721
    outer loop
      vertex -32.7569 7.36518 10.2622
      vertex -29.3387 5.39169 28.0368
      vertex -27.3652 12.7569 10.2622
    endloop
  endfacet
  facet normal -0.691382 0.691382 0.209721
    outer loop
      vertex -27.3652 12.7569 10.2622
      vertex -29.3387 5.39169 28.0368
      vertex -25.3917 9.33868 28.0368
    endloop
  endfacet
  facet normal -0.812288 0.217652 0.541125
    outer loop
      vertex -29.3387 5.39169 28.0368
      vertex -30.7834 0 28.0368
      vertex -23.4182 1.97349 38.299
    endloop
  endfacet
  facet normal -0.594636 0.594636 0.541125
    outer loop
      vertex -29.3387 5.39169 28.0368
      vertex -23.4182 1.97349 38.299
      vertex -25.3917 9.33868 28.0368
    endloop
  endfacet
  facet normal -0.594636 0.594636 0.541125
    outer loop
      vertex -25.3917 9.33868 28.0368
      vertex -23.4182 1.97349 38.299
      vertex -21.9735 3.41819 38.299
    endloop
  endfacet
  facet normal -0.812288 -0.217652 0.541125
    outer loop
      vertex -23.947 0 38.299
      vertex -30.7834 0 28.0368
      vertex -23.4182 -1.97349 38.299
    endloop
  endfacet
  facet normal -0.812288 -0.217652 0.541125
    outer loop
      vertex -23.4182 -1.97349 38.299
      vertex -30.7834 0 28.0368
      vertex -29.3387 -5.39169 28.0368
    endloop
  endfacet
  facet normal -0.812288 0.217652 0.541125
    outer loop
      vertex -23.4182 1.97349 38.299
      vertex -30.7834 0 28.0368
      vertex -23.947 0 38.299
    endloop
  endfacet
  facet normal -0.594636 -0.594636 0.541125
    outer loop
      vertex -23.4182 -1.97349 38.299
      vertex -29.3387 -5.39169 28.0368
      vertex -25.3917 -9.33868 28.0368
    endloop
  endfacet
  facet normal -0.594636 -0.594636 0.541125
    outer loop
      vertex -21.9735 -3.41819 38.299
      vertex -23.4182 -1.97349 38.299
      vertex -25.3917 -9.33868 28.0368
    endloop
  endfacet
  facet normal -0.217652 -0.812288 0.541125
    outer loop
      vertex -21.9735 -3.41819 38.299
      vertex -25.3917 -9.33868 28.0368
      vertex -20 -10.7834 28.0368
    endloop
  endfacet
  facet normal -0.253063 -0.944445 0.209721
    outer loop
      vertex -20 -10.7834 28.0368
      vertex -25.3917 -9.33868 28.0368
      vertex -20 -14.7304 10.2622
    endloop
  endfacet
  facet normal -0.253063 -0.944445 0.209721
    outer loop
      vertex -25.3917 -9.33868 28.0368
      vertex -27.3652 -12.7569 10.2622
      vertex -20 -14.7304 10.2622
    endloop
  endfacet
  facet normal -0.253063 0.944445 0.209721
    outer loop
      vertex -20 14.7304 10.2622
      vertex -27.3652 12.7569 10.2622
      vertex -25.3917 9.33868 28.0368
    endloop
  endfacet
  facet normal 0.253063 -0.944445 0.209721
    outer loop
      vertex -20 -10.7834 28.0368
      vertex -20 -14.7304 10.2622
      vertex -14.6083 -9.33868 28.0368
    endloop
  endfacet
  facet normal 0.253063 -0.944445 0.209721
    outer loop
      vertex -14.6083 -9.33868 28.0368
      vertex -20 -14.7304 10.2622
      vertex -12.6348 -12.7569 10.2622
    endloop
  endfacet
  facet normal 0.691382 -0.691382 0.209721
    outer loop
      vertex -10.6613 -5.39169 28.0368
      vertex -14.6083 -9.33868 28.0368
      vertex -12.6348 -12.7569 10.2622
    endloop
  endfacet
  facet normal 0.691382 -0.691382 0.209721
    outer loop
      vertex -7.24313 -7.36518 10.2622
      vertex -10.6613 -5.39169 28.0368
      vertex -12.6348 -12.7569 10.2622
    endloop
  endfacet
  facet normal 0.944445 -0.253063 0.209721
    outer loop
      vertex -5.26963 0 10.2622
      vertex -10.6613 -5.39169 28.0368
      vertex -7.24313 -7.36518 10.2622
    endloop
  endfacet
  facet normal 0.944445 -0.253063 0.209721
    outer loop
      vertex -9.21662 0 28.0368
      vertex -10.6613 -5.39169 28.0368
      vertex -5.26963 0 10.2622
    endloop
  endfacet
  facet normal 0.944445 0.253063 0.209721
    outer loop
      vertex -5.26963 0 10.2622
      vertex -10.6613 5.39169 28.0368
      vertex -9.21662 0 28.0368
    endloop
  endfacet
  facet normal 0.944445 0.253063 0.209721
    outer loop
      vertex -7.24313 7.36518 10.2622
      vertex -10.6613 5.39169 28.0368
      vertex -5.26963 0 10.2622
    endloop
  endfacet
  facet normal 0.691382 0.691382 0.209721
    outer loop
      vertex -14.6083 9.33868 28.0368
      vertex -10.6613 5.39169 28.0368
      vertex -12.6348 12.7569 10.2622
    endloop
  endfacet
  facet normal 0.691382 0.691382 0.209721
    outer loop
      vertex -12.6348 12.7569 10.2622
      vertex -10.6613 5.39169 28.0368
      vertex -7.24313 7.36518 10.2622
    endloop
  endfacet
  facet normal 0.253063 0.944445 0.209721
    outer loop
      vertex -12.6348 12.7569 10.2622
      vertex -20 14.7304 10.2622
      vertex -14.6083 9.33868 28.0368
    endloop
  endfacet
  facet normal 0.253063 0.944445 0.209721
    outer loop
      vertex -20 14.7304 10.2622
      vertex -20 10.7834 28.0368
      vertex -14.6083 9.33868 28.0368
    endloop
  endfacet
  facet normal -0.253063 0.944445 0.209721
    outer loop
      vertex -20 14.7304 10.2622
      vertex -25.3917 9.33868 28.0368
      vertex -20 10.7834 28.0368
    endloop
  endfacet
  facet normal 0.691382 0.691382 -0.209721
    outer loop
      vertex -25.2149 -9.03249 27.1175
      vertex -27.1237 -12.3386 9.92571
      vertex -29.0325 -5.21491 27.1175
    endloop
  endfacet
  facet normal 0.691382 0.691382 -0.209721
    outer loop
      vertex -29.0325 -5.21491 27.1175
      vertex -27.1237 -12.3386 9.92571
      vertex -32.3386 -7.1237 9.92571
    endloop
  endfacet
  facet normal 0.944445 0.253063 -0.209721
    outer loop
      vertex -29.0325 -5.21491 27.1175
      vertex -32.3386 -7.1237 9.92571
      vertex -34.2474 0 9.92571
    endloop
  endfacet
  facet normal 0.253063 0.944445 -0.209721
    outer loop
      vertex -25.2149 -9.03249 27.1175
      vertex -20 -14.2474 9.92571
      vertex -27.1237 -12.3386 9.92571
    endloop
  endfacet
  facet normal 0.944445 0.253063 -0.209721
    outer loop
      vertex -30.4298 0 27.1175
      vertex -29.0325 -5.21491 27.1175
      vertex -34.2474 0 9.92571
    endloop
  endfacet
  facet normal 0.944445 -0.253063 -0.209721
    outer loop
      vertex -29.0325 5.21491 27.1175
      vertex -30.4298 0 27.1175
      vertex -34.2474 0 9.92571
    endloop
  endfacet
  facet normal 0.944445 -0.253063 -0.209721
    outer loop
      vertex -32.3386 7.1237 9.92571
      vertex -29.0325 5.21491 27.1175
      vertex -34.2474 0 9.92571
    endloop
  endfacet
  facet normal 0.691382 -0.691382 -0.209721
    outer loop
      vertex -27.1237 12.3386 9.92571
      vertex -25.2149 9.03249 27.1175
      vertex -29.0325 5.21491 27.1175
    endloop
  endfacet
  facet normal 0.691382 -0.691382 -0.209721
    outer loop
      vertex -32.3386 7.1237 9.92571
      vertex -27.1237 12.3386 9.92571
      vertex -29.0325 5.21491 27.1175
    endloop
  endfacet
  facet normal 0.253063 -0.944445 -0.209721
    outer loop
      vertex -20 14.2474 9.92571
      vertex -25.2149 9.03249 27.1175
      vertex -27.1237 12.3386 9.92571
    endloop
  endfacet
  facet normal 0.253063 -0.944445 -0.209721
    outer loop
      vertex -20 14.2474 9.92571
      vertex -20 10.4298 27.1175
      vertex -25.2149 9.03249 27.1175
    endloop
  endfacet
  facet normal -0.253063 -0.944445 -0.209721
    outer loop
      vertex -20 14.2474 9.92571
      vertex -14.7851 9.03249 27.1175
      vertex -20 10.4298 27.1175
    endloop
  endfacet
  facet normal -0.253063 -0.944445 -0.209721
    outer loop
      vertex -12.8763 12.3386 9.92571
      vertex -14.7851 9.03249 27.1175
      vertex -20 14.2474 9.92571
    endloop
  endfacet
  facet normal -0.691382 -0.691382 -0.209721
    outer loop
      vertex -12.8763 12.3386 9.92571
      vertex -7.66139 7.1237 9.92571
      vertex -10.9675 5.21491 27.1175
    endloop
  endfacet
  facet normal -0.691382 -0.691382 -0.209721
    outer loop
      vertex -14.7851 9.03249 27.1175
      vertex -12.8763 12.3386 9.92571
      vertex -10.9675 5.21491 27.1175
    endloop
  endfacet
  facet normal -0.944445 -0.253063 -0.209721
    outer loop
      vertex -7.66139 7.1237 9.92571
      vertex -5.75259 0 9.92571
      vertex -10.9675 5.21491 27.1175
    endloop
  endfacet
  facet normal -0.944445 0.253063 -0.209721
    outer loop
      vertex -9.57018 0 27.1175
      vertex -5.75259 0 9.92571
      vertex -10.9675 -5.21491 27.1175
    endloop
  endfacet
  facet normal -0.944445 0.253063 -0.209721
    outer loop
      vertex -5.75259 0 9.92571
      vertex -7.66139 -7.1237 9.92571
      vertex -10.9675 -5.21491 27.1175
    endloop
  endfacet
  facet normal -0.944445 -0.253063 -0.209721
    outer loop
      vertex -5.75259 0 9.92571
      vertex -9.57018 0 27.1175
      vertex -10.9675 5.21491 27.1175
    endloop
  endfacet
  facet normal -0.691382 0.691382 -0.209721
    outer loop
      vertex -7.66139 -7.1237 9.92571
      vertex -12.8763 -12.3386 9.92571
      vertex -10.9675 -5.21491 27.1175
    endloop
  endfacet
  facet normal -0.691382 0.691382 -0.209721
    outer loop
      vertex -10.9675 -5.21491 27.1175
      vertex -12.8763 -12.3386 9.92571
      vertex -14.7851 -9.03249 27.1175
    endloop
  endfacet
  facet normal -0.253063 0.944445 -0.209721
    outer loop
      vertex -14.7851 -9.03249 27.1175
      vertex -12.8763 -12.3386 9.92571
      vertex -20 -14.2474 9.92571
    endloop
  endfacet
  facet normal -0.253063 0.944445 -0.209721
    outer loop
      vertex -20 -10.4298 27.1175
      vertex -14.7851 -9.03249 27.1175
      vertex -20 -14.2474 9.92571
    endloop
  endfacet
  facet normal 0.253063 0.944445 -0.209721
    outer loop
      vertex -20 -10.4298 27.1175
      vertex -20 -14.2474 9.92571
      vertex -25.2149 -9.03249 27.1175
    endloop
  endfacet
  facet normal -0.217652 0.812288 0.541125
    outer loop
      vertex -20 10.7834 28.0368
      vertex -25.3917 9.33868 28.0368
      vertex -21.9735 3.41819 38.299
    endloop
  endfacet
  facet normal 0 0 1
    outer loop
      vertex -23.4182 1.97349 38.299
      vertex -23.947 0 38.299
      vertex -23.4182 -1.97349 38.299
    endloop
  endfacet
  facet normal 0 0 1
    outer loop
      vertex -20 -3.94699 38.299
      vertex -23.4182 1.97349 38.299
      vertex -21.9735 -3.41819 38.299
    endloop
  endfacet
  facet normal 0 0 1
    outer loop
      vertex -21.9735 -3.41819 38.299
      vertex -23.4182 1.97349 38.299
      vertex -23.4182 -1.97349 38.299
    endloop
  endfacet
  facet normal -0 0 1
    outer loop
      vertex -18.0265 -3.41819 38.299
      vertex -23.4182 1.97349 38.299
      vertex -20 -3.94699 38.299
    endloop
  endfacet
  facet normal -0 0 1
    outer loop
      vertex -16.5818 -1.97349 38.299
      vertex -23.4182 1.97349 38.299
      vertex -18.0265 -3.41819 38.299
    endloop
  endfacet
  facet normal -0 0 1
    outer loop
      vertex -16.053 0 38.299
      vertex -23.4182 1.97349 38.299
      vertex -16.5818 -1.97349 38.299
    endloop
  endfacet
  facet normal 0 -0 1
    outer loop
      vertex -16.5818 1.97349 38.299
      vertex -23.4182 1.97349 38.299
      vertex -16.053 0 38.299
    endloop
  endfacet
  facet normal 0 -0 1
    outer loop
      vertex -18.0265 3.41819 38.299
      vertex -23.4182 1.97349 38.299
      vertex -16.5818 1.97349 38.299
    endloop
  endfacet
  facet normal 0 -0 1
    outer loop
      vertex -20 3.94699 38.299
      vertex -23.4182 1.97349 38.299
      vertex -18.0265 3.41819 38.299
    endloop
  endfacet
  facet normal 0 -0 1
    outer loop
      vertex -21.9735 3.41819 38.299
      vertex -23.4182 1.97349 38.299
      vertex -20 3.94699 38.299
    endloop
  endfacet
  facet normal -0.217652 0.812288 0.541125
    outer loop
      vertex -20 10.7834 28.0368
      vertex -21.9735 3.41819 38.299
      vertex -20 3.94699 38.299
    endloop
  endfacet
  facet normal -0.217652 -0.812288 0.541125
    outer loop
      vertex -20 -3.94699 38.299
      vertex -21.9735 -3.41819 38.299
      vertex -20 -10.7834 28.0368
    endloop
  endfacet
  facet normal 0.217652 -0.812288 0.541125
    outer loop
      vertex -20 -3.94699 38.299
      vertex -20 -10.7834 28.0368
      vertex -18.0265 -3.41819 38.299
    endloop
  endfacet
  facet normal 0.217652 -0.812288 0.541125
    outer loop
      vertex -18.0265 -3.41819 38.299
      vertex -20 -10.7834 28.0368
      vertex -14.6083 -9.33868 28.0368
    endloop
  endfacet
  facet normal 0.594636 -0.594636 0.541125
    outer loop
      vertex -16.5818 -1.97349 38.299
      vertex -18.0265 -3.41819 38.299
      vertex -14.6083 -9.33868 28.0368
    endloop
  endfacet
  facet normal 0.594636 -0.594636 0.541125
    outer loop
      vertex -10.6613 -5.39169 28.0368
      vertex -16.5818 -1.97349 38.299
      vertex -14.6083 -9.33868 28.0368
    endloop
  endfacet
  facet normal 0.812288 -0.217652 0.541125
    outer loop
      vertex -9.21662 0 28.0368
      vertex -16.5818 -1.97349 38.299
      vertex -10.6613 -5.39169 28.0368
    endloop
  endfacet
  facet normal 0.812288 -0.217652 0.541125
    outer loop
      vertex -16.053 0 38.299
      vertex -16.5818 -1.97349 38.299
      vertex -9.21662 0 28.0368
    endloop
  endfacet
  facet normal 0.812288 0.217652 0.541125
    outer loop
      vertex -9.21662 0 28.0368
      vertex -16.5818 1.97349 38.299
      vertex -16.053 0 38.299
    endloop
  endfacet
  facet normal 0.812288 0.217652 0.541125
    outer loop
      vertex -10.6613 5.39169 28.0368
      vertex -16.5818 1.97349 38.299
      vertex -9.21662 0 28.0368
    endloop
  endfacet
  facet normal 0.594636 0.594636 0.541125
    outer loop
      vertex -18.0265 3.41819 38.299
      vertex -16.5818 1.97349 38.299
      vertex -14.6083 9.33868 28.0368
    endloop
  endfacet
  facet normal 0.594636 0.594636 0.541125
    outer loop
      vertex -14.6083 9.33868 28.0368
      vertex -16.5818 1.97349 38.299
      vertex -10.6613 5.39169 28.0368
    endloop
  endfacet
  facet normal 0.217652 0.812288 0.541125
    outer loop
      vertex -14.6083 9.33868 28.0368
      vertex -20 10.7834 28.0368
      vertex -18.0265 3.41819 38.299
    endloop
  endfacet
  facet normal 0.217652 0.812288 0.541125
    outer loop
      vertex -20 10.7834 28.0368
      vertex -20 3.94699 38.299
      vertex -18.0265 3.41819 38.299
    endloop
  endfacet
  facet normal 0.594636 0.594636 -0.541125
    outer loop
      vertex -21.9088 -3.30612 37.0433
      vertex -25.2149 -9.03249 27.1175
      vertex -23.3061 -1.90879 37.0433
    endloop
  endfacet
  facet normal 0.594636 0.594636 -0.541125
    outer loop
      vertex -23.3061 -1.90879 37.0433
      vertex -25.2149 -9.03249 27.1175
      vertex -29.0325 -5.21491 27.1175
    endloop
  endfacet
  facet normal 0.812288 0.217652 -0.541125
    outer loop
      vertex -23.8176 0 37.0433
      vertex -23.3061 -1.90879 37.0433
      vertex -29.0325 -5.21491 27.1175
    endloop
  endfacet
  facet normal 0.812288 0.217652 -0.541125
    outer loop
      vertex -23.8176 0 37.0433
      vertex -29.0325 -5.21491 27.1175
      vertex -30.4298 0 27.1175
    endloop
  endfacet
  facet normal 0.217652 0.812288 -0.541125
    outer loop
      vertex -21.9088 -3.30612 37.0433
      vertex -20 -3.81758 37.0433
      vertex -25.2149 -9.03249 27.1175
    endloop
  endfacet
  facet normal 0.217652 0.812288 -0.541125
    outer loop
      vertex -20 -3.81758 37.0433
      vertex -20 -10.4298 27.1175
      vertex -25.2149 -9.03249 27.1175
    endloop
  endfacet
  facet normal 0.812288 -0.217652 -0.541125
    outer loop
      vertex -29.0325 5.21491 27.1175
      vertex -23.8176 0 37.0433
      vertex -30.4298 0 27.1175
    endloop
  endfacet
  facet normal 0.812288 -0.217652 -0.541125
    outer loop
      vertex -23.3061 1.90879 37.0433
      vertex -23.8176 0 37.0433
      vertex -29.0325 5.21491 27.1175
    endloop
  endfacet
  facet normal 0.594636 -0.594636 -0.541125
    outer loop
      vertex -25.2149 9.03249 27.1175
      vertex -21.9088 3.30612 37.0433
      vertex -23.3061 1.90879 37.0433
    endloop
  endfacet
  facet normal 0.594636 -0.594636 -0.541125
    outer loop
      vertex -29.0325 5.21491 27.1175
      vertex -25.2149 9.03249 27.1175
      vertex -23.3061 1.90879 37.0433
    endloop
  endfacet
  facet normal 0.217652 -0.812288 -0.541125
    outer loop
      vertex -20 3.81758 37.0433
      vertex -21.9088 3.30612 37.0433
      vertex -25.2149 9.03249 27.1175
    endloop
  endfacet
  facet normal 0.217652 -0.812288 -0.541125
    outer loop
      vertex -20 10.4298 27.1175
      vertex -20 3.81758 37.0433
      vertex -25.2149 9.03249 27.1175
    endloop
  endfacet
  facet normal -0.217652 -0.812288 -0.541125
    outer loop
      vertex -20 10.4298 27.1175
      vertex -14.7851 9.03249 27.1175
      vertex -20 3.81758 37.0433
    endloop
  endfacet
  facet normal -0.217652 -0.812288 -0.541125
    outer loop
      vertex -14.7851 9.03249 27.1175
      vertex -18.0912 3.30612 37.0433
      vertex -20 3.81758 37.0433
    endloop
  endfacet
  facet normal -0.594636 -0.594636 -0.541125
    outer loop
      vertex -14.7851 9.03249 27.1175
      vertex -10.9675 5.21491 27.1175
      vertex -16.6939 1.90879 37.0433
    endloop
  endfacet
  facet normal -0.594636 -0.594636 -0.541125
    outer loop
      vertex -18.0912 3.30612 37.0433
      vertex -14.7851 9.03249 27.1175
      vertex -16.6939 1.90879 37.0433
    endloop
  endfacet
  facet normal -0.812288 -0.217652 -0.541125
    outer loop
      vertex -10.9675 5.21491 27.1175
      vertex -16.1824 0 37.0433
      vertex -16.6939 1.90879 37.0433
    endloop
  endfacet
  facet normal -0.812288 -0.217652 -0.541125
    outer loop
      vertex -10.9675 5.21491 27.1175
      vertex -9.57018 0 27.1175
      vertex -16.1824 0 37.0433
    endloop
  endfacet
  facet normal -0.812288 0.217652 -0.541125
    outer loop
      vertex -9.57018 0 27.1175
      vertex -10.9675 -5.21491 27.1175
      vertex -16.1824 0 37.0433
    endloop
  endfacet
  facet normal -0.812288 0.217652 -0.541125
    outer loop
      vertex -16.1824 0 37.0433
      vertex -10.9675 -5.21491 27.1175
      vertex -16.6939 -1.90879 37.0433
    endloop
  endfacet
  facet normal -0.594636 0.594636 -0.541125
    outer loop
      vertex -10.9675 -5.21491 27.1175
      vertex -14.7851 -9.03249 27.1175
      vertex -16.6939 -1.90879 37.0433
    endloop
  endfacet
  facet normal -0.594636 0.594636 -0.541125
    outer loop
      vertex -16.6939 -1.90879 37.0433
      vertex -14.7851 -9.03249 27.1175
      vertex -18.0912 -3.30612 37.0433
    endloop
  endfacet
  facet normal -0.217652 0.812288 -0.541125
    outer loop
      vertex -18.0912 -3.30612 37.0433
      vertex -14.7851 -9.03249 27.1175
      vertex -20 -3.81758 37.0433
    endloop
  endfacet
  facet normal -0.217652 0.812288 -0.541125
    outer loop
      vertex -20 -3.81758 37.0433
      vertex -14.7851 -9.03249 27.1175
      vertex -20 -10.4298 27.1175
    endloop
  endfacet
  facet normal -0 0 -1
    outer loop
      vertex -21.9088 3.30612 37.0433
      vertex -20 3.81758 37.0433
      vertex -23.3061 1.90879 37.0433
    endloop
  endfacet
  facet normal 0 0 -1
    outer loop
      vertex -23.3061 1.90879 37.0433
      vertex -20 3.81758 37.0433
      vertex -18.0912 3.30612 37.0433
    endloop
  endfacet
  facet normal -0 0 -1
    outer loop
      vertex -23.3061 1.90879 37.0433
      vertex -18.0912 3.30612 37.0433
      vertex -16.6939 1.90879 37.0433
    endloop
  endfacet
  facet normal 0 0 -1
    outer loop
      vertex -23.3061 1.90879 37.0433
      vertex -16.6939 1.90879 37.0433
      vertex -16.1824 0 37.0433
    endloop
  endfacet
  facet normal 0 0 -1
    outer loop
      vertex -23.3061 1.90879 37.0433
      vertex -16.1824 0 37.0433
      vertex -16.6939 -1.90879 37.0433
    endloop
  endfacet
  facet normal 0 0 -1
    outer loop
      vertex -23.3061 1.90879 37.0433
      vertex -16.6939 -1.90879 37.0433
      vertex -18.0912 -3.30612 37.0433
    endloop
  endfacet
  facet normal 0 0 -1
    outer loop
      vertex -23.3061 1.90879 37.0433
      vertex -18.0912 -3.30612 37.0433
      vertex -20 -3.81758 37.0433
    endloop
  endfacet
  facet normal 0 0 -1
    outer loop
      vertex -23.3061 1.90879 37.0433
      vertex -20 -3.81758 37.0433
      vertex -21.9088 -3.30612 37.0433
    endloop
  endfacet
  facet normal 0 0 -1
    outer loop
      vertex -23.3061 1.90879 37.0433
      vertex -21.9088 -3.30612 37.0433
      vertex -23.3061 -1.90879 37.0433
    endloop
  endfacet
  facet normal 0 0 -1
    outer loop
      vertex -23.3061 1.90879 37.0433
      vertex -23.3061 -1.90879 37.0433
      vertex -23.8176 0 37.0433
    endloop
  endfacet
  facet normal -0.965926 -0.258819 -0
    outer loop
      vertex 5.26963 0 0
      vertex 7.24313 -7.36518 0
      vertex 5.26963 0 10.2622
    endloop
  endfacet
  facet normal -0.965926 -0.258819 0
    outer loop
      vertex 5.26963 0 10.2622
      vertex 7.24313 -7.36518 0
      vertex 7.24313 -7.36518 10.2622
    endloop
  endfacet
  facet normal 0 -0 -1
    outer loop
      vertex 7.66139 7.1237 0
      vertex 7.24313 7.36518 0
      vertex 12.8763 12.3386 0
    endloop
  endfacet
  facet normal -0 -0 -1
    outer loop
      vertex 20 14.2474 0
      vertex 20 14.7304 0
      vertex 27.3652 12.7569 0
    endloop
  endfacet
  facet normal -0 0 -1
    outer loop
      vertex 27.1237 12.3386 0
      vertex 27.3652 12.7569 0
      vertex 32.7569 7.36518 0
    endloop
  endfacet
  facet normal -0 0 -1
    outer loop
      vertex 32.3386 7.1237 0
      vertex 32.7569 7.36518 0
      vertex 34.7304 0 0
    endloop
  endfacet
  facet normal 0 0 -1
    outer loop
      vertex 34.2474 0 0
      vertex 34.7304 0 0
      vertex 32.7569 -7.36518 0
    endloop
  endfacet
  facet normal -0 0 -1
    outer loop
      vertex 27.1237 -12.3386 0
      vertex 32.7569 -7.36518 0
      vertex 27.3652 -12.7569 0
    endloop
  endfacet
  facet normal -0 0 -1
    outer loop
      vertex 20 -14.2474 0
      vertex 27.3652 -12.7569 0
      vertex 20 -14.7304 0
    endloop
  endfacet
  facet normal 0 0 -1
    outer loop
      vertex 12.8763 -12.3386 0
      vertex 20 -14.7304 0
      vertex 12.6348 -12.7569 0
    endloop
  endfacet
  facet normal 0 0 -1
    outer loop
      vertex 7.66139 -7.1237 0
      vertex 12.6348 -12.7569 0
      vertex 7.24313 -7.36518 0
    endloop
  endfacet
  facet normal 0 0 -1
    outer loop
      vertex 5.75259 0 0
      vertex 7.24313 -7.36518 0
      vertex 5.26963 0 0
    endloop
  endfacet
  facet normal 0 0 -1
    outer loop
      vertex 12.8763 -12.3386 0
      vertex 12.6348 -12.7569 0
      vertex 7.66139 -7.1237 0
    endloop
  endfacet
  facet normal 0 0 -1
    outer loop
      vertex 20 -14.2474 0
      vertex 20 -14.7304 0
      vertex 12.8763 -12.3386 0
    endloop
  endfacet
  facet normal 0 0 -1
    outer loop
      vertex 27.1237 -12.3386 0
      vertex 27.3652 -12.7569 0
      vertex 20 -14.2474 0
    endloop
  endfacet
  facet normal 0 0 -1
    outer loop
      vertex 32.3386 -7.1237 0
      vertex 32.7569 -7.36518 0
      vertex 27.1237 -12.3386 0
    endloop
  endfacet
  facet normal 0 0 -1
    outer loop
      vertex 34.2474 0 0
      vertex 32.7569 -7.36518 0
      vertex 32.3386 -7.1237 0
    endloop
  endfacet
  facet normal 0 0 -1
    outer loop
      vertex 32.3386 7.1237 0
      vertex 34.7304 0 0
      vertex 34.2474 0 0
    endloop
  endfacet
  facet normal 0 0 -1
    outer loop
      vertex 27.1237 12.3386 0
      vertex 32.7569 7.36518 0
      vertex 32.3386 7.1237 0
    endloop
  endfacet
  facet normal 0 0 -1
    outer loop
      vertex 20 14.2474 0
      vertex 27.3652 12.7569 0
      vertex 27.1237 12.3386 0
    endloop
  endfacet
  facet normal 0 0 -1
    outer loop
      vertex 12.8763 12.3386 0
      vertex 20 14.7304 0
      vertex 20 14.2474 0
    endloop
  endfacet
  facet normal -0 0 -1
    outer loop
      vertex 12.6348 12.7569 0
      vertex 20 14.7304 0
      vertex 12.8763 12.3386 0
    endloop
  endfacet
  facet normal 0 0 -1
    outer loop
      vertex 12.6348 12.7569 0
      vertex 12.8763 12.3386 0
      vertex 7.24313 7.36518 0
    endloop
  endfacet
  facet normal 0 0 -1
    outer loop
      vertex 5.75259 0 0
      vertex 7.24313 7.36518 0
      vertex 7.66139 7.1237 0
    endloop
  endfacet
  facet normal 0 0 -1
    outer loop
      vertex 7.24313 7.36518 0
      vertex 5.75259 0 0
      vertex 5.26963 0 0
    endloop
  endfacet
  facet normal 0 0 -1
    outer loop
      vertex 7.66139 -7.1237 0
      vertex 7.24313 -7.36518 0
      vertex 5.75259 0 0
    endloop
  endfacet
  facet normal -0.965926 0.258819 0
    outer loop
      vertex 5.26963 0 0
      vertex 5.26963 0 10.2622
      vertex 7.24313 7.36518 0
    endloop
  endfacet
  facet normal -0.965926 0.258819 0
    outer loop
      vertex 7.24313 7.36518 0
      vertex 5.26963 0 10.2622
      vertex 7.24313 7.36518 10.2622
    endloop
  endfacet
  facet normal -0.944445 0.253063 0.209721
    outer loop
      vertex 7.24313 7.36518 10.2622
      vertex 5.26963 0 10.2622
      vertex 10.6613 5.39169 28.0368
    endloop
  endfacet
  facet normal -0.944445 0.253063 0.209721
    outer loop
      vertex 10.6613 5.39169 28.0368
      vertex 5.26963 0 10.2622
      vertex 9.21662 0 28.0368
    endloop
  endfacet
  facet normal -0.944445 -0.253063 0.209721
    outer loop
      vertex 9.21662 0 28.0368
      vertex 5.26963 0 10.2622
      vertex 10.6613 -5.39169 28.0368
    endloop
  endfacet
  facet normal -0.944445 -0.253063 0.209721
    outer loop
      vertex 10.6613 -5.39169 28.0368
      vertex 5.26963 0 10.2622
      vertex 7.24313 -7.36518 10.2622
    endloop
  endfacet
  facet normal -0.691382 -0.691382 0.209721
    outer loop
      vertex 10.6613 -5.39169 28.0368
      vertex 7.24313 -7.36518 10.2622
      vertex 12.6348 -12.7569 10.2622
    endloop
  endfacet
  facet normal -0.691382 -0.691382 0.209721
    outer loop
      vertex 14.6083 -9.33868 28.0368
      vertex 10.6613 -5.39169 28.0368
      vertex 12.6348 -12.7569 10.2622
    endloop
  endfacet
  facet normal -0.707107 -0.707107 0
    outer loop
      vertex 7.24313 -7.36518 10.2622
      vertex 7.24313 -7.36518 0
      vertex 12.6348 -12.7569 0
    endloop
  endfacet
  facet normal -0.707107 -0.707107 0
    outer loop
      vertex 12.6348 -12.7569 10.2622
      vertex 7.24313 -7.36518 10.2622
      vertex 12.6348 -12.7569 0
    endloop
  endfacet
  facet normal -0.707107 0.707107 0
    outer loop
      vertex 7.24313 7.36518 0
      vertex 7.24313 7.36518 10.2622
      vertex 12.6348 12.7569 0
    endloop
  endfacet
  facet normal -0.707107 0.707107 0
    outer loop
      vertex 12.6348 12.7569 0
      vertex 7.24313 7.36518 10.2622
      vertex 12.6348 12.7569 10.2622
    endloop
  endfacet
  facet normal -0.258819 -0.965926 0
    outer loop
      vertex 12.6348 -12.7569 10.2622
      vertex 12.6348 -12.7569 0
      vertex 20 -14.7304 0
    endloop
  endfacet
  facet normal -0.258819 -0.965926 0
    outer loop
      vertex 20 -14.7304 10.2622
      vertex 12.6348 -12.7569 10.2622
      vertex 20 -14.7304 0
    endloop
  endfacet
  facet normal 0.258819 -0.965926 0
    outer loop
      vertex 20 -14.7304 10.2622
      vertex 20 -14.7304 0
      vertex 27.3652 -12.7569 0
    endloop
  endfacet
  facet normal 0.258819 -0.965926 0
    outer loop
      vertex 27.3652 -12.7569 10.2622
      vertex 20 -14.7304 10.2622
      vertex 27.3652 -12.7569 0
    endloop
  endfacet
  facet normal 0.707107 -0.707107 0
    outer loop
      vertex 27.3652 -12.7569 10.2622
      vertex 27.3652 -12.7569 0
      vertex 32.7569 -7.36518 0
    endloop
  endfacet
  facet normal 0.707107 -0.707107 0
    outer loop
      vertex 32.7569 -7.36518 10.2622
      vertex 27.3652 -12.7569 10.2622
      vertex 32.7569 -7.36518 0
    endloop
  endfacet
  facet normal 0.965926 -0.258819 0
    outer loop
      vertex 32.7569 -7.36518 10.2622
      vertex 32.7569 -7.36518 0
      vertex 34.7304 0 0
    endloop
  endfacet
  facet normal 0.965926 -0.258819 0
    outer loop
      vertex 34.7304 0 10.2622
      vertex 32.7569 -7.36518 10.2622
      vertex 34.7304 0 0
    endloop
  endfacet
  facet normal 0.965926 0.258819 0
    outer loop
      vertex 34.7304 0 0
      vertex 32.7569 7.36518 0
      vertex 32.7569 7.36518 10.2622
    endloop
  endfacet
  facet normal 0.965926 0.258819 -0
    outer loop
      vertex 34.7304 0 10.2622
      vertex 34.7304 0 0
      vertex 32.7569 7.36518 10.2622
    endloop
  endfacet
  facet normal 0.707107 0.707107 0
    outer loop
      vertex 27.3652 12.7569 0
      vertex 27.3652 12.7569 10.2622
      vertex 32.7569 7.36518 0
    endloop
  endfacet
  facet normal 0.707107 0.707107 0
    outer loop
      vertex 32.7569 7.36518 0
      vertex 27.3652 12.7569 10.2622
      vertex 32.7569 7.36518 10.2622
    endloop
  endfacet
  facet normal 0.258819 0.965926 0
    outer loop
      vertex 20 14.7304 0
      vertex 20 14.7304 10.2622
      vertex 27.3652 12.7569 0
    endloop
  endfacet
  facet normal 0.258819 0.965926 0
    outer loop
      vertex 27.3652 12.7569 0
      vertex 20 14.7304 10.2622
      vertex 27.3652 12.7569 10.2622
    endloop
  endfacet
  facet normal -0.258819 0.965926 0
    outer loop
      vertex 12.6348 12.7569 0
      vertex 12.6348 12.7569 10.2622
      vertex 20 14.7304 0
    endloop
  endfacet
  facet normal -0.258819 0.965926 0
    outer loop
      vertex 20 14.7304 0
      vertex 12.6348 12.7569 10.2622
      vertex 20 14.7304 10.2622
    endloop
  endfacet
  facet normal 0.707107 0.707107 -0
    outer loop
      vertex 12.8763 -12.3386 9.92571
      vertex 12.8763 -12.3386 0
      vertex 7.66139 -7.1237 9.92571
    endloop
  endfacet
  facet normal 0.707107 0.707107 -0
    outer loop
      vertex 7.66139 -7.1237 9.92571
      vertex 12.8763 -12.3386 0
      vertex 7.66139 -7.1237 0
    endloop
  endfacet
  facet normal 0.965926 0.258819 0
    outer loop
      vertex 5.75259 0 9.92571
      vertex 7.66139 -7.1237 9.92571
      vertex 7.66139 -7.1237 0
    endloop
  endfacet
  facet normal 0.965926 0.258819 0
    outer loop
      vertex 5.75259 0 0
      vertex 5.75259 0 9.92571
      vertex 7.66139 -7.1237 0
    endloop
  endfacet
  facet normal 0.965926 -0.258819 0
    outer loop
      vertex 7.66139 7.1237 0
      vertex 7.66139 7.1237 9.92571
      vertex 5.75259 0 9.92571
    endloop
  endfacet
  facet normal 0.965926 -0.258819 0
    outer loop
      vertex 5.75259 0 0
      vertex 7.66139 7.1237 0
      vertex 5.75259 0 9.92571
    endloop
  endfacet
  facet normal 0.707107 -0.707107 0
    outer loop
      vertex 12.8763 12.3386 0
      vertex 12.8763 12.3386 9.92571
      vertex 7.66139 7.1237 9.92571
    endloop
  endfacet
  facet normal 0.707107 -0.707107 0
    outer loop
      vertex 7.66139 7.1237 0
      vertex 12.8763 12.3386 0
      vertex 7.66139 7.1237 9.92571
    endloop
  endfacet
  facet normal 0.258819 -0.965926 0
    outer loop
      vertex 20 14.2474 0
      vertex 20 14.2474 9.92571
      vertex 12.8763 12.3386 9.92571
    endloop
  endfacet
  facet normal 0.258819 -0.965926 0
    outer loop
      vertex 12.8763 12.3386 0
      vertex 20 14.2474 0
      vertex 12.8763 12.3386 9.92571
    endloop
  endfacet
  facet normal -0.258819 -0.965926 -0
    outer loop
      vertex 27.1237 12.3386 0
      vertex 27.1237 12.3386 9.92571
      vertex 20 14.2474 9.92571
    endloop
  endfacet
  facet normal -0.258819 -0.965926 -0
    outer loop
      vertex 20 14.2474 0
      vertex 27.1237 12.3386 0
      vertex 20 14.2474 9.92571
    endloop
  endfacet
  facet normal -0.707107 -0.707107 -0
    outer loop
      vertex 32.3386 7.1237 0
      vertex 32.3386 7.1237 9.92571
      vertex 27.1237 12.3386 9.92571
    endloop
  endfacet
  facet normal -0.707107 -0.707107 -0
    outer loop
      vertex 27.1237 12.3386 0
      vertex 32.3386 7.1237 0
      vertex 27.1237 12.3386 9.92571
    endloop
  endfacet
  facet normal -0.965926 -0.258819 0
    outer loop
      vertex 34.2474 0 9.92571
      vertex 32.3386 7.1237 9.92571
      vertex 34.2474 0 0
    endloop
  endfacet
  facet normal -0.965926 -0.258819 0
    outer loop
      vertex 34.2474 0 0
      vertex 32.3386 7.1237 9.92571
      vertex 32.3386 7.1237 0
    endloop
  endfacet
  facet normal -0.965926 0.258819 0
    outer loop
      vertex 34.2474 0 9.92571
      vertex 34.2474 0 0
      vertex 32.3386 -7.1237 9.92571
    endloop
  endfacet
  facet normal -0.965926 0.258819 0
    outer loop
      vertex 32.3386 -7.1237 9.92571
      vertex 34.2474 0 0
      vertex 32.3386 -7.1237 0
    endloop
  endfacet
  facet normal -0.707107 0.707107 0
    outer loop
      vertex 32.3386 -7.1237 9.92571
      vertex 32.3386 -7.1237 0
      vertex 27.1237 -12.3386 9.92571
    endloop
  endfacet
  facet normal -0.707107 0.707107 0
    outer loop
      vertex 27.1237 -12.3386 9.92571
      vertex 32.3386 -7.1237 0
      vertex 27.1237 -12.3386 0
    endloop
  endfacet
  facet normal -0.258819 0.965926 0
    outer loop
      vertex 27.1237 -12.3386 9.92571
      vertex 27.1237 -12.3386 0
      vertex 20 -14.2474 9.92571
    endloop
  endfacet
  facet normal -0.258819 0.965926 0
    outer loop
      vertex 20 -14.2474 9.92571
      vertex 27.1237 -12.3386 0
      vertex 20 -14.2474 0
    endloop
  endfacet
  facet normal 0.258819 0.965926 -0
    outer loop
      vertex 20 -14.2474 9.92571
      vertex 20 -14.2474 0
      vertex 12.8763 -12.3386 9.92571
    endloop
  endfacet
  facet normal 0.258819 0.965926 -0
    outer loop
      vertex 12.8763 -12.3386 9.92571
      vertex 20 -14.2474 0
      vertex 12.8763 -12.3386 0
    endloop
  endfacet
  facet normal -0.691382 0.691382 0.209721
    outer loop
      vertex 7.24313 7.36518 10.2622
      vertex 10.6613 5.39169 28.0368
      vertex 12.6348 12.7569 10.2622
    endloop
  endfacet
  facet normal -0.691382 0.691382 0.209721
    outer loop
      vertex 12.6348 12.7569 10.2622
      vertex 10.6613 5.39169 28.0368
      vertex 14.6083 9.33868 28.0368
    endloop
  endfacet
  facet normal -0.812288 0.217652 0.541125
    outer loop
      vertex 10.6613 5.39169 28.0368
      vertex 9.21662 0 28.0368
      vertex 16.5818 1.97349 38.299
    endloop
  endfacet
  facet normal -0.594636 0.594636 0.541125
    outer loop
      vertex 10.6613 5.39169 28.0368
      vertex 16.5818 1.97349 38.299
      vertex 14.6083 9.33868 28.0368
    endloop
  endfacet
  facet normal -0.594636 0.594636 0.541125
    outer loop
      vertex 14.6083 9.33868 28.0368
      vertex 16.5818 1.97349 38.299
      vertex 18.0265 3.41819 38.299
    endloop
  endfacet
  facet normal -0.812288 -0.217652 0.541125
    outer loop
      vertex 16.053 0 38.299
      vertex 9.21662 0 28.0368
      vertex 16.5818 -1.97349 38.299
    endloop
  endfacet
  facet normal -0.812288 -0.217652 0.541125
    outer loop
      vertex 16.5818 -1.97349 38.299
      vertex 9.21662 0 28.0368
      vertex 10.6613 -5.39169 28.0368
    endloop
  endfacet
  facet normal -0.812288 0.217652 0.541125
    outer loop
      vertex 16.5818 1.97349 38.299
      vertex 9.21662 0 28.0368
      vertex 16.053 0 38.299
    endloop
  endfacet
  facet normal -0.594636 -0.594636 0.541125
    outer loop
      vertex 16.5818 -1.97349 38.299
      vertex 10.6613 -5.39169 28.0368
      vertex 14.6083 -9.33868 28.0368
    endloop
  endfacet
  facet normal -0.594636 -0.594636 0.541125
    outer loop
      vertex 18.0265 -3.41819 38.299
      vertex 16.5818 -1.97349 38.299
      vertex 14.6083 -9.33868 28.0368
    endloop
  endfacet
  facet normal -0.217652 -0.812288 0.541125
    outer loop
      vertex 18.0265 -3.41819 38.299
      vertex 14.6083 -9.33868 28.0368
      vertex 20 -10.7834 28.0368
    endloop
  endfacet
  facet normal -0.253063 -0.944445 0.209721
    outer loop
      vertex 20 -10.7834 28.0368
      vertex 14.6083 -9.33868 28.0368
      vertex 20 -14.7304 10.2622
    endloop
  endfacet
  facet normal -0.253063 -0.944445 0.209721
    outer loop
      vertex 14.6083 -9.33868 28.0368
      vertex 12.6348 -12.7569 10.2622
      vertex 20 -14.7304 10.2622
    endloop
  endfacet
  facet normal -0.253063 0.944445 0.209721
    outer loop
      vertex 20 14.7304 10.2622
      vertex 12.6348 12.7569 10.2622
      vertex 14.6083 9.33868 28.0368
    endloop
  endfacet
  facet normal 0.253063 -0.944445 0.209721
    outer loop
      vertex 20 -10.7834 28.0368
      vertex 20 -14.7304 10.2622
      vertex 25.3917 -9.33868 28.0368
    endloop
  endfacet
  facet normal 0.253063 -0.944445 0.209721
    outer loop
      vertex 25.3917 -9.33868 28.0368
      vertex 20 -14.7304 10.2622
      vertex 27.3652 -12.7569 10.2622
    endloop
  endfacet
  facet normal 0.691382 -0.691382 0.209721
    outer loop
      vertex 29.3387 -5.39169 28.0368
      vertex 25.3917 -9.33868 28.0368
      vertex 27.3652 -12.7569 10.2622
    endloop
  endfacet
  facet normal 0.691382 -0.691382 0.209721
    outer loop
      vertex 32.7569 -7.36518 10.2622
      vertex 29.3387 -5.39169 28.0368
      vertex 27.3652 -12.7569 10.2622
    endloop
  endfacet
  facet normal 0.944445 -0.253063 0.209721
    outer loop
      vertex 34.7304 0 10.2622
      vertex 29.3387 -5.39169 28.0368
      vertex 32.7569 -7.36518 10.2622
    endloop
  endfacet
  facet normal 0.944445 -0.253063 0.209721
    outer loop
      vertex 30.7834 0 28.0368
      vertex 29.3387 -5.39169 28.0368
      vertex 34.7304 0 10.2622
    endloop
  endfacet
  facet normal 0.944445 0.253063 0.209721
    outer loop
      vertex 34.7304 0 10.2622
      vertex 29.3387 5.39169 28.0368
      vertex 30.7834 0 28.0368
    endloop
  endfacet
  facet normal 0.944445 0.253063 0.209721
    outer loop
      vertex 32.7569 7.36518 10.2622
      vertex 29.3387 5.39169 28.0368
      vertex 34.7304 0 10.2622
    endloop
  endfacet
  facet normal 0.691382 0.691382 0.209721
    outer loop
      vertex 25.3917 9.33868 28.0368
      vertex 29.3387 5.39169 28.0368
      vertex 27.3652 12.7569 10.2622
    endloop
  endfacet
  facet normal 0.691382 0.691382 0.209721
    outer loop
      vertex 27.3652 12.7569 10.2622
      vertex 29.3387 5.39169 28.0368
      vertex 32.7569 7.36518 10.2622
    endloop
  endfacet
  facet normal 0.253063 0.944445 0.209721
    outer loop
      vertex 27.3652 12.7569 10.2622
      vertex 20 14.7304 10.2622
      vertex 25.3917 9.33868 28.0368
    endloop
  endfacet
  facet normal 0.253063 0.944445 0.209721
    outer loop
      vertex 20 14.7304 10.2622
      vertex 20 10.7834 28.0368
      vertex 25.3917 9.33868 28.0368
    endloop
  endfacet
  facet normal -0.253063 0.944445 0.209721
    outer loop
      vertex 20 14.7304 10.2622
      vertex 14.6083 9.33868 28.0368
      vertex 20 10.7834 28.0368
    endloop
  endfacet
  facet normal 0.691382 0.691382 -0.209721
    outer loop
      vertex 14.7851 -9.03249 27.1175
      vertex 12.8763 -12.3386 9.92571
      vertex 10.9675 -5.21491 27.1175
    endloop
  endfacet
  facet normal 0.691382 0.691382 -0.209721
    outer loop
      vertex 10.9675 -5.21491 27.1175
      vertex 12.8763 -12.3386 9.92571
      vertex 7.66139 -7.1237 9.92571
    endloop
  endfacet
  facet normal 0.944445 0.253063 -0.209721
    outer loop
      vertex 10.9675 -5.21491 27.1175
      vertex 7.66139 -7.1237 9.92571
      vertex 5.75259 0 9.92571
    endloop
  endfacet
  facet normal 0.253063 0.944445 -0.209721
    outer loop
      vertex 14.7851 -9.03249 27.1175
      vertex 20 -14.2474 9.92571
      vertex 12.8763 -12.3386 9.92571
    endloop
  endfacet
  facet normal 0.944445 0.253063 -0.209721
    outer loop
      vertex 9.57018 0 27.1175
      vertex 10.9675 -5.21491 27.1175
      vertex 5.75259 0 9.92571
    endloop
  endfacet
  facet normal 0.944445 -0.253063 -0.209721
    outer loop
      vertex 10.9675 5.21491 27.1175
      vertex 9.57018 0 27.1175
      vertex 5.75259 0 9.92571
    endloop
  endfacet
  facet normal 0.944445 -0.253063 -0.209721
    outer loop
      vertex 7.66139 7.1237 9.92571
      vertex 10.9675 5.21491 27.1175
      vertex 5.75259 0 9.92571
    endloop
  endfacet
  facet normal 0.691382 -0.691382 -0.209721
    outer loop
      vertex 12.8763 12.3386 9.92571
      vertex 14.7851 9.03249 27.1175
      vertex 10.9675 5.21491 27.1175
    endloop
  endfacet
  facet normal 0.691382 -0.691382 -0.209721
    outer loop
      vertex 7.66139 7.1237 9.92571
      vertex 12.8763 12.3386 9.92571
      vertex 10.9675 5.21491 27.1175
    endloop
  endfacet
  facet normal 0.253063 -0.944445 -0.209721
    outer loop
      vertex 20 14.2474 9.92571
      vertex 14.7851 9.03249 27.1175
      vertex 12.8763 12.3386 9.92571
    endloop
  endfacet
  facet normal 0.253063 -0.944445 -0.209721
    outer loop
      vertex 20 14.2474 9.92571
      vertex 20 10.4298 27.1175
      vertex 14.7851 9.03249 27.1175
    endloop
  endfacet
  facet normal -0.253063 -0.944445 -0.209721
    outer loop
      vertex 20 14.2474 9.92571
      vertex 25.2149 9.03249 27.1175
      vertex 20 10.4298 27.1175
    endloop
  endfacet
  facet normal -0.253063 -0.944445 -0.209721
    outer loop
      vertex 27.1237 12.3386 9.92571
      vertex 25.2149 9.03249 27.1175
      vertex 20 14.2474 9.92571
    endloop
  endfacet
  facet normal -0.691382 -0.691382 -0.209721
    outer loop
      vertex 27.1237 12.3386 9.92571
      vertex 32.3386 7.1237 9.92571
      vertex 29.0325 5.21491 27.1175
    endloop
  endfacet
  facet normal -0.691382 -0.691382 -0.209721
    outer loop
      vertex 25.2149 9.03249 27.1175
      vertex 27.1237 12.3386 9.92571
      vertex 29.0325 5.21491 27.1175
    endloop
  endfacet
  facet normal -0.944445 -0.253063 -0.209721
    outer loop
      vertex 32.3386 7.1237 9.92571
      vertex 34.2474 0 9.92571
      vertex 29.0325 5.21491 27.1175
    endloop
  endfacet
  facet normal -0.944445 0.253063 -0.209721
    outer loop
      vertex 30.4298 0 27.1175
      vertex 34.2474 0 9.92571
      vertex 29.0325 -5.21491 27.1175
    endloop
  endfacet
  facet normal -0.944445 0.253063 -0.209721
    outer loop
      vertex 34.2474 0 9.92571
      vertex 32.3386 -7.1237 9.92571
      vertex 29.0325 -5.21491 27.1175
    endloop
  endfacet
  facet normal -0.944445 -0.253063 -0.209721
    outer loop
      vertex 34.2474 0 9.92571
      vertex 30.4298 0 27.1175
      vertex 29.0325 5.21491 27.1175
    endloop
  endfacet
  facet normal -0.691382 0.691382 -0.209721
    outer loop
      vertex 32.3386 -7.1237 9.92571
      vertex 27.1237 -12.3386 9.92571
      vertex 29.0325 -5.21491 27.1175
    endloop
  endfacet
  facet normal -0.691382 0.691382 -0.209721
    outer loop
      vertex 29.0325 -5.21491 27.1175
      vertex 27.1237 -12.3386 9.92571
      vertex 25.2149 -9.03249 27.1175
    endloop
  endfacet
  facet normal -0.253063 0.944445 -0.209721
    outer loop
      vertex 25.2149 -9.03249 27.1175
      vertex 27.1237 -12.3386 9.92571
      vertex 20 -14.2474 9.92571
    endloop
  endfacet
  facet normal -0.253063 0.944445 -0.209721
    outer loop
      vertex 20 -10.4298 27.1175
      vertex 25.2149 -9.03249 27.1175
      vertex 20 -14.2474 9.92571
    endloop
  endfacet
  facet normal 0.253063 0.944445 -0.209721
    outer loop
      vertex 20 -10.4298 27.1175
      vertex 20 -14.2474 9.92571
      vertex 14.7851 -9.03249 27.1175
    endloop
  endfacet
  facet normal -0.217652 0.812288 0.541125
    outer loop
      vertex 20 10.7834 28.0368
      vertex 14.6083 9.33868 28.0368
      vertex 18.0265 3.41819 38.299
    endloop
  endfacet
  facet normal 0 0 1
    outer loop
      vertex 16.5818 1.97349 38.299
      vertex 16.053 0 38.299
      vertex 16.5818 -1.97349 38.299
    endloop
  endfacet
  facet normal 0 0 1
    outer loop
      vertex 20 -3.94699 38.299
      vertex 16.5818 1.97349 38.299
      vertex 18.0265 -3.41819 38.299
    endloop
  endfacet
  facet normal 0 0 1
    outer loop
      vertex 18.0265 -3.41819 38.299
      vertex 16.5818 1.97349 38.299
      vertex 16.5818 -1.97349 38.299
    endloop
  endfacet
  facet normal -0 0 1
    outer loop
      vertex 21.9735 -3.41819 38.299
      vertex 16.5818 1.97349 38.299
      vertex 20 -3.94699 38.299
    endloop
  endfacet
  facet normal -0 0 1
    outer loop
      vertex 23.4182 -1.97349 38.299
      vertex 16.5818 1.97349 38.299
      vertex 21.9735 -3.41819 38.299
    endloop
  endfacet
  facet normal -0 0 1
    outer loop
      vertex 23.947 0 38.299
      vertex 16.5818 1.97349 38.299
      vertex 23.4182 -1.97349 38.299
    endloop
  endfacet
  facet normal 0 -0 1
    outer loop
      vertex 23.4182 1.97349 38.299
      vertex 16.5818 1.97349 38.299
      vertex 23.947 0 38.299
    endloop
  endfacet
  facet normal 0 -0 1
    outer loop
      vertex 21.9735 3.41819 38.299
      vertex 16.5818 1.97349 38.299
      vertex 23.4182 1.97349 38.299
    endloop
  endfacet
  facet normal 0 -0 1
    outer loop
      vertex 20 3.94699 38.299
      vertex 16.5818 1.97349 38.299
      vertex 21.9735 3.41819 38.299
    endloop
  endfacet
  facet normal 0 -0 1
    outer loop
      vertex 18.0265 3.41819 38.299
      vertex 16.5818 1.97349 38.299
      vertex 20 3.94699 38.299
    endloop
  endfacet
  facet normal -0.217652 0.812288 0.541125
    outer loop
      vertex 20 10.7834 28.0368
      vertex 18.0265 3.41819 38.299
      vertex 20 3.94699 38.299
    endloop
  endfacet
  facet normal -0.217652 -0.812288 0.541125
    outer loop
      vertex 20 -3.94699 38.299
      vertex 18.0265 -3.41819 38.299
      vertex 20 -10.7834 28.0368
    endloop
  endfacet
  facet normal 0.217652 -0.812288 0.541125
    outer loop
      vertex 20 -3.94699 38.299
      vertex 20 -10.7834 28.0368
      vertex 21.9735 -3.41819 38.299
    endloop
  endfacet
  facet normal 0.217652 -0.812288 0.541125
    outer loop
      vertex 21.9735 -3.41819 38.299
      vertex 20 -10.7834 28.0368
      vertex 25.3917 -9.33868 28.0368
    endloop
  endfacet
  facet normal 0.594636 -0.594636 0.541125
    outer loop
      vertex 23.4182 -1.97349 38.299
      vertex 21.9735 -3.41819 38.299
      vertex 25.3917 -9.33868 28.0368
    endloop
  endfacet
  facet normal 0.594636 -0.594636 0.541125
    outer loop
      vertex 29.3387 -5.39169 28.0368
      vertex 23.4182 -1.97349 38.299
      vertex 25.3917 -9.33868 28.0368
    endloop
  endfacet
  facet normal 0.812288 -0.217652 0.541125
    outer loop
      vertex 30.7834 0 28.0368
      vertex 23.4182 -1.97349 38.299
      vertex 29.3387 -5.39169 28.0368
    endloop
  endfacet
  facet normal 0.812288 -0.217652 0.541125
    outer loop
      vertex 23.947 0 38.299
      vertex 23.4182 -1.97349 38.299
      vertex 30.7834 0 28.0368
    endloop
  endfacet
  facet normal 0.812288 0.217652 0.541125
    outer loop
      vertex 30.7834 0 28.0368
      vertex 23.4182 1.97349 38.299
      vertex 23.947 0 38.299
    endloop
  endfacet
  facet normal 0.812288 0.217652 0.541125
    outer loop
      vertex 29.3387 5.39169 28.0368
      vertex 23.4182 1.97349 38.299
      vertex 30.7834 0 28.0368
    endloop
  endfacet
  facet normal 0.594636 0.594636 0.541125
    outer loop
      vertex 21.9735 3.41819 38.299
      vertex 23.4182 1.97349 38.299
      vertex 25.3917 9.33868 28.0368
    endloop
  endfacet
  facet normal 0.594636 0.594636 0.541125
    outer loop
      vertex 25.3917 9.33868 28.0368
      vertex 23.4182 1.97349 38.299
      vertex 29.3387 5.39169 28.0368
    endloop
  endfacet
  facet normal 0.217652 0.812288 0.541125
    outer loop
      vertex 25.3917 9.33868 28.0368
      vertex 20 10.7834 28.0368
      vertex 21.9735 3.41819 38.299
    endloop
  endfacet
  facet normal 0.217652 0.812288 0.541125
    outer loop
      vertex 20 10.7834 28.0368
      vertex 20 3.94699 38.299
      vertex 21.9735 3.41819 38.299
    endloop
  endfacet
  facet normal 0.594636 0.594636 -0.541125
    outer loop
      vertex 18.0912 -3.30612 37.0433
      vertex 14.7851 -9.03249 27.1175
      vertex 16.6939 -1.90879 37.0433
    endloop
  endfacet
  facet normal 0.594636 0.594636 -0.541125
    outer loop
      vertex 16.6939 -1.90879 37.0433
      vertex 14.7851 -9.03249 27.1175
      vertex 10.9675 -5.21491 27.1175
    endloop
  endfacet
  facet normal 0.812288 0.217652 -0.541125
    outer loop
      vertex 16.1824 0 37.0433
      vertex 16.6939 -1.90879 37.0433
      vertex 10.9675 -5.21491 27.1175
    endloop
  endfacet
  facet normal 0.812288 0.217652 -0.541125
    outer loop
      vertex 16.1824 0 37.0433
      vertex 10.9675 -5.21491 27.1175
      vertex 9.57018 0 27.1175
    endloop
  endfacet
  facet normal 0.217652 0.812288 -0.541125
    outer loop
      vertex 18.0912 -3.30612 37.0433
      vertex 20 -3.81758 37.0433
      vertex 14.7851 -9.03249 27.1175
    endloop
  endfacet
  facet normal 0.217652 0.812288 -0.541125
    outer loop
      vertex 20 -3.81758 37.0433
      vertex 20 -10.4298 27.1175
      vertex 14.7851 -9.03249 27.1175
    endloop
  endfacet
  facet normal 0.812288 -0.217652 -0.541125
    outer loop
      vertex 10.9675 5.21491 27.1175
      vertex 16.1824 0 37.0433
      vertex 9.57018 0 27.1175
    endloop
  endfacet
  facet normal 0.812288 -0.217652 -0.541125
    outer loop
      vertex 16.6939 1.90879 37.0433
      vertex 16.1824 0 37.0433
      vertex 10.9675 5.21491 27.1175
    endloop
  endfacet
  facet normal 0.594636 -0.594636 -0.541125
    outer loop
      vertex 14.7851 9.03249 27.1175
      vertex 18.0912 3.30612 37.0433
      vertex 16.6939 1.90879 37.0433
    endloop
  endfacet
  facet normal 0.594636 -0.594636 -0.541125
    outer loop
      vertex 10.9675 5.21491 27.1175
      vertex 14.7851 9.03249 27.1175
      vertex 16.6939 1.90879 37.0433
    endloop
  endfacet
  facet normal 0.217652 -0.812288 -0.541125
    outer loop
      vertex 20 3.81758 37.0433
      vertex 18.0912 3.30612 37.0433
      vertex 14.7851 9.03249 27.1175
    endloop
  endfacet
  facet normal 0.217652 -0.812288 -0.541125
    outer loop
      vertex 20 10.4298 27.1175
      vertex 20 3.81758 37.0433
      vertex 14.7851 9.03249 27.1175
    endloop
  endfacet
  facet normal -0.217652 -0.812288 -0.541125
    outer loop
      vertex 20 10.4298 27.1175
      vertex 25.2149 9.03249 27.1175
      vertex 20 3.81758 37.0433
    endloop
  endfacet
  facet normal -0.217652 -0.812288 -0.541125
    outer loop
      vertex 25.2149 9.03249 27.1175
      vertex 21.9088 3.30612 37.0433
      vertex 20 3.81758 37.0433
    endloop
  endfacet
  facet normal -0.594636 -0.594636 -0.541125
    outer loop
      vertex 25.2149 9.03249 27.1175
      vertex 29.0325 5.21491 27.1175
      vertex 23.3061 1.90879 37.0433
    endloop
  endfacet
  facet normal -0.594636 -0.594636 -0.541125
    outer loop
      vertex 21.9088 3.30612 37.0433
      vertex 25.2149 9.03249 27.1175
      vertex 23.3061 1.90879 37.0433
    endloop
  endfacet
  facet normal -0.812288 -0.217652 -0.541125
    outer loop
      vertex 29.0325 5.21491 27.1175
      vertex 23.8176 0 37.0433
      vertex 23.3061 1.90879 37.0433
    endloop
  endfacet
  facet normal -0.812288 -0.217652 -0.541125
    outer loop
      vertex 29.0325 5.21491 27.1175
      vertex 30.4298 0 27.1175
      vertex 23.8176 0 37.0433
    endloop
  endfacet
  facet normal -0.812288 0.217652 -0.541125
    outer loop
      vertex 30.4298 0 27.1175
      vertex 29.0325 -5.21491 27.1175
      vertex 23.8176 0 37.0433
    endloop
  endfacet
  facet normal -0.812288 0.217652 -0.541125
    outer loop
      vertex 23.8176 0 37.0433
      vertex 29.0325 -5.21491 27.1175
      vertex 23.3061 -1.90879 37.0433
    endloop
  endfacet
  facet normal -0.594636 0.594636 -0.541125
    outer loop
      vertex 29.0325 -5.21491 27.1175
      vertex 25.2149 -9.03249 27.1175
      vertex 23.3061 -1.90879 37.0433
    endloop
  endfacet
  facet normal -0.594636 0.594636 -0.541125
    outer loop
      vertex 23.3061 -1.90879 37.0433
      vertex 25.2149 -9.03249 27.1175
      vertex 21.9088 -3.30612 37.0433
    endloop
  endfacet
  facet normal -0.217652 0.812288 -0.541125
    outer loop
      vertex 21.9088 -3.30612 37.0433
      vertex 25.2149 -9.03249 27.1175
      vertex 20 -3.81758 37.0433
    endloop
  endfacet
  facet normal -0.217652 0.812288 -0.541125
    outer loop
      vertex 20 -3.81758 37.0433
      vertex 25.2149 -9.03249 27.1175
      vertex 20 -10.4298 27.1175
    endloop
  endfacet
  facet normal -0 0 -1
    outer loop
      vertex 18.0912 3.30612 37.0433
      vertex 20 3.81758 37.0433
      vertex 16.6939 1.90879 37.0433
    endloop
  endfacet
  facet normal 0 0 -1
    outer loop
      vertex 16.6939 1.90879 37.0433
      vertex 20 3.81758 37.0433
      vertex 21.9088 3.30612 37.0433
    endloop
  endfacet
  facet normal -0 0 -1
    outer loop
      vertex 16.6939 1.90879 37.0433
      vertex 21.9088 3.30612 37.0433
      vertex 23.3061 1.90879 37.0433
    endloop
  endfacet
  facet normal 0 0 -1
    outer loop
      vertex 16.6939 1.90879 37.0433
      vertex 23.3061 1.90879 37.0433
      vertex 23.8176 0 37.0433
    endloop
  endfacet
  facet normal 0 0 -1
    outer loop
      vertex 16.6939 1.90879 37.0433
      vertex 23.8176 0 37.0433
      vertex 23.3061 -1.90879 37.0433
    endloop
  endfacet
  facet normal 0 0 -1
    outer loop
      vertex 16.6939 1.90879 37.0433
      vertex 23.3061 -1.90879 37.0433
      vertex 21.9088 -3.30612 37.0433
    endloop
  endfacet
  facet normal 0 0 -1
    outer loop
      vertex 16.6939 1.90879 37.0433
      vertex 21.9088 -3.30612 37.0433
      vertex 20 -3.81758 37.0433
    endloop
  endfacet
  facet normal 0 0 -1
    outer loop
      vertex 16.6939 1.90879 37.0433
      vertex 20 -3.81758 37.0433
      vertex 18.0912 -3.30612 37.0433
    endloop
  endfacet
  facet normal 0 0 -1
    outer loop
      vertex 16.6939 1.90879 37.0433
      vertex 18.0912 -3.30612 37.0433
      vertex 16.6939 -1.90879 37.0433
    endloop
  endfacet
  facet normal 0 0 -1
    outer loop
      vertex 16.6939 1.90879 37.0433
      vertex 16.6939 -1.90879 37.0433
      vertex 16.1824 0 37.0433
    endloop
  endfacet
  facet normal 0 0 -1
    outer loop
      vertex -12.5141 -34.225 0
      vertex -12.7306 -34.35 0
      vertex -14.45 -27 0
    endloop
  endfacet
  facet normal 0 -0 -1
    outer loop
      vertex -12.5141 -19.775 0
      vertex -12.7306 -19.65 0
      vertex -7.35 -14.2694 0
    endloop
  endfacet
  facet normal 0 -0 -1
    outer loop
      vertex -7.225 -14.4859 0
      vertex -7.35 -14.2694 0
      vertex 0 -12.3 0
    endloop
  endfacet
  facet normal -0 -0 -1
    outer loop
      vertex 0 -12.55 0
      vertex 0 -12.3 0
      vertex 7.35 -14.2694 0
    endloop
  endfacet
  facet normal -0 0 -1
    outer loop
      vertex 7.225 -14.4859 0
      vertex 7.35 -14.2694 0
      vertex 12.7306 -19.65 0
    endloop
  endfacet
  facet normal -0 -0 -1
    outer loop
      vertex 14.45 -27 0
      vertex 12.7306 -19.65 0
      vertex 14.7 -27 0
    endloop
  endfacet
  facet normal -0 0 -1
    outer loop
      vertex 12.5141 -34.225 0
      vertex 14.7 -27 0
      vertex 12.7306 -34.35 0
    endloop
  endfacet
  facet normal -0 0 -1
    outer loop
      vertex 7.225 -39.5141 0
      vertex 12.7306 -34.35 0
      vertex 7.35 -39.7306 0
    endloop
  endfacet
  facet normal -0 0 -1
    outer loop
      vertex 0 -41.45 0
      vertex 7.35 -39.7306 0
      vertex 0 -41.7 0
    endloop
  endfacet
  facet normal 0 0 -1
    outer loop
      vertex -7.225 -39.5141 0
      vertex 0 -41.7 0
      vertex -7.35 -39.7306 0
    endloop
  endfacet
  facet normal -0 0 -1
    outer loop
      vertex -14.7 -27 0
      vertex -12.7306 -19.65 0
      vertex -14.45 -27 0
    endloop
  endfacet
  facet normal 0 0 -1
    outer loop
      vertex -14.7 -27 0
      vertex -14.45 -27 0
      vertex -12.7306 -34.35 0
    endloop
  endfacet
  facet normal 0 0 -1
    outer loop
      vertex -7.225 -39.5141 0
      vertex -12.7306 -34.35 0
      vertex -12.5141 -34.225 0
    endloop
  endfacet
  facet normal 0 0 -1
    outer loop
      vertex 0 -41.45 0
      vertex 0 -41.7 0
      vertex -7.225 -39.5141 0
    endloop
  endfacet
  facet normal 0 0 -1
    outer loop
      vertex -12.7306 -34.35 0
      vertex -7.225 -39.5141 0
      vertex -7.35 -39.7306 0
    endloop
  endfacet
  facet normal -0 0 -1
    outer loop
      vertex 12.5141 -19.775 0
      vertex 12.7306 -19.65 0
      vertex 14.45 -27 0
    endloop
  endfacet
  facet normal 0 0 -1
    outer loop
      vertex 0 -12.55 0
      vertex 7.35 -14.2694 0
      vertex 7.225 -14.4859 0
    endloop
  endfacet
  facet normal 0 0 -1
    outer loop
      vertex 7.225 -14.4859 0
      vertex 12.7306 -19.65 0
      vertex 12.5141 -19.775 0
    endloop
  endfacet
  facet normal 0 0 -1
    outer loop
      vertex 14.45 -27 0
      vertex 14.7 -27 0
      vertex 12.5141 -34.225 0
    endloop
  endfacet
  facet normal 0 0 -1
    outer loop
      vertex -14.45 -27 0
      vertex -12.7306 -19.65 0
      vertex -12.5141 -19.775 0
    endloop
  endfacet
  facet normal 0 0 -1
    outer loop
      vertex -12.5141 -19.775 0
      vertex -7.35 -14.2694 0
      vertex -7.225 -14.4859 0
    endloop
  endfacet
  facet normal 0 0 -1
    outer loop
      vertex -7.225 -14.4859 0
      vertex 0 -12.3 0
      vertex 0 -12.55 0
    endloop
  endfacet
  facet normal 0 0 -1
    outer loop
      vertex 12.5141 -34.225 0
      vertex 12.7306 -34.35 0
      vertex 7.225 -39.5141 0
    endloop
  endfacet
  facet normal 0 0 -1
    outer loop
      vertex 7.225 -39.5141 0
      vertex 7.35 -39.7306 0
      vertex 0 -41.45 0
    endloop
  endfacet
  facet normal -0.965926 0.258819 0
    outer loop
      vertex -14.7 -27 0
      vertex -14.7 -27 10
      vertex -12.7306 -19.65 0
    endloop
  endfacet
  facet normal -0.965926 0.258819 0
    outer loop
      vertex -12.7306 -19.65 0
      vertex -14.7 -27 10
      vertex -12.7306 -19.65 10
    endloop
  endfacet
  facet normal -0.965926 -0.258819 -0
    outer loop
      vertex -14.7 -27 0
      vertex -12.7306 -34.35 0
      vertex -14.7 -27 10
    endloop
  endfacet
  facet normal -0.965926 -0.258819 0
    outer loop
      vertex -14.7 -27 10
      vertex -12.7306 -34.35 0
      vertex -12.7306 -34.35 10
    endloop
  endfacet
  facet normal -0.707107 -0.707107 0
    outer loop
      vertex -12.7306 -34.35 10
      vertex -12.7306 -34.35 0
      vertex -7.35 -39.7306 0
    endloop
  endfacet
  facet normal -0.707107 -0.707107 0
    outer loop
      vertex -7.35 -39.7306 10
      vertex -12.7306 -34.35 10
      vertex -7.35 -39.7306 0
    endloop
  endfacet
  facet normal -0.258819 -0.965926 0
    outer loop
      vertex -7.35 -39.7306 10
      vertex -7.35 -39.7306 0
      vertex 0 -41.7 0
    endloop
  endfacet
  facet normal -0.258819 -0.965926 0
    outer loop
      vertex 0 -41.7 10
      vertex -7.35 -39.7306 10
      vertex 0 -41.7 0
    endloop
  endfacet
  facet normal 0.258819 -0.965926 0
    outer loop
      vertex 0 -41.7 10
      vertex 0 -41.7 0
      vertex 7.35 -39.7306 0
    endloop
  endfacet
  facet normal 0.258819 -0.965926 0
    outer loop
      vertex 7.35 -39.7306 10
      vertex 0 -41.7 10
      vertex 7.35 -39.7306 0
    endloop
  endfacet
  facet normal 0.707107 -0.707107 0
    outer loop
      vertex 7.35 -39.7306 10
      vertex 7.35 -39.7306 0
      vertex 12.7306 -34.35 0
    endloop
  endfacet
  facet normal 0.707107 -0.707107 0
    outer loop
      vertex 12.7306 -34.35 10
      vertex 7.35 -39.7306 10
      vertex 12.7306 -34.35 0
    endloop
  endfacet
  facet normal 0.965926 -0.258819 0
    outer loop
      vertex 12.7306 -34.35 10
      vertex 12.7306 -34.35 0
      vertex 14.7 -27 0
    endloop
  endfacet
  facet normal 0.965926 -0.258819 0
    outer loop
      vertex 14.7 -27 10
      vertex 12.7306 -34.35 10
      vertex 14.7 -27 0
    endloop
  endfacet
  facet normal 0.965926 0.258819 0
    outer loop
      vertex 14.7 -27 0
      vertex 12.7306 -19.65 0
      vertex 12.7306 -19.65 10
    endloop
  endfacet
  facet normal 0.965926 0.258819 -0
    outer loop
      vertex 14.7 -27 10
      vertex 14.7 -27 0
      vertex 12.7306 -19.65 10
    endloop
  endfacet
  facet normal 0.707107 0.707107 0
    outer loop
      vertex 7.35 -14.2694 0
      vertex 7.35 -14.2694 10
      vertex 12.7306 -19.65 0
    endloop
  endfacet
  facet normal 0.707107 0.707107 0
    outer loop
      vertex 12.7306 -19.65 0
      vertex 7.35 -14.2694 10
      vertex 12.7306 -19.65 10
    endloop
  endfacet
  facet normal 0.258819 0.965926 0
    outer loop
      vertex 0 -12.3 0
      vertex 0 -12.3 10
      vertex 7.35 -14.2694 0
    endloop
  endfacet
  facet normal 0.258819 0.965926 0
    outer loop
      vertex 7.35 -14.2694 0
      vertex 0 -12.3 10
      vertex 7.35 -14.2694 10
    endloop
  endfacet
  facet normal -0.258819 0.965926 0
    outer loop
      vertex -7.35 -14.2694 0
      vertex -7.35 -14.2694 10
      vertex 0 -12.3 0
    endloop
  endfacet
  facet normal -0.258819 0.965926 0
    outer loop
      vertex 0 -12.3 0
      vertex -7.35 -14.2694 10
      vertex 0 -12.3 10
    endloop
  endfacet
  facet normal -0.707107 0.707107 0
    outer loop
      vertex -12.7306 -19.65 0
      vertex -12.7306 -19.65 10
      vertex -7.35 -14.2694 0
    endloop
  endfacet
  facet normal -0.707107 0.707107 0
    outer loop
      vertex -7.35 -14.2694 0
      vertex -12.7306 -19.65 10
      vertex -7.35 -14.2694 10
    endloop
  endfacet
  facet normal 0.965926 -0.258819 0
    outer loop
      vertex -12.5141 -19.775 0
      vertex -12.5141 -19.775 10
      vertex -14.45 -27 10
    endloop
  endfacet
  facet normal 0.965926 -0.258819 0
    outer loop
      vertex -14.45 -27 0
      vertex -12.5141 -19.775 0
      vertex -14.45 -27 10
    endloop
  endfacet
  facet normal 0.965926 0.258819 0
    outer loop
      vertex -14.45 -27 10
      vertex -12.5141 -34.225 10
      vertex -12.5141 -34.225 0
    endloop
  endfacet
  facet normal 0.965926 0.258819 0
    outer loop
      vertex -14.45 -27 0
      vertex -14.45 -27 10
      vertex -12.5141 -34.225 0
    endloop
  endfacet
  facet normal 0.707107 -0.707107 0
    outer loop
      vertex -7.225 -14.4859 0
      vertex -7.225 -14.4859 10
      vertex -12.5141 -19.775 10
    endloop
  endfacet
  facet normal 0.707107 -0.707107 0
    outer loop
      vertex -12.5141 -19.775 0
      vertex -7.225 -14.4859 0
      vertex -12.5141 -19.775 10
    endloop
  endfacet
  facet normal 0.258819 -0.965926 0
    outer loop
      vertex 0 -12.55 0
      vertex 0 -12.55 10
      vertex -7.225 -14.4859 10
    endloop
  endfacet
  facet normal 0.258819 -0.965926 0
    outer loop
      vertex -7.225 -14.4859 0
      vertex 0 -12.55 0
      vertex -7.225 -14.4859 10
    endloop
  endfacet
  facet normal -0.258819 -0.965926 -0
    outer loop
      vertex 7.225 -14.4859 0
      vertex 7.225 -14.4859 10
      vertex 0 -12.55 10
    endloop
  endfacet
  facet normal -0.258819 -0.965926 -0
    outer loop
      vertex 0 -12.55 0
      vertex 7.225 -14.4859 0
      vertex 0 -12.55 10
    endloop
  endfacet
  facet normal -0.707107 -0.707107 -0
    outer loop
      vertex 12.5141 -19.775 0
      vertex 12.5141 -19.775 10
      vertex 7.225 -14.4859 10
    endloop
  endfacet
  facet normal -0.707107 -0.707107 -0
    outer loop
      vertex 7.225 -14.4859 0
      vertex 12.5141 -19.775 0
      vertex 7.225 -14.4859 10
    endloop
  endfacet
  facet normal -0.965926 -0.258819 0
    outer loop
      vertex 14.45 -27 10
      vertex 12.5141 -19.775 10
      vertex 14.45 -27 0
    endloop
  endfacet
  facet normal -0.965926 -0.258819 0
    outer loop
      vertex 14.45 -27 0
      vertex 12.5141 -19.775 10
      vertex 12.5141 -19.775 0
    endloop
  endfacet
  facet normal -0.965926 0.258819 0
    outer loop
      vertex 14.45 -27 10
      vertex 14.45 -27 0
      vertex 12.5141 -34.225 10
    endloop
  endfacet
  facet normal -0.965926 0.258819 0
    outer loop
      vertex 12.5141 -34.225 10
      vertex 14.45 -27 0
      vertex 12.5141 -34.225 0
    endloop
  endfacet
  facet normal -0.707107 0.707107 0
    outer loop
      vertex 12.5141 -34.225 10
      vertex 12.5141 -34.225 0
      vertex 7.225 -39.5141 10
    endloop
  endfacet
  facet normal -0.707107 0.707107 0
    outer loop
      vertex 7.225 -39.5141 10
      vertex 12.5141 -34.225 0
      vertex 7.225 -39.5141 0
    endloop
  endfacet
  facet normal -0.258819 0.965926 0
    outer loop
      vertex 7.225 -39.5141 10
      vertex 7.225 -39.5141 0
      vertex 0 -41.45 10
    endloop
  endfacet
  facet normal -0.258819 0.965926 0
    outer loop
      vertex 0 -41.45 10
      vertex 7.225 -39.5141 0
      vertex 0 -41.45 0
    endloop
  endfacet
  facet normal 0.258819 0.965926 -0
    outer loop
      vertex 0 -41.45 10
      vertex 0 -41.45 0
      vertex -7.225 -39.5141 10
    endloop
  endfacet
  facet normal 0.258819 0.965926 -0
    outer loop
      vertex -7.225 -39.5141 10
      vertex 0 -41.45 0
      vertex -7.225 -39.5141 0
    endloop
  endfacet
  facet normal 0.707107 0.707107 -0
    outer loop
      vertex -7.225 -39.5141 10
      vertex -7.225 -39.5141 0
      vertex -12.5141 -34.225 10
    endloop
  endfacet
  facet normal 0.707107 0.707107 -0
    outer loop
      vertex -12.5141 -34.225 10
      vertex -7.225 -39.5141 0
      vertex -12.5141 -34.225 0
    endloop
  endfacet
  facet normal 0 -0 1
    outer loop
      vertex -14.45 -27 10
      vertex -14.7 -27 10
      vertex -12.7306 -34.35 10
    endloop
  endfacet
  facet normal -0 0 1
    outer loop
      vertex -12.5141 -34.225 10
      vertex -14.45 -27 10
      vertex -12.7306 -34.35 10
    endloop
  endfacet
  facet normal 0 0 1
    outer loop
      vertex -7.225 -14.4859 10
      vertex 0 -12.55 10
      vertex 0 -12.3 10
    endloop
  endfacet
  facet normal 0 0 1
    outer loop
      vertex -7.35 -39.7306 10
      vertex -12.5141 -34.225 10
      vertex -12.7306 -34.35 10
    endloop
  endfacet
  facet normal 0 -0 1
    outer loop
      vertex 12.5141 -34.225 10
      vertex 7.225 -39.5141 10
      vertex 12.7306 -34.35 10
    endloop
  endfacet
  facet normal 0 0 1
    outer loop
      vertex -12.7306 -19.65 10
      vertex -14.7 -27 10
      vertex -14.45 -27 10
    endloop
  endfacet
  facet normal -0 0 1
    outer loop
      vertex 0 -41.45 10
      vertex -7.225 -39.5141 10
      vertex 0 -41.7 10
    endloop
  endfacet
  facet normal 0 0 1
    outer loop
      vertex -7.35 -14.2694 10
      vertex -7.225 -14.4859 10
      vertex 0 -12.3 10
    endloop
  endfacet
  facet normal 0 -0 1
    outer loop
      vertex -7.35 -14.2694 10
      vertex -12.7306 -19.65 10
      vertex -7.225 -14.4859 10
    endloop
  endfacet
  facet normal 0 -0 1
    outer loop
      vertex 0 -12.3 10
      vertex 0 -12.55 10
      vertex 7.35 -14.2694 10
    endloop
  endfacet
  facet normal 0 0 1
    outer loop
      vertex 0 -12.55 10
      vertex 7.225 -14.4859 10
      vertex 7.35 -14.2694 10
    endloop
  endfacet
  facet normal 0 -0 1
    outer loop
      vertex 7.35 -14.2694 10
      vertex 7.225 -14.4859 10
      vertex 12.7306 -19.65 10
    endloop
  endfacet
  facet normal 0 -0 1
    outer loop
      vertex 12.7306 -19.65 10
      vertex 12.5141 -19.775 10
      vertex 14.7 -27 10
    endloop
  endfacet
  facet normal 0 0 1
    outer loop
      vertex 14.7 -27 10
      vertex 14.45 -27 10
      vertex 12.7306 -34.35 10
    endloop
  endfacet
  facet normal 0 0 1
    outer loop
      vertex 14.45 -27 10
      vertex 12.5141 -34.225 10
      vertex 12.7306 -34.35 10
    endloop
  endfacet
  facet normal 0 0 1
    outer loop
      vertex 12.7306 -34.35 10
      vertex 7.225 -39.5141 10
      vertex 7.35 -39.7306 10
    endloop
  endfacet
  facet normal 0 0 1
    outer loop
      vertex 7.35 -39.7306 10
      vertex 0 -41.45 10
      vertex 0 -41.7 10
    endloop
  endfacet
  facet normal 0 0 1
    outer loop
      vertex 7.225 -14.4859 10
      vertex 12.5141 -19.775 10
      vertex 12.7306 -19.65 10
    endloop
  endfacet
  facet normal 0 0 1
    outer loop
      vertex 0 -41.7 10
      vertex -7.225 -39.5141 10
      vertex -7.35 -39.7306 10
    endloop
  endfacet
  facet normal 0 0 1
    outer loop
      vertex 12.5141 -19.775 10
      vertex 14.45 -27 10
      vertex 14.7 -27 10
    endloop
  endfacet
  facet normal -0 0 1
    outer loop
      vertex -7.225 -39.5141 10
      vertex -12.5141 -34.225 10
      vertex -7.35 -39.7306 10
    endloop
  endfacet
  facet normal 0 0 1
    outer loop
      vertex -14.45 -27 10
      vertex -12.5141 -19.775 10
      vertex -12.7306 -19.65 10
    endloop
  endfacet
  facet normal 0 -0 1
    outer loop
      vertex 7.225 -39.5141 10
      vertex 0 -41.45 10
      vertex 7.35 -39.7306 10
    endloop
  endfacet
  facet normal 0 0 1
    outer loop
      vertex -12.5141 -19.775 10
      vertex -7.225 -14.4859 10
      vertex -12.7306 -19.65 10
    endloop
  endfacet
endsolid OpenSCAD_Model
