999
DXF created by Inkscape
  0
SECTION
  2
HEADER
  9
$ACADVER
  1
AC1014
  9
$HANDSEED
  5
FFFF
  9
$MEASUREMENT
 70
     1
  0
ENDSEC
  0
SECTION
  2
TABLES
  0
TABLE
  2
VPORT
  5
8
330
0
100
AcDbSymbolTable
 70
     4
  0
VPORT
  5
2E
330
8
100
AcDbSymbolTableRecord
100
AcDbViewportTableRecord
  2
*ACTIVE
 70
     0
 10
0.0
 20
0.0
 11
1.0
 21
1.0
 12
210.0
 22
148.5
 13
0.0
 23
0.0
 14
10.0
 24
10.0
 15
10.0
 25
10.0
 16
0.0
 26
0.0
 36
1.0
 17
0.0
 27
0.0
 37
0.0
 40
341.0
 41
1.24
 42
50.0
 43
0.0
 44
0.0
 50
0.0
 51
0.0
 71
     0
 72
   100
 73
     1
 74
     3
 75
     0
 76
     0
 77
     0
 78
     0
  0
ENDTAB
  0
TABLE
  2
LTYPE
  5
5
330
0
100
AcDbSymbolTable
 70
     1
  0
LTYPE
  5
14
330
5
100
AcDbSymbolTableRecord
100
AcDbLinetypeTableRecord
  2
BYBLOCK
 70
     0
  3

 72
    65
 73
     0
 40
0.0
  0
LTYPE
  5
15
330
5
100
AcDbSymbolTableRecord
100
AcDbLinetypeTableRecord
  2
BYLAYER
 70
     0
  3

 72
    65
 73
     0
 40
0.0
  0
LTYPE
  5
16
330
5
100
AcDbSymbolTableRecord
100
AcDbLinetypeTableRecord
  2
CONTINUOUS
 70
     0
  3
Solid line
 72
    65
 73
     0
 40
0.0
  0
ENDTAB
  0
TABLE
  2
LAYER
  5
2
330
0
100
AcDbSymbolTable
 70
1
  0
LAYER
  5
10
330
2
100
AcDbSymbolTableRecord
100
AcDbLayerTableRecord
  2
0
 70
     0
 62
     7
  6
CONTINUOUS
  0
ENDTAB
  0
TABLE
  2
STYLE
  5
3
330
0
100
AcDbSymbolTable
 70
     1
  0
STYLE
  5
11
330
3
100
AcDbSymbolTableRecord
100
AcDbTextStyleTableRecord
  2
STANDARD
 70
     0
 40
0.0
 41
1.0
 50
0.0
 71
     0
 42
2.5
  3
txt
  4

  0
ENDTAB
  0
TABLE
  2
VIEW
  5
6
330
0
100
AcDbSymbolTable
 70
     0
  0
ENDTAB
  0
TABLE
  2
UCS
  5
7
330
0
100
AcDbSymbolTable
 70
     0
  0
ENDTAB
  0
TABLE
  2
APPID
  5
9
330
0
100
AcDbSymbolTable
 70
     2
  0
APPID
  5
12
330
9
100
AcDbSymbolTableRecord
100
AcDbRegAppTableRecord
  2
ACAD
 70
     0
  0
ENDTAB
  0
TABLE
  2
DIMSTYLE
  5
A
330
0
100
AcDbSymbolTable
 70
     1
  0
DIMSTYLE
105
27
330
A
100
AcDbSymbolTableRecord
100
AcDbDimStyleTableRecord
  2
ISO-25
 70
     0
  3

  4

  5

  6

  7

 40
1.0
 41
2.5
 42
0.625
 43
3.75
 44
1.25
 45
0.0
 46
0.0
 47
0.0
 48
0.0
140
2.5
141
2.5
142
0.0
143
0.03937007874016
144
1.0
145
0.0
146
1.0
147
0.625
 71
     0
 72
     0
 73
     0
 74
     0
 75
     0
 76
     0
 77
     1
 78
     8
170
     0
171
     3
172
     1
173
     0
174
     0
175
     0
176
     0
177
     0
178
     0
270
     2
271
     2
272
     2
273
     2
274
     3
340
11
275
     0
280
     0
281
     0
282
     0
283
     0
284
     8
285
     0
286
     0
287
     3
288
     0
  0
ENDTAB
  0
TABLE
  2
BLOCK_RECORD
  5
1
330
0
100
AcDbSymbolTable
 70
     1
  0
BLOCK_RECORD
  5
1F
330
1
100
AcDbSymbolTableRecord
100
AcDbBlockTableRecord
  2
*MODEL_SPACE
  0
BLOCK_RECORD
  5
1B
330
1
100
AcDbSymbolTableRecord
100
AcDbBlockTableRecord
  2
*PAPER_SPACE
  0
ENDTAB
  0
ENDSEC
  0
SECTION
  2
BLOCKS
  0
BLOCK
  5
20
330
1F
100
AcDbEntity
  8
0
100
AcDbBlockBegin
  2
*MODEL_SPACE
 70
     0
 10
0.0
 20
0.0
 30
0.0
  3
*MODEL_SPACE
  1

  0
ENDBLK
  5
21
330
1F
100
AcDbEntity
  8
0
100
AcDbBlockEnd
  0
BLOCK
  5
1C
330
1B
100
AcDbEntity
 67
     1
  8
0
100
AcDbBlockBegin
  2
*PAPER_SPACE
  1

  0
ENDBLK
  5
1D
330
1B
100
AcDbEntity
 67
     1
  8
0
100
AcDbBlockEnd
  0
ENDSEC
  0
SECTION
  2
ENTITIES
  0
LWPOLYLINE
  5
100
100
AcDbEntity
  8
0
 62
7
100
AcDbPolyline
 90
43
 70
0
 10
2.979329
 20
0.340220
 30
0.0
 10
2.193105
 20
0.567296
 30
0.0
 10
1.139416
 20
1.361272
 30
0.0
 10
0.518570
 20
2.241805
 30
0.0
 10
0.264873
 20
3.155359
 30
0.0
 10
0.011173
 20
4.068912
 30
0.0
 10
0.009718
 20
20.461327
 30
0.0
 10
0.033462
 20
36.727744
 30
0.0
 10
0.729900
 20
37.380566
 30
0.0
 10
2.953160
 20
37.397104
 30
0.0
 10
5.176418
 20
37.380566
 30
0.0
 10
5.340898
 20
34.973956
 30
0.0
 10
5.462094
 20
32.671228
 30
0.0
 10
8.734393
 20
32.671228
 30
0.0
 10
12.006690
 20
32.671228
 30
0.0
 10
12.077876
 20
34.719484
 30
0.0
 10
12.149060
 20
36.767740
 30
0.0
 10
12.672031
 20
37.397880
 30
0.0
 10
14.915400
 20
37.397880
 30
0.0
 10
17.158769
 20
37.397880
 30
0.0
 10
17.681741
 20
36.767740
 30
0.0
 10
17.752924
 20
34.719484
 30
0.0
 10
17.824110
 20
32.671228
 30
0.0
 10
20.975212
 20
32.671228
 30
0.0
 10
24.126314
 20
32.671228
 30
0.0
 10
24.197500
 20
34.719484
 30
0.0
 10
24.268684
 20
36.767740
 30
0.0
 10
24.791655
 20
37.397880
 30
0.0
 10
27.047391
 20
37.397880
 30
0.0
 10
29.303125
 20
37.397880
 30
0.0
 10
30.064930
 20
36.636075
 30
0.0
 10
30.054290
 20
20.231302
 30
0.0
 10
30.043651
 20
3.826511
 30
0.0
 10
29.713750
 20
2.901500
 30
0.0
 10
29.378825
 20
2.147882
 30
0.0
 10
28.830089
 20
1.465525
 30
0.0
 10
28.281348
 20
0.925690
 30
0.0
 10
27.590064
 20
0.528434
 30
0.0
 10
26.690752
 20
0.069428
 30
0.0
 10
15.228050
 20
0.091159
 30
0.0
 10
3.765350
 20
0.113172
 30
0.0
 10
2.979332
 20
0.340248
 30
0.0
 10
2.979329
 20
0.340220
 30
0.0
  0
LWPOLYLINE
  5
101
100
AcDbEntity
  8
0
 62
7
100
AcDbPolyline
 90
18
 70
0
 10
26.074920
 20
1.918294
 30
0.0
 10
26.957934
 20
2.229331
 30
0.0
 10
27.540391
 20
2.854030
 30
0.0
 10
27.848918
 20
3.579539
 30
0.0
 10
27.949712
 20
4.484908
 30
0.0
 10
27.690005
 20
5.404500
 30
0.0
 10
27.185657
 20
6.173754
 30
0.0
 10
26.508170
 20
6.726570
 30
0.0
 10
25.709654
 20
6.856421
 30
0.0
 10
24.521851
 20
6.710314
 30
0.0
 10
23.786293
 20
6.304479
 30
0.0
 10
23.296537
 20
5.671229
 30
0.0
 10
22.979914
 20
4.605162
 30
0.0
 10
23.090290
 20
3.658871
 30
0.0
 10
23.546945
 20
2.842431
 30
0.0
 10
24.321518
 20
2.240281
 30
0.0
 10
25.147822
 20
1.928115
 30
0.0
 10
26.074920
 20
1.918294
 30
0.0
  0
ENDSEC
  0
SECTION
  2
OBJECTS
  0
DICTIONARY
  5
C
330
0
100
AcDbDictionary
  3
ACAD_GROUP
350
D
  3
ACAD_MLINESTYLE
350
17
  0
DICTIONARY
  5
D
330
C
100
AcDbDictionary
  0
DICTIONARY
  5
1A
330
C
100
AcDbDictionary
  0
DICTIONARY
  5
17
330
C
100
AcDbDictionary
  3
STANDARD
350
18
  0
DICTIONARY
  5
19
330
C
100
AcDbDictionary
  0
ENDSEC
  0
EOF
