999
DXF created by Inkscape
  0
SECTION
  2
HEADER
  9
$ACADVER
  1
AC1014
  9
$HANDSEED
  5
FFFF
  9
$MEASUREMENT
 70
     1
  0
ENDSEC
  0
SECTION
  2
TABLES
  0
TABLE
  2
VPORT
  5
8
330
0
100
AcDbSymbolTable
 70
     4
  0
VPORT
  5
2E
330
8
100
AcDbSymbolTableRecord
100
AcDbViewportTableRecord
  2
*ACTIVE
 70
     0
 10
0.0
 20
0.0
 11
1.0
 21
1.0
 12
210.0
 22
148.5
 13
0.0
 23
0.0
 14
10.0
 24
10.0
 15
10.0
 25
10.0
 16
0.0
 26
0.0
 36
1.0
 17
0.0
 27
0.0
 37
0.0
 40
341.0
 41
1.24
 42
50.0
 43
0.0
 44
0.0
 50
0.0
 51
0.0
 71
     0
 72
   100
 73
     1
 74
     3
 75
     0
 76
     0
 77
     0
 78
     0
  0
ENDTAB
  0
TABLE
  2
LTYPE
  5
5
330
0
100
AcDbSymbolTable
 70
     1
  0
LTYPE
  5
14
330
5
100
AcDbSymbolTableRecord
100
AcDbLinetypeTableRecord
  2
BYBLOCK
 70
     0
  3

 72
    65
 73
     0
 40
0.0
  0
LTYPE
  5
15
330
5
100
AcDbSymbolTableRecord
100
AcDbLinetypeTableRecord
  2
BYLAYER
 70
     0
  3

 72
    65
 73
     0
 40
0.0
  0
LTYPE
  5
16
330
5
100
AcDbSymbolTableRecord
100
AcDbLinetypeTableRecord
  2
CONTINUOUS
 70
     0
  3
Solid line
 72
    65
 73
     0
 40
0.0
  0
ENDTAB
  0
TABLE
  2
LAYER
  5
2
330
0
100
AcDbSymbolTable
 70
1
  0
LAYER
  5
10
330
2
100
AcDbSymbolTableRecord
100
AcDbLayerTableRecord
  2
0
 70
     0
 62
     7
  6
CONTINUOUS
  0
ENDTAB
  0
TABLE
  2
STYLE
  5
3
330
0
100
AcDbSymbolTable
 70
     1
  0
STYLE
  5
11
330
3
100
AcDbSymbolTableRecord
100
AcDbTextStyleTableRecord
  2
STANDARD
 70
     0
 40
0.0
 41
1.0
 50
0.0
 71
     0
 42
2.5
  3
txt
  4

  0
ENDTAB
  0
TABLE
  2
VIEW
  5
6
330
0
100
AcDbSymbolTable
 70
     0
  0
ENDTAB
  0
TABLE
  2
UCS
  5
7
330
0
100
AcDbSymbolTable
 70
     0
  0
ENDTAB
  0
TABLE
  2
APPID
  5
9
330
0
100
AcDbSymbolTable
 70
     2
  0
APPID
  5
12
330
9
100
AcDbSymbolTableRecord
100
AcDbRegAppTableRecord
  2
ACAD
 70
     0
  0
ENDTAB
  0
TABLE
  2
DIMSTYLE
  5
A
330
0
100
AcDbSymbolTable
 70
     1
  0
DIMSTYLE
105
27
330
A
100
AcDbSymbolTableRecord
100
AcDbDimStyleTableRecord
  2
ISO-25
 70
     0
  3

  4

  5

  6

  7

 40
1.0
 41
2.5
 42
0.625
 43
3.75
 44
1.25
 45
0.0
 46
0.0
 47
0.0
 48
0.0
140
2.5
141
2.5
142
0.0
143
0.03937007874016
144
1.0
145
0.0
146
1.0
147
0.625
 71
     0
 72
     0
 73
     0
 74
     0
 75
     0
 76
     0
 77
     1
 78
     8
170
     0
171
     3
172
     1
173
     0
174
     0
175
     0
176
     0
177
     0
178
     0
270
     2
271
     2
272
     2
273
     2
274
     3
340
11
275
     0
280
     0
281
     0
282
     0
283
     0
284
     8
285
     0
286
     0
287
     3
288
     0
  0
ENDTAB
  0
TABLE
  2
BLOCK_RECORD
  5
1
330
0
100
AcDbSymbolTable
 70
     1
  0
BLOCK_RECORD
  5
1F
330
1
100
AcDbSymbolTableRecord
100
AcDbBlockTableRecord
  2
*MODEL_SPACE
  0
BLOCK_RECORD
  5
1B
330
1
100
AcDbSymbolTableRecord
100
AcDbBlockTableRecord
  2
*PAPER_SPACE
  0
ENDTAB
  0
ENDSEC
  0
SECTION
  2
BLOCKS
  0
BLOCK
  5
20
330
1F
100
AcDbEntity
  8
0
100
AcDbBlockBegin
  2
*MODEL_SPACE
 70
     0
 10
0.0
 20
0.0
 30
0.0
  3
*MODEL_SPACE
  1

  0
ENDBLK
  5
21
330
1F
100
AcDbEntity
  8
0
100
AcDbBlockEnd
  0
BLOCK
  5
1C
330
1B
100
AcDbEntity
 67
     1
  8
0
100
AcDbBlockBegin
  2
*PAPER_SPACE
  1

  0
ENDBLK
  5
1D
330
1B
100
AcDbEntity
 67
     1
  8
0
100
AcDbBlockEnd
  0
ENDSEC
  0
SECTION
  2
ENTITIES
  0
LWPOLYLINE
  5
100
100
AcDbEntity
  8
0
 62
7
100
AcDbPolyline
 90
43
 70
0
 10
2.729852
 20
0.317473
 30
0.0
 10
2.009679
 20
0.525471
 30
0.0
 10
1.044510
 20
1.252758
 30
0.0
 10
0.475822
 20
2.059292
 30
0.0
 10
0.243437
 20
2.896109
 30
0.0
 10
0.011050
 20
3.732926
 30
0.0
 10
0.009718
 20
18.748204
 30
0.0
 10
0.031468
 20
33.648078
 30
0.0
 10
0.669398
 20
34.246059
 30
0.0
 10
2.705882
 20
34.261215
 30
0.0
 10
4.742363
 20
34.246059
 30
0.0
 10
4.893026
 20
32.041627
 30
0.0
 10
5.004040
 20
29.932352
 30
0.0
 10
8.001433
 20
29.932352
 30
0.0
 10
10.998825
 20
29.932352
 30
0.0
 10
11.064031
 20
31.808534
 30
0.0
 10
11.129234
 20
33.684717
 30
0.0
 10
11.608270
 20
34.261917
 30
0.0
 10
13.663174
 20
34.261917
 30
0.0
 10
15.718078
 20
34.261917
 30
0.0
 10
16.197114
 20
33.684717
 30
0.0
 10
16.262318
 20
31.808534
 30
0.0
 10
16.327523
 20
29.932352
 30
0.0
 10
19.213901
 20
29.932352
 30
0.0
 10
22.100280
 20
29.932352
 30
0.0
 10
22.165485
 20
31.808534
 30
0.0
 10
22.230688
 20
33.684717
 30
0.0
 10
22.709725
 20
34.261917
 30
0.0
 10
24.775957
 20
34.261917
 30
0.0
 10
26.842186
 20
34.261917
 30
0.0
 10
27.539992
 20
33.564112
 30
0.0
 10
27.530247
 20
18.537503
 30
0.0
 10
27.520502
 20
3.510874
 30
0.0
 10
27.218316
 20
2.663586
 30
0.0
 10
26.911529
 20
1.973271
 30
0.0
 10
26.408892
 20
1.348233
 30
0.0
 10
25.906250
 20
0.853752
 30
0.0
 10
25.273041
 20
0.489883
 30
0.0
 10
24.449281
 20
0.069428
 30
0.0
 10
13.949560
 20
0.089466
 30
0.0
 10
3.449841
 20
0.109504
 30
0.0
 10
2.729856
 20
0.317501
 30
0.0
 10
2.729852
 20
0.317473
 30
0.0
  0
LWPOLYLINE
  5
101
100
AcDbEntity
  8
0
 62
7
100
AcDbPolyline
 90
18
 70
0
 10
23.885183
 20
1.762959
 30
0.0
 10
24.694015
 20
2.047890
 30
0.0
 10
25.227540
 20
2.620096
 30
0.0
 10
25.510147
 20
3.284645
 30
0.0
 10
25.602473
 20
4.113955
 30
0.0
 10
25.364585
 20
4.956303
 30
0.0
 10
24.902607
 20
5.660928
 30
0.0
 10
24.282035
 20
6.167291
 30
0.0
 10
23.550603
 20
6.286247
 30
0.0
 10
22.462587
 20
6.152418
 30
0.0
 10
21.788824
 20
5.780674
 30
0.0
 10
21.340212
 20
5.200623
 30
0.0
 10
21.050188
 20
4.224106
 30
0.0
 10
21.151292
 20
3.357317
 30
0.0
 10
21.569583
 20
2.609484
 30
0.0
 10
22.279084
 20
2.057909
 30
0.0
 10
23.035971
 20
1.771962
 30
0.0
 10
23.885183
 20
1.762959
 30
0.0
  0
ENDSEC
  0
SECTION
  2
OBJECTS
  0
DICTIONARY
  5
C
330
0
100
AcDbDictionary
  3
ACAD_GROUP
350
D
  3
ACAD_MLINESTYLE
350
17
  0
DICTIONARY
  5
D
330
C
100
AcDbDictionary
  0
DICTIONARY
  5
1A
330
C
100
AcDbDictionary
  0
DICTIONARY
  5
17
330
C
100
AcDbDictionary
  3
STANDARD
350
18
  0
DICTIONARY
  5
19
330
C
100
AcDbDictionary
  0
ENDSEC
  0
EOF
