solid OpenSCAD_Model
  facet normal -0.277464 -0.960736 0
    outer loop
      vertex 2.979 0.34 0
      vertex 3.765 0.113 0
      vertex 3.765 0.113 5
    endloop
  endfacet
  facet normal -0.277464 -0.960736 0
    outer loop
      vertex 2.979 0.34 5
      vertex 2.979 0.34 0
      vertex 3.765 0.113 5
    endloop
  endfacet
  facet normal -0 0 -1
    outer loop
      vertex 0.033 36.728 0
      vertex 0.73 37.381 0
      vertex 0.01 20.461 0
    endloop
  endfacet
  facet normal 0 0 -1
    outer loop
      vertex 0.01 20.461 0
      vertex 0.73 37.381 0
      vertex 2.953 37.397 0
    endloop
  endfacet
  facet normal 0 0 -1
    outer loop
      vertex 0.01 20.461 0
      vertex 2.953 37.397 0
      vertex 5.176 37.381 0
    endloop
  endfacet
  facet normal 0 0 -1
    outer loop
      vertex 0.01 20.461 0
      vertex 5.176 37.381 0
      vertex 5.341 34.974 0
    endloop
  endfacet
  facet normal 0 0 -1
    outer loop
      vertex 0.01 20.461 0
      vertex 5.341 34.974 0
      vertex 5.462 32.671 0
    endloop
  endfacet
  facet normal 0 0 -1
    outer loop
      vertex 0.01 20.461 0
      vertex 5.462 32.671 0
      vertex 12.007 32.671 0
    endloop
  endfacet
  facet normal 0 0 -1
    outer loop
      vertex 12.078 34.719 0
      vertex 12.149 36.768 0
      vertex 12.672 37.398 0
    endloop
  endfacet
  facet normal -0 0 -1
    outer loop
      vertex 12.078 34.719 0
      vertex 12.672 37.398 0
      vertex 12.007 32.671 0
    endloop
  endfacet
  facet normal 0 0 -1
    outer loop
      vertex 12.007 32.671 0
      vertex 12.672 37.398 0
      vertex 17.159 37.398 0
    endloop
  endfacet
  facet normal -0 0 -1
    outer loop
      vertex 12.007 32.671 0
      vertex 17.159 37.398 0
      vertex 0.01 20.461 0
    endloop
  endfacet
  facet normal 0 0 -1
    outer loop
      vertex 0.01 20.461 0
      vertex 17.159 37.398 0
      vertex 17.682 36.768 0
    endloop
  endfacet
  facet normal 0 0 -1
    outer loop
      vertex 0.01 20.461 0
      vertex 17.682 36.768 0
      vertex 17.753 34.719 0
    endloop
  endfacet
  facet normal 0 0 -1
    outer loop
      vertex 0.01 20.461 0
      vertex 17.753 34.719 0
      vertex 17.824 32.671 0
    endloop
  endfacet
  facet normal 0 0 -1
    outer loop
      vertex 17.824 32.671 0
      vertex 24.126 32.671 0
      vertex 0.01 20.461 0
    endloop
  endfacet
  facet normal 0 0 -1
    outer loop
      vertex 24.198 34.719 0
      vertex 24.269 36.768 0
      vertex 24.792 37.398 0
    endloop
  endfacet
  facet normal -0 0 -1
    outer loop
      vertex 24.198 34.719 0
      vertex 24.792 37.398 0
      vertex 24.126 32.671 0
    endloop
  endfacet
  facet normal 0 0 -1
    outer loop
      vertex 24.126 32.671 0
      vertex 24.792 37.398 0
      vertex 29.303 37.398 0
    endloop
  endfacet
  facet normal 0 0 -1
    outer loop
      vertex 24.126 32.671 0
      vertex 29.303 37.398 0
      vertex 30.065 36.636 0
    endloop
  endfacet
  facet normal -0 0 -1
    outer loop
      vertex 24.126 32.671 0
      vertex 30.065 36.636 0
      vertex 30.054 20.231 0
    endloop
  endfacet
  facet normal 0 0 -1
    outer loop
      vertex 24.126 32.671 0
      vertex 30.054 20.231 0
      vertex 0.01 20.461 0
    endloop
  endfacet
  facet normal -0 0 -1
    outer loop
      vertex 27.69 5.404 0
      vertex 30.054 20.231 0
      vertex 30.044 3.827 0
    endloop
  endfacet
  facet normal 0 0 -1
    outer loop
      vertex 27.95 4.485 0
      vertex 30.044 3.827 0
      vertex 29.714 2.902 0
    endloop
  endfacet
  facet normal 0 0 -1
    outer loop
      vertex 27.849 3.58 0
      vertex 29.714 2.902 0
      vertex 29.379 2.148 0
    endloop
  endfacet
  facet normal 0 0 -1
    outer loop
      vertex 27.54 2.854 0
      vertex 29.379 2.148 0
      vertex 28.83 1.466 0
    endloop
  endfacet
  facet normal 0 0 -1
    outer loop
      vertex 26.958 2.229 0
      vertex 28.83 1.466 0
      vertex 28.281 0.926 0
    endloop
  endfacet
  facet normal 0 0 -1
    outer loop
      vertex 26.075 1.918 0
      vertex 28.281 0.926 0
      vertex 27.59 0.528 0
    endloop
  endfacet
  facet normal 0 0 -1
    outer loop
      vertex 25.148 1.928 0
      vertex 27.59 0.528 0
      vertex 26.691 0.069 0
    endloop
  endfacet
  facet normal 0 0 -1
    outer loop
      vertex 0.01 20.461 0
      vertex 26.691 0.069 0
      vertex 15.228 0.091 0
    endloop
  endfacet
  facet normal 0 0 -1
    outer loop
      vertex 0.01 20.461 0
      vertex 15.228 0.091 0
      vertex 3.765 0.113 0
    endloop
  endfacet
  facet normal 0 0 -1
    outer loop
      vertex 0.01 20.461 0
      vertex 3.765 0.113 0
      vertex 2.979 0.34 0
    endloop
  endfacet
  facet normal 0 0 -1
    outer loop
      vertex 0.01 20.461 0
      vertex 2.979 0.34 0
      vertex 2.193 0.567 0
    endloop
  endfacet
  facet normal 0 0 -1
    outer loop
      vertex 0.01 20.461 0
      vertex 2.193 0.567 0
      vertex 1.139 1.361 0
    endloop
  endfacet
  facet normal 0 0 -1
    outer loop
      vertex 0.01 20.461 0
      vertex 1.139 1.361 0
      vertex 0.519 2.242 0
    endloop
  endfacet
  facet normal 0 0 -1
    outer loop
      vertex 0.01 20.461 0
      vertex 0.519 2.242 0
      vertex 0.265 3.155 0
    endloop
  endfacet
  facet normal 0 0 -1
    outer loop
      vertex 0.01 20.461 0
      vertex 0.265 3.155 0
      vertex 0.011 4.069 0
    endloop
  endfacet
  facet normal 0 0 -1
    outer loop
      vertex 23.09 3.659 0
      vertex 0.01 20.461 0
      vertex 22.98 4.605 0
    endloop
  endfacet
  facet normal 0 0 -1
    outer loop
      vertex 25.148 1.928 0
      vertex 26.691 0.069 0
      vertex 24.322 2.24 0
    endloop
  endfacet
  facet normal 0 0 -1
    outer loop
      vertex 0.01 20.461 0
      vertex 23.09 3.659 0
      vertex 23.547 2.842 0
    endloop
  endfacet
  facet normal 0 0 -1
    outer loop
      vertex 0.01 20.461 0
      vertex 23.547 2.842 0
      vertex 26.691 0.069 0
    endloop
  endfacet
  facet normal 0 0 -1
    outer loop
      vertex 23.547 2.842 0
      vertex 24.322 2.24 0
      vertex 26.691 0.069 0
    endloop
  endfacet
  facet normal 0 0 -1
    outer loop
      vertex 26.075 1.918 0
      vertex 27.59 0.528 0
      vertex 25.148 1.928 0
    endloop
  endfacet
  facet normal 0 0 -1
    outer loop
      vertex 27.54 2.854 0
      vertex 28.83 1.466 0
      vertex 26.958 2.229 0
    endloop
  endfacet
  facet normal 0 0 -1
    outer loop
      vertex 27.95 4.485 0
      vertex 29.714 2.902 0
      vertex 27.849 3.58 0
    endloop
  endfacet
  facet normal 0 0 -1
    outer loop
      vertex 27.69 5.404 0
      vertex 30.044 3.827 0
      vertex 27.95 4.485 0
    endloop
  endfacet
  facet normal -0 0 -1
    outer loop
      vertex 27.186 6.174 0
      vertex 30.054 20.231 0
      vertex 27.69 5.404 0
    endloop
  endfacet
  facet normal -0 -0 -1
    outer loop
      vertex 25.71 6.856 0
      vertex 0.01 20.461 0
      vertex 26.508 6.727 0
    endloop
  endfacet
  facet normal -0 0 -1
    outer loop
      vertex 26.508 6.727 0
      vertex 30.054 20.231 0
      vertex 27.186 6.174 0
    endloop
  endfacet
  facet normal 0 0 -1
    outer loop
      vertex 0.01 20.461 0
      vertex 30.054 20.231 0
      vertex 26.508 6.727 0
    endloop
  endfacet
  facet normal 0 -0 -1
    outer loop
      vertex 24.522 6.71 0
      vertex 0.01 20.461 0
      vertex 25.71 6.856 0
    endloop
  endfacet
  facet normal 0 -0 -1
    outer loop
      vertex 23.786 6.304 0
      vertex 0.01 20.461 0
      vertex 24.522 6.71 0
    endloop
  endfacet
  facet normal 0 -0 -1
    outer loop
      vertex 23.297 5.671 0
      vertex 0.01 20.461 0
      vertex 23.786 6.304 0
    endloop
  endfacet
  facet normal 0 0 -1
    outer loop
      vertex 26.958 2.229 0
      vertex 28.281 0.926 0
      vertex 26.075 1.918 0
    endloop
  endfacet
  facet normal 0 -0 -1
    outer loop
      vertex 22.98 4.605 0
      vertex 0.01 20.461 0
      vertex 23.297 5.671 0
    endloop
  endfacet
  facet normal 0 0 -1
    outer loop
      vertex 27.849 3.58 0
      vertex 29.379 2.148 0
      vertex 27.54 2.854 0
    endloop
  endfacet
  facet normal -0.277464 -0.960736 0
    outer loop
      vertex 2.193 0.567 0
      vertex 2.979 0.34 0
      vertex 2.979 0.34 5
    endloop
  endfacet
  facet normal -0.277464 -0.960736 0
    outer loop
      vertex 2.193 0.567 5
      vertex 2.193 0.567 0
      vertex 2.979 0.34 5
    endloop
  endfacet
  facet normal 0 0 1
    outer loop
      vertex 0.01 20.461 5
      vertex 0.011 4.069 5
      vertex 0.265 3.155 5
    endloop
  endfacet
  facet normal 0 0 1
    outer loop
      vertex 1.139 1.361 5
      vertex 0.01 20.461 5
      vertex 0.519 2.242 5
    endloop
  endfacet
  facet normal 0 0 1
    outer loop
      vertex 0.519 2.242 5
      vertex 0.01 20.461 5
      vertex 0.265 3.155 5
    endloop
  endfacet
  facet normal 0 0 1
    outer loop
      vertex 2.193 0.567 5
      vertex 0.01 20.461 5
      vertex 1.139 1.361 5
    endloop
  endfacet
  facet normal 0 0 1
    outer loop
      vertex 2.979 0.34 5
      vertex 0.01 20.461 5
      vertex 2.193 0.567 5
    endloop
  endfacet
  facet normal 0 0 1
    outer loop
      vertex 3.765 0.113 5
      vertex 0.01 20.461 5
      vertex 2.979 0.34 5
    endloop
  endfacet
  facet normal 0 0 1
    outer loop
      vertex 15.228 0.091 5
      vertex 0.01 20.461 5
      vertex 3.765 0.113 5
    endloop
  endfacet
  facet normal 0 0 1
    outer loop
      vertex 26.691 0.069 5
      vertex 0.01 20.461 5
      vertex 15.228 0.091 5
    endloop
  endfacet
  facet normal -0 -0 1
    outer loop
      vertex 24.322 2.24 5
      vertex 0.01 20.461 5
      vertex 26.691 0.069 5
    endloop
  endfacet
  facet normal 0 0 1
    outer loop
      vertex 24.522 6.71 5
      vertex 25.71 6.856 5
      vertex 0.01 20.461 5
    endloop
  endfacet
  facet normal 0 -0 1
    outer loop
      vertex 26.958 2.229 5
      vertex 26.075 1.918 5
      vertex 28.281 0.926 5
    endloop
  endfacet
  facet normal 0 -0 1
    outer loop
      vertex 24.126 32.671 5
      vertex 0.01 20.461 5
      vertex 30.054 20.231 5
    endloop
  endfacet
  facet normal 0 -0 1
    outer loop
      vertex 24.792 37.398 5
      vertex 24.269 36.768 5
      vertex 29.303 37.398 5
    endloop
  endfacet
  facet normal 0 -0 1
    outer loop
      vertex 12.149 36.768 5
      vertex 12.078 34.719 5
      vertex 12.672 37.398 5
    endloop
  endfacet
  facet normal 0 -0 1
    outer loop
      vertex 24.269 36.768 5
      vertex 24.198 34.719 5
      vertex 29.303 37.398 5
    endloop
  endfacet
  facet normal 0 0 1
    outer loop
      vertex 12.007 32.671 5
      vertex 5.462 32.671 5
      vertex 0.01 20.461 5
    endloop
  endfacet
  facet normal 0 0 1
    outer loop
      vertex 30.065 36.636 5
      vertex 24.126 32.671 5
      vertex 30.054 20.231 5
    endloop
  endfacet
  facet normal 0 -0 1
    outer loop
      vertex 17.753 34.719 5
      vertex 0.01 20.461 5
      vertex 17.824 32.671 5
    endloop
  endfacet
  facet normal 0 -0 1
    outer loop
      vertex 17.682 36.768 5
      vertex 0.01 20.461 5
      vertex 17.753 34.719 5
    endloop
  endfacet
  facet normal 0 -0 1
    outer loop
      vertex 17.159 37.398 5
      vertex 0.01 20.461 5
      vertex 17.682 36.768 5
    endloop
  endfacet
  facet normal 0 -0 1
    outer loop
      vertex 12.007 32.671 5
      vertex 0.01 20.461 5
      vertex 17.159 37.398 5
    endloop
  endfacet
  facet normal 0 -0 1
    outer loop
      vertex 12.672 37.398 5
      vertex 12.078 34.719 5
      vertex 17.159 37.398 5
    endloop
  endfacet
  facet normal 0 -0 1
    outer loop
      vertex 12.078 34.719 5
      vertex 12.007 32.671 5
      vertex 17.159 37.398 5
    endloop
  endfacet
  facet normal 0 0 1
    outer loop
      vertex 23.547 2.842 5
      vertex 23.09 3.659 5
      vertex 0.01 20.461 5
    endloop
  endfacet
  facet normal 0 -0 1
    outer loop
      vertex 5.341 34.974 5
      vertex 0.01 20.461 5
      vertex 5.462 32.671 5
    endloop
  endfacet
  facet normal 0 -0 1
    outer loop
      vertex 5.176 37.381 5
      vertex 0.01 20.461 5
      vertex 5.341 34.974 5
    endloop
  endfacet
  facet normal 0 -0 1
    outer loop
      vertex 2.953 37.397 5
      vertex 0.01 20.461 5
      vertex 5.176 37.381 5
    endloop
  endfacet
  facet normal 0 -0 1
    outer loop
      vertex 0.73 37.381 5
      vertex 0.01 20.461 5
      vertex 2.953 37.397 5
    endloop
  endfacet
  facet normal 0 -0 1
    outer loop
      vertex 0.033 36.728 5
      vertex 0.01 20.461 5
      vertex 0.73 37.381 5
    endloop
  endfacet
  facet normal 0 0 1
    outer loop
      vertex 23.297 5.671 5
      vertex 23.786 6.304 5
      vertex 0.01 20.461 5
    endloop
  endfacet
  facet normal -0 -0 1
    outer loop
      vertex 26.075 1.918 5
      vertex 25.148 1.928 5
      vertex 27.59 0.528 5
    endloop
  endfacet
  facet normal 0 0 1
    outer loop
      vertex 23.786 6.304 5
      vertex 24.522 6.71 5
      vertex 0.01 20.461 5
    endloop
  endfacet
  facet normal 0 -0 1
    outer loop
      vertex 27.54 2.854 5
      vertex 26.958 2.229 5
      vertex 28.83 1.466 5
    endloop
  endfacet
  facet normal 0 -0 1
    outer loop
      vertex 27.849 3.58 5
      vertex 27.54 2.854 5
      vertex 29.379 2.148 5
    endloop
  endfacet
  facet normal 0 0 1
    outer loop
      vertex 27.186 6.174 5
      vertex 27.69 5.404 5
      vertex 30.044 3.827 5
    endloop
  endfacet
  facet normal 0 0 1
    outer loop
      vertex 27.69 5.404 5
      vertex 27.95 4.485 5
      vertex 30.044 3.827 5
    endloop
  endfacet
  facet normal -0 0 1
    outer loop
      vertex 30.054 20.231 5
      vertex 0.01 20.461 5
      vertex 25.71 6.856 5
    endloop
  endfacet
  facet normal 0 -0 1
    outer loop
      vertex 27.95 4.485 5
      vertex 27.849 3.58 5
      vertex 29.714 2.902 5
    endloop
  endfacet
  facet normal 0 0 1
    outer loop
      vertex 30.054 20.231 5
      vertex 25.71 6.856 5
      vertex 26.508 6.727 5
    endloop
  endfacet
  facet normal 0 0 1
    outer loop
      vertex 30.054 20.231 5
      vertex 27.186 6.174 5
      vertex 30.044 3.827 5
    endloop
  endfacet
  facet normal 0 0 1
    outer loop
      vertex 30.054 20.231 5
      vertex 26.508 6.727 5
      vertex 27.186 6.174 5
    endloop
  endfacet
  facet normal -0 0 1
    outer loop
      vertex 30.044 3.827 5
      vertex 27.95 4.485 5
      vertex 29.714 2.902 5
    endloop
  endfacet
  facet normal -0 0 1
    outer loop
      vertex 29.714 2.902 5
      vertex 27.849 3.58 5
      vertex 29.379 2.148 5
    endloop
  endfacet
  facet normal -0 0 1
    outer loop
      vertex 29.379 2.148 5
      vertex 27.54 2.854 5
      vertex 28.83 1.466 5
    endloop
  endfacet
  facet normal -0 0 1
    outer loop
      vertex 28.83 1.466 5
      vertex 26.958 2.229 5
      vertex 28.281 0.926 5
    endloop
  endfacet
  facet normal -0 0 1
    outer loop
      vertex 28.281 0.926 5
      vertex 26.075 1.918 5
      vertex 27.59 0.528 5
    endloop
  endfacet
  facet normal 0 0 1
    outer loop
      vertex 22.98 4.605 5
      vertex 23.297 5.671 5
      vertex 0.01 20.461 5
    endloop
  endfacet
  facet normal -0 0 1
    outer loop
      vertex 27.59 0.528 5
      vertex 25.148 1.928 5
      vertex 26.691 0.069 5
    endloop
  endfacet
  facet normal -0 -0 1
    outer loop
      vertex 25.148 1.928 5
      vertex 24.322 2.24 5
      vertex 26.691 0.069 5
    endloop
  endfacet
  facet normal -0 -0 1
    outer loop
      vertex 23.547 2.842 5
      vertex 0.01 20.461 5
      vertex 24.322 2.24 5
    endloop
  endfacet
  facet normal 0 0 1
    outer loop
      vertex 23.09 3.659 5
      vertex 22.98 4.605 5
      vertex 0.01 20.461 5
    endloop
  endfacet
  facet normal 0 0 1
    outer loop
      vertex 24.198 34.719 5
      vertex 30.065 36.636 5
      vertex 29.303 37.398 5
    endloop
  endfacet
  facet normal 0 -0 1
    outer loop
      vertex 24.198 34.719 5
      vertex 24.126 32.671 5
      vertex 30.065 36.636 5
    endloop
  endfacet
  facet normal 0 0 1
    outer loop
      vertex 24.126 32.671 5
      vertex 17.824 32.671 5
      vertex 0.01 20.461 5
    endloop
  endfacet
  facet normal -0.00191921 -0.999998 0
    outer loop
      vertex 3.765 0.113 0
      vertex 15.228 0.091 0
      vertex 15.228 0.091 5
    endloop
  endfacet
  facet normal -0.00191921 -0.999998 0
    outer loop
      vertex 3.765 0.113 5
      vertex 3.765 0.113 0
      vertex 15.228 0.091 5
    endloop
  endfacet
  facet normal -0.999999 0.0014139 0
    outer loop
      vertex 0.01 20.461 5
      vertex 0.033 36.728 5
      vertex 0.01 20.461 0
    endloop
  endfacet
  facet normal -0.999999 0.0014139 0
    outer loop
      vertex 0.01 20.461 0
      vertex 0.033 36.728 5
      vertex 0.033 36.728 0
    endloop
  endfacet
  facet normal -1 -6.10054e-05 -0
    outer loop
      vertex 0.011 4.069 0
      vertex 0.011 4.069 5
      vertex 0.01 20.461 0
    endloop
  endfacet
  facet normal -1 -6.10054e-05 -0
    outer loop
      vertex 0.01 20.461 0
      vertex 0.011 4.069 5
      vertex 0.01 20.461 5
    endloop
  endfacet
  facet normal -0.963488 -0.267753 -0
    outer loop
      vertex 0.265 3.155 0
      vertex 0.265 3.155 5
      vertex 0.011 4.069 0
    endloop
  endfacet
  facet normal -0.963488 -0.267753 -0
    outer loop
      vertex 0.011 4.069 0
      vertex 0.265 3.155 5
      vertex 0.011 4.069 5
    endloop
  endfacet
  facet normal -0.963412 -0.268025 -0
    outer loop
      vertex 0.519 2.242 0
      vertex 0.519 2.242 5
      vertex 0.265 3.155 0
    endloop
  endfacet
  facet normal -0.963412 -0.268025 -0
    outer loop
      vertex 0.265 3.155 0
      vertex 0.519 2.242 5
      vertex 0.265 3.155 5
    endloop
  endfacet
  facet normal -0.81779 -0.575516 -0
    outer loop
      vertex 1.139 1.361 0
      vertex 1.139 1.361 5
      vertex 0.519 2.242 0
    endloop
  endfacet
  facet normal -0.81779 -0.575516 -0
    outer loop
      vertex 0.519 2.242 0
      vertex 1.139 1.361 5
      vertex 0.519 2.242 5
    endloop
  endfacet
  facet normal -0.601696 -0.798725 0
    outer loop
      vertex 1.139 1.361 0
      vertex 2.193 0.567 0
      vertex 2.193 0.567 5
    endloop
  endfacet
  facet normal -0.601696 -0.798725 0
    outer loop
      vertex 1.139 1.361 5
      vertex 1.139 1.361 0
      vertex 2.193 0.567 5
    endloop
  endfacet
  facet normal -0.00191921 -0.999998 0
    outer loop
      vertex 15.228 0.091 0
      vertex 26.691 0.069 0
      vertex 26.691 0.069 5
    endloop
  endfacet
  facet normal -0.00191921 -0.999998 0
    outer loop
      vertex 15.228 0.091 5
      vertex 15.228 0.091 0
      vertex 26.691 0.069 5
    endloop
  endfacet
  facet normal 0.454727 -0.890631 0
    outer loop
      vertex 26.691 0.069 0
      vertex 27.59 0.528 0
      vertex 27.59 0.528 5
    endloop
  endfacet
  facet normal 0.454727 -0.890631 0
    outer loop
      vertex 26.691 0.069 5
      vertex 26.691 0.069 0
      vertex 27.59 0.528 5
    endloop
  endfacet
  facet normal 0.499107 -0.86654 0
    outer loop
      vertex 27.59 0.528 0
      vertex 28.281 0.926 0
      vertex 28.281 0.926 5
    endloop
  endfacet
  facet normal 0.499107 -0.86654 0
    outer loop
      vertex 27.59 0.528 5
      vertex 27.59 0.528 0
      vertex 28.281 0.926 5
    endloop
  endfacet
  facet normal 0.701239 -0.712926 0
    outer loop
      vertex 28.281 0.926 0
      vertex 28.83 1.466 0
      vertex 28.83 1.466 5
    endloop
  endfacet
  facet normal 0.701239 -0.712926 0
    outer loop
      vertex 28.281 0.926 5
      vertex 28.281 0.926 0
      vertex 28.83 1.466 5
    endloop
  endfacet
  facet normal 0.778971 -0.62706 0
    outer loop
      vertex 28.83 1.466 0
      vertex 29.379 2.148 0
      vertex 29.379 2.148 5
    endloop
  endfacet
  facet normal 0.778971 -0.62706 0
    outer loop
      vertex 28.83 1.466 5
      vertex 28.83 1.466 0
      vertex 29.379 2.148 5
    endloop
  endfacet
  facet normal 0.913862 -0.406026 0
    outer loop
      vertex 29.379 2.148 0
      vertex 29.714 2.902 0
      vertex 29.714 2.902 5
    endloop
  endfacet
  facet normal 0.913862 -0.406026 0
    outer loop
      vertex 29.379 2.148 5
      vertex 29.379 2.148 0
      vertex 29.714 2.902 5
    endloop
  endfacet
  facet normal 0.941857 -0.336014 0
    outer loop
      vertex 29.714 2.902 0
      vertex 30.044 3.827 0
      vertex 30.044 3.827 5
    endloop
  endfacet
  facet normal 0.941857 -0.336014 0
    outer loop
      vertex 29.714 2.902 5
      vertex 29.714 2.902 0
      vertex 30.044 3.827 5
    endloop
  endfacet
  facet normal 1 -0.000609607 0
    outer loop
      vertex 30.044 3.827 0
      vertex 30.054 20.231 0
      vertex 30.054 20.231 5
    endloop
  endfacet
  facet normal 1 -0.000609607 0
    outer loop
      vertex 30.044 3.827 5
      vertex 30.044 3.827 0
      vertex 30.054 20.231 5
    endloop
  endfacet
  facet normal 1 -0.000670527 0
    outer loop
      vertex 30.054 20.231 0
      vertex 30.065 36.636 0
      vertex 30.065 36.636 5
    endloop
  endfacet
  facet normal 1 -0.000670527 0
    outer loop
      vertex 30.054 20.231 5
      vertex 30.054 20.231 0
      vertex 30.065 36.636 5
    endloop
  endfacet
  facet normal 0.707107 0.707107 -0
    outer loop
      vertex 29.303 37.398 5
      vertex 30.065 36.636 5
      vertex 29.303 37.398 0
    endloop
  endfacet
  facet normal 0.707107 0.707107 0
    outer loop
      vertex 29.303 37.398 0
      vertex 30.065 36.636 5
      vertex 30.065 36.636 0
    endloop
  endfacet
  facet normal 0 1 -0
    outer loop
      vertex 24.792 37.398 5
      vertex 29.303 37.398 5
      vertex 24.792 37.398 0
    endloop
  endfacet
  facet normal 0 1 0
    outer loop
      vertex 24.792 37.398 0
      vertex 29.303 37.398 5
      vertex 29.303 37.398 0
    endloop
  endfacet
  facet normal -0.769421 0.638742 0
    outer loop
      vertex 24.269 36.768 5
      vertex 24.792 37.398 5
      vertex 24.269 36.768 0
    endloop
  endfacet
  facet normal -0.769421 0.638742 0
    outer loop
      vertex 24.269 36.768 0
      vertex 24.792 37.398 5
      vertex 24.792 37.398 0
    endloop
  endfacet
  facet normal -0.9994 0.0346303 0
    outer loop
      vertex 24.198 34.719 5
      vertex 24.269 36.768 5
      vertex 24.198 34.719 0
    endloop
  endfacet
  facet normal -0.9994 0.0346303 0
    outer loop
      vertex 24.198 34.719 0
      vertex 24.269 36.768 5
      vertex 24.269 36.768 0
    endloop
  endfacet
  facet normal -0.999383 0.0351345 0
    outer loop
      vertex 24.126 32.671 5
      vertex 24.198 34.719 5
      vertex 24.126 32.671 0
    endloop
  endfacet
  facet normal -0.999383 0.0351345 0
    outer loop
      vertex 24.126 32.671 0
      vertex 24.198 34.719 5
      vertex 24.198 34.719 0
    endloop
  endfacet
  facet normal 0 1 -0
    outer loop
      vertex 17.824 32.671 5
      vertex 24.126 32.671 5
      vertex 17.824 32.671 0
    endloop
  endfacet
  facet normal 0 1 0
    outer loop
      vertex 17.824 32.671 0
      vertex 24.126 32.671 5
      vertex 24.126 32.671 0
    endloop
  endfacet
  facet normal 0.9994 0.0346472 0
    outer loop
      vertex 17.753 34.719 0
      vertex 17.753 34.719 5
      vertex 17.824 32.671 5
    endloop
  endfacet
  facet normal 0.9994 0.0346472 0
    outer loop
      vertex 17.824 32.671 0
      vertex 17.753 34.719 0
      vertex 17.824 32.671 5
    endloop
  endfacet
  facet normal 0.9994 0.0346303 0
    outer loop
      vertex 17.682 36.768 0
      vertex 17.682 36.768 5
      vertex 17.753 34.719 5
    endloop
  endfacet
  facet normal 0.9994 0.0346303 0
    outer loop
      vertex 17.753 34.719 0
      vertex 17.682 36.768 0
      vertex 17.753 34.719 5
    endloop
  endfacet
  facet normal 0.769421 0.638742 0
    outer loop
      vertex 17.159 37.398 0
      vertex 17.159 37.398 5
      vertex 17.682 36.768 5
    endloop
  endfacet
  facet normal 0.769421 0.638742 0
    outer loop
      vertex 17.682 36.768 0
      vertex 17.159 37.398 0
      vertex 17.682 36.768 5
    endloop
  endfacet
  facet normal 0 1 -0
    outer loop
      vertex 12.672 37.398 5
      vertex 17.159 37.398 5
      vertex 12.672 37.398 0
    endloop
  endfacet
  facet normal 0 1 0
    outer loop
      vertex 12.672 37.398 0
      vertex 17.159 37.398 5
      vertex 17.159 37.398 0
    endloop
  endfacet
  facet normal -0.769421 0.638742 0
    outer loop
      vertex 12.149 36.768 5
      vertex 12.672 37.398 5
      vertex 12.149 36.768 0
    endloop
  endfacet
  facet normal -0.769421 0.638742 0
    outer loop
      vertex 12.149 36.768 0
      vertex 12.672 37.398 5
      vertex 12.672 37.398 0
    endloop
  endfacet
  facet normal -0.9994 0.0346303 0
    outer loop
      vertex 12.078 34.719 5
      vertex 12.149 36.768 5
      vertex 12.078 34.719 0
    endloop
  endfacet
  facet normal -0.9994 0.0346303 0
    outer loop
      vertex 12.078 34.719 0
      vertex 12.149 36.768 5
      vertex 12.149 36.768 0
    endloop
  endfacet
  facet normal -0.9994 0.0346472 0
    outer loop
      vertex 12.007 32.671 5
      vertex 12.078 34.719 5
      vertex 12.007 32.671 0
    endloop
  endfacet
  facet normal -0.9994 0.0346472 0
    outer loop
      vertex 12.007 32.671 0
      vertex 12.078 34.719 5
      vertex 12.078 34.719 0
    endloop
  endfacet
  facet normal 0 1 -0
    outer loop
      vertex 5.462 32.671 5
      vertex 12.007 32.671 5
      vertex 5.462 32.671 0
    endloop
  endfacet
  facet normal 0 1 0
    outer loop
      vertex 5.462 32.671 0
      vertex 12.007 32.671 5
      vertex 12.007 32.671 0
    endloop
  endfacet
  facet normal 0.998623 0.0524678 0
    outer loop
      vertex 5.341 34.974 0
      vertex 5.341 34.974 5
      vertex 5.462 32.671 5
    endloop
  endfacet
  facet normal 0.998623 0.0524678 0
    outer loop
      vertex 5.462 32.671 0
      vertex 5.341 34.974 0
      vertex 5.462 32.671 5
    endloop
  endfacet
  facet normal 0.997659 0.0683896 0
    outer loop
      vertex 5.176 37.381 0
      vertex 5.176 37.381 5
      vertex 5.341 34.974 5
    endloop
  endfacet
  facet normal 0.997659 0.0683896 0
    outer loop
      vertex 5.341 34.974 0
      vertex 5.176 37.381 0
      vertex 5.341 34.974 5
    endloop
  endfacet
  facet normal 0.00719729 0.999974 -0
    outer loop
      vertex 2.953 37.397 5
      vertex 5.176 37.381 5
      vertex 2.953 37.397 0
    endloop
  endfacet
  facet normal 0.00719729 0.999974 0
    outer loop
      vertex 2.953 37.397 0
      vertex 5.176 37.381 5
      vertex 5.176 37.381 0
    endloop
  endfacet
  facet normal -0.00719729 0.999974 0
    outer loop
      vertex 0.73 37.381 5
      vertex 2.953 37.397 5
      vertex 0.73 37.381 0
    endloop
  endfacet
  facet normal -0.00719729 0.999974 0
    outer loop
      vertex 0.73 37.381 0
      vertex 2.953 37.397 5
      vertex 2.953 37.397 0
    endloop
  endfacet
  facet normal -0.683697 0.729766 0
    outer loop
      vertex 0.033 36.728 5
      vertex 0.73 37.381 5
      vertex 0.033 36.728 0
    endloop
  endfacet
  facet normal -0.683697 0.729766 0
    outer loop
      vertex 0.033 36.728 0
      vertex 0.73 37.381 5
      vertex 0.73 37.381 0
    endloop
  endfacet
  facet normal 0.958516 -0.285037 0
    outer loop
      vertex 22.98 4.605 0
      vertex 23.297 5.671 0
      vertex 23.297 5.671 5
    endloop
  endfacet
  facet normal 0.958516 -0.285037 0
    outer loop
      vertex 22.98 4.605 5
      vertex 22.98 4.605 0
      vertex 23.297 5.671 5
    endloop
  endfacet
  facet normal 0.993307 0.115501 0
    outer loop
      vertex 22.98 4.605 0
      vertex 22.98 4.605 5
      vertex 23.09 3.659 5
    endloop
  endfacet
  facet normal 0.993307 0.115501 0
    outer loop
      vertex 23.09 3.659 0
      vertex 22.98 4.605 0
      vertex 23.09 3.659 5
    endloop
  endfacet
  facet normal 0.791367 -0.611341 0
    outer loop
      vertex 23.297 5.671 0
      vertex 23.786 6.304 0
      vertex 23.786 6.304 5
    endloop
  endfacet
  facet normal 0.791367 -0.611341 0
    outer loop
      vertex 23.297 5.671 5
      vertex 23.297 5.671 0
      vertex 23.786 6.304 5
    endloop
  endfacet
  facet normal 0.483014 -0.875612 0
    outer loop
      vertex 23.786 6.304 0
      vertex 24.522 6.71 0
      vertex 24.522 6.71 5
    endloop
  endfacet
  facet normal 0.483014 -0.875612 0
    outer loop
      vertex 23.786 6.304 5
      vertex 23.786 6.304 0
      vertex 24.522 6.71 5
    endloop
  endfacet
  facet normal 0.121978 -0.992533 0
    outer loop
      vertex 24.522 6.71 0
      vertex 25.71 6.856 0
      vertex 25.71 6.856 5
    endloop
  endfacet
  facet normal 0.121978 -0.992533 0
    outer loop
      vertex 24.522 6.71 5
      vertex 24.522 6.71 0
      vertex 25.71 6.856 5
    endloop
  endfacet
  facet normal -0.159582 -0.987185 0
    outer loop
      vertex 25.71 6.856 0
      vertex 26.508 6.727 0
      vertex 26.508 6.727 5
    endloop
  endfacet
  facet normal -0.159582 -0.987185 0
    outer loop
      vertex 25.71 6.856 5
      vertex 25.71 6.856 0
      vertex 26.508 6.727 5
    endloop
  endfacet
  facet normal -0.632054 -0.774924 0
    outer loop
      vertex 26.508 6.727 0
      vertex 27.186 6.174 0
      vertex 27.186 6.174 5
    endloop
  endfacet
  facet normal -0.632054 -0.774924 0
    outer loop
      vertex 26.508 6.727 5
      vertex 26.508 6.727 0
      vertex 27.186 6.174 5
    endloop
  endfacet
  facet normal -0.836702 -0.547659 -0
    outer loop
      vertex 27.69 5.404 0
      vertex 27.69 5.404 5
      vertex 27.186 6.174 0
    endloop
  endfacet
  facet normal -0.836702 -0.547659 -0
    outer loop
      vertex 27.186 6.174 0
      vertex 27.69 5.404 5
      vertex 27.186 6.174 5
    endloop
  endfacet
  facet normal -0.962232 -0.272231 -0
    outer loop
      vertex 27.95 4.485 0
      vertex 27.95 4.485 5
      vertex 27.69 5.404 0
    endloop
  endfacet
  facet normal -0.962232 -0.272231 -0
    outer loop
      vertex 27.69 5.404 0
      vertex 27.95 4.485 5
      vertex 27.69 5.404 5
    endloop
  endfacet
  facet normal -0.99383 0.110914 0
    outer loop
      vertex 27.849 3.58 5
      vertex 27.95 4.485 5
      vertex 27.849 3.58 0
    endloop
  endfacet
  facet normal -0.99383 0.110914 0
    outer loop
      vertex 27.849 3.58 0
      vertex 27.95 4.485 5
      vertex 27.95 4.485 0
    endloop
  endfacet
  facet normal -0.920125 0.391624 0
    outer loop
      vertex 27.54 2.854 5
      vertex 27.849 3.58 5
      vertex 27.54 2.854 0
    endloop
  endfacet
  facet normal -0.920125 0.391624 0
    outer loop
      vertex 27.54 2.854 0
      vertex 27.849 3.58 5
      vertex 27.849 3.58 0
    endloop
  endfacet
  facet normal -0.731834 0.681483 0
    outer loop
      vertex 26.958 2.229 5
      vertex 27.54 2.854 5
      vertex 26.958 2.229 0
    endloop
  endfacet
  facet normal -0.731834 0.681483 0
    outer loop
      vertex 26.958 2.229 0
      vertex 27.54 2.854 5
      vertex 27.54 2.854 0
    endloop
  endfacet
  facet normal -0.332205 0.943207 0
    outer loop
      vertex 26.075 1.918 5
      vertex 26.958 2.229 5
      vertex 26.075 1.918 0
    endloop
  endfacet
  facet normal -0.332205 0.943207 0
    outer loop
      vertex 26.075 1.918 0
      vertex 26.958 2.229 5
      vertex 26.958 2.229 0
    endloop
  endfacet
  facet normal 0.0107869 0.999942 -0
    outer loop
      vertex 25.148 1.928 5
      vertex 26.075 1.918 5
      vertex 25.148 1.928 0
    endloop
  endfacet
  facet normal 0.0107869 0.999942 0
    outer loop
      vertex 25.148 1.928 0
      vertex 26.075 1.918 5
      vertex 26.075 1.918 0
    endloop
  endfacet
  facet normal 0.353357 0.935489 -0
    outer loop
      vertex 24.322 2.24 5
      vertex 25.148 1.928 5
      vertex 24.322 2.24 0
    endloop
  endfacet
  facet normal 0.353357 0.935489 0
    outer loop
      vertex 24.322 2.24 0
      vertex 25.148 1.928 5
      vertex 25.148 1.928 0
    endloop
  endfacet
  facet normal 0.613447 0.789736 -0
    outer loop
      vertex 23.547 2.842 5
      vertex 24.322 2.24 5
      vertex 23.547 2.842 0
    endloop
  endfacet
  facet normal 0.613447 0.789736 0
    outer loop
      vertex 23.547 2.842 0
      vertex 24.322 2.24 5
      vertex 24.322 2.24 0
    endloop
  endfacet
  facet normal 0.872743 0.48818 0
    outer loop
      vertex 23.09 3.659 0
      vertex 23.09 3.659 5
      vertex 23.547 2.842 5
    endloop
  endfacet
  facet normal 0.872743 0.48818 0
    outer loop
      vertex 23.547 2.842 0
      vertex 23.09 3.659 0
      vertex 23.547 2.842 5
    endloop
  endfacet
endsolid OpenSCAD_Model
